%TF.GenerationSoftware,KiCad,Pcbnew,9.0.0*%
%TF.CreationDate,2025-09-27T11:06:56-07:00*%
%TF.ProjectId,grippy,67726970-7079-42e6-9b69-6361645f7063,rev?*%
%TF.SameCoordinates,Original*%
%TF.FileFunction,Paste,Top*%
%TF.FilePolarity,Positive*%
%FSLAX46Y46*%
G04 Gerber Fmt 4.6, Leading zero omitted, Abs format (unit mm)*
G04 Created by KiCad (PCBNEW 9.0.0) date 2025-09-27 11:06:56*
%MOMM*%
%LPD*%
G01*
G04 APERTURE LIST*
G04 Aperture macros list*
%AMRoundRect*
0 Rectangle with rounded corners*
0 $1 Rounding radius*
0 $2 $3 $4 $5 $6 $7 $8 $9 X,Y pos of 4 corners*
0 Add a 4 corners polygon primitive as box body*
4,1,4,$2,$3,$4,$5,$6,$7,$8,$9,$2,$3,0*
0 Add four circle primitives for the rounded corners*
1,1,$1+$1,$2,$3*
1,1,$1+$1,$4,$5*
1,1,$1+$1,$6,$7*
1,1,$1+$1,$8,$9*
0 Add four rect primitives between the rounded corners*
20,1,$1+$1,$2,$3,$4,$5,0*
20,1,$1+$1,$4,$5,$6,$7,0*
20,1,$1+$1,$6,$7,$8,$9,0*
20,1,$1+$1,$8,$9,$2,$3,0*%
G04 Aperture macros list end*
%ADD10R,2.400000X1.400000*%
%ADD11R,1.600000X2.000000*%
%ADD12RoundRect,0.150000X-0.601041X-0.388909X-0.388909X-0.601041X0.601041X0.388909X0.388909X0.601041X0*%
%ADD13RoundRect,0.250000X-0.954594X-0.601041X-0.601041X-0.954594X0.954594X0.601041X0.601041X0.954594X0*%
%ADD14R,1.000000X1.550000*%
%ADD15RoundRect,0.240000X0.360000X1.010000X-0.360000X1.010000X-0.360000X-1.010000X0.360000X-1.010000X0*%
%ADD16R,1.000000X2.510000*%
%ADD17R,1.550000X1.000000*%
G04 APERTURE END LIST*
D10*
%TO.C,U1*%
X195060000Y-107330000D03*
X195060000Y-112410000D03*
D11*
X202430000Y-112250000D03*
X205630000Y-112250000D03*
D10*
X195060000Y-109870000D03*
X213000000Y-107330000D03*
X213000000Y-104790000D03*
X213000000Y-102250000D03*
X213000000Y-99710000D03*
X213000000Y-97170000D03*
X213000000Y-94630000D03*
X213000000Y-92090000D03*
X195060000Y-92090000D03*
X195060000Y-94630000D03*
X195060000Y-97170000D03*
X195060000Y-99710000D03*
X195060000Y-102250000D03*
X195060000Y-104790000D03*
X213000000Y-109870000D03*
X213000000Y-112410000D03*
%TD*%
D12*
%TO.C,BAT1*%
X195366117Y-57150000D03*
X196250000Y-58033883D03*
D13*
X191795228Y-58104594D03*
X195295406Y-61604772D03*
%TD*%
D14*
%TO.C,SW3*%
X221300000Y-106625000D03*
X221300000Y-111875000D03*
X219600000Y-106625000D03*
X219600000Y-111875000D03*
%TD*%
%TO.C,SW0*%
X221300000Y-57625000D03*
X221300000Y-62875000D03*
X219600000Y-57625000D03*
X219600000Y-62875000D03*
%TD*%
D15*
%TO.C,SW5*%
X206250000Y-58800000D03*
X203750000Y-58800000D03*
X201250000Y-58800000D03*
%TD*%
D16*
%TO.C,J1*%
X195055000Y-66005000D03*
X197595000Y-69315000D03*
X200135000Y-66005000D03*
X202675000Y-69315000D03*
X205215000Y-66005000D03*
X207755000Y-69315000D03*
X210295000Y-66005000D03*
X212835000Y-69315000D03*
%TD*%
D14*
%TO.C,SW2*%
X221300000Y-90625000D03*
X221300000Y-95875000D03*
X219600000Y-90625000D03*
X219600000Y-95875000D03*
%TD*%
%TO.C,SW1*%
X221300000Y-73625000D03*
X221300000Y-78875000D03*
X219600000Y-73625000D03*
X219600000Y-78875000D03*
%TD*%
D17*
%TO.C,SW4*%
X210800000Y-56375000D03*
X216050000Y-56375000D03*
X210800000Y-58075000D03*
X216050000Y-58075000D03*
%TD*%
M02*
