  0
SECTION
  2
HEADER
  9
$ANGBASE
  50
0.0
  9
$ANGDIR
  70
1
  9
$MEASUREMENT
  70
1
  0
ENDSEC
  0
SECTION
  2
TABLES
  0
TABLE
  2
LTYPE
  70
4
  0
LTYPE
  5
40F
  2
CONTINUOUS
  70
0
  3
Solid line
  72
65
  73
0
  40
0.0
  0
LTYPE
  5
410
  2
DASHDOT
 70
0
  3
Dash Dot ____ _ ____ _
 72
65
 73
4
 40
2.0
 49
1.25
 49
-0.25
 49
0.25
 49
-0.25
  0
LTYPE
  5
411
  2
DASHED
 70
0
  3
Dashed __ __ __ __ __
 72
65
 73
2
 40
0.75
 49
0.5
 49
-0.25
  0
LTYPE
  5
43B
  2
DOTTED
 70
0
  3
Dotted .  .  .  .
 72
65
 73
2
 40
0.2
 49
0.0
 49
-0.2
  0
ENDTAB
  0
TABLE
  2
STYLE
  70
4
  0
STYLE
  2
KICAD
  70
0
  40
0
  41
1
  42
1
  50
0
  71
0
  3
isocp.shx
  0
STYLE
  2
KICADB
  70
0
  40
0
  41
1
  42
1
  50
0
  71
0
  3
isocp.shx
  0
STYLE
  2
KICADI
  70
0
  40
0
  41
1
  42
1
  50
15
  71
0
  3
isocp.shx
  0
STYLE
  2
KICADBI
  70
0
  40
0
  41
1
  42
1
  50
15
  71
0
  3
isocp.shx
  0
ENDTAB
  0
TABLE
  2
LAYER
  70
1
  0
LAYER
  2
BLACK
  70
0
  62
7
  6
CONTINUOUS
  0
ENDTAB
  0
ENDSEC
  0
SECTION
  2
ENTITIES
0
LINE
8
BLACK
6
CONTINUOUS
10
203.2299999999999898
20
-113.25
11
201.6299999999999955
21
-113.25
0
LINE
8
BLACK
6
CONTINUOUS
10
201.6299999999999955
20
-113.25
11
201.6299999999999955
21
-111.25
0
LINE
8
BLACK
6
CONTINUOUS
10
201.6299999999999955
20
-111.25
11
203.2299999999999898
21
-111.25
0
LINE
8
BLACK
6
CONTINUOUS
10
203.2299999999999898
20
-111.25
11
203.2299999999999898
21
-113.25
0
LINE
8
BLACK
6
CONTINUOUS
10
206.4299999999999784
20
-113.25
11
204.8299999999999841
21
-113.25
0
LINE
8
BLACK
6
CONTINUOUS
10
204.8299999999999841
20
-113.25
11
204.8299999999999841
21
-111.25
0
LINE
8
BLACK
6
CONTINUOUS
10
204.8299999999999841
20
-111.25
11
206.4299999999999784
21
-111.25
0
LINE
8
BLACK
6
CONTINUOUS
10
206.4299999999999784
20
-111.25
11
206.4299999999999784
21
-113.25
0
LINE
8
BLACK
6
CONTINUOUS
10
196.2599999999999909
20
-113.1099999999999994
11
193.8599999999999852
21
-113.1099999999999994
0
LINE
8
BLACK
6
CONTINUOUS
10
193.8599999999999852
20
-113.1099999999999994
11
193.8599999999999852
21
-111.7099999999999937
0
LINE
8
BLACK
6
CONTINUOUS
10
193.8599999999999852
20
-111.7099999999999937
11
196.2599999999999909
21
-111.7099999999999937
0
LINE
8
BLACK
6
CONTINUOUS
10
196.2599999999999909
20
-111.7099999999999937
11
196.2599999999999909
21
-113.1099999999999994
0
LINE
8
BLACK
6
CONTINUOUS
10
214.1999999999999886
20
-113.1099999999999994
11
211.7999999999999829
21
-113.1099999999999994
0
LINE
8
BLACK
6
CONTINUOUS
10
211.7999999999999829
20
-113.1099999999999994
11
211.7999999999999829
21
-111.7099999999999937
0
LINE
8
BLACK
6
CONTINUOUS
10
211.7999999999999829
20
-111.7099999999999937
11
214.1999999999999886
21
-111.7099999999999937
0
LINE
8
BLACK
6
CONTINUOUS
10
214.1999999999999886
20
-111.7099999999999937
11
214.1999999999999886
21
-113.1099999999999994
0
LINE
8
BLACK
6
CONTINUOUS
10
220.0999999999999943
20
-112.6499999999999915
11
219.0999999999999943
21
-112.6499999999999915
0
LINE
8
BLACK
6
CONTINUOUS
10
219.0999999999999943
20
-112.6499999999999915
11
219.0999999999999943
21
-111.0999999999999943
0
LINE
8
BLACK
6
CONTINUOUS
10
219.0999999999999943
20
-111.0999999999999943
11
220.0999999999999943
21
-111.0999999999999943
0
LINE
8
BLACK
6
CONTINUOUS
10
220.0999999999999943
20
-111.0999999999999943
11
220.0999999999999943
21
-112.6499999999999915
0
LINE
8
BLACK
6
CONTINUOUS
10
221.7999999999999829
20
-112.6499999999999915
11
220.7999999999999829
21
-112.6499999999999915
0
LINE
8
BLACK
6
CONTINUOUS
10
220.7999999999999829
20
-112.6499999999999915
11
220.7999999999999829
21
-111.0999999999999943
0
LINE
8
BLACK
6
CONTINUOUS
10
220.7999999999999829
20
-111.0999999999999943
11
221.7999999999999829
21
-111.0999999999999943
0
LINE
8
BLACK
6
CONTINUOUS
10
221.7999999999999829
20
-111.0999999999999943
11
221.7999999999999829
21
-112.6499999999999915
0
LINE
8
BLACK
6
CONTINUOUS
10
196.2599999999999909
20
-110.5699999999999932
11
193.8599999999999852
21
-110.5699999999999932
0
LINE
8
BLACK
6
CONTINUOUS
10
193.8599999999999852
20
-110.5699999999999932
11
193.8599999999999852
21
-109.1700000000000017
0
LINE
8
BLACK
6
CONTINUOUS
10
193.8599999999999852
20
-109.1700000000000017
11
196.2599999999999909
21
-109.1700000000000017
0
LINE
8
BLACK
6
CONTINUOUS
10
196.2599999999999909
20
-109.1700000000000017
11
196.2599999999999909
21
-110.5699999999999932
0
LINE
8
BLACK
6
CONTINUOUS
10
214.1999999999999886
20
-110.5699999999999932
11
211.7999999999999829
21
-110.5699999999999932
0
LINE
8
BLACK
6
CONTINUOUS
10
211.7999999999999829
20
-110.5699999999999932
11
211.7999999999999829
21
-109.1700000000000017
0
LINE
8
BLACK
6
CONTINUOUS
10
211.7999999999999829
20
-109.1700000000000017
11
214.1999999999999886
21
-109.1700000000000017
0
LINE
8
BLACK
6
CONTINUOUS
10
214.1999999999999886
20
-109.1700000000000017
11
214.1999999999999886
21
-110.5699999999999932
0
LINE
8
BLACK
6
CONTINUOUS
10
219.2472080000000005
20
-108.8342540000000014
11
219.3489429999999913
21
-108.892990999999995
0
LINE
8
BLACK
6
CONTINUOUS
10
219.3489429999999913
20
-108.892990999999995
11
219.4320089999999936
21
-108.9760569999999973
0
LINE
8
BLACK
6
CONTINUOUS
10
219.4320089999999936
20
-108.9760569999999973
11
219.4907460000000015
21
-109.0777919999999881
0
LINE
8
BLACK
6
CONTINUOUS
10
219.4907460000000015
20
-109.0777919999999881
11
219.5211499999999774
21
-109.1912629999999922
0
LINE
8
BLACK
6
CONTINUOUS
10
219.5211499999999774
20
-109.1912629999999922
11
219.5211499999999774
21
-109.3087369999999936
0
LINE
8
BLACK
6
CONTINUOUS
10
219.5211499999999774
20
-109.3087369999999936
11
219.4907460000000015
21
-109.4222079999999977
0
LINE
8
BLACK
6
CONTINUOUS
10
219.4907460000000015
20
-109.4222079999999977
11
219.4320089999999936
21
-109.5239429999999885
0
LINE
8
BLACK
6
CONTINUOUS
10
219.4320089999999936
20
-109.5239429999999885
11
219.3489429999999913
21
-109.6070089999999908
0
LINE
8
BLACK
6
CONTINUOUS
10
219.3489429999999913
20
-109.6070089999999908
11
219.2472080000000005
21
-109.6657459999999986
0
LINE
8
BLACK
6
CONTINUOUS
10
219.2472080000000005
20
-109.6657459999999986
11
219.1337369999999964
21
-109.6961499999999887
0
LINE
8
BLACK
6
CONTINUOUS
10
219.1337369999999964
20
-109.6961499999999887
11
219.0162629999999808
21
-109.6961499999999887
0
LINE
8
BLACK
6
CONTINUOUS
10
219.0162629999999808
20
-109.6961499999999887
11
218.9027919999999767
21
-109.6657459999999986
0
LINE
8
BLACK
6
CONTINUOUS
10
218.9027919999999767
20
-109.6657459999999986
11
218.8010569999999859
21
-109.6070089999999908
0
LINE
8
BLACK
6
CONTINUOUS
10
218.8010569999999859
20
-109.6070089999999908
11
218.7179909999999836
21
-109.5239429999999885
0
LINE
8
BLACK
6
CONTINUOUS
10
218.7179909999999836
20
-109.5239429999999885
11
218.6592540000000042
21
-109.4222079999999977
0
LINE
8
BLACK
6
CONTINUOUS
10
218.6592540000000042
20
-109.4222079999999977
11
218.6288499999999999
21
-109.3087369999999936
0
LINE
8
BLACK
6
CONTINUOUS
10
218.6288499999999999
20
-109.3087369999999936
11
218.6288499999999999
21
-109.1912629999999922
0
LINE
8
BLACK
6
CONTINUOUS
10
218.6288499999999999
20
-109.1912629999999922
11
218.6592540000000042
21
-109.0777919999999881
0
LINE
8
BLACK
6
CONTINUOUS
10
218.6592540000000042
20
-109.0777919999999881
11
218.7179909999999836
21
-108.9760569999999973
0
LINE
8
BLACK
6
CONTINUOUS
10
218.7179909999999836
20
-108.9760569999999973
11
218.8010569999999859
21
-108.892990999999995
0
LINE
8
BLACK
6
CONTINUOUS
10
218.8010569999999859
20
-108.892990999999995
11
218.9027919999999767
21
-108.8342540000000014
0
LINE
8
BLACK
6
CONTINUOUS
10
218.9027919999999767
20
-108.8342540000000014
11
219.0162629999999808
21
-108.8038499999999971
0
LINE
8
BLACK
6
CONTINUOUS
10
219.0162629999999808
20
-108.8038499999999971
11
219.1337369999999964
21
-108.8038499999999971
0
LINE
8
BLACK
6
CONTINUOUS
10
219.1337369999999964
20
-108.8038499999999971
11
219.2472080000000005
21
-108.8342540000000014
0
LINE
8
BLACK
6
CONTINUOUS
10
221.9972080000000005
20
-108.8342540000000014
11
222.0989429999999913
21
-108.892990999999995
0
LINE
8
BLACK
6
CONTINUOUS
10
222.0989429999999913
20
-108.892990999999995
11
222.1820089999999936
21
-108.9760569999999973
0
LINE
8
BLACK
6
CONTINUOUS
10
222.1820089999999936
20
-108.9760569999999973
11
222.2407460000000015
21
-109.0777919999999881
0
LINE
8
BLACK
6
CONTINUOUS
10
222.2407460000000015
20
-109.0777919999999881
11
222.2711499999999774
21
-109.1912629999999922
0
LINE
8
BLACK
6
CONTINUOUS
10
222.2711499999999774
20
-109.1912629999999922
11
222.2711499999999774
21
-109.3087369999999936
0
LINE
8
BLACK
6
CONTINUOUS
10
222.2711499999999774
20
-109.3087369999999936
11
222.2407460000000015
21
-109.4222079999999977
0
LINE
8
BLACK
6
CONTINUOUS
10
222.2407460000000015
20
-109.4222079999999977
11
222.1820089999999936
21
-109.5239429999999885
0
LINE
8
BLACK
6
CONTINUOUS
10
222.1820089999999936
20
-109.5239429999999885
11
222.0989429999999913
21
-109.6070089999999908
0
LINE
8
BLACK
6
CONTINUOUS
10
222.0989429999999913
20
-109.6070089999999908
11
221.9972080000000005
21
-109.6657459999999986
0
LINE
8
BLACK
6
CONTINUOUS
10
221.9972080000000005
20
-109.6657459999999986
11
221.8837369999999964
21
-109.6961499999999887
0
LINE
8
BLACK
6
CONTINUOUS
10
221.8837369999999964
20
-109.6961499999999887
11
221.7662629999999808
21
-109.6961499999999887
0
LINE
8
BLACK
6
CONTINUOUS
10
221.7662629999999808
20
-109.6961499999999887
11
221.6527919999999767
21
-109.6657459999999986
0
LINE
8
BLACK
6
CONTINUOUS
10
221.6527919999999767
20
-109.6657459999999986
11
221.5510569999999859
21
-109.6070089999999908
0
LINE
8
BLACK
6
CONTINUOUS
10
221.5510569999999859
20
-109.6070089999999908
11
221.4679909999999836
21
-109.5239429999999885
0
LINE
8
BLACK
6
CONTINUOUS
10
221.4679909999999836
20
-109.5239429999999885
11
221.4092539999999758
21
-109.4222079999999977
0
LINE
8
BLACK
6
CONTINUOUS
10
221.4092539999999758
20
-109.4222079999999977
11
221.3788499999999999
21
-109.3087369999999936
0
LINE
8
BLACK
6
CONTINUOUS
10
221.3788499999999999
20
-109.3087369999999936
11
221.3788499999999999
21
-109.1912629999999922
0
LINE
8
BLACK
6
CONTINUOUS
10
221.3788499999999999
20
-109.1912629999999922
11
221.4092539999999758
21
-109.0777919999999881
0
LINE
8
BLACK
6
CONTINUOUS
10
221.4092539999999758
20
-109.0777919999999881
11
221.4679909999999836
21
-108.9760569999999973
0
LINE
8
BLACK
6
CONTINUOUS
10
221.4679909999999836
20
-108.9760569999999973
11
221.5510569999999859
21
-108.892990999999995
0
LINE
8
BLACK
6
CONTINUOUS
10
221.5510569999999859
20
-108.892990999999995
11
221.6527919999999767
21
-108.8342540000000014
0
LINE
8
BLACK
6
CONTINUOUS
10
221.6527919999999767
20
-108.8342540000000014
11
221.7662629999999808
21
-108.8038499999999971
0
LINE
8
BLACK
6
CONTINUOUS
10
221.7662629999999808
20
-108.8038499999999971
11
221.8837369999999964
21
-108.8038499999999971
0
LINE
8
BLACK
6
CONTINUOUS
10
221.8837369999999964
20
-108.8038499999999971
11
221.9972080000000005
21
-108.8342540000000014
0
LINE
8
BLACK
6
CONTINUOUS
10
196.2599999999999909
20
-108.0300000000000011
11
193.8599999999999852
21
-108.0300000000000011
0
LINE
8
BLACK
6
CONTINUOUS
10
193.8599999999999852
20
-108.0300000000000011
11
193.8599999999999852
21
-106.6299999999999955
0
LINE
8
BLACK
6
CONTINUOUS
10
193.8599999999999852
20
-106.6299999999999955
11
196.2599999999999909
21
-106.6299999999999955
0
LINE
8
BLACK
6
CONTINUOUS
10
196.2599999999999909
20
-106.6299999999999955
11
196.2599999999999909
21
-108.0300000000000011
0
LINE
8
BLACK
6
CONTINUOUS
10
214.1999999999999886
20
-108.0300000000000011
11
211.7999999999999829
21
-108.0300000000000011
0
LINE
8
BLACK
6
CONTINUOUS
10
211.7999999999999829
20
-108.0300000000000011
11
211.7999999999999829
21
-106.6299999999999955
0
LINE
8
BLACK
6
CONTINUOUS
10
211.7999999999999829
20
-106.6299999999999955
11
214.1999999999999886
21
-106.6299999999999955
0
LINE
8
BLACK
6
CONTINUOUS
10
214.1999999999999886
20
-106.6299999999999955
11
214.1999999999999886
21
-108.0300000000000011
0
LINE
8
BLACK
6
CONTINUOUS
10
220.0999999999999943
20
-107.3999999999999915
11
219.0999999999999943
21
-107.3999999999999915
0
LINE
8
BLACK
6
CONTINUOUS
10
219.0999999999999943
20
-107.3999999999999915
11
219.0999999999999943
21
-105.8499999999999943
0
LINE
8
BLACK
6
CONTINUOUS
10
219.0999999999999943
20
-105.8499999999999943
11
220.0999999999999943
21
-105.8499999999999943
0
LINE
8
BLACK
6
CONTINUOUS
10
220.0999999999999943
20
-105.8499999999999943
11
220.0999999999999943
21
-107.3999999999999915
0
LINE
8
BLACK
6
CONTINUOUS
10
221.7999999999999829
20
-107.3999999999999915
11
220.7999999999999829
21
-107.3999999999999915
0
LINE
8
BLACK
6
CONTINUOUS
10
220.7999999999999829
20
-107.3999999999999915
11
220.7999999999999829
21
-105.8499999999999943
0
LINE
8
BLACK
6
CONTINUOUS
10
220.7999999999999829
20
-105.8499999999999943
11
221.7999999999999829
21
-105.8499999999999943
0
LINE
8
BLACK
6
CONTINUOUS
10
221.7999999999999829
20
-105.8499999999999943
11
221.7999999999999829
21
-107.3999999999999915
0
LINE
8
BLACK
6
CONTINUOUS
10
196.2599999999999909
20
-105.4899999999999949
11
193.8599999999999852
21
-105.4899999999999949
0
LINE
8
BLACK
6
CONTINUOUS
10
193.8599999999999852
20
-105.4899999999999949
11
193.8599999999999852
21
-104.0899999999999892
0
LINE
8
BLACK
6
CONTINUOUS
10
193.8599999999999852
20
-104.0899999999999892
11
196.2599999999999909
21
-104.0899999999999892
0
LINE
8
BLACK
6
CONTINUOUS
10
196.2599999999999909
20
-104.0899999999999892
11
196.2599999999999909
21
-105.4899999999999949
0
LINE
8
BLACK
6
CONTINUOUS
10
214.1999999999999886
20
-105.4899999999999949
11
211.7999999999999829
21
-105.4899999999999949
0
LINE
8
BLACK
6
CONTINUOUS
10
211.7999999999999829
20
-105.4899999999999949
11
211.7999999999999829
21
-104.0899999999999892
0
LINE
8
BLACK
6
CONTINUOUS
10
211.7999999999999829
20
-104.0899999999999892
11
214.1999999999999886
21
-104.0899999999999892
0
LINE
8
BLACK
6
CONTINUOUS
10
214.1999999999999886
20
-104.0899999999999892
11
214.1999999999999886
21
-105.4899999999999949
0
LINE
8
BLACK
6
CONTINUOUS
10
196.2599999999999909
20
-102.9499999999999886
11
193.8599999999999852
21
-102.9499999999999886
0
LINE
8
BLACK
6
CONTINUOUS
10
193.8599999999999852
20
-102.9499999999999886
11
193.8599999999999852
21
-101.5499999999999972
0
LINE
8
BLACK
6
CONTINUOUS
10
193.8599999999999852
20
-101.5499999999999972
11
196.2599999999999909
21
-101.5499999999999972
0
LINE
8
BLACK
6
CONTINUOUS
10
196.2599999999999909
20
-101.5499999999999972
11
196.2599999999999909
21
-102.9499999999999886
0
LINE
8
BLACK
6
CONTINUOUS
10
214.1999999999999886
20
-102.9499999999999886
11
211.7999999999999829
21
-102.9499999999999886
0
LINE
8
BLACK
6
CONTINUOUS
10
211.7999999999999829
20
-102.9499999999999886
11
211.7999999999999829
21
-101.5499999999999972
0
LINE
8
BLACK
6
CONTINUOUS
10
211.7999999999999829
20
-101.5499999999999972
11
214.1999999999999886
21
-101.5499999999999972
0
LINE
8
BLACK
6
CONTINUOUS
10
214.1999999999999886
20
-101.5499999999999972
11
214.1999999999999886
21
-102.9499999999999886
0
LINE
8
BLACK
6
CONTINUOUS
10
196.2599999999999909
20
-100.4099999999999966
11
193.8599999999999852
21
-100.4099999999999966
0
LINE
8
BLACK
6
CONTINUOUS
10
193.8599999999999852
20
-100.4099999999999966
11
193.8599999999999852
21
-99.0099999999999909
0
LINE
8
BLACK
6
CONTINUOUS
10
193.8599999999999852
20
-99.0099999999999909
11
196.2599999999999909
21
-99.0099999999999909
0
LINE
8
BLACK
6
CONTINUOUS
10
196.2599999999999909
20
-99.0099999999999909
11
196.2599999999999909
21
-100.4099999999999966
0
LINE
8
BLACK
6
CONTINUOUS
10
214.1999999999999886
20
-100.4099999999999966
11
211.7999999999999829
21
-100.4099999999999966
0
LINE
8
BLACK
6
CONTINUOUS
10
211.7999999999999829
20
-100.4099999999999966
11
211.7999999999999829
21
-99.0099999999999909
0
LINE
8
BLACK
6
CONTINUOUS
10
211.7999999999999829
20
-99.0099999999999909
11
214.1999999999999886
21
-99.0099999999999909
0
LINE
8
BLACK
6
CONTINUOUS
10
214.1999999999999886
20
-99.0099999999999909
11
214.1999999999999886
21
-100.4099999999999966
0
LINE
8
BLACK
6
CONTINUOUS
10
196.2599999999999909
20
-97.8699999999999903
11
193.8599999999999852
21
-97.8699999999999903
0
LINE
8
BLACK
6
CONTINUOUS
10
193.8599999999999852
20
-97.8699999999999903
11
193.8599999999999852
21
-96.4699999999999989
0
LINE
8
BLACK
6
CONTINUOUS
10
193.8599999999999852
20
-96.4699999999999989
11
196.2599999999999909
21
-96.4699999999999989
0
LINE
8
BLACK
6
CONTINUOUS
10
196.2599999999999909
20
-96.4699999999999989
11
196.2599999999999909
21
-97.8699999999999903
0
LINE
8
BLACK
6
CONTINUOUS
10
214.1999999999999886
20
-97.8699999999999903
11
211.7999999999999829
21
-97.8699999999999903
0
LINE
8
BLACK
6
CONTINUOUS
10
211.7999999999999829
20
-97.8699999999999903
11
211.7999999999999829
21
-96.4699999999999989
0
LINE
8
BLACK
6
CONTINUOUS
10
211.7999999999999829
20
-96.4699999999999989
11
214.1999999999999886
21
-96.4699999999999989
0
LINE
8
BLACK
6
CONTINUOUS
10
214.1999999999999886
20
-96.4699999999999989
11
214.1999999999999886
21
-97.8699999999999903
0
LINE
8
BLACK
6
CONTINUOUS
10
220.0999999999999943
20
-96.6499999999999915
11
219.0999999999999943
21
-96.6499999999999915
0
LINE
8
BLACK
6
CONTINUOUS
10
219.0999999999999943
20
-96.6499999999999915
11
219.0999999999999943
21
-95.0999999999999943
0
LINE
8
BLACK
6
CONTINUOUS
10
219.0999999999999943
20
-95.0999999999999943
11
220.0999999999999943
21
-95.0999999999999943
0
LINE
8
BLACK
6
CONTINUOUS
10
220.0999999999999943
20
-95.0999999999999943
11
220.0999999999999943
21
-96.6499999999999915
0
LINE
8
BLACK
6
CONTINUOUS
10
221.7999999999999829
20
-96.6499999999999915
11
220.7999999999999829
21
-96.6499999999999915
0
LINE
8
BLACK
6
CONTINUOUS
10
220.7999999999999829
20
-96.6499999999999915
11
220.7999999999999829
21
-95.0999999999999943
0
LINE
8
BLACK
6
CONTINUOUS
10
220.7999999999999829
20
-95.0999999999999943
11
221.7999999999999829
21
-95.0999999999999943
0
LINE
8
BLACK
6
CONTINUOUS
10
221.7999999999999829
20
-95.0999999999999943
11
221.7999999999999829
21
-96.6499999999999915
0
LINE
8
BLACK
6
CONTINUOUS
10
196.2599999999999909
20
-95.3299999999999983
11
193.8599999999999852
21
-95.3299999999999983
0
LINE
8
BLACK
6
CONTINUOUS
10
193.8599999999999852
20
-95.3299999999999983
11
193.8599999999999852
21
-93.9299999999999926
0
LINE
8
BLACK
6
CONTINUOUS
10
193.8599999999999852
20
-93.9299999999999926
11
196.2599999999999909
21
-93.9299999999999926
0
LINE
8
BLACK
6
CONTINUOUS
10
196.2599999999999909
20
-93.9299999999999926
11
196.2599999999999909
21
-95.3299999999999983
0
LINE
8
BLACK
6
CONTINUOUS
10
214.1999999999999886
20
-95.3299999999999983
11
211.7999999999999829
21
-95.3299999999999983
0
LINE
8
BLACK
6
CONTINUOUS
10
211.7999999999999829
20
-95.3299999999999983
11
211.7999999999999829
21
-93.9299999999999926
0
LINE
8
BLACK
6
CONTINUOUS
10
211.7999999999999829
20
-93.9299999999999926
11
214.1999999999999886
21
-93.9299999999999926
0
LINE
8
BLACK
6
CONTINUOUS
10
214.1999999999999886
20
-93.9299999999999926
11
214.1999999999999886
21
-95.3299999999999983
0
LINE
8
BLACK
6
CONTINUOUS
10
219.2472080000000005
20
-92.8342540000000014
11
219.3489429999999913
21
-92.892990999999995
0
LINE
8
BLACK
6
CONTINUOUS
10
219.3489429999999913
20
-92.892990999999995
11
219.4320089999999936
21
-92.9760569999999973
0
LINE
8
BLACK
6
CONTINUOUS
10
219.4320089999999936
20
-92.9760569999999973
11
219.4907460000000015
21
-93.0777920000000023
0
LINE
8
BLACK
6
CONTINUOUS
10
219.4907460000000015
20
-93.0777920000000023
11
219.5211499999999774
21
-93.1912629999999922
0
LINE
8
BLACK
6
CONTINUOUS
10
219.5211499999999774
20
-93.1912629999999922
11
219.5211499999999774
21
-93.3087369999999936
0
LINE
8
BLACK
6
CONTINUOUS
10
219.5211499999999774
20
-93.3087369999999936
11
219.4907460000000015
21
-93.4222079999999977
0
LINE
8
BLACK
6
CONTINUOUS
10
219.4907460000000015
20
-93.4222079999999977
11
219.4320089999999936
21
-93.5239430000000027
0
LINE
8
BLACK
6
CONTINUOUS
10
219.4320089999999936
20
-93.5239430000000027
11
219.3489429999999913
21
-93.6070089999999908
0
LINE
8
BLACK
6
CONTINUOUS
10
219.3489429999999913
20
-93.6070089999999908
11
219.2472080000000005
21
-93.6657459999999986
0
LINE
8
BLACK
6
CONTINUOUS
10
219.2472080000000005
20
-93.6657459999999986
11
219.1337369999999964
21
-93.6961499999999887
0
LINE
8
BLACK
6
CONTINUOUS
10
219.1337369999999964
20
-93.6961499999999887
11
219.0162629999999808
21
-93.6961499999999887
0
LINE
8
BLACK
6
CONTINUOUS
10
219.0162629999999808
20
-93.6961499999999887
11
218.9027919999999767
21
-93.6657459999999986
0
LINE
8
BLACK
6
CONTINUOUS
10
218.9027919999999767
20
-93.6657459999999986
11
218.8010569999999859
21
-93.6070089999999908
0
LINE
8
BLACK
6
CONTINUOUS
10
218.8010569999999859
20
-93.6070089999999908
11
218.7179909999999836
21
-93.5239430000000027
0
LINE
8
BLACK
6
CONTINUOUS
10
218.7179909999999836
20
-93.5239430000000027
11
218.6592540000000042
21
-93.4222079999999977
0
LINE
8
BLACK
6
CONTINUOUS
10
218.6592540000000042
20
-93.4222079999999977
11
218.6288499999999999
21
-93.3087369999999936
0
LINE
8
BLACK
6
CONTINUOUS
10
218.6288499999999999
20
-93.3087369999999936
11
218.6288499999999999
21
-93.1912629999999922
0
LINE
8
BLACK
6
CONTINUOUS
10
218.6288499999999999
20
-93.1912629999999922
11
218.6592540000000042
21
-93.0777920000000023
0
LINE
8
BLACK
6
CONTINUOUS
10
218.6592540000000042
20
-93.0777920000000023
11
218.7179909999999836
21
-92.9760569999999973
0
LINE
8
BLACK
6
CONTINUOUS
10
218.7179909999999836
20
-92.9760569999999973
11
218.8010569999999859
21
-92.892990999999995
0
LINE
8
BLACK
6
CONTINUOUS
10
218.8010569999999859
20
-92.892990999999995
11
218.9027919999999767
21
-92.8342540000000014
0
LINE
8
BLACK
6
CONTINUOUS
10
218.9027919999999767
20
-92.8342540000000014
11
219.0162629999999808
21
-92.8038499999999971
0
LINE
8
BLACK
6
CONTINUOUS
10
219.0162629999999808
20
-92.8038499999999971
11
219.1337369999999964
21
-92.8038499999999971
0
LINE
8
BLACK
6
CONTINUOUS
10
219.1337369999999964
20
-92.8038499999999971
11
219.2472080000000005
21
-92.8342540000000014
0
LINE
8
BLACK
6
CONTINUOUS
10
221.9972080000000005
20
-92.8342540000000014
11
222.0989429999999913
21
-92.892990999999995
0
LINE
8
BLACK
6
CONTINUOUS
10
222.0989429999999913
20
-92.892990999999995
11
222.1820089999999936
21
-92.9760569999999973
0
LINE
8
BLACK
6
CONTINUOUS
10
222.1820089999999936
20
-92.9760569999999973
11
222.2407460000000015
21
-93.0777920000000023
0
LINE
8
BLACK
6
CONTINUOUS
10
222.2407460000000015
20
-93.0777920000000023
11
222.2711499999999774
21
-93.1912629999999922
0
LINE
8
BLACK
6
CONTINUOUS
10
222.2711499999999774
20
-93.1912629999999922
11
222.2711499999999774
21
-93.3087369999999936
0
LINE
8
BLACK
6
CONTINUOUS
10
222.2711499999999774
20
-93.3087369999999936
11
222.2407460000000015
21
-93.4222079999999977
0
LINE
8
BLACK
6
CONTINUOUS
10
222.2407460000000015
20
-93.4222079999999977
11
222.1820089999999936
21
-93.5239430000000027
0
LINE
8
BLACK
6
CONTINUOUS
10
222.1820089999999936
20
-93.5239430000000027
11
222.0989429999999913
21
-93.6070089999999908
0
LINE
8
BLACK
6
CONTINUOUS
10
222.0989429999999913
20
-93.6070089999999908
11
221.9972080000000005
21
-93.6657459999999986
0
LINE
8
BLACK
6
CONTINUOUS
10
221.9972080000000005
20
-93.6657459999999986
11
221.8837369999999964
21
-93.6961499999999887
0
LINE
8
BLACK
6
CONTINUOUS
10
221.8837369999999964
20
-93.6961499999999887
11
221.7662629999999808
21
-93.6961499999999887
0
LINE
8
BLACK
6
CONTINUOUS
10
221.7662629999999808
20
-93.6961499999999887
11
221.6527919999999767
21
-93.6657459999999986
0
LINE
8
BLACK
6
CONTINUOUS
10
221.6527919999999767
20
-93.6657459999999986
11
221.5510569999999859
21
-93.6070089999999908
0
LINE
8
BLACK
6
CONTINUOUS
10
221.5510569999999859
20
-93.6070089999999908
11
221.4679909999999836
21
-93.5239430000000027
0
LINE
8
BLACK
6
CONTINUOUS
10
221.4679909999999836
20
-93.5239430000000027
11
221.4092539999999758
21
-93.4222079999999977
0
LINE
8
BLACK
6
CONTINUOUS
10
221.4092539999999758
20
-93.4222079999999977
11
221.3788499999999999
21
-93.3087369999999936
0
LINE
8
BLACK
6
CONTINUOUS
10
221.3788499999999999
20
-93.3087369999999936
11
221.3788499999999999
21
-93.1912629999999922
0
LINE
8
BLACK
6
CONTINUOUS
10
221.3788499999999999
20
-93.1912629999999922
11
221.4092539999999758
21
-93.0777920000000023
0
LINE
8
BLACK
6
CONTINUOUS
10
221.4092539999999758
20
-93.0777920000000023
11
221.4679909999999836
21
-92.9760569999999973
0
LINE
8
BLACK
6
CONTINUOUS
10
221.4679909999999836
20
-92.9760569999999973
11
221.5510569999999859
21
-92.892990999999995
0
LINE
8
BLACK
6
CONTINUOUS
10
221.5510569999999859
20
-92.892990999999995
11
221.6527919999999767
21
-92.8342540000000014
0
LINE
8
BLACK
6
CONTINUOUS
10
221.6527919999999767
20
-92.8342540000000014
11
221.7662629999999808
21
-92.8038499999999971
0
LINE
8
BLACK
6
CONTINUOUS
10
221.7662629999999808
20
-92.8038499999999971
11
221.8837369999999964
21
-92.8038499999999971
0
LINE
8
BLACK
6
CONTINUOUS
10
221.8837369999999964
20
-92.8038499999999971
11
221.9972080000000005
21
-92.8342540000000014
0
LINE
8
BLACK
6
CONTINUOUS
10
196.2599999999999909
20
-92.789999999999992
11
193.8599999999999852
21
-92.789999999999992
0
LINE
8
BLACK
6
CONTINUOUS
10
193.8599999999999852
20
-92.789999999999992
11
193.8599999999999852
21
-91.3900000000000006
0
LINE
8
BLACK
6
CONTINUOUS
10
193.8599999999999852
20
-91.3900000000000006
11
196.2599999999999909
21
-91.3900000000000006
0
LINE
8
BLACK
6
CONTINUOUS
10
196.2599999999999909
20
-91.3900000000000006
11
196.2599999999999909
21
-92.789999999999992
0
LINE
8
BLACK
6
CONTINUOUS
10
214.1999999999999886
20
-92.789999999999992
11
211.7999999999999829
21
-92.789999999999992
0
LINE
8
BLACK
6
CONTINUOUS
10
211.7999999999999829
20
-92.789999999999992
11
211.7999999999999829
21
-91.3900000000000006
0
LINE
8
BLACK
6
CONTINUOUS
10
211.7999999999999829
20
-91.3900000000000006
11
214.1999999999999886
21
-91.3900000000000006
0
LINE
8
BLACK
6
CONTINUOUS
10
214.1999999999999886
20
-91.3900000000000006
11
214.1999999999999886
21
-92.789999999999992
0
LINE
8
BLACK
6
CONTINUOUS
10
220.0999999999999943
20
-91.3999999999999915
11
219.0999999999999943
21
-91.3999999999999915
0
LINE
8
BLACK
6
CONTINUOUS
10
219.0999999999999943
20
-91.3999999999999915
11
219.0999999999999943
21
-89.8499999999999943
0
LINE
8
BLACK
6
CONTINUOUS
10
219.0999999999999943
20
-89.8499999999999943
11
220.0999999999999943
21
-89.8499999999999943
0
LINE
8
BLACK
6
CONTINUOUS
10
220.0999999999999943
20
-89.8499999999999943
11
220.0999999999999943
21
-91.3999999999999915
0
LINE
8
BLACK
6
CONTINUOUS
10
221.7999999999999829
20
-91.3999999999999915
11
220.7999999999999829
21
-91.3999999999999915
0
LINE
8
BLACK
6
CONTINUOUS
10
220.7999999999999829
20
-91.3999999999999915
11
220.7999999999999829
21
-89.8499999999999943
0
LINE
8
BLACK
6
CONTINUOUS
10
220.7999999999999829
20
-89.8499999999999943
11
221.7999999999999829
21
-89.8499999999999943
0
LINE
8
BLACK
6
CONTINUOUS
10
221.7999999999999829
20
-89.8499999999999943
11
221.7999999999999829
21
-91.3999999999999915
0
LINE
8
BLACK
6
CONTINUOUS
10
220.0999999999999943
20
-79.6499999999999915
11
219.0999999999999943
21
-79.6499999999999915
0
LINE
8
BLACK
6
CONTINUOUS
10
219.0999999999999943
20
-79.6499999999999915
11
219.0999999999999943
21
-78.0999999999999943
0
LINE
8
BLACK
6
CONTINUOUS
10
219.0999999999999943
20
-78.0999999999999943
11
220.0999999999999943
21
-78.0999999999999943
0
LINE
8
BLACK
6
CONTINUOUS
10
220.0999999999999943
20
-78.0999999999999943
11
220.0999999999999943
21
-79.6499999999999915
0
LINE
8
BLACK
6
CONTINUOUS
10
221.7999999999999829
20
-79.6499999999999915
11
220.7999999999999829
21
-79.6499999999999915
0
LINE
8
BLACK
6
CONTINUOUS
10
220.7999999999999829
20
-79.6499999999999915
11
220.7999999999999829
21
-78.0999999999999943
0
LINE
8
BLACK
6
CONTINUOUS
10
220.7999999999999829
20
-78.0999999999999943
11
221.7999999999999829
21
-78.0999999999999943
0
LINE
8
BLACK
6
CONTINUOUS
10
221.7999999999999829
20
-78.0999999999999943
11
221.7999999999999829
21
-79.6499999999999915
0
LINE
8
BLACK
6
CONTINUOUS
10
219.2472080000000005
20
-75.8342540000000014
11
219.3489429999999913
21
-75.892990999999995
0
LINE
8
BLACK
6
CONTINUOUS
10
219.3489429999999913
20
-75.892990999999995
11
219.4320089999999936
21
-75.9760569999999973
0
LINE
8
BLACK
6
CONTINUOUS
10
219.4320089999999936
20
-75.9760569999999973
11
219.4907460000000015
21
-76.0777920000000023
0
LINE
8
BLACK
6
CONTINUOUS
10
219.4907460000000015
20
-76.0777920000000023
11
219.5211499999999774
21
-76.1912629999999922
0
LINE
8
BLACK
6
CONTINUOUS
10
219.5211499999999774
20
-76.1912629999999922
11
219.5211499999999774
21
-76.3087369999999936
0
LINE
8
BLACK
6
CONTINUOUS
10
219.5211499999999774
20
-76.3087369999999936
11
219.4907460000000015
21
-76.4222079999999977
0
LINE
8
BLACK
6
CONTINUOUS
10
219.4907460000000015
20
-76.4222079999999977
11
219.4320089999999936
21
-76.5239430000000027
0
LINE
8
BLACK
6
CONTINUOUS
10
219.4320089999999936
20
-76.5239430000000027
11
219.3489429999999913
21
-76.6070089999999908
0
LINE
8
BLACK
6
CONTINUOUS
10
219.3489429999999913
20
-76.6070089999999908
11
219.2472080000000005
21
-76.6657459999999986
0
LINE
8
BLACK
6
CONTINUOUS
10
219.2472080000000005
20
-76.6657459999999986
11
219.1337369999999964
21
-76.6961500000000029
0
LINE
8
BLACK
6
CONTINUOUS
10
219.1337369999999964
20
-76.6961500000000029
11
219.0162629999999808
21
-76.6961500000000029
0
LINE
8
BLACK
6
CONTINUOUS
10
219.0162629999999808
20
-76.6961500000000029
11
218.9027919999999767
21
-76.6657459999999986
0
LINE
8
BLACK
6
CONTINUOUS
10
218.9027919999999767
20
-76.6657459999999986
11
218.8010569999999859
21
-76.6070089999999908
0
LINE
8
BLACK
6
CONTINUOUS
10
218.8010569999999859
20
-76.6070089999999908
11
218.7179909999999836
21
-76.5239430000000027
0
LINE
8
BLACK
6
CONTINUOUS
10
218.7179909999999836
20
-76.5239430000000027
11
218.6592540000000042
21
-76.4222079999999977
0
LINE
8
BLACK
6
CONTINUOUS
10
218.6592540000000042
20
-76.4222079999999977
11
218.6288499999999999
21
-76.3087369999999936
0
LINE
8
BLACK
6
CONTINUOUS
10
218.6288499999999999
20
-76.3087369999999936
11
218.6288499999999999
21
-76.1912629999999922
0
LINE
8
BLACK
6
CONTINUOUS
10
218.6288499999999999
20
-76.1912629999999922
11
218.6592540000000042
21
-76.0777920000000023
0
LINE
8
BLACK
6
CONTINUOUS
10
218.6592540000000042
20
-76.0777920000000023
11
218.7179909999999836
21
-75.9760569999999973
0
LINE
8
BLACK
6
CONTINUOUS
10
218.7179909999999836
20
-75.9760569999999973
11
218.8010569999999859
21
-75.892990999999995
0
LINE
8
BLACK
6
CONTINUOUS
10
218.8010569999999859
20
-75.892990999999995
11
218.9027919999999767
21
-75.8342540000000014
0
LINE
8
BLACK
6
CONTINUOUS
10
218.9027919999999767
20
-75.8342540000000014
11
219.0162629999999808
21
-75.8038499999999971
0
LINE
8
BLACK
6
CONTINUOUS
10
219.0162629999999808
20
-75.8038499999999971
11
219.1337369999999964
21
-75.8038499999999971
0
LINE
8
BLACK
6
CONTINUOUS
10
219.1337369999999964
20
-75.8038499999999971
11
219.2472080000000005
21
-75.8342540000000014
0
LINE
8
BLACK
6
CONTINUOUS
10
221.9972080000000005
20
-75.8342540000000014
11
222.0989429999999913
21
-75.892990999999995
0
LINE
8
BLACK
6
CONTINUOUS
10
222.0989429999999913
20
-75.892990999999995
11
222.1820089999999936
21
-75.9760569999999973
0
LINE
8
BLACK
6
CONTINUOUS
10
222.1820089999999936
20
-75.9760569999999973
11
222.2407460000000015
21
-76.0777920000000023
0
LINE
8
BLACK
6
CONTINUOUS
10
222.2407460000000015
20
-76.0777920000000023
11
222.2711499999999774
21
-76.1912629999999922
0
LINE
8
BLACK
6
CONTINUOUS
10
222.2711499999999774
20
-76.1912629999999922
11
222.2711499999999774
21
-76.3087369999999936
0
LINE
8
BLACK
6
CONTINUOUS
10
222.2711499999999774
20
-76.3087369999999936
11
222.2407460000000015
21
-76.4222079999999977
0
LINE
8
BLACK
6
CONTINUOUS
10
222.2407460000000015
20
-76.4222079999999977
11
222.1820089999999936
21
-76.5239430000000027
0
LINE
8
BLACK
6
CONTINUOUS
10
222.1820089999999936
20
-76.5239430000000027
11
222.0989429999999913
21
-76.6070089999999908
0
LINE
8
BLACK
6
CONTINUOUS
10
222.0989429999999913
20
-76.6070089999999908
11
221.9972080000000005
21
-76.6657459999999986
0
LINE
8
BLACK
6
CONTINUOUS
10
221.9972080000000005
20
-76.6657459999999986
11
221.8837369999999964
21
-76.6961500000000029
0
LINE
8
BLACK
6
CONTINUOUS
10
221.8837369999999964
20
-76.6961500000000029
11
221.7662629999999808
21
-76.6961500000000029
0
LINE
8
BLACK
6
CONTINUOUS
10
221.7662629999999808
20
-76.6961500000000029
11
221.6527919999999767
21
-76.6657459999999986
0
LINE
8
BLACK
6
CONTINUOUS
10
221.6527919999999767
20
-76.6657459999999986
11
221.5510569999999859
21
-76.6070089999999908
0
LINE
8
BLACK
6
CONTINUOUS
10
221.5510569999999859
20
-76.6070089999999908
11
221.4679909999999836
21
-76.5239430000000027
0
LINE
8
BLACK
6
CONTINUOUS
10
221.4679909999999836
20
-76.5239430000000027
11
221.4092539999999758
21
-76.4222079999999977
0
LINE
8
BLACK
6
CONTINUOUS
10
221.4092539999999758
20
-76.4222079999999977
11
221.3788499999999999
21
-76.3087369999999936
0
LINE
8
BLACK
6
CONTINUOUS
10
221.3788499999999999
20
-76.3087369999999936
11
221.3788499999999999
21
-76.1912629999999922
0
LINE
8
BLACK
6
CONTINUOUS
10
221.3788499999999999
20
-76.1912629999999922
11
221.4092539999999758
21
-76.0777920000000023
0
LINE
8
BLACK
6
CONTINUOUS
10
221.4092539999999758
20
-76.0777920000000023
11
221.4679909999999836
21
-75.9760569999999973
0
LINE
8
BLACK
6
CONTINUOUS
10
221.4679909999999836
20
-75.9760569999999973
11
221.5510569999999859
21
-75.892990999999995
0
LINE
8
BLACK
6
CONTINUOUS
10
221.5510569999999859
20
-75.892990999999995
11
221.6527919999999767
21
-75.8342540000000014
0
LINE
8
BLACK
6
CONTINUOUS
10
221.6527919999999767
20
-75.8342540000000014
11
221.7662629999999808
21
-75.8038499999999971
0
LINE
8
BLACK
6
CONTINUOUS
10
221.7662629999999808
20
-75.8038499999999971
11
221.8837369999999964
21
-75.8038499999999971
0
LINE
8
BLACK
6
CONTINUOUS
10
221.8837369999999964
20
-75.8038499999999971
11
221.9972080000000005
21
-75.8342540000000014
0
LINE
8
BLACK
6
CONTINUOUS
10
220.0999999999999943
20
-74.3999999999999915
11
219.0999999999999943
21
-74.3999999999999915
0
LINE
8
BLACK
6
CONTINUOUS
10
219.0999999999999943
20
-74.3999999999999915
11
219.0999999999999943
21
-72.8499999999999943
0
LINE
8
BLACK
6
CONTINUOUS
10
219.0999999999999943
20
-72.8499999999999943
11
220.0999999999999943
21
-72.8499999999999943
0
LINE
8
BLACK
6
CONTINUOUS
10
220.0999999999999943
20
-72.8499999999999943
11
220.0999999999999943
21
-74.3999999999999915
0
LINE
8
BLACK
6
CONTINUOUS
10
221.7999999999999829
20
-74.3999999999999915
11
220.7999999999999829
21
-74.3999999999999915
0
LINE
8
BLACK
6
CONTINUOUS
10
220.7999999999999829
20
-74.3999999999999915
11
220.7999999999999829
21
-72.8499999999999943
0
LINE
8
BLACK
6
CONTINUOUS
10
220.7999999999999829
20
-72.8499999999999943
11
221.7999999999999829
21
-72.8499999999999943
0
LINE
8
BLACK
6
CONTINUOUS
10
221.7999999999999829
20
-72.8499999999999943
11
221.7999999999999829
21
-74.3999999999999915
0
LINE
8
BLACK
6
CONTINUOUS
10
198.0949999999999989
20
-70.5699999999999932
11
197.0949999999999989
21
-70.5699999999999932
0
LINE
8
BLACK
6
CONTINUOUS
10
197.0949999999999989
20
-70.5699999999999932
11
197.0949999999999989
21
-68.0600000000000023
0
LINE
8
BLACK
6
CONTINUOUS
10
197.0949999999999989
20
-68.0600000000000023
11
198.0949999999999989
21
-68.0600000000000023
0
LINE
8
BLACK
6
CONTINUOUS
10
198.0949999999999989
20
-68.0600000000000023
11
198.0949999999999989
21
-70.5699999999999932
0
LINE
8
BLACK
6
CONTINUOUS
10
203.1749999999999829
20
-70.5699999999999932
11
202.1749999999999829
21
-70.5699999999999932
0
LINE
8
BLACK
6
CONTINUOUS
10
202.1749999999999829
20
-70.5699999999999932
11
202.1749999999999829
21
-68.0600000000000023
0
LINE
8
BLACK
6
CONTINUOUS
10
202.1749999999999829
20
-68.0600000000000023
11
203.1749999999999829
21
-68.0600000000000023
0
LINE
8
BLACK
6
CONTINUOUS
10
203.1749999999999829
20
-68.0600000000000023
11
203.1749999999999829
21
-70.5699999999999932
0
LINE
8
BLACK
6
CONTINUOUS
10
208.2549999999999955
20
-70.5699999999999932
11
207.2549999999999955
21
-70.5699999999999932
0
LINE
8
BLACK
6
CONTINUOUS
10
207.2549999999999955
20
-70.5699999999999932
11
207.2549999999999955
21
-68.0600000000000023
0
LINE
8
BLACK
6
CONTINUOUS
10
207.2549999999999955
20
-68.0600000000000023
11
208.2549999999999955
21
-68.0600000000000023
0
LINE
8
BLACK
6
CONTINUOUS
10
208.2549999999999955
20
-68.0600000000000023
11
208.2549999999999955
21
-70.5699999999999932
0
LINE
8
BLACK
6
CONTINUOUS
10
213.3349999999999795
20
-70.5699999999999932
11
212.3349999999999795
21
-70.5699999999999932
0
LINE
8
BLACK
6
CONTINUOUS
10
212.3349999999999795
20
-70.5699999999999932
11
212.3349999999999795
21
-68.0600000000000023
0
LINE
8
BLACK
6
CONTINUOUS
10
212.3349999999999795
20
-68.0600000000000023
11
213.3349999999999795
21
-68.0600000000000023
0
LINE
8
BLACK
6
CONTINUOUS
10
213.3349999999999795
20
-68.0600000000000023
11
213.3349999999999795
21
-70.5699999999999932
0
LINE
8
BLACK
6
CONTINUOUS
10
195.5549999999999784
20
-67.2599999999999909
11
194.5549999999999784
21
-67.2599999999999909
0
LINE
8
BLACK
6
CONTINUOUS
10
194.5549999999999784
20
-67.2599999999999909
11
194.5549999999999784
21
-64.75
0
LINE
8
BLACK
6
CONTINUOUS
10
194.5549999999999784
20
-64.75
11
195.5549999999999784
21
-64.75
0
LINE
8
BLACK
6
CONTINUOUS
10
195.5549999999999784
20
-64.75
11
195.5549999999999784
21
-67.2599999999999909
0
LINE
8
BLACK
6
CONTINUOUS
10
200.6349999999999909
20
-67.2599999999999909
11
199.6349999999999909
21
-67.2599999999999909
0
LINE
8
BLACK
6
CONTINUOUS
10
199.6349999999999909
20
-67.2599999999999909
11
199.6349999999999909
21
-64.75
0
LINE
8
BLACK
6
CONTINUOUS
10
199.6349999999999909
20
-64.75
11
200.6349999999999909
21
-64.75
0
LINE
8
BLACK
6
CONTINUOUS
10
200.6349999999999909
20
-64.75
11
200.6349999999999909
21
-67.2599999999999909
0
LINE
8
BLACK
6
CONTINUOUS
10
205.7150000000000034
20
-67.2599999999999909
11
204.7150000000000034
21
-67.2599999999999909
0
LINE
8
BLACK
6
CONTINUOUS
10
204.7150000000000034
20
-67.2599999999999909
11
204.7150000000000034
21
-64.75
0
LINE
8
BLACK
6
CONTINUOUS
10
204.7150000000000034
20
-64.75
11
205.7150000000000034
21
-64.75
0
LINE
8
BLACK
6
CONTINUOUS
10
205.7150000000000034
20
-64.75
11
205.7150000000000034
21
-67.2599999999999909
0
LINE
8
BLACK
6
CONTINUOUS
10
210.7949999999999875
20
-67.2599999999999909
11
209.7949999999999875
21
-67.2599999999999909
0
LINE
8
BLACK
6
CONTINUOUS
10
209.7949999999999875
20
-67.2599999999999909
11
209.7949999999999875
21
-64.75
0
LINE
8
BLACK
6
CONTINUOUS
10
209.7949999999999875
20
-64.75
11
210.7949999999999875
21
-64.75
0
LINE
8
BLACK
6
CONTINUOUS
10
210.7949999999999875
20
-64.75
11
210.7949999999999875
21
-67.2599999999999909
0
LINE
8
BLACK
6
CONTINUOUS
10
220.0999999999999943
20
-63.6499999999999986
11
219.0999999999999943
21
-63.6499999999999986
0
LINE
8
BLACK
6
CONTINUOUS
10
219.0999999999999943
20
-63.6499999999999986
11
219.0999999999999943
21
-62.0999999999999943
0
LINE
8
BLACK
6
CONTINUOUS
10
219.0999999999999943
20
-62.0999999999999943
11
220.0999999999999943
21
-62.0999999999999943
0
LINE
8
BLACK
6
CONTINUOUS
10
220.0999999999999943
20
-62.0999999999999943
11
220.0999999999999943
21
-63.6499999999999986
0
LINE
8
BLACK
6
CONTINUOUS
10
221.7999999999999829
20
-63.6499999999999986
11
220.7999999999999829
21
-63.6499999999999986
0
LINE
8
BLACK
6
CONTINUOUS
10
220.7999999999999829
20
-63.6499999999999986
11
220.7999999999999829
21
-62.0999999999999943
0
LINE
8
BLACK
6
CONTINUOUS
10
220.7999999999999829
20
-62.0999999999999943
11
221.7999999999999829
21
-62.0999999999999943
0
LINE
8
BLACK
6
CONTINUOUS
10
221.7999999999999829
20
-62.0999999999999943
11
221.7999999999999829
21
-63.6499999999999986
0
LINE
8
BLACK
6
CONTINUOUS
10
195.9921180000000049
20
-60.4192079999999976
11
196.0732229999999845
21
-60.4734009999999955
0
LINE
8
BLACK
6
CONTINUOUS
10
196.0732229999999845
20
-60.4734009999999955
11
196.4267769999999871
21
-60.8269549999999981
0
LINE
8
BLACK
6
CONTINUOUS
10
196.4267769999999871
20
-60.8269549999999981
11
196.480969999999985
21
-60.908059999999999
0
LINE
8
BLACK
6
CONTINUOUS
10
196.480969999999985
20
-60.908059999999999
11
196.5000009999999975
21
-61.0037309999999948
0
LINE
8
BLACK
6
CONTINUOUS
10
196.5000009999999975
20
-61.0037309999999948
11
196.480969999999985
21
-61.0994019999999978
0
LINE
8
BLACK
6
CONTINUOUS
10
196.480969999999985
20
-61.0994019999999978
11
196.4267769999999871
21
-61.1805079999999961
0
LINE
8
BLACK
6
CONTINUOUS
10
196.4267769999999871
20
-61.1805079999999961
11
194.8711419999999919
21
-62.7361429999999984
0
LINE
8
BLACK
6
CONTINUOUS
10
194.8711419999999919
20
-62.7361429999999984
11
194.7900359999999864
21
-62.7903359999999964
0
LINE
8
BLACK
6
CONTINUOUS
10
194.7900359999999864
20
-62.7903359999999964
11
194.6943650000000048
21
-62.8093669999999946
0
LINE
8
BLACK
6
CONTINUOUS
10
194.6943650000000048
20
-62.8093669999999946
11
194.5986939999999947
21
-62.7903359999999964
0
LINE
8
BLACK
6
CONTINUOUS
10
194.5986939999999947
20
-62.7903359999999964
11
194.5175889999999868
21
-62.7361429999999984
0
LINE
8
BLACK
6
CONTINUOUS
10
194.5175889999999868
20
-62.7361429999999984
11
194.1640349999999842
21
-62.3825889999999958
0
LINE
8
BLACK
6
CONTINUOUS
10
194.1640349999999842
20
-62.3825889999999958
11
194.1098419999999862
21
-62.301483999999995
0
LINE
8
BLACK
6
CONTINUOUS
10
194.1098419999999862
20
-62.301483999999995
11
194.0908110000000022
21
-62.2058129999999991
0
LINE
8
BLACK
6
CONTINUOUS
10
194.0908110000000022
20
-62.2058129999999991
11
194.1098419999999862
21
-62.1101419999999962
0
LINE
8
BLACK
6
CONTINUOUS
10
194.1098419999999862
20
-62.1101419999999962
11
194.1640349999999842
21
-62.0290359999999978
0
LINE
8
BLACK
6
CONTINUOUS
10
194.1640349999999842
20
-62.0290359999999978
11
195.7196699999999794
21
-60.4734009999999955
0
LINE
8
BLACK
6
CONTINUOUS
10
195.7196699999999794
20
-60.4734009999999955
11
195.8007759999999848
21
-60.4192079999999976
0
LINE
8
BLACK
6
CONTINUOUS
10
195.8007759999999848
20
-60.4192079999999976
11
195.8964469999999949
21
-60.4001769999999993
0
LINE
8
BLACK
6
CONTINUOUS
10
195.8964469999999949
20
-60.4001769999999993
11
195.9921180000000049
21
-60.4192079999999976
0
LINE
8
BLACK
6
CONTINUOUS
10
219.2472080000000005
20
-59.8342539999999943
11
219.3489429999999913
21
-59.892990999999995
0
LINE
8
BLACK
6
CONTINUOUS
10
219.3489429999999913
20
-59.892990999999995
11
219.4320089999999936
21
-59.9760569999999973
0
LINE
8
BLACK
6
CONTINUOUS
10
219.4320089999999936
20
-59.9760569999999973
11
219.4907460000000015
21
-60.0777919999999952
0
LINE
8
BLACK
6
CONTINUOUS
10
219.4907460000000015
20
-60.0777919999999952
11
219.5211499999999774
21
-60.1912629999999993
0
LINE
8
BLACK
6
CONTINUOUS
10
219.5211499999999774
20
-60.1912629999999993
11
219.5211499999999774
21
-60.3087370000000007
0
LINE
8
BLACK
6
CONTINUOUS
10
219.5211499999999774
20
-60.3087370000000007
11
219.4907460000000015
21
-60.4222079999999977
0
LINE
8
BLACK
6
CONTINUOUS
10
219.4907460000000015
20
-60.4222079999999977
11
219.4320089999999936
21
-60.5239429999999956
0
LINE
8
BLACK
6
CONTINUOUS
10
219.4320089999999936
20
-60.5239429999999956
11
219.3489429999999913
21
-60.6070089999999979
0
LINE
8
BLACK
6
CONTINUOUS
10
219.3489429999999913
20
-60.6070089999999979
11
219.2472080000000005
21
-60.6657459999999986
0
LINE
8
BLACK
6
CONTINUOUS
10
219.2472080000000005
20
-60.6657459999999986
11
219.1337369999999964
21
-60.6961499999999958
0
LINE
8
BLACK
6
CONTINUOUS
10
219.1337369999999964
20
-60.6961499999999958
11
219.0162629999999808
21
-60.6961499999999958
0
LINE
8
BLACK
6
CONTINUOUS
10
219.0162629999999808
20
-60.6961499999999958
11
218.9027919999999767
21
-60.6657459999999986
0
LINE
8
BLACK
6
CONTINUOUS
10
218.9027919999999767
20
-60.6657459999999986
11
218.8010569999999859
21
-60.6070089999999979
0
LINE
8
BLACK
6
CONTINUOUS
10
218.8010569999999859
20
-60.6070089999999979
11
218.7179909999999836
21
-60.5239429999999956
0
LINE
8
BLACK
6
CONTINUOUS
10
218.7179909999999836
20
-60.5239429999999956
11
218.6592540000000042
21
-60.4222079999999977
0
LINE
8
BLACK
6
CONTINUOUS
10
218.6592540000000042
20
-60.4222079999999977
11
218.6288499999999999
21
-60.3087370000000007
0
LINE
8
BLACK
6
CONTINUOUS
10
218.6288499999999999
20
-60.3087370000000007
11
218.6288499999999999
21
-60.1912629999999993
0
LINE
8
BLACK
6
CONTINUOUS
10
218.6288499999999999
20
-60.1912629999999993
11
218.6592540000000042
21
-60.0777919999999952
0
LINE
8
BLACK
6
CONTINUOUS
10
218.6592540000000042
20
-60.0777919999999952
11
218.7179909999999836
21
-59.9760569999999973
0
LINE
8
BLACK
6
CONTINUOUS
10
218.7179909999999836
20
-59.9760569999999973
11
218.8010569999999859
21
-59.892990999999995
0
LINE
8
BLACK
6
CONTINUOUS
10
218.8010569999999859
20
-59.892990999999995
11
218.9027919999999767
21
-59.8342539999999943
0
LINE
8
BLACK
6
CONTINUOUS
10
218.9027919999999767
20
-59.8342539999999943
11
219.0162629999999808
21
-59.8038499999999971
0
LINE
8
BLACK
6
CONTINUOUS
10
219.0162629999999808
20
-59.8038499999999971
11
219.1337369999999964
21
-59.8038499999999971
0
LINE
8
BLACK
6
CONTINUOUS
10
219.1337369999999964
20
-59.8038499999999971
11
219.2472080000000005
21
-59.8342539999999943
0
LINE
8
BLACK
6
CONTINUOUS
10
221.9972080000000005
20
-59.8342539999999943
11
222.0989429999999913
21
-59.892990999999995
0
LINE
8
BLACK
6
CONTINUOUS
10
222.0989429999999913
20
-59.892990999999995
11
222.1820089999999936
21
-59.9760569999999973
0
LINE
8
BLACK
6
CONTINUOUS
10
222.1820089999999936
20
-59.9760569999999973
11
222.2407460000000015
21
-60.0777919999999952
0
LINE
8
BLACK
6
CONTINUOUS
10
222.2407460000000015
20
-60.0777919999999952
11
222.2711499999999774
21
-60.1912629999999993
0
LINE
8
BLACK
6
CONTINUOUS
10
222.2711499999999774
20
-60.1912629999999993
11
222.2711499999999774
21
-60.3087370000000007
0
LINE
8
BLACK
6
CONTINUOUS
10
222.2711499999999774
20
-60.3087370000000007
11
222.2407460000000015
21
-60.4222079999999977
0
LINE
8
BLACK
6
CONTINUOUS
10
222.2407460000000015
20
-60.4222079999999977
11
222.1820089999999936
21
-60.5239429999999956
0
LINE
8
BLACK
6
CONTINUOUS
10
222.1820089999999936
20
-60.5239429999999956
11
222.0989429999999913
21
-60.6070089999999979
0
LINE
8
BLACK
6
CONTINUOUS
10
222.0989429999999913
20
-60.6070089999999979
11
221.9972080000000005
21
-60.6657459999999986
0
LINE
8
BLACK
6
CONTINUOUS
10
221.9972080000000005
20
-60.6657459999999986
11
221.8837369999999964
21
-60.6961499999999958
0
LINE
8
BLACK
6
CONTINUOUS
10
221.8837369999999964
20
-60.6961499999999958
11
221.7662629999999808
21
-60.6961499999999958
0
LINE
8
BLACK
6
CONTINUOUS
10
221.7662629999999808
20
-60.6961499999999958
11
221.6527919999999767
21
-60.6657459999999986
0
LINE
8
BLACK
6
CONTINUOUS
10
221.6527919999999767
20
-60.6657459999999986
11
221.5510569999999859
21
-60.6070089999999979
0
LINE
8
BLACK
6
CONTINUOUS
10
221.5510569999999859
20
-60.6070089999999979
11
221.4679909999999836
21
-60.5239429999999956
0
LINE
8
BLACK
6
CONTINUOUS
10
221.4679909999999836
20
-60.5239429999999956
11
221.4092539999999758
21
-60.4222079999999977
0
LINE
8
BLACK
6
CONTINUOUS
10
221.4092539999999758
20
-60.4222079999999977
11
221.3788499999999999
21
-60.3087370000000007
0
LINE
8
BLACK
6
CONTINUOUS
10
221.3788499999999999
20
-60.3087370000000007
11
221.3788499999999999
21
-60.1912629999999993
0
LINE
8
BLACK
6
CONTINUOUS
10
221.3788499999999999
20
-60.1912629999999993
11
221.4092539999999758
21
-60.0777919999999952
0
LINE
8
BLACK
6
CONTINUOUS
10
221.4092539999999758
20
-60.0777919999999952
11
221.4679909999999836
21
-59.9760569999999973
0
LINE
8
BLACK
6
CONTINUOUS
10
221.4679909999999836
20
-59.9760569999999973
11
221.5510569999999859
21
-59.892990999999995
0
LINE
8
BLACK
6
CONTINUOUS
10
221.5510569999999859
20
-59.892990999999995
11
221.6527919999999767
21
-59.8342539999999943
0
LINE
8
BLACK
6
CONTINUOUS
10
221.6527919999999767
20
-59.8342539999999943
11
221.7662629999999808
21
-59.8038499999999971
0
LINE
8
BLACK
6
CONTINUOUS
10
221.7662629999999808
20
-59.8038499999999971
11
221.8837369999999964
21
-59.8038499999999971
0
LINE
8
BLACK
6
CONTINUOUS
10
221.8837369999999964
20
-59.8038499999999971
11
221.9972080000000005
21
-59.8342539999999943
0
LINE
8
BLACK
6
CONTINUOUS
10
201.7018439999999941
20
-57.5682690000000008
11
201.7797060000000045
21
-57.6202939999999941
0
LINE
8
BLACK
6
CONTINUOUS
10
201.7797060000000045
20
-57.6202939999999941
11
201.8317309999999907
21
-57.6981559999999973
0
LINE
8
BLACK
6
CONTINUOUS
10
201.8317309999999907
20
-57.6981559999999973
11
201.8499999999999943
21
-57.7899999999999991
0
LINE
8
BLACK
6
CONTINUOUS
10
201.8499999999999943
20
-57.7899999999999991
11
201.8499999999999943
21
-59.8099999999999952
0
LINE
8
BLACK
6
CONTINUOUS
10
201.8499999999999943
20
-59.8099999999999952
11
201.8317309999999907
21
-59.901843999999997
0
LINE
8
BLACK
6
CONTINUOUS
10
201.8317309999999907
20
-59.901843999999997
11
201.7797060000000045
21
-59.9797060000000002
0
LINE
8
BLACK
6
CONTINUOUS
10
201.7797060000000045
20
-59.9797060000000002
11
201.7018439999999941
21
-60.0317310000000006
0
LINE
8
BLACK
6
CONTINUOUS
10
201.7018439999999941
20
-60.0317310000000006
11
201.6099999999999852
21
-60.0499999999999972
0
LINE
8
BLACK
6
CONTINUOUS
10
201.6099999999999852
20
-60.0499999999999972
11
200.8899999999999864
21
-60.0499999999999972
0
LINE
8
BLACK
6
CONTINUOUS
10
200.8899999999999864
20
-60.0499999999999972
11
200.7981559999999774
21
-60.0317310000000006
0
LINE
8
BLACK
6
CONTINUOUS
10
200.7981559999999774
20
-60.0317310000000006
11
200.7202939999999955
21
-59.9797060000000002
0
LINE
8
BLACK
6
CONTINUOUS
10
200.7202939999999955
20
-59.9797060000000002
11
200.6682689999999809
21
-59.901843999999997
0
LINE
8
BLACK
6
CONTINUOUS
10
200.6682689999999809
20
-59.901843999999997
11
200.6499999999999773
21
-59.8099999999999952
0
LINE
8
BLACK
6
CONTINUOUS
10
200.6499999999999773
20
-59.8099999999999952
11
200.6499999999999773
21
-57.7899999999999991
0
LINE
8
BLACK
6
CONTINUOUS
10
200.6499999999999773
20
-57.7899999999999991
11
200.6682689999999809
21
-57.6981559999999973
0
LINE
8
BLACK
6
CONTINUOUS
10
200.6682689999999809
20
-57.6981559999999973
11
200.7202939999999955
21
-57.6202939999999941
0
LINE
8
BLACK
6
CONTINUOUS
10
200.7202939999999955
20
-57.6202939999999941
11
200.7981559999999774
21
-57.5682690000000008
0
LINE
8
BLACK
6
CONTINUOUS
10
200.7981559999999774
20
-57.5682690000000008
11
200.8899999999999864
21
-57.5499999999999972
0
LINE
8
BLACK
6
CONTINUOUS
10
200.8899999999999864
20
-57.5499999999999972
11
201.6099999999999852
21
-57.5499999999999972
0
LINE
8
BLACK
6
CONTINUOUS
10
201.6099999999999852
20
-57.5499999999999972
11
201.7018439999999941
21
-57.5682690000000008
0
LINE
8
BLACK
6
CONTINUOUS
10
204.2018439999999941
20
-57.5682690000000008
11
204.2797060000000045
21
-57.6202939999999941
0
LINE
8
BLACK
6
CONTINUOUS
10
204.2797060000000045
20
-57.6202939999999941
11
204.3317309999999907
21
-57.6981559999999973
0
LINE
8
BLACK
6
CONTINUOUS
10
204.3317309999999907
20
-57.6981559999999973
11
204.3499999999999943
21
-57.7899999999999991
0
LINE
8
BLACK
6
CONTINUOUS
10
204.3499999999999943
20
-57.7899999999999991
11
204.3499999999999943
21
-59.8099999999999952
0
LINE
8
BLACK
6
CONTINUOUS
10
204.3499999999999943
20
-59.8099999999999952
11
204.3317309999999907
21
-59.901843999999997
0
LINE
8
BLACK
6
CONTINUOUS
10
204.3317309999999907
20
-59.901843999999997
11
204.2797060000000045
21
-59.9797060000000002
0
LINE
8
BLACK
6
CONTINUOUS
10
204.2797060000000045
20
-59.9797060000000002
11
204.2018439999999941
21
-60.0317310000000006
0
LINE
8
BLACK
6
CONTINUOUS
10
204.2018439999999941
20
-60.0317310000000006
11
204.1099999999999852
21
-60.0499999999999972
0
LINE
8
BLACK
6
CONTINUOUS
10
204.1099999999999852
20
-60.0499999999999972
11
203.3899999999999864
21
-60.0499999999999972
0
LINE
8
BLACK
6
CONTINUOUS
10
203.3899999999999864
20
-60.0499999999999972
11
203.2981559999999774
21
-60.0317310000000006
0
LINE
8
BLACK
6
CONTINUOUS
10
203.2981559999999774
20
-60.0317310000000006
11
203.2202939999999955
21
-59.9797060000000002
0
LINE
8
BLACK
6
CONTINUOUS
10
203.2202939999999955
20
-59.9797060000000002
11
203.1682689999999809
21
-59.901843999999997
0
LINE
8
BLACK
6
CONTINUOUS
10
203.1682689999999809
20
-59.901843999999997
11
203.1499999999999773
21
-59.8099999999999952
0
LINE
8
BLACK
6
CONTINUOUS
10
203.1499999999999773
20
-59.8099999999999952
11
203.1499999999999773
21
-57.7899999999999991
0
LINE
8
BLACK
6
CONTINUOUS
10
203.1499999999999773
20
-57.7899999999999991
11
203.1682689999999809
21
-57.6981559999999973
0
LINE
8
BLACK
6
CONTINUOUS
10
203.1682689999999809
20
-57.6981559999999973
11
203.2202939999999955
21
-57.6202939999999941
0
LINE
8
BLACK
6
CONTINUOUS
10
203.2202939999999955
20
-57.6202939999999941
11
203.2981559999999774
21
-57.5682690000000008
0
LINE
8
BLACK
6
CONTINUOUS
10
203.2981559999999774
20
-57.5682690000000008
11
203.3899999999999864
21
-57.5499999999999972
0
LINE
8
BLACK
6
CONTINUOUS
10
203.3899999999999864
20
-57.5499999999999972
11
204.1099999999999852
21
-57.5499999999999972
0
LINE
8
BLACK
6
CONTINUOUS
10
204.1099999999999852
20
-57.5499999999999972
11
204.2018439999999941
21
-57.5682690000000008
0
LINE
8
BLACK
6
CONTINUOUS
10
206.7018439999999941
20
-57.5682690000000008
11
206.7797060000000045
21
-57.6202939999999941
0
LINE
8
BLACK
6
CONTINUOUS
10
206.7797060000000045
20
-57.6202939999999941
11
206.8317309999999907
21
-57.6981559999999973
0
LINE
8
BLACK
6
CONTINUOUS
10
206.8317309999999907
20
-57.6981559999999973
11
206.8499999999999943
21
-57.7899999999999991
0
LINE
8
BLACK
6
CONTINUOUS
10
206.8499999999999943
20
-57.7899999999999991
11
206.8499999999999943
21
-59.8099999999999952
0
LINE
8
BLACK
6
CONTINUOUS
10
206.8499999999999943
20
-59.8099999999999952
11
206.8317309999999907
21
-59.901843999999997
0
LINE
8
BLACK
6
CONTINUOUS
10
206.8317309999999907
20
-59.901843999999997
11
206.7797060000000045
21
-59.9797060000000002
0
LINE
8
BLACK
6
CONTINUOUS
10
206.7797060000000045
20
-59.9797060000000002
11
206.7018439999999941
21
-60.0317310000000006
0
LINE
8
BLACK
6
CONTINUOUS
10
206.7018439999999941
20
-60.0317310000000006
11
206.6099999999999852
21
-60.0499999999999972
0
LINE
8
BLACK
6
CONTINUOUS
10
206.6099999999999852
20
-60.0499999999999972
11
205.8899999999999864
21
-60.0499999999999972
0
LINE
8
BLACK
6
CONTINUOUS
10
205.8899999999999864
20
-60.0499999999999972
11
205.7981559999999774
21
-60.0317310000000006
0
LINE
8
BLACK
6
CONTINUOUS
10
205.7981559999999774
20
-60.0317310000000006
11
205.7202939999999955
21
-59.9797060000000002
0
LINE
8
BLACK
6
CONTINUOUS
10
205.7202939999999955
20
-59.9797060000000002
11
205.6682689999999809
21
-59.901843999999997
0
LINE
8
BLACK
6
CONTINUOUS
10
205.6682689999999809
20
-59.901843999999997
11
205.6499999999999773
21
-59.8099999999999952
0
LINE
8
BLACK
6
CONTINUOUS
10
205.6499999999999773
20
-59.8099999999999952
11
205.6499999999999773
21
-57.7899999999999991
0
LINE
8
BLACK
6
CONTINUOUS
10
205.6499999999999773
20
-57.7899999999999991
11
205.6682689999999809
21
-57.6981559999999973
0
LINE
8
BLACK
6
CONTINUOUS
10
205.6682689999999809
20
-57.6981559999999973
11
205.7202939999999955
21
-57.6202939999999941
0
LINE
8
BLACK
6
CONTINUOUS
10
205.7202939999999955
20
-57.6202939999999941
11
205.7981559999999774
21
-57.5682690000000008
0
LINE
8
BLACK
6
CONTINUOUS
10
205.7981559999999774
20
-57.5682690000000008
11
205.8899999999999864
21
-57.5499999999999972
0
LINE
8
BLACK
6
CONTINUOUS
10
205.8899999999999864
20
-57.5499999999999972
11
206.6099999999999852
21
-57.5499999999999972
0
LINE
8
BLACK
6
CONTINUOUS
10
206.6099999999999852
20
-57.5499999999999972
11
206.7018439999999941
21
-57.5682690000000008
0
LINE
8
BLACK
6
CONTINUOUS
10
192.4919399999999996
20
-56.9190299999999993
11
192.5730449999999792
21
-56.9732229999999973
0
LINE
8
BLACK
6
CONTINUOUS
10
192.5730449999999792
20
-56.9732229999999973
11
192.9265989999999817
21
-57.3267769999999999
0
LINE
8
BLACK
6
CONTINUOUS
10
192.9265989999999817
20
-57.3267769999999999
11
192.9807919999999797
21
-57.4078820000000007
0
LINE
8
BLACK
6
CONTINUOUS
10
192.9807919999999797
20
-57.4078820000000007
11
192.9998229999999921
21
-57.5035529999999966
0
LINE
8
BLACK
6
CONTINUOUS
10
192.9998229999999921
20
-57.5035529999999966
11
192.9807919999999797
21
-57.5992239999999995
0
LINE
8
BLACK
6
CONTINUOUS
10
192.9807919999999797
20
-57.5992239999999995
11
192.9265989999999817
21
-57.6803299999999979
0
LINE
8
BLACK
6
CONTINUOUS
10
192.9265989999999817
20
-57.6803299999999979
11
191.3709639999999865
21
-59.2359650000000002
0
LINE
8
BLACK
6
CONTINUOUS
10
191.3709639999999865
20
-59.2359650000000002
11
191.2898579999999811
21
-59.2901579999999981
0
LINE
8
BLACK
6
CONTINUOUS
10
191.2898579999999811
20
-59.2901579999999981
11
191.1941869999999994
21
-59.3091889999999964
0
LINE
8
BLACK
6
CONTINUOUS
10
191.1941869999999994
20
-59.3091889999999964
11
191.0985159999999894
21
-59.2901579999999981
0
LINE
8
BLACK
6
CONTINUOUS
10
191.0985159999999894
20
-59.2901579999999981
11
191.0174109999999814
21
-59.2359650000000002
0
LINE
8
BLACK
6
CONTINUOUS
10
191.0174109999999814
20
-59.2359650000000002
11
190.6638569999999788
21
-58.8824109999999976
0
LINE
8
BLACK
6
CONTINUOUS
10
190.6638569999999788
20
-58.8824109999999976
11
190.6096639999999809
21
-58.8013059999999967
0
LINE
8
BLACK
6
CONTINUOUS
10
190.6096639999999809
20
-58.8013059999999967
11
190.5906329999999969
21
-58.7056349999999938
0
LINE
8
BLACK
6
CONTINUOUS
10
190.5906329999999969
20
-58.7056349999999938
11
190.6096639999999809
21
-58.609963999999998
0
LINE
8
BLACK
6
CONTINUOUS
10
190.6096639999999809
20
-58.609963999999998
11
190.6638569999999788
21
-58.5288579999999996
0
LINE
8
BLACK
6
CONTINUOUS
10
190.6638569999999788
20
-58.5288579999999996
11
192.2194920000000025
21
-56.9732229999999973
0
LINE
8
BLACK
6
CONTINUOUS
10
192.2194920000000025
20
-56.9732229999999973
11
192.3005979999999795
21
-56.9190299999999993
0
LINE
8
BLACK
6
CONTINUOUS
10
192.3005979999999795
20
-56.9190299999999993
11
192.3962689999999895
21
-56.899998999999994
0
LINE
8
BLACK
6
CONTINUOUS
10
192.3962689999999895
20
-56.899998999999994
11
192.4919399999999996
21
-56.9190299999999993
0
LINE
8
BLACK
6
CONTINUOUS
10
213.5972079999999949
20
-58.1842539999999957
11
213.6989429999999857
21
-58.2429909999999964
0
LINE
8
BLACK
6
CONTINUOUS
10
213.6989429999999857
20
-58.2429909999999964
11
213.782008999999988
21
-58.3260569999999987
0
LINE
8
BLACK
6
CONTINUOUS
10
213.782008999999988
20
-58.3260569999999987
11
213.8407459999999958
21
-58.4277919999999966
0
LINE
8
BLACK
6
CONTINUOUS
10
213.8407459999999958
20
-58.4277919999999966
11
213.8711500000000001
21
-58.5412630000000007
0
LINE
8
BLACK
6
CONTINUOUS
10
213.8711500000000001
20
-58.5412630000000007
11
213.8711500000000001
21
-58.658736999999995
0
LINE
8
BLACK
6
CONTINUOUS
10
213.8711500000000001
20
-58.658736999999995
11
213.8407459999999958
21
-58.7722079999999991
0
LINE
8
BLACK
6
CONTINUOUS
10
213.8407459999999958
20
-58.7722079999999991
11
213.782008999999988
21
-58.873942999999997
0
LINE
8
BLACK
6
CONTINUOUS
10
213.782008999999988
20
-58.873942999999997
11
213.6989429999999857
21
-58.9570089999999993
0
LINE
8
BLACK
6
CONTINUOUS
10
213.6989429999999857
20
-58.9570089999999993
11
213.5972079999999949
21
-59.015746
0
LINE
8
BLACK
6
CONTINUOUS
10
213.5972079999999949
20
-59.015746
11
213.4837369999999908
21
-59.0461499999999972
0
LINE
8
BLACK
6
CONTINUOUS
10
213.4837369999999908
20
-59.0461499999999972
11
213.3662630000000036
21
-59.0461499999999972
0
LINE
8
BLACK
6
CONTINUOUS
10
213.3662630000000036
20
-59.0461499999999972
11
213.2527919999999995
21
-59.015746
0
LINE
8
BLACK
6
CONTINUOUS
10
213.2527919999999995
20
-59.015746
11
213.1510569999999802
21
-58.9570089999999993
0
LINE
8
BLACK
6
CONTINUOUS
10
213.1510569999999802
20
-58.9570089999999993
11
213.0679909999999779
21
-58.873942999999997
0
LINE
8
BLACK
6
CONTINUOUS
10
213.0679909999999779
20
-58.873942999999997
11
213.0092539999999985
21
-58.7722079999999991
0
LINE
8
BLACK
6
CONTINUOUS
10
213.0092539999999985
20
-58.7722079999999991
11
212.9788499999999942
21
-58.658736999999995
0
LINE
8
BLACK
6
CONTINUOUS
10
212.9788499999999942
20
-58.658736999999995
11
212.9788499999999942
21
-58.5412630000000007
0
LINE
8
BLACK
6
CONTINUOUS
10
212.9788499999999942
20
-58.5412630000000007
11
213.0092539999999985
21
-58.4277919999999966
0
LINE
8
BLACK
6
CONTINUOUS
10
213.0092539999999985
20
-58.4277919999999966
11
213.0679909999999779
21
-58.3260569999999987
0
LINE
8
BLACK
6
CONTINUOUS
10
213.0679909999999779
20
-58.3260569999999987
11
213.1510569999999802
21
-58.2429909999999964
0
LINE
8
BLACK
6
CONTINUOUS
10
213.1510569999999802
20
-58.2429909999999964
11
213.2527919999999995
21
-58.1842539999999957
0
LINE
8
BLACK
6
CONTINUOUS
10
213.2527919999999995
20
-58.1842539999999957
11
213.3662630000000036
21
-58.1538499999999985
0
LINE
8
BLACK
6
CONTINUOUS
10
213.3662630000000036
20
-58.1538499999999985
11
213.4837369999999908
21
-58.1538499999999985
0
LINE
8
BLACK
6
CONTINUOUS
10
213.4837369999999908
20
-58.1538499999999985
11
213.5972079999999949
21
-58.1842539999999957
0
LINE
8
BLACK
6
CONTINUOUS
10
196.6963109999999801
20
-57.2942599999999942
11
196.7449749999999824
21
-57.3267759999999953
0
LINE
8
BLACK
6
CONTINUOUS
10
196.7449749999999824
20
-57.3267759999999953
11
196.9571069999999793
21
-57.5389079999999993
0
LINE
8
BLACK
6
CONTINUOUS
10
196.9571069999999793
20
-57.5389079999999993
11
196.9896229999999946
21
-57.5875719999999944
0
LINE
8
BLACK
6
CONTINUOUS
10
196.9896229999999946
20
-57.5875719999999944
11
197.0010409999999865
21
-57.6449739999999977
0
LINE
8
BLACK
6
CONTINUOUS
10
197.0010409999999865
20
-57.6449739999999977
11
196.9896229999999946
21
-57.7023759999999939
0
LINE
8
BLACK
6
CONTINUOUS
10
196.9896229999999946
20
-57.7023759999999939
11
196.9571069999999793
21
-57.7510399999999962
0
LINE
8
BLACK
6
CONTINUOUS
10
196.9571069999999793
20
-57.7510399999999962
11
195.9671569999999861
21
-58.7409899999999965
0
LINE
8
BLACK
6
CONTINUOUS
10
195.9671569999999861
20
-58.7409899999999965
11
195.9184929999999838
21
-58.7735059999999976
0
LINE
8
BLACK
6
CONTINUOUS
10
195.9184929999999838
20
-58.7735059999999976
11
195.8610909999999876
21
-58.7849239999999966
0
LINE
8
BLACK
6
CONTINUOUS
10
195.8610909999999876
20
-58.7849239999999966
11
195.8036889999999914
21
-58.7735059999999976
0
LINE
8
BLACK
6
CONTINUOUS
10
195.8036889999999914
20
-58.7735059999999976
11
195.7550249999999892
21
-58.7409899999999965
0
LINE
8
BLACK
6
CONTINUOUS
10
195.7550249999999892
20
-58.7409899999999965
11
195.5428929999999923
21
-58.5288579999999996
0
LINE
8
BLACK
6
CONTINUOUS
10
195.5428929999999923
20
-58.5288579999999996
11
195.510376999999977
21
-58.4801939999999973
0
LINE
8
BLACK
6
CONTINUOUS
10
195.510376999999977
20
-58.4801939999999973
11
195.4989589999999851
21
-58.4227919999999941
0
LINE
8
BLACK
6
CONTINUOUS
10
195.4989589999999851
20
-58.4227919999999941
11
195.510376999999977
21
-58.3653899999999979
0
LINE
8
BLACK
6
CONTINUOUS
10
195.510376999999977
20
-58.3653899999999979
11
195.5428929999999923
21
-58.3167259999999956
0
LINE
8
BLACK
6
CONTINUOUS
10
195.5428929999999923
20
-58.3167259999999956
11
196.5328429999999855
21
-57.3267759999999953
0
LINE
8
BLACK
6
CONTINUOUS
10
196.5328429999999855
20
-57.3267759999999953
11
196.5815069999999878
21
-57.2942599999999942
0
LINE
8
BLACK
6
CONTINUOUS
10
196.5815069999999878
20
-57.2942599999999942
11
196.638908999999984
21
-57.2828419999999952
0
LINE
8
BLACK
6
CONTINUOUS
10
196.638908999999984
20
-57.2828419999999952
11
196.6963109999999801
21
-57.2942599999999942
0
LINE
8
BLACK
6
CONTINUOUS
10
211.5749999999999886
20
-58.5749999999999957
11
210.0249999999999773
21
-58.5749999999999957
0
LINE
8
BLACK
6
CONTINUOUS
10
210.0249999999999773
20
-58.5749999999999957
11
210.0249999999999773
21
-57.5749999999999957
0
LINE
8
BLACK
6
CONTINUOUS
10
210.0249999999999773
20
-57.5749999999999957
11
211.5749999999999886
21
-57.5749999999999957
0
LINE
8
BLACK
6
CONTINUOUS
10
211.5749999999999886
20
-57.5749999999999957
11
211.5749999999999886
21
-58.5749999999999957
0
LINE
8
BLACK
6
CONTINUOUS
10
216.8249999999999886
20
-58.5749999999999957
11
215.2749999999999773
21
-58.5749999999999957
0
LINE
8
BLACK
6
CONTINUOUS
10
215.2749999999999773
20
-58.5749999999999957
11
215.2749999999999773
21
-57.5749999999999957
0
LINE
8
BLACK
6
CONTINUOUS
10
215.2749999999999773
20
-57.5749999999999957
11
216.8249999999999886
21
-57.5749999999999957
0
LINE
8
BLACK
6
CONTINUOUS
10
216.8249999999999886
20
-57.5749999999999957
11
216.8249999999999886
21
-58.5749999999999957
0
LINE
8
BLACK
6
CONTINUOUS
10
220.0999999999999943
20
-58.3999999999999986
11
219.0999999999999943
21
-58.3999999999999986
0
LINE
8
BLACK
6
CONTINUOUS
10
219.0999999999999943
20
-58.3999999999999986
11
219.0999999999999943
21
-56.8499999999999943
0
LINE
8
BLACK
6
CONTINUOUS
10
219.0999999999999943
20
-56.8499999999999943
11
220.0999999999999943
21
-56.8499999999999943
0
LINE
8
BLACK
6
CONTINUOUS
10
220.0999999999999943
20
-56.8499999999999943
11
220.0999999999999943
21
-58.3999999999999986
0
LINE
8
BLACK
6
CONTINUOUS
10
221.7999999999999829
20
-58.3999999999999986
11
220.7999999999999829
21
-58.3999999999999986
0
LINE
8
BLACK
6
CONTINUOUS
10
220.7999999999999829
20
-58.3999999999999986
11
220.7999999999999829
21
-56.8499999999999943
0
LINE
8
BLACK
6
CONTINUOUS
10
220.7999999999999829
20
-56.8499999999999943
11
221.7999999999999829
21
-56.8499999999999943
0
LINE
8
BLACK
6
CONTINUOUS
10
221.7999999999999829
20
-56.8499999999999943
11
221.7999999999999829
21
-58.3999999999999986
0
LINE
8
BLACK
6
CONTINUOUS
10
195.8124279999999828
20
-56.4103769999999969
11
195.8610919999999851
21
-56.442892999999998
0
LINE
8
BLACK
6
CONTINUOUS
10
195.8610919999999851
20
-56.442892999999998
11
196.073223999999982
21
-56.6550249999999949
0
LINE
8
BLACK
6
CONTINUOUS
10
196.073223999999982
20
-56.6550249999999949
11
196.1057399999999973
21
-56.7036889999999971
0
LINE
8
BLACK
6
CONTINUOUS
10
196.1057399999999973
20
-56.7036889999999971
11
196.1171579999999892
21
-56.7610910000000004
0
LINE
8
BLACK
6
CONTINUOUS
10
196.1171579999999892
20
-56.7610910000000004
11
196.1057399999999973
21
-56.8184929999999966
0
LINE
8
BLACK
6
CONTINUOUS
10
196.1057399999999973
20
-56.8184929999999966
11
196.073223999999982
21
-56.8671569999999988
0
LINE
8
BLACK
6
CONTINUOUS
10
196.073223999999982
20
-56.8671569999999988
11
195.0832739999999887
21
-57.8571069999999992
0
LINE
8
BLACK
6
CONTINUOUS
10
195.0832739999999887
20
-57.8571069999999992
11
195.0346099999999865
21
-57.8896230000000003
0
LINE
8
BLACK
6
CONTINUOUS
10
195.0346099999999865
20
-57.8896230000000003
11
194.9772079999999903
21
-57.9010409999999993
0
LINE
8
BLACK
6
CONTINUOUS
10
194.9772079999999903
20
-57.9010409999999993
11
194.9198059999999941
21
-57.8896230000000003
0
LINE
8
BLACK
6
CONTINUOUS
10
194.9198059999999941
20
-57.8896230000000003
11
194.8711419999999919
21
-57.8571069999999992
0
LINE
8
BLACK
6
CONTINUOUS
10
194.8711419999999919
20
-57.8571069999999992
11
194.659009999999995
21
-57.6449749999999952
0
LINE
8
BLACK
6
CONTINUOUS
10
194.659009999999995
20
-57.6449749999999952
11
194.6264939999999797
21
-57.596311
0
LINE
8
BLACK
6
CONTINUOUS
10
194.6264939999999797
20
-57.596311
11
194.6150759999999877
21
-57.5389089999999968
0
LINE
8
BLACK
6
CONTINUOUS
10
194.6150759999999877
20
-57.5389089999999968
11
194.6264939999999797
21
-57.4815070000000006
0
LINE
8
BLACK
6
CONTINUOUS
10
194.6264939999999797
20
-57.4815070000000006
11
194.659009999999995
21
-57.4328429999999983
0
LINE
8
BLACK
6
CONTINUOUS
10
194.659009999999995
20
-57.4328429999999983
11
195.6489599999999882
21
-56.442892999999998
0
LINE
8
BLACK
6
CONTINUOUS
10
195.6489599999999882
20
-56.442892999999998
11
195.6976239999999905
21
-56.4103769999999969
0
LINE
8
BLACK
6
CONTINUOUS
10
195.6976239999999905
20
-56.4103769999999969
11
195.7550259999999867
21
-56.3989589999999978
0
LINE
8
BLACK
6
CONTINUOUS
10
195.7550259999999867
20
-56.3989589999999978
11
195.8124279999999828
21
-56.4103769999999969
0
LINE
8
BLACK
6
CONTINUOUS
10
211.5749999999999886
20
-56.875
11
210.0249999999999773
21
-56.875
0
LINE
8
BLACK
6
CONTINUOUS
10
210.0249999999999773
20
-56.875
11
210.0249999999999773
21
-55.875
0
LINE
8
BLACK
6
CONTINUOUS
10
210.0249999999999773
20
-55.875
11
211.5749999999999886
21
-55.875
0
LINE
8
BLACK
6
CONTINUOUS
10
211.5749999999999886
20
-55.875
11
211.5749999999999886
21
-56.875
0
LINE
8
BLACK
6
CONTINUOUS
10
216.8249999999999886
20
-56.875
11
215.2749999999999773
21
-56.875
0
LINE
8
BLACK
6
CONTINUOUS
10
215.2749999999999773
20
-56.875
11
215.2749999999999773
21
-55.875
0
LINE
8
BLACK
6
CONTINUOUS
10
215.2749999999999773
20
-55.875
11
216.8249999999999886
21
-55.875
0
LINE
8
BLACK
6
CONTINUOUS
10
216.8249999999999886
20
-55.875
11
216.8249999999999886
21
-56.875
0
LINE
8
BLACK
6
CONTINUOUS
10
202.4222079999999835
20
-55.6342539999999985
11
202.5239430000000027
21
-55.6929909999999992
0
LINE
8
BLACK
6
CONTINUOUS
10
202.5239430000000027
20
-55.6929909999999992
11
202.607009000000005
21
-55.7760569999999944
0
LINE
8
BLACK
6
CONTINUOUS
10
202.607009000000005
20
-55.7760569999999944
11
202.6657459999999844
21
-55.8777919999999995
0
LINE
8
BLACK
6
CONTINUOUS
10
202.6657459999999844
20
-55.8777919999999995
11
202.6961499999999887
21
-55.9912629999999965
0
LINE
8
BLACK
6
CONTINUOUS
10
202.6961499999999887
20
-55.9912629999999965
11
202.6961499999999887
21
-56.1087369999999979
0
LINE
8
BLACK
6
CONTINUOUS
10
202.6961499999999887
20
-56.1087369999999979
11
202.6657459999999844
21
-56.2222079999999949
0
LINE
8
BLACK
6
CONTINUOUS
10
202.6657459999999844
20
-56.2222079999999949
11
202.607009000000005
21
-56.3239429999999999
0
LINE
8
BLACK
6
CONTINUOUS
10
202.607009000000005
20
-56.3239429999999999
11
202.5239430000000027
21
-56.4070089999999951
0
LINE
8
BLACK
6
CONTINUOUS
10
202.5239430000000027
20
-56.4070089999999951
11
202.4222079999999835
21
-56.4657459999999958
0
LINE
8
BLACK
6
CONTINUOUS
10
202.4222079999999835
20
-56.4657459999999958
11
202.3087369999999794
21
-56.4961500000000001
0
LINE
8
BLACK
6
CONTINUOUS
10
202.3087369999999794
20
-56.4961500000000001
11
202.1912629999999922
21
-56.4961500000000001
0
LINE
8
BLACK
6
CONTINUOUS
10
202.1912629999999922
20
-56.4961500000000001
11
202.0777919999999881
21
-56.4657459999999958
0
LINE
8
BLACK
6
CONTINUOUS
10
202.0777919999999881
20
-56.4657459999999958
11
201.9760569999999973
21
-56.4070089999999951
0
LINE
8
BLACK
6
CONTINUOUS
10
201.9760569999999973
20
-56.4070089999999951
11
201.892990999999995
21
-56.3239429999999999
0
LINE
8
BLACK
6
CONTINUOUS
10
201.892990999999995
20
-56.3239429999999999
11
201.8342539999999872
21
-56.2222079999999949
0
LINE
8
BLACK
6
CONTINUOUS
10
201.8342539999999872
20
-56.2222079999999949
11
201.8038499999999829
21
-56.1087369999999979
0
LINE
8
BLACK
6
CONTINUOUS
10
201.8038499999999829
20
-56.1087369999999979
11
201.8038499999999829
21
-55.9912629999999965
0
LINE
8
BLACK
6
CONTINUOUS
10
201.8038499999999829
20
-55.9912629999999965
11
201.8342539999999872
21
-55.8777919999999995
0
LINE
8
BLACK
6
CONTINUOUS
10
201.8342539999999872
20
-55.8777919999999995
11
201.892990999999995
21
-55.7760569999999944
0
LINE
8
BLACK
6
CONTINUOUS
10
201.892990999999995
20
-55.7760569999999944
11
201.9760569999999973
21
-55.6929909999999992
0
LINE
8
BLACK
6
CONTINUOUS
10
201.9760569999999973
20
-55.6929909999999992
11
202.0777919999999881
21
-55.6342539999999985
0
LINE
8
BLACK
6
CONTINUOUS
10
202.0777919999999881
20
-55.6342539999999985
11
202.1912629999999922
21
-55.6038499999999942
0
LINE
8
BLACK
6
CONTINUOUS
10
202.1912629999999922
20
-55.6038499999999942
11
202.3087369999999794
21
-55.6038499999999942
0
LINE
8
BLACK
6
CONTINUOUS
10
202.3087369999999794
20
-55.6038499999999942
11
202.4222079999999835
21
-55.6342539999999985
0
LINE
8
BLACK
6
CONTINUOUS
10
205.4222079999999835
20
-55.6342539999999985
11
205.5239430000000027
21
-55.6929909999999992
0
LINE
8
BLACK
6
CONTINUOUS
10
205.5239430000000027
20
-55.6929909999999992
11
205.6070089999999766
21
-55.7760569999999944
0
LINE
8
BLACK
6
CONTINUOUS
10
205.6070089999999766
20
-55.7760569999999944
11
205.6657459999999844
21
-55.8777919999999995
0
LINE
8
BLACK
6
CONTINUOUS
10
205.6657459999999844
20
-55.8777919999999995
11
205.6961499999999887
21
-55.9912629999999965
0
LINE
8
BLACK
6
CONTINUOUS
10
205.6961499999999887
20
-55.9912629999999965
11
205.6961499999999887
21
-56.1087369999999979
0
LINE
8
BLACK
6
CONTINUOUS
10
205.6961499999999887
20
-56.1087369999999979
11
205.6657459999999844
21
-56.2222079999999949
0
LINE
8
BLACK
6
CONTINUOUS
10
205.6657459999999844
20
-56.2222079999999949
11
205.6070089999999766
21
-56.3239429999999999
0
LINE
8
BLACK
6
CONTINUOUS
10
205.6070089999999766
20
-56.3239429999999999
11
205.5239430000000027
21
-56.4070089999999951
0
LINE
8
BLACK
6
CONTINUOUS
10
205.5239430000000027
20
-56.4070089999999951
11
205.4222079999999835
21
-56.4657459999999958
0
LINE
8
BLACK
6
CONTINUOUS
10
205.4222079999999835
20
-56.4657459999999958
11
205.3087369999999794
21
-56.4961500000000001
0
LINE
8
BLACK
6
CONTINUOUS
10
205.3087369999999794
20
-56.4961500000000001
11
205.1912629999999922
21
-56.4961500000000001
0
LINE
8
BLACK
6
CONTINUOUS
10
205.1912629999999922
20
-56.4961500000000001
11
205.0777919999999881
21
-56.4657459999999958
0
LINE
8
BLACK
6
CONTINUOUS
10
205.0777919999999881
20
-56.4657459999999958
11
204.9760569999999973
21
-56.4070089999999951
0
LINE
8
BLACK
6
CONTINUOUS
10
204.9760569999999973
20
-56.4070089999999951
11
204.892990999999995
21
-56.3239429999999999
0
LINE
8
BLACK
6
CONTINUOUS
10
204.892990999999995
20
-56.3239429999999999
11
204.8342539999999872
21
-56.2222079999999949
0
LINE
8
BLACK
6
CONTINUOUS
10
204.8342539999999872
20
-56.2222079999999949
11
204.8038499999999829
21
-56.1087369999999979
0
LINE
8
BLACK
6
CONTINUOUS
10
204.8038499999999829
20
-56.1087369999999979
11
204.8038499999999829
21
-55.9912629999999965
0
LINE
8
BLACK
6
CONTINUOUS
10
204.8038499999999829
20
-55.9912629999999965
11
204.8342539999999872
21
-55.8777919999999995
0
LINE
8
BLACK
6
CONTINUOUS
10
204.8342539999999872
20
-55.8777919999999995
11
204.892990999999995
21
-55.7760569999999944
0
LINE
8
BLACK
6
CONTINUOUS
10
204.892990999999995
20
-55.7760569999999944
11
204.9760569999999973
21
-55.6929909999999992
0
LINE
8
BLACK
6
CONTINUOUS
10
204.9760569999999973
20
-55.6929909999999992
11
205.0777919999999881
21
-55.6342539999999985
0
LINE
8
BLACK
6
CONTINUOUS
10
205.0777919999999881
20
-55.6342539999999985
11
205.1912629999999922
21
-55.6038499999999942
0
LINE
8
BLACK
6
CONTINUOUS
10
205.1912629999999922
20
-55.6038499999999942
11
205.3087369999999794
21
-55.6038499999999942
0
LINE
8
BLACK
6
CONTINUOUS
10
205.3087369999999794
20
-55.6038499999999942
11
205.4222079999999835
21
-55.6342539999999985
0
LINE
8
BLACK
6
CONTINUOUS
10
213.5972079999999949
20
-55.4342539999999957
11
213.6989429999999857
21
-55.4929909999999964
0
LINE
8
BLACK
6
CONTINUOUS
10
213.6989429999999857
20
-55.4929909999999964
11
213.782008999999988
21
-55.5760569999999987
0
LINE
8
BLACK
6
CONTINUOUS
10
213.782008999999988
20
-55.5760569999999987
11
213.8407459999999958
21
-55.6777919999999966
0
LINE
8
BLACK
6
CONTINUOUS
10
213.8407459999999958
20
-55.6777919999999966
11
213.8711500000000001
21
-55.7912630000000007
0
LINE
8
BLACK
6
CONTINUOUS
10
213.8711500000000001
20
-55.7912630000000007
11
213.8711500000000001
21
-55.908736999999995
0
LINE
8
BLACK
6
CONTINUOUS
10
213.8711500000000001
20
-55.908736999999995
11
213.8407459999999958
21
-56.0222079999999991
0
LINE
8
BLACK
6
CONTINUOUS
10
213.8407459999999958
20
-56.0222079999999991
11
213.782008999999988
21
-56.123942999999997
0
LINE
8
BLACK
6
CONTINUOUS
10
213.782008999999988
20
-56.123942999999997
11
213.6989429999999857
21
-56.2070089999999993
0
LINE
8
BLACK
6
CONTINUOUS
10
213.6989429999999857
20
-56.2070089999999993
11
213.5972079999999949
21
-56.265746
0
LINE
8
BLACK
6
CONTINUOUS
10
213.5972079999999949
20
-56.265746
11
213.4837369999999908
21
-56.2961499999999972
0
LINE
8
BLACK
6
CONTINUOUS
10
213.4837369999999908
20
-56.2961499999999972
11
213.3662630000000036
21
-56.2961499999999972
0
LINE
8
BLACK
6
CONTINUOUS
10
213.3662630000000036
20
-56.2961499999999972
11
213.2527919999999995
21
-56.265746
0
LINE
8
BLACK
6
CONTINUOUS
10
213.2527919999999995
20
-56.265746
11
213.1510569999999802
21
-56.2070089999999993
0
LINE
8
BLACK
6
CONTINUOUS
10
213.1510569999999802
20
-56.2070089999999993
11
213.0679909999999779
21
-56.123942999999997
0
LINE
8
BLACK
6
CONTINUOUS
10
213.0679909999999779
20
-56.123942999999997
11
213.0092539999999985
21
-56.0222079999999991
0
LINE
8
BLACK
6
CONTINUOUS
10
213.0092539999999985
20
-56.0222079999999991
11
212.9788499999999942
21
-55.908736999999995
0
LINE
8
BLACK
6
CONTINUOUS
10
212.9788499999999942
20
-55.908736999999995
11
212.9788499999999942
21
-55.7912630000000007
0
LINE
8
BLACK
6
CONTINUOUS
10
212.9788499999999942
20
-55.7912630000000007
11
213.0092539999999985
21
-55.6777919999999966
0
LINE
8
BLACK
6
CONTINUOUS
10
213.0092539999999985
20
-55.6777919999999966
11
213.0679909999999779
21
-55.5760569999999987
0
LINE
8
BLACK
6
CONTINUOUS
10
213.0679909999999779
20
-55.5760569999999987
11
213.1510569999999802
21
-55.4929909999999964
0
LINE
8
BLACK
6
CONTINUOUS
10
213.1510569999999802
20
-55.4929909999999964
11
213.2527919999999995
21
-55.4342539999999957
0
LINE
8
BLACK
6
CONTINUOUS
10
213.2527919999999995
20
-55.4342539999999957
11
213.3662630000000036
21
-55.4038499999999985
0
LINE
8
BLACK
6
CONTINUOUS
10
213.3662630000000036
20
-55.4038499999999985
11
213.4837369999999908
21
-55.4038499999999985
0
LINE
8
BLACK
6
CONTINUOUS
10
213.4837369999999908
20
-55.4038499999999985
11
213.5972079999999949
21
-55.4342539999999957
  0
ENDSEC
  0
EOF
