  0
SECTION
  2
HEADER
  9
$ANGBASE
  50
0.0
  9
$ANGDIR
  70
1
  9
$MEASUREMENT
  70
1
  0
ENDSEC
  0
SECTION
  2
TABLES
  0
TABLE
  2
LTYPE
  70
4
  0
LTYPE
  5
40F
  2
CONTINUOUS
  70
0
  3
Solid line
  72
65
  73
0
  40
0.0
  0
LTYPE
  5
410
  2
DASHDOT
 70
0
  3
Dash Dot ____ _ ____ _
 72
65
 73
4
 40
2.0
 49
1.25
 49
-0.25
 49
0.25
 49
-0.25
  0
LTYPE
  5
411
  2
DASHED
 70
0
  3
Dashed __ __ __ __ __
 72
65
 73
2
 40
0.75
 49
0.5
 49
-0.25
  0
LTYPE
  5
43B
  2
DOTTED
 70
0
  3
Dotted .  .  .  .
 72
65
 73
2
 40
0.2
 49
0.0
 49
-0.2
  0
ENDTAB
  0
TABLE
  2
STYLE
  70
4
  0
STYLE
  2
KICAD
  70
0
  40
0
  41
1
  42
1
  50
0
  71
0
  3
isocp.shx
  0
STYLE
  2
KICADB
  70
0
  40
0
  41
1
  42
1
  50
0
  71
0
  3
isocp.shx
  0
STYLE
  2
KICADI
  70
0
  40
0
  41
1
  42
1
  50
15
  71
0
  3
isocp.shx
  0
STYLE
  2
KICADBI
  70
0
  40
0
  41
1
  42
1
  50
15
  71
0
  3
isocp.shx
  0
ENDTAB
  0
TABLE
  2
LAYER
  70
1
  0
LAYER
  2
BLACK
  70
0
  62
7
  6
CONTINUOUS
  0
ENDTAB
  0
ENDSEC
  0
SECTION
  2
ENTITIES
0
LINE
8
BLACK
6
CONTINUOUS
10
219.2472080000000005
20
-108.8342540000000014
11
219.3489429999999913
21
-108.892990999999995
0
LINE
8
BLACK
6
CONTINUOUS
10
219.3489429999999913
20
-108.892990999999995
11
219.4320089999999936
21
-108.9760569999999973
0
LINE
8
BLACK
6
CONTINUOUS
10
219.4320089999999936
20
-108.9760569999999973
11
219.4907460000000015
21
-109.0777919999999881
0
LINE
8
BLACK
6
CONTINUOUS
10
219.4907460000000015
20
-109.0777919999999881
11
219.5211499999999774
21
-109.1912629999999922
0
LINE
8
BLACK
6
CONTINUOUS
10
219.5211499999999774
20
-109.1912629999999922
11
219.5211499999999774
21
-109.3087369999999936
0
LINE
8
BLACK
6
CONTINUOUS
10
219.5211499999999774
20
-109.3087369999999936
11
219.4907460000000015
21
-109.4222079999999977
0
LINE
8
BLACK
6
CONTINUOUS
10
219.4907460000000015
20
-109.4222079999999977
11
219.4320089999999936
21
-109.5239429999999885
0
LINE
8
BLACK
6
CONTINUOUS
10
219.4320089999999936
20
-109.5239429999999885
11
219.3489429999999913
21
-109.6070089999999908
0
LINE
8
BLACK
6
CONTINUOUS
10
219.3489429999999913
20
-109.6070089999999908
11
219.2472080000000005
21
-109.6657459999999986
0
LINE
8
BLACK
6
CONTINUOUS
10
219.2472080000000005
20
-109.6657459999999986
11
219.1337369999999964
21
-109.6961499999999887
0
LINE
8
BLACK
6
CONTINUOUS
10
219.1337369999999964
20
-109.6961499999999887
11
219.0162629999999808
21
-109.6961499999999887
0
LINE
8
BLACK
6
CONTINUOUS
10
219.0162629999999808
20
-109.6961499999999887
11
218.9027919999999767
21
-109.6657459999999986
0
LINE
8
BLACK
6
CONTINUOUS
10
218.9027919999999767
20
-109.6657459999999986
11
218.8010569999999859
21
-109.6070089999999908
0
LINE
8
BLACK
6
CONTINUOUS
10
218.8010569999999859
20
-109.6070089999999908
11
218.7179909999999836
21
-109.5239429999999885
0
LINE
8
BLACK
6
CONTINUOUS
10
218.7179909999999836
20
-109.5239429999999885
11
218.6592540000000042
21
-109.4222079999999977
0
LINE
8
BLACK
6
CONTINUOUS
10
218.6592540000000042
20
-109.4222079999999977
11
218.6288499999999999
21
-109.3087369999999936
0
LINE
8
BLACK
6
CONTINUOUS
10
218.6288499999999999
20
-109.3087369999999936
11
218.6288499999999999
21
-109.1912629999999922
0
LINE
8
BLACK
6
CONTINUOUS
10
218.6288499999999999
20
-109.1912629999999922
11
218.6592540000000042
21
-109.0777919999999881
0
LINE
8
BLACK
6
CONTINUOUS
10
218.6592540000000042
20
-109.0777919999999881
11
218.7179909999999836
21
-108.9760569999999973
0
LINE
8
BLACK
6
CONTINUOUS
10
218.7179909999999836
20
-108.9760569999999973
11
218.8010569999999859
21
-108.892990999999995
0
LINE
8
BLACK
6
CONTINUOUS
10
218.8010569999999859
20
-108.892990999999995
11
218.9027919999999767
21
-108.8342540000000014
0
LINE
8
BLACK
6
CONTINUOUS
10
218.9027919999999767
20
-108.8342540000000014
11
219.0162629999999808
21
-108.8038499999999971
0
LINE
8
BLACK
6
CONTINUOUS
10
219.0162629999999808
20
-108.8038499999999971
11
219.1337369999999964
21
-108.8038499999999971
0
LINE
8
BLACK
6
CONTINUOUS
10
219.1337369999999964
20
-108.8038499999999971
11
219.2472080000000005
21
-108.8342540000000014
0
LINE
8
BLACK
6
CONTINUOUS
10
221.9972080000000005
20
-108.8342540000000014
11
222.0989429999999913
21
-108.892990999999995
0
LINE
8
BLACK
6
CONTINUOUS
10
222.0989429999999913
20
-108.892990999999995
11
222.1820089999999936
21
-108.9760569999999973
0
LINE
8
BLACK
6
CONTINUOUS
10
222.1820089999999936
20
-108.9760569999999973
11
222.2407460000000015
21
-109.0777919999999881
0
LINE
8
BLACK
6
CONTINUOUS
10
222.2407460000000015
20
-109.0777919999999881
11
222.2711499999999774
21
-109.1912629999999922
0
LINE
8
BLACK
6
CONTINUOUS
10
222.2711499999999774
20
-109.1912629999999922
11
222.2711499999999774
21
-109.3087369999999936
0
LINE
8
BLACK
6
CONTINUOUS
10
222.2711499999999774
20
-109.3087369999999936
11
222.2407460000000015
21
-109.4222079999999977
0
LINE
8
BLACK
6
CONTINUOUS
10
222.2407460000000015
20
-109.4222079999999977
11
222.1820089999999936
21
-109.5239429999999885
0
LINE
8
BLACK
6
CONTINUOUS
10
222.1820089999999936
20
-109.5239429999999885
11
222.0989429999999913
21
-109.6070089999999908
0
LINE
8
BLACK
6
CONTINUOUS
10
222.0989429999999913
20
-109.6070089999999908
11
221.9972080000000005
21
-109.6657459999999986
0
LINE
8
BLACK
6
CONTINUOUS
10
221.9972080000000005
20
-109.6657459999999986
11
221.8837369999999964
21
-109.6961499999999887
0
LINE
8
BLACK
6
CONTINUOUS
10
221.8837369999999964
20
-109.6961499999999887
11
221.7662629999999808
21
-109.6961499999999887
0
LINE
8
BLACK
6
CONTINUOUS
10
221.7662629999999808
20
-109.6961499999999887
11
221.6527919999999767
21
-109.6657459999999986
0
LINE
8
BLACK
6
CONTINUOUS
10
221.6527919999999767
20
-109.6657459999999986
11
221.5510569999999859
21
-109.6070089999999908
0
LINE
8
BLACK
6
CONTINUOUS
10
221.5510569999999859
20
-109.6070089999999908
11
221.4679909999999836
21
-109.5239429999999885
0
LINE
8
BLACK
6
CONTINUOUS
10
221.4679909999999836
20
-109.5239429999999885
11
221.4092539999999758
21
-109.4222079999999977
0
LINE
8
BLACK
6
CONTINUOUS
10
221.4092539999999758
20
-109.4222079999999977
11
221.3788499999999999
21
-109.3087369999999936
0
LINE
8
BLACK
6
CONTINUOUS
10
221.3788499999999999
20
-109.3087369999999936
11
221.3788499999999999
21
-109.1912629999999922
0
LINE
8
BLACK
6
CONTINUOUS
10
221.3788499999999999
20
-109.1912629999999922
11
221.4092539999999758
21
-109.0777919999999881
0
LINE
8
BLACK
6
CONTINUOUS
10
221.4092539999999758
20
-109.0777919999999881
11
221.4679909999999836
21
-108.9760569999999973
0
LINE
8
BLACK
6
CONTINUOUS
10
221.4679909999999836
20
-108.9760569999999973
11
221.5510569999999859
21
-108.892990999999995
0
LINE
8
BLACK
6
CONTINUOUS
10
221.5510569999999859
20
-108.892990999999995
11
221.6527919999999767
21
-108.8342540000000014
0
LINE
8
BLACK
6
CONTINUOUS
10
221.6527919999999767
20
-108.8342540000000014
11
221.7662629999999808
21
-108.8038499999999971
0
LINE
8
BLACK
6
CONTINUOUS
10
221.7662629999999808
20
-108.8038499999999971
11
221.8837369999999964
21
-108.8038499999999971
0
LINE
8
BLACK
6
CONTINUOUS
10
221.8837369999999964
20
-108.8038499999999971
11
221.9972080000000005
21
-108.8342540000000014
0
LINE
8
BLACK
6
CONTINUOUS
10
219.2472080000000005
20
-92.8342540000000014
11
219.3489429999999913
21
-92.892990999999995
0
LINE
8
BLACK
6
CONTINUOUS
10
219.3489429999999913
20
-92.892990999999995
11
219.4320089999999936
21
-92.9760569999999973
0
LINE
8
BLACK
6
CONTINUOUS
10
219.4320089999999936
20
-92.9760569999999973
11
219.4907460000000015
21
-93.0777920000000023
0
LINE
8
BLACK
6
CONTINUOUS
10
219.4907460000000015
20
-93.0777920000000023
11
219.5211499999999774
21
-93.1912629999999922
0
LINE
8
BLACK
6
CONTINUOUS
10
219.5211499999999774
20
-93.1912629999999922
11
219.5211499999999774
21
-93.3087369999999936
0
LINE
8
BLACK
6
CONTINUOUS
10
219.5211499999999774
20
-93.3087369999999936
11
219.4907460000000015
21
-93.4222079999999977
0
LINE
8
BLACK
6
CONTINUOUS
10
219.4907460000000015
20
-93.4222079999999977
11
219.4320089999999936
21
-93.5239430000000027
0
LINE
8
BLACK
6
CONTINUOUS
10
219.4320089999999936
20
-93.5239430000000027
11
219.3489429999999913
21
-93.6070089999999908
0
LINE
8
BLACK
6
CONTINUOUS
10
219.3489429999999913
20
-93.6070089999999908
11
219.2472080000000005
21
-93.6657459999999986
0
LINE
8
BLACK
6
CONTINUOUS
10
219.2472080000000005
20
-93.6657459999999986
11
219.1337369999999964
21
-93.6961499999999887
0
LINE
8
BLACK
6
CONTINUOUS
10
219.1337369999999964
20
-93.6961499999999887
11
219.0162629999999808
21
-93.6961499999999887
0
LINE
8
BLACK
6
CONTINUOUS
10
219.0162629999999808
20
-93.6961499999999887
11
218.9027919999999767
21
-93.6657459999999986
0
LINE
8
BLACK
6
CONTINUOUS
10
218.9027919999999767
20
-93.6657459999999986
11
218.8010569999999859
21
-93.6070089999999908
0
LINE
8
BLACK
6
CONTINUOUS
10
218.8010569999999859
20
-93.6070089999999908
11
218.7179909999999836
21
-93.5239430000000027
0
LINE
8
BLACK
6
CONTINUOUS
10
218.7179909999999836
20
-93.5239430000000027
11
218.6592540000000042
21
-93.4222079999999977
0
LINE
8
BLACK
6
CONTINUOUS
10
218.6592540000000042
20
-93.4222079999999977
11
218.6288499999999999
21
-93.3087369999999936
0
LINE
8
BLACK
6
CONTINUOUS
10
218.6288499999999999
20
-93.3087369999999936
11
218.6288499999999999
21
-93.1912629999999922
0
LINE
8
BLACK
6
CONTINUOUS
10
218.6288499999999999
20
-93.1912629999999922
11
218.6592540000000042
21
-93.0777920000000023
0
LINE
8
BLACK
6
CONTINUOUS
10
218.6592540000000042
20
-93.0777920000000023
11
218.7179909999999836
21
-92.9760569999999973
0
LINE
8
BLACK
6
CONTINUOUS
10
218.7179909999999836
20
-92.9760569999999973
11
218.8010569999999859
21
-92.892990999999995
0
LINE
8
BLACK
6
CONTINUOUS
10
218.8010569999999859
20
-92.892990999999995
11
218.9027919999999767
21
-92.8342540000000014
0
LINE
8
BLACK
6
CONTINUOUS
10
218.9027919999999767
20
-92.8342540000000014
11
219.0162629999999808
21
-92.8038499999999971
0
LINE
8
BLACK
6
CONTINUOUS
10
219.0162629999999808
20
-92.8038499999999971
11
219.1337369999999964
21
-92.8038499999999971
0
LINE
8
BLACK
6
CONTINUOUS
10
219.1337369999999964
20
-92.8038499999999971
11
219.2472080000000005
21
-92.8342540000000014
0
LINE
8
BLACK
6
CONTINUOUS
10
221.9972080000000005
20
-92.8342540000000014
11
222.0989429999999913
21
-92.892990999999995
0
LINE
8
BLACK
6
CONTINUOUS
10
222.0989429999999913
20
-92.892990999999995
11
222.1820089999999936
21
-92.9760569999999973
0
LINE
8
BLACK
6
CONTINUOUS
10
222.1820089999999936
20
-92.9760569999999973
11
222.2407460000000015
21
-93.0777920000000023
0
LINE
8
BLACK
6
CONTINUOUS
10
222.2407460000000015
20
-93.0777920000000023
11
222.2711499999999774
21
-93.1912629999999922
0
LINE
8
BLACK
6
CONTINUOUS
10
222.2711499999999774
20
-93.1912629999999922
11
222.2711499999999774
21
-93.3087369999999936
0
LINE
8
BLACK
6
CONTINUOUS
10
222.2711499999999774
20
-93.3087369999999936
11
222.2407460000000015
21
-93.4222079999999977
0
LINE
8
BLACK
6
CONTINUOUS
10
222.2407460000000015
20
-93.4222079999999977
11
222.1820089999999936
21
-93.5239430000000027
0
LINE
8
BLACK
6
CONTINUOUS
10
222.1820089999999936
20
-93.5239430000000027
11
222.0989429999999913
21
-93.6070089999999908
0
LINE
8
BLACK
6
CONTINUOUS
10
222.0989429999999913
20
-93.6070089999999908
11
221.9972080000000005
21
-93.6657459999999986
0
LINE
8
BLACK
6
CONTINUOUS
10
221.9972080000000005
20
-93.6657459999999986
11
221.8837369999999964
21
-93.6961499999999887
0
LINE
8
BLACK
6
CONTINUOUS
10
221.8837369999999964
20
-93.6961499999999887
11
221.7662629999999808
21
-93.6961499999999887
0
LINE
8
BLACK
6
CONTINUOUS
10
221.7662629999999808
20
-93.6961499999999887
11
221.6527919999999767
21
-93.6657459999999986
0
LINE
8
BLACK
6
CONTINUOUS
10
221.6527919999999767
20
-93.6657459999999986
11
221.5510569999999859
21
-93.6070089999999908
0
LINE
8
BLACK
6
CONTINUOUS
10
221.5510569999999859
20
-93.6070089999999908
11
221.4679909999999836
21
-93.5239430000000027
0
LINE
8
BLACK
6
CONTINUOUS
10
221.4679909999999836
20
-93.5239430000000027
11
221.4092539999999758
21
-93.4222079999999977
0
LINE
8
BLACK
6
CONTINUOUS
10
221.4092539999999758
20
-93.4222079999999977
11
221.3788499999999999
21
-93.3087369999999936
0
LINE
8
BLACK
6
CONTINUOUS
10
221.3788499999999999
20
-93.3087369999999936
11
221.3788499999999999
21
-93.1912629999999922
0
LINE
8
BLACK
6
CONTINUOUS
10
221.3788499999999999
20
-93.1912629999999922
11
221.4092539999999758
21
-93.0777920000000023
0
LINE
8
BLACK
6
CONTINUOUS
10
221.4092539999999758
20
-93.0777920000000023
11
221.4679909999999836
21
-92.9760569999999973
0
LINE
8
BLACK
6
CONTINUOUS
10
221.4679909999999836
20
-92.9760569999999973
11
221.5510569999999859
21
-92.892990999999995
0
LINE
8
BLACK
6
CONTINUOUS
10
221.5510569999999859
20
-92.892990999999995
11
221.6527919999999767
21
-92.8342540000000014
0
LINE
8
BLACK
6
CONTINUOUS
10
221.6527919999999767
20
-92.8342540000000014
11
221.7662629999999808
21
-92.8038499999999971
0
LINE
8
BLACK
6
CONTINUOUS
10
221.7662629999999808
20
-92.8038499999999971
11
221.8837369999999964
21
-92.8038499999999971
0
LINE
8
BLACK
6
CONTINUOUS
10
221.8837369999999964
20
-92.8038499999999971
11
221.9972080000000005
21
-92.8342540000000014
0
LINE
8
BLACK
6
CONTINUOUS
10
219.2472080000000005
20
-75.8342540000000014
11
219.3489429999999913
21
-75.892990999999995
0
LINE
8
BLACK
6
CONTINUOUS
10
219.3489429999999913
20
-75.892990999999995
11
219.4320089999999936
21
-75.9760569999999973
0
LINE
8
BLACK
6
CONTINUOUS
10
219.4320089999999936
20
-75.9760569999999973
11
219.4907460000000015
21
-76.0777920000000023
0
LINE
8
BLACK
6
CONTINUOUS
10
219.4907460000000015
20
-76.0777920000000023
11
219.5211499999999774
21
-76.1912629999999922
0
LINE
8
BLACK
6
CONTINUOUS
10
219.5211499999999774
20
-76.1912629999999922
11
219.5211499999999774
21
-76.3087369999999936
0
LINE
8
BLACK
6
CONTINUOUS
10
219.5211499999999774
20
-76.3087369999999936
11
219.4907460000000015
21
-76.4222079999999977
0
LINE
8
BLACK
6
CONTINUOUS
10
219.4907460000000015
20
-76.4222079999999977
11
219.4320089999999936
21
-76.5239430000000027
0
LINE
8
BLACK
6
CONTINUOUS
10
219.4320089999999936
20
-76.5239430000000027
11
219.3489429999999913
21
-76.6070089999999908
0
LINE
8
BLACK
6
CONTINUOUS
10
219.3489429999999913
20
-76.6070089999999908
11
219.2472080000000005
21
-76.6657459999999986
0
LINE
8
BLACK
6
CONTINUOUS
10
219.2472080000000005
20
-76.6657459999999986
11
219.1337369999999964
21
-76.6961500000000029
0
LINE
8
BLACK
6
CONTINUOUS
10
219.1337369999999964
20
-76.6961500000000029
11
219.0162629999999808
21
-76.6961500000000029
0
LINE
8
BLACK
6
CONTINUOUS
10
219.0162629999999808
20
-76.6961500000000029
11
218.9027919999999767
21
-76.6657459999999986
0
LINE
8
BLACK
6
CONTINUOUS
10
218.9027919999999767
20
-76.6657459999999986
11
218.8010569999999859
21
-76.6070089999999908
0
LINE
8
BLACK
6
CONTINUOUS
10
218.8010569999999859
20
-76.6070089999999908
11
218.7179909999999836
21
-76.5239430000000027
0
LINE
8
BLACK
6
CONTINUOUS
10
218.7179909999999836
20
-76.5239430000000027
11
218.6592540000000042
21
-76.4222079999999977
0
LINE
8
BLACK
6
CONTINUOUS
10
218.6592540000000042
20
-76.4222079999999977
11
218.6288499999999999
21
-76.3087369999999936
0
LINE
8
BLACK
6
CONTINUOUS
10
218.6288499999999999
20
-76.3087369999999936
11
218.6288499999999999
21
-76.1912629999999922
0
LINE
8
BLACK
6
CONTINUOUS
10
218.6288499999999999
20
-76.1912629999999922
11
218.6592540000000042
21
-76.0777920000000023
0
LINE
8
BLACK
6
CONTINUOUS
10
218.6592540000000042
20
-76.0777920000000023
11
218.7179909999999836
21
-75.9760569999999973
0
LINE
8
BLACK
6
CONTINUOUS
10
218.7179909999999836
20
-75.9760569999999973
11
218.8010569999999859
21
-75.892990999999995
0
LINE
8
BLACK
6
CONTINUOUS
10
218.8010569999999859
20
-75.892990999999995
11
218.9027919999999767
21
-75.8342540000000014
0
LINE
8
BLACK
6
CONTINUOUS
10
218.9027919999999767
20
-75.8342540000000014
11
219.0162629999999808
21
-75.8038499999999971
0
LINE
8
BLACK
6
CONTINUOUS
10
219.0162629999999808
20
-75.8038499999999971
11
219.1337369999999964
21
-75.8038499999999971
0
LINE
8
BLACK
6
CONTINUOUS
10
219.1337369999999964
20
-75.8038499999999971
11
219.2472080000000005
21
-75.8342540000000014
0
LINE
8
BLACK
6
CONTINUOUS
10
221.9972080000000005
20
-75.8342540000000014
11
222.0989429999999913
21
-75.892990999999995
0
LINE
8
BLACK
6
CONTINUOUS
10
222.0989429999999913
20
-75.892990999999995
11
222.1820089999999936
21
-75.9760569999999973
0
LINE
8
BLACK
6
CONTINUOUS
10
222.1820089999999936
20
-75.9760569999999973
11
222.2407460000000015
21
-76.0777920000000023
0
LINE
8
BLACK
6
CONTINUOUS
10
222.2407460000000015
20
-76.0777920000000023
11
222.2711499999999774
21
-76.1912629999999922
0
LINE
8
BLACK
6
CONTINUOUS
10
222.2711499999999774
20
-76.1912629999999922
11
222.2711499999999774
21
-76.3087369999999936
0
LINE
8
BLACK
6
CONTINUOUS
10
222.2711499999999774
20
-76.3087369999999936
11
222.2407460000000015
21
-76.4222079999999977
0
LINE
8
BLACK
6
CONTINUOUS
10
222.2407460000000015
20
-76.4222079999999977
11
222.1820089999999936
21
-76.5239430000000027
0
LINE
8
BLACK
6
CONTINUOUS
10
222.1820089999999936
20
-76.5239430000000027
11
222.0989429999999913
21
-76.6070089999999908
0
LINE
8
BLACK
6
CONTINUOUS
10
222.0989429999999913
20
-76.6070089999999908
11
221.9972080000000005
21
-76.6657459999999986
0
LINE
8
BLACK
6
CONTINUOUS
10
221.9972080000000005
20
-76.6657459999999986
11
221.8837369999999964
21
-76.6961500000000029
0
LINE
8
BLACK
6
CONTINUOUS
10
221.8837369999999964
20
-76.6961500000000029
11
221.7662629999999808
21
-76.6961500000000029
0
LINE
8
BLACK
6
CONTINUOUS
10
221.7662629999999808
20
-76.6961500000000029
11
221.6527919999999767
21
-76.6657459999999986
0
LINE
8
BLACK
6
CONTINUOUS
10
221.6527919999999767
20
-76.6657459999999986
11
221.5510569999999859
21
-76.6070089999999908
0
LINE
8
BLACK
6
CONTINUOUS
10
221.5510569999999859
20
-76.6070089999999908
11
221.4679909999999836
21
-76.5239430000000027
0
LINE
8
BLACK
6
CONTINUOUS
10
221.4679909999999836
20
-76.5239430000000027
11
221.4092539999999758
21
-76.4222079999999977
0
LINE
8
BLACK
6
CONTINUOUS
10
221.4092539999999758
20
-76.4222079999999977
11
221.3788499999999999
21
-76.3087369999999936
0
LINE
8
BLACK
6
CONTINUOUS
10
221.3788499999999999
20
-76.3087369999999936
11
221.3788499999999999
21
-76.1912629999999922
0
LINE
8
BLACK
6
CONTINUOUS
10
221.3788499999999999
20
-76.1912629999999922
11
221.4092539999999758
21
-76.0777920000000023
0
LINE
8
BLACK
6
CONTINUOUS
10
221.4092539999999758
20
-76.0777920000000023
11
221.4679909999999836
21
-75.9760569999999973
0
LINE
8
BLACK
6
CONTINUOUS
10
221.4679909999999836
20
-75.9760569999999973
11
221.5510569999999859
21
-75.892990999999995
0
LINE
8
BLACK
6
CONTINUOUS
10
221.5510569999999859
20
-75.892990999999995
11
221.6527919999999767
21
-75.8342540000000014
0
LINE
8
BLACK
6
CONTINUOUS
10
221.6527919999999767
20
-75.8342540000000014
11
221.7662629999999808
21
-75.8038499999999971
0
LINE
8
BLACK
6
CONTINUOUS
10
221.7662629999999808
20
-75.8038499999999971
11
221.8837369999999964
21
-75.8038499999999971
0
LINE
8
BLACK
6
CONTINUOUS
10
221.8837369999999964
20
-75.8038499999999971
11
221.9972080000000005
21
-75.8342540000000014
0
LINE
8
BLACK
6
CONTINUOUS
10
219.2472080000000005
20
-59.8342539999999943
11
219.3489429999999913
21
-59.892990999999995
0
LINE
8
BLACK
6
CONTINUOUS
10
219.3489429999999913
20
-59.892990999999995
11
219.4320089999999936
21
-59.9760569999999973
0
LINE
8
BLACK
6
CONTINUOUS
10
219.4320089999999936
20
-59.9760569999999973
11
219.4907460000000015
21
-60.0777919999999952
0
LINE
8
BLACK
6
CONTINUOUS
10
219.4907460000000015
20
-60.0777919999999952
11
219.5211499999999774
21
-60.1912629999999993
0
LINE
8
BLACK
6
CONTINUOUS
10
219.5211499999999774
20
-60.1912629999999993
11
219.5211499999999774
21
-60.3087370000000007
0
LINE
8
BLACK
6
CONTINUOUS
10
219.5211499999999774
20
-60.3087370000000007
11
219.4907460000000015
21
-60.4222079999999977
0
LINE
8
BLACK
6
CONTINUOUS
10
219.4907460000000015
20
-60.4222079999999977
11
219.4320089999999936
21
-60.5239429999999956
0
LINE
8
BLACK
6
CONTINUOUS
10
219.4320089999999936
20
-60.5239429999999956
11
219.3489429999999913
21
-60.6070089999999979
0
LINE
8
BLACK
6
CONTINUOUS
10
219.3489429999999913
20
-60.6070089999999979
11
219.2472080000000005
21
-60.6657459999999986
0
LINE
8
BLACK
6
CONTINUOUS
10
219.2472080000000005
20
-60.6657459999999986
11
219.1337369999999964
21
-60.6961499999999958
0
LINE
8
BLACK
6
CONTINUOUS
10
219.1337369999999964
20
-60.6961499999999958
11
219.0162629999999808
21
-60.6961499999999958
0
LINE
8
BLACK
6
CONTINUOUS
10
219.0162629999999808
20
-60.6961499999999958
11
218.9027919999999767
21
-60.6657459999999986
0
LINE
8
BLACK
6
CONTINUOUS
10
218.9027919999999767
20
-60.6657459999999986
11
218.8010569999999859
21
-60.6070089999999979
0
LINE
8
BLACK
6
CONTINUOUS
10
218.8010569999999859
20
-60.6070089999999979
11
218.7179909999999836
21
-60.5239429999999956
0
LINE
8
BLACK
6
CONTINUOUS
10
218.7179909999999836
20
-60.5239429999999956
11
218.6592540000000042
21
-60.4222079999999977
0
LINE
8
BLACK
6
CONTINUOUS
10
218.6592540000000042
20
-60.4222079999999977
11
218.6288499999999999
21
-60.3087370000000007
0
LINE
8
BLACK
6
CONTINUOUS
10
218.6288499999999999
20
-60.3087370000000007
11
218.6288499999999999
21
-60.1912629999999993
0
LINE
8
BLACK
6
CONTINUOUS
10
218.6288499999999999
20
-60.1912629999999993
11
218.6592540000000042
21
-60.0777919999999952
0
LINE
8
BLACK
6
CONTINUOUS
10
218.6592540000000042
20
-60.0777919999999952
11
218.7179909999999836
21
-59.9760569999999973
0
LINE
8
BLACK
6
CONTINUOUS
10
218.7179909999999836
20
-59.9760569999999973
11
218.8010569999999859
21
-59.892990999999995
0
LINE
8
BLACK
6
CONTINUOUS
10
218.8010569999999859
20
-59.892990999999995
11
218.9027919999999767
21
-59.8342539999999943
0
LINE
8
BLACK
6
CONTINUOUS
10
218.9027919999999767
20
-59.8342539999999943
11
219.0162629999999808
21
-59.8038499999999971
0
LINE
8
BLACK
6
CONTINUOUS
10
219.0162629999999808
20
-59.8038499999999971
11
219.1337369999999964
21
-59.8038499999999971
0
LINE
8
BLACK
6
CONTINUOUS
10
219.1337369999999964
20
-59.8038499999999971
11
219.2472080000000005
21
-59.8342539999999943
0
LINE
8
BLACK
6
CONTINUOUS
10
221.9972080000000005
20
-59.8342539999999943
11
222.0989429999999913
21
-59.892990999999995
0
LINE
8
BLACK
6
CONTINUOUS
10
222.0989429999999913
20
-59.892990999999995
11
222.1820089999999936
21
-59.9760569999999973
0
LINE
8
BLACK
6
CONTINUOUS
10
222.1820089999999936
20
-59.9760569999999973
11
222.2407460000000015
21
-60.0777919999999952
0
LINE
8
BLACK
6
CONTINUOUS
10
222.2407460000000015
20
-60.0777919999999952
11
222.2711499999999774
21
-60.1912629999999993
0
LINE
8
BLACK
6
CONTINUOUS
10
222.2711499999999774
20
-60.1912629999999993
11
222.2711499999999774
21
-60.3087370000000007
0
LINE
8
BLACK
6
CONTINUOUS
10
222.2711499999999774
20
-60.3087370000000007
11
222.2407460000000015
21
-60.4222079999999977
0
LINE
8
BLACK
6
CONTINUOUS
10
222.2407460000000015
20
-60.4222079999999977
11
222.1820089999999936
21
-60.5239429999999956
0
LINE
8
BLACK
6
CONTINUOUS
10
222.1820089999999936
20
-60.5239429999999956
11
222.0989429999999913
21
-60.6070089999999979
0
LINE
8
BLACK
6
CONTINUOUS
10
222.0989429999999913
20
-60.6070089999999979
11
221.9972080000000005
21
-60.6657459999999986
0
LINE
8
BLACK
6
CONTINUOUS
10
221.9972080000000005
20
-60.6657459999999986
11
221.8837369999999964
21
-60.6961499999999958
0
LINE
8
BLACK
6
CONTINUOUS
10
221.8837369999999964
20
-60.6961499999999958
11
221.7662629999999808
21
-60.6961499999999958
0
LINE
8
BLACK
6
CONTINUOUS
10
221.7662629999999808
20
-60.6961499999999958
11
221.6527919999999767
21
-60.6657459999999986
0
LINE
8
BLACK
6
CONTINUOUS
10
221.6527919999999767
20
-60.6657459999999986
11
221.5510569999999859
21
-60.6070089999999979
0
LINE
8
BLACK
6
CONTINUOUS
10
221.5510569999999859
20
-60.6070089999999979
11
221.4679909999999836
21
-60.5239429999999956
0
LINE
8
BLACK
6
CONTINUOUS
10
221.4679909999999836
20
-60.5239429999999956
11
221.4092539999999758
21
-60.4222079999999977
0
LINE
8
BLACK
6
CONTINUOUS
10
221.4092539999999758
20
-60.4222079999999977
11
221.3788499999999999
21
-60.3087370000000007
0
LINE
8
BLACK
6
CONTINUOUS
10
221.3788499999999999
20
-60.3087370000000007
11
221.3788499999999999
21
-60.1912629999999993
0
LINE
8
BLACK
6
CONTINUOUS
10
221.3788499999999999
20
-60.1912629999999993
11
221.4092539999999758
21
-60.0777919999999952
0
LINE
8
BLACK
6
CONTINUOUS
10
221.4092539999999758
20
-60.0777919999999952
11
221.4679909999999836
21
-59.9760569999999973
0
LINE
8
BLACK
6
CONTINUOUS
10
221.4679909999999836
20
-59.9760569999999973
11
221.5510569999999859
21
-59.892990999999995
0
LINE
8
BLACK
6
CONTINUOUS
10
221.5510569999999859
20
-59.892990999999995
11
221.6527919999999767
21
-59.8342539999999943
0
LINE
8
BLACK
6
CONTINUOUS
10
221.6527919999999767
20
-59.8342539999999943
11
221.7662629999999808
21
-59.8038499999999971
0
LINE
8
BLACK
6
CONTINUOUS
10
221.7662629999999808
20
-59.8038499999999971
11
221.8837369999999964
21
-59.8038499999999971
0
LINE
8
BLACK
6
CONTINUOUS
10
221.8837369999999964
20
-59.8038499999999971
11
221.9972080000000005
21
-59.8342539999999943
0
LINE
8
BLACK
6
CONTINUOUS
10
213.5972079999999949
20
-58.1842539999999957
11
213.6989429999999857
21
-58.2429909999999964
0
LINE
8
BLACK
6
CONTINUOUS
10
213.6989429999999857
20
-58.2429909999999964
11
213.782008999999988
21
-58.3260569999999987
0
LINE
8
BLACK
6
CONTINUOUS
10
213.782008999999988
20
-58.3260569999999987
11
213.8407459999999958
21
-58.4277919999999966
0
LINE
8
BLACK
6
CONTINUOUS
10
213.8407459999999958
20
-58.4277919999999966
11
213.8711500000000001
21
-58.5412630000000007
0
LINE
8
BLACK
6
CONTINUOUS
10
213.8711500000000001
20
-58.5412630000000007
11
213.8711500000000001
21
-58.658736999999995
0
LINE
8
BLACK
6
CONTINUOUS
10
213.8711500000000001
20
-58.658736999999995
11
213.8407459999999958
21
-58.7722079999999991
0
LINE
8
BLACK
6
CONTINUOUS
10
213.8407459999999958
20
-58.7722079999999991
11
213.782008999999988
21
-58.873942999999997
0
LINE
8
BLACK
6
CONTINUOUS
10
213.782008999999988
20
-58.873942999999997
11
213.6989429999999857
21
-58.9570089999999993
0
LINE
8
BLACK
6
CONTINUOUS
10
213.6989429999999857
20
-58.9570089999999993
11
213.5972079999999949
21
-59.015746
0
LINE
8
BLACK
6
CONTINUOUS
10
213.5972079999999949
20
-59.015746
11
213.4837369999999908
21
-59.0461499999999972
0
LINE
8
BLACK
6
CONTINUOUS
10
213.4837369999999908
20
-59.0461499999999972
11
213.3662630000000036
21
-59.0461499999999972
0
LINE
8
BLACK
6
CONTINUOUS
10
213.3662630000000036
20
-59.0461499999999972
11
213.2527919999999995
21
-59.015746
0
LINE
8
BLACK
6
CONTINUOUS
10
213.2527919999999995
20
-59.015746
11
213.1510569999999802
21
-58.9570089999999993
0
LINE
8
BLACK
6
CONTINUOUS
10
213.1510569999999802
20
-58.9570089999999993
11
213.0679909999999779
21
-58.873942999999997
0
LINE
8
BLACK
6
CONTINUOUS
10
213.0679909999999779
20
-58.873942999999997
11
213.0092539999999985
21
-58.7722079999999991
0
LINE
8
BLACK
6
CONTINUOUS
10
213.0092539999999985
20
-58.7722079999999991
11
212.9788499999999942
21
-58.658736999999995
0
LINE
8
BLACK
6
CONTINUOUS
10
212.9788499999999942
20
-58.658736999999995
11
212.9788499999999942
21
-58.5412630000000007
0
LINE
8
BLACK
6
CONTINUOUS
10
212.9788499999999942
20
-58.5412630000000007
11
213.0092539999999985
21
-58.4277919999999966
0
LINE
8
BLACK
6
CONTINUOUS
10
213.0092539999999985
20
-58.4277919999999966
11
213.0679909999999779
21
-58.3260569999999987
0
LINE
8
BLACK
6
CONTINUOUS
10
213.0679909999999779
20
-58.3260569999999987
11
213.1510569999999802
21
-58.2429909999999964
0
LINE
8
BLACK
6
CONTINUOUS
10
213.1510569999999802
20
-58.2429909999999964
11
213.2527919999999995
21
-58.1842539999999957
0
LINE
8
BLACK
6
CONTINUOUS
10
213.2527919999999995
20
-58.1842539999999957
11
213.3662630000000036
21
-58.1538499999999985
0
LINE
8
BLACK
6
CONTINUOUS
10
213.3662630000000036
20
-58.1538499999999985
11
213.4837369999999908
21
-58.1538499999999985
0
LINE
8
BLACK
6
CONTINUOUS
10
213.4837369999999908
20
-58.1538499999999985
11
213.5972079999999949
21
-58.1842539999999957
0
LINE
8
BLACK
6
CONTINUOUS
10
202.4222079999999835
20
-55.6342539999999985
11
202.5239430000000027
21
-55.6929909999999992
0
LINE
8
BLACK
6
CONTINUOUS
10
202.5239430000000027
20
-55.6929909999999992
11
202.607009000000005
21
-55.7760569999999944
0
LINE
8
BLACK
6
CONTINUOUS
10
202.607009000000005
20
-55.7760569999999944
11
202.6657459999999844
21
-55.8777919999999995
0
LINE
8
BLACK
6
CONTINUOUS
10
202.6657459999999844
20
-55.8777919999999995
11
202.6961499999999887
21
-55.9912629999999965
0
LINE
8
BLACK
6
CONTINUOUS
10
202.6961499999999887
20
-55.9912629999999965
11
202.6961499999999887
21
-56.1087369999999979
0
LINE
8
BLACK
6
CONTINUOUS
10
202.6961499999999887
20
-56.1087369999999979
11
202.6657459999999844
21
-56.2222079999999949
0
LINE
8
BLACK
6
CONTINUOUS
10
202.6657459999999844
20
-56.2222079999999949
11
202.607009000000005
21
-56.3239429999999999
0
LINE
8
BLACK
6
CONTINUOUS
10
202.607009000000005
20
-56.3239429999999999
11
202.5239430000000027
21
-56.4070089999999951
0
LINE
8
BLACK
6
CONTINUOUS
10
202.5239430000000027
20
-56.4070089999999951
11
202.4222079999999835
21
-56.4657459999999958
0
LINE
8
BLACK
6
CONTINUOUS
10
202.4222079999999835
20
-56.4657459999999958
11
202.3087369999999794
21
-56.4961500000000001
0
LINE
8
BLACK
6
CONTINUOUS
10
202.3087369999999794
20
-56.4961500000000001
11
202.1912629999999922
21
-56.4961500000000001
0
LINE
8
BLACK
6
CONTINUOUS
10
202.1912629999999922
20
-56.4961500000000001
11
202.0777919999999881
21
-56.4657459999999958
0
LINE
8
BLACK
6
CONTINUOUS
10
202.0777919999999881
20
-56.4657459999999958
11
201.9760569999999973
21
-56.4070089999999951
0
LINE
8
BLACK
6
CONTINUOUS
10
201.9760569999999973
20
-56.4070089999999951
11
201.892990999999995
21
-56.3239429999999999
0
LINE
8
BLACK
6
CONTINUOUS
10
201.892990999999995
20
-56.3239429999999999
11
201.8342539999999872
21
-56.2222079999999949
0
LINE
8
BLACK
6
CONTINUOUS
10
201.8342539999999872
20
-56.2222079999999949
11
201.8038499999999829
21
-56.1087369999999979
0
LINE
8
BLACK
6
CONTINUOUS
10
201.8038499999999829
20
-56.1087369999999979
11
201.8038499999999829
21
-55.9912629999999965
0
LINE
8
BLACK
6
CONTINUOUS
10
201.8038499999999829
20
-55.9912629999999965
11
201.8342539999999872
21
-55.8777919999999995
0
LINE
8
BLACK
6
CONTINUOUS
10
201.8342539999999872
20
-55.8777919999999995
11
201.892990999999995
21
-55.7760569999999944
0
LINE
8
BLACK
6
CONTINUOUS
10
201.892990999999995
20
-55.7760569999999944
11
201.9760569999999973
21
-55.6929909999999992
0
LINE
8
BLACK
6
CONTINUOUS
10
201.9760569999999973
20
-55.6929909999999992
11
202.0777919999999881
21
-55.6342539999999985
0
LINE
8
BLACK
6
CONTINUOUS
10
202.0777919999999881
20
-55.6342539999999985
11
202.1912629999999922
21
-55.6038499999999942
0
LINE
8
BLACK
6
CONTINUOUS
10
202.1912629999999922
20
-55.6038499999999942
11
202.3087369999999794
21
-55.6038499999999942
0
LINE
8
BLACK
6
CONTINUOUS
10
202.3087369999999794
20
-55.6038499999999942
11
202.4222079999999835
21
-55.6342539999999985
0
LINE
8
BLACK
6
CONTINUOUS
10
205.4222079999999835
20
-55.6342539999999985
11
205.5239430000000027
21
-55.6929909999999992
0
LINE
8
BLACK
6
CONTINUOUS
10
205.5239430000000027
20
-55.6929909999999992
11
205.6070089999999766
21
-55.7760569999999944
0
LINE
8
BLACK
6
CONTINUOUS
10
205.6070089999999766
20
-55.7760569999999944
11
205.6657459999999844
21
-55.8777919999999995
0
LINE
8
BLACK
6
CONTINUOUS
10
205.6657459999999844
20
-55.8777919999999995
11
205.6961499999999887
21
-55.9912629999999965
0
LINE
8
BLACK
6
CONTINUOUS
10
205.6961499999999887
20
-55.9912629999999965
11
205.6961499999999887
21
-56.1087369999999979
0
LINE
8
BLACK
6
CONTINUOUS
10
205.6961499999999887
20
-56.1087369999999979
11
205.6657459999999844
21
-56.2222079999999949
0
LINE
8
BLACK
6
CONTINUOUS
10
205.6657459999999844
20
-56.2222079999999949
11
205.6070089999999766
21
-56.3239429999999999
0
LINE
8
BLACK
6
CONTINUOUS
10
205.6070089999999766
20
-56.3239429999999999
11
205.5239430000000027
21
-56.4070089999999951
0
LINE
8
BLACK
6
CONTINUOUS
10
205.5239430000000027
20
-56.4070089999999951
11
205.4222079999999835
21
-56.4657459999999958
0
LINE
8
BLACK
6
CONTINUOUS
10
205.4222079999999835
20
-56.4657459999999958
11
205.3087369999999794
21
-56.4961500000000001
0
LINE
8
BLACK
6
CONTINUOUS
10
205.3087369999999794
20
-56.4961500000000001
11
205.1912629999999922
21
-56.4961500000000001
0
LINE
8
BLACK
6
CONTINUOUS
10
205.1912629999999922
20
-56.4961500000000001
11
205.0777919999999881
21
-56.4657459999999958
0
LINE
8
BLACK
6
CONTINUOUS
10
205.0777919999999881
20
-56.4657459999999958
11
204.9760569999999973
21
-56.4070089999999951
0
LINE
8
BLACK
6
CONTINUOUS
10
204.9760569999999973
20
-56.4070089999999951
11
204.892990999999995
21
-56.3239429999999999
0
LINE
8
BLACK
6
CONTINUOUS
10
204.892990999999995
20
-56.3239429999999999
11
204.8342539999999872
21
-56.2222079999999949
0
LINE
8
BLACK
6
CONTINUOUS
10
204.8342539999999872
20
-56.2222079999999949
11
204.8038499999999829
21
-56.1087369999999979
0
LINE
8
BLACK
6
CONTINUOUS
10
204.8038499999999829
20
-56.1087369999999979
11
204.8038499999999829
21
-55.9912629999999965
0
LINE
8
BLACK
6
CONTINUOUS
10
204.8038499999999829
20
-55.9912629999999965
11
204.8342539999999872
21
-55.8777919999999995
0
LINE
8
BLACK
6
CONTINUOUS
10
204.8342539999999872
20
-55.8777919999999995
11
204.892990999999995
21
-55.7760569999999944
0
LINE
8
BLACK
6
CONTINUOUS
10
204.892990999999995
20
-55.7760569999999944
11
204.9760569999999973
21
-55.6929909999999992
0
LINE
8
BLACK
6
CONTINUOUS
10
204.9760569999999973
20
-55.6929909999999992
11
205.0777919999999881
21
-55.6342539999999985
0
LINE
8
BLACK
6
CONTINUOUS
10
205.0777919999999881
20
-55.6342539999999985
11
205.1912629999999922
21
-55.6038499999999942
0
LINE
8
BLACK
6
CONTINUOUS
10
205.1912629999999922
20
-55.6038499999999942
11
205.3087369999999794
21
-55.6038499999999942
0
LINE
8
BLACK
6
CONTINUOUS
10
205.3087369999999794
20
-55.6038499999999942
11
205.4222079999999835
21
-55.6342539999999985
0
LINE
8
BLACK
6
CONTINUOUS
10
213.5972079999999949
20
-55.4342539999999957
11
213.6989429999999857
21
-55.4929909999999964
0
LINE
8
BLACK
6
CONTINUOUS
10
213.6989429999999857
20
-55.4929909999999964
11
213.782008999999988
21
-55.5760569999999987
0
LINE
8
BLACK
6
CONTINUOUS
10
213.782008999999988
20
-55.5760569999999987
11
213.8407459999999958
21
-55.6777919999999966
0
LINE
8
BLACK
6
CONTINUOUS
10
213.8407459999999958
20
-55.6777919999999966
11
213.8711500000000001
21
-55.7912630000000007
0
LINE
8
BLACK
6
CONTINUOUS
10
213.8711500000000001
20
-55.7912630000000007
11
213.8711500000000001
21
-55.908736999999995
0
LINE
8
BLACK
6
CONTINUOUS
10
213.8711500000000001
20
-55.908736999999995
11
213.8407459999999958
21
-56.0222079999999991
0
LINE
8
BLACK
6
CONTINUOUS
10
213.8407459999999958
20
-56.0222079999999991
11
213.782008999999988
21
-56.123942999999997
0
LINE
8
BLACK
6
CONTINUOUS
10
213.782008999999988
20
-56.123942999999997
11
213.6989429999999857
21
-56.2070089999999993
0
LINE
8
BLACK
6
CONTINUOUS
10
213.6989429999999857
20
-56.2070089999999993
11
213.5972079999999949
21
-56.265746
0
LINE
8
BLACK
6
CONTINUOUS
10
213.5972079999999949
20
-56.265746
11
213.4837369999999908
21
-56.2961499999999972
0
LINE
8
BLACK
6
CONTINUOUS
10
213.4837369999999908
20
-56.2961499999999972
11
213.3662630000000036
21
-56.2961499999999972
0
LINE
8
BLACK
6
CONTINUOUS
10
213.3662630000000036
20
-56.2961499999999972
11
213.2527919999999995
21
-56.265746
0
LINE
8
BLACK
6
CONTINUOUS
10
213.2527919999999995
20
-56.265746
11
213.1510569999999802
21
-56.2070089999999993
0
LINE
8
BLACK
6
CONTINUOUS
10
213.1510569999999802
20
-56.2070089999999993
11
213.0679909999999779
21
-56.123942999999997
0
LINE
8
BLACK
6
CONTINUOUS
10
213.0679909999999779
20
-56.123942999999997
11
213.0092539999999985
21
-56.0222079999999991
0
LINE
8
BLACK
6
CONTINUOUS
10
213.0092539999999985
20
-56.0222079999999991
11
212.9788499999999942
21
-55.908736999999995
0
LINE
8
BLACK
6
CONTINUOUS
10
212.9788499999999942
20
-55.908736999999995
11
212.9788499999999942
21
-55.7912630000000007
0
LINE
8
BLACK
6
CONTINUOUS
10
212.9788499999999942
20
-55.7912630000000007
11
213.0092539999999985
21
-55.6777919999999966
0
LINE
8
BLACK
6
CONTINUOUS
10
213.0092539999999985
20
-55.6777919999999966
11
213.0679909999999779
21
-55.5760569999999987
0
LINE
8
BLACK
6
CONTINUOUS
10
213.0679909999999779
20
-55.5760569999999987
11
213.1510569999999802
21
-55.4929909999999964
0
LINE
8
BLACK
6
CONTINUOUS
10
213.1510569999999802
20
-55.4929909999999964
11
213.2527919999999995
21
-55.4342539999999957
0
LINE
8
BLACK
6
CONTINUOUS
10
213.2527919999999995
20
-55.4342539999999957
11
213.3662630000000036
21
-55.4038499999999985
0
LINE
8
BLACK
6
CONTINUOUS
10
213.3662630000000036
20
-55.4038499999999985
11
213.4837369999999908
21
-55.4038499999999985
0
LINE
8
BLACK
6
CONTINUOUS
10
213.4837369999999908
20
-55.4038499999999985
11
213.5972079999999949
21
-55.4342539999999957
  0
ENDSEC
  0
EOF
