  0
SECTION
  2
HEADER
  9
$ANGBASE
  50
0.0
  9
$ANGDIR
  70
1
  9
$MEASUREMENT
  70
1
  0
ENDSEC
  0
SECTION
  2
TABLES
  0
TABLE
  2
LTYPE
  70
4
  0
LTYPE
  5
40F
  2
CONTINUOUS
  70
0
  3
Solid line
  72
65
  73
0
  40
0.0
  0
LTYPE
  5
410
  2
DASHDOT
 70
0
  3
Dash Dot ____ _ ____ _
 72
65
 73
4
 40
2.0
 49
1.25
 49
-0.25
 49
0.25
 49
-0.25
  0
LTYPE
  5
411
  2
DASHED
 70
0
  3
Dashed __ __ __ __ __
 72
65
 73
2
 40
0.75
 49
0.5
 49
-0.25
  0
LTYPE
  5
43B
  2
DOTTED
 70
0
  3
Dotted .  .  .  .
 72
65
 73
2
 40
0.2
 49
0.0
 49
-0.2
  0
ENDTAB
  0
TABLE
  2
STYLE
  70
4
  0
STYLE
  2
KICAD
  70
0
  40
0
  41
1
  42
1
  50
0
  71
0
  3
isocp.shx
  0
STYLE
  2
KICADB
  70
0
  40
0
  41
1
  42
1
  50
0
  71
0
  3
isocp.shx
  0
STYLE
  2
KICADI
  70
0
  40
0
  41
1
  42
1
  50
15
  71
0
  3
isocp.shx
  0
STYLE
  2
KICADBI
  70
0
  40
0
  41
1
  42
1
  50
15
  71
0
  3
isocp.shx
  0
ENDTAB
  0
TABLE
  2
LAYER
  70
1
  0
LAYER
  2
BLACK
  70
0
  62
7
  6
CONTINUOUS
  0
ENDTAB
  0
ENDSEC
  0
SECTION
  2
ENTITIES
0
LINE
8
BLACK
6
CONTINUOUS
10
201.2299999999999898
20
-102.4499999999999886
11
200.2299999999999898
21
-102.4499999999999886
0
LINE
8
BLACK
6
CONTINUOUS
10
200.2299999999999898
20
-102.4499999999999886
11
200.2299999999999898
21
-99.9399999999999977
0
LINE
8
BLACK
6
CONTINUOUS
10
200.2299999999999898
20
-99.9399999999999977
11
201.2299999999999898
21
-99.9399999999999977
0
LINE
8
BLACK
6
CONTINUOUS
10
201.2299999999999898
20
-99.9399999999999977
11
201.2299999999999898
21
-102.4499999999999886
0
LINE
8
BLACK
6
CONTINUOUS
10
206.3100000000000023
20
-102.4499999999999886
11
205.3100000000000023
21
-102.4499999999999886
0
LINE
8
BLACK
6
CONTINUOUS
10
205.3100000000000023
20
-102.4499999999999886
11
205.3100000000000023
21
-99.9399999999999977
0
LINE
8
BLACK
6
CONTINUOUS
10
205.3100000000000023
20
-99.9399999999999977
11
206.3100000000000023
21
-99.9399999999999977
0
LINE
8
BLACK
6
CONTINUOUS
10
206.3100000000000023
20
-99.9399999999999977
11
206.3100000000000023
21
-102.4499999999999886
0
LINE
8
BLACK
6
CONTINUOUS
10
178.1518439999999828
20
-98.5182689999999894
11
178.2297059999999931
21
-98.5702939999999899
0
LINE
8
BLACK
6
CONTINUOUS
10
178.2297059999999931
20
-98.5702939999999899
11
178.2817309999999793
21
-98.6481560000000002
0
LINE
8
BLACK
6
CONTINUOUS
10
178.2817309999999793
20
-98.6481560000000002
11
178.2999999999999829
21
-98.7399999999999949
0
LINE
8
BLACK
6
CONTINUOUS
10
178.2999999999999829
20
-98.7399999999999949
11
178.2999999999999829
21
-99.4599999999999937
0
LINE
8
BLACK
6
CONTINUOUS
10
178.2999999999999829
20
-99.4599999999999937
11
178.2817309999999793
21
-99.5518439999999885
0
LINE
8
BLACK
6
CONTINUOUS
10
178.2817309999999793
20
-99.5518439999999885
11
178.2297059999999931
21
-99.6297059999999988
0
LINE
8
BLACK
6
CONTINUOUS
10
178.2297059999999931
20
-99.6297059999999988
11
178.1518439999999828
21
-99.6817309999999992
0
LINE
8
BLACK
6
CONTINUOUS
10
178.1518439999999828
20
-99.6817309999999992
11
178.0600000000000023
21
-99.6999999999999886
0
LINE
8
BLACK
6
CONTINUOUS
10
178.0600000000000023
20
-99.6999999999999886
11
176.039999999999992
21
-99.6999999999999886
0
LINE
8
BLACK
6
CONTINUOUS
10
176.039999999999992
20
-99.6999999999999886
11
175.9481559999999831
21
-99.6817309999999992
0
LINE
8
BLACK
6
CONTINUOUS
10
175.9481559999999831
20
-99.6817309999999992
11
175.8702940000000012
21
-99.6297059999999988
0
LINE
8
BLACK
6
CONTINUOUS
10
175.8702940000000012
20
-99.6297059999999988
11
175.8182689999999866
21
-99.5518439999999885
0
LINE
8
BLACK
6
CONTINUOUS
10
175.8182689999999866
20
-99.5518439999999885
11
175.7999999999999829
21
-99.4599999999999937
0
LINE
8
BLACK
6
CONTINUOUS
10
175.7999999999999829
20
-99.4599999999999937
11
175.7999999999999829
21
-98.7399999999999949
0
LINE
8
BLACK
6
CONTINUOUS
10
175.7999999999999829
20
-98.7399999999999949
11
175.8182689999999866
21
-98.6481560000000002
0
LINE
8
BLACK
6
CONTINUOUS
10
175.8182689999999866
20
-98.6481560000000002
11
175.8702940000000012
21
-98.5702939999999899
0
LINE
8
BLACK
6
CONTINUOUS
10
175.8702940000000012
20
-98.5702939999999899
11
175.9481559999999831
21
-98.5182689999999894
0
LINE
8
BLACK
6
CONTINUOUS
10
175.9481559999999831
20
-98.5182689999999894
11
176.039999999999992
21
-98.5
0
LINE
8
BLACK
6
CONTINUOUS
10
176.039999999999992
20
-98.5
11
178.0600000000000023
21
-98.5
0
LINE
8
BLACK
6
CONTINUOUS
10
178.0600000000000023
20
-98.5
11
178.1518439999999828
21
-98.5182689999999894
0
LINE
8
BLACK
6
CONTINUOUS
10
198.6899999999999977
20
-99.1400000000000006
11
197.6899999999999977
21
-99.1400000000000006
0
LINE
8
BLACK
6
CONTINUOUS
10
197.6899999999999977
20
-99.1400000000000006
11
197.6899999999999977
21
-96.6299999999999955
0
LINE
8
BLACK
6
CONTINUOUS
10
197.6899999999999977
20
-96.6299999999999955
11
198.6899999999999977
21
-96.6299999999999955
0
LINE
8
BLACK
6
CONTINUOUS
10
198.6899999999999977
20
-96.6299999999999955
11
198.6899999999999977
21
-99.1400000000000006
0
LINE
8
BLACK
6
CONTINUOUS
10
203.7699999999999818
20
-99.1400000000000006
11
202.7699999999999818
21
-99.1400000000000006
0
LINE
8
BLACK
6
CONTINUOUS
10
202.7699999999999818
20
-99.1400000000000006
11
202.7699999999999818
21
-96.6299999999999955
0
LINE
8
BLACK
6
CONTINUOUS
10
202.7699999999999818
20
-96.6299999999999955
11
203.7699999999999818
21
-96.6299999999999955
0
LINE
8
BLACK
6
CONTINUOUS
10
203.7699999999999818
20
-96.6299999999999955
11
203.7699999999999818
21
-99.1400000000000006
0
LINE
8
BLACK
6
CONTINUOUS
10
178.1518439999999828
20
-96.0182689999999894
11
178.2297059999999931
21
-96.0702939999999899
0
LINE
8
BLACK
6
CONTINUOUS
10
178.2297059999999931
20
-96.0702939999999899
11
178.2817309999999793
21
-96.1481560000000002
0
LINE
8
BLACK
6
CONTINUOUS
10
178.2817309999999793
20
-96.1481560000000002
11
178.2999999999999829
21
-96.2399999999999949
0
LINE
8
BLACK
6
CONTINUOUS
10
178.2999999999999829
20
-96.2399999999999949
11
178.2999999999999829
21
-96.9599999999999937
0
LINE
8
BLACK
6
CONTINUOUS
10
178.2999999999999829
20
-96.9599999999999937
11
178.2817309999999793
21
-97.0518440000000027
0
LINE
8
BLACK
6
CONTINUOUS
10
178.2817309999999793
20
-97.0518440000000027
11
178.2297059999999931
21
-97.1297059999999988
0
LINE
8
BLACK
6
CONTINUOUS
10
178.2297059999999931
20
-97.1297059999999988
11
178.1518439999999828
21
-97.1817309999999992
0
LINE
8
BLACK
6
CONTINUOUS
10
178.1518439999999828
20
-97.1817309999999992
11
178.0600000000000023
21
-97.1999999999999886
0
LINE
8
BLACK
6
CONTINUOUS
10
178.0600000000000023
20
-97.1999999999999886
11
176.039999999999992
21
-97.1999999999999886
0
LINE
8
BLACK
6
CONTINUOUS
10
176.039999999999992
20
-97.1999999999999886
11
175.9481559999999831
21
-97.1817309999999992
0
LINE
8
BLACK
6
CONTINUOUS
10
175.9481559999999831
20
-97.1817309999999992
11
175.8702940000000012
21
-97.1297059999999988
0
LINE
8
BLACK
6
CONTINUOUS
10
175.8702940000000012
20
-97.1297059999999988
11
175.8182689999999866
21
-97.0518440000000027
0
LINE
8
BLACK
6
CONTINUOUS
10
175.8182689999999866
20
-97.0518440000000027
11
175.7999999999999829
21
-96.9599999999999937
0
LINE
8
BLACK
6
CONTINUOUS
10
175.7999999999999829
20
-96.9599999999999937
11
175.7999999999999829
21
-96.2399999999999949
0
LINE
8
BLACK
6
CONTINUOUS
10
175.7999999999999829
20
-96.2399999999999949
11
175.8182689999999866
21
-96.1481560000000002
0
LINE
8
BLACK
6
CONTINUOUS
10
175.8182689999999866
20
-96.1481560000000002
11
175.8702940000000012
21
-96.0702939999999899
0
LINE
8
BLACK
6
CONTINUOUS
10
175.8702940000000012
20
-96.0702939999999899
11
175.9481559999999831
21
-96.0182689999999894
0
LINE
8
BLACK
6
CONTINUOUS
10
175.9481559999999831
20
-96.0182689999999894
11
176.039999999999992
21
-96.
0
LINE
8
BLACK
6
CONTINUOUS
10
176.039999999999992
20
-96.
11
178.0600000000000023
21
-96.
0
LINE
8
BLACK
6
CONTINUOUS
10
178.0600000000000023
20
-96.
11
178.1518439999999828
21
-96.0182689999999894
0
LINE
8
BLACK
6
CONTINUOUS
10
209.2599999999999909
20
-96.5699999999999932
11
207.8599999999999852
21
-96.5699999999999932
0
LINE
8
BLACK
6
CONTINUOUS
10
207.8599999999999852
20
-96.5699999999999932
11
207.8599999999999852
21
-94.1700000000000017
0
LINE
8
BLACK
6
CONTINUOUS
10
207.8599999999999852
20
-94.1700000000000017
11
209.2599999999999909
21
-94.1700000000000017
0
LINE
8
BLACK
6
CONTINUOUS
10
209.2599999999999909
20
-94.1700000000000017
11
209.2599999999999909
21
-96.5699999999999932
0
LINE
8
BLACK
6
CONTINUOUS
10
211.7999999999999829
20
-96.5699999999999932
11
210.3999999999999773
21
-96.5699999999999932
0
LINE
8
BLACK
6
CONTINUOUS
10
210.3999999999999773
20
-96.5699999999999932
11
210.3999999999999773
21
-94.1700000000000017
0
LINE
8
BLACK
6
CONTINUOUS
10
210.3999999999999773
20
-94.1700000000000017
11
211.7999999999999829
21
-94.1700000000000017
0
LINE
8
BLACK
6
CONTINUOUS
10
211.7999999999999829
20
-94.1700000000000017
11
211.7999999999999829
21
-96.5699999999999932
0
LINE
8
BLACK
6
CONTINUOUS
10
214.3400000000000034
20
-96.5699999999999932
11
212.9399999999999977
21
-96.5699999999999932
0
LINE
8
BLACK
6
CONTINUOUS
10
212.9399999999999977
20
-96.5699999999999932
11
212.9399999999999977
21
-94.1700000000000017
0
LINE
8
BLACK
6
CONTINUOUS
10
212.9399999999999977
20
-94.1700000000000017
11
214.3400000000000034
21
-94.1700000000000017
0
LINE
8
BLACK
6
CONTINUOUS
10
214.3400000000000034
20
-94.1700000000000017
11
214.3400000000000034
21
-96.5699999999999932
0
LINE
8
BLACK
6
CONTINUOUS
10
216.8799999999999955
20
-96.5699999999999932
11
215.4799999999999898
21
-96.5699999999999932
0
LINE
8
BLACK
6
CONTINUOUS
10
215.4799999999999898
20
-96.5699999999999932
11
215.4799999999999898
21
-94.1700000000000017
0
LINE
8
BLACK
6
CONTINUOUS
10
215.4799999999999898
20
-94.1700000000000017
11
216.8799999999999955
21
-94.1700000000000017
0
LINE
8
BLACK
6
CONTINUOUS
10
216.8799999999999955
20
-94.1700000000000017
11
216.8799999999999955
21
-96.5699999999999932
0
LINE
8
BLACK
6
CONTINUOUS
10
219.4199999999999875
20
-96.5699999999999932
11
218.0199999999999818
21
-96.5699999999999932
0
LINE
8
BLACK
6
CONTINUOUS
10
218.0199999999999818
20
-96.5699999999999932
11
218.0199999999999818
21
-94.1700000000000017
0
LINE
8
BLACK
6
CONTINUOUS
10
218.0199999999999818
20
-94.1700000000000017
11
219.4199999999999875
21
-94.1700000000000017
0
LINE
8
BLACK
6
CONTINUOUS
10
219.4199999999999875
20
-94.1700000000000017
11
219.4199999999999875
21
-96.5699999999999932
0
LINE
8
BLACK
6
CONTINUOUS
10
221.9599999999999795
20
-96.5699999999999932
11
220.5600000000000023
21
-96.5699999999999932
0
LINE
8
BLACK
6
CONTINUOUS
10
220.5600000000000023
20
-96.5699999999999932
11
220.5600000000000023
21
-94.1700000000000017
0
LINE
8
BLACK
6
CONTINUOUS
10
220.5600000000000023
20
-94.1700000000000017
11
221.9599999999999795
21
-94.1700000000000017
0
LINE
8
BLACK
6
CONTINUOUS
10
221.9599999999999795
20
-94.1700000000000017
11
221.9599999999999795
21
-96.5699999999999932
0
LINE
8
BLACK
6
CONTINUOUS
10
224.5
20
-96.5699999999999932
11
223.0999999999999943
21
-96.5699999999999932
0
LINE
8
BLACK
6
CONTINUOUS
10
223.0999999999999943
20
-96.5699999999999932
11
223.0999999999999943
21
-94.1700000000000017
0
LINE
8
BLACK
6
CONTINUOUS
10
223.0999999999999943
20
-94.1700000000000017
11
224.5
21
-94.1700000000000017
0
LINE
8
BLACK
6
CONTINUOUS
10
224.5
20
-94.1700000000000017
11
224.5
21
-96.5699999999999932
0
LINE
8
BLACK
6
CONTINUOUS
10
227.039999999999992
20
-96.5699999999999932
11
225.6399999999999864
21
-96.5699999999999932
0
LINE
8
BLACK
6
CONTINUOUS
10
225.6399999999999864
20
-96.5699999999999932
11
225.6399999999999864
21
-94.1700000000000017
0
LINE
8
BLACK
6
CONTINUOUS
10
225.6399999999999864
20
-94.1700000000000017
11
227.039999999999992
21
-94.1700000000000017
0
LINE
8
BLACK
6
CONTINUOUS
10
227.039999999999992
20
-94.1700000000000017
11
227.039999999999992
21
-96.5699999999999932
0
LINE
8
BLACK
6
CONTINUOUS
10
229.5799999999999841
20
-96.5699999999999932
11
228.1799999999999784
21
-96.5699999999999932
0
LINE
8
BLACK
6
CONTINUOUS
10
228.1799999999999784
20
-96.5699999999999932
11
228.1799999999999784
21
-94.1700000000000017
0
LINE
8
BLACK
6
CONTINUOUS
10
228.1799999999999784
20
-94.1700000000000017
11
229.5799999999999841
21
-94.1700000000000017
0
LINE
8
BLACK
6
CONTINUOUS
10
229.5799999999999841
20
-94.1700000000000017
11
229.5799999999999841
21
-96.5699999999999932
0
LINE
8
BLACK
6
CONTINUOUS
10
178.1518439999999828
20
-93.5182689999999894
11
178.2297059999999931
21
-93.5702939999999899
0
LINE
8
BLACK
6
CONTINUOUS
10
178.2297059999999931
20
-93.5702939999999899
11
178.2817309999999793
21
-93.6481560000000002
0
LINE
8
BLACK
6
CONTINUOUS
10
178.2817309999999793
20
-93.6481560000000002
11
178.2999999999999829
21
-93.7399999999999949
0
LINE
8
BLACK
6
CONTINUOUS
10
178.2999999999999829
20
-93.7399999999999949
11
178.2999999999999829
21
-94.4599999999999937
0
LINE
8
BLACK
6
CONTINUOUS
10
178.2999999999999829
20
-94.4599999999999937
11
178.2817309999999793
21
-94.5518440000000027
0
LINE
8
BLACK
6
CONTINUOUS
10
178.2817309999999793
20
-94.5518440000000027
11
178.2297059999999931
21
-94.6297059999999988
0
LINE
8
BLACK
6
CONTINUOUS
10
178.2297059999999931
20
-94.6297059999999988
11
178.1518439999999828
21
-94.6817309999999992
0
LINE
8
BLACK
6
CONTINUOUS
10
178.1518439999999828
20
-94.6817309999999992
11
178.0600000000000023
21
-94.6999999999999886
0
LINE
8
BLACK
6
CONTINUOUS
10
178.0600000000000023
20
-94.6999999999999886
11
176.039999999999992
21
-94.6999999999999886
0
LINE
8
BLACK
6
CONTINUOUS
10
176.039999999999992
20
-94.6999999999999886
11
175.9481559999999831
21
-94.6817309999999992
0
LINE
8
BLACK
6
CONTINUOUS
10
175.9481559999999831
20
-94.6817309999999992
11
175.8702940000000012
21
-94.6297059999999988
0
LINE
8
BLACK
6
CONTINUOUS
10
175.8702940000000012
20
-94.6297059999999988
11
175.8182689999999866
21
-94.5518440000000027
0
LINE
8
BLACK
6
CONTINUOUS
10
175.8182689999999866
20
-94.5518440000000027
11
175.7999999999999829
21
-94.4599999999999937
0
LINE
8
BLACK
6
CONTINUOUS
10
175.7999999999999829
20
-94.4599999999999937
11
175.7999999999999829
21
-93.7399999999999949
0
LINE
8
BLACK
6
CONTINUOUS
10
175.7999999999999829
20
-93.7399999999999949
11
175.8182689999999866
21
-93.6481560000000002
0
LINE
8
BLACK
6
CONTINUOUS
10
175.8182689999999866
20
-93.6481560000000002
11
175.8702940000000012
21
-93.5702939999999899
0
LINE
8
BLACK
6
CONTINUOUS
10
175.8702940000000012
20
-93.5702939999999899
11
175.9481559999999831
21
-93.5182689999999894
0
LINE
8
BLACK
6
CONTINUOUS
10
175.9481559999999831
20
-93.5182689999999894
11
176.039999999999992
21
-93.5
0
LINE
8
BLACK
6
CONTINUOUS
10
176.039999999999992
20
-93.5
11
178.0600000000000023
21
-93.5
0
LINE
8
BLACK
6
CONTINUOUS
10
178.0600000000000023
20
-93.5
11
178.1518439999999828
21
-93.5182689999999894
0
LINE
8
BLACK
6
CONTINUOUS
10
180.2956709999999987
20
-89.2690300000000008
11
180.3767770000000041
21
-89.3232229999999987
0
LINE
8
BLACK
6
CONTINUOUS
10
180.3767770000000041
20
-89.3232229999999987
11
180.4309700000000021
21
-89.4043289999999899
0
LINE
8
BLACK
6
CONTINUOUS
10
180.4309700000000021
20
-89.4043289999999899
11
180.4499999999999886
21
-89.5
0
LINE
8
BLACK
6
CONTINUOUS
10
180.4499999999999886
20
-89.5
11
180.4499999999999886
21
-90.
0
LINE
8
BLACK
6
CONTINUOUS
10
180.4499999999999886
20
-90.
11
180.4309700000000021
21
-90.0956709999999958
0
LINE
8
BLACK
6
CONTINUOUS
10
180.4309700000000021
20
-90.0956709999999958
11
180.3767770000000041
21
-90.1767770000000013
0
LINE
8
BLACK
6
CONTINUOUS
10
180.3767770000000041
20
-90.1767770000000013
11
180.2956709999999987
21
-90.2309699999999992
0
LINE
8
BLACK
6
CONTINUOUS
10
180.2956709999999987
20
-90.2309699999999992
11
180.1999999999999886
21
-90.25
0
LINE
8
BLACK
6
CONTINUOUS
10
180.1999999999999886
20
-90.25
11
178.
21
-90.25
0
LINE
8
BLACK
6
CONTINUOUS
10
178.
20
-90.25
11
177.9043289999999899
21
-90.2309699999999992
0
LINE
8
BLACK
6
CONTINUOUS
10
177.9043289999999899
20
-90.2309699999999992
11
177.8232229999999845
21
-90.1767770000000013
0
LINE
8
BLACK
6
CONTINUOUS
10
177.8232229999999845
20
-90.1767770000000013
11
177.7690299999999866
21
-90.0956709999999958
0
LINE
8
BLACK
6
CONTINUOUS
10
177.7690299999999866
20
-90.0956709999999958
11
177.75
21
-90.
0
LINE
8
BLACK
6
CONTINUOUS
10
177.75
20
-90.
11
177.75
21
-89.5
0
LINE
8
BLACK
6
CONTINUOUS
10
177.75
20
-89.5
11
177.7690299999999866
21
-89.4043289999999899
0
LINE
8
BLACK
6
CONTINUOUS
10
177.7690299999999866
20
-89.4043289999999899
11
177.8232229999999845
21
-89.3232229999999987
0
LINE
8
BLACK
6
CONTINUOUS
10
177.8232229999999845
20
-89.3232229999999987
11
177.9043289999999899
21
-89.2690300000000008
0
LINE
8
BLACK
6
CONTINUOUS
10
177.9043289999999899
20
-89.2690300000000008
11
178.
21
-89.25
0
LINE
8
BLACK
6
CONTINUOUS
10
178.
20
-89.25
11
180.1999999999999886
21
-89.25
0
LINE
8
BLACK
6
CONTINUOUS
10
180.1999999999999886
20
-89.25
11
180.2956709999999987
21
-89.2690300000000008
0
LINE
8
BLACK
6
CONTINUOUS
10
229.7199999999999989
20
-88.7999999999999972
11
227.7199999999999989
21
-88.7999999999999972
0
LINE
8
BLACK
6
CONTINUOUS
10
227.7199999999999989
20
-88.7999999999999972
11
227.7199999999999989
21
-87.2000000000000028
0
LINE
8
BLACK
6
CONTINUOUS
10
227.7199999999999989
20
-87.2000000000000028
11
229.7199999999999989
21
-87.2000000000000028
0
LINE
8
BLACK
6
CONTINUOUS
10
229.7199999999999989
20
-87.2000000000000028
11
229.7199999999999989
21
-88.7999999999999972
0
LINE
8
BLACK
6
CONTINUOUS
10
176.657402999999988
20
-87.6114180000000005
11
176.7060659999999928
21
-87.6439340000000016
0
LINE
8
BLACK
6
CONTINUOUS
10
176.7060659999999928
20
-87.6439340000000016
11
176.7385819999999796
21
-87.6925969999999921
0
LINE
8
BLACK
6
CONTINUOUS
10
176.7385819999999796
20
-87.6925969999999921
11
176.75
21
-87.75
0
LINE
8
BLACK
6
CONTINUOUS
10
176.75
20
-87.75
11
176.75
21
-88.0499999999999972
0
LINE
8
BLACK
6
CONTINUOUS
10
176.75
20
-88.0499999999999972
11
176.7385819999999796
21
-88.1074029999999908
0
LINE
8
BLACK
6
CONTINUOUS
10
176.7385819999999796
20
-88.1074029999999908
11
176.7060659999999928
21
-88.1560659999999956
0
LINE
8
BLACK
6
CONTINUOUS
10
176.7060659999999928
20
-88.1560659999999956
11
176.657402999999988
21
-88.1885819999999967
0
LINE
8
BLACK
6
CONTINUOUS
10
176.657402999999988
20
-88.1885819999999967
11
176.5999999999999943
21
-88.2000000000000028
0
LINE
8
BLACK
6
CONTINUOUS
10
176.5999999999999943
20
-88.2000000000000028
11
175.1999999999999886
21
-88.2000000000000028
0
LINE
8
BLACK
6
CONTINUOUS
10
175.1999999999999886
20
-88.2000000000000028
11
175.142596999999995
21
-88.1885819999999967
0
LINE
8
BLACK
6
CONTINUOUS
10
175.142596999999995
20
-88.1885819999999967
11
175.0939339999999902
21
-88.1560659999999956
0
LINE
8
BLACK
6
CONTINUOUS
10
175.0939339999999902
20
-88.1560659999999956
11
175.0614180000000033
21
-88.1074029999999908
0
LINE
8
BLACK
6
CONTINUOUS
10
175.0614180000000033
20
-88.1074029999999908
11
175.0499999999999829
21
-88.0499999999999972
0
LINE
8
BLACK
6
CONTINUOUS
10
175.0499999999999829
20
-88.0499999999999972
11
175.0499999999999829
21
-87.75
0
LINE
8
BLACK
6
CONTINUOUS
10
175.0499999999999829
20
-87.75
11
175.0614180000000033
21
-87.6925969999999921
0
LINE
8
BLACK
6
CONTINUOUS
10
175.0614180000000033
20
-87.6925969999999921
11
175.0939339999999902
21
-87.6439340000000016
0
LINE
8
BLACK
6
CONTINUOUS
10
175.0939339999999902
20
-87.6439340000000016
11
175.142596999999995
21
-87.6114180000000005
0
LINE
8
BLACK
6
CONTINUOUS
10
175.142596999999995
20
-87.6114180000000005
11
175.1999999999999886
21
-87.5999999999999943
0
LINE
8
BLACK
6
CONTINUOUS
10
175.1999999999999886
20
-87.5999999999999943
11
176.5999999999999943
21
-87.5999999999999943
0
LINE
8
BLACK
6
CONTINUOUS
10
176.5999999999999943
20
-87.5999999999999943
11
176.657402999999988
21
-87.6114180000000005
0
LINE
8
BLACK
6
CONTINUOUS
10
176.657402999999988
20
-86.3614180000000005
11
176.7060659999999928
21
-86.3939340000000016
0
LINE
8
BLACK
6
CONTINUOUS
10
176.7060659999999928
20
-86.3939340000000016
11
176.7385819999999796
21
-86.4425969999999921
0
LINE
8
BLACK
6
CONTINUOUS
10
176.7385819999999796
20
-86.4425969999999921
11
176.75
21
-86.5
0
LINE
8
BLACK
6
CONTINUOUS
10
176.75
20
-86.5
11
176.75
21
-86.7999999999999972
0
LINE
8
BLACK
6
CONTINUOUS
10
176.75
20
-86.7999999999999972
11
176.7385819999999796
21
-86.8574029999999908
0
LINE
8
BLACK
6
CONTINUOUS
10
176.7385819999999796
20
-86.8574029999999908
11
176.7060659999999928
21
-86.9060659999999956
0
LINE
8
BLACK
6
CONTINUOUS
10
176.7060659999999928
20
-86.9060659999999956
11
176.657402999999988
21
-86.9385819999999967
0
LINE
8
BLACK
6
CONTINUOUS
10
176.657402999999988
20
-86.9385819999999967
11
176.5999999999999943
21
-86.9500000000000028
0
LINE
8
BLACK
6
CONTINUOUS
10
176.5999999999999943
20
-86.9500000000000028
11
175.1999999999999886
21
-86.9500000000000028
0
LINE
8
BLACK
6
CONTINUOUS
10
175.1999999999999886
20
-86.9500000000000028
11
175.142596999999995
21
-86.9385819999999967
0
LINE
8
BLACK
6
CONTINUOUS
10
175.142596999999995
20
-86.9385819999999967
11
175.0939339999999902
21
-86.9060659999999956
0
LINE
8
BLACK
6
CONTINUOUS
10
175.0939339999999902
20
-86.9060659999999956
11
175.0614180000000033
21
-86.8574029999999908
0
LINE
8
BLACK
6
CONTINUOUS
10
175.0614180000000033
20
-86.8574029999999908
11
175.0499999999999829
21
-86.7999999999999972
0
LINE
8
BLACK
6
CONTINUOUS
10
175.0499999999999829
20
-86.7999999999999972
11
175.0499999999999829
21
-86.5
0
LINE
8
BLACK
6
CONTINUOUS
10
175.0499999999999829
20
-86.5
11
175.0614180000000033
21
-86.4425969999999921
0
LINE
8
BLACK
6
CONTINUOUS
10
175.0614180000000033
20
-86.4425969999999921
11
175.0939339999999902
21
-86.3939340000000016
0
LINE
8
BLACK
6
CONTINUOUS
10
175.0939339999999902
20
-86.3939340000000016
11
175.142596999999995
21
-86.3614180000000005
0
LINE
8
BLACK
6
CONTINUOUS
10
175.142596999999995
20
-86.3614180000000005
11
175.1999999999999886
21
-86.3499999999999943
0
LINE
8
BLACK
6
CONTINUOUS
10
175.1999999999999886
20
-86.3499999999999943
11
176.5999999999999943
21
-86.3499999999999943
0
LINE
8
BLACK
6
CONTINUOUS
10
176.5999999999999943
20
-86.3499999999999943
11
176.657402999999988
21
-86.3614180000000005
0
LINE
8
BLACK
6
CONTINUOUS
10
229.7199999999999989
20
-85.5999999999999943
11
227.7199999999999989
21
-85.5999999999999943
0
LINE
8
BLACK
6
CONTINUOUS
10
227.7199999999999989
20
-85.5999999999999943
11
227.7199999999999989
21
-84.
0
LINE
8
BLACK
6
CONTINUOUS
10
227.7199999999999989
20
-84.
11
229.7199999999999989
21
-84.
0
LINE
8
BLACK
6
CONTINUOUS
10
229.7199999999999989
20
-84.
11
229.7199999999999989
21
-85.5999999999999943
0
LINE
8
BLACK
6
CONTINUOUS
10
180.2956709999999987
20
-84.3190299999999979
11
180.3767770000000041
21
-84.3732229999999959
0
LINE
8
BLACK
6
CONTINUOUS
10
180.3767770000000041
20
-84.3732229999999959
11
180.4309700000000021
21
-84.4543290000000013
0
LINE
8
BLACK
6
CONTINUOUS
10
180.4309700000000021
20
-84.4543290000000013
11
180.4499999999999886
21
-84.5499999999999972
0
LINE
8
BLACK
6
CONTINUOUS
10
180.4499999999999886
20
-84.5499999999999972
11
180.4499999999999886
21
-85.0499999999999972
0
LINE
8
BLACK
6
CONTINUOUS
10
180.4499999999999886
20
-85.0499999999999972
11
180.4309700000000021
21
-85.145670999999993
0
LINE
8
BLACK
6
CONTINUOUS
10
180.4309700000000021
20
-85.145670999999993
11
180.3767770000000041
21
-85.2267769999999985
0
LINE
8
BLACK
6
CONTINUOUS
10
180.3767770000000041
20
-85.2267769999999985
11
180.2956709999999987
21
-85.2809699999999964
0
LINE
8
BLACK
6
CONTINUOUS
10
180.2956709999999987
20
-85.2809699999999964
11
180.1999999999999886
21
-85.2999999999999972
0
LINE
8
BLACK
6
CONTINUOUS
10
180.1999999999999886
20
-85.2999999999999972
11
178.
21
-85.2999999999999972
0
LINE
8
BLACK
6
CONTINUOUS
10
178.
20
-85.2999999999999972
11
177.9043289999999899
21
-85.2809699999999964
0
LINE
8
BLACK
6
CONTINUOUS
10
177.9043289999999899
20
-85.2809699999999964
11
177.8232229999999845
21
-85.2267769999999985
0
LINE
8
BLACK
6
CONTINUOUS
10
177.8232229999999845
20
-85.2267769999999985
11
177.7690299999999866
21
-85.145670999999993
0
LINE
8
BLACK
6
CONTINUOUS
10
177.7690299999999866
20
-85.145670999999993
11
177.75
21
-85.0499999999999972
0
LINE
8
BLACK
6
CONTINUOUS
10
177.75
20
-85.0499999999999972
11
177.75
21
-84.5499999999999972
0
LINE
8
BLACK
6
CONTINUOUS
10
177.75
20
-84.5499999999999972
11
177.7690299999999866
21
-84.4543290000000013
0
LINE
8
BLACK
6
CONTINUOUS
10
177.7690299999999866
20
-84.4543290000000013
11
177.8232229999999845
21
-84.3732229999999959
0
LINE
8
BLACK
6
CONTINUOUS
10
177.8232229999999845
20
-84.3732229999999959
11
177.9043289999999899
21
-84.3190299999999979
0
LINE
8
BLACK
6
CONTINUOUS
10
177.9043289999999899
20
-84.3190299999999979
11
178.
21
-84.2999999999999972
0
LINE
8
BLACK
6
CONTINUOUS
10
178.
20
-84.2999999999999972
11
180.1999999999999886
21
-84.2999999999999972
0
LINE
8
BLACK
6
CONTINUOUS
10
180.1999999999999886
20
-84.2999999999999972
11
180.2956709999999987
21
-84.3190299999999979
0
LINE
8
BLACK
6
CONTINUOUS
10
175.125
20
-82.4249999999999972
11
174.125
21
-82.4249999999999972
0
LINE
8
BLACK
6
CONTINUOUS
10
174.125
20
-82.4249999999999972
11
174.125
21
-80.875
0
LINE
8
BLACK
6
CONTINUOUS
10
174.125
20
-80.875
11
175.125
21
-80.875
0
LINE
8
BLACK
6
CONTINUOUS
10
175.125
20
-80.875
11
175.125
21
-82.4249999999999972
0
LINE
8
BLACK
6
CONTINUOUS
10
176.8249999999999886
20
-82.4249999999999972
11
175.8249999999999886
21
-82.4249999999999972
0
LINE
8
BLACK
6
CONTINUOUS
10
175.8249999999999886
20
-82.4249999999999972
11
175.8249999999999886
21
-80.875
0
LINE
8
BLACK
6
CONTINUOUS
10
175.8249999999999886
20
-80.875
11
176.8249999999999886
21
-80.875
0
LINE
8
BLACK
6
CONTINUOUS
10
176.8249999999999886
20
-80.875
11
176.8249999999999886
21
-82.4249999999999972
0
LINE
8
BLACK
6
CONTINUOUS
10
209.2599999999999909
20
-78.6299999999999955
11
207.8599999999999852
21
-78.6299999999999955
0
LINE
8
BLACK
6
CONTINUOUS
10
207.8599999999999852
20
-78.6299999999999955
11
207.8599999999999852
21
-76.2299999999999898
0
LINE
8
BLACK
6
CONTINUOUS
10
207.8599999999999852
20
-76.2299999999999898
11
209.2599999999999909
21
-76.2299999999999898
0
LINE
8
BLACK
6
CONTINUOUS
10
209.2599999999999909
20
-76.2299999999999898
11
209.2599999999999909
21
-78.6299999999999955
0
LINE
8
BLACK
6
CONTINUOUS
10
211.7999999999999829
20
-78.6299999999999955
11
210.3999999999999773
21
-78.6299999999999955
0
LINE
8
BLACK
6
CONTINUOUS
10
210.3999999999999773
20
-78.6299999999999955
11
210.3999999999999773
21
-76.2299999999999898
0
LINE
8
BLACK
6
CONTINUOUS
10
210.3999999999999773
20
-76.2299999999999898
11
211.7999999999999829
21
-76.2299999999999898
0
LINE
8
BLACK
6
CONTINUOUS
10
211.7999999999999829
20
-76.2299999999999898
11
211.7999999999999829
21
-78.6299999999999955
0
LINE
8
BLACK
6
CONTINUOUS
10
214.3400000000000034
20
-78.6299999999999955
11
212.9399999999999977
21
-78.6299999999999955
0
LINE
8
BLACK
6
CONTINUOUS
10
212.9399999999999977
20
-78.6299999999999955
11
212.9399999999999977
21
-76.2299999999999898
0
LINE
8
BLACK
6
CONTINUOUS
10
212.9399999999999977
20
-76.2299999999999898
11
214.3400000000000034
21
-76.2299999999999898
0
LINE
8
BLACK
6
CONTINUOUS
10
214.3400000000000034
20
-76.2299999999999898
11
214.3400000000000034
21
-78.6299999999999955
0
LINE
8
BLACK
6
CONTINUOUS
10
216.8799999999999955
20
-78.6299999999999955
11
215.4799999999999898
21
-78.6299999999999955
0
LINE
8
BLACK
6
CONTINUOUS
10
215.4799999999999898
20
-78.6299999999999955
11
215.4799999999999898
21
-76.2299999999999898
0
LINE
8
BLACK
6
CONTINUOUS
10
215.4799999999999898
20
-76.2299999999999898
11
216.8799999999999955
21
-76.2299999999999898
0
LINE
8
BLACK
6
CONTINUOUS
10
216.8799999999999955
20
-76.2299999999999898
11
216.8799999999999955
21
-78.6299999999999955
0
LINE
8
BLACK
6
CONTINUOUS
10
219.4199999999999875
20
-78.6299999999999955
11
218.0199999999999818
21
-78.6299999999999955
0
LINE
8
BLACK
6
CONTINUOUS
10
218.0199999999999818
20
-78.6299999999999955
11
218.0199999999999818
21
-76.2299999999999898
0
LINE
8
BLACK
6
CONTINUOUS
10
218.0199999999999818
20
-76.2299999999999898
11
219.4199999999999875
21
-76.2299999999999898
0
LINE
8
BLACK
6
CONTINUOUS
10
219.4199999999999875
20
-76.2299999999999898
11
219.4199999999999875
21
-78.6299999999999955
0
LINE
8
BLACK
6
CONTINUOUS
10
221.9599999999999795
20
-78.6299999999999955
11
220.5600000000000023
21
-78.6299999999999955
0
LINE
8
BLACK
6
CONTINUOUS
10
220.5600000000000023
20
-78.6299999999999955
11
220.5600000000000023
21
-76.2299999999999898
0
LINE
8
BLACK
6
CONTINUOUS
10
220.5600000000000023
20
-76.2299999999999898
11
221.9599999999999795
21
-76.2299999999999898
0
LINE
8
BLACK
6
CONTINUOUS
10
221.9599999999999795
20
-76.2299999999999898
11
221.9599999999999795
21
-78.6299999999999955
0
LINE
8
BLACK
6
CONTINUOUS
10
224.5
20
-78.6299999999999955
11
223.0999999999999943
21
-78.6299999999999955
0
LINE
8
BLACK
6
CONTINUOUS
10
223.0999999999999943
20
-78.6299999999999955
11
223.0999999999999943
21
-76.2299999999999898
0
LINE
8
BLACK
6
CONTINUOUS
10
223.0999999999999943
20
-76.2299999999999898
11
224.5
21
-76.2299999999999898
0
LINE
8
BLACK
6
CONTINUOUS
10
224.5
20
-76.2299999999999898
11
224.5
21
-78.6299999999999955
0
LINE
8
BLACK
6
CONTINUOUS
10
227.039999999999992
20
-78.6299999999999955
11
225.6399999999999864
21
-78.6299999999999955
0
LINE
8
BLACK
6
CONTINUOUS
10
225.6399999999999864
20
-78.6299999999999955
11
225.6399999999999864
21
-76.2299999999999898
0
LINE
8
BLACK
6
CONTINUOUS
10
225.6399999999999864
20
-76.2299999999999898
11
227.039999999999992
21
-76.2299999999999898
0
LINE
8
BLACK
6
CONTINUOUS
10
227.039999999999992
20
-76.2299999999999898
11
227.039999999999992
21
-78.6299999999999955
0
LINE
8
BLACK
6
CONTINUOUS
10
229.5799999999999841
20
-78.6299999999999955
11
228.1799999999999784
21
-78.6299999999999955
0
LINE
8
BLACK
6
CONTINUOUS
10
228.1799999999999784
20
-78.6299999999999955
11
228.1799999999999784
21
-76.2299999999999898
0
LINE
8
BLACK
6
CONTINUOUS
10
228.1799999999999784
20
-76.2299999999999898
11
229.5799999999999841
21
-76.2299999999999898
0
LINE
8
BLACK
6
CONTINUOUS
10
229.5799999999999841
20
-76.2299999999999898
11
229.5799999999999841
21
-78.6299999999999955
0
LINE
8
BLACK
6
CONTINUOUS
10
175.125
20
-77.1749999999999972
11
174.125
21
-77.1749999999999972
0
LINE
8
BLACK
6
CONTINUOUS
10
174.125
20
-77.1749999999999972
11
174.125
21
-75.625
0
LINE
8
BLACK
6
CONTINUOUS
10
174.125
20
-75.625
11
175.125
21
-75.625
0
LINE
8
BLACK
6
CONTINUOUS
10
175.125
20
-75.625
11
175.125
21
-77.1749999999999972
0
LINE
8
BLACK
6
CONTINUOUS
10
176.8249999999999886
20
-77.1749999999999972
11
175.8249999999999886
21
-77.1749999999999972
0
LINE
8
BLACK
6
CONTINUOUS
10
175.8249999999999886
20
-77.1749999999999972
11
175.8249999999999886
21
-75.625
0
LINE
8
BLACK
6
CONTINUOUS
10
175.8249999999999886
20
-75.625
11
176.8249999999999886
21
-75.625
0
LINE
8
BLACK
6
CONTINUOUS
10
176.8249999999999886
20
-75.625
11
176.8249999999999886
21
-77.1749999999999972
0
LINE
8
BLACK
6
CONTINUOUS
10
176.8499999999999943
20
-72.1499999999999915
11
175.2999999999999829
21
-72.1499999999999915
0
LINE
8
BLACK
6
CONTINUOUS
10
175.2999999999999829
20
-72.1499999999999915
11
175.2999999999999829
21
-71.1499999999999915
0
LINE
8
BLACK
6
CONTINUOUS
10
175.2999999999999829
20
-71.1499999999999915
11
176.8499999999999943
21
-71.1499999999999915
0
LINE
8
BLACK
6
CONTINUOUS
10
176.8499999999999943
20
-71.1499999999999915
11
176.8499999999999943
21
-72.1499999999999915
0
LINE
8
BLACK
6
CONTINUOUS
10
182.0999999999999943
20
-72.1499999999999915
11
180.5499999999999829
21
-72.1499999999999915
0
LINE
8
BLACK
6
CONTINUOUS
10
180.5499999999999829
20
-72.1499999999999915
11
180.5499999999999829
21
-71.1499999999999915
0
LINE
8
BLACK
6
CONTINUOUS
10
180.5499999999999829
20
-71.1499999999999915
11
182.0999999999999943
21
-71.1499999999999915
0
LINE
8
BLACK
6
CONTINUOUS
10
182.0999999999999943
20
-71.1499999999999915
11
182.0999999999999943
21
-72.1499999999999915
0
LINE
8
BLACK
6
CONTINUOUS
10
191.8499999999999943
20
-72.1499999999999915
11
190.2999999999999829
21
-72.1499999999999915
0
LINE
8
BLACK
6
CONTINUOUS
10
190.2999999999999829
20
-72.1499999999999915
11
190.2999999999999829
21
-71.1499999999999915
0
LINE
8
BLACK
6
CONTINUOUS
10
190.2999999999999829
20
-71.1499999999999915
11
191.8499999999999943
21
-71.1499999999999915
0
LINE
8
BLACK
6
CONTINUOUS
10
191.8499999999999943
20
-71.1499999999999915
11
191.8499999999999943
21
-72.1499999999999915
0
LINE
8
BLACK
6
CONTINUOUS
10
197.0999999999999943
20
-72.1499999999999915
11
195.5499999999999829
21
-72.1499999999999915
0
LINE
8
BLACK
6
CONTINUOUS
10
195.5499999999999829
20
-72.1499999999999915
11
195.5499999999999829
21
-71.1499999999999915
0
LINE
8
BLACK
6
CONTINUOUS
10
195.5499999999999829
20
-71.1499999999999915
11
197.0999999999999943
21
-71.1499999999999915
0
LINE
8
BLACK
6
CONTINUOUS
10
197.0999999999999943
20
-71.1499999999999915
11
197.0999999999999943
21
-72.1499999999999915
0
LINE
8
BLACK
6
CONTINUOUS
10
208.3999999999999773
20
-72.1499999999999915
11
206.8499999999999943
21
-72.1499999999999915
0
LINE
8
BLACK
6
CONTINUOUS
10
206.8499999999999943
20
-72.1499999999999915
11
206.8499999999999943
21
-71.1499999999999915
0
LINE
8
BLACK
6
CONTINUOUS
10
206.8499999999999943
20
-71.1499999999999915
11
208.3999999999999773
21
-71.1499999999999915
0
LINE
8
BLACK
6
CONTINUOUS
10
208.3999999999999773
20
-71.1499999999999915
11
208.3999999999999773
21
-72.1499999999999915
0
LINE
8
BLACK
6
CONTINUOUS
10
213.6499999999999773
20
-72.1499999999999915
11
212.0999999999999943
21
-72.1499999999999915
0
LINE
8
BLACK
6
CONTINUOUS
10
212.0999999999999943
20
-72.1499999999999915
11
212.0999999999999943
21
-71.1499999999999915
0
LINE
8
BLACK
6
CONTINUOUS
10
212.0999999999999943
20
-71.1499999999999915
11
213.6499999999999773
21
-71.1499999999999915
0
LINE
8
BLACK
6
CONTINUOUS
10
213.6499999999999773
20
-71.1499999999999915
11
213.6499999999999773
21
-72.1499999999999915
0
LINE
8
BLACK
6
CONTINUOUS
10
223.4499999999999886
20
-72.1499999999999915
11
221.8999999999999773
21
-72.1499999999999915
0
LINE
8
BLACK
6
CONTINUOUS
10
221.8999999999999773
20
-72.1499999999999915
11
221.8999999999999773
21
-71.1499999999999915
0
LINE
8
BLACK
6
CONTINUOUS
10
221.8999999999999773
20
-71.1499999999999915
11
223.4499999999999886
21
-71.1499999999999915
0
LINE
8
BLACK
6
CONTINUOUS
10
223.4499999999999886
20
-71.1499999999999915
11
223.4499999999999886
21
-72.1499999999999915
0
LINE
8
BLACK
6
CONTINUOUS
10
228.6999999999999886
20
-72.1499999999999915
11
227.1499999999999773
21
-72.1499999999999915
0
LINE
8
BLACK
6
CONTINUOUS
10
227.1499999999999773
20
-72.1499999999999915
11
227.1499999999999773
21
-71.1499999999999915
0
LINE
8
BLACK
6
CONTINUOUS
10
227.1499999999999773
20
-71.1499999999999915
11
228.6999999999999886
21
-71.1499999999999915
0
LINE
8
BLACK
6
CONTINUOUS
10
228.6999999999999886
20
-71.1499999999999915
11
228.6999999999999886
21
-72.1499999999999915
0
LINE
8
BLACK
6
CONTINUOUS
10
176.8499999999999943
20
-70.4500000000000028
11
175.2999999999999829
21
-70.4500000000000028
0
LINE
8
BLACK
6
CONTINUOUS
10
175.2999999999999829
20
-70.4500000000000028
11
175.2999999999999829
21
-69.4500000000000028
0
LINE
8
BLACK
6
CONTINUOUS
10
175.2999999999999829
20
-69.4500000000000028
11
176.8499999999999943
21
-69.4500000000000028
0
LINE
8
BLACK
6
CONTINUOUS
10
176.8499999999999943
20
-69.4500000000000028
11
176.8499999999999943
21
-70.4500000000000028
0
LINE
8
BLACK
6
CONTINUOUS
10
182.0999999999999943
20
-70.4500000000000028
11
180.5499999999999829
21
-70.4500000000000028
0
LINE
8
BLACK
6
CONTINUOUS
10
180.5499999999999829
20
-70.4500000000000028
11
180.5499999999999829
21
-69.4500000000000028
0
LINE
8
BLACK
6
CONTINUOUS
10
180.5499999999999829
20
-69.4500000000000028
11
182.0999999999999943
21
-69.4500000000000028
0
LINE
8
BLACK
6
CONTINUOUS
10
182.0999999999999943
20
-69.4500000000000028
11
182.0999999999999943
21
-70.4500000000000028
0
LINE
8
BLACK
6
CONTINUOUS
10
191.8499999999999943
20
-70.4500000000000028
11
190.2999999999999829
21
-70.4500000000000028
0
LINE
8
BLACK
6
CONTINUOUS
10
190.2999999999999829
20
-70.4500000000000028
11
190.2999999999999829
21
-69.4500000000000028
0
LINE
8
BLACK
6
CONTINUOUS
10
190.2999999999999829
20
-69.4500000000000028
11
191.8499999999999943
21
-69.4500000000000028
0
LINE
8
BLACK
6
CONTINUOUS
10
191.8499999999999943
20
-69.4500000000000028
11
191.8499999999999943
21
-70.4500000000000028
0
LINE
8
BLACK
6
CONTINUOUS
10
197.0999999999999943
20
-70.4500000000000028
11
195.5499999999999829
21
-70.4500000000000028
0
LINE
8
BLACK
6
CONTINUOUS
10
195.5499999999999829
20
-70.4500000000000028
11
195.5499999999999829
21
-69.4500000000000028
0
LINE
8
BLACK
6
CONTINUOUS
10
195.5499999999999829
20
-69.4500000000000028
11
197.0999999999999943
21
-69.4500000000000028
0
LINE
8
BLACK
6
CONTINUOUS
10
197.0999999999999943
20
-69.4500000000000028
11
197.0999999999999943
21
-70.4500000000000028
0
LINE
8
BLACK
6
CONTINUOUS
10
208.3999999999999773
20
-70.4500000000000028
11
206.8499999999999943
21
-70.4500000000000028
0
LINE
8
BLACK
6
CONTINUOUS
10
206.8499999999999943
20
-70.4500000000000028
11
206.8499999999999943
21
-69.4500000000000028
0
LINE
8
BLACK
6
CONTINUOUS
10
206.8499999999999943
20
-69.4500000000000028
11
208.3999999999999773
21
-69.4500000000000028
0
LINE
8
BLACK
6
CONTINUOUS
10
208.3999999999999773
20
-69.4500000000000028
11
208.3999999999999773
21
-70.4500000000000028
0
LINE
8
BLACK
6
CONTINUOUS
10
213.6499999999999773
20
-70.4500000000000028
11
212.0999999999999943
21
-70.4500000000000028
0
LINE
8
BLACK
6
CONTINUOUS
10
212.0999999999999943
20
-70.4500000000000028
11
212.0999999999999943
21
-69.4500000000000028
0
LINE
8
BLACK
6
CONTINUOUS
10
212.0999999999999943
20
-69.4500000000000028
11
213.6499999999999773
21
-69.4500000000000028
0
LINE
8
BLACK
6
CONTINUOUS
10
213.6499999999999773
20
-69.4500000000000028
11
213.6499999999999773
21
-70.4500000000000028
0
LINE
8
BLACK
6
CONTINUOUS
10
223.4499999999999886
20
-70.4500000000000028
11
221.8999999999999773
21
-70.4500000000000028
0
LINE
8
BLACK
6
CONTINUOUS
10
221.8999999999999773
20
-70.4500000000000028
11
221.8999999999999773
21
-69.4500000000000028
0
LINE
8
BLACK
6
CONTINUOUS
10
221.8999999999999773
20
-69.4500000000000028
11
223.4499999999999886
21
-69.4500000000000028
0
LINE
8
BLACK
6
CONTINUOUS
10
223.4499999999999886
20
-69.4500000000000028
11
223.4499999999999886
21
-70.4500000000000028
0
LINE
8
BLACK
6
CONTINUOUS
10
228.6999999999999886
20
-70.4500000000000028
11
227.1499999999999773
21
-70.4500000000000028
0
LINE
8
BLACK
6
CONTINUOUS
10
227.1499999999999773
20
-70.4500000000000028
11
227.1499999999999773
21
-69.4500000000000028
0
LINE
8
BLACK
6
CONTINUOUS
10
227.1499999999999773
20
-69.4500000000000028
11
228.6999999999999886
21
-69.4500000000000028
0
LINE
8
BLACK
6
CONTINUOUS
10
228.6999999999999886
20
-69.4500000000000028
11
228.6999999999999886
21
-70.4500000000000028
  0
ENDSEC
  0
EOF
