  0
SECTION
  2
HEADER
  9
$ANGBASE
  50
0.0
  9
$ANGDIR
  70
1
  9
$MEASUREMENT
  70
1
  0
ENDSEC
  0
SECTION
  2
TABLES
  0
TABLE
  2
LTYPE
  70
4
  0
LTYPE
  5
40F
  2
CONTINUOUS
  70
0
  3
Solid line
  72
65
  73
0
  40
0.0
  0
LTYPE
  5
410
  2
DASHDOT
 70
0
  3
Dash Dot ____ _ ____ _
 72
65
 73
4
 40
2.0
 49
1.25
 49
-0.25
 49
0.25
 49
-0.25
  0
LTYPE
  5
411
  2
DASHED
 70
0
  3
Dashed __ __ __ __ __
 72
65
 73
2
 40
0.75
 49
0.5
 49
-0.25
  0
LTYPE
  5
43B
  2
DOTTED
 70
0
  3
Dotted .  .  .  .
 72
65
 73
2
 40
0.2
 49
0.0
 49
-0.2
  0
ENDTAB
  0
TABLE
  2
STYLE
  70
4
  0
STYLE
  2
KICAD
  70
0
  40
0
  41
1
  42
1
  50
0
  71
0
  3
isocp.shx
  0
STYLE
  2
KICADB
  70
0
  40
0
  41
1
  42
1
  50
0
  71
0
  3
isocp.shx
  0
STYLE
  2
KICADI
  70
0
  40
0
  41
1
  42
1
  50
15
  71
0
  3
isocp.shx
  0
STYLE
  2
KICADBI
  70
0
  40
0
  41
1
  42
1
  50
15
  71
0
  3
isocp.shx
  0
ENDTAB
  0
TABLE
  2
LAYER
  70
1
  0
LAYER
  2
BLACK
  70
0
  62
7
  6
CONTINUOUS
  0
ENDTAB
  0
ENDSEC
  0
SECTION
  2
ENTITIES
0
LINE
8
BLACK
6
CONTINUOUS
10
201.2299999999999898
20
-102.4499999999999886
11
200.2299999999999898
21
-102.4499999999999886
0
LINE
8
BLACK
6
CONTINUOUS
10
200.2299999999999898
20
-102.4499999999999886
11
200.2299999999999898
21
-99.9399999999999977
0
LINE
8
BLACK
6
CONTINUOUS
10
200.2299999999999898
20
-99.9399999999999977
11
201.2299999999999898
21
-99.9399999999999977
0
LINE
8
BLACK
6
CONTINUOUS
10
201.2299999999999898
20
-99.9399999999999977
11
201.2299999999999898
21
-102.4499999999999886
0
LINE
8
BLACK
6
CONTINUOUS
10
206.3100000000000023
20
-102.4499999999999886
11
205.3100000000000023
21
-102.4499999999999886
0
LINE
8
BLACK
6
CONTINUOUS
10
205.3100000000000023
20
-102.4499999999999886
11
205.3100000000000023
21
-99.9399999999999977
0
LINE
8
BLACK
6
CONTINUOUS
10
205.3100000000000023
20
-99.9399999999999977
11
206.3100000000000023
21
-99.9399999999999977
0
LINE
8
BLACK
6
CONTINUOUS
10
206.3100000000000023
20
-99.9399999999999977
11
206.3100000000000023
21
-102.4499999999999886
0
LINE
8
BLACK
6
CONTINUOUS
10
178.1518439999999828
20
-98.5182689999999894
11
178.2297059999999931
21
-98.5702939999999899
0
LINE
8
BLACK
6
CONTINUOUS
10
178.2297059999999931
20
-98.5702939999999899
11
178.2817309999999793
21
-98.6481560000000002
0
LINE
8
BLACK
6
CONTINUOUS
10
178.2817309999999793
20
-98.6481560000000002
11
178.2999999999999829
21
-98.7399999999999949
0
LINE
8
BLACK
6
CONTINUOUS
10
178.2999999999999829
20
-98.7399999999999949
11
178.2999999999999829
21
-99.4599999999999937
0
LINE
8
BLACK
6
CONTINUOUS
10
178.2999999999999829
20
-99.4599999999999937
11
178.2817309999999793
21
-99.5518439999999885
0
LINE
8
BLACK
6
CONTINUOUS
10
178.2817309999999793
20
-99.5518439999999885
11
178.2297059999999931
21
-99.6297059999999988
0
LINE
8
BLACK
6
CONTINUOUS
10
178.2297059999999931
20
-99.6297059999999988
11
178.1518439999999828
21
-99.6817309999999992
0
LINE
8
BLACK
6
CONTINUOUS
10
178.1518439999999828
20
-99.6817309999999992
11
178.0600000000000023
21
-99.6999999999999886
0
LINE
8
BLACK
6
CONTINUOUS
10
178.0600000000000023
20
-99.6999999999999886
11
176.039999999999992
21
-99.6999999999999886
0
LINE
8
BLACK
6
CONTINUOUS
10
176.039999999999992
20
-99.6999999999999886
11
175.9481559999999831
21
-99.6817309999999992
0
LINE
8
BLACK
6
CONTINUOUS
10
175.9481559999999831
20
-99.6817309999999992
11
175.8702940000000012
21
-99.6297059999999988
0
LINE
8
BLACK
6
CONTINUOUS
10
175.8702940000000012
20
-99.6297059999999988
11
175.8182689999999866
21
-99.5518439999999885
0
LINE
8
BLACK
6
CONTINUOUS
10
175.8182689999999866
20
-99.5518439999999885
11
175.7999999999999829
21
-99.4599999999999937
0
LINE
8
BLACK
6
CONTINUOUS
10
175.7999999999999829
20
-99.4599999999999937
11
175.7999999999999829
21
-98.7399999999999949
0
LINE
8
BLACK
6
CONTINUOUS
10
175.7999999999999829
20
-98.7399999999999949
11
175.8182689999999866
21
-98.6481560000000002
0
LINE
8
BLACK
6
CONTINUOUS
10
175.8182689999999866
20
-98.6481560000000002
11
175.8702940000000012
21
-98.5702939999999899
0
LINE
8
BLACK
6
CONTINUOUS
10
175.8702940000000012
20
-98.5702939999999899
11
175.9481559999999831
21
-98.5182689999999894
0
LINE
8
BLACK
6
CONTINUOUS
10
175.9481559999999831
20
-98.5182689999999894
11
176.039999999999992
21
-98.5
0
LINE
8
BLACK
6
CONTINUOUS
10
176.039999999999992
20
-98.5
11
178.0600000000000023
21
-98.5
0
LINE
8
BLACK
6
CONTINUOUS
10
178.0600000000000023
20
-98.5
11
178.1518439999999828
21
-98.5182689999999894
0
LINE
8
BLACK
6
CONTINUOUS
10
198.6899999999999977
20
-99.1400000000000006
11
197.6899999999999977
21
-99.1400000000000006
0
LINE
8
BLACK
6
CONTINUOUS
10
197.6899999999999977
20
-99.1400000000000006
11
197.6899999999999977
21
-96.6299999999999955
0
LINE
8
BLACK
6
CONTINUOUS
10
197.6899999999999977
20
-96.6299999999999955
11
198.6899999999999977
21
-96.6299999999999955
0
LINE
8
BLACK
6
CONTINUOUS
10
198.6899999999999977
20
-96.6299999999999955
11
198.6899999999999977
21
-99.1400000000000006
0
LINE
8
BLACK
6
CONTINUOUS
10
203.7699999999999818
20
-99.1400000000000006
11
202.7699999999999818
21
-99.1400000000000006
0
LINE
8
BLACK
6
CONTINUOUS
10
202.7699999999999818
20
-99.1400000000000006
11
202.7699999999999818
21
-96.6299999999999955
0
LINE
8
BLACK
6
CONTINUOUS
10
202.7699999999999818
20
-96.6299999999999955
11
203.7699999999999818
21
-96.6299999999999955
0
LINE
8
BLACK
6
CONTINUOUS
10
203.7699999999999818
20
-96.6299999999999955
11
203.7699999999999818
21
-99.1400000000000006
0
LINE
8
BLACK
6
CONTINUOUS
10
174.4722079999999949
20
-97.6842539999999957
11
174.5739429999999857
21
-97.7429909999999893
0
LINE
8
BLACK
6
CONTINUOUS
10
174.5739429999999857
20
-97.7429909999999893
11
174.657008999999988
21
-97.8260569999999916
0
LINE
8
BLACK
6
CONTINUOUS
10
174.657008999999988
20
-97.8260569999999916
11
174.7157459999999958
21
-97.9277919999999966
0
LINE
8
BLACK
6
CONTINUOUS
10
174.7157459999999958
20
-97.9277919999999966
11
174.7461500000000001
21
-98.0412630000000007
0
LINE
8
BLACK
6
CONTINUOUS
10
174.7461500000000001
20
-98.0412630000000007
11
174.7461500000000001
21
-98.1587370000000021
0
LINE
8
BLACK
6
CONTINUOUS
10
174.7461500000000001
20
-98.1587370000000021
11
174.7157459999999958
21
-98.272207999999992
0
LINE
8
BLACK
6
CONTINUOUS
10
174.7157459999999958
20
-98.272207999999992
11
174.657008999999988
21
-98.373942999999997
0
LINE
8
BLACK
6
CONTINUOUS
10
174.657008999999988
20
-98.373942999999997
11
174.5739429999999857
21
-98.4570089999999993
0
LINE
8
BLACK
6
CONTINUOUS
10
174.5739429999999857
20
-98.4570089999999993
11
174.4722079999999949
21
-98.5157459999999929
0
LINE
8
BLACK
6
CONTINUOUS
10
174.4722079999999949
20
-98.5157459999999929
11
174.3587369999999908
21
-98.5461499999999972
0
LINE
8
BLACK
6
CONTINUOUS
10
174.3587369999999908
20
-98.5461499999999972
11
174.2412630000000036
21
-98.5461499999999972
0
LINE
8
BLACK
6
CONTINUOUS
10
174.2412630000000036
20
-98.5461499999999972
11
174.1277919999999995
21
-98.5157459999999929
0
LINE
8
BLACK
6
CONTINUOUS
10
174.1277919999999995
20
-98.5157459999999929
11
174.0260569999999802
21
-98.4570089999999993
0
LINE
8
BLACK
6
CONTINUOUS
10
174.0260569999999802
20
-98.4570089999999993
11
173.9429909999999779
21
-98.373942999999997
0
LINE
8
BLACK
6
CONTINUOUS
10
173.9429909999999779
20
-98.373942999999997
11
173.8842539999999985
21
-98.272207999999992
0
LINE
8
BLACK
6
CONTINUOUS
10
173.8842539999999985
20
-98.272207999999992
11
173.8538499999999942
21
-98.1587370000000021
0
LINE
8
BLACK
6
CONTINUOUS
10
173.8538499999999942
20
-98.1587370000000021
11
173.8538499999999942
21
-98.0412630000000007
0
LINE
8
BLACK
6
CONTINUOUS
10
173.8538499999999942
20
-98.0412630000000007
11
173.8842539999999985
21
-97.9277919999999966
0
LINE
8
BLACK
6
CONTINUOUS
10
173.8842539999999985
20
-97.9277919999999966
11
173.9429909999999779
21
-97.8260569999999916
0
LINE
8
BLACK
6
CONTINUOUS
10
173.9429909999999779
20
-97.8260569999999916
11
174.0260569999999802
21
-97.7429909999999893
0
LINE
8
BLACK
6
CONTINUOUS
10
174.0260569999999802
20
-97.7429909999999893
11
174.1277919999999995
21
-97.6842539999999957
0
LINE
8
BLACK
6
CONTINUOUS
10
174.1277919999999995
20
-97.6842539999999957
11
174.2412630000000036
21
-97.6538499999999914
0
LINE
8
BLACK
6
CONTINUOUS
10
174.2412630000000036
20
-97.6538499999999914
11
174.3587369999999908
21
-97.6538499999999914
0
LINE
8
BLACK
6
CONTINUOUS
10
174.3587369999999908
20
-97.6538499999999914
11
174.4722079999999949
21
-97.6842539999999957
0
LINE
8
BLACK
6
CONTINUOUS
10
178.1518439999999828
20
-96.0182689999999894
11
178.2297059999999931
21
-96.0702939999999899
0
LINE
8
BLACK
6
CONTINUOUS
10
178.2297059999999931
20
-96.0702939999999899
11
178.2817309999999793
21
-96.1481560000000002
0
LINE
8
BLACK
6
CONTINUOUS
10
178.2817309999999793
20
-96.1481560000000002
11
178.2999999999999829
21
-96.2399999999999949
0
LINE
8
BLACK
6
CONTINUOUS
10
178.2999999999999829
20
-96.2399999999999949
11
178.2999999999999829
21
-96.9599999999999937
0
LINE
8
BLACK
6
CONTINUOUS
10
178.2999999999999829
20
-96.9599999999999937
11
178.2817309999999793
21
-97.0518440000000027
0
LINE
8
BLACK
6
CONTINUOUS
10
178.2817309999999793
20
-97.0518440000000027
11
178.2297059999999931
21
-97.1297059999999988
0
LINE
8
BLACK
6
CONTINUOUS
10
178.2297059999999931
20
-97.1297059999999988
11
178.1518439999999828
21
-97.1817309999999992
0
LINE
8
BLACK
6
CONTINUOUS
10
178.1518439999999828
20
-97.1817309999999992
11
178.0600000000000023
21
-97.1999999999999886
0
LINE
8
BLACK
6
CONTINUOUS
10
178.0600000000000023
20
-97.1999999999999886
11
176.039999999999992
21
-97.1999999999999886
0
LINE
8
BLACK
6
CONTINUOUS
10
176.039999999999992
20
-97.1999999999999886
11
175.9481559999999831
21
-97.1817309999999992
0
LINE
8
BLACK
6
CONTINUOUS
10
175.9481559999999831
20
-97.1817309999999992
11
175.8702940000000012
21
-97.1297059999999988
0
LINE
8
BLACK
6
CONTINUOUS
10
175.8702940000000012
20
-97.1297059999999988
11
175.8182689999999866
21
-97.0518440000000027
0
LINE
8
BLACK
6
CONTINUOUS
10
175.8182689999999866
20
-97.0518440000000027
11
175.7999999999999829
21
-96.9599999999999937
0
LINE
8
BLACK
6
CONTINUOUS
10
175.7999999999999829
20
-96.9599999999999937
11
175.7999999999999829
21
-96.2399999999999949
0
LINE
8
BLACK
6
CONTINUOUS
10
175.7999999999999829
20
-96.2399999999999949
11
175.8182689999999866
21
-96.1481560000000002
0
LINE
8
BLACK
6
CONTINUOUS
10
175.8182689999999866
20
-96.1481560000000002
11
175.8702940000000012
21
-96.0702939999999899
0
LINE
8
BLACK
6
CONTINUOUS
10
175.8702940000000012
20
-96.0702939999999899
11
175.9481559999999831
21
-96.0182689999999894
0
LINE
8
BLACK
6
CONTINUOUS
10
175.9481559999999831
20
-96.0182689999999894
11
176.039999999999992
21
-96.
0
LINE
8
BLACK
6
CONTINUOUS
10
176.039999999999992
20
-96.
11
178.0600000000000023
21
-96.
0
LINE
8
BLACK
6
CONTINUOUS
10
178.0600000000000023
20
-96.
11
178.1518439999999828
21
-96.0182689999999894
0
LINE
8
BLACK
6
CONTINUOUS
10
209.2599999999999909
20
-96.5699999999999932
11
207.8599999999999852
21
-96.5699999999999932
0
LINE
8
BLACK
6
CONTINUOUS
10
207.8599999999999852
20
-96.5699999999999932
11
207.8599999999999852
21
-94.1700000000000017
0
LINE
8
BLACK
6
CONTINUOUS
10
207.8599999999999852
20
-94.1700000000000017
11
209.2599999999999909
21
-94.1700000000000017
0
LINE
8
BLACK
6
CONTINUOUS
10
209.2599999999999909
20
-94.1700000000000017
11
209.2599999999999909
21
-96.5699999999999932
0
LINE
8
BLACK
6
CONTINUOUS
10
211.7999999999999829
20
-96.5699999999999932
11
210.3999999999999773
21
-96.5699999999999932
0
LINE
8
BLACK
6
CONTINUOUS
10
210.3999999999999773
20
-96.5699999999999932
11
210.3999999999999773
21
-94.1700000000000017
0
LINE
8
BLACK
6
CONTINUOUS
10
210.3999999999999773
20
-94.1700000000000017
11
211.7999999999999829
21
-94.1700000000000017
0
LINE
8
BLACK
6
CONTINUOUS
10
211.7999999999999829
20
-94.1700000000000017
11
211.7999999999999829
21
-96.5699999999999932
0
LINE
8
BLACK
6
CONTINUOUS
10
214.3400000000000034
20
-96.5699999999999932
11
212.9399999999999977
21
-96.5699999999999932
0
LINE
8
BLACK
6
CONTINUOUS
10
212.9399999999999977
20
-96.5699999999999932
11
212.9399999999999977
21
-94.1700000000000017
0
LINE
8
BLACK
6
CONTINUOUS
10
212.9399999999999977
20
-94.1700000000000017
11
214.3400000000000034
21
-94.1700000000000017
0
LINE
8
BLACK
6
CONTINUOUS
10
214.3400000000000034
20
-94.1700000000000017
11
214.3400000000000034
21
-96.5699999999999932
0
LINE
8
BLACK
6
CONTINUOUS
10
216.8799999999999955
20
-96.5699999999999932
11
215.4799999999999898
21
-96.5699999999999932
0
LINE
8
BLACK
6
CONTINUOUS
10
215.4799999999999898
20
-96.5699999999999932
11
215.4799999999999898
21
-94.1700000000000017
0
LINE
8
BLACK
6
CONTINUOUS
10
215.4799999999999898
20
-94.1700000000000017
11
216.8799999999999955
21
-94.1700000000000017
0
LINE
8
BLACK
6
CONTINUOUS
10
216.8799999999999955
20
-94.1700000000000017
11
216.8799999999999955
21
-96.5699999999999932
0
LINE
8
BLACK
6
CONTINUOUS
10
219.4199999999999875
20
-96.5699999999999932
11
218.0199999999999818
21
-96.5699999999999932
0
LINE
8
BLACK
6
CONTINUOUS
10
218.0199999999999818
20
-96.5699999999999932
11
218.0199999999999818
21
-94.1700000000000017
0
LINE
8
BLACK
6
CONTINUOUS
10
218.0199999999999818
20
-94.1700000000000017
11
219.4199999999999875
21
-94.1700000000000017
0
LINE
8
BLACK
6
CONTINUOUS
10
219.4199999999999875
20
-94.1700000000000017
11
219.4199999999999875
21
-96.5699999999999932
0
LINE
8
BLACK
6
CONTINUOUS
10
221.9599999999999795
20
-96.5699999999999932
11
220.5600000000000023
21
-96.5699999999999932
0
LINE
8
BLACK
6
CONTINUOUS
10
220.5600000000000023
20
-96.5699999999999932
11
220.5600000000000023
21
-94.1700000000000017
0
LINE
8
BLACK
6
CONTINUOUS
10
220.5600000000000023
20
-94.1700000000000017
11
221.9599999999999795
21
-94.1700000000000017
0
LINE
8
BLACK
6
CONTINUOUS
10
221.9599999999999795
20
-94.1700000000000017
11
221.9599999999999795
21
-96.5699999999999932
0
LINE
8
BLACK
6
CONTINUOUS
10
224.5
20
-96.5699999999999932
11
223.0999999999999943
21
-96.5699999999999932
0
LINE
8
BLACK
6
CONTINUOUS
10
223.0999999999999943
20
-96.5699999999999932
11
223.0999999999999943
21
-94.1700000000000017
0
LINE
8
BLACK
6
CONTINUOUS
10
223.0999999999999943
20
-94.1700000000000017
11
224.5
21
-94.1700000000000017
0
LINE
8
BLACK
6
CONTINUOUS
10
224.5
20
-94.1700000000000017
11
224.5
21
-96.5699999999999932
0
LINE
8
BLACK
6
CONTINUOUS
10
227.039999999999992
20
-96.5699999999999932
11
225.6399999999999864
21
-96.5699999999999932
0
LINE
8
BLACK
6
CONTINUOUS
10
225.6399999999999864
20
-96.5699999999999932
11
225.6399999999999864
21
-94.1700000000000017
0
LINE
8
BLACK
6
CONTINUOUS
10
225.6399999999999864
20
-94.1700000000000017
11
227.039999999999992
21
-94.1700000000000017
0
LINE
8
BLACK
6
CONTINUOUS
10
227.039999999999992
20
-94.1700000000000017
11
227.039999999999992
21
-96.5699999999999932
0
LINE
8
BLACK
6
CONTINUOUS
10
229.5799999999999841
20
-96.5699999999999932
11
228.1799999999999784
21
-96.5699999999999932
0
LINE
8
BLACK
6
CONTINUOUS
10
228.1799999999999784
20
-96.5699999999999932
11
228.1799999999999784
21
-94.1700000000000017
0
LINE
8
BLACK
6
CONTINUOUS
10
228.1799999999999784
20
-94.1700000000000017
11
229.5799999999999841
21
-94.1700000000000017
0
LINE
8
BLACK
6
CONTINUOUS
10
229.5799999999999841
20
-94.1700000000000017
11
229.5799999999999841
21
-96.5699999999999932
0
LINE
8
BLACK
6
CONTINUOUS
10
174.4722079999999949
20
-94.6842539999999957
11
174.5739429999999857
21
-94.7429909999999893
0
LINE
8
BLACK
6
CONTINUOUS
10
174.5739429999999857
20
-94.7429909999999893
11
174.657008999999988
21
-94.8260569999999916
0
LINE
8
BLACK
6
CONTINUOUS
10
174.657008999999988
20
-94.8260569999999916
11
174.7157459999999958
21
-94.9277919999999966
0
LINE
8
BLACK
6
CONTINUOUS
10
174.7157459999999958
20
-94.9277919999999966
11
174.7461500000000001
21
-95.0412630000000007
0
LINE
8
BLACK
6
CONTINUOUS
10
174.7461500000000001
20
-95.0412630000000007
11
174.7461500000000001
21
-95.1587370000000021
0
LINE
8
BLACK
6
CONTINUOUS
10
174.7461500000000001
20
-95.1587370000000021
11
174.7157459999999958
21
-95.272207999999992
0
LINE
8
BLACK
6
CONTINUOUS
10
174.7157459999999958
20
-95.272207999999992
11
174.657008999999988
21
-95.373942999999997
0
LINE
8
BLACK
6
CONTINUOUS
10
174.657008999999988
20
-95.373942999999997
11
174.5739429999999857
21
-95.4570089999999993
0
LINE
8
BLACK
6
CONTINUOUS
10
174.5739429999999857
20
-95.4570089999999993
11
174.4722079999999949
21
-95.5157459999999929
0
LINE
8
BLACK
6
CONTINUOUS
10
174.4722079999999949
20
-95.5157459999999929
11
174.3587369999999908
21
-95.5461499999999972
0
LINE
8
BLACK
6
CONTINUOUS
10
174.3587369999999908
20
-95.5461499999999972
11
174.2412630000000036
21
-95.5461499999999972
0
LINE
8
BLACK
6
CONTINUOUS
10
174.2412630000000036
20
-95.5461499999999972
11
174.1277919999999995
21
-95.5157459999999929
0
LINE
8
BLACK
6
CONTINUOUS
10
174.1277919999999995
20
-95.5157459999999929
11
174.0260569999999802
21
-95.4570089999999993
0
LINE
8
BLACK
6
CONTINUOUS
10
174.0260569999999802
20
-95.4570089999999993
11
173.9429909999999779
21
-95.373942999999997
0
LINE
8
BLACK
6
CONTINUOUS
10
173.9429909999999779
20
-95.373942999999997
11
173.8842539999999985
21
-95.272207999999992
0
LINE
8
BLACK
6
CONTINUOUS
10
173.8842539999999985
20
-95.272207999999992
11
173.8538499999999942
21
-95.1587370000000021
0
LINE
8
BLACK
6
CONTINUOUS
10
173.8538499999999942
20
-95.1587370000000021
11
173.8538499999999942
21
-95.0412630000000007
0
LINE
8
BLACK
6
CONTINUOUS
10
173.8538499999999942
20
-95.0412630000000007
11
173.8842539999999985
21
-94.9277919999999966
0
LINE
8
BLACK
6
CONTINUOUS
10
173.8842539999999985
20
-94.9277919999999966
11
173.9429909999999779
21
-94.8260569999999916
0
LINE
8
BLACK
6
CONTINUOUS
10
173.9429909999999779
20
-94.8260569999999916
11
174.0260569999999802
21
-94.7429909999999893
0
LINE
8
BLACK
6
CONTINUOUS
10
174.0260569999999802
20
-94.7429909999999893
11
174.1277919999999995
21
-94.6842539999999957
0
LINE
8
BLACK
6
CONTINUOUS
10
174.1277919999999995
20
-94.6842539999999957
11
174.2412630000000036
21
-94.6538499999999914
0
LINE
8
BLACK
6
CONTINUOUS
10
174.2412630000000036
20
-94.6538499999999914
11
174.3587369999999908
21
-94.6538499999999914
0
LINE
8
BLACK
6
CONTINUOUS
10
174.3587369999999908
20
-94.6538499999999914
11
174.4722079999999949
21
-94.6842539999999957
0
LINE
8
BLACK
6
CONTINUOUS
10
178.1518439999999828
20
-93.5182689999999894
11
178.2297059999999931
21
-93.5702939999999899
0
LINE
8
BLACK
6
CONTINUOUS
10
178.2297059999999931
20
-93.5702939999999899
11
178.2817309999999793
21
-93.6481560000000002
0
LINE
8
BLACK
6
CONTINUOUS
10
178.2817309999999793
20
-93.6481560000000002
11
178.2999999999999829
21
-93.7399999999999949
0
LINE
8
BLACK
6
CONTINUOUS
10
178.2999999999999829
20
-93.7399999999999949
11
178.2999999999999829
21
-94.4599999999999937
0
LINE
8
BLACK
6
CONTINUOUS
10
178.2999999999999829
20
-94.4599999999999937
11
178.2817309999999793
21
-94.5518440000000027
0
LINE
8
BLACK
6
CONTINUOUS
10
178.2817309999999793
20
-94.5518440000000027
11
178.2297059999999931
21
-94.6297059999999988
0
LINE
8
BLACK
6
CONTINUOUS
10
178.2297059999999931
20
-94.6297059999999988
11
178.1518439999999828
21
-94.6817309999999992
0
LINE
8
BLACK
6
CONTINUOUS
10
178.1518439999999828
20
-94.6817309999999992
11
178.0600000000000023
21
-94.6999999999999886
0
LINE
8
BLACK
6
CONTINUOUS
10
178.0600000000000023
20
-94.6999999999999886
11
176.039999999999992
21
-94.6999999999999886
0
LINE
8
BLACK
6
CONTINUOUS
10
176.039999999999992
20
-94.6999999999999886
11
175.9481559999999831
21
-94.6817309999999992
0
LINE
8
BLACK
6
CONTINUOUS
10
175.9481559999999831
20
-94.6817309999999992
11
175.8702940000000012
21
-94.6297059999999988
0
LINE
8
BLACK
6
CONTINUOUS
10
175.8702940000000012
20
-94.6297059999999988
11
175.8182689999999866
21
-94.5518440000000027
0
LINE
8
BLACK
6
CONTINUOUS
10
175.8182689999999866
20
-94.5518440000000027
11
175.7999999999999829
21
-94.4599999999999937
0
LINE
8
BLACK
6
CONTINUOUS
10
175.7999999999999829
20
-94.4599999999999937
11
175.7999999999999829
21
-93.7399999999999949
0
LINE
8
BLACK
6
CONTINUOUS
10
175.7999999999999829
20
-93.7399999999999949
11
175.8182689999999866
21
-93.6481560000000002
0
LINE
8
BLACK
6
CONTINUOUS
10
175.8182689999999866
20
-93.6481560000000002
11
175.8702940000000012
21
-93.5702939999999899
0
LINE
8
BLACK
6
CONTINUOUS
10
175.8702940000000012
20
-93.5702939999999899
11
175.9481559999999831
21
-93.5182689999999894
0
LINE
8
BLACK
6
CONTINUOUS
10
175.9481559999999831
20
-93.5182689999999894
11
176.039999999999992
21
-93.5
0
LINE
8
BLACK
6
CONTINUOUS
10
176.039999999999992
20
-93.5
11
178.0600000000000023
21
-93.5
0
LINE
8
BLACK
6
CONTINUOUS
10
178.0600000000000023
20
-93.5
11
178.1518439999999828
21
-93.5182689999999894
0
LINE
8
BLACK
6
CONTINUOUS
10
180.2956709999999987
20
-89.2690300000000008
11
180.3767770000000041
21
-89.3232229999999987
0
LINE
8
BLACK
6
CONTINUOUS
10
180.3767770000000041
20
-89.3232229999999987
11
180.4309700000000021
21
-89.4043289999999899
0
LINE
8
BLACK
6
CONTINUOUS
10
180.4309700000000021
20
-89.4043289999999899
11
180.4499999999999886
21
-89.5
0
LINE
8
BLACK
6
CONTINUOUS
10
180.4499999999999886
20
-89.5
11
180.4499999999999886
21
-90.
0
LINE
8
BLACK
6
CONTINUOUS
10
180.4499999999999886
20
-90.
11
180.4309700000000021
21
-90.0956709999999958
0
LINE
8
BLACK
6
CONTINUOUS
10
180.4309700000000021
20
-90.0956709999999958
11
180.3767770000000041
21
-90.1767770000000013
0
LINE
8
BLACK
6
CONTINUOUS
10
180.3767770000000041
20
-90.1767770000000013
11
180.2956709999999987
21
-90.2309699999999992
0
LINE
8
BLACK
6
CONTINUOUS
10
180.2956709999999987
20
-90.2309699999999992
11
180.1999999999999886
21
-90.25
0
LINE
8
BLACK
6
CONTINUOUS
10
180.1999999999999886
20
-90.25
11
178.
21
-90.25
0
LINE
8
BLACK
6
CONTINUOUS
10
178.
20
-90.25
11
177.9043289999999899
21
-90.2309699999999992
0
LINE
8
BLACK
6
CONTINUOUS
10
177.9043289999999899
20
-90.2309699999999992
11
177.8232229999999845
21
-90.1767770000000013
0
LINE
8
BLACK
6
CONTINUOUS
10
177.8232229999999845
20
-90.1767770000000013
11
177.7690299999999866
21
-90.0956709999999958
0
LINE
8
BLACK
6
CONTINUOUS
10
177.7690299999999866
20
-90.0956709999999958
11
177.75
21
-90.
0
LINE
8
BLACK
6
CONTINUOUS
10
177.75
20
-90.
11
177.75
21
-89.5
0
LINE
8
BLACK
6
CONTINUOUS
10
177.75
20
-89.5
11
177.7690299999999866
21
-89.4043289999999899
0
LINE
8
BLACK
6
CONTINUOUS
10
177.7690299999999866
20
-89.4043289999999899
11
177.8232229999999845
21
-89.3232229999999987
0
LINE
8
BLACK
6
CONTINUOUS
10
177.8232229999999845
20
-89.3232229999999987
11
177.9043289999999899
21
-89.2690300000000008
0
LINE
8
BLACK
6
CONTINUOUS
10
177.9043289999999899
20
-89.2690300000000008
11
178.
21
-89.25
0
LINE
8
BLACK
6
CONTINUOUS
10
178.
20
-89.25
11
180.1999999999999886
21
-89.25
0
LINE
8
BLACK
6
CONTINUOUS
10
180.1999999999999886
20
-89.25
11
180.2956709999999987
21
-89.2690300000000008
0
LINE
8
BLACK
6
CONTINUOUS
10
229.7199999999999989
20
-88.7999999999999972
11
227.7199999999999989
21
-88.7999999999999972
0
LINE
8
BLACK
6
CONTINUOUS
10
227.7199999999999989
20
-88.7999999999999972
11
227.7199999999999989
21
-87.2000000000000028
0
LINE
8
BLACK
6
CONTINUOUS
10
227.7199999999999989
20
-87.2000000000000028
11
229.7199999999999989
21
-87.2000000000000028
0
LINE
8
BLACK
6
CONTINUOUS
10
229.7199999999999989
20
-87.2000000000000028
11
229.7199999999999989
21
-88.7999999999999972
0
LINE
8
BLACK
6
CONTINUOUS
10
176.657402999999988
20
-87.6114180000000005
11
176.7060659999999928
21
-87.6439340000000016
0
LINE
8
BLACK
6
CONTINUOUS
10
176.7060659999999928
20
-87.6439340000000016
11
176.7385819999999796
21
-87.6925969999999921
0
LINE
8
BLACK
6
CONTINUOUS
10
176.7385819999999796
20
-87.6925969999999921
11
176.75
21
-87.75
0
LINE
8
BLACK
6
CONTINUOUS
10
176.75
20
-87.75
11
176.75
21
-88.0499999999999972
0
LINE
8
BLACK
6
CONTINUOUS
10
176.75
20
-88.0499999999999972
11
176.7385819999999796
21
-88.1074029999999908
0
LINE
8
BLACK
6
CONTINUOUS
10
176.7385819999999796
20
-88.1074029999999908
11
176.7060659999999928
21
-88.1560659999999956
0
LINE
8
BLACK
6
CONTINUOUS
10
176.7060659999999928
20
-88.1560659999999956
11
176.657402999999988
21
-88.1885819999999967
0
LINE
8
BLACK
6
CONTINUOUS
10
176.657402999999988
20
-88.1885819999999967
11
176.5999999999999943
21
-88.2000000000000028
0
LINE
8
BLACK
6
CONTINUOUS
10
176.5999999999999943
20
-88.2000000000000028
11
175.1999999999999886
21
-88.2000000000000028
0
LINE
8
BLACK
6
CONTINUOUS
10
175.1999999999999886
20
-88.2000000000000028
11
175.142596999999995
21
-88.1885819999999967
0
LINE
8
BLACK
6
CONTINUOUS
10
175.142596999999995
20
-88.1885819999999967
11
175.0939339999999902
21
-88.1560659999999956
0
LINE
8
BLACK
6
CONTINUOUS
10
175.0939339999999902
20
-88.1560659999999956
11
175.0614180000000033
21
-88.1074029999999908
0
LINE
8
BLACK
6
CONTINUOUS
10
175.0614180000000033
20
-88.1074029999999908
11
175.0499999999999829
21
-88.0499999999999972
0
LINE
8
BLACK
6
CONTINUOUS
10
175.0499999999999829
20
-88.0499999999999972
11
175.0499999999999829
21
-87.75
0
LINE
8
BLACK
6
CONTINUOUS
10
175.0499999999999829
20
-87.75
11
175.0614180000000033
21
-87.6925969999999921
0
LINE
8
BLACK
6
CONTINUOUS
10
175.0614180000000033
20
-87.6925969999999921
11
175.0939339999999902
21
-87.6439340000000016
0
LINE
8
BLACK
6
CONTINUOUS
10
175.0939339999999902
20
-87.6439340000000016
11
175.142596999999995
21
-87.6114180000000005
0
LINE
8
BLACK
6
CONTINUOUS
10
175.142596999999995
20
-87.6114180000000005
11
175.1999999999999886
21
-87.5999999999999943
0
LINE
8
BLACK
6
CONTINUOUS
10
175.1999999999999886
20
-87.5999999999999943
11
176.5999999999999943
21
-87.5999999999999943
0
LINE
8
BLACK
6
CONTINUOUS
10
176.5999999999999943
20
-87.5999999999999943
11
176.657402999999988
21
-87.6114180000000005
0
LINE
8
BLACK
6
CONTINUOUS
10
176.657402999999988
20
-86.3614180000000005
11
176.7060659999999928
21
-86.3939340000000016
0
LINE
8
BLACK
6
CONTINUOUS
10
176.7060659999999928
20
-86.3939340000000016
11
176.7385819999999796
21
-86.4425969999999921
0
LINE
8
BLACK
6
CONTINUOUS
10
176.7385819999999796
20
-86.4425969999999921
11
176.75
21
-86.5
0
LINE
8
BLACK
6
CONTINUOUS
10
176.75
20
-86.5
11
176.75
21
-86.7999999999999972
0
LINE
8
BLACK
6
CONTINUOUS
10
176.75
20
-86.7999999999999972
11
176.7385819999999796
21
-86.8574029999999908
0
LINE
8
BLACK
6
CONTINUOUS
10
176.7385819999999796
20
-86.8574029999999908
11
176.7060659999999928
21
-86.9060659999999956
0
LINE
8
BLACK
6
CONTINUOUS
10
176.7060659999999928
20
-86.9060659999999956
11
176.657402999999988
21
-86.9385819999999967
0
LINE
8
BLACK
6
CONTINUOUS
10
176.657402999999988
20
-86.9385819999999967
11
176.5999999999999943
21
-86.9500000000000028
0
LINE
8
BLACK
6
CONTINUOUS
10
176.5999999999999943
20
-86.9500000000000028
11
175.1999999999999886
21
-86.9500000000000028
0
LINE
8
BLACK
6
CONTINUOUS
10
175.1999999999999886
20
-86.9500000000000028
11
175.142596999999995
21
-86.9385819999999967
0
LINE
8
BLACK
6
CONTINUOUS
10
175.142596999999995
20
-86.9385819999999967
11
175.0939339999999902
21
-86.9060659999999956
0
LINE
8
BLACK
6
CONTINUOUS
10
175.0939339999999902
20
-86.9060659999999956
11
175.0614180000000033
21
-86.8574029999999908
0
LINE
8
BLACK
6
CONTINUOUS
10
175.0614180000000033
20
-86.8574029999999908
11
175.0499999999999829
21
-86.7999999999999972
0
LINE
8
BLACK
6
CONTINUOUS
10
175.0499999999999829
20
-86.7999999999999972
11
175.0499999999999829
21
-86.5
0
LINE
8
BLACK
6
CONTINUOUS
10
175.0499999999999829
20
-86.5
11
175.0614180000000033
21
-86.4425969999999921
0
LINE
8
BLACK
6
CONTINUOUS
10
175.0614180000000033
20
-86.4425969999999921
11
175.0939339999999902
21
-86.3939340000000016
0
LINE
8
BLACK
6
CONTINUOUS
10
175.0939339999999902
20
-86.3939340000000016
11
175.142596999999995
21
-86.3614180000000005
0
LINE
8
BLACK
6
CONTINUOUS
10
175.142596999999995
20
-86.3614180000000005
11
175.1999999999999886
21
-86.3499999999999943
0
LINE
8
BLACK
6
CONTINUOUS
10
175.1999999999999886
20
-86.3499999999999943
11
176.5999999999999943
21
-86.3499999999999943
0
LINE
8
BLACK
6
CONTINUOUS
10
176.5999999999999943
20
-86.3499999999999943
11
176.657402999999988
21
-86.3614180000000005
0
LINE
8
BLACK
6
CONTINUOUS
10
229.7199999999999989
20
-85.5999999999999943
11
227.7199999999999989
21
-85.5999999999999943
0
LINE
8
BLACK
6
CONTINUOUS
10
227.7199999999999989
20
-85.5999999999999943
11
227.7199999999999989
21
-84.
0
LINE
8
BLACK
6
CONTINUOUS
10
227.7199999999999989
20
-84.
11
229.7199999999999989
21
-84.
0
LINE
8
BLACK
6
CONTINUOUS
10
229.7199999999999989
20
-84.
11
229.7199999999999989
21
-85.5999999999999943
0
LINE
8
BLACK
6
CONTINUOUS
10
180.2956709999999987
20
-84.3190299999999979
11
180.3767770000000041
21
-84.3732229999999959
0
LINE
8
BLACK
6
CONTINUOUS
10
180.3767770000000041
20
-84.3732229999999959
11
180.4309700000000021
21
-84.4543290000000013
0
LINE
8
BLACK
6
CONTINUOUS
10
180.4309700000000021
20
-84.4543290000000013
11
180.4499999999999886
21
-84.5499999999999972
0
LINE
8
BLACK
6
CONTINUOUS
10
180.4499999999999886
20
-84.5499999999999972
11
180.4499999999999886
21
-85.0499999999999972
0
LINE
8
BLACK
6
CONTINUOUS
10
180.4499999999999886
20
-85.0499999999999972
11
180.4309700000000021
21
-85.145670999999993
0
LINE
8
BLACK
6
CONTINUOUS
10
180.4309700000000021
20
-85.145670999999993
11
180.3767770000000041
21
-85.2267769999999985
0
LINE
8
BLACK
6
CONTINUOUS
10
180.3767770000000041
20
-85.2267769999999985
11
180.2956709999999987
21
-85.2809699999999964
0
LINE
8
BLACK
6
CONTINUOUS
10
180.2956709999999987
20
-85.2809699999999964
11
180.1999999999999886
21
-85.2999999999999972
0
LINE
8
BLACK
6
CONTINUOUS
10
180.1999999999999886
20
-85.2999999999999972
11
178.
21
-85.2999999999999972
0
LINE
8
BLACK
6
CONTINUOUS
10
178.
20
-85.2999999999999972
11
177.9043289999999899
21
-85.2809699999999964
0
LINE
8
BLACK
6
CONTINUOUS
10
177.9043289999999899
20
-85.2809699999999964
11
177.8232229999999845
21
-85.2267769999999985
0
LINE
8
BLACK
6
CONTINUOUS
10
177.8232229999999845
20
-85.2267769999999985
11
177.7690299999999866
21
-85.145670999999993
0
LINE
8
BLACK
6
CONTINUOUS
10
177.7690299999999866
20
-85.145670999999993
11
177.75
21
-85.0499999999999972
0
LINE
8
BLACK
6
CONTINUOUS
10
177.75
20
-85.0499999999999972
11
177.75
21
-84.5499999999999972
0
LINE
8
BLACK
6
CONTINUOUS
10
177.75
20
-84.5499999999999972
11
177.7690299999999866
21
-84.4543290000000013
0
LINE
8
BLACK
6
CONTINUOUS
10
177.7690299999999866
20
-84.4543290000000013
11
177.8232229999999845
21
-84.3732229999999959
0
LINE
8
BLACK
6
CONTINUOUS
10
177.8232229999999845
20
-84.3732229999999959
11
177.9043289999999899
21
-84.3190299999999979
0
LINE
8
BLACK
6
CONTINUOUS
10
177.9043289999999899
20
-84.3190299999999979
11
178.
21
-84.2999999999999972
0
LINE
8
BLACK
6
CONTINUOUS
10
178.
20
-84.2999999999999972
11
180.1999999999999886
21
-84.2999999999999972
0
LINE
8
BLACK
6
CONTINUOUS
10
180.1999999999999886
20
-84.2999999999999972
11
180.2956709999999987
21
-84.3190299999999979
0
LINE
8
BLACK
6
CONTINUOUS
10
175.125
20
-82.4249999999999972
11
174.125
21
-82.4249999999999972
0
LINE
8
BLACK
6
CONTINUOUS
10
174.125
20
-82.4249999999999972
11
174.125
21
-80.875
0
LINE
8
BLACK
6
CONTINUOUS
10
174.125
20
-80.875
11
175.125
21
-80.875
0
LINE
8
BLACK
6
CONTINUOUS
10
175.125
20
-80.875
11
175.125
21
-82.4249999999999972
0
LINE
8
BLACK
6
CONTINUOUS
10
176.8249999999999886
20
-82.4249999999999972
11
175.8249999999999886
21
-82.4249999999999972
0
LINE
8
BLACK
6
CONTINUOUS
10
175.8249999999999886
20
-82.4249999999999972
11
175.8249999999999886
21
-80.875
0
LINE
8
BLACK
6
CONTINUOUS
10
175.8249999999999886
20
-80.875
11
176.8249999999999886
21
-80.875
0
LINE
8
BLACK
6
CONTINUOUS
10
176.8249999999999886
20
-80.875
11
176.8249999999999886
21
-82.4249999999999972
0
LINE
8
BLACK
6
CONTINUOUS
10
174.2722080000000062
20
-78.6092539999999929
11
174.373942999999997
21
-78.6679910000000007
0
LINE
8
BLACK
6
CONTINUOUS
10
174.373942999999997
20
-78.6679910000000007
11
174.4570089999999993
21
-78.751057000000003
0
LINE
8
BLACK
6
CONTINUOUS
10
174.4570089999999993
20
-78.751057000000003
11
174.5157459999999787
21
-78.8527919999999938
0
LINE
8
BLACK
6
CONTINUOUS
10
174.5157459999999787
20
-78.8527919999999938
11
174.546149999999983
21
-78.9662629999999979
0
LINE
8
BLACK
6
CONTINUOUS
10
174.546149999999983
20
-78.9662629999999979
11
174.546149999999983
21
-79.0837369999999993
0
LINE
8
BLACK
6
CONTINUOUS
10
174.546149999999983
20
-79.0837369999999993
11
174.5157459999999787
21
-79.1972080000000034
0
LINE
8
BLACK
6
CONTINUOUS
10
174.5157459999999787
20
-79.1972080000000034
11
174.4570089999999993
21
-79.2989429999999942
0
LINE
8
BLACK
6
CONTINUOUS
10
174.4570089999999993
20
-79.2989429999999942
11
174.373942999999997
21
-79.3820089999999965
0
LINE
8
BLACK
6
CONTINUOUS
10
174.373942999999997
20
-79.3820089999999965
11
174.2722080000000062
21
-79.4407459999999901
0
LINE
8
BLACK
6
CONTINUOUS
10
174.2722080000000062
20
-79.4407459999999901
11
174.1587370000000021
21
-79.4711499999999944
0
LINE
8
BLACK
6
CONTINUOUS
10
174.1587370000000021
20
-79.4711499999999944
11
174.0412629999999865
21
-79.4711499999999944
0
LINE
8
BLACK
6
CONTINUOUS
10
174.0412629999999865
20
-79.4711499999999944
11
173.9277919999999824
21
-79.4407459999999901
0
LINE
8
BLACK
6
CONTINUOUS
10
173.9277919999999824
20
-79.4407459999999901
11
173.8260569999999916
21
-79.3820089999999965
0
LINE
8
BLACK
6
CONTINUOUS
10
173.8260569999999916
20
-79.3820089999999965
11
173.7429909999999893
21
-79.2989429999999942
0
LINE
8
BLACK
6
CONTINUOUS
10
173.7429909999999893
20
-79.2989429999999942
11
173.6842539999999815
21
-79.1972080000000034
0
LINE
8
BLACK
6
CONTINUOUS
10
173.6842539999999815
20
-79.1972080000000034
11
173.6538500000000056
21
-79.0837369999999993
0
LINE
8
BLACK
6
CONTINUOUS
10
173.6538500000000056
20
-79.0837369999999993
11
173.6538500000000056
21
-78.9662629999999979
0
LINE
8
BLACK
6
CONTINUOUS
10
173.6538500000000056
20
-78.9662629999999979
11
173.6842539999999815
21
-78.8527919999999938
0
LINE
8
BLACK
6
CONTINUOUS
10
173.6842539999999815
20
-78.8527919999999938
11
173.7429909999999893
21
-78.751057000000003
0
LINE
8
BLACK
6
CONTINUOUS
10
173.7429909999999893
20
-78.751057000000003
11
173.8260569999999916
21
-78.6679910000000007
0
LINE
8
BLACK
6
CONTINUOUS
10
173.8260569999999916
20
-78.6679910000000007
11
173.9277919999999824
21
-78.6092539999999929
0
LINE
8
BLACK
6
CONTINUOUS
10
173.9277919999999824
20
-78.6092539999999929
11
174.0412629999999865
21
-78.5788500000000028
0
LINE
8
BLACK
6
CONTINUOUS
10
174.0412629999999865
20
-78.5788500000000028
11
174.1587370000000021
21
-78.5788500000000028
0
LINE
8
BLACK
6
CONTINUOUS
10
174.1587370000000021
20
-78.5788500000000028
11
174.2722080000000062
21
-78.6092539999999929
0
LINE
8
BLACK
6
CONTINUOUS
10
177.0222079999999778
20
-78.6092539999999929
11
177.123942999999997
21
-78.6679910000000007
0
LINE
8
BLACK
6
CONTINUOUS
10
177.123942999999997
20
-78.6679910000000007
11
177.2070089999999993
21
-78.751057000000003
0
LINE
8
BLACK
6
CONTINUOUS
10
177.2070089999999993
20
-78.751057000000003
11
177.2657459999999787
21
-78.8527919999999938
0
LINE
8
BLACK
6
CONTINUOUS
10
177.2657459999999787
20
-78.8527919999999938
11
177.296149999999983
21
-78.9662629999999979
0
LINE
8
BLACK
6
CONTINUOUS
10
177.296149999999983
20
-78.9662629999999979
11
177.296149999999983
21
-79.0837369999999993
0
LINE
8
BLACK
6
CONTINUOUS
10
177.296149999999983
20
-79.0837369999999993
11
177.2657459999999787
21
-79.1972080000000034
0
LINE
8
BLACK
6
CONTINUOUS
10
177.2657459999999787
20
-79.1972080000000034
11
177.2070089999999993
21
-79.2989429999999942
0
LINE
8
BLACK
6
CONTINUOUS
10
177.2070089999999993
20
-79.2989429999999942
11
177.123942999999997
21
-79.3820089999999965
0
LINE
8
BLACK
6
CONTINUOUS
10
177.123942999999997
20
-79.3820089999999965
11
177.0222079999999778
21
-79.4407459999999901
0
LINE
8
BLACK
6
CONTINUOUS
10
177.0222079999999778
20
-79.4407459999999901
11
176.9087370000000021
21
-79.4711499999999944
0
LINE
8
BLACK
6
CONTINUOUS
10
176.9087370000000021
20
-79.4711499999999944
11
176.7912629999999865
21
-79.4711499999999944
0
LINE
8
BLACK
6
CONTINUOUS
10
176.7912629999999865
20
-79.4711499999999944
11
176.6777919999999824
21
-79.4407459999999901
0
LINE
8
BLACK
6
CONTINUOUS
10
176.6777919999999824
20
-79.4407459999999901
11
176.5760569999999916
21
-79.3820089999999965
0
LINE
8
BLACK
6
CONTINUOUS
10
176.5760569999999916
20
-79.3820089999999965
11
176.4929909999999893
21
-79.2989429999999942
0
LINE
8
BLACK
6
CONTINUOUS
10
176.4929909999999893
20
-79.2989429999999942
11
176.4342539999999815
21
-79.1972080000000034
0
LINE
8
BLACK
6
CONTINUOUS
10
176.4342539999999815
20
-79.1972080000000034
11
176.4038500000000056
21
-79.0837369999999993
0
LINE
8
BLACK
6
CONTINUOUS
10
176.4038500000000056
20
-79.0837369999999993
11
176.4038500000000056
21
-78.9662629999999979
0
LINE
8
BLACK
6
CONTINUOUS
10
176.4038500000000056
20
-78.9662629999999979
11
176.4342539999999815
21
-78.8527919999999938
0
LINE
8
BLACK
6
CONTINUOUS
10
176.4342539999999815
20
-78.8527919999999938
11
176.4929909999999893
21
-78.751057000000003
0
LINE
8
BLACK
6
CONTINUOUS
10
176.4929909999999893
20
-78.751057000000003
11
176.5760569999999916
21
-78.6679910000000007
0
LINE
8
BLACK
6
CONTINUOUS
10
176.5760569999999916
20
-78.6679910000000007
11
176.6777919999999824
21
-78.6092539999999929
0
LINE
8
BLACK
6
CONTINUOUS
10
176.6777919999999824
20
-78.6092539999999929
11
176.7912629999999865
21
-78.5788500000000028
0
LINE
8
BLACK
6
CONTINUOUS
10
176.7912629999999865
20
-78.5788500000000028
11
176.9087370000000021
21
-78.5788500000000028
0
LINE
8
BLACK
6
CONTINUOUS
10
176.9087370000000021
20
-78.5788500000000028
11
177.0222079999999778
21
-78.6092539999999929
0
LINE
8
BLACK
6
CONTINUOUS
10
209.2599999999999909
20
-78.6299999999999955
11
207.8599999999999852
21
-78.6299999999999955
0
LINE
8
BLACK
6
CONTINUOUS
10
207.8599999999999852
20
-78.6299999999999955
11
207.8599999999999852
21
-76.2299999999999898
0
LINE
8
BLACK
6
CONTINUOUS
10
207.8599999999999852
20
-76.2299999999999898
11
209.2599999999999909
21
-76.2299999999999898
0
LINE
8
BLACK
6
CONTINUOUS
10
209.2599999999999909
20
-76.2299999999999898
11
209.2599999999999909
21
-78.6299999999999955
0
LINE
8
BLACK
6
CONTINUOUS
10
211.7999999999999829
20
-78.6299999999999955
11
210.3999999999999773
21
-78.6299999999999955
0
LINE
8
BLACK
6
CONTINUOUS
10
210.3999999999999773
20
-78.6299999999999955
11
210.3999999999999773
21
-76.2299999999999898
0
LINE
8
BLACK
6
CONTINUOUS
10
210.3999999999999773
20
-76.2299999999999898
11
211.7999999999999829
21
-76.2299999999999898
0
LINE
8
BLACK
6
CONTINUOUS
10
211.7999999999999829
20
-76.2299999999999898
11
211.7999999999999829
21
-78.6299999999999955
0
LINE
8
BLACK
6
CONTINUOUS
10
214.3400000000000034
20
-78.6299999999999955
11
212.9399999999999977
21
-78.6299999999999955
0
LINE
8
BLACK
6
CONTINUOUS
10
212.9399999999999977
20
-78.6299999999999955
11
212.9399999999999977
21
-76.2299999999999898
0
LINE
8
BLACK
6
CONTINUOUS
10
212.9399999999999977
20
-76.2299999999999898
11
214.3400000000000034
21
-76.2299999999999898
0
LINE
8
BLACK
6
CONTINUOUS
10
214.3400000000000034
20
-76.2299999999999898
11
214.3400000000000034
21
-78.6299999999999955
0
LINE
8
BLACK
6
CONTINUOUS
10
216.8799999999999955
20
-78.6299999999999955
11
215.4799999999999898
21
-78.6299999999999955
0
LINE
8
BLACK
6
CONTINUOUS
10
215.4799999999999898
20
-78.6299999999999955
11
215.4799999999999898
21
-76.2299999999999898
0
LINE
8
BLACK
6
CONTINUOUS
10
215.4799999999999898
20
-76.2299999999999898
11
216.8799999999999955
21
-76.2299999999999898
0
LINE
8
BLACK
6
CONTINUOUS
10
216.8799999999999955
20
-76.2299999999999898
11
216.8799999999999955
21
-78.6299999999999955
0
LINE
8
BLACK
6
CONTINUOUS
10
219.4199999999999875
20
-78.6299999999999955
11
218.0199999999999818
21
-78.6299999999999955
0
LINE
8
BLACK
6
CONTINUOUS
10
218.0199999999999818
20
-78.6299999999999955
11
218.0199999999999818
21
-76.2299999999999898
0
LINE
8
BLACK
6
CONTINUOUS
10
218.0199999999999818
20
-76.2299999999999898
11
219.4199999999999875
21
-76.2299999999999898
0
LINE
8
BLACK
6
CONTINUOUS
10
219.4199999999999875
20
-76.2299999999999898
11
219.4199999999999875
21
-78.6299999999999955
0
LINE
8
BLACK
6
CONTINUOUS
10
221.9599999999999795
20
-78.6299999999999955
11
220.5600000000000023
21
-78.6299999999999955
0
LINE
8
BLACK
6
CONTINUOUS
10
220.5600000000000023
20
-78.6299999999999955
11
220.5600000000000023
21
-76.2299999999999898
0
LINE
8
BLACK
6
CONTINUOUS
10
220.5600000000000023
20
-76.2299999999999898
11
221.9599999999999795
21
-76.2299999999999898
0
LINE
8
BLACK
6
CONTINUOUS
10
221.9599999999999795
20
-76.2299999999999898
11
221.9599999999999795
21
-78.6299999999999955
0
LINE
8
BLACK
6
CONTINUOUS
10
224.5
20
-78.6299999999999955
11
223.0999999999999943
21
-78.6299999999999955
0
LINE
8
BLACK
6
CONTINUOUS
10
223.0999999999999943
20
-78.6299999999999955
11
223.0999999999999943
21
-76.2299999999999898
0
LINE
8
BLACK
6
CONTINUOUS
10
223.0999999999999943
20
-76.2299999999999898
11
224.5
21
-76.2299999999999898
0
LINE
8
BLACK
6
CONTINUOUS
10
224.5
20
-76.2299999999999898
11
224.5
21
-78.6299999999999955
0
LINE
8
BLACK
6
CONTINUOUS
10
227.039999999999992
20
-78.6299999999999955
11
225.6399999999999864
21
-78.6299999999999955
0
LINE
8
BLACK
6
CONTINUOUS
10
225.6399999999999864
20
-78.6299999999999955
11
225.6399999999999864
21
-76.2299999999999898
0
LINE
8
BLACK
6
CONTINUOUS
10
225.6399999999999864
20
-76.2299999999999898
11
227.039999999999992
21
-76.2299999999999898
0
LINE
8
BLACK
6
CONTINUOUS
10
227.039999999999992
20
-76.2299999999999898
11
227.039999999999992
21
-78.6299999999999955
0
LINE
8
BLACK
6
CONTINUOUS
10
229.5799999999999841
20
-78.6299999999999955
11
228.1799999999999784
21
-78.6299999999999955
0
LINE
8
BLACK
6
CONTINUOUS
10
228.1799999999999784
20
-78.6299999999999955
11
228.1799999999999784
21
-76.2299999999999898
0
LINE
8
BLACK
6
CONTINUOUS
10
228.1799999999999784
20
-76.2299999999999898
11
229.5799999999999841
21
-76.2299999999999898
0
LINE
8
BLACK
6
CONTINUOUS
10
229.5799999999999841
20
-76.2299999999999898
11
229.5799999999999841
21
-78.6299999999999955
0
LINE
8
BLACK
6
CONTINUOUS
10
175.125
20
-77.1749999999999972
11
174.125
21
-77.1749999999999972
0
LINE
8
BLACK
6
CONTINUOUS
10
174.125
20
-77.1749999999999972
11
174.125
21
-75.625
0
LINE
8
BLACK
6
CONTINUOUS
10
174.125
20
-75.625
11
175.125
21
-75.625
0
LINE
8
BLACK
6
CONTINUOUS
10
175.125
20
-75.625
11
175.125
21
-77.1749999999999972
0
LINE
8
BLACK
6
CONTINUOUS
10
176.8249999999999886
20
-77.1749999999999972
11
175.8249999999999886
21
-77.1749999999999972
0
LINE
8
BLACK
6
CONTINUOUS
10
175.8249999999999886
20
-77.1749999999999972
11
175.8249999999999886
21
-75.625
0
LINE
8
BLACK
6
CONTINUOUS
10
175.8249999999999886
20
-75.625
11
176.8249999999999886
21
-75.625
0
LINE
8
BLACK
6
CONTINUOUS
10
176.8249999999999886
20
-75.625
11
176.8249999999999886
21
-77.1749999999999972
0
LINE
8
BLACK
6
CONTINUOUS
10
178.8722080000000005
20
-71.7592539999999985
11
178.9739429999999913
21
-71.8179909999999921
0
LINE
8
BLACK
6
CONTINUOUS
10
178.9739429999999913
20
-71.8179909999999921
11
179.0570089999999936
21
-71.9010569999999944
0
LINE
8
BLACK
6
CONTINUOUS
10
179.0570089999999936
20
-71.9010569999999944
11
179.1157460000000015
21
-72.0027919999999995
0
LINE
8
BLACK
6
CONTINUOUS
10
179.1157460000000015
20
-72.0027919999999995
11
179.1461500000000058
21
-72.1162630000000036
0
LINE
8
BLACK
6
CONTINUOUS
10
179.1461500000000058
20
-72.1162630000000036
11
179.1461500000000058
21
-72.2337369999999908
0
LINE
8
BLACK
6
CONTINUOUS
10
179.1461500000000058
20
-72.2337369999999908
11
179.1157460000000015
21
-72.3472079999999949
0
LINE
8
BLACK
6
CONTINUOUS
10
179.1157460000000015
20
-72.3472079999999949
11
179.0570089999999936
21
-72.4489429999999999
0
LINE
8
BLACK
6
CONTINUOUS
10
179.0570089999999936
20
-72.4489429999999999
11
178.9739429999999913
21
-72.5320090000000022
0
LINE
8
BLACK
6
CONTINUOUS
10
178.9739429999999913
20
-72.5320090000000022
11
178.8722080000000005
21
-72.5907459999999958
0
LINE
8
BLACK
6
CONTINUOUS
10
178.8722080000000005
20
-72.5907459999999958
11
178.7587369999999964
21
-72.6211500000000001
0
LINE
8
BLACK
6
CONTINUOUS
10
178.7587369999999964
20
-72.6211500000000001
11
178.6412629999999808
21
-72.6211500000000001
0
LINE
8
BLACK
6
CONTINUOUS
10
178.6412629999999808
20
-72.6211500000000001
11
178.5277920000000051
21
-72.5907459999999958
0
LINE
8
BLACK
6
CONTINUOUS
10
178.5277920000000051
20
-72.5907459999999958
11
178.4260569999999859
21
-72.5320090000000022
0
LINE
8
BLACK
6
CONTINUOUS
10
178.4260569999999859
20
-72.5320090000000022
11
178.3429909999999836
21
-72.4489429999999999
0
LINE
8
BLACK
6
CONTINUOUS
10
178.3429909999999836
20
-72.4489429999999999
11
178.2842540000000042
21
-72.3472079999999949
0
LINE
8
BLACK
6
CONTINUOUS
10
178.2842540000000042
20
-72.3472079999999949
11
178.2538499999999999
21
-72.2337369999999908
0
LINE
8
BLACK
6
CONTINUOUS
10
178.2538499999999999
20
-72.2337369999999908
11
178.2538499999999999
21
-72.1162630000000036
0
LINE
8
BLACK
6
CONTINUOUS
10
178.2538499999999999
20
-72.1162630000000036
11
178.2842540000000042
21
-72.0027919999999995
0
LINE
8
BLACK
6
CONTINUOUS
10
178.2842540000000042
20
-72.0027919999999995
11
178.3429909999999836
21
-71.9010569999999944
0
LINE
8
BLACK
6
CONTINUOUS
10
178.3429909999999836
20
-71.9010569999999944
11
178.4260569999999859
21
-71.8179909999999921
0
LINE
8
BLACK
6
CONTINUOUS
10
178.4260569999999859
20
-71.8179909999999921
11
178.5277920000000051
21
-71.7592539999999985
0
LINE
8
BLACK
6
CONTINUOUS
10
178.5277920000000051
20
-71.7592539999999985
11
178.6412629999999808
21
-71.7288499999999942
0
LINE
8
BLACK
6
CONTINUOUS
10
178.6412629999999808
20
-71.7288499999999942
11
178.7587369999999964
21
-71.7288499999999942
0
LINE
8
BLACK
6
CONTINUOUS
10
178.7587369999999964
20
-71.7288499999999942
11
178.8722080000000005
21
-71.7592539999999985
0
LINE
8
BLACK
6
CONTINUOUS
10
193.8722080000000005
20
-71.7592539999999985
11
193.9739429999999913
21
-71.8179909999999921
0
LINE
8
BLACK
6
CONTINUOUS
10
193.9739429999999913
20
-71.8179909999999921
11
194.0570089999999936
21
-71.9010569999999944
0
LINE
8
BLACK
6
CONTINUOUS
10
194.0570089999999936
20
-71.9010569999999944
11
194.1157460000000015
21
-72.0027919999999995
0
LINE
8
BLACK
6
CONTINUOUS
10
194.1157460000000015
20
-72.0027919999999995
11
194.1461499999999774
21
-72.1162630000000036
0
LINE
8
BLACK
6
CONTINUOUS
10
194.1461499999999774
20
-72.1162630000000036
11
194.1461499999999774
21
-72.2337369999999908
0
LINE
8
BLACK
6
CONTINUOUS
10
194.1461499999999774
20
-72.2337369999999908
11
194.1157460000000015
21
-72.3472079999999949
0
LINE
8
BLACK
6
CONTINUOUS
10
194.1157460000000015
20
-72.3472079999999949
11
194.0570089999999936
21
-72.4489429999999999
0
LINE
8
BLACK
6
CONTINUOUS
10
194.0570089999999936
20
-72.4489429999999999
11
193.9739429999999913
21
-72.5320090000000022
0
LINE
8
BLACK
6
CONTINUOUS
10
193.9739429999999913
20
-72.5320090000000022
11
193.8722080000000005
21
-72.5907459999999958
0
LINE
8
BLACK
6
CONTINUOUS
10
193.8722080000000005
20
-72.5907459999999958
11
193.7587369999999964
21
-72.6211500000000001
0
LINE
8
BLACK
6
CONTINUOUS
10
193.7587369999999964
20
-72.6211500000000001
11
193.6412629999999808
21
-72.6211500000000001
0
LINE
8
BLACK
6
CONTINUOUS
10
193.6412629999999808
20
-72.6211500000000001
11
193.5277920000000051
21
-72.5907459999999958
0
LINE
8
BLACK
6
CONTINUOUS
10
193.5277920000000051
20
-72.5907459999999958
11
193.4260569999999859
21
-72.5320090000000022
0
LINE
8
BLACK
6
CONTINUOUS
10
193.4260569999999859
20
-72.5320090000000022
11
193.3429909999999836
21
-72.4489429999999999
0
LINE
8
BLACK
6
CONTINUOUS
10
193.3429909999999836
20
-72.4489429999999999
11
193.2842540000000042
21
-72.3472079999999949
0
LINE
8
BLACK
6
CONTINUOUS
10
193.2842540000000042
20
-72.3472079999999949
11
193.2538499999999999
21
-72.2337369999999908
0
LINE
8
BLACK
6
CONTINUOUS
10
193.2538499999999999
20
-72.2337369999999908
11
193.2538499999999999
21
-72.1162630000000036
0
LINE
8
BLACK
6
CONTINUOUS
10
193.2538499999999999
20
-72.1162630000000036
11
193.2842540000000042
21
-72.0027919999999995
0
LINE
8
BLACK
6
CONTINUOUS
10
193.2842540000000042
20
-72.0027919999999995
11
193.3429909999999836
21
-71.9010569999999944
0
LINE
8
BLACK
6
CONTINUOUS
10
193.3429909999999836
20
-71.9010569999999944
11
193.4260569999999859
21
-71.8179909999999921
0
LINE
8
BLACK
6
CONTINUOUS
10
193.4260569999999859
20
-71.8179909999999921
11
193.5277920000000051
21
-71.7592539999999985
0
LINE
8
BLACK
6
CONTINUOUS
10
193.5277920000000051
20
-71.7592539999999985
11
193.6412629999999808
21
-71.7288499999999942
0
LINE
8
BLACK
6
CONTINUOUS
10
193.6412629999999808
20
-71.7288499999999942
11
193.7587369999999964
21
-71.7288499999999942
0
LINE
8
BLACK
6
CONTINUOUS
10
193.7587369999999964
20
-71.7288499999999942
11
193.8722080000000005
21
-71.7592539999999985
0
LINE
8
BLACK
6
CONTINUOUS
10
210.4222079999999835
20
-71.7592539999999985
11
210.5239430000000027
21
-71.8179909999999921
0
LINE
8
BLACK
6
CONTINUOUS
10
210.5239430000000027
20
-71.8179909999999921
11
210.6070089999999766
21
-71.9010569999999944
0
LINE
8
BLACK
6
CONTINUOUS
10
210.6070089999999766
20
-71.9010569999999944
11
210.6657459999999844
21
-72.0027919999999995
0
LINE
8
BLACK
6
CONTINUOUS
10
210.6657459999999844
20
-72.0027919999999995
11
210.6961499999999887
21
-72.1162630000000036
0
LINE
8
BLACK
6
CONTINUOUS
10
210.6961499999999887
20
-72.1162630000000036
11
210.6961499999999887
21
-72.2337369999999908
0
LINE
8
BLACK
6
CONTINUOUS
10
210.6961499999999887
20
-72.2337369999999908
11
210.6657459999999844
21
-72.3472079999999949
0
LINE
8
BLACK
6
CONTINUOUS
10
210.6657459999999844
20
-72.3472079999999949
11
210.6070089999999766
21
-72.4489429999999999
0
LINE
8
BLACK
6
CONTINUOUS
10
210.6070089999999766
20
-72.4489429999999999
11
210.5239430000000027
21
-72.5320090000000022
0
LINE
8
BLACK
6
CONTINUOUS
10
210.5239430000000027
20
-72.5320090000000022
11
210.4222079999999835
21
-72.5907459999999958
0
LINE
8
BLACK
6
CONTINUOUS
10
210.4222079999999835
20
-72.5907459999999958
11
210.3087369999999794
21
-72.6211500000000001
0
LINE
8
BLACK
6
CONTINUOUS
10
210.3087369999999794
20
-72.6211500000000001
11
210.1912629999999922
21
-72.6211500000000001
0
LINE
8
BLACK
6
CONTINUOUS
10
210.1912629999999922
20
-72.6211500000000001
11
210.0777919999999881
21
-72.5907459999999958
0
LINE
8
BLACK
6
CONTINUOUS
10
210.0777919999999881
20
-72.5907459999999958
11
209.9760569999999973
21
-72.5320090000000022
0
LINE
8
BLACK
6
CONTINUOUS
10
209.9760569999999973
20
-72.5320090000000022
11
209.892990999999995
21
-72.4489429999999999
0
LINE
8
BLACK
6
CONTINUOUS
10
209.892990999999995
20
-72.4489429999999999
11
209.8342539999999872
21
-72.3472079999999949
0
LINE
8
BLACK
6
CONTINUOUS
10
209.8342539999999872
20
-72.3472079999999949
11
209.8038499999999829
21
-72.2337369999999908
0
LINE
8
BLACK
6
CONTINUOUS
10
209.8038499999999829
20
-72.2337369999999908
11
209.8038499999999829
21
-72.1162630000000036
0
LINE
8
BLACK
6
CONTINUOUS
10
209.8038499999999829
20
-72.1162630000000036
11
209.8342539999999872
21
-72.0027919999999995
0
LINE
8
BLACK
6
CONTINUOUS
10
209.8342539999999872
20
-72.0027919999999995
11
209.892990999999995
21
-71.9010569999999944
0
LINE
8
BLACK
6
CONTINUOUS
10
209.892990999999995
20
-71.9010569999999944
11
209.9760569999999973
21
-71.8179909999999921
0
LINE
8
BLACK
6
CONTINUOUS
10
209.9760569999999973
20
-71.8179909999999921
11
210.0777919999999881
21
-71.7592539999999985
0
LINE
8
BLACK
6
CONTINUOUS
10
210.0777919999999881
20
-71.7592539999999985
11
210.1912629999999922
21
-71.7288499999999942
0
LINE
8
BLACK
6
CONTINUOUS
10
210.1912629999999922
20
-71.7288499999999942
11
210.3087369999999794
21
-71.7288499999999942
0
LINE
8
BLACK
6
CONTINUOUS
10
210.3087369999999794
20
-71.7288499999999942
11
210.4222079999999835
21
-71.7592539999999985
0
LINE
8
BLACK
6
CONTINUOUS
10
225.4722079999999949
20
-71.7592539999999985
11
225.5739429999999857
21
-71.8179909999999921
0
LINE
8
BLACK
6
CONTINUOUS
10
225.5739429999999857
20
-71.8179909999999921
11
225.657008999999988
21
-71.9010569999999944
0
LINE
8
BLACK
6
CONTINUOUS
10
225.657008999999988
20
-71.9010569999999944
11
225.7157459999999958
21
-72.0027919999999995
0
LINE
8
BLACK
6
CONTINUOUS
10
225.7157459999999958
20
-72.0027919999999995
11
225.7461500000000001
21
-72.1162630000000036
0
LINE
8
BLACK
6
CONTINUOUS
10
225.7461500000000001
20
-72.1162630000000036
11
225.7461500000000001
21
-72.2337369999999908
0
LINE
8
BLACK
6
CONTINUOUS
10
225.7461500000000001
20
-72.2337369999999908
11
225.7157459999999958
21
-72.3472079999999949
0
LINE
8
BLACK
6
CONTINUOUS
10
225.7157459999999958
20
-72.3472079999999949
11
225.657008999999988
21
-72.4489429999999999
0
LINE
8
BLACK
6
CONTINUOUS
10
225.657008999999988
20
-72.4489429999999999
11
225.5739429999999857
21
-72.5320090000000022
0
LINE
8
BLACK
6
CONTINUOUS
10
225.5739429999999857
20
-72.5320090000000022
11
225.4722079999999949
21
-72.5907459999999958
0
LINE
8
BLACK
6
CONTINUOUS
10
225.4722079999999949
20
-72.5907459999999958
11
225.3587369999999908
21
-72.6211500000000001
0
LINE
8
BLACK
6
CONTINUOUS
10
225.3587369999999908
20
-72.6211500000000001
11
225.2412630000000036
21
-72.6211500000000001
0
LINE
8
BLACK
6
CONTINUOUS
10
225.2412630000000036
20
-72.6211500000000001
11
225.1277919999999995
21
-72.5907459999999958
0
LINE
8
BLACK
6
CONTINUOUS
10
225.1277919999999995
20
-72.5907459999999958
11
225.0260569999999802
21
-72.5320090000000022
0
LINE
8
BLACK
6
CONTINUOUS
10
225.0260569999999802
20
-72.5320090000000022
11
224.9429909999999779
21
-72.4489429999999999
0
LINE
8
BLACK
6
CONTINUOUS
10
224.9429909999999779
20
-72.4489429999999999
11
224.8842539999999985
21
-72.3472079999999949
0
LINE
8
BLACK
6
CONTINUOUS
10
224.8842539999999985
20
-72.3472079999999949
11
224.8538499999999942
21
-72.2337369999999908
0
LINE
8
BLACK
6
CONTINUOUS
10
224.8538499999999942
20
-72.2337369999999908
11
224.8538499999999942
21
-72.1162630000000036
0
LINE
8
BLACK
6
CONTINUOUS
10
224.8538499999999942
20
-72.1162630000000036
11
224.8842539999999985
21
-72.0027919999999995
0
LINE
8
BLACK
6
CONTINUOUS
10
224.8842539999999985
20
-72.0027919999999995
11
224.9429909999999779
21
-71.9010569999999944
0
LINE
8
BLACK
6
CONTINUOUS
10
224.9429909999999779
20
-71.9010569999999944
11
225.0260569999999802
21
-71.8179909999999921
0
LINE
8
BLACK
6
CONTINUOUS
10
225.0260569999999802
20
-71.8179909999999921
11
225.1277919999999995
21
-71.7592539999999985
0
LINE
8
BLACK
6
CONTINUOUS
10
225.1277919999999995
20
-71.7592539999999985
11
225.2412630000000036
21
-71.7288499999999942
0
LINE
8
BLACK
6
CONTINUOUS
10
225.2412630000000036
20
-71.7288499999999942
11
225.3587369999999908
21
-71.7288499999999942
0
LINE
8
BLACK
6
CONTINUOUS
10
225.3587369999999908
20
-71.7288499999999942
11
225.4722079999999949
21
-71.7592539999999985
0
LINE
8
BLACK
6
CONTINUOUS
10
176.8499999999999943
20
-72.1499999999999915
11
175.2999999999999829
21
-72.1499999999999915
0
LINE
8
BLACK
6
CONTINUOUS
10
175.2999999999999829
20
-72.1499999999999915
11
175.2999999999999829
21
-71.1499999999999915
0
LINE
8
BLACK
6
CONTINUOUS
10
175.2999999999999829
20
-71.1499999999999915
11
176.8499999999999943
21
-71.1499999999999915
0
LINE
8
BLACK
6
CONTINUOUS
10
176.8499999999999943
20
-71.1499999999999915
11
176.8499999999999943
21
-72.1499999999999915
0
LINE
8
BLACK
6
CONTINUOUS
10
182.0999999999999943
20
-72.1499999999999915
11
180.5499999999999829
21
-72.1499999999999915
0
LINE
8
BLACK
6
CONTINUOUS
10
180.5499999999999829
20
-72.1499999999999915
11
180.5499999999999829
21
-71.1499999999999915
0
LINE
8
BLACK
6
CONTINUOUS
10
180.5499999999999829
20
-71.1499999999999915
11
182.0999999999999943
21
-71.1499999999999915
0
LINE
8
BLACK
6
CONTINUOUS
10
182.0999999999999943
20
-71.1499999999999915
11
182.0999999999999943
21
-72.1499999999999915
0
LINE
8
BLACK
6
CONTINUOUS
10
191.8499999999999943
20
-72.1499999999999915
11
190.2999999999999829
21
-72.1499999999999915
0
LINE
8
BLACK
6
CONTINUOUS
10
190.2999999999999829
20
-72.1499999999999915
11
190.2999999999999829
21
-71.1499999999999915
0
LINE
8
BLACK
6
CONTINUOUS
10
190.2999999999999829
20
-71.1499999999999915
11
191.8499999999999943
21
-71.1499999999999915
0
LINE
8
BLACK
6
CONTINUOUS
10
191.8499999999999943
20
-71.1499999999999915
11
191.8499999999999943
21
-72.1499999999999915
0
LINE
8
BLACK
6
CONTINUOUS
10
197.0999999999999943
20
-72.1499999999999915
11
195.5499999999999829
21
-72.1499999999999915
0
LINE
8
BLACK
6
CONTINUOUS
10
195.5499999999999829
20
-72.1499999999999915
11
195.5499999999999829
21
-71.1499999999999915
0
LINE
8
BLACK
6
CONTINUOUS
10
195.5499999999999829
20
-71.1499999999999915
11
197.0999999999999943
21
-71.1499999999999915
0
LINE
8
BLACK
6
CONTINUOUS
10
197.0999999999999943
20
-71.1499999999999915
11
197.0999999999999943
21
-72.1499999999999915
0
LINE
8
BLACK
6
CONTINUOUS
10
208.3999999999999773
20
-72.1499999999999915
11
206.8499999999999943
21
-72.1499999999999915
0
LINE
8
BLACK
6
CONTINUOUS
10
206.8499999999999943
20
-72.1499999999999915
11
206.8499999999999943
21
-71.1499999999999915
0
LINE
8
BLACK
6
CONTINUOUS
10
206.8499999999999943
20
-71.1499999999999915
11
208.3999999999999773
21
-71.1499999999999915
0
LINE
8
BLACK
6
CONTINUOUS
10
208.3999999999999773
20
-71.1499999999999915
11
208.3999999999999773
21
-72.1499999999999915
0
LINE
8
BLACK
6
CONTINUOUS
10
213.6499999999999773
20
-72.1499999999999915
11
212.0999999999999943
21
-72.1499999999999915
0
LINE
8
BLACK
6
CONTINUOUS
10
212.0999999999999943
20
-72.1499999999999915
11
212.0999999999999943
21
-71.1499999999999915
0
LINE
8
BLACK
6
CONTINUOUS
10
212.0999999999999943
20
-71.1499999999999915
11
213.6499999999999773
21
-71.1499999999999915
0
LINE
8
BLACK
6
CONTINUOUS
10
213.6499999999999773
20
-71.1499999999999915
11
213.6499999999999773
21
-72.1499999999999915
0
LINE
8
BLACK
6
CONTINUOUS
10
223.4499999999999886
20
-72.1499999999999915
11
221.8999999999999773
21
-72.1499999999999915
0
LINE
8
BLACK
6
CONTINUOUS
10
221.8999999999999773
20
-72.1499999999999915
11
221.8999999999999773
21
-71.1499999999999915
0
LINE
8
BLACK
6
CONTINUOUS
10
221.8999999999999773
20
-71.1499999999999915
11
223.4499999999999886
21
-71.1499999999999915
0
LINE
8
BLACK
6
CONTINUOUS
10
223.4499999999999886
20
-71.1499999999999915
11
223.4499999999999886
21
-72.1499999999999915
0
LINE
8
BLACK
6
CONTINUOUS
10
228.6999999999999886
20
-72.1499999999999915
11
227.1499999999999773
21
-72.1499999999999915
0
LINE
8
BLACK
6
CONTINUOUS
10
227.1499999999999773
20
-72.1499999999999915
11
227.1499999999999773
21
-71.1499999999999915
0
LINE
8
BLACK
6
CONTINUOUS
10
227.1499999999999773
20
-71.1499999999999915
11
228.6999999999999886
21
-71.1499999999999915
0
LINE
8
BLACK
6
CONTINUOUS
10
228.6999999999999886
20
-71.1499999999999915
11
228.6999999999999886
21
-72.1499999999999915
0
LINE
8
BLACK
6
CONTINUOUS
10
176.8499999999999943
20
-70.4500000000000028
11
175.2999999999999829
21
-70.4500000000000028
0
LINE
8
BLACK
6
CONTINUOUS
10
175.2999999999999829
20
-70.4500000000000028
11
175.2999999999999829
21
-69.4500000000000028
0
LINE
8
BLACK
6
CONTINUOUS
10
175.2999999999999829
20
-69.4500000000000028
11
176.8499999999999943
21
-69.4500000000000028
0
LINE
8
BLACK
6
CONTINUOUS
10
176.8499999999999943
20
-69.4500000000000028
11
176.8499999999999943
21
-70.4500000000000028
0
LINE
8
BLACK
6
CONTINUOUS
10
182.0999999999999943
20
-70.4500000000000028
11
180.5499999999999829
21
-70.4500000000000028
0
LINE
8
BLACK
6
CONTINUOUS
10
180.5499999999999829
20
-70.4500000000000028
11
180.5499999999999829
21
-69.4500000000000028
0
LINE
8
BLACK
6
CONTINUOUS
10
180.5499999999999829
20
-69.4500000000000028
11
182.0999999999999943
21
-69.4500000000000028
0
LINE
8
BLACK
6
CONTINUOUS
10
182.0999999999999943
20
-69.4500000000000028
11
182.0999999999999943
21
-70.4500000000000028
0
LINE
8
BLACK
6
CONTINUOUS
10
191.8499999999999943
20
-70.4500000000000028
11
190.2999999999999829
21
-70.4500000000000028
0
LINE
8
BLACK
6
CONTINUOUS
10
190.2999999999999829
20
-70.4500000000000028
11
190.2999999999999829
21
-69.4500000000000028
0
LINE
8
BLACK
6
CONTINUOUS
10
190.2999999999999829
20
-69.4500000000000028
11
191.8499999999999943
21
-69.4500000000000028
0
LINE
8
BLACK
6
CONTINUOUS
10
191.8499999999999943
20
-69.4500000000000028
11
191.8499999999999943
21
-70.4500000000000028
0
LINE
8
BLACK
6
CONTINUOUS
10
197.0999999999999943
20
-70.4500000000000028
11
195.5499999999999829
21
-70.4500000000000028
0
LINE
8
BLACK
6
CONTINUOUS
10
195.5499999999999829
20
-70.4500000000000028
11
195.5499999999999829
21
-69.4500000000000028
0
LINE
8
BLACK
6
CONTINUOUS
10
195.5499999999999829
20
-69.4500000000000028
11
197.0999999999999943
21
-69.4500000000000028
0
LINE
8
BLACK
6
CONTINUOUS
10
197.0999999999999943
20
-69.4500000000000028
11
197.0999999999999943
21
-70.4500000000000028
0
LINE
8
BLACK
6
CONTINUOUS
10
208.3999999999999773
20
-70.4500000000000028
11
206.8499999999999943
21
-70.4500000000000028
0
LINE
8
BLACK
6
CONTINUOUS
10
206.8499999999999943
20
-70.4500000000000028
11
206.8499999999999943
21
-69.4500000000000028
0
LINE
8
BLACK
6
CONTINUOUS
10
206.8499999999999943
20
-69.4500000000000028
11
208.3999999999999773
21
-69.4500000000000028
0
LINE
8
BLACK
6
CONTINUOUS
10
208.3999999999999773
20
-69.4500000000000028
11
208.3999999999999773
21
-70.4500000000000028
0
LINE
8
BLACK
6
CONTINUOUS
10
213.6499999999999773
20
-70.4500000000000028
11
212.0999999999999943
21
-70.4500000000000028
0
LINE
8
BLACK
6
CONTINUOUS
10
212.0999999999999943
20
-70.4500000000000028
11
212.0999999999999943
21
-69.4500000000000028
0
LINE
8
BLACK
6
CONTINUOUS
10
212.0999999999999943
20
-69.4500000000000028
11
213.6499999999999773
21
-69.4500000000000028
0
LINE
8
BLACK
6
CONTINUOUS
10
213.6499999999999773
20
-69.4500000000000028
11
213.6499999999999773
21
-70.4500000000000028
0
LINE
8
BLACK
6
CONTINUOUS
10
223.4499999999999886
20
-70.4500000000000028
11
221.8999999999999773
21
-70.4500000000000028
0
LINE
8
BLACK
6
CONTINUOUS
10
221.8999999999999773
20
-70.4500000000000028
11
221.8999999999999773
21
-69.4500000000000028
0
LINE
8
BLACK
6
CONTINUOUS
10
221.8999999999999773
20
-69.4500000000000028
11
223.4499999999999886
21
-69.4500000000000028
0
LINE
8
BLACK
6
CONTINUOUS
10
223.4499999999999886
20
-69.4500000000000028
11
223.4499999999999886
21
-70.4500000000000028
0
LINE
8
BLACK
6
CONTINUOUS
10
228.6999999999999886
20
-70.4500000000000028
11
227.1499999999999773
21
-70.4500000000000028
0
LINE
8
BLACK
6
CONTINUOUS
10
227.1499999999999773
20
-70.4500000000000028
11
227.1499999999999773
21
-69.4500000000000028
0
LINE
8
BLACK
6
CONTINUOUS
10
227.1499999999999773
20
-69.4500000000000028
11
228.6999999999999886
21
-69.4500000000000028
0
LINE
8
BLACK
6
CONTINUOUS
10
228.6999999999999886
20
-69.4500000000000028
11
228.6999999999999886
21
-70.4500000000000028
0
LINE
8
BLACK
6
CONTINUOUS
10
178.8722080000000005
20
-69.0092539999999985
11
178.9739429999999913
21
-69.0679909999999921
0
LINE
8
BLACK
6
CONTINUOUS
10
178.9739429999999913
20
-69.0679909999999921
11
179.0570089999999936
21
-69.1510569999999944
0
LINE
8
BLACK
6
CONTINUOUS
10
179.0570089999999936
20
-69.1510569999999944
11
179.1157460000000015
21
-69.2527919999999995
0
LINE
8
BLACK
6
CONTINUOUS
10
179.1157460000000015
20
-69.2527919999999995
11
179.1461500000000058
21
-69.3662630000000036
0
LINE
8
BLACK
6
CONTINUOUS
10
179.1461500000000058
20
-69.3662630000000036
11
179.1461500000000058
21
-69.4837369999999908
0
LINE
8
BLACK
6
CONTINUOUS
10
179.1461500000000058
20
-69.4837369999999908
11
179.1157460000000015
21
-69.5972079999999949
0
LINE
8
BLACK
6
CONTINUOUS
10
179.1157460000000015
20
-69.5972079999999949
11
179.0570089999999936
21
-69.6989429999999999
0
LINE
8
BLACK
6
CONTINUOUS
10
179.0570089999999936
20
-69.6989429999999999
11
178.9739429999999913
21
-69.7820090000000022
0
LINE
8
BLACK
6
CONTINUOUS
10
178.9739429999999913
20
-69.7820090000000022
11
178.8722080000000005
21
-69.8407459999999958
0
LINE
8
BLACK
6
CONTINUOUS
10
178.8722080000000005
20
-69.8407459999999958
11
178.7587369999999964
21
-69.8711500000000001
0
LINE
8
BLACK
6
CONTINUOUS
10
178.7587369999999964
20
-69.8711500000000001
11
178.6412629999999808
21
-69.8711500000000001
0
LINE
8
BLACK
6
CONTINUOUS
10
178.6412629999999808
20
-69.8711500000000001
11
178.5277920000000051
21
-69.8407459999999958
0
LINE
8
BLACK
6
CONTINUOUS
10
178.5277920000000051
20
-69.8407459999999958
11
178.4260569999999859
21
-69.7820090000000022
0
LINE
8
BLACK
6
CONTINUOUS
10
178.4260569999999859
20
-69.7820090000000022
11
178.3429909999999836
21
-69.6989429999999999
0
LINE
8
BLACK
6
CONTINUOUS
10
178.3429909999999836
20
-69.6989429999999999
11
178.2842540000000042
21
-69.5972079999999949
0
LINE
8
BLACK
6
CONTINUOUS
10
178.2842540000000042
20
-69.5972079999999949
11
178.2538499999999999
21
-69.4837369999999908
0
LINE
8
BLACK
6
CONTINUOUS
10
178.2538499999999999
20
-69.4837369999999908
11
178.2538499999999999
21
-69.3662630000000036
0
LINE
8
BLACK
6
CONTINUOUS
10
178.2538499999999999
20
-69.3662630000000036
11
178.2842540000000042
21
-69.2527919999999995
0
LINE
8
BLACK
6
CONTINUOUS
10
178.2842540000000042
20
-69.2527919999999995
11
178.3429909999999836
21
-69.1510569999999944
0
LINE
8
BLACK
6
CONTINUOUS
10
178.3429909999999836
20
-69.1510569999999944
11
178.4260569999999859
21
-69.0679909999999921
0
LINE
8
BLACK
6
CONTINUOUS
10
178.4260569999999859
20
-69.0679909999999921
11
178.5277920000000051
21
-69.0092539999999985
0
LINE
8
BLACK
6
CONTINUOUS
10
178.5277920000000051
20
-69.0092539999999985
11
178.6412629999999808
21
-68.9788499999999942
0
LINE
8
BLACK
6
CONTINUOUS
10
178.6412629999999808
20
-68.9788499999999942
11
178.7587369999999964
21
-68.9788499999999942
0
LINE
8
BLACK
6
CONTINUOUS
10
178.7587369999999964
20
-68.9788499999999942
11
178.8722080000000005
21
-69.0092539999999985
0
LINE
8
BLACK
6
CONTINUOUS
10
193.8722080000000005
20
-69.0092539999999985
11
193.9739429999999913
21
-69.0679909999999921
0
LINE
8
BLACK
6
CONTINUOUS
10
193.9739429999999913
20
-69.0679909999999921
11
194.0570089999999936
21
-69.1510569999999944
0
LINE
8
BLACK
6
CONTINUOUS
10
194.0570089999999936
20
-69.1510569999999944
11
194.1157460000000015
21
-69.2527919999999995
0
LINE
8
BLACK
6
CONTINUOUS
10
194.1157460000000015
20
-69.2527919999999995
11
194.1461499999999774
21
-69.3662630000000036
0
LINE
8
BLACK
6
CONTINUOUS
10
194.1461499999999774
20
-69.3662630000000036
11
194.1461499999999774
21
-69.4837369999999908
0
LINE
8
BLACK
6
CONTINUOUS
10
194.1461499999999774
20
-69.4837369999999908
11
194.1157460000000015
21
-69.5972079999999949
0
LINE
8
BLACK
6
CONTINUOUS
10
194.1157460000000015
20
-69.5972079999999949
11
194.0570089999999936
21
-69.6989429999999999
0
LINE
8
BLACK
6
CONTINUOUS
10
194.0570089999999936
20
-69.6989429999999999
11
193.9739429999999913
21
-69.7820090000000022
0
LINE
8
BLACK
6
CONTINUOUS
10
193.9739429999999913
20
-69.7820090000000022
11
193.8722080000000005
21
-69.8407459999999958
0
LINE
8
BLACK
6
CONTINUOUS
10
193.8722080000000005
20
-69.8407459999999958
11
193.7587369999999964
21
-69.8711500000000001
0
LINE
8
BLACK
6
CONTINUOUS
10
193.7587369999999964
20
-69.8711500000000001
11
193.6412629999999808
21
-69.8711500000000001
0
LINE
8
BLACK
6
CONTINUOUS
10
193.6412629999999808
20
-69.8711500000000001
11
193.5277920000000051
21
-69.8407459999999958
0
LINE
8
BLACK
6
CONTINUOUS
10
193.5277920000000051
20
-69.8407459999999958
11
193.4260569999999859
21
-69.7820090000000022
0
LINE
8
BLACK
6
CONTINUOUS
10
193.4260569999999859
20
-69.7820090000000022
11
193.3429909999999836
21
-69.6989429999999999
0
LINE
8
BLACK
6
CONTINUOUS
10
193.3429909999999836
20
-69.6989429999999999
11
193.2842540000000042
21
-69.5972079999999949
0
LINE
8
BLACK
6
CONTINUOUS
10
193.2842540000000042
20
-69.5972079999999949
11
193.2538499999999999
21
-69.4837369999999908
0
LINE
8
BLACK
6
CONTINUOUS
10
193.2538499999999999
20
-69.4837369999999908
11
193.2538499999999999
21
-69.3662630000000036
0
LINE
8
BLACK
6
CONTINUOUS
10
193.2538499999999999
20
-69.3662630000000036
11
193.2842540000000042
21
-69.2527919999999995
0
LINE
8
BLACK
6
CONTINUOUS
10
193.2842540000000042
20
-69.2527919999999995
11
193.3429909999999836
21
-69.1510569999999944
0
LINE
8
BLACK
6
CONTINUOUS
10
193.3429909999999836
20
-69.1510569999999944
11
193.4260569999999859
21
-69.0679909999999921
0
LINE
8
BLACK
6
CONTINUOUS
10
193.4260569999999859
20
-69.0679909999999921
11
193.5277920000000051
21
-69.0092539999999985
0
LINE
8
BLACK
6
CONTINUOUS
10
193.5277920000000051
20
-69.0092539999999985
11
193.6412629999999808
21
-68.9788499999999942
0
LINE
8
BLACK
6
CONTINUOUS
10
193.6412629999999808
20
-68.9788499999999942
11
193.7587369999999964
21
-68.9788499999999942
0
LINE
8
BLACK
6
CONTINUOUS
10
193.7587369999999964
20
-68.9788499999999942
11
193.8722080000000005
21
-69.0092539999999985
0
LINE
8
BLACK
6
CONTINUOUS
10
210.4222079999999835
20
-69.0092539999999985
11
210.5239430000000027
21
-69.0679909999999921
0
LINE
8
BLACK
6
CONTINUOUS
10
210.5239430000000027
20
-69.0679909999999921
11
210.6070089999999766
21
-69.1510569999999944
0
LINE
8
BLACK
6
CONTINUOUS
10
210.6070089999999766
20
-69.1510569999999944
11
210.6657459999999844
21
-69.2527919999999995
0
LINE
8
BLACK
6
CONTINUOUS
10
210.6657459999999844
20
-69.2527919999999995
11
210.6961499999999887
21
-69.3662630000000036
0
LINE
8
BLACK
6
CONTINUOUS
10
210.6961499999999887
20
-69.3662630000000036
11
210.6961499999999887
21
-69.4837369999999908
0
LINE
8
BLACK
6
CONTINUOUS
10
210.6961499999999887
20
-69.4837369999999908
11
210.6657459999999844
21
-69.5972079999999949
0
LINE
8
BLACK
6
CONTINUOUS
10
210.6657459999999844
20
-69.5972079999999949
11
210.6070089999999766
21
-69.6989429999999999
0
LINE
8
BLACK
6
CONTINUOUS
10
210.6070089999999766
20
-69.6989429999999999
11
210.5239430000000027
21
-69.7820090000000022
0
LINE
8
BLACK
6
CONTINUOUS
10
210.5239430000000027
20
-69.7820090000000022
11
210.4222079999999835
21
-69.8407459999999958
0
LINE
8
BLACK
6
CONTINUOUS
10
210.4222079999999835
20
-69.8407459999999958
11
210.3087369999999794
21
-69.8711500000000001
0
LINE
8
BLACK
6
CONTINUOUS
10
210.3087369999999794
20
-69.8711500000000001
11
210.1912629999999922
21
-69.8711500000000001
0
LINE
8
BLACK
6
CONTINUOUS
10
210.1912629999999922
20
-69.8711500000000001
11
210.0777919999999881
21
-69.8407459999999958
0
LINE
8
BLACK
6
CONTINUOUS
10
210.0777919999999881
20
-69.8407459999999958
11
209.9760569999999973
21
-69.7820090000000022
0
LINE
8
BLACK
6
CONTINUOUS
10
209.9760569999999973
20
-69.7820090000000022
11
209.892990999999995
21
-69.6989429999999999
0
LINE
8
BLACK
6
CONTINUOUS
10
209.892990999999995
20
-69.6989429999999999
11
209.8342539999999872
21
-69.5972079999999949
0
LINE
8
BLACK
6
CONTINUOUS
10
209.8342539999999872
20
-69.5972079999999949
11
209.8038499999999829
21
-69.4837369999999908
0
LINE
8
BLACK
6
CONTINUOUS
10
209.8038499999999829
20
-69.4837369999999908
11
209.8038499999999829
21
-69.3662630000000036
0
LINE
8
BLACK
6
CONTINUOUS
10
209.8038499999999829
20
-69.3662630000000036
11
209.8342539999999872
21
-69.2527919999999995
0
LINE
8
BLACK
6
CONTINUOUS
10
209.8342539999999872
20
-69.2527919999999995
11
209.892990999999995
21
-69.1510569999999944
0
LINE
8
BLACK
6
CONTINUOUS
10
209.892990999999995
20
-69.1510569999999944
11
209.9760569999999973
21
-69.0679909999999921
0
LINE
8
BLACK
6
CONTINUOUS
10
209.9760569999999973
20
-69.0679909999999921
11
210.0777919999999881
21
-69.0092539999999985
0
LINE
8
BLACK
6
CONTINUOUS
10
210.0777919999999881
20
-69.0092539999999985
11
210.1912629999999922
21
-68.9788499999999942
0
LINE
8
BLACK
6
CONTINUOUS
10
210.1912629999999922
20
-68.9788499999999942
11
210.3087369999999794
21
-68.9788499999999942
0
LINE
8
BLACK
6
CONTINUOUS
10
210.3087369999999794
20
-68.9788499999999942
11
210.4222079999999835
21
-69.0092539999999985
0
LINE
8
BLACK
6
CONTINUOUS
10
225.4722079999999949
20
-69.0092539999999985
11
225.5739429999999857
21
-69.0679909999999921
0
LINE
8
BLACK
6
CONTINUOUS
10
225.5739429999999857
20
-69.0679909999999921
11
225.657008999999988
21
-69.1510569999999944
0
LINE
8
BLACK
6
CONTINUOUS
10
225.657008999999988
20
-69.1510569999999944
11
225.7157459999999958
21
-69.2527919999999995
0
LINE
8
BLACK
6
CONTINUOUS
10
225.7157459999999958
20
-69.2527919999999995
11
225.7461500000000001
21
-69.3662630000000036
0
LINE
8
BLACK
6
CONTINUOUS
10
225.7461500000000001
20
-69.3662630000000036
11
225.7461500000000001
21
-69.4837369999999908
0
LINE
8
BLACK
6
CONTINUOUS
10
225.7461500000000001
20
-69.4837369999999908
11
225.7157459999999958
21
-69.5972079999999949
0
LINE
8
BLACK
6
CONTINUOUS
10
225.7157459999999958
20
-69.5972079999999949
11
225.657008999999988
21
-69.6989429999999999
0
LINE
8
BLACK
6
CONTINUOUS
10
225.657008999999988
20
-69.6989429999999999
11
225.5739429999999857
21
-69.7820090000000022
0
LINE
8
BLACK
6
CONTINUOUS
10
225.5739429999999857
20
-69.7820090000000022
11
225.4722079999999949
21
-69.8407459999999958
0
LINE
8
BLACK
6
CONTINUOUS
10
225.4722079999999949
20
-69.8407459999999958
11
225.3587369999999908
21
-69.8711500000000001
0
LINE
8
BLACK
6
CONTINUOUS
10
225.3587369999999908
20
-69.8711500000000001
11
225.2412630000000036
21
-69.8711500000000001
0
LINE
8
BLACK
6
CONTINUOUS
10
225.2412630000000036
20
-69.8711500000000001
11
225.1277919999999995
21
-69.8407459999999958
0
LINE
8
BLACK
6
CONTINUOUS
10
225.1277919999999995
20
-69.8407459999999958
11
225.0260569999999802
21
-69.7820090000000022
0
LINE
8
BLACK
6
CONTINUOUS
10
225.0260569999999802
20
-69.7820090000000022
11
224.9429909999999779
21
-69.6989429999999999
0
LINE
8
BLACK
6
CONTINUOUS
10
224.9429909999999779
20
-69.6989429999999999
11
224.8842539999999985
21
-69.5972079999999949
0
LINE
8
BLACK
6
CONTINUOUS
10
224.8842539999999985
20
-69.5972079999999949
11
224.8538499999999942
21
-69.4837369999999908
0
LINE
8
BLACK
6
CONTINUOUS
10
224.8538499999999942
20
-69.4837369999999908
11
224.8538499999999942
21
-69.3662630000000036
0
LINE
8
BLACK
6
CONTINUOUS
10
224.8538499999999942
20
-69.3662630000000036
11
224.8842539999999985
21
-69.2527919999999995
0
LINE
8
BLACK
6
CONTINUOUS
10
224.8842539999999985
20
-69.2527919999999995
11
224.9429909999999779
21
-69.1510569999999944
0
LINE
8
BLACK
6
CONTINUOUS
10
224.9429909999999779
20
-69.1510569999999944
11
225.0260569999999802
21
-69.0679909999999921
0
LINE
8
BLACK
6
CONTINUOUS
10
225.0260569999999802
20
-69.0679909999999921
11
225.1277919999999995
21
-69.0092539999999985
0
LINE
8
BLACK
6
CONTINUOUS
10
225.1277919999999995
20
-69.0092539999999985
11
225.2412630000000036
21
-68.9788499999999942
0
LINE
8
BLACK
6
CONTINUOUS
10
225.2412630000000036
20
-68.9788499999999942
11
225.3587369999999908
21
-68.9788499999999942
0
LINE
8
BLACK
6
CONTINUOUS
10
225.3587369999999908
20
-68.9788499999999942
11
225.4722079999999949
21
-69.0092539999999985
  0
ENDSEC
  0
EOF
