  0
SECTION
  2
HEADER
  9
$ANGBASE
  50
0.0
  9
$ANGDIR
  70
1
  9
$MEASUREMENT
  70
1
  0
ENDSEC
  0
SECTION
  2
TABLES
  0
TABLE
  2
LTYPE
  70
4
  0
LTYPE
  5
40F
  2
CONTINUOUS
  70
0
  3
Solid line
  72
65
  73
0
  40
0.0
  0
LTYPE
  5
410
  2
DASHDOT
 70
0
  3
Dash Dot ____ _ ____ _
 72
65
 73
4
 40
2.0
 49
1.25
 49
-0.25
 49
0.25
 49
-0.25
  0
LTYPE
  5
411
  2
DASHED
 70
0
  3
Dashed __ __ __ __ __
 72
65
 73
2
 40
0.75
 49
0.5
 49
-0.25
  0
LTYPE
  5
43B
  2
DOTTED
 70
0
  3
Dotted .  .  .  .
 72
65
 73
2
 40
0.2
 49
0.0
 49
-0.2
  0
ENDTAB
  0
TABLE
  2
STYLE
  70
4
  0
STYLE
  2
KICAD
  70
0
  40
0
  41
1
  42
1
  50
0
  71
0
  3
isocp.shx
  0
STYLE
  2
KICADB
  70
0
  40
0
  41
1
  42
1
  50
0
  71
0
  3
isocp.shx
  0
STYLE
  2
KICADI
  70
0
  40
0
  41
1
  42
1
  50
15
  71
0
  3
isocp.shx
  0
STYLE
  2
KICADBI
  70
0
  40
0
  41
1
  42
1
  50
15
  71
0
  3
isocp.shx
  0
ENDTAB
  0
TABLE
  2
LAYER
  70
1
  0
LAYER
  2
BLACK
  70
0
  62
7
  6
CONTINUOUS
  0
ENDTAB
  0
ENDSEC
  0
SECTION
  2
ENTITIES
0
LINE
8
BLACK
6
CONTINUOUS
10
174.4722079999999949
20
-97.6842539999999957
11
174.5739429999999857
21
-97.7429909999999893
0
LINE
8
BLACK
6
CONTINUOUS
10
174.5739429999999857
20
-97.7429909999999893
11
174.657008999999988
21
-97.8260569999999916
0
LINE
8
BLACK
6
CONTINUOUS
10
174.657008999999988
20
-97.8260569999999916
11
174.7157459999999958
21
-97.9277919999999966
0
LINE
8
BLACK
6
CONTINUOUS
10
174.7157459999999958
20
-97.9277919999999966
11
174.7461500000000001
21
-98.0412630000000007
0
LINE
8
BLACK
6
CONTINUOUS
10
174.7461500000000001
20
-98.0412630000000007
11
174.7461500000000001
21
-98.1587370000000021
0
LINE
8
BLACK
6
CONTINUOUS
10
174.7461500000000001
20
-98.1587370000000021
11
174.7157459999999958
21
-98.272207999999992
0
LINE
8
BLACK
6
CONTINUOUS
10
174.7157459999999958
20
-98.272207999999992
11
174.657008999999988
21
-98.373942999999997
0
LINE
8
BLACK
6
CONTINUOUS
10
174.657008999999988
20
-98.373942999999997
11
174.5739429999999857
21
-98.4570089999999993
0
LINE
8
BLACK
6
CONTINUOUS
10
174.5739429999999857
20
-98.4570089999999993
11
174.4722079999999949
21
-98.5157459999999929
0
LINE
8
BLACK
6
CONTINUOUS
10
174.4722079999999949
20
-98.5157459999999929
11
174.3587369999999908
21
-98.5461499999999972
0
LINE
8
BLACK
6
CONTINUOUS
10
174.3587369999999908
20
-98.5461499999999972
11
174.2412630000000036
21
-98.5461499999999972
0
LINE
8
BLACK
6
CONTINUOUS
10
174.2412630000000036
20
-98.5461499999999972
11
174.1277919999999995
21
-98.5157459999999929
0
LINE
8
BLACK
6
CONTINUOUS
10
174.1277919999999995
20
-98.5157459999999929
11
174.0260569999999802
21
-98.4570089999999993
0
LINE
8
BLACK
6
CONTINUOUS
10
174.0260569999999802
20
-98.4570089999999993
11
173.9429909999999779
21
-98.373942999999997
0
LINE
8
BLACK
6
CONTINUOUS
10
173.9429909999999779
20
-98.373942999999997
11
173.8842539999999985
21
-98.272207999999992
0
LINE
8
BLACK
6
CONTINUOUS
10
173.8842539999999985
20
-98.272207999999992
11
173.8538499999999942
21
-98.1587370000000021
0
LINE
8
BLACK
6
CONTINUOUS
10
173.8538499999999942
20
-98.1587370000000021
11
173.8538499999999942
21
-98.0412630000000007
0
LINE
8
BLACK
6
CONTINUOUS
10
173.8538499999999942
20
-98.0412630000000007
11
173.8842539999999985
21
-97.9277919999999966
0
LINE
8
BLACK
6
CONTINUOUS
10
173.8842539999999985
20
-97.9277919999999966
11
173.9429909999999779
21
-97.8260569999999916
0
LINE
8
BLACK
6
CONTINUOUS
10
173.9429909999999779
20
-97.8260569999999916
11
174.0260569999999802
21
-97.7429909999999893
0
LINE
8
BLACK
6
CONTINUOUS
10
174.0260569999999802
20
-97.7429909999999893
11
174.1277919999999995
21
-97.6842539999999957
0
LINE
8
BLACK
6
CONTINUOUS
10
174.1277919999999995
20
-97.6842539999999957
11
174.2412630000000036
21
-97.6538499999999914
0
LINE
8
BLACK
6
CONTINUOUS
10
174.2412630000000036
20
-97.6538499999999914
11
174.3587369999999908
21
-97.6538499999999914
0
LINE
8
BLACK
6
CONTINUOUS
10
174.3587369999999908
20
-97.6538499999999914
11
174.4722079999999949
21
-97.6842539999999957
0
LINE
8
BLACK
6
CONTINUOUS
10
174.4722079999999949
20
-94.6842539999999957
11
174.5739429999999857
21
-94.7429909999999893
0
LINE
8
BLACK
6
CONTINUOUS
10
174.5739429999999857
20
-94.7429909999999893
11
174.657008999999988
21
-94.8260569999999916
0
LINE
8
BLACK
6
CONTINUOUS
10
174.657008999999988
20
-94.8260569999999916
11
174.7157459999999958
21
-94.9277919999999966
0
LINE
8
BLACK
6
CONTINUOUS
10
174.7157459999999958
20
-94.9277919999999966
11
174.7461500000000001
21
-95.0412630000000007
0
LINE
8
BLACK
6
CONTINUOUS
10
174.7461500000000001
20
-95.0412630000000007
11
174.7461500000000001
21
-95.1587370000000021
0
LINE
8
BLACK
6
CONTINUOUS
10
174.7461500000000001
20
-95.1587370000000021
11
174.7157459999999958
21
-95.272207999999992
0
LINE
8
BLACK
6
CONTINUOUS
10
174.7157459999999958
20
-95.272207999999992
11
174.657008999999988
21
-95.373942999999997
0
LINE
8
BLACK
6
CONTINUOUS
10
174.657008999999988
20
-95.373942999999997
11
174.5739429999999857
21
-95.4570089999999993
0
LINE
8
BLACK
6
CONTINUOUS
10
174.5739429999999857
20
-95.4570089999999993
11
174.4722079999999949
21
-95.5157459999999929
0
LINE
8
BLACK
6
CONTINUOUS
10
174.4722079999999949
20
-95.5157459999999929
11
174.3587369999999908
21
-95.5461499999999972
0
LINE
8
BLACK
6
CONTINUOUS
10
174.3587369999999908
20
-95.5461499999999972
11
174.2412630000000036
21
-95.5461499999999972
0
LINE
8
BLACK
6
CONTINUOUS
10
174.2412630000000036
20
-95.5461499999999972
11
174.1277919999999995
21
-95.5157459999999929
0
LINE
8
BLACK
6
CONTINUOUS
10
174.1277919999999995
20
-95.5157459999999929
11
174.0260569999999802
21
-95.4570089999999993
0
LINE
8
BLACK
6
CONTINUOUS
10
174.0260569999999802
20
-95.4570089999999993
11
173.9429909999999779
21
-95.373942999999997
0
LINE
8
BLACK
6
CONTINUOUS
10
173.9429909999999779
20
-95.373942999999997
11
173.8842539999999985
21
-95.272207999999992
0
LINE
8
BLACK
6
CONTINUOUS
10
173.8842539999999985
20
-95.272207999999992
11
173.8538499999999942
21
-95.1587370000000021
0
LINE
8
BLACK
6
CONTINUOUS
10
173.8538499999999942
20
-95.1587370000000021
11
173.8538499999999942
21
-95.0412630000000007
0
LINE
8
BLACK
6
CONTINUOUS
10
173.8538499999999942
20
-95.0412630000000007
11
173.8842539999999985
21
-94.9277919999999966
0
LINE
8
BLACK
6
CONTINUOUS
10
173.8842539999999985
20
-94.9277919999999966
11
173.9429909999999779
21
-94.8260569999999916
0
LINE
8
BLACK
6
CONTINUOUS
10
173.9429909999999779
20
-94.8260569999999916
11
174.0260569999999802
21
-94.7429909999999893
0
LINE
8
BLACK
6
CONTINUOUS
10
174.0260569999999802
20
-94.7429909999999893
11
174.1277919999999995
21
-94.6842539999999957
0
LINE
8
BLACK
6
CONTINUOUS
10
174.1277919999999995
20
-94.6842539999999957
11
174.2412630000000036
21
-94.6538499999999914
0
LINE
8
BLACK
6
CONTINUOUS
10
174.2412630000000036
20
-94.6538499999999914
11
174.3587369999999908
21
-94.6538499999999914
0
LINE
8
BLACK
6
CONTINUOUS
10
174.3587369999999908
20
-94.6538499999999914
11
174.4722079999999949
21
-94.6842539999999957
0
LINE
8
BLACK
6
CONTINUOUS
10
174.2722080000000062
20
-78.6092539999999929
11
174.373942999999997
21
-78.6679910000000007
0
LINE
8
BLACK
6
CONTINUOUS
10
174.373942999999997
20
-78.6679910000000007
11
174.4570089999999993
21
-78.751057000000003
0
LINE
8
BLACK
6
CONTINUOUS
10
174.4570089999999993
20
-78.751057000000003
11
174.5157459999999787
21
-78.8527919999999938
0
LINE
8
BLACK
6
CONTINUOUS
10
174.5157459999999787
20
-78.8527919999999938
11
174.546149999999983
21
-78.9662629999999979
0
LINE
8
BLACK
6
CONTINUOUS
10
174.546149999999983
20
-78.9662629999999979
11
174.546149999999983
21
-79.0837369999999993
0
LINE
8
BLACK
6
CONTINUOUS
10
174.546149999999983
20
-79.0837369999999993
11
174.5157459999999787
21
-79.1972080000000034
0
LINE
8
BLACK
6
CONTINUOUS
10
174.5157459999999787
20
-79.1972080000000034
11
174.4570089999999993
21
-79.2989429999999942
0
LINE
8
BLACK
6
CONTINUOUS
10
174.4570089999999993
20
-79.2989429999999942
11
174.373942999999997
21
-79.3820089999999965
0
LINE
8
BLACK
6
CONTINUOUS
10
174.373942999999997
20
-79.3820089999999965
11
174.2722080000000062
21
-79.4407459999999901
0
LINE
8
BLACK
6
CONTINUOUS
10
174.2722080000000062
20
-79.4407459999999901
11
174.1587370000000021
21
-79.4711499999999944
0
LINE
8
BLACK
6
CONTINUOUS
10
174.1587370000000021
20
-79.4711499999999944
11
174.0412629999999865
21
-79.4711499999999944
0
LINE
8
BLACK
6
CONTINUOUS
10
174.0412629999999865
20
-79.4711499999999944
11
173.9277919999999824
21
-79.4407459999999901
0
LINE
8
BLACK
6
CONTINUOUS
10
173.9277919999999824
20
-79.4407459999999901
11
173.8260569999999916
21
-79.3820089999999965
0
LINE
8
BLACK
6
CONTINUOUS
10
173.8260569999999916
20
-79.3820089999999965
11
173.7429909999999893
21
-79.2989429999999942
0
LINE
8
BLACK
6
CONTINUOUS
10
173.7429909999999893
20
-79.2989429999999942
11
173.6842539999999815
21
-79.1972080000000034
0
LINE
8
BLACK
6
CONTINUOUS
10
173.6842539999999815
20
-79.1972080000000034
11
173.6538500000000056
21
-79.0837369999999993
0
LINE
8
BLACK
6
CONTINUOUS
10
173.6538500000000056
20
-79.0837369999999993
11
173.6538500000000056
21
-78.9662629999999979
0
LINE
8
BLACK
6
CONTINUOUS
10
173.6538500000000056
20
-78.9662629999999979
11
173.6842539999999815
21
-78.8527919999999938
0
LINE
8
BLACK
6
CONTINUOUS
10
173.6842539999999815
20
-78.8527919999999938
11
173.7429909999999893
21
-78.751057000000003
0
LINE
8
BLACK
6
CONTINUOUS
10
173.7429909999999893
20
-78.751057000000003
11
173.8260569999999916
21
-78.6679910000000007
0
LINE
8
BLACK
6
CONTINUOUS
10
173.8260569999999916
20
-78.6679910000000007
11
173.9277919999999824
21
-78.6092539999999929
0
LINE
8
BLACK
6
CONTINUOUS
10
173.9277919999999824
20
-78.6092539999999929
11
174.0412629999999865
21
-78.5788500000000028
0
LINE
8
BLACK
6
CONTINUOUS
10
174.0412629999999865
20
-78.5788500000000028
11
174.1587370000000021
21
-78.5788500000000028
0
LINE
8
BLACK
6
CONTINUOUS
10
174.1587370000000021
20
-78.5788500000000028
11
174.2722080000000062
21
-78.6092539999999929
0
LINE
8
BLACK
6
CONTINUOUS
10
177.0222079999999778
20
-78.6092539999999929
11
177.123942999999997
21
-78.6679910000000007
0
LINE
8
BLACK
6
CONTINUOUS
10
177.123942999999997
20
-78.6679910000000007
11
177.2070089999999993
21
-78.751057000000003
0
LINE
8
BLACK
6
CONTINUOUS
10
177.2070089999999993
20
-78.751057000000003
11
177.2657459999999787
21
-78.8527919999999938
0
LINE
8
BLACK
6
CONTINUOUS
10
177.2657459999999787
20
-78.8527919999999938
11
177.296149999999983
21
-78.9662629999999979
0
LINE
8
BLACK
6
CONTINUOUS
10
177.296149999999983
20
-78.9662629999999979
11
177.296149999999983
21
-79.0837369999999993
0
LINE
8
BLACK
6
CONTINUOUS
10
177.296149999999983
20
-79.0837369999999993
11
177.2657459999999787
21
-79.1972080000000034
0
LINE
8
BLACK
6
CONTINUOUS
10
177.2657459999999787
20
-79.1972080000000034
11
177.2070089999999993
21
-79.2989429999999942
0
LINE
8
BLACK
6
CONTINUOUS
10
177.2070089999999993
20
-79.2989429999999942
11
177.123942999999997
21
-79.3820089999999965
0
LINE
8
BLACK
6
CONTINUOUS
10
177.123942999999997
20
-79.3820089999999965
11
177.0222079999999778
21
-79.4407459999999901
0
LINE
8
BLACK
6
CONTINUOUS
10
177.0222079999999778
20
-79.4407459999999901
11
176.9087370000000021
21
-79.4711499999999944
0
LINE
8
BLACK
6
CONTINUOUS
10
176.9087370000000021
20
-79.4711499999999944
11
176.7912629999999865
21
-79.4711499999999944
0
LINE
8
BLACK
6
CONTINUOUS
10
176.7912629999999865
20
-79.4711499999999944
11
176.6777919999999824
21
-79.4407459999999901
0
LINE
8
BLACK
6
CONTINUOUS
10
176.6777919999999824
20
-79.4407459999999901
11
176.5760569999999916
21
-79.3820089999999965
0
LINE
8
BLACK
6
CONTINUOUS
10
176.5760569999999916
20
-79.3820089999999965
11
176.4929909999999893
21
-79.2989429999999942
0
LINE
8
BLACK
6
CONTINUOUS
10
176.4929909999999893
20
-79.2989429999999942
11
176.4342539999999815
21
-79.1972080000000034
0
LINE
8
BLACK
6
CONTINUOUS
10
176.4342539999999815
20
-79.1972080000000034
11
176.4038500000000056
21
-79.0837369999999993
0
LINE
8
BLACK
6
CONTINUOUS
10
176.4038500000000056
20
-79.0837369999999993
11
176.4038500000000056
21
-78.9662629999999979
0
LINE
8
BLACK
6
CONTINUOUS
10
176.4038500000000056
20
-78.9662629999999979
11
176.4342539999999815
21
-78.8527919999999938
0
LINE
8
BLACK
6
CONTINUOUS
10
176.4342539999999815
20
-78.8527919999999938
11
176.4929909999999893
21
-78.751057000000003
0
LINE
8
BLACK
6
CONTINUOUS
10
176.4929909999999893
20
-78.751057000000003
11
176.5760569999999916
21
-78.6679910000000007
0
LINE
8
BLACK
6
CONTINUOUS
10
176.5760569999999916
20
-78.6679910000000007
11
176.6777919999999824
21
-78.6092539999999929
0
LINE
8
BLACK
6
CONTINUOUS
10
176.6777919999999824
20
-78.6092539999999929
11
176.7912629999999865
21
-78.5788500000000028
0
LINE
8
BLACK
6
CONTINUOUS
10
176.7912629999999865
20
-78.5788500000000028
11
176.9087370000000021
21
-78.5788500000000028
0
LINE
8
BLACK
6
CONTINUOUS
10
176.9087370000000021
20
-78.5788500000000028
11
177.0222079999999778
21
-78.6092539999999929
0
LINE
8
BLACK
6
CONTINUOUS
10
178.8722080000000005
20
-71.7592539999999985
11
178.9739429999999913
21
-71.8179909999999921
0
LINE
8
BLACK
6
CONTINUOUS
10
178.9739429999999913
20
-71.8179909999999921
11
179.0570089999999936
21
-71.9010569999999944
0
LINE
8
BLACK
6
CONTINUOUS
10
179.0570089999999936
20
-71.9010569999999944
11
179.1157460000000015
21
-72.0027919999999995
0
LINE
8
BLACK
6
CONTINUOUS
10
179.1157460000000015
20
-72.0027919999999995
11
179.1461500000000058
21
-72.1162630000000036
0
LINE
8
BLACK
6
CONTINUOUS
10
179.1461500000000058
20
-72.1162630000000036
11
179.1461500000000058
21
-72.2337369999999908
0
LINE
8
BLACK
6
CONTINUOUS
10
179.1461500000000058
20
-72.2337369999999908
11
179.1157460000000015
21
-72.3472079999999949
0
LINE
8
BLACK
6
CONTINUOUS
10
179.1157460000000015
20
-72.3472079999999949
11
179.0570089999999936
21
-72.4489429999999999
0
LINE
8
BLACK
6
CONTINUOUS
10
179.0570089999999936
20
-72.4489429999999999
11
178.9739429999999913
21
-72.5320090000000022
0
LINE
8
BLACK
6
CONTINUOUS
10
178.9739429999999913
20
-72.5320090000000022
11
178.8722080000000005
21
-72.5907459999999958
0
LINE
8
BLACK
6
CONTINUOUS
10
178.8722080000000005
20
-72.5907459999999958
11
178.7587369999999964
21
-72.6211500000000001
0
LINE
8
BLACK
6
CONTINUOUS
10
178.7587369999999964
20
-72.6211500000000001
11
178.6412629999999808
21
-72.6211500000000001
0
LINE
8
BLACK
6
CONTINUOUS
10
178.6412629999999808
20
-72.6211500000000001
11
178.5277920000000051
21
-72.5907459999999958
0
LINE
8
BLACK
6
CONTINUOUS
10
178.5277920000000051
20
-72.5907459999999958
11
178.4260569999999859
21
-72.5320090000000022
0
LINE
8
BLACK
6
CONTINUOUS
10
178.4260569999999859
20
-72.5320090000000022
11
178.3429909999999836
21
-72.4489429999999999
0
LINE
8
BLACK
6
CONTINUOUS
10
178.3429909999999836
20
-72.4489429999999999
11
178.2842540000000042
21
-72.3472079999999949
0
LINE
8
BLACK
6
CONTINUOUS
10
178.2842540000000042
20
-72.3472079999999949
11
178.2538499999999999
21
-72.2337369999999908
0
LINE
8
BLACK
6
CONTINUOUS
10
178.2538499999999999
20
-72.2337369999999908
11
178.2538499999999999
21
-72.1162630000000036
0
LINE
8
BLACK
6
CONTINUOUS
10
178.2538499999999999
20
-72.1162630000000036
11
178.2842540000000042
21
-72.0027919999999995
0
LINE
8
BLACK
6
CONTINUOUS
10
178.2842540000000042
20
-72.0027919999999995
11
178.3429909999999836
21
-71.9010569999999944
0
LINE
8
BLACK
6
CONTINUOUS
10
178.3429909999999836
20
-71.9010569999999944
11
178.4260569999999859
21
-71.8179909999999921
0
LINE
8
BLACK
6
CONTINUOUS
10
178.4260569999999859
20
-71.8179909999999921
11
178.5277920000000051
21
-71.7592539999999985
0
LINE
8
BLACK
6
CONTINUOUS
10
178.5277920000000051
20
-71.7592539999999985
11
178.6412629999999808
21
-71.7288499999999942
0
LINE
8
BLACK
6
CONTINUOUS
10
178.6412629999999808
20
-71.7288499999999942
11
178.7587369999999964
21
-71.7288499999999942
0
LINE
8
BLACK
6
CONTINUOUS
10
178.7587369999999964
20
-71.7288499999999942
11
178.8722080000000005
21
-71.7592539999999985
0
LINE
8
BLACK
6
CONTINUOUS
10
193.8722080000000005
20
-71.7592539999999985
11
193.9739429999999913
21
-71.8179909999999921
0
LINE
8
BLACK
6
CONTINUOUS
10
193.9739429999999913
20
-71.8179909999999921
11
194.0570089999999936
21
-71.9010569999999944
0
LINE
8
BLACK
6
CONTINUOUS
10
194.0570089999999936
20
-71.9010569999999944
11
194.1157460000000015
21
-72.0027919999999995
0
LINE
8
BLACK
6
CONTINUOUS
10
194.1157460000000015
20
-72.0027919999999995
11
194.1461499999999774
21
-72.1162630000000036
0
LINE
8
BLACK
6
CONTINUOUS
10
194.1461499999999774
20
-72.1162630000000036
11
194.1461499999999774
21
-72.2337369999999908
0
LINE
8
BLACK
6
CONTINUOUS
10
194.1461499999999774
20
-72.2337369999999908
11
194.1157460000000015
21
-72.3472079999999949
0
LINE
8
BLACK
6
CONTINUOUS
10
194.1157460000000015
20
-72.3472079999999949
11
194.0570089999999936
21
-72.4489429999999999
0
LINE
8
BLACK
6
CONTINUOUS
10
194.0570089999999936
20
-72.4489429999999999
11
193.9739429999999913
21
-72.5320090000000022
0
LINE
8
BLACK
6
CONTINUOUS
10
193.9739429999999913
20
-72.5320090000000022
11
193.8722080000000005
21
-72.5907459999999958
0
LINE
8
BLACK
6
CONTINUOUS
10
193.8722080000000005
20
-72.5907459999999958
11
193.7587369999999964
21
-72.6211500000000001
0
LINE
8
BLACK
6
CONTINUOUS
10
193.7587369999999964
20
-72.6211500000000001
11
193.6412629999999808
21
-72.6211500000000001
0
LINE
8
BLACK
6
CONTINUOUS
10
193.6412629999999808
20
-72.6211500000000001
11
193.5277920000000051
21
-72.5907459999999958
0
LINE
8
BLACK
6
CONTINUOUS
10
193.5277920000000051
20
-72.5907459999999958
11
193.4260569999999859
21
-72.5320090000000022
0
LINE
8
BLACK
6
CONTINUOUS
10
193.4260569999999859
20
-72.5320090000000022
11
193.3429909999999836
21
-72.4489429999999999
0
LINE
8
BLACK
6
CONTINUOUS
10
193.3429909999999836
20
-72.4489429999999999
11
193.2842540000000042
21
-72.3472079999999949
0
LINE
8
BLACK
6
CONTINUOUS
10
193.2842540000000042
20
-72.3472079999999949
11
193.2538499999999999
21
-72.2337369999999908
0
LINE
8
BLACK
6
CONTINUOUS
10
193.2538499999999999
20
-72.2337369999999908
11
193.2538499999999999
21
-72.1162630000000036
0
LINE
8
BLACK
6
CONTINUOUS
10
193.2538499999999999
20
-72.1162630000000036
11
193.2842540000000042
21
-72.0027919999999995
0
LINE
8
BLACK
6
CONTINUOUS
10
193.2842540000000042
20
-72.0027919999999995
11
193.3429909999999836
21
-71.9010569999999944
0
LINE
8
BLACK
6
CONTINUOUS
10
193.3429909999999836
20
-71.9010569999999944
11
193.4260569999999859
21
-71.8179909999999921
0
LINE
8
BLACK
6
CONTINUOUS
10
193.4260569999999859
20
-71.8179909999999921
11
193.5277920000000051
21
-71.7592539999999985
0
LINE
8
BLACK
6
CONTINUOUS
10
193.5277920000000051
20
-71.7592539999999985
11
193.6412629999999808
21
-71.7288499999999942
0
LINE
8
BLACK
6
CONTINUOUS
10
193.6412629999999808
20
-71.7288499999999942
11
193.7587369999999964
21
-71.7288499999999942
0
LINE
8
BLACK
6
CONTINUOUS
10
193.7587369999999964
20
-71.7288499999999942
11
193.8722080000000005
21
-71.7592539999999985
0
LINE
8
BLACK
6
CONTINUOUS
10
210.4222079999999835
20
-71.7592539999999985
11
210.5239430000000027
21
-71.8179909999999921
0
LINE
8
BLACK
6
CONTINUOUS
10
210.5239430000000027
20
-71.8179909999999921
11
210.6070089999999766
21
-71.9010569999999944
0
LINE
8
BLACK
6
CONTINUOUS
10
210.6070089999999766
20
-71.9010569999999944
11
210.6657459999999844
21
-72.0027919999999995
0
LINE
8
BLACK
6
CONTINUOUS
10
210.6657459999999844
20
-72.0027919999999995
11
210.6961499999999887
21
-72.1162630000000036
0
LINE
8
BLACK
6
CONTINUOUS
10
210.6961499999999887
20
-72.1162630000000036
11
210.6961499999999887
21
-72.2337369999999908
0
LINE
8
BLACK
6
CONTINUOUS
10
210.6961499999999887
20
-72.2337369999999908
11
210.6657459999999844
21
-72.3472079999999949
0
LINE
8
BLACK
6
CONTINUOUS
10
210.6657459999999844
20
-72.3472079999999949
11
210.6070089999999766
21
-72.4489429999999999
0
LINE
8
BLACK
6
CONTINUOUS
10
210.6070089999999766
20
-72.4489429999999999
11
210.5239430000000027
21
-72.5320090000000022
0
LINE
8
BLACK
6
CONTINUOUS
10
210.5239430000000027
20
-72.5320090000000022
11
210.4222079999999835
21
-72.5907459999999958
0
LINE
8
BLACK
6
CONTINUOUS
10
210.4222079999999835
20
-72.5907459999999958
11
210.3087369999999794
21
-72.6211500000000001
0
LINE
8
BLACK
6
CONTINUOUS
10
210.3087369999999794
20
-72.6211500000000001
11
210.1912629999999922
21
-72.6211500000000001
0
LINE
8
BLACK
6
CONTINUOUS
10
210.1912629999999922
20
-72.6211500000000001
11
210.0777919999999881
21
-72.5907459999999958
0
LINE
8
BLACK
6
CONTINUOUS
10
210.0777919999999881
20
-72.5907459999999958
11
209.9760569999999973
21
-72.5320090000000022
0
LINE
8
BLACK
6
CONTINUOUS
10
209.9760569999999973
20
-72.5320090000000022
11
209.892990999999995
21
-72.4489429999999999
0
LINE
8
BLACK
6
CONTINUOUS
10
209.892990999999995
20
-72.4489429999999999
11
209.8342539999999872
21
-72.3472079999999949
0
LINE
8
BLACK
6
CONTINUOUS
10
209.8342539999999872
20
-72.3472079999999949
11
209.8038499999999829
21
-72.2337369999999908
0
LINE
8
BLACK
6
CONTINUOUS
10
209.8038499999999829
20
-72.2337369999999908
11
209.8038499999999829
21
-72.1162630000000036
0
LINE
8
BLACK
6
CONTINUOUS
10
209.8038499999999829
20
-72.1162630000000036
11
209.8342539999999872
21
-72.0027919999999995
0
LINE
8
BLACK
6
CONTINUOUS
10
209.8342539999999872
20
-72.0027919999999995
11
209.892990999999995
21
-71.9010569999999944
0
LINE
8
BLACK
6
CONTINUOUS
10
209.892990999999995
20
-71.9010569999999944
11
209.9760569999999973
21
-71.8179909999999921
0
LINE
8
BLACK
6
CONTINUOUS
10
209.9760569999999973
20
-71.8179909999999921
11
210.0777919999999881
21
-71.7592539999999985
0
LINE
8
BLACK
6
CONTINUOUS
10
210.0777919999999881
20
-71.7592539999999985
11
210.1912629999999922
21
-71.7288499999999942
0
LINE
8
BLACK
6
CONTINUOUS
10
210.1912629999999922
20
-71.7288499999999942
11
210.3087369999999794
21
-71.7288499999999942
0
LINE
8
BLACK
6
CONTINUOUS
10
210.3087369999999794
20
-71.7288499999999942
11
210.4222079999999835
21
-71.7592539999999985
0
LINE
8
BLACK
6
CONTINUOUS
10
225.4722079999999949
20
-71.7592539999999985
11
225.5739429999999857
21
-71.8179909999999921
0
LINE
8
BLACK
6
CONTINUOUS
10
225.5739429999999857
20
-71.8179909999999921
11
225.657008999999988
21
-71.9010569999999944
0
LINE
8
BLACK
6
CONTINUOUS
10
225.657008999999988
20
-71.9010569999999944
11
225.7157459999999958
21
-72.0027919999999995
0
LINE
8
BLACK
6
CONTINUOUS
10
225.7157459999999958
20
-72.0027919999999995
11
225.7461500000000001
21
-72.1162630000000036
0
LINE
8
BLACK
6
CONTINUOUS
10
225.7461500000000001
20
-72.1162630000000036
11
225.7461500000000001
21
-72.2337369999999908
0
LINE
8
BLACK
6
CONTINUOUS
10
225.7461500000000001
20
-72.2337369999999908
11
225.7157459999999958
21
-72.3472079999999949
0
LINE
8
BLACK
6
CONTINUOUS
10
225.7157459999999958
20
-72.3472079999999949
11
225.657008999999988
21
-72.4489429999999999
0
LINE
8
BLACK
6
CONTINUOUS
10
225.657008999999988
20
-72.4489429999999999
11
225.5739429999999857
21
-72.5320090000000022
0
LINE
8
BLACK
6
CONTINUOUS
10
225.5739429999999857
20
-72.5320090000000022
11
225.4722079999999949
21
-72.5907459999999958
0
LINE
8
BLACK
6
CONTINUOUS
10
225.4722079999999949
20
-72.5907459999999958
11
225.3587369999999908
21
-72.6211500000000001
0
LINE
8
BLACK
6
CONTINUOUS
10
225.3587369999999908
20
-72.6211500000000001
11
225.2412630000000036
21
-72.6211500000000001
0
LINE
8
BLACK
6
CONTINUOUS
10
225.2412630000000036
20
-72.6211500000000001
11
225.1277919999999995
21
-72.5907459999999958
0
LINE
8
BLACK
6
CONTINUOUS
10
225.1277919999999995
20
-72.5907459999999958
11
225.0260569999999802
21
-72.5320090000000022
0
LINE
8
BLACK
6
CONTINUOUS
10
225.0260569999999802
20
-72.5320090000000022
11
224.9429909999999779
21
-72.4489429999999999
0
LINE
8
BLACK
6
CONTINUOUS
10
224.9429909999999779
20
-72.4489429999999999
11
224.8842539999999985
21
-72.3472079999999949
0
LINE
8
BLACK
6
CONTINUOUS
10
224.8842539999999985
20
-72.3472079999999949
11
224.8538499999999942
21
-72.2337369999999908
0
LINE
8
BLACK
6
CONTINUOUS
10
224.8538499999999942
20
-72.2337369999999908
11
224.8538499999999942
21
-72.1162630000000036
0
LINE
8
BLACK
6
CONTINUOUS
10
224.8538499999999942
20
-72.1162630000000036
11
224.8842539999999985
21
-72.0027919999999995
0
LINE
8
BLACK
6
CONTINUOUS
10
224.8842539999999985
20
-72.0027919999999995
11
224.9429909999999779
21
-71.9010569999999944
0
LINE
8
BLACK
6
CONTINUOUS
10
224.9429909999999779
20
-71.9010569999999944
11
225.0260569999999802
21
-71.8179909999999921
0
LINE
8
BLACK
6
CONTINUOUS
10
225.0260569999999802
20
-71.8179909999999921
11
225.1277919999999995
21
-71.7592539999999985
0
LINE
8
BLACK
6
CONTINUOUS
10
225.1277919999999995
20
-71.7592539999999985
11
225.2412630000000036
21
-71.7288499999999942
0
LINE
8
BLACK
6
CONTINUOUS
10
225.2412630000000036
20
-71.7288499999999942
11
225.3587369999999908
21
-71.7288499999999942
0
LINE
8
BLACK
6
CONTINUOUS
10
225.3587369999999908
20
-71.7288499999999942
11
225.4722079999999949
21
-71.7592539999999985
0
LINE
8
BLACK
6
CONTINUOUS
10
178.8722080000000005
20
-69.0092539999999985
11
178.9739429999999913
21
-69.0679909999999921
0
LINE
8
BLACK
6
CONTINUOUS
10
178.9739429999999913
20
-69.0679909999999921
11
179.0570089999999936
21
-69.1510569999999944
0
LINE
8
BLACK
6
CONTINUOUS
10
179.0570089999999936
20
-69.1510569999999944
11
179.1157460000000015
21
-69.2527919999999995
0
LINE
8
BLACK
6
CONTINUOUS
10
179.1157460000000015
20
-69.2527919999999995
11
179.1461500000000058
21
-69.3662630000000036
0
LINE
8
BLACK
6
CONTINUOUS
10
179.1461500000000058
20
-69.3662630000000036
11
179.1461500000000058
21
-69.4837369999999908
0
LINE
8
BLACK
6
CONTINUOUS
10
179.1461500000000058
20
-69.4837369999999908
11
179.1157460000000015
21
-69.5972079999999949
0
LINE
8
BLACK
6
CONTINUOUS
10
179.1157460000000015
20
-69.5972079999999949
11
179.0570089999999936
21
-69.6989429999999999
0
LINE
8
BLACK
6
CONTINUOUS
10
179.0570089999999936
20
-69.6989429999999999
11
178.9739429999999913
21
-69.7820090000000022
0
LINE
8
BLACK
6
CONTINUOUS
10
178.9739429999999913
20
-69.7820090000000022
11
178.8722080000000005
21
-69.8407459999999958
0
LINE
8
BLACK
6
CONTINUOUS
10
178.8722080000000005
20
-69.8407459999999958
11
178.7587369999999964
21
-69.8711500000000001
0
LINE
8
BLACK
6
CONTINUOUS
10
178.7587369999999964
20
-69.8711500000000001
11
178.6412629999999808
21
-69.8711500000000001
0
LINE
8
BLACK
6
CONTINUOUS
10
178.6412629999999808
20
-69.8711500000000001
11
178.5277920000000051
21
-69.8407459999999958
0
LINE
8
BLACK
6
CONTINUOUS
10
178.5277920000000051
20
-69.8407459999999958
11
178.4260569999999859
21
-69.7820090000000022
0
LINE
8
BLACK
6
CONTINUOUS
10
178.4260569999999859
20
-69.7820090000000022
11
178.3429909999999836
21
-69.6989429999999999
0
LINE
8
BLACK
6
CONTINUOUS
10
178.3429909999999836
20
-69.6989429999999999
11
178.2842540000000042
21
-69.5972079999999949
0
LINE
8
BLACK
6
CONTINUOUS
10
178.2842540000000042
20
-69.5972079999999949
11
178.2538499999999999
21
-69.4837369999999908
0
LINE
8
BLACK
6
CONTINUOUS
10
178.2538499999999999
20
-69.4837369999999908
11
178.2538499999999999
21
-69.3662630000000036
0
LINE
8
BLACK
6
CONTINUOUS
10
178.2538499999999999
20
-69.3662630000000036
11
178.2842540000000042
21
-69.2527919999999995
0
LINE
8
BLACK
6
CONTINUOUS
10
178.2842540000000042
20
-69.2527919999999995
11
178.3429909999999836
21
-69.1510569999999944
0
LINE
8
BLACK
6
CONTINUOUS
10
178.3429909999999836
20
-69.1510569999999944
11
178.4260569999999859
21
-69.0679909999999921
0
LINE
8
BLACK
6
CONTINUOUS
10
178.4260569999999859
20
-69.0679909999999921
11
178.5277920000000051
21
-69.0092539999999985
0
LINE
8
BLACK
6
CONTINUOUS
10
178.5277920000000051
20
-69.0092539999999985
11
178.6412629999999808
21
-68.9788499999999942
0
LINE
8
BLACK
6
CONTINUOUS
10
178.6412629999999808
20
-68.9788499999999942
11
178.7587369999999964
21
-68.9788499999999942
0
LINE
8
BLACK
6
CONTINUOUS
10
178.7587369999999964
20
-68.9788499999999942
11
178.8722080000000005
21
-69.0092539999999985
0
LINE
8
BLACK
6
CONTINUOUS
10
193.8722080000000005
20
-69.0092539999999985
11
193.9739429999999913
21
-69.0679909999999921
0
LINE
8
BLACK
6
CONTINUOUS
10
193.9739429999999913
20
-69.0679909999999921
11
194.0570089999999936
21
-69.1510569999999944
0
LINE
8
BLACK
6
CONTINUOUS
10
194.0570089999999936
20
-69.1510569999999944
11
194.1157460000000015
21
-69.2527919999999995
0
LINE
8
BLACK
6
CONTINUOUS
10
194.1157460000000015
20
-69.2527919999999995
11
194.1461499999999774
21
-69.3662630000000036
0
LINE
8
BLACK
6
CONTINUOUS
10
194.1461499999999774
20
-69.3662630000000036
11
194.1461499999999774
21
-69.4837369999999908
0
LINE
8
BLACK
6
CONTINUOUS
10
194.1461499999999774
20
-69.4837369999999908
11
194.1157460000000015
21
-69.5972079999999949
0
LINE
8
BLACK
6
CONTINUOUS
10
194.1157460000000015
20
-69.5972079999999949
11
194.0570089999999936
21
-69.6989429999999999
0
LINE
8
BLACK
6
CONTINUOUS
10
194.0570089999999936
20
-69.6989429999999999
11
193.9739429999999913
21
-69.7820090000000022
0
LINE
8
BLACK
6
CONTINUOUS
10
193.9739429999999913
20
-69.7820090000000022
11
193.8722080000000005
21
-69.8407459999999958
0
LINE
8
BLACK
6
CONTINUOUS
10
193.8722080000000005
20
-69.8407459999999958
11
193.7587369999999964
21
-69.8711500000000001
0
LINE
8
BLACK
6
CONTINUOUS
10
193.7587369999999964
20
-69.8711500000000001
11
193.6412629999999808
21
-69.8711500000000001
0
LINE
8
BLACK
6
CONTINUOUS
10
193.6412629999999808
20
-69.8711500000000001
11
193.5277920000000051
21
-69.8407459999999958
0
LINE
8
BLACK
6
CONTINUOUS
10
193.5277920000000051
20
-69.8407459999999958
11
193.4260569999999859
21
-69.7820090000000022
0
LINE
8
BLACK
6
CONTINUOUS
10
193.4260569999999859
20
-69.7820090000000022
11
193.3429909999999836
21
-69.6989429999999999
0
LINE
8
BLACK
6
CONTINUOUS
10
193.3429909999999836
20
-69.6989429999999999
11
193.2842540000000042
21
-69.5972079999999949
0
LINE
8
BLACK
6
CONTINUOUS
10
193.2842540000000042
20
-69.5972079999999949
11
193.2538499999999999
21
-69.4837369999999908
0
LINE
8
BLACK
6
CONTINUOUS
10
193.2538499999999999
20
-69.4837369999999908
11
193.2538499999999999
21
-69.3662630000000036
0
LINE
8
BLACK
6
CONTINUOUS
10
193.2538499999999999
20
-69.3662630000000036
11
193.2842540000000042
21
-69.2527919999999995
0
LINE
8
BLACK
6
CONTINUOUS
10
193.2842540000000042
20
-69.2527919999999995
11
193.3429909999999836
21
-69.1510569999999944
0
LINE
8
BLACK
6
CONTINUOUS
10
193.3429909999999836
20
-69.1510569999999944
11
193.4260569999999859
21
-69.0679909999999921
0
LINE
8
BLACK
6
CONTINUOUS
10
193.4260569999999859
20
-69.0679909999999921
11
193.5277920000000051
21
-69.0092539999999985
0
LINE
8
BLACK
6
CONTINUOUS
10
193.5277920000000051
20
-69.0092539999999985
11
193.6412629999999808
21
-68.9788499999999942
0
LINE
8
BLACK
6
CONTINUOUS
10
193.6412629999999808
20
-68.9788499999999942
11
193.7587369999999964
21
-68.9788499999999942
0
LINE
8
BLACK
6
CONTINUOUS
10
193.7587369999999964
20
-68.9788499999999942
11
193.8722080000000005
21
-69.0092539999999985
0
LINE
8
BLACK
6
CONTINUOUS
10
210.4222079999999835
20
-69.0092539999999985
11
210.5239430000000027
21
-69.0679909999999921
0
LINE
8
BLACK
6
CONTINUOUS
10
210.5239430000000027
20
-69.0679909999999921
11
210.6070089999999766
21
-69.1510569999999944
0
LINE
8
BLACK
6
CONTINUOUS
10
210.6070089999999766
20
-69.1510569999999944
11
210.6657459999999844
21
-69.2527919999999995
0
LINE
8
BLACK
6
CONTINUOUS
10
210.6657459999999844
20
-69.2527919999999995
11
210.6961499999999887
21
-69.3662630000000036
0
LINE
8
BLACK
6
CONTINUOUS
10
210.6961499999999887
20
-69.3662630000000036
11
210.6961499999999887
21
-69.4837369999999908
0
LINE
8
BLACK
6
CONTINUOUS
10
210.6961499999999887
20
-69.4837369999999908
11
210.6657459999999844
21
-69.5972079999999949
0
LINE
8
BLACK
6
CONTINUOUS
10
210.6657459999999844
20
-69.5972079999999949
11
210.6070089999999766
21
-69.6989429999999999
0
LINE
8
BLACK
6
CONTINUOUS
10
210.6070089999999766
20
-69.6989429999999999
11
210.5239430000000027
21
-69.7820090000000022
0
LINE
8
BLACK
6
CONTINUOUS
10
210.5239430000000027
20
-69.7820090000000022
11
210.4222079999999835
21
-69.8407459999999958
0
LINE
8
BLACK
6
CONTINUOUS
10
210.4222079999999835
20
-69.8407459999999958
11
210.3087369999999794
21
-69.8711500000000001
0
LINE
8
BLACK
6
CONTINUOUS
10
210.3087369999999794
20
-69.8711500000000001
11
210.1912629999999922
21
-69.8711500000000001
0
LINE
8
BLACK
6
CONTINUOUS
10
210.1912629999999922
20
-69.8711500000000001
11
210.0777919999999881
21
-69.8407459999999958
0
LINE
8
BLACK
6
CONTINUOUS
10
210.0777919999999881
20
-69.8407459999999958
11
209.9760569999999973
21
-69.7820090000000022
0
LINE
8
BLACK
6
CONTINUOUS
10
209.9760569999999973
20
-69.7820090000000022
11
209.892990999999995
21
-69.6989429999999999
0
LINE
8
BLACK
6
CONTINUOUS
10
209.892990999999995
20
-69.6989429999999999
11
209.8342539999999872
21
-69.5972079999999949
0
LINE
8
BLACK
6
CONTINUOUS
10
209.8342539999999872
20
-69.5972079999999949
11
209.8038499999999829
21
-69.4837369999999908
0
LINE
8
BLACK
6
CONTINUOUS
10
209.8038499999999829
20
-69.4837369999999908
11
209.8038499999999829
21
-69.3662630000000036
0
LINE
8
BLACK
6
CONTINUOUS
10
209.8038499999999829
20
-69.3662630000000036
11
209.8342539999999872
21
-69.2527919999999995
0
LINE
8
BLACK
6
CONTINUOUS
10
209.8342539999999872
20
-69.2527919999999995
11
209.892990999999995
21
-69.1510569999999944
0
LINE
8
BLACK
6
CONTINUOUS
10
209.892990999999995
20
-69.1510569999999944
11
209.9760569999999973
21
-69.0679909999999921
0
LINE
8
BLACK
6
CONTINUOUS
10
209.9760569999999973
20
-69.0679909999999921
11
210.0777919999999881
21
-69.0092539999999985
0
LINE
8
BLACK
6
CONTINUOUS
10
210.0777919999999881
20
-69.0092539999999985
11
210.1912629999999922
21
-68.9788499999999942
0
LINE
8
BLACK
6
CONTINUOUS
10
210.1912629999999922
20
-68.9788499999999942
11
210.3087369999999794
21
-68.9788499999999942
0
LINE
8
BLACK
6
CONTINUOUS
10
210.3087369999999794
20
-68.9788499999999942
11
210.4222079999999835
21
-69.0092539999999985
0
LINE
8
BLACK
6
CONTINUOUS
10
225.4722079999999949
20
-69.0092539999999985
11
225.5739429999999857
21
-69.0679909999999921
0
LINE
8
BLACK
6
CONTINUOUS
10
225.5739429999999857
20
-69.0679909999999921
11
225.657008999999988
21
-69.1510569999999944
0
LINE
8
BLACK
6
CONTINUOUS
10
225.657008999999988
20
-69.1510569999999944
11
225.7157459999999958
21
-69.2527919999999995
0
LINE
8
BLACK
6
CONTINUOUS
10
225.7157459999999958
20
-69.2527919999999995
11
225.7461500000000001
21
-69.3662630000000036
0
LINE
8
BLACK
6
CONTINUOUS
10
225.7461500000000001
20
-69.3662630000000036
11
225.7461500000000001
21
-69.4837369999999908
0
LINE
8
BLACK
6
CONTINUOUS
10
225.7461500000000001
20
-69.4837369999999908
11
225.7157459999999958
21
-69.5972079999999949
0
LINE
8
BLACK
6
CONTINUOUS
10
225.7157459999999958
20
-69.5972079999999949
11
225.657008999999988
21
-69.6989429999999999
0
LINE
8
BLACK
6
CONTINUOUS
10
225.657008999999988
20
-69.6989429999999999
11
225.5739429999999857
21
-69.7820090000000022
0
LINE
8
BLACK
6
CONTINUOUS
10
225.5739429999999857
20
-69.7820090000000022
11
225.4722079999999949
21
-69.8407459999999958
0
LINE
8
BLACK
6
CONTINUOUS
10
225.4722079999999949
20
-69.8407459999999958
11
225.3587369999999908
21
-69.8711500000000001
0
LINE
8
BLACK
6
CONTINUOUS
10
225.3587369999999908
20
-69.8711500000000001
11
225.2412630000000036
21
-69.8711500000000001
0
LINE
8
BLACK
6
CONTINUOUS
10
225.2412630000000036
20
-69.8711500000000001
11
225.1277919999999995
21
-69.8407459999999958
0
LINE
8
BLACK
6
CONTINUOUS
10
225.1277919999999995
20
-69.8407459999999958
11
225.0260569999999802
21
-69.7820090000000022
0
LINE
8
BLACK
6
CONTINUOUS
10
225.0260569999999802
20
-69.7820090000000022
11
224.9429909999999779
21
-69.6989429999999999
0
LINE
8
BLACK
6
CONTINUOUS
10
224.9429909999999779
20
-69.6989429999999999
11
224.8842539999999985
21
-69.5972079999999949
0
LINE
8
BLACK
6
CONTINUOUS
10
224.8842539999999985
20
-69.5972079999999949
11
224.8538499999999942
21
-69.4837369999999908
0
LINE
8
BLACK
6
CONTINUOUS
10
224.8538499999999942
20
-69.4837369999999908
11
224.8538499999999942
21
-69.3662630000000036
0
LINE
8
BLACK
6
CONTINUOUS
10
224.8538499999999942
20
-69.3662630000000036
11
224.8842539999999985
21
-69.2527919999999995
0
LINE
8
BLACK
6
CONTINUOUS
10
224.8842539999999985
20
-69.2527919999999995
11
224.9429909999999779
21
-69.1510569999999944
0
LINE
8
BLACK
6
CONTINUOUS
10
224.9429909999999779
20
-69.1510569999999944
11
225.0260569999999802
21
-69.0679909999999921
0
LINE
8
BLACK
6
CONTINUOUS
10
225.0260569999999802
20
-69.0679909999999921
11
225.1277919999999995
21
-69.0092539999999985
0
LINE
8
BLACK
6
CONTINUOUS
10
225.1277919999999995
20
-69.0092539999999985
11
225.2412630000000036
21
-68.9788499999999942
0
LINE
8
BLACK
6
CONTINUOUS
10
225.2412630000000036
20
-68.9788499999999942
11
225.3587369999999908
21
-68.9788499999999942
0
LINE
8
BLACK
6
CONTINUOUS
10
225.3587369999999908
20
-68.9788499999999942
11
225.4722079999999949
21
-69.0092539999999985
  0
ENDSEC
  0
EOF
