  0
SECTION
  2
HEADER
  9
$ANGBASE
  50
0.0
  9
$ANGDIR
  70
1
  9
$MEASUREMENT
  70
1
  0
ENDSEC
  0
SECTION
  2
TABLES
  0
TABLE
  2
LTYPE
  70
4
  0
LTYPE
  5
40F
  2
CONTINUOUS
  70
0
  3
Solid line
  72
65
  73
0
  40
0.0
  0
LTYPE
  5
410
  2
DASHDOT
 70
0
  3
Dash Dot ____ _ ____ _
 72
65
 73
4
 40
2.0
 49
1.25
 49
-0.25
 49
0.25
 49
-0.25
  0
LTYPE
  5
411
  2
DASHED
 70
0
  3
Dashed __ __ __ __ __
 72
65
 73
2
 40
0.75
 49
0.5
 49
-0.25
  0
LTYPE
  5
43B
  2
DOTTED
 70
0
  3
Dotted .  .  .  .
 72
65
 73
2
 40
0.2
 49
0.0
 49
-0.2
  0
ENDTAB
  0
TABLE
  2
STYLE
  70
4
  0
STYLE
  2
KICAD
  70
0
  40
0
  41
1
  42
1
  50
0
  71
0
  3
isocp.shx
  0
STYLE
  2
KICADB
  70
0
  40
0
  41
1
  42
1
  50
0
  71
0
  3
isocp.shx
  0
STYLE
  2
KICADI
  70
0
  40
0
  41
1
  42
1
  50
15
  71
0
  3
isocp.shx
  0
STYLE
  2
KICADBI
  70
0
  40
0
  41
1
  42
1
  50
15
  71
0
  3
isocp.shx
  0
ENDTAB
  0
TABLE
  2
LAYER
  70
1
  0
LAYER
  2
BLACK
  70
0
  62
7
  6
CONTINUOUS
  0
ENDTAB
  0
ENDSEC
  0
SECTION
  2
ENTITIES
0
LINE
8
BLACK
6
CONTINUOUS
10
217.6786889999999914
20
-98.9698989999999981
11
217.9212009999999964
21
-99.0486959999999925
0
LINE
8
BLACK
6
CONTINUOUS
10
217.9212009999999964
20
-99.0486959999999925
11
218.148399999999981
21
-99.1644599999999912
0
LINE
8
BLACK
6
CONTINUOUS
10
218.148399999999981
20
-99.1644599999999912
11
218.3546929999999975
21
-99.3143400000000014
0
LINE
8
BLACK
6
CONTINUOUS
10
218.3546929999999975
20
-99.3143400000000014
11
218.5349999999999966
21
-99.4946470000000005
0
LINE
8
BLACK
6
CONTINUOUS
10
218.5349999999999966
20
-99.4946470000000005
11
218.6848799999999926
21
-99.7009399999999886
0
LINE
8
BLACK
6
CONTINUOUS
10
218.6848799999999926
20
-99.7009399999999886
11
218.800643999999977
21
-99.9281390000000016
0
LINE
8
BLACK
6
CONTINUOUS
10
218.800643999999977
20
-99.9281390000000016
11
218.8794409999999857
21
-100.1706509999999923
0
LINE
8
BLACK
6
CONTINUOUS
10
218.8794409999999857
20
-100.1706509999999923
11
218.9193309999999997
21
-100.4225039999999893
0
LINE
8
BLACK
6
CONTINUOUS
10
218.9193309999999997
20
-100.4225039999999893
11
218.9193309999999997
21
-100.6774959999999908
0
LINE
8
BLACK
6
CONTINUOUS
10
218.9193309999999997
20
-100.6774959999999908
11
218.8794409999999857
21
-100.929349000000002
0
LINE
8
BLACK
6
CONTINUOUS
10
218.8794409999999857
20
-100.929349000000002
11
218.800643999999977
21
-101.1718609999999927
0
LINE
8
BLACK
6
CONTINUOUS
10
218.800643999999977
20
-101.1718609999999927
11
218.6848799999999926
21
-101.3990599999999915
0
LINE
8
BLACK
6
CONTINUOUS
10
218.6848799999999926
20
-101.3990599999999915
11
218.5349999999999966
21
-101.6053529999999938
0
LINE
8
BLACK
6
CONTINUOUS
10
218.5349999999999966
20
-101.6053529999999938
11
218.3546929999999975
21
-101.7856599999999929
0
LINE
8
BLACK
6
CONTINUOUS
10
218.3546929999999975
20
-101.7856599999999929
11
218.148399999999981
21
-101.9355399999999889
0
LINE
8
BLACK
6
CONTINUOUS
10
218.148399999999981
20
-101.9355399999999889
11
217.9212009999999964
21
-102.0513040000000018
0
LINE
8
BLACK
6
CONTINUOUS
10
217.9212009999999964
20
-102.0513040000000018
11
217.6786889999999914
21
-102.1301009999999962
0
LINE
8
BLACK
6
CONTINUOUS
10
217.6786889999999914
20
-102.1301009999999962
11
217.4268359999999802
21
-102.169990999999996
0
LINE
8
BLACK
6
CONTINUOUS
10
217.4268359999999802
20
-102.169990999999996
11
217.171843999999993
21
-102.169990999999996
0
LINE
8
BLACK
6
CONTINUOUS
10
217.171843999999993
20
-102.169990999999996
11
216.9199909999999818
21
-102.1301009999999962
0
LINE
8
BLACK
6
CONTINUOUS
10
216.9199909999999818
20
-102.1301009999999962
11
216.6774789999999768
21
-102.0513040000000018
0
LINE
8
BLACK
6
CONTINUOUS
10
216.6774789999999768
20
-102.0513040000000018
11
216.4502799999999922
21
-101.9355399999999889
0
LINE
8
BLACK
6
CONTINUOUS
10
216.4502799999999922
20
-101.9355399999999889
11
216.2439870000000042
21
-101.7856599999999929
0
LINE
8
BLACK
6
CONTINUOUS
10
216.2439870000000042
20
-101.7856599999999929
11
216.0636799999999766
21
-101.6053529999999938
0
LINE
8
BLACK
6
CONTINUOUS
10
216.0636799999999766
20
-101.6053529999999938
11
215.9137999999999806
21
-101.3990599999999915
0
LINE
8
BLACK
6
CONTINUOUS
10
215.9137999999999806
20
-101.3990599999999915
11
215.7980359999999962
21
-101.1718609999999927
0
LINE
8
BLACK
6
CONTINUOUS
10
215.7980359999999962
20
-101.1718609999999927
11
215.7192389999999875
21
-100.929349000000002
0
LINE
8
BLACK
6
CONTINUOUS
10
215.7192389999999875
20
-100.929349000000002
11
215.679349000000002
21
-100.6774959999999908
0
LINE
8
BLACK
6
CONTINUOUS
10
215.679349000000002
20
-100.6774959999999908
11
215.679349000000002
21
-100.426045000000002
0
LINE
8
BLACK
6
CONTINUOUS
10
215.679349000000002
20
-100.426045000000002
11
215.679349000000002
21
-100.4225039999999893
0
LINE
8
BLACK
6
CONTINUOUS
10
215.679349000000002
20
-100.4225039999999893
11
215.7192389999999875
21
-100.1706509999999923
0
LINE
8
BLACK
6
CONTINUOUS
10
215.7192389999999875
20
-100.1706509999999923
11
215.7980359999999962
21
-99.9281390000000016
0
LINE
8
BLACK
6
CONTINUOUS
10
215.7980359999999962
20
-99.9281390000000016
11
215.9137999999999806
21
-99.7009399999999886
0
LINE
8
BLACK
6
CONTINUOUS
10
215.9137999999999806
20
-99.7009399999999886
11
216.0636799999999766
21
-99.4946470000000005
0
LINE
8
BLACK
6
CONTINUOUS
10
216.0636799999999766
20
-99.4946470000000005
11
216.2439870000000042
21
-99.3143400000000014
0
LINE
8
BLACK
6
CONTINUOUS
10
216.2439870000000042
20
-99.3143400000000014
11
216.4502799999999922
21
-99.1644599999999912
0
LINE
8
BLACK
6
CONTINUOUS
10
216.4502799999999922
20
-99.1644599999999912
11
216.6774789999999768
21
-99.0486959999999925
0
LINE
8
BLACK
6
CONTINUOUS
10
216.6774789999999768
20
-99.0486959999999925
11
216.9199909999999818
21
-98.9698989999999981
0
LINE
8
BLACK
6
CONTINUOUS
10
216.9199909999999818
20
-98.9698989999999981
11
217.171843999999993
21
-98.9300089999999983
0
LINE
8
BLACK
6
CONTINUOUS
10
217.171843999999993
20
-98.9300089999999983
11
217.4268359999999802
21
-98.9300089999999983
0
LINE
8
BLACK
6
CONTINUOUS
10
217.4268359999999802
20
-98.9300089999999983
11
217.6786889999999914
21
-98.9698989999999981
0
LINE
8
BLACK
6
CONTINUOUS
10
215.7243399999999838
20
-100.6739549999999923
11
215.7631219999999814
21
-100.9188130000000001
0
LINE
8
BLACK
6
CONTINUOUS
10
215.7631219999999814
20
-100.9188130000000001
11
215.839730000000003
21
-101.1545899999999989
0
LINE
8
BLACK
6
CONTINUOUS
10
215.839730000000003
20
-101.1545899999999989
11
215.9522790000000043
21
-101.375479999999996
0
LINE
8
BLACK
6
CONTINUOUS
10
215.9522790000000043
20
-101.375479999999996
11
216.0979969999999923
21
-101.5760429999999985
0
LINE
8
BLACK
6
CONTINUOUS
10
216.0979969999999923
20
-101.5760429999999985
11
216.2732969999999852
21
-101.7513429999999914
0
LINE
8
BLACK
6
CONTINUOUS
10
216.2732969999999852
20
-101.7513429999999914
11
216.4738600000000019
21
-101.8970609999999937
0
LINE
8
BLACK
6
CONTINUOUS
10
216.4738600000000019
20
-101.8970609999999937
11
216.6947499999999991
21
-102.009609999999995
0
LINE
8
BLACK
6
CONTINUOUS
10
216.6947499999999991
20
-102.009609999999995
11
216.9305269999999837
21
-102.0862180000000023
0
LINE
8
BLACK
6
CONTINUOUS
10
216.9305269999999837
20
-102.0862180000000023
11
217.1753849999999773
21
-102.125
0
LINE
8
BLACK
6
CONTINUOUS
10
217.1753849999999773
20
-102.125
11
217.423294999999996
21
-102.125
0
LINE
8
BLACK
6
CONTINUOUS
10
217.423294999999996
20
-102.125
11
217.6681529999999896
21
-102.0862180000000023
0
LINE
8
BLACK
6
CONTINUOUS
10
217.6681529999999896
20
-102.0862180000000023
11
217.9039300000000026
21
-102.009609999999995
0
LINE
8
BLACK
6
CONTINUOUS
10
217.9039300000000026
20
-102.009609999999995
11
218.1248199999999997
21
-101.8970609999999937
0
LINE
8
BLACK
6
CONTINUOUS
10
218.1248199999999997
20
-101.8970609999999937
11
218.325382999999988
21
-101.7513429999999914
0
LINE
8
BLACK
6
CONTINUOUS
10
218.325382999999988
20
-101.7513429999999914
11
218.5006829999999809
21
-101.5760429999999985
0
LINE
8
BLACK
6
CONTINUOUS
10
218.5006829999999809
20
-101.5760429999999985
11
218.6464009999999973
21
-101.375479999999996
0
LINE
8
BLACK
6
CONTINUOUS
10
218.6464009999999973
20
-101.375479999999996
11
218.7589499999999987
21
-101.1545899999999989
0
LINE
8
BLACK
6
CONTINUOUS
10
218.7589499999999987
20
-101.1545899999999989
11
218.8355579999999918
21
-100.9188130000000001
0
LINE
8
BLACK
6
CONTINUOUS
10
218.8355579999999918
20
-100.9188130000000001
11
218.8743399999999895
21
-100.6739549999999923
0
LINE
8
BLACK
6
CONTINUOUS
10
218.8743399999999895
20
-100.6739549999999923
11
218.8743399999999895
21
-100.426045000000002
0
LINE
8
BLACK
6
CONTINUOUS
10
218.8743399999999895
20
-100.426045000000002
11
218.8355579999999918
21
-100.1811869999999942
0
LINE
8
BLACK
6
CONTINUOUS
10
218.8355579999999918
20
-100.1811869999999942
11
218.7589499999999987
21
-99.9454099999999954
0
LINE
8
BLACK
6
CONTINUOUS
10
218.7589499999999987
20
-99.9454099999999954
11
218.6464009999999973
21
-99.7245199999999983
0
LINE
8
BLACK
6
CONTINUOUS
10
218.6464009999999973
20
-99.7245199999999983
11
218.5006829999999809
21
-99.5239569999999958
0
LINE
8
BLACK
6
CONTINUOUS
10
218.5006829999999809
20
-99.5239569999999958
11
218.325382999999988
21
-99.3486569999999887
0
LINE
8
BLACK
6
CONTINUOUS
10
218.325382999999988
20
-99.3486569999999887
11
218.1248199999999997
21
-99.2029390000000006
0
LINE
8
BLACK
6
CONTINUOUS
10
218.1248199999999997
20
-99.2029390000000006
11
217.9039300000000026
21
-99.0903899999999993
0
LINE
8
BLACK
6
CONTINUOUS
10
217.9039300000000026
20
-99.0903899999999993
11
217.6681529999999896
21
-99.013781999999992
0
LINE
8
BLACK
6
CONTINUOUS
10
217.6681529999999896
20
-99.013781999999992
11
217.423294999999996
21
-98.9749999999999943
0
LINE
8
BLACK
6
CONTINUOUS
10
217.423294999999996
20
-98.9749999999999943
11
217.1753849999999773
21
-98.9749999999999943
0
LINE
8
BLACK
6
CONTINUOUS
10
217.1753849999999773
20
-98.9749999999999943
11
216.9305269999999837
21
-99.013781999999992
0
LINE
8
BLACK
6
CONTINUOUS
10
216.9305269999999837
20
-99.013781999999992
11
216.6947499999999991
21
-99.0903899999999993
0
LINE
8
BLACK
6
CONTINUOUS
10
216.6947499999999991
20
-99.0903899999999993
11
216.4738600000000019
21
-99.2029390000000006
0
LINE
8
BLACK
6
CONTINUOUS
10
216.4738600000000019
20
-99.2029390000000006
11
216.2732969999999852
21
-99.3486569999999887
0
LINE
8
BLACK
6
CONTINUOUS
10
216.2732969999999852
20
-99.3486569999999887
11
216.0979969999999923
21
-99.5239569999999958
0
LINE
8
BLACK
6
CONTINUOUS
10
216.0979969999999923
20
-99.5239569999999958
11
215.9522790000000043
21
-99.7245199999999983
0
LINE
8
BLACK
6
CONTINUOUS
10
215.9522790000000043
20
-99.7245199999999983
11
215.839730000000003
21
-99.9454099999999954
0
LINE
8
BLACK
6
CONTINUOUS
10
215.839730000000003
20
-99.9454099999999954
11
215.7631219999999814
21
-100.1811869999999942
0
LINE
8
BLACK
6
CONTINUOUS
10
215.7631219999999814
20
-100.1811869999999942
11
215.7243399999999838
21
-100.426045000000002
0
LINE
8
BLACK
6
CONTINUOUS
10
215.7243399999999838
20
-100.426045000000002
11
215.7243399999999838
21
-100.6739549999999923
0
LINE
8
BLACK
6
CONTINUOUS
10
186.9093489999999917
20
-98.7798990000000003
11
187.1518609999999967
21
-98.8586959999999948
0
LINE
8
BLACK
6
CONTINUOUS
10
187.1518609999999967
20
-98.8586959999999948
11
187.3790599999999813
21
-98.9744599999999934
0
LINE
8
BLACK
6
CONTINUOUS
10
187.3790599999999813
20
-98.9744599999999934
11
187.5853529999999978
21
-99.1243399999999895
0
LINE
8
BLACK
6
CONTINUOUS
10
187.5853529999999978
20
-99.1243399999999895
11
187.7656599999999969
21
-99.3046469999999886
0
LINE
8
BLACK
6
CONTINUOUS
10
187.7656599999999969
20
-99.3046469999999886
11
187.9155399999999929
21
-99.5109399999999908
0
LINE
8
BLACK
6
CONTINUOUS
10
187.9155399999999929
20
-99.5109399999999908
11
188.0313039999999773
21
-99.7381389999999897
0
LINE
8
BLACK
6
CONTINUOUS
10
188.0313039999999773
20
-99.7381389999999897
11
188.110100999999986
21
-99.9806509999999946
0
LINE
8
BLACK
6
CONTINUOUS
10
188.110100999999986
20
-99.9806509999999946
11
188.149991
21
-100.2325039999999916
0
LINE
8
BLACK
6
CONTINUOUS
10
188.149991
20
-100.2325039999999916
11
188.149991
21
-100.487495999999993
0
LINE
8
BLACK
6
CONTINUOUS
10
188.149991
20
-100.487495999999993
11
188.110100999999986
21
-100.73934899999999
0
LINE
8
BLACK
6
CONTINUOUS
10
188.110100999999986
20
-100.73934899999999
11
188.0313039999999773
21
-100.981860999999995
0
LINE
8
BLACK
6
CONTINUOUS
10
188.0313039999999773
20
-100.981860999999995
11
187.9155399999999929
21
-101.2090599999999938
0
LINE
8
BLACK
6
CONTINUOUS
10
187.9155399999999929
20
-101.2090599999999938
11
187.7656599999999969
21
-101.4153529999999961
0
LINE
8
BLACK
6
CONTINUOUS
10
187.7656599999999969
20
-101.4153529999999961
11
187.5853529999999978
21
-101.5956599999999952
0
LINE
8
BLACK
6
CONTINUOUS
10
187.5853529999999978
20
-101.5956599999999952
11
187.3790599999999813
21
-101.7455399999999912
0
LINE
8
BLACK
6
CONTINUOUS
10
187.3790599999999813
20
-101.7455399999999912
11
187.1518609999999967
21
-101.8613039999999899
0
LINE
8
BLACK
6
CONTINUOUS
10
187.1518609999999967
20
-101.8613039999999899
11
186.9093489999999917
21
-101.9401009999999985
0
LINE
8
BLACK
6
CONTINUOUS
10
186.9093489999999917
20
-101.9401009999999985
11
186.6574959999999805
21
-101.9799909999999983
0
LINE
8
BLACK
6
CONTINUOUS
10
186.6574959999999805
20
-101.9799909999999983
11
186.4025039999999933
21
-101.9799909999999983
0
LINE
8
BLACK
6
CONTINUOUS
10
186.4025039999999933
20
-101.9799909999999983
11
186.1506509999999821
21
-101.9401009999999985
0
LINE
8
BLACK
6
CONTINUOUS
10
186.1506509999999821
20
-101.9401009999999985
11
185.9081390000000056
21
-101.8613039999999899
0
LINE
8
BLACK
6
CONTINUOUS
10
185.9081390000000056
20
-101.8613039999999899
11
185.6809399999999926
21
-101.7455399999999912
0
LINE
8
BLACK
6
CONTINUOUS
10
185.6809399999999926
20
-101.7455399999999912
11
185.4746470000000045
21
-101.5956599999999952
0
LINE
8
BLACK
6
CONTINUOUS
10
185.4746470000000045
20
-101.5956599999999952
11
185.2943400000000054
21
-101.4153529999999961
0
LINE
8
BLACK
6
CONTINUOUS
10
185.2943400000000054
20
-101.4153529999999961
11
185.1444599999999809
21
-101.2090599999999938
0
LINE
8
BLACK
6
CONTINUOUS
10
185.1444599999999809
20
-101.2090599999999938
11
185.0286959999999965
21
-100.981860999999995
0
LINE
8
BLACK
6
CONTINUOUS
10
185.0286959999999965
20
-100.981860999999995
11
184.9498989999999878
21
-100.73934899999999
0
LINE
8
BLACK
6
CONTINUOUS
10
184.9498989999999878
20
-100.73934899999999
11
184.9100090000000023
21
-100.487495999999993
0
LINE
8
BLACK
6
CONTINUOUS
10
184.9100090000000023
20
-100.487495999999993
11
184.9100090000000023
21
-100.2360449999999901
0
LINE
8
BLACK
6
CONTINUOUS
10
184.9100090000000023
20
-100.2360449999999901
11
184.9100090000000023
21
-100.2325039999999916
0
LINE
8
BLACK
6
CONTINUOUS
10
184.9100090000000023
20
-100.2325039999999916
11
184.9498989999999878
21
-99.9806509999999946
0
LINE
8
BLACK
6
CONTINUOUS
10
184.9498989999999878
20
-99.9806509999999946
11
185.0286959999999965
21
-99.7381389999999897
0
LINE
8
BLACK
6
CONTINUOUS
10
185.0286959999999965
20
-99.7381389999999897
11
185.1444599999999809
21
-99.5109399999999908
0
LINE
8
BLACK
6
CONTINUOUS
10
185.1444599999999809
20
-99.5109399999999908
11
185.2943400000000054
21
-99.3046469999999886
0
LINE
8
BLACK
6
CONTINUOUS
10
185.2943400000000054
20
-99.3046469999999886
11
185.4746470000000045
21
-99.1243399999999895
0
LINE
8
BLACK
6
CONTINUOUS
10
185.4746470000000045
20
-99.1243399999999895
11
185.6809399999999926
21
-98.9744599999999934
0
LINE
8
BLACK
6
CONTINUOUS
10
185.6809399999999926
20
-98.9744599999999934
11
185.9081390000000056
21
-98.8586959999999948
0
LINE
8
BLACK
6
CONTINUOUS
10
185.9081390000000056
20
-98.8586959999999948
11
186.1506509999999821
21
-98.7798990000000003
0
LINE
8
BLACK
6
CONTINUOUS
10
186.1506509999999821
20
-98.7798990000000003
11
186.4025039999999933
21
-98.7400090000000006
0
LINE
8
BLACK
6
CONTINUOUS
10
186.4025039999999933
20
-98.7400090000000006
11
186.6574959999999805
21
-98.7400090000000006
0
LINE
8
BLACK
6
CONTINUOUS
10
186.6574959999999805
20
-98.7400090000000006
11
186.9093489999999917
21
-98.7798990000000003
0
LINE
8
BLACK
6
CONTINUOUS
10
184.9549999999999841
20
-100.4839549999999946
11
184.9937819999999817
21
-100.7288130000000024
0
LINE
8
BLACK
6
CONTINUOUS
10
184.9937819999999817
20
-100.7288130000000024
11
185.0703900000000033
21
-100.9645900000000012
0
LINE
8
BLACK
6
CONTINUOUS
10
185.0703900000000033
20
-100.9645900000000012
11
185.1829390000000046
21
-101.1854799999999983
0
LINE
8
BLACK
6
CONTINUOUS
10
185.1829390000000046
20
-101.1854799999999983
11
185.3286569999999926
21
-101.3860430000000008
0
LINE
8
BLACK
6
CONTINUOUS
10
185.3286569999999926
20
-101.3860430000000008
11
185.5039569999999856
21
-101.5613429999999937
0
LINE
8
BLACK
6
CONTINUOUS
10
185.5039569999999856
20
-101.5613429999999937
11
185.7045200000000023
21
-101.7070609999999959
0
LINE
8
BLACK
6
CONTINUOUS
10
185.7045200000000023
20
-101.7070609999999959
11
185.9254099999999994
21
-101.8196099999999973
0
LINE
8
BLACK
6
CONTINUOUS
10
185.9254099999999994
20
-101.8196099999999973
11
186.161186999999984
21
-101.8962179999999904
0
LINE
8
BLACK
6
CONTINUOUS
10
186.161186999999984
20
-101.8962179999999904
11
186.4060449999999776
21
-101.9350000000000023
0
LINE
8
BLACK
6
CONTINUOUS
10
186.4060449999999776
20
-101.9350000000000023
11
186.6539549999999963
21
-101.9350000000000023
0
LINE
8
BLACK
6
CONTINUOUS
10
186.6539549999999963
20
-101.9350000000000023
11
186.8988129999999899
21
-101.8962179999999904
0
LINE
8
BLACK
6
CONTINUOUS
10
186.8988129999999899
20
-101.8962179999999904
11
187.1345900000000029
21
-101.8196099999999973
0
LINE
8
BLACK
6
CONTINUOUS
10
187.1345900000000029
20
-101.8196099999999973
11
187.35548
21
-101.7070609999999959
0
LINE
8
BLACK
6
CONTINUOUS
10
187.35548
20
-101.7070609999999959
11
187.5560429999999883
21
-101.5613429999999937
0
LINE
8
BLACK
6
CONTINUOUS
10
187.5560429999999883
20
-101.5613429999999937
11
187.7313429999999812
21
-101.3860430000000008
0
LINE
8
BLACK
6
CONTINUOUS
10
187.7313429999999812
20
-101.3860430000000008
11
187.8770609999999976
21
-101.1854799999999983
0
LINE
8
BLACK
6
CONTINUOUS
10
187.8770609999999976
20
-101.1854799999999983
11
187.989609999999999
21
-100.9645900000000012
0
LINE
8
BLACK
6
CONTINUOUS
10
187.989609999999999
20
-100.9645900000000012
11
188.0662179999999921
21
-100.7288130000000024
0
LINE
8
BLACK
6
CONTINUOUS
10
188.0662179999999921
20
-100.7288130000000024
11
188.1049999999999898
21
-100.4839549999999946
0
LINE
8
BLACK
6
CONTINUOUS
10
188.1049999999999898
20
-100.4839549999999946
11
188.1049999999999898
21
-100.2360449999999901
0
LINE
8
BLACK
6
CONTINUOUS
10
188.1049999999999898
20
-100.2360449999999901
11
188.0662179999999921
21
-99.9911869999999965
0
LINE
8
BLACK
6
CONTINUOUS
10
188.0662179999999921
20
-99.9911869999999965
11
187.989609999999999
21
-99.7554099999999977
0
LINE
8
BLACK
6
CONTINUOUS
10
187.989609999999999
20
-99.7554099999999977
11
187.8770609999999976
21
-99.5345200000000006
0
LINE
8
BLACK
6
CONTINUOUS
10
187.8770609999999976
20
-99.5345200000000006
11
187.7313429999999812
21
-99.3339569999999981
0
LINE
8
BLACK
6
CONTINUOUS
10
187.7313429999999812
20
-99.3339569999999981
11
187.5560429999999883
21
-99.1586569999999909
0
LINE
8
BLACK
6
CONTINUOUS
10
187.5560429999999883
20
-99.1586569999999909
11
187.35548
21
-99.0129389999999887
0
LINE
8
BLACK
6
CONTINUOUS
10
187.35548
20
-99.0129389999999887
11
187.1345900000000029
21
-98.9003900000000016
0
LINE
8
BLACK
6
CONTINUOUS
10
187.1345900000000029
20
-98.9003900000000016
11
186.8988129999999899
21
-98.8237819999999942
0
LINE
8
BLACK
6
CONTINUOUS
10
186.8988129999999899
20
-98.8237819999999942
11
186.6539549999999963
21
-98.7849999999999966
0
LINE
8
BLACK
6
CONTINUOUS
10
186.6539549999999963
20
-98.7849999999999966
11
186.4060449999999776
21
-98.7849999999999966
0
LINE
8
BLACK
6
CONTINUOUS
10
186.4060449999999776
20
-98.7849999999999966
11
186.161186999999984
21
-98.8237819999999942
0
LINE
8
BLACK
6
CONTINUOUS
10
186.161186999999984
20
-98.8237819999999942
11
185.9254099999999994
21
-98.9003900000000016
0
LINE
8
BLACK
6
CONTINUOUS
10
185.9254099999999994
20
-98.9003900000000016
11
185.7045200000000023
21
-99.0129389999999887
0
LINE
8
BLACK
6
CONTINUOUS
10
185.7045200000000023
20
-99.0129389999999887
11
185.5039569999999856
21
-99.1586569999999909
0
LINE
8
BLACK
6
CONTINUOUS
10
185.5039569999999856
20
-99.1586569999999909
11
185.3286569999999926
21
-99.3339569999999981
0
LINE
8
BLACK
6
CONTINUOUS
10
185.3286569999999926
20
-99.3339569999999981
11
185.1829390000000046
21
-99.5345200000000006
0
LINE
8
BLACK
6
CONTINUOUS
10
185.1829390000000046
20
-99.5345200000000006
11
185.0703900000000033
21
-99.7554099999999977
0
LINE
8
BLACK
6
CONTINUOUS
10
185.0703900000000033
20
-99.7554099999999977
11
184.9937819999999817
21
-99.9911869999999965
0
LINE
8
BLACK
6
CONTINUOUS
10
184.9937819999999817
20
-99.9911869999999965
11
184.9549999999999841
21
-100.2360449999999901
0
LINE
8
BLACK
6
CONTINUOUS
10
184.9549999999999841
20
-100.2360449999999901
11
184.9549999999999841
21
-100.4839549999999946
0
LINE
8
BLACK
6
CONTINUOUS
10
187.0293489999999963
20
-70.0498989999999964
11
187.2718610000000012
21
-70.1286959999999908
0
LINE
8
BLACK
6
CONTINUOUS
10
187.2718610000000012
20
-70.1286959999999908
11
187.4990599999999858
21
-70.2444600000000037
0
LINE
8
BLACK
6
CONTINUOUS
10
187.4990599999999858
20
-70.2444600000000037
11
187.7053530000000023
21
-70.3943399999999997
0
LINE
8
BLACK
6
CONTINUOUS
10
187.7053530000000023
20
-70.3943399999999997
11
187.8856600000000014
21
-70.5746469999999988
0
LINE
8
BLACK
6
CONTINUOUS
10
187.8856600000000014
20
-70.5746469999999988
11
188.0355399999999975
21
-70.7809400000000011
0
LINE
8
BLACK
6
CONTINUOUS
10
188.0355399999999975
20
-70.7809400000000011
11
188.1513039999999819
21
-71.0081389999999999
0
LINE
8
BLACK
6
CONTINUOUS
10
188.1513039999999819
20
-71.0081389999999999
11
188.2301009999999906
21
-71.2506509999999906
0
LINE
8
BLACK
6
CONTINUOUS
10
188.2301009999999906
20
-71.2506509999999906
11
188.2699910000000045
21
-71.5025040000000018
0
LINE
8
BLACK
6
CONTINUOUS
10
188.2699910000000045
20
-71.5025040000000018
11
188.2699910000000045
21
-71.7574960000000033
0
LINE
8
BLACK
6
CONTINUOUS
10
188.2699910000000045
20
-71.7574960000000033
11
188.2301009999999906
21
-72.0093490000000003
0
LINE
8
BLACK
6
CONTINUOUS
10
188.2301009999999906
20
-72.0093490000000003
11
188.1513039999999819
21
-72.251860999999991
0
LINE
8
BLACK
6
CONTINUOUS
10
188.1513039999999819
20
-72.251860999999991
11
188.0355399999999975
21
-72.4790599999999898
0
LINE
8
BLACK
6
CONTINUOUS
10
188.0355399999999975
20
-72.4790599999999898
11
187.8856600000000014
21
-72.6853529999999921
0
LINE
8
BLACK
6
CONTINUOUS
10
187.8856600000000014
20
-72.6853529999999921
11
187.7053530000000023
21
-72.8656599999999912
0
LINE
8
BLACK
6
CONTINUOUS
10
187.7053530000000023
20
-72.8656599999999912
11
187.4990599999999858
21
-73.0155400000000014
0
LINE
8
BLACK
6
CONTINUOUS
10
187.4990599999999858
20
-73.0155400000000014
11
187.2718610000000012
21
-73.1313040000000001
0
LINE
8
BLACK
6
CONTINUOUS
10
187.2718610000000012
20
-73.1313040000000001
11
187.0293489999999963
21
-73.2101009999999945
0
LINE
8
BLACK
6
CONTINUOUS
10
187.0293489999999963
20
-73.2101009999999945
11
186.7774959999999851
21
-73.2499909999999943
0
LINE
8
BLACK
6
CONTINUOUS
10
186.7774959999999851
20
-73.2499909999999943
11
186.5225039999999979
21
-73.2499909999999943
0
LINE
8
BLACK
6
CONTINUOUS
10
186.5225039999999979
20
-73.2499909999999943
11
186.2706509999999867
21
-73.2101009999999945
0
LINE
8
BLACK
6
CONTINUOUS
10
186.2706509999999867
20
-73.2101009999999945
11
186.0281389999999817
21
-73.1313040000000001
0
LINE
8
BLACK
6
CONTINUOUS
10
186.0281389999999817
20
-73.1313040000000001
11
185.8009399999999971
21
-73.0155400000000014
0
LINE
8
BLACK
6
CONTINUOUS
10
185.8009399999999971
20
-73.0155400000000014
11
185.5946469999999806
21
-72.8656599999999912
0
LINE
8
BLACK
6
CONTINUOUS
10
185.5946469999999806
20
-72.8656599999999912
11
185.4143399999999815
21
-72.6853529999999921
0
LINE
8
BLACK
6
CONTINUOUS
10
185.4143399999999815
20
-72.6853529999999921
11
185.2644599999999855
21
-72.4790599999999898
0
LINE
8
BLACK
6
CONTINUOUS
10
185.2644599999999855
20
-72.4790599999999898
11
185.148696000000001
21
-72.251860999999991
0
LINE
8
BLACK
6
CONTINUOUS
10
185.148696000000001
20
-72.251860999999991
11
185.0698989999999924
21
-72.0093490000000003
0
LINE
8
BLACK
6
CONTINUOUS
10
185.0698989999999924
20
-72.0093490000000003
11
185.0300089999999784
21
-71.7574960000000033
0
LINE
8
BLACK
6
CONTINUOUS
10
185.0300089999999784
20
-71.7574960000000033
11
185.0300089999999784
21
-71.5060450000000003
0
LINE
8
BLACK
6
CONTINUOUS
10
185.0300089999999784
20
-71.5060450000000003
11
185.0300089999999784
21
-71.5025040000000018
0
LINE
8
BLACK
6
CONTINUOUS
10
185.0300089999999784
20
-71.5025040000000018
11
185.0698989999999924
21
-71.2506509999999906
0
LINE
8
BLACK
6
CONTINUOUS
10
185.0698989999999924
20
-71.2506509999999906
11
185.148696000000001
21
-71.0081389999999999
0
LINE
8
BLACK
6
CONTINUOUS
10
185.148696000000001
20
-71.0081389999999999
11
185.2644599999999855
21
-70.7809400000000011
0
LINE
8
BLACK
6
CONTINUOUS
10
185.2644599999999855
20
-70.7809400000000011
11
185.4143399999999815
21
-70.5746469999999988
0
LINE
8
BLACK
6
CONTINUOUS
10
185.4143399999999815
20
-70.5746469999999988
11
185.5946469999999806
21
-70.3943399999999997
0
LINE
8
BLACK
6
CONTINUOUS
10
185.5946469999999806
20
-70.3943399999999997
11
185.8009399999999971
21
-70.2444600000000037
0
LINE
8
BLACK
6
CONTINUOUS
10
185.8009399999999971
20
-70.2444600000000037
11
186.0281389999999817
21
-70.1286959999999908
0
LINE
8
BLACK
6
CONTINUOUS
10
186.0281389999999817
20
-70.1286959999999908
11
186.2706509999999867
21
-70.0498989999999964
0
LINE
8
BLACK
6
CONTINUOUS
10
186.2706509999999867
20
-70.0498989999999964
11
186.5225039999999979
21
-70.0100089999999966
0
LINE
8
BLACK
6
CONTINUOUS
10
186.5225039999999979
20
-70.0100089999999966
11
186.7774959999999851
21
-70.0100089999999966
0
LINE
8
BLACK
6
CONTINUOUS
10
186.7774959999999851
20
-70.0100089999999966
11
187.0293489999999963
21
-70.0498989999999964
0
LINE
8
BLACK
6
CONTINUOUS
10
185.0749999999999886
20
-71.7539549999999906
11
185.1137819999999863
21
-71.9988129999999984
0
LINE
8
BLACK
6
CONTINUOUS
10
185.1137819999999863
20
-71.9988129999999984
11
185.1903899999999794
21
-72.2345899999999972
0
LINE
8
BLACK
6
CONTINUOUS
10
185.1903899999999794
20
-72.2345899999999972
11
185.3029389999999808
21
-72.4554799999999943
0
LINE
8
BLACK
6
CONTINUOUS
10
185.3029389999999808
20
-72.4554799999999943
11
185.4486569999999972
21
-72.6560429999999968
0
LINE
8
BLACK
6
CONTINUOUS
10
185.4486569999999972
20
-72.6560429999999968
11
185.6239569999999901
21
-72.8313429999999897
0
LINE
8
BLACK
6
CONTINUOUS
10
185.6239569999999901
20
-72.8313429999999897
11
185.8245199999999784
21
-72.977060999999992
0
LINE
8
BLACK
6
CONTINUOUS
10
185.8245199999999784
20
-72.977060999999992
11
186.0454100000000039
21
-73.0896099999999933
0
LINE
8
BLACK
6
CONTINUOUS
10
186.0454100000000039
20
-73.0896099999999933
11
186.2811869999999885
21
-73.1662180000000006
0
LINE
8
BLACK
6
CONTINUOUS
10
186.2811869999999885
20
-73.1662180000000006
11
186.5260449999999821
21
-73.2049999999999983
0
LINE
8
BLACK
6
CONTINUOUS
10
186.5260449999999821
20
-73.2049999999999983
11
186.7739550000000008
21
-73.2049999999999983
0
LINE
8
BLACK
6
CONTINUOUS
10
186.7739550000000008
20
-73.2049999999999983
11
187.0188129999999944
21
-73.1662180000000006
0
LINE
8
BLACK
6
CONTINUOUS
10
187.0188129999999944
20
-73.1662180000000006
11
187.254589999999979
21
-73.0896099999999933
0
LINE
8
BLACK
6
CONTINUOUS
10
187.254589999999979
20
-73.0896099999999933
11
187.4754800000000046
21
-72.977060999999992
0
LINE
8
BLACK
6
CONTINUOUS
10
187.4754800000000046
20
-72.977060999999992
11
187.6760429999999928
21
-72.8313429999999897
0
LINE
8
BLACK
6
CONTINUOUS
10
187.6760429999999928
20
-72.8313429999999897
11
187.8513429999999858
21
-72.6560429999999968
0
LINE
8
BLACK
6
CONTINUOUS
10
187.8513429999999858
20
-72.6560429999999968
11
187.9970610000000022
21
-72.4554799999999943
0
LINE
8
BLACK
6
CONTINUOUS
10
187.9970610000000022
20
-72.4554799999999943
11
188.1096100000000035
21
-72.2345899999999972
0
LINE
8
BLACK
6
CONTINUOUS
10
188.1096100000000035
20
-72.2345899999999972
11
188.1862179999999967
21
-71.9988129999999984
0
LINE
8
BLACK
6
CONTINUOUS
10
188.1862179999999967
20
-71.9988129999999984
11
188.2249999999999943
21
-71.7539549999999906
0
LINE
8
BLACK
6
CONTINUOUS
10
188.2249999999999943
20
-71.7539549999999906
11
188.2249999999999943
21
-71.5060450000000003
0
LINE
8
BLACK
6
CONTINUOUS
10
188.2249999999999943
20
-71.5060450000000003
11
188.1862179999999967
21
-71.2611869999999925
0
LINE
8
BLACK
6
CONTINUOUS
10
188.1862179999999967
20
-71.2611869999999925
11
188.1096100000000035
21
-71.0254099999999937
0
LINE
8
BLACK
6
CONTINUOUS
10
188.1096100000000035
20
-71.0254099999999937
11
187.9970610000000022
21
-70.8045199999999966
0
LINE
8
BLACK
6
CONTINUOUS
10
187.9970610000000022
20
-70.8045199999999966
11
187.8513429999999858
21
-70.6039569999999941
0
LINE
8
BLACK
6
CONTINUOUS
10
187.8513429999999858
20
-70.6039569999999941
11
187.6760429999999928
21
-70.4286570000000012
0
LINE
8
BLACK
6
CONTINUOUS
10
187.6760429999999928
20
-70.4286570000000012
11
187.4754800000000046
21
-70.2829389999999989
0
LINE
8
BLACK
6
CONTINUOUS
10
187.4754800000000046
20
-70.2829389999999989
11
187.254589999999979
21
-70.1703899999999976
0
LINE
8
BLACK
6
CONTINUOUS
10
187.254589999999979
20
-70.1703899999999976
11
187.0188129999999944
21
-70.0937819999999903
0
LINE
8
BLACK
6
CONTINUOUS
10
187.0188129999999944
20
-70.0937819999999903
11
186.7739550000000008
21
-70.0549999999999926
0
LINE
8
BLACK
6
CONTINUOUS
10
186.7739550000000008
20
-70.0549999999999926
11
186.5260449999999821
21
-70.0549999999999926
0
LINE
8
BLACK
6
CONTINUOUS
10
186.5260449999999821
20
-70.0549999999999926
11
186.2811869999999885
21
-70.0937819999999903
0
LINE
8
BLACK
6
CONTINUOUS
10
186.2811869999999885
20
-70.0937819999999903
11
186.0454100000000039
21
-70.1703899999999976
0
LINE
8
BLACK
6
CONTINUOUS
10
186.0454100000000039
20
-70.1703899999999976
11
185.8245199999999784
21
-70.2829389999999989
0
LINE
8
BLACK
6
CONTINUOUS
10
185.8245199999999784
20
-70.2829389999999989
11
185.6239569999999901
21
-70.4286570000000012
0
LINE
8
BLACK
6
CONTINUOUS
10
185.6239569999999901
20
-70.4286570000000012
11
185.4486569999999972
21
-70.6039569999999941
0
LINE
8
BLACK
6
CONTINUOUS
10
185.4486569999999972
20
-70.6039569999999941
11
185.3029389999999808
21
-70.8045199999999966
0
LINE
8
BLACK
6
CONTINUOUS
10
185.3029389999999808
20
-70.8045199999999966
11
185.1903899999999794
21
-71.0254099999999937
0
LINE
8
BLACK
6
CONTINUOUS
10
185.1903899999999794
20
-71.0254099999999937
11
185.1137819999999863
21
-71.2611869999999925
0
LINE
8
BLACK
6
CONTINUOUS
10
185.1137819999999863
20
-71.2611869999999925
11
185.0749999999999886
21
-71.5060450000000003
0
LINE
8
BLACK
6
CONTINUOUS
10
185.0749999999999886
20
-71.5060450000000003
11
185.0749999999999886
21
-71.7539549999999906
0
LINE
8
BLACK
6
CONTINUOUS
10
217.6893489999999929
20
-69.9998989999999992
11
217.9318609999999978
21
-70.0786959999999937
0
LINE
8
BLACK
6
CONTINUOUS
10
217.9318609999999978
20
-70.0786959999999937
11
218.1590599999999824
21
-70.1944599999999923
0
LINE
8
BLACK
6
CONTINUOUS
10
218.1590599999999824
20
-70.1944599999999923
11
218.3653529999999989
21
-70.3443400000000025
0
LINE
8
BLACK
6
CONTINUOUS
10
218.3653529999999989
20
-70.3443400000000025
11
218.545659999999998
21
-70.5246470000000016
0
LINE
8
BLACK
6
CONTINUOUS
10
218.545659999999998
20
-70.5246470000000016
11
218.6955399999999941
21
-70.7309399999999897
0
LINE
8
BLACK
6
CONTINUOUS
10
218.6955399999999941
20
-70.7309399999999897
11
218.8113039999999785
21
-70.9581390000000027
0
LINE
8
BLACK
6
CONTINUOUS
10
218.8113039999999785
20
-70.9581390000000027
11
218.8901009999999872
21
-71.2006509999999935
0
LINE
8
BLACK
6
CONTINUOUS
10
218.8901009999999872
20
-71.2006509999999935
11
218.9299910000000011
21
-71.4525039999999905
0
LINE
8
BLACK
6
CONTINUOUS
10
218.9299910000000011
20
-71.4525039999999905
11
218.9299910000000011
21
-71.7074959999999919
0
LINE
8
BLACK
6
CONTINUOUS
10
218.9299910000000011
20
-71.7074959999999919
11
218.8901009999999872
21
-71.9593490000000031
0
LINE
8
BLACK
6
CONTINUOUS
10
218.8901009999999872
20
-71.9593490000000031
11
218.8113039999999785
21
-72.2018609999999939
0
LINE
8
BLACK
6
CONTINUOUS
10
218.8113039999999785
20
-72.2018609999999939
11
218.6955399999999941
21
-72.4290599999999927
0
LINE
8
BLACK
6
CONTINUOUS
10
218.6955399999999941
20
-72.4290599999999927
11
218.545659999999998
21
-72.6353529999999949
0
LINE
8
BLACK
6
CONTINUOUS
10
218.545659999999998
20
-72.6353529999999949
11
218.3653529999999989
21
-72.8156599999999941
0
LINE
8
BLACK
6
CONTINUOUS
10
218.3653529999999989
20
-72.8156599999999941
11
218.1590599999999824
21
-72.9655399999999901
0
LINE
8
BLACK
6
CONTINUOUS
10
218.1590599999999824
20
-72.9655399999999901
11
217.9318609999999978
21
-73.0813040000000029
0
LINE
8
BLACK
6
CONTINUOUS
10
217.9318609999999978
20
-73.0813040000000029
11
217.6893489999999929
21
-73.1601009999999974
0
LINE
8
BLACK
6
CONTINUOUS
10
217.6893489999999929
20
-73.1601009999999974
11
217.4374959999999817
21
-73.1999909999999971
0
LINE
8
BLACK
6
CONTINUOUS
10
217.4374959999999817
20
-73.1999909999999971
11
217.1825039999999944
21
-73.1999909999999971
0
LINE
8
BLACK
6
CONTINUOUS
10
217.1825039999999944
20
-73.1999909999999971
11
216.9306509999999832
21
-73.1601009999999974
0
LINE
8
BLACK
6
CONTINUOUS
10
216.9306509999999832
20
-73.1601009999999974
11
216.6881389999999783
21
-73.0813040000000029
0
LINE
8
BLACK
6
CONTINUOUS
10
216.6881389999999783
20
-73.0813040000000029
11
216.4609399999999937
21
-72.9655399999999901
0
LINE
8
BLACK
6
CONTINUOUS
10
216.4609399999999937
20
-72.9655399999999901
11
216.2546469999999772
21
-72.8156599999999941
0
LINE
8
BLACK
6
CONTINUOUS
10
216.2546469999999772
20
-72.8156599999999941
11
216.0743399999999781
21
-72.6353529999999949
0
LINE
8
BLACK
6
CONTINUOUS
10
216.0743399999999781
20
-72.6353529999999949
11
215.9244599999999821
21
-72.4290599999999927
0
LINE
8
BLACK
6
CONTINUOUS
10
215.9244599999999821
20
-72.4290599999999927
11
215.8086959999999976
21
-72.2018609999999939
0
LINE
8
BLACK
6
CONTINUOUS
10
215.8086959999999976
20
-72.2018609999999939
11
215.729898999999989
21
-71.9593490000000031
0
LINE
8
BLACK
6
CONTINUOUS
10
215.729898999999989
20
-71.9593490000000031
11
215.6900090000000034
21
-71.7074959999999919
0
LINE
8
BLACK
6
CONTINUOUS
10
215.6900090000000034
20
-71.7074959999999919
11
215.6900090000000034
21
-71.4560450000000031
0
LINE
8
BLACK
6
CONTINUOUS
10
215.6900090000000034
20
-71.4560450000000031
11
215.6900090000000034
21
-71.4525039999999905
0
LINE
8
BLACK
6
CONTINUOUS
10
215.6900090000000034
20
-71.4525039999999905
11
215.729898999999989
21
-71.2006509999999935
0
LINE
8
BLACK
6
CONTINUOUS
10
215.729898999999989
20
-71.2006509999999935
11
215.8086959999999976
21
-70.9581390000000027
0
LINE
8
BLACK
6
CONTINUOUS
10
215.8086959999999976
20
-70.9581390000000027
11
215.9244599999999821
21
-70.7309399999999897
0
LINE
8
BLACK
6
CONTINUOUS
10
215.9244599999999821
20
-70.7309399999999897
11
216.0743399999999781
21
-70.5246470000000016
0
LINE
8
BLACK
6
CONTINUOUS
10
216.0743399999999781
20
-70.5246470000000016
11
216.2546469999999772
21
-70.3443400000000025
0
LINE
8
BLACK
6
CONTINUOUS
10
216.2546469999999772
20
-70.3443400000000025
11
216.4609399999999937
21
-70.1944599999999923
0
LINE
8
BLACK
6
CONTINUOUS
10
216.4609399999999937
20
-70.1944599999999923
11
216.6881389999999783
21
-70.0786959999999937
0
LINE
8
BLACK
6
CONTINUOUS
10
216.6881389999999783
20
-70.0786959999999937
11
216.9306509999999832
21
-69.9998989999999992
0
LINE
8
BLACK
6
CONTINUOUS
10
216.9306509999999832
20
-69.9998989999999992
11
217.1825039999999944
21
-69.9600089999999994
0
LINE
8
BLACK
6
CONTINUOUS
10
217.1825039999999944
20
-69.9600089999999994
11
217.4374959999999817
21
-69.9600089999999994
0
LINE
8
BLACK
6
CONTINUOUS
10
217.4374959999999817
20
-69.9600089999999994
11
217.6893489999999929
21
-69.9998989999999992
0
LINE
8
BLACK
6
CONTINUOUS
10
215.7349999999999852
20
-71.7039549999999934
11
215.7737819999999829
21
-71.9488130000000012
0
LINE
8
BLACK
6
CONTINUOUS
10
215.7737819999999829
20
-71.9488130000000012
11
215.8503900000000044
21
-72.18459
0
LINE
8
BLACK
6
CONTINUOUS
10
215.8503900000000044
20
-72.18459
11
215.9629389999999773
21
-72.4054799999999972
0
LINE
8
BLACK
6
CONTINUOUS
10
215.9629389999999773
20
-72.4054799999999972
11
216.1086569999999938
21
-72.6060429999999997
0
LINE
8
BLACK
6
CONTINUOUS
10
216.1086569999999938
20
-72.6060429999999997
11
216.2839569999999867
21
-72.7813429999999926
0
LINE
8
BLACK
6
CONTINUOUS
10
216.2839569999999867
20
-72.7813429999999926
11
216.4845200000000034
21
-72.9270609999999948
0
LINE
8
BLACK
6
CONTINUOUS
10
216.4845200000000034
20
-72.9270609999999948
11
216.7054100000000005
21
-73.0396099999999961
0
LINE
8
BLACK
6
CONTINUOUS
10
216.7054100000000005
20
-73.0396099999999961
11
216.9411869999999851
21
-73.1162180000000035
0
LINE
8
BLACK
6
CONTINUOUS
10
216.9411869999999851
20
-73.1162180000000035
11
217.1860449999999787
21
-73.1550000000000011
0
LINE
8
BLACK
6
CONTINUOUS
10
217.1860449999999787
20
-73.1550000000000011
11
217.4339549999999974
21
-73.1550000000000011
0
LINE
8
BLACK
6
CONTINUOUS
10
217.4339549999999974
20
-73.1550000000000011
11
217.678812999999991
21
-73.1162180000000035
0
LINE
8
BLACK
6
CONTINUOUS
10
217.678812999999991
20
-73.1162180000000035
11
217.914590000000004
21
-73.0396099999999961
0
LINE
8
BLACK
6
CONTINUOUS
10
217.914590000000004
20
-73.0396099999999961
11
218.1354800000000012
21
-72.9270609999999948
0
LINE
8
BLACK
6
CONTINUOUS
10
218.1354800000000012
20
-72.9270609999999948
11
218.3360429999999894
21
-72.7813429999999926
0
LINE
8
BLACK
6
CONTINUOUS
10
218.3360429999999894
20
-72.7813429999999926
11
218.5113429999999823
21
-72.6060429999999997
0
LINE
8
BLACK
6
CONTINUOUS
10
218.5113429999999823
20
-72.6060429999999997
11
218.6570609999999988
21
-72.4054799999999972
0
LINE
8
BLACK
6
CONTINUOUS
10
218.6570609999999988
20
-72.4054799999999972
11
218.7696100000000001
21
-72.18459
0
LINE
8
BLACK
6
CONTINUOUS
10
218.7696100000000001
20
-72.18459
11
218.8462179999999933
21
-71.9488130000000012
0
LINE
8
BLACK
6
CONTINUOUS
10
218.8462179999999933
20
-71.9488130000000012
11
218.8849999999999909
21
-71.7039549999999934
0
LINE
8
BLACK
6
CONTINUOUS
10
218.8849999999999909
20
-71.7039549999999934
11
218.8849999999999909
21
-71.4560450000000031
0
LINE
8
BLACK
6
CONTINUOUS
10
218.8849999999999909
20
-71.4560450000000031
11
218.8462179999999933
21
-71.2111869999999954
0
LINE
8
BLACK
6
CONTINUOUS
10
218.8462179999999933
20
-71.2111869999999954
11
218.7696100000000001
21
-70.9754099999999966
0
LINE
8
BLACK
6
CONTINUOUS
10
218.7696100000000001
20
-70.9754099999999966
11
218.6570609999999988
21
-70.7545199999999994
0
LINE
8
BLACK
6
CONTINUOUS
10
218.6570609999999988
20
-70.7545199999999994
11
218.5113429999999823
21
-70.5539569999999969
0
LINE
8
BLACK
6
CONTINUOUS
10
218.5113429999999823
20
-70.5539569999999969
11
218.3360429999999894
21
-70.3786569999999898
0
LINE
8
BLACK
6
CONTINUOUS
10
218.3360429999999894
20
-70.3786569999999898
11
218.1354800000000012
21
-70.2329390000000018
0
LINE
8
BLACK
6
CONTINUOUS
10
218.1354800000000012
20
-70.2329390000000018
11
217.914590000000004
21
-70.1203900000000004
0
LINE
8
BLACK
6
CONTINUOUS
10
217.914590000000004
20
-70.1203900000000004
11
217.678812999999991
21
-70.0437819999999931
0
LINE
8
BLACK
6
CONTINUOUS
10
217.678812999999991
20
-70.0437819999999931
11
217.4339549999999974
21
-70.0049999999999955
0
LINE
8
BLACK
6
CONTINUOUS
10
217.4339549999999974
20
-70.0049999999999955
11
217.1860449999999787
21
-70.0049999999999955
0
LINE
8
BLACK
6
CONTINUOUS
10
217.1860449999999787
20
-70.0049999999999955
11
216.9411869999999851
21
-70.0437819999999931
0
LINE
8
BLACK
6
CONTINUOUS
10
216.9411869999999851
20
-70.0437819999999931
11
216.7054100000000005
21
-70.1203900000000004
0
LINE
8
BLACK
6
CONTINUOUS
10
216.7054100000000005
20
-70.1203900000000004
11
216.4845200000000034
21
-70.2329390000000018
0
LINE
8
BLACK
6
CONTINUOUS
10
216.4845200000000034
20
-70.2329390000000018
11
216.2839569999999867
21
-70.3786569999999898
0
LINE
8
BLACK
6
CONTINUOUS
10
216.2839569999999867
20
-70.3786569999999898
11
216.1086569999999938
21
-70.5539569999999969
0
LINE
8
BLACK
6
CONTINUOUS
10
216.1086569999999938
20
-70.5539569999999969
11
215.9629389999999773
21
-70.7545199999999994
0
LINE
8
BLACK
6
CONTINUOUS
10
215.9629389999999773
20
-70.7545199999999994
11
215.8503900000000044
21
-70.9754099999999966
0
LINE
8
BLACK
6
CONTINUOUS
10
215.8503900000000044
20
-70.9754099999999966
11
215.7737819999999829
21
-71.2111869999999954
0
LINE
8
BLACK
6
CONTINUOUS
10
215.7737819999999829
20
-71.2111869999999954
11
215.7349999999999852
21
-71.4560450000000031
0
LINE
8
BLACK
6
CONTINUOUS
10
215.7349999999999852
20
-71.4560450000000031
11
215.7349999999999852
21
-71.7039549999999934
0
LINE
8
BLACK
6
CONTINUOUS
10
227.8786800000000028
20
-68.4963199999999972
11
228.194878999999986
21
-68.5128890000000013
0
LINE
8
BLACK
6
CONTINUOUS
10
228.194878999999986
20
-68.5128890000000013
11
228.5076139999999896
21
-68.562420000000003
0
LINE
8
BLACK
6
CONTINUOUS
10
228.5076139999999896
20
-68.562420000000003
11
228.8134589999999946
21
-68.6443689999999975
0
LINE
8
BLACK
6
CONTINUOUS
10
228.8134589999999946
20
-68.6443689999999975
11
229.1090619999999944
21
-68.7578389999999899
0
LINE
8
BLACK
6
CONTINUOUS
10
229.1090619999999944
20
-68.7578389999999899
11
229.3911839999999813
21
-68.9015869999999921
0
LINE
8
BLACK
6
CONTINUOUS
10
229.3911839999999813
20
-68.9015869999999921
11
229.6567349999999976
21
-69.0740369999999899
0
LINE
8
BLACK
6
CONTINUOUS
10
229.6567349999999976
20
-69.0740369999999899
11
229.9028059999999982
21
-69.2733010000000036
0
LINE
8
BLACK
6
CONTINUOUS
10
229.9028059999999982
20
-69.2733010000000036
11
230.1266990000000021
21
-69.4971939999999933
0
LINE
8
BLACK
6
CONTINUOUS
10
230.1266990000000021
20
-69.4971939999999933
11
230.3259630000000016
21
-69.7432649999999938
0
LINE
8
BLACK
6
CONTINUOUS
10
230.3259630000000016
20
-69.7432649999999938
11
230.4984129999999993
21
-70.0088159999999959
0
LINE
8
BLACK
6
CONTINUOUS
10
230.4984129999999993
20
-70.0088159999999959
11
230.6421609999999873
21
-70.290937999999997
0
LINE
8
BLACK
6
CONTINUOUS
10
230.6421609999999873
20
-70.290937999999997
11
230.7556309999999939
21
-70.5865409999999969
0
LINE
8
BLACK
6
CONTINUOUS
10
230.7556309999999939
20
-70.5865409999999969
11
230.8375800000000027
21
-70.8923860000000019
0
LINE
8
BLACK
6
CONTINUOUS
10
230.8375800000000027
20
-70.8923860000000019
11
230.887110999999976
21
-71.2051209999999912
0
LINE
8
BLACK
6
CONTINUOUS
10
230.887110999999976
20
-71.2051209999999912
11
230.9036779999999851
21
-71.5212920000000025
0
LINE
8
BLACK
6
CONTINUOUS
10
230.9036779999999851
20
-71.5212920000000025
11
230.9036799999999801
21
-71.5212999999999965
0
LINE
8
BLACK
6
CONTINUOUS
10
230.9036799999999801
20
-71.5212999999999965
11
230.9036799999999801
21
-101.5
0
LINE
8
BLACK
6
CONTINUOUS
10
230.9036799999999801
20
-101.5
11
230.8871089999999811
21
-101.816198
0
LINE
8
BLACK
6
CONTINUOUS
10
230.8871089999999811
20
-101.816198
11
230.8375759999999843
21
-102.1289309999999944
0
LINE
8
BLACK
6
CONTINUOUS
10
230.8375759999999843
20
-102.1289309999999944
11
230.7556259999999781
21
-102.4347739999999902
0
LINE
8
BLACK
6
CONTINUOUS
10
230.7556259999999781
20
-102.4347739999999902
11
230.6421550000000025
21
-102.7303749999999951
0
LINE
8
BLACK
6
CONTINUOUS
10
230.6421550000000025
20
-102.7303749999999951
11
230.4984059999999886
21
-103.0124959999999987
0
LINE
8
BLACK
6
CONTINUOUS
10
230.4984059999999886
20
-103.0124959999999987
11
230.3259549999999933
21
-103.2780449999999917
0
LINE
8
BLACK
6
CONTINUOUS
10
230.3259549999999933
20
-103.2780449999999917
11
230.1266919999999914
21
-103.5241139999999973
0
LINE
8
BLACK
6
CONTINUOUS
10
230.1266919999999914
20
-103.5241139999999973
11
229.9027989999999875
21
-103.748004999999992
0
LINE
8
BLACK
6
CONTINUOUS
10
229.9027989999999875
20
-103.748004999999992
11
229.6567289999999844
21
-103.9472669999999965
0
LINE
8
BLACK
6
CONTINUOUS
10
229.6567289999999844
20
-103.9472669999999965
11
229.3911779999999965
21
-104.1197159999999968
0
LINE
8
BLACK
6
CONTINUOUS
10
229.3911779999999965
20
-104.1197159999999968
11
229.1090569999999786
21
-104.2634630000000016
0
LINE
8
BLACK
6
CONTINUOUS
10
229.1090569999999786
20
-104.2634630000000016
11
228.8134549999999763
21
-104.3769319999999965
0
LINE
8
BLACK
6
CONTINUOUS
10
228.8134549999999763
20
-104.3769319999999965
11
228.5076119999999946
21
-104.458880999999991
0
LINE
8
BLACK
6
CONTINUOUS
10
228.5076119999999946
20
-104.458880999999991
11
228.1948779999999886
21
-104.5084109999999953
0
LINE
8
BLACK
6
CONTINUOUS
10
228.1948779999999886
20
-104.5084109999999953
11
227.8788160000000005
21
-104.5249719999999911
0
LINE
8
BLACK
6
CONTINUOUS
10
227.8788160000000005
20
-104.5249719999999911
11
227.8786800000000028
21
-104.5249999999999915
0
LINE
8
BLACK
6
CONTINUOUS
10
227.8786800000000028
20
-104.5249999999999915
11
176.1999999999999886
21
-104.5249999999999915
0
LINE
8
BLACK
6
CONTINUOUS
10
176.1999999999999886
20
-104.5249999999999915
11
175.8838010000000054
21
-104.5084289999999925
0
LINE
8
BLACK
6
CONTINUOUS
10
175.8838010000000054
20
-104.5084289999999925
11
175.5710669999999993
21
-104.4588959999999958
0
LINE
8
BLACK
6
CONTINUOUS
10
175.5710669999999993
20
-104.4588959999999958
11
175.2652239999999892
21
-104.3769459999999896
0
LINE
8
BLACK
6
CONTINUOUS
10
175.2652239999999892
20
-104.3769459999999896
11
174.9696219999999869
21
-104.2634749999999997
0
LINE
8
BLACK
6
CONTINUOUS
10
174.9696219999999869
20
-104.2634749999999997
11
174.6875
21
-104.1197269999999975
0
LINE
8
BLACK
6
CONTINUOUS
10
174.6875
20
-104.1197269999999975
11
174.4219499999999812
21
-103.9472760000000022
0
LINE
8
BLACK
6
CONTINUOUS
10
174.4219499999999812
20
-103.9472760000000022
11
174.1758799999999781
21
-103.7480130000000003
0
LINE
8
BLACK
6
CONTINUOUS
10
174.1758799999999781
20
-103.7480130000000003
11
173.9519870000000026
21
-103.5241199999999964
0
LINE
8
BLACK
6
CONTINUOUS
10
173.9519870000000026
20
-103.5241199999999964
11
173.7527240000000006
21
-103.2780499999999932
0
LINE
8
BLACK
6
CONTINUOUS
10
173.7527240000000006
20
-103.2780499999999932
11
173.5802730000000054
21
-103.0124999999999886
0
LINE
8
BLACK
6
CONTINUOUS
10
173.5802730000000054
20
-103.0124999999999886
11
173.4365249999999889
21
-102.7303780000000017
0
LINE
8
BLACK
6
CONTINUOUS
10
173.4365249999999889
20
-102.7303780000000017
11
173.3230539999999849
21
-102.4347759999999994
0
LINE
8
BLACK
6
CONTINUOUS
10
173.3230539999999849
20
-102.4347759999999994
11
173.2411039999999787
21
-102.1289329999999893
0
LINE
8
BLACK
6
CONTINUOUS
10
173.2411039999999787
20
-102.1289329999999893
11
173.191570999999982
21
-101.8161989999999975
0
LINE
8
BLACK
6
CONTINUOUS
10
173.191570999999982
20
-101.8161989999999975
11
173.1749999999999829
21
-101.5
0
LINE
8
BLACK
6
CONTINUOUS
10
173.1749999999999829
20
-101.5
11
173.1749999999999829
21
-71.5212999999999965
0
LINE
8
BLACK
6
CONTINUOUS
10
173.1749999999999829
20
-71.5212999999999965
11
173.1750009999999804
21
-71.5212920000000025
0
LINE
8
BLACK
6
CONTINUOUS
10
173.1750009999999804
20
-71.5212920000000025
11
173.1914919999999825
21
-71.205851999999993
0
LINE
8
BLACK
6
CONTINUOUS
10
173.1914919999999825
20
-71.205851999999993
11
173.240793999999994
21
-70.8938249999999925
0
LINE
8
BLACK
6
CONTINUOUS
10
173.240793999999994
20
-70.8938249999999925
11
173.3223669999999856
21
-70.5886399999999981
0
LINE
8
BLACK
6
CONTINUOUS
10
173.3223669999999856
20
-70.5886399999999981
11
173.4353219999999851
21
-70.2936270000000007
0
LINE
8
BLACK
6
CONTINUOUS
10
173.4353219999999851
20
-70.2936270000000007
11
173.5784270000000049
21
-70.0120009999999979
0
LINE
8
BLACK
6
CONTINUOUS
10
173.5784270000000049
20
-70.0120009999999979
11
173.7501220000000046
21
-69.7468360000000018
0
LINE
8
BLACK
6
CONTINUOUS
10
173.7501220000000046
20
-69.7468360000000018
11
173.9485339999999951
21
-69.5010209999999944
0
LINE
8
BLACK
6
CONTINUOUS
10
173.9485339999999951
20
-69.5010209999999944
11
174.171498999999983
21
-69.2772389999999945
0
LINE
8
BLACK
6
CONTINUOUS
10
174.171498999999983
20
-69.2772389999999945
11
174.4165859999999952
21
-69.0779299999999949
0
LINE
8
BLACK
6
CONTINUOUS
10
174.4165859999999952
20
-69.0779299999999949
11
174.6811219999999878
21
-68.9052659999999975
0
LINE
8
BLACK
6
CONTINUOUS
10
174.6811219999999878
20
-68.9052659999999975
11
174.9622209999999995
21
-68.7611320000000035
0
LINE
8
BLACK
6
CONTINUOUS
10
174.9622209999999995
20
-68.7611320000000035
11
175.2568200000000047
21
-68.6470979999999997
0
LINE
8
BLACK
6
CONTINUOUS
10
175.2568200000000047
20
-68.6470979999999997
11
175.5617039999999918
21
-68.5644089999999977
0
LINE
8
BLACK
6
CONTINUOUS
10
175.5617039999999918
20
-68.5644089999999977
11
175.873548999999997
21
-68.5139659999999964
0
LINE
8
BLACK
6
CONTINUOUS
10
175.873548999999997
20
-68.5139659999999964
11
176.1889549999999929
21
-68.4963199999999972
0
LINE
8
BLACK
6
CONTINUOUS
10
176.1889549999999929
20
-68.4963199999999972
11
176.1889549999999929
21
-68.4963379999999944
0
LINE
8
BLACK
6
CONTINUOUS
10
176.1889549999999929
20
-68.4963379999999944
11
176.1890459999999905
21
-68.4963199999999972
0
LINE
8
BLACK
6
CONTINUOUS
10
176.1890459999999905
20
-68.4963199999999972
11
227.8786800000000028
21
-68.4963199999999972
0
LINE
8
BLACK
6
CONTINUOUS
10
227.8786800000000028
20
-68.5463199999999944
11
176.1891980000000046
21
-68.5463199999999944
0
LINE
8
BLACK
6
CONTINUOUS
10
176.1891980000000046
20
-68.5463199999999944
11
176.1891369999999881
21
-68.5463400000000007
0
LINE
8
BLACK
6
CONTINUOUS
10
176.1891369999999881
20
-68.5463400000000007
11
176.1891369999999881
21
-68.5463199999999944
0
LINE
8
BLACK
6
CONTINUOUS
10
176.1891369999999881
20
-68.5463199999999944
11
176.0335859999999855
21
-68.5468690000000009
0
LINE
8
BLACK
6
CONTINUOUS
10
176.0335859999999855
20
-68.5468690000000009
11
175.7242999999999995
21
-68.5804419999999908
0
LINE
8
BLACK
6
CONTINUOUS
10
175.7242999999999995
20
-68.5804419999999908
11
175.4202009999999916
21
-68.6460869999999943
0
LINE
8
BLACK
6
CONTINUOUS
10
175.4202009999999916
20
-68.6460869999999943
11
175.124606
21
-68.7430880000000002
0
LINE
8
BLACK
6
CONTINUOUS
10
175.124606
20
-68.7430880000000002
11
174.840738999999985
21
-68.8703859999999963
0
LINE
8
BLACK
6
CONTINUOUS
10
174.840738999999985
20
-68.8703859999999963
11
174.5716960000000029
21
-69.0265940000000029
0
LINE
8
BLACK
6
CONTINUOUS
10
174.5716960000000029
20
-69.0265940000000029
11
174.3204089999999837
21
-69.2100069999999903
0
LINE
8
BLACK
6
CONTINUOUS
10
174.3204089999999837
20
-69.2100069999999903
11
174.089620999999994
21
-69.4186270000000007
0
LINE
8
BLACK
6
CONTINUOUS
10
174.089620999999994
20
-69.4186270000000007
11
173.8818469999999934
21
-69.6501769999999993
0
LINE
8
BLACK
6
CONTINUOUS
10
173.8818469999999934
20
-69.6501769999999993
11
173.6993539999999996
21
-69.9021319999999946
0
LINE
8
BLACK
6
CONTINUOUS
10
173.6993539999999996
20
-69.9021319999999946
11
173.544130999999993
21
-70.1717450000000014
0
LINE
8
BLACK
6
CONTINUOUS
10
173.544130999999993
20
-70.1717450000000014
11
173.4178719999999885
21
-70.4560759999999959
0
LINE
8
BLACK
6
CONTINUOUS
10
173.4178719999999885
20
-70.4560759999999959
11
173.3219540000000052
21
-70.7520239999999916
0
LINE
8
BLACK
6
CONTINUOUS
10
173.3219540000000052
20
-70.7520239999999916
11
173.2574219999999912
21
-71.0563609999999954
0
LINE
8
BLACK
6
CONTINUOUS
10
173.2574219999999912
20
-71.0563609999999954
11
173.224979999999988
21
-71.3657680000000028
0
LINE
8
BLACK
6
CONTINUOUS
10
173.224979999999988
20
-71.3657680000000028
11
173.2249989999999968
21
-71.5212989999999991
0
LINE
8
BLACK
6
CONTINUOUS
10
173.2249989999999968
20
-71.5212989999999991
11
173.2249999999999943
21
-71.5212999999999965
0
LINE
8
BLACK
6
CONTINUOUS
10
173.2249999999999943
20
-71.5212999999999965
11
173.2249999999999943
21
-101.5
0
LINE
8
BLACK
6
CONTINUOUS
10
173.2249999999999943
20
-101.5
11
173.2249999999999943
21
-101.6559129999999982
0
LINE
8
BLACK
6
CONTINUOUS
10
173.2249999999999943
20
-101.6559129999999982
11
173.2575939999999832
21
-101.966031000000001
0
LINE
8
BLACK
6
CONTINUOUS
10
173.2575939999999832
20
-101.966031000000001
11
173.3224270000000047
21
-102.2710429999999917
0
LINE
8
BLACK
6
CONTINUOUS
10
173.3224270000000047
20
-102.2710429999999917
11
173.418785999999983
21
-102.5676079999999928
0
LINE
8
BLACK
6
CONTINUOUS
10
173.418785999999983
20
-102.5676079999999928
11
173.5456179999999904
21
-102.8524749999999983
0
LINE
8
BLACK
6
CONTINUOUS
10
173.5456179999999904
20
-102.8524749999999983
11
173.7015309999999886
21
-103.122524999999996
0
LINE
8
BLACK
6
CONTINUOUS
10
173.7015309999999886
20
-103.122524999999996
11
173.8848179999999957
21
-103.3747979999999984
0
LINE
8
BLACK
6
CONTINUOUS
10
173.8848179999999957
20
-103.3747979999999984
11
174.0934699999999964
21
-103.6065299999999922
0
LINE
8
BLACK
6
CONTINUOUS
10
174.0934699999999964
20
-103.6065299999999922
11
174.3252019999999902
21
-103.815181999999993
0
LINE
8
BLACK
6
CONTINUOUS
10
174.3252019999999902
20
-103.815181999999993
11
174.5774749999999926
21
-103.9984690000000001
0
LINE
8
BLACK
6
CONTINUOUS
10
174.5774749999999926
20
-103.9984690000000001
11
174.8475249999999903
21
-104.1543819999999982
0
LINE
8
BLACK
6
CONTINUOUS
10
174.8475249999999903
20
-104.1543819999999982
11
175.1323919999999816
21
-104.2812139999999914
0
LINE
8
BLACK
6
CONTINUOUS
10
175.1323919999999816
20
-104.2812139999999914
11
175.4289569999999969
21
-104.3775729999999982
0
LINE
8
BLACK
6
CONTINUOUS
10
175.4289569999999969
20
-104.3775729999999982
11
175.7339690000000019
21
-104.4424059999999912
0
LINE
8
BLACK
6
CONTINUOUS
10
175.7339690000000019
20
-104.4424059999999912
11
176.0440869999999904
21
-104.4749999999999943
0
LINE
8
BLACK
6
CONTINUOUS
10
176.0440869999999904
20
-104.4749999999999943
11
176.1999999999999886
21
-104.4749999999999943
0
LINE
8
BLACK
6
CONTINUOUS
10
176.1999999999999886
20
-104.4749999999999943
11
227.8786800000000028
21
-104.4749999999999943
0
LINE
8
BLACK
6
CONTINUOUS
10
227.8786800000000028
20
-104.4749999999999943
11
227.8786800000000028
21
-104.4749800000000022
0
LINE
8
BLACK
6
CONTINUOUS
10
227.8786800000000028
20
-104.4749800000000022
11
228.034593000000001
21
-104.4749809999999997
0
LINE
8
BLACK
6
CONTINUOUS
10
228.034593000000001
20
-104.4749809999999997
11
228.3447099999999921
21
-104.4423889999999915
0
LINE
8
BLACK
6
CONTINUOUS
10
228.3447099999999921
20
-104.4423889999999915
11
228.649721999999997
21
-104.3775579999999934
0
LINE
8
BLACK
6
CONTINUOUS
10
228.649721999999997
20
-104.3775579999999934
11
228.9462859999999864
21
-104.2811999999999983
0
LINE
8
BLACK
6
CONTINUOUS
10
228.9462859999999864
20
-104.2811999999999983
11
229.2311540000000036
21
-104.1543709999999976
0
LINE
8
BLACK
6
CONTINUOUS
10
229.2311540000000036
20
-104.1543709999999976
11
229.5012029999999754
21
-103.9984589999999969
0
LINE
8
BLACK
6
CONTINUOUS
10
229.5012029999999754
20
-103.9984589999999969
11
229.7534759999999778
21
-103.815173999999999
0
LINE
8
BLACK
6
CONTINUOUS
10
229.7534759999999778
20
-103.815173999999999
11
229.9852089999999976
21
-103.6065229999999957
0
LINE
8
BLACK
6
CONTINUOUS
10
229.9852089999999976
20
-103.6065229999999957
11
230.1938609999999983
21
-103.3747919999999993
0
LINE
8
BLACK
6
CONTINUOUS
10
230.1938609999999983
20
-103.3747919999999993
11
230.3771479999999769
21
-103.1225199999999944
0
LINE
8
BLACK
6
CONTINUOUS
10
230.3771479999999769
20
-103.1225199999999944
11
230.533062000000001
21
-102.8524719999999917
0
LINE
8
BLACK
6
CONTINUOUS
10
230.533062000000001
20
-102.8524719999999917
11
230.6598929999999825
21
-102.5676050000000004
0
LINE
8
BLACK
6
CONTINUOUS
10
230.6598929999999825
20
-102.5676050000000004
11
230.7562529999999867
21
-102.2710409999999968
0
LINE
8
BLACK
6
CONTINUOUS
10
230.7562529999999867
20
-102.2710409999999968
11
230.8210849999999823
21
-101.9660299999999893
0
LINE
8
BLACK
6
CONTINUOUS
10
230.8210849999999823
20
-101.9660299999999893
11
230.8536799999999971
21
-101.6559129999999982
0
LINE
8
BLACK
6
CONTINUOUS
10
230.8536799999999971
20
-101.6559129999999982
11
230.8536799999999971
21
-101.5
0
LINE
8
BLACK
6
CONTINUOUS
10
230.8536799999999971
20
-101.5
11
230.8536799999999971
21
-71.5212999999999965
0
LINE
8
BLACK
6
CONTINUOUS
10
230.8536799999999971
20
-71.5212999999999965
11
230.8536799999999971
21
-71.5212989999999991
0
LINE
8
BLACK
6
CONTINUOUS
10
230.8536799999999971
20
-71.5212989999999991
11
230.8536809999999946
21
-71.365405999999993
0
LINE
8
BLACK
6
CONTINUOUS
10
230.8536809999999946
20
-71.365405999999993
11
230.8210880000000031
21
-71.0552879999999902
0
LINE
8
BLACK
6
CONTINUOUS
10
230.8210880000000031
20
-71.0552879999999902
11
230.7562569999999766
21
-70.750275000000002
0
LINE
8
BLACK
6
CONTINUOUS
10
230.7562569999999766
20
-70.750275000000002
11
230.6598989999999958
21
-70.4537090000000035
0
LINE
8
BLACK
6
CONTINUOUS
10
230.6598989999999958
20
-70.4537090000000035
11
230.5330679999999859
21
-70.1688410000000005
0
LINE
8
BLACK
6
CONTINUOUS
10
230.5330679999999859
20
-70.1688410000000005
11
230.3771549999999877
21
-69.8987899999999911
0
LINE
8
BLACK
6
CONTINUOUS
10
230.3771549999999877
20
-69.8987899999999911
11
230.1938679999999806
21
-69.6465170000000029
0
LINE
8
BLACK
6
CONTINUOUS
10
230.1938679999999806
20
-69.6465170000000029
11
229.9852159999999799
21
-69.4147839999999974
0
LINE
8
BLACK
6
CONTINUOUS
10
229.9852159999999799
20
-69.4147839999999974
11
229.7534829999999886
21
-69.2061319999999967
0
LINE
8
BLACK
6
CONTINUOUS
10
229.7534829999999886
20
-69.2061319999999967
11
229.5012099999999862
21
-69.0228450000000038
0
LINE
8
BLACK
6
CONTINUOUS
10
229.5012099999999862
20
-69.0228450000000038
11
229.231158999999991
21
-68.8669319999999914
0
LINE
8
BLACK
6
CONTINUOUS
10
229.231158999999991
20
-68.8669319999999914
11
228.9462910000000022
21
-68.7401009999999957
0
LINE
8
BLACK
6
CONTINUOUS
10
228.9462910000000022
20
-68.7401009999999957
11
228.6497249999999894
21
-68.6437430000000006
0
LINE
8
BLACK
6
CONTINUOUS
10
228.6497249999999894
20
-68.6437430000000006
11
228.344711999999987
21
-68.5789120000000025
0
LINE
8
BLACK
6
CONTINUOUS
10
228.344711999999987
20
-68.5789120000000025
11
228.0345939999999985
21
-68.5463189999999969
0
LINE
8
BLACK
6
CONTINUOUS
10
228.0345939999999985
20
-68.5463189999999969
11
227.8786800000000028
21
-68.5463199999999944
  0
ENDSEC
  0
EOF
