%TF.GenerationSoftware,KiCad,Pcbnew,9.0.0*%
%TF.CreationDate,2025-09-27T09:52:46-07:00*%
%TF.ProjectId,grippy,67726970-7079-42e6-9b69-6361645f7063,rev?*%
%TF.SameCoordinates,Original*%
%TF.FileFunction,Legend,Top*%
%TF.FilePolarity,Positive*%
%FSLAX46Y46*%
G04 Gerber Fmt 4.6, Leading zero omitted, Abs format (unit mm)*
G04 Created by KiCad (PCBNEW 9.0.0) date 2025-09-27 09:52:46*
%MOMM*%
%LPD*%
G01*
G04 APERTURE LIST*
%ADD10C,0.300000*%
%ADD11C,0.120000*%
%ADD12C,0.150000*%
%ADD13C,0.100000*%
G04 APERTURE END LIST*
D10*
G36*
X202868520Y-90693143D02*
G01*
X203078653Y-90703831D01*
X203229755Y-90731612D01*
X203358580Y-90784554D01*
X203452871Y-90860572D01*
X203521154Y-90962844D01*
X203569375Y-91104204D01*
X203603447Y-91485223D01*
X203603447Y-94087508D01*
X203569375Y-94519085D01*
X203519766Y-94675375D01*
X203448475Y-94783967D01*
X203348026Y-94862945D01*
X203207407Y-94917323D01*
X203041643Y-94944770D01*
X202806971Y-94955425D01*
X198698196Y-94955425D01*
X198417169Y-94932732D01*
X198230968Y-94875028D01*
X198112379Y-94792393D01*
X198032138Y-94671495D01*
X197975235Y-94477418D01*
X197952644Y-94179832D01*
X197952644Y-91493649D01*
X197987083Y-91091748D01*
X198036679Y-90946722D01*
X198108715Y-90843353D01*
X198209511Y-90769057D01*
X198354546Y-90718789D01*
X198751685Y-90684717D01*
X199174836Y-90684717D01*
X199436450Y-90714149D01*
X199593553Y-90787657D01*
X199680725Y-90895981D01*
X199711193Y-91048883D01*
X199681667Y-91211815D01*
X199600917Y-91317794D01*
X199469284Y-91381183D01*
X199239316Y-91413049D01*
X198952819Y-91442358D01*
X198853905Y-91474303D01*
X198787222Y-91522958D01*
X198741117Y-91593497D01*
X198709187Y-91702843D01*
X198687937Y-92023046D01*
X198679511Y-92283164D01*
X198679511Y-93575331D01*
X198704424Y-93928140D01*
X198746700Y-94041705D01*
X198819096Y-94120481D01*
X198921766Y-94170890D01*
X199080680Y-94202180D01*
X199555854Y-94218667D01*
X199799487Y-94210607D01*
X199947864Y-94173970D01*
X200041653Y-94092637D01*
X200120422Y-93948290D01*
X200227766Y-93756681D01*
X200337676Y-93673883D01*
X200458923Y-93630302D01*
X200621608Y-93614166D01*
X200993834Y-93614166D01*
X202186350Y-93614166D01*
X202503621Y-93598936D01*
X202658227Y-93565439D01*
X202762089Y-93492320D01*
X202826388Y-93362840D01*
X202851301Y-93188084D01*
X202868154Y-92827948D01*
X202868154Y-92618387D01*
X202876580Y-92425314D01*
X202876580Y-92031106D01*
X202852034Y-91691486D01*
X202806523Y-91583991D01*
X202720509Y-91507937D01*
X202597708Y-91461944D01*
X202390781Y-91434298D01*
X201769794Y-91421475D01*
X201310006Y-91433932D01*
X201149940Y-91457786D01*
X201052086Y-91495115D01*
X200979097Y-91554410D01*
X200933384Y-91633600D01*
X200891985Y-91872103D01*
X200883558Y-91981280D01*
X200846347Y-92207379D01*
X200785373Y-92332990D01*
X200684758Y-92409098D01*
X200524155Y-92437404D01*
X200368240Y-92407402D01*
X200259022Y-92322423D01*
X200185802Y-92171262D01*
X200156692Y-91921929D01*
X200156692Y-91401325D01*
X200179350Y-91133181D01*
X200237030Y-90955962D01*
X200320090Y-90843353D01*
X200440316Y-90768291D01*
X200634619Y-90714560D01*
X200933750Y-90693143D01*
X202868520Y-90693143D01*
G37*
G36*
X202852034Y-88788782D02*
G01*
X203212903Y-88810031D01*
X203343739Y-88843976D01*
X203436751Y-88896493D01*
X203505741Y-88972049D01*
X203549958Y-89073447D01*
X203580000Y-89362875D01*
X203565692Y-89606617D01*
X203532372Y-89741695D01*
X203464501Y-89843893D01*
X203346259Y-89927442D01*
X203178831Y-89970673D01*
X202853133Y-89979099D01*
X200270265Y-89979099D01*
X199917822Y-89957850D01*
X199796554Y-89921590D01*
X199711193Y-89862229D01*
X199651384Y-89777167D01*
X199615572Y-89659996D01*
X199593956Y-89320743D01*
X199593956Y-88254623D01*
X199615133Y-87981767D01*
X199663565Y-87840265D01*
X199754899Y-87754052D01*
X199906465Y-87722662D01*
X200071760Y-87755075D01*
X200162187Y-87840631D01*
X200207245Y-87981723D01*
X200227034Y-88254623D01*
X200227034Y-88909682D01*
X200251443Y-89161412D01*
X200303604Y-89266521D01*
X200409099Y-89318413D01*
X200661908Y-89342725D01*
X200704040Y-89342725D01*
X200885058Y-89327800D01*
X200971120Y-89294731D01*
X201026783Y-89226576D01*
X201079930Y-89074546D01*
X201146679Y-88916267D01*
X201219515Y-88841172D01*
X201329007Y-88805245D01*
X201563164Y-88788782D01*
X202852034Y-88788782D01*
G37*
G36*
X198471782Y-86109926D02*
G01*
X198742712Y-86146198D01*
X198890537Y-86235223D01*
X198972748Y-86392874D01*
X199007773Y-86700872D01*
X198975867Y-87024633D01*
X198903360Y-87183007D01*
X198767107Y-87271770D01*
X198505488Y-87308304D01*
X198303126Y-87290202D01*
X198165351Y-87243397D01*
X198074277Y-87174581D01*
X198013211Y-87076528D01*
X197969831Y-86920764D01*
X197952644Y-86684019D01*
X197984972Y-86390245D01*
X198061454Y-86235223D01*
X198202037Y-86146566D01*
X198471782Y-86109926D01*
G37*
G36*
X202856064Y-86109926D02*
G01*
X203215101Y-86131175D01*
X203344919Y-86165091D01*
X203437484Y-86217637D01*
X203506098Y-86293171D01*
X203549958Y-86394591D01*
X203580000Y-86684019D01*
X203565800Y-86927777D01*
X203532739Y-87062840D01*
X203464989Y-87165091D01*
X203347358Y-87248586D01*
X203180662Y-87291817D01*
X202856064Y-87300244D01*
X200116758Y-87300244D01*
X199844836Y-87278930D01*
X199707163Y-87230635D01*
X199624791Y-87137931D01*
X199593956Y-86977843D01*
X199624415Y-86825121D01*
X199707163Y-86733845D01*
X199844867Y-86685289D01*
X200116758Y-86663869D01*
X200719794Y-86663869D01*
X200899787Y-86648950D01*
X200985408Y-86615875D01*
X201040790Y-86547768D01*
X201093852Y-86395690D01*
X201160229Y-86237372D01*
X201232704Y-86162316D01*
X201341709Y-86126381D01*
X201574521Y-86109926D01*
X202856064Y-86109926D01*
G37*
G36*
X200492281Y-81749092D02*
G01*
X200636280Y-81800278D01*
X200737379Y-81878053D01*
X200807490Y-81986685D01*
X200853883Y-82142934D01*
X200883558Y-82582571D01*
X200883558Y-83497749D01*
X200904441Y-83838468D01*
X200939666Y-83950188D01*
X200998230Y-84026413D01*
X201082926Y-84076648D01*
X201212554Y-84107379D01*
X201606762Y-84123866D01*
X202789385Y-84123866D01*
X203108438Y-84144466D01*
X203312261Y-84195610D01*
X203435286Y-84265648D01*
X203520942Y-84373580D01*
X203580162Y-84545207D01*
X203603447Y-84807135D01*
X203581561Y-85033333D01*
X203522453Y-85202311D01*
X203431256Y-85327739D01*
X203334842Y-85398503D01*
X203215467Y-85439846D01*
X202806971Y-85465125D01*
X198706988Y-85465125D01*
X198331831Y-85431053D01*
X198198909Y-85379608D01*
X198099190Y-85297697D01*
X198028674Y-85185353D01*
X197982686Y-85028419D01*
X197952644Y-84588782D01*
X197952644Y-83061043D01*
X198679511Y-83061043D01*
X198679511Y-84135589D01*
X198704790Y-84450662D01*
X198744000Y-84554568D01*
X198808105Y-84630547D01*
X198897307Y-84682408D01*
X199029023Y-84716277D01*
X199409675Y-84736793D01*
X199803517Y-84716277D01*
X199939155Y-84683205D01*
X200028464Y-84634577D01*
X200092404Y-84562799D01*
X200131779Y-84463119D01*
X200156692Y-84160868D01*
X200156692Y-83061043D01*
X200131779Y-82729117D01*
X200091761Y-82618794D01*
X200028831Y-82545568D01*
X199938407Y-82498224D01*
X199795090Y-82468265D01*
X199366810Y-82451779D01*
X199003377Y-82472295D01*
X198879305Y-82504765D01*
X198794916Y-82553628D01*
X198735729Y-82626022D01*
X198700394Y-82733147D01*
X198679511Y-83061043D01*
X197952644Y-83061043D01*
X197952644Y-82616277D01*
X197974260Y-82181402D01*
X198008551Y-82049419D01*
X198064385Y-81946563D01*
X198167700Y-81826395D01*
X198301789Y-81757519D01*
X198506587Y-81723080D01*
X198815432Y-81714654D01*
X200088182Y-81714654D01*
X200492281Y-81749092D01*
G37*
G36*
X200492281Y-77399616D02*
G01*
X200636280Y-77450802D01*
X200737379Y-77528576D01*
X200807490Y-77637208D01*
X200853883Y-77793457D01*
X200883558Y-78233094D01*
X200883558Y-79148272D01*
X200904441Y-79488991D01*
X200939666Y-79600712D01*
X200998230Y-79676936D01*
X201082926Y-79727172D01*
X201212554Y-79757903D01*
X201606762Y-79774389D01*
X202789385Y-79774389D01*
X203108438Y-79794989D01*
X203312261Y-79846133D01*
X203435286Y-79916172D01*
X203520942Y-80024104D01*
X203580162Y-80195731D01*
X203603447Y-80457658D01*
X203581561Y-80683857D01*
X203522453Y-80852835D01*
X203431256Y-80978262D01*
X203334842Y-81049026D01*
X203215467Y-81090369D01*
X202806971Y-81115648D01*
X198706988Y-81115648D01*
X198331831Y-81081577D01*
X198198909Y-81030131D01*
X198099190Y-80948220D01*
X198028674Y-80835876D01*
X197982686Y-80678942D01*
X197952644Y-80239305D01*
X197952644Y-78711566D01*
X198679511Y-78711566D01*
X198679511Y-79786113D01*
X198704790Y-80101186D01*
X198744000Y-80205092D01*
X198808105Y-80281071D01*
X198897307Y-80332932D01*
X199029023Y-80366800D01*
X199409675Y-80387316D01*
X199803517Y-80366800D01*
X199939155Y-80333728D01*
X200028464Y-80285101D01*
X200092404Y-80213322D01*
X200131779Y-80113642D01*
X200156692Y-79811392D01*
X200156692Y-78711566D01*
X200131779Y-78379640D01*
X200091761Y-78269317D01*
X200028831Y-78196092D01*
X199938407Y-78148747D01*
X199795090Y-78118789D01*
X199366810Y-78102302D01*
X199003377Y-78122819D01*
X198879305Y-78155288D01*
X198794916Y-78204152D01*
X198735729Y-78276545D01*
X198700394Y-78383670D01*
X198679511Y-78711566D01*
X197952644Y-78711566D01*
X197952644Y-78266800D01*
X197974260Y-77831926D01*
X198008551Y-77699943D01*
X198064385Y-77597086D01*
X198167700Y-77476919D01*
X198301789Y-77408042D01*
X198506587Y-77373604D01*
X198815432Y-77365177D01*
X200088182Y-77365177D01*
X200492281Y-77399616D01*
G37*
G36*
X204384902Y-73720952D02*
G01*
X204715362Y-73746598D01*
X204832124Y-73785960D01*
X204913199Y-73846249D01*
X204969992Y-73931100D01*
X205008087Y-74052512D01*
X205033733Y-74395795D01*
X205033733Y-76292829D01*
X205013700Y-76565801D01*
X204968520Y-76703524D01*
X204879981Y-76785724D01*
X204721224Y-76816730D01*
X204562624Y-76784966D01*
X204469898Y-76699127D01*
X204421732Y-76557612D01*
X204400655Y-76284403D01*
X204400655Y-74790369D01*
X204377789Y-74544014D01*
X204327749Y-74433164D01*
X204229112Y-74374343D01*
X204015607Y-74348534D01*
X203762458Y-74372943D01*
X203656570Y-74425104D01*
X203604409Y-74530213D01*
X203580000Y-74781943D01*
X203580000Y-76166800D01*
X203558750Y-76502023D01*
X203522610Y-76622270D01*
X203463496Y-76704256D01*
X203379232Y-76761344D01*
X203261629Y-76799511D01*
X202923108Y-76825157D01*
X200317892Y-76825157D01*
X199963984Y-76812334D01*
X199784466Y-76756280D01*
X199687656Y-76667584D01*
X199620825Y-76510331D01*
X199593956Y-76250697D01*
X199606974Y-76014751D01*
X199637187Y-75884699D01*
X199699500Y-75785429D01*
X199809378Y-75703349D01*
X199988897Y-75647662D01*
X200318258Y-75634839D01*
X201592473Y-75634839D01*
X201825882Y-75651154D01*
X201938688Y-75687229D01*
X202012641Y-75762932D01*
X202073143Y-75920603D01*
X202132149Y-76073274D01*
X202186350Y-76140788D01*
X202269141Y-76173569D01*
X202455628Y-76188782D01*
X202514246Y-76188782D01*
X202750184Y-76176692D01*
X202828202Y-76155258D01*
X202879145Y-76121004D01*
X202913237Y-76069247D01*
X202934832Y-75987648D01*
X202946922Y-75747313D01*
X202946922Y-74798796D01*
X202930436Y-74562857D01*
X202870718Y-74433531D01*
X202741392Y-74373447D01*
X202514246Y-74356960D01*
X200117124Y-74356960D01*
X199844879Y-74335641D01*
X199707163Y-74287351D01*
X199624805Y-74194942D01*
X199593956Y-74034926D01*
X199624982Y-73875461D01*
X199707163Y-73786531D01*
X199844554Y-73741098D01*
X200117124Y-73720952D01*
X204384902Y-73720952D01*
G37*
G36*
X195615177Y-98302868D02*
G01*
X195606867Y-98466087D01*
X195586601Y-98567383D01*
X195547712Y-98650360D01*
X195489148Y-98715394D01*
X195420779Y-98757712D01*
X195337962Y-98783782D01*
X195053419Y-98800635D01*
X194185868Y-98800635D01*
X193925261Y-98814556D01*
X193841580Y-98840570D01*
X193786043Y-98886120D01*
X193750589Y-98953054D01*
X193729134Y-99059043D01*
X193718143Y-99378269D01*
X193737194Y-99605659D01*
X193766638Y-99673242D01*
X193816085Y-99724849D01*
X193864445Y-99757822D01*
X193938206Y-99774187D01*
X194060327Y-99782735D01*
X194253035Y-99785422D01*
X195159665Y-99785422D01*
X195381437Y-99788353D01*
X195486706Y-99808136D01*
X195544541Y-99835735D01*
X195593928Y-99886294D01*
X195626140Y-99952140D01*
X195637404Y-100033328D01*
X195615311Y-100149819D01*
X195556315Y-100217976D01*
X195458510Y-100254262D01*
X195271528Y-100270000D01*
X193346406Y-100270000D01*
X193081158Y-100249972D01*
X192987748Y-100218664D01*
X192921179Y-100169371D01*
X192874312Y-100099652D01*
X192843510Y-100000355D01*
X192823726Y-99717278D01*
X192823726Y-98863161D01*
X192837892Y-98600111D01*
X192860393Y-98521533D01*
X192897976Y-98454054D01*
X192968933Y-98385799D01*
X193052581Y-98344633D01*
X193156486Y-98324539D01*
X193335415Y-98316057D01*
X194622330Y-98316057D01*
X194784752Y-98316057D01*
X194969399Y-98297250D01*
X195030664Y-98269761D01*
X195075157Y-98227397D01*
X195104549Y-98168491D01*
X195123761Y-98074745D01*
X195134996Y-97806810D01*
X195134996Y-97501018D01*
X195121318Y-97230886D01*
X195097419Y-97140830D01*
X195058792Y-97081409D01*
X195001644Y-97040951D01*
X194916643Y-97016685D01*
X194661653Y-97003007D01*
X193760642Y-97003007D01*
X193535938Y-97016685D01*
X193456706Y-97037312D01*
X193401849Y-97067732D01*
X193360874Y-97110914D01*
X193334193Y-97167138D01*
X193315143Y-97333224D01*
X193309525Y-97454856D01*
X193289988Y-97634453D01*
X193254570Y-97725722D01*
X193189265Y-97779502D01*
X193072365Y-97800216D01*
X192941282Y-97777335D01*
X192873063Y-97719371D01*
X192839220Y-97618177D01*
X192823726Y-97401856D01*
X192823726Y-97061625D01*
X192843754Y-96780502D01*
X192875921Y-96682950D01*
X192927041Y-96615638D01*
X192999812Y-96569075D01*
X193106315Y-96538213D01*
X193413572Y-96518429D01*
X195008478Y-96518429D01*
X195309874Y-96535526D01*
X195407586Y-96560793D01*
X195477669Y-96597808D01*
X195546057Y-96657892D01*
X195589532Y-96740690D01*
X195609560Y-96867941D01*
X195615177Y-97060893D01*
X195615177Y-98302868D01*
G37*
G36*
X198706071Y-96538457D02*
G01*
X198804801Y-96569735D01*
X198874354Y-96618813D01*
X198923289Y-96688756D01*
X198954710Y-96790027D01*
X198974494Y-97075059D01*
X198974494Y-99758066D01*
X198954466Y-100015254D01*
X198923484Y-100106343D01*
X198874110Y-100172547D01*
X198805217Y-100219544D01*
X198708757Y-100250216D01*
X198435205Y-100270000D01*
X196638799Y-100270000D01*
X196345464Y-100250216D01*
X196242340Y-100217242D01*
X196171318Y-100163998D01*
X196122419Y-100088885D01*
X196091207Y-99984480D01*
X196071423Y-99685282D01*
X196071423Y-97522267D01*
X196556978Y-97522267D01*
X196556978Y-99238073D01*
X196567969Y-99539469D01*
X196586850Y-99642091D01*
X196614131Y-99704333D01*
X196658043Y-99747198D01*
X196725505Y-99771744D01*
X196935310Y-99785422D01*
X197522958Y-99785422D01*
X197837299Y-99774431D01*
X197940836Y-99753285D01*
X198001674Y-99720209D01*
X198042221Y-99667844D01*
X198066643Y-99586364D01*
X198080321Y-99333328D01*
X198080321Y-98570802D01*
X198085938Y-98380293D01*
X198091556Y-98207857D01*
X198120621Y-98098925D01*
X198186810Y-98026385D01*
X198303558Y-97969232D01*
X198409049Y-97913104D01*
X198456454Y-97863230D01*
X198478866Y-97793510D01*
X198488939Y-97651228D01*
X198494556Y-97421395D01*
X198477948Y-97210614D01*
X198453152Y-97135093D01*
X198415666Y-97082142D01*
X198362363Y-97044734D01*
X198284508Y-97019616D01*
X198065910Y-97003007D01*
X197036182Y-97003007D01*
X196767027Y-97016929D01*
X196680185Y-97041498D01*
X196624877Y-97081898D01*
X196589353Y-97141896D01*
X196567969Y-97235526D01*
X196556978Y-97522267D01*
X196071423Y-97522267D01*
X196071423Y-97075059D01*
X196091207Y-96778792D01*
X196121396Y-96692264D01*
X196168632Y-96627117D01*
X196239178Y-96574545D01*
X196328367Y-96541144D01*
X196438996Y-96525213D01*
X196633182Y-96518429D01*
X198423970Y-96518429D01*
X198706071Y-96538457D01*
G37*
G36*
X202239043Y-98302868D02*
G01*
X202230733Y-98466087D01*
X202210467Y-98567383D01*
X202171578Y-98650360D01*
X202113014Y-98715394D01*
X202044645Y-98757712D01*
X201961828Y-98783782D01*
X201677285Y-98800635D01*
X200809734Y-98800635D01*
X200549127Y-98814556D01*
X200465446Y-98840570D01*
X200409909Y-98886120D01*
X200374455Y-98953054D01*
X200353000Y-99059043D01*
X200342009Y-99378269D01*
X200361060Y-99605659D01*
X200390504Y-99673242D01*
X200439951Y-99724849D01*
X200488311Y-99757822D01*
X200562072Y-99774187D01*
X200684193Y-99782735D01*
X200876901Y-99785422D01*
X201783531Y-99785422D01*
X202005303Y-99788353D01*
X202110572Y-99808136D01*
X202168407Y-99835735D01*
X202217794Y-99886294D01*
X202250006Y-99952140D01*
X202261270Y-100033328D01*
X202239177Y-100149819D01*
X202180181Y-100217976D01*
X202082376Y-100254262D01*
X201895394Y-100270000D01*
X199970272Y-100270000D01*
X199705024Y-100249972D01*
X199611614Y-100218664D01*
X199545045Y-100169371D01*
X199498178Y-100099652D01*
X199467376Y-100000355D01*
X199447592Y-99717278D01*
X199447592Y-98863161D01*
X199461758Y-98600111D01*
X199484259Y-98521533D01*
X199521842Y-98454054D01*
X199592799Y-98385799D01*
X199676448Y-98344633D01*
X199780352Y-98324539D01*
X199959281Y-98316057D01*
X201246196Y-98316057D01*
X201408618Y-98316057D01*
X201593265Y-98297250D01*
X201654530Y-98269761D01*
X201699023Y-98227397D01*
X201728415Y-98168491D01*
X201747627Y-98074745D01*
X201758862Y-97806810D01*
X201758862Y-97501018D01*
X201745184Y-97230886D01*
X201721285Y-97140830D01*
X201682658Y-97081409D01*
X201625510Y-97040951D01*
X201540509Y-97016685D01*
X201285519Y-97003007D01*
X200384508Y-97003007D01*
X200159804Y-97016685D01*
X200080572Y-97037312D01*
X200025715Y-97067732D01*
X199984740Y-97110914D01*
X199958060Y-97167138D01*
X199939009Y-97333224D01*
X199933391Y-97454856D01*
X199913854Y-97634453D01*
X199878436Y-97725722D01*
X199813132Y-97779502D01*
X199696231Y-97800216D01*
X199565148Y-97777335D01*
X199496929Y-97719371D01*
X199463086Y-97618177D01*
X199447592Y-97401856D01*
X199447592Y-97061625D01*
X199467620Y-96780502D01*
X199499787Y-96682950D01*
X199550907Y-96615638D01*
X199623678Y-96569075D01*
X199730181Y-96538213D01*
X200037438Y-96518429D01*
X201632344Y-96518429D01*
X201933740Y-96535526D01*
X202031452Y-96560793D01*
X202101535Y-96597808D01*
X202169923Y-96657892D01*
X202213398Y-96740690D01*
X202233426Y-96867941D01*
X202239043Y-97060893D01*
X202239043Y-98302868D01*
G37*
G36*
X205447418Y-99664766D02*
G01*
X205427390Y-99979595D01*
X205395873Y-100088650D01*
X205347034Y-100164487D01*
X205276998Y-100217759D01*
X205178750Y-100250216D01*
X204891032Y-100270000D01*
X203240195Y-100270000D01*
X202938555Y-100250216D01*
X202832241Y-100218809D01*
X202759036Y-100170348D01*
X202707784Y-100100623D01*
X202675750Y-100002554D01*
X202655966Y-99715568D01*
X202655966Y-99397564D01*
X202664515Y-99178234D01*
X202708234Y-99074919D01*
X202789646Y-99010384D01*
X202898988Y-98988213D01*
X203016654Y-99008870D01*
X203086566Y-99063440D01*
X203125392Y-99153710D01*
X203141765Y-99319406D01*
X203155443Y-99565603D01*
X203177298Y-99648832D01*
X203209665Y-99704333D01*
X203257421Y-99743776D01*
X203326657Y-99769057D01*
X203531332Y-99785422D01*
X204085275Y-99785422D01*
X204335136Y-99771744D01*
X204420615Y-99748690D01*
X204477041Y-99712393D01*
X204515760Y-99658468D01*
X204539323Y-99578792D01*
X204553244Y-99346517D01*
X204553244Y-98944738D01*
X204539323Y-98684619D01*
X204514405Y-98600151D01*
X204471667Y-98542958D01*
X204408105Y-98505462D01*
X204307048Y-98483363D01*
X204006873Y-98472372D01*
X203217969Y-98472372D01*
X202930251Y-98452588D01*
X202830989Y-98421868D01*
X202759281Y-98374675D01*
X202708039Y-98307228D01*
X202675994Y-98211277D01*
X202655966Y-97936503D01*
X202655966Y-96981270D01*
X202678681Y-96756810D01*
X202711585Y-96675542D01*
X202761967Y-96613196D01*
X202830440Y-96568186D01*
X202924633Y-96538457D01*
X203178646Y-96518429D01*
X204868806Y-96518429D01*
X205081006Y-96535092D01*
X205187055Y-96572651D01*
X205250497Y-96643553D01*
X205274005Y-96763405D01*
X205253345Y-96879468D01*
X205198534Y-96948785D01*
X205107243Y-96986786D01*
X204935973Y-97003007D01*
X203587264Y-97003007D01*
X203337648Y-97019860D01*
X203258118Y-97043899D01*
X203212595Y-97074570D01*
X203182052Y-97127928D01*
X203155443Y-97227466D01*
X203136147Y-97529595D01*
X203152512Y-97771639D01*
X203178989Y-97852714D01*
X203220411Y-97907683D01*
X203279507Y-97945398D01*
X203365491Y-97970942D01*
X203620725Y-97987794D01*
X204863189Y-97987794D01*
X205161898Y-98007578D01*
X205266262Y-98038802D01*
X205341172Y-98087690D01*
X205394844Y-98157335D01*
X205427390Y-98253042D01*
X205447418Y-98531479D01*
X205447418Y-99664766D01*
G37*
G36*
X208518771Y-96538457D02*
G01*
X208617502Y-96569735D01*
X208687055Y-96618813D01*
X208735990Y-96688756D01*
X208767411Y-96790027D01*
X208787194Y-97075059D01*
X208787194Y-99758066D01*
X208767166Y-100015254D01*
X208736185Y-100106343D01*
X208686810Y-100172547D01*
X208617918Y-100219544D01*
X208521458Y-100250216D01*
X208247906Y-100270000D01*
X206451500Y-100270000D01*
X206158164Y-100250216D01*
X206055041Y-100217242D01*
X205984019Y-100163998D01*
X205935120Y-100088885D01*
X205903907Y-99984480D01*
X205884124Y-99685282D01*
X205884124Y-97522267D01*
X206369678Y-97522267D01*
X206369678Y-99238073D01*
X206380669Y-99539469D01*
X206399550Y-99642091D01*
X206426831Y-99704333D01*
X206470743Y-99747198D01*
X206538206Y-99771744D01*
X206748011Y-99785422D01*
X207335659Y-99785422D01*
X207650000Y-99774431D01*
X207753537Y-99753285D01*
X207814375Y-99720209D01*
X207854921Y-99667844D01*
X207879344Y-99586364D01*
X207893021Y-99333328D01*
X207893021Y-98570802D01*
X207898639Y-98380293D01*
X207904256Y-98207857D01*
X207933321Y-98098925D01*
X207999511Y-98026385D01*
X208116259Y-97969232D01*
X208221749Y-97913104D01*
X208269155Y-97863230D01*
X208291567Y-97793510D01*
X208301639Y-97651228D01*
X208307257Y-97421395D01*
X208290648Y-97210614D01*
X208265852Y-97135093D01*
X208228367Y-97082142D01*
X208175063Y-97044734D01*
X208097208Y-97019616D01*
X207878611Y-97003007D01*
X206848883Y-97003007D01*
X206579727Y-97016929D01*
X206492885Y-97041498D01*
X206437578Y-97081898D01*
X206402054Y-97141896D01*
X206380669Y-97235526D01*
X206369678Y-97522267D01*
X205884124Y-97522267D01*
X205884124Y-97075059D01*
X205903907Y-96778792D01*
X205934097Y-96692264D01*
X205981332Y-96627117D01*
X206051878Y-96574545D01*
X206141067Y-96541144D01*
X206251696Y-96525213D01*
X206445882Y-96518429D01*
X208236671Y-96518429D01*
X208518771Y-96538457D01*
G37*
G36*
X211667794Y-96561172D02*
G01*
X211765379Y-96582202D01*
X211835589Y-96618325D01*
X211907800Y-96686470D01*
X211953070Y-96778060D01*
X211975130Y-96895709D01*
X211984577Y-97105101D01*
X211984577Y-99714591D01*
X211973098Y-99987411D01*
X211954344Y-100059911D01*
X211921807Y-100121256D01*
X211843675Y-100198269D01*
X211719294Y-100249905D01*
X211529064Y-100270000D01*
X211405225Y-100262948D01*
X211316329Y-100244598D01*
X211240511Y-100210397D01*
X211181751Y-100161311D01*
X211133147Y-100093168D01*
X211101639Y-100007927D01*
X211087473Y-99886538D01*
X211084787Y-99710439D01*
X211084787Y-99331374D01*
X211073551Y-99057334D01*
X211052243Y-98964868D01*
X211016887Y-98907613D01*
X210962424Y-98869369D01*
X210877669Y-98845575D01*
X210616817Y-98831898D01*
X209699197Y-98831898D01*
X209436392Y-98812114D01*
X209345819Y-98780811D01*
X209282030Y-98731514D01*
X209237210Y-98663063D01*
X209207536Y-98568848D01*
X209187752Y-98297983D01*
X209187752Y-97447041D01*
X209673307Y-97447041D01*
X209673307Y-97923558D01*
X209686985Y-98145575D01*
X209709231Y-98221324D01*
X209743893Y-98274047D01*
X209794049Y-98310802D01*
X209866503Y-98333642D01*
X210074110Y-98347320D01*
X211114829Y-98347320D01*
X211313886Y-98333642D01*
X211383330Y-98310828D01*
X211430879Y-98274047D01*
X211463712Y-98222096D01*
X211485101Y-98148506D01*
X211498778Y-97934549D01*
X211498778Y-97447041D01*
X211482414Y-97228199D01*
X211455916Y-97156409D01*
X211412072Y-97105345D01*
X211350751Y-97070610D01*
X211261374Y-97048192D01*
X211002965Y-97034270D01*
X210118806Y-97034270D01*
X209885799Y-97048192D01*
X209805394Y-97070549D01*
X209751953Y-97105101D01*
X209714743Y-97155603D01*
X209689672Y-97230642D01*
X209673307Y-97447041D01*
X209187752Y-97447041D01*
X209187752Y-97077990D01*
X209210467Y-96818115D01*
X209243033Y-96723908D01*
X209290579Y-96655450D01*
X209356470Y-96605598D01*
X209447383Y-96572407D01*
X209699197Y-96549692D01*
X211321946Y-96549692D01*
X211667794Y-96561172D01*
G37*
G36*
X215240579Y-98302868D02*
G01*
X215232268Y-98466087D01*
X215212002Y-98567383D01*
X215173113Y-98650360D01*
X215114549Y-98715394D01*
X215046181Y-98757712D01*
X214963363Y-98783782D01*
X214678820Y-98800635D01*
X213811270Y-98800635D01*
X213550662Y-98814556D01*
X213466981Y-98840570D01*
X213411444Y-98886120D01*
X213375990Y-98953054D01*
X213354535Y-99059043D01*
X213343545Y-99378269D01*
X213362595Y-99605659D01*
X213392039Y-99673242D01*
X213441486Y-99724849D01*
X213489846Y-99757822D01*
X213563607Y-99774187D01*
X213685729Y-99782735D01*
X213878436Y-99785422D01*
X214785066Y-99785422D01*
X215006838Y-99788353D01*
X215112107Y-99808136D01*
X215169942Y-99835735D01*
X215219330Y-99886294D01*
X215251541Y-99952140D01*
X215262805Y-100033328D01*
X215240712Y-100149819D01*
X215181716Y-100217976D01*
X215083911Y-100254262D01*
X214896929Y-100270000D01*
X212971807Y-100270000D01*
X212706559Y-100249972D01*
X212613150Y-100218664D01*
X212546580Y-100169371D01*
X212499713Y-100099652D01*
X212468911Y-100000355D01*
X212449127Y-99717278D01*
X212449127Y-98863161D01*
X212463293Y-98600111D01*
X212485794Y-98521533D01*
X212523377Y-98454054D01*
X212594335Y-98385799D01*
X212677983Y-98344633D01*
X212781888Y-98324539D01*
X212960816Y-98316057D01*
X214247732Y-98316057D01*
X214410153Y-98316057D01*
X214594801Y-98297250D01*
X214656065Y-98269761D01*
X214700558Y-98227397D01*
X214729951Y-98168491D01*
X214749162Y-98074745D01*
X214760397Y-97806810D01*
X214760397Y-97501018D01*
X214746720Y-97230886D01*
X214722820Y-97140830D01*
X214684193Y-97081409D01*
X214627045Y-97040951D01*
X214542044Y-97016685D01*
X214287055Y-97003007D01*
X213386043Y-97003007D01*
X213161339Y-97016685D01*
X213082107Y-97037312D01*
X213027250Y-97067732D01*
X212986275Y-97110914D01*
X212959595Y-97167138D01*
X212940544Y-97333224D01*
X212934926Y-97454856D01*
X212915389Y-97634453D01*
X212879972Y-97725722D01*
X212814667Y-97779502D01*
X212697766Y-97800216D01*
X212566684Y-97777335D01*
X212498464Y-97719371D01*
X212464621Y-97618177D01*
X212449127Y-97401856D01*
X212449127Y-97061625D01*
X212469155Y-96780502D01*
X212501323Y-96682950D01*
X212552442Y-96615638D01*
X212625213Y-96569075D01*
X212731716Y-96538213D01*
X213038974Y-96518429D01*
X214633879Y-96518429D01*
X214935275Y-96535526D01*
X215032987Y-96560793D01*
X215103070Y-96597808D01*
X215171458Y-96657892D01*
X215214933Y-96740690D01*
X215234961Y-96867941D01*
X215240579Y-97060893D01*
X215240579Y-98302868D01*
G37*
G36*
X217965596Y-96524047D02*
G01*
X218139070Y-96534168D01*
X218240125Y-96558241D01*
X218319815Y-96605677D01*
X218386182Y-96683538D01*
X218418489Y-96745635D01*
X218437473Y-96823000D01*
X218448953Y-97084096D01*
X218448953Y-97429944D01*
X218432698Y-97611803D01*
X218393998Y-97713754D01*
X218323051Y-97777012D01*
X218206175Y-97800216D01*
X218079224Y-97779460D01*
X218012491Y-97727431D01*
X217977294Y-97636662D01*
X217957536Y-97449972D01*
X217940928Y-97210858D01*
X217915258Y-97130719D01*
X217875959Y-97076769D01*
X217819282Y-97040085D01*
X217733810Y-97016929D01*
X217484193Y-97003007D01*
X216616887Y-97003007D01*
X216381437Y-97019616D01*
X216305289Y-97046500D01*
X216253454Y-97090446D01*
X216219197Y-97153050D01*
X216196301Y-97250425D01*
X216182379Y-97541074D01*
X216198743Y-97772128D01*
X216225166Y-97849253D01*
X216266643Y-97901088D01*
X216326685Y-97935432D01*
X216422714Y-97958485D01*
X216706280Y-97972163D01*
X218015910Y-97972163D01*
X218317306Y-97992191D01*
X218424537Y-98022296D01*
X218499511Y-98066929D01*
X218553157Y-98131257D01*
X218585484Y-98221535D01*
X218605512Y-98478967D01*
X218605512Y-99701402D01*
X218585729Y-99998157D01*
X218553080Y-100098955D01*
X218499755Y-100169616D01*
X218424240Y-100218622D01*
X218317306Y-100250216D01*
X218010293Y-100270000D01*
X216297906Y-100270000D01*
X216106908Y-100267313D01*
X215974040Y-100252903D01*
X215882937Y-100221639D01*
X215811374Y-100172791D01*
X215754038Y-100102151D01*
X215719539Y-100015498D01*
X215703610Y-99907925D01*
X215696824Y-99718988D01*
X215696824Y-98900774D01*
X216177006Y-98900774D01*
X216177006Y-99375338D01*
X216193370Y-99579281D01*
X216217099Y-99653051D01*
X216250279Y-99703356D01*
X216296564Y-99740078D01*
X216359211Y-99766127D01*
X216538485Y-99785422D01*
X217254605Y-99785422D01*
X217481995Y-99768813D01*
X217563602Y-99745289D01*
X217618771Y-99713859D01*
X217659742Y-99669268D01*
X217686671Y-99609567D01*
X217705722Y-99442993D01*
X217705722Y-98866824D01*
X217689357Y-98657508D01*
X217665150Y-98584064D01*
X217629762Y-98533677D01*
X217579279Y-98497964D01*
X217504221Y-98473349D01*
X217282693Y-98456741D01*
X216700662Y-98456741D01*
X216417096Y-98470907D01*
X216320428Y-98493845D01*
X216258094Y-98528304D01*
X216215531Y-98580845D01*
X216190683Y-98660439D01*
X216177006Y-98900774D01*
X215696824Y-98900774D01*
X215696824Y-97131235D01*
X215713677Y-96798576D01*
X215741827Y-96703996D01*
X215788415Y-96632979D01*
X215857924Y-96579307D01*
X215942533Y-96544075D01*
X216047061Y-96526091D01*
X216230739Y-96518429D01*
X217797801Y-96518429D01*
X217965596Y-96524047D01*
G37*
D11*
X227103855Y-98450951D02*
X226303855Y-98450951D01*
X226303855Y-97917618D02*
X226303855Y-97765237D01*
X226303855Y-97765237D02*
X226341950Y-97689047D01*
X226341950Y-97689047D02*
X226418140Y-97612856D01*
X226418140Y-97612856D02*
X226570521Y-97574761D01*
X226570521Y-97574761D02*
X226837188Y-97574761D01*
X226837188Y-97574761D02*
X226989569Y-97612856D01*
X226989569Y-97612856D02*
X227065760Y-97689047D01*
X227065760Y-97689047D02*
X227103855Y-97765237D01*
X227103855Y-97765237D02*
X227103855Y-97917618D01*
X227103855Y-97917618D02*
X227065760Y-97993809D01*
X227065760Y-97993809D02*
X226989569Y-98069999D01*
X226989569Y-98069999D02*
X226837188Y-98108095D01*
X226837188Y-98108095D02*
X226570521Y-98108095D01*
X226570521Y-98108095D02*
X226418140Y-98069999D01*
X226418140Y-98069999D02*
X226341950Y-97993809D01*
X226341950Y-97993809D02*
X226303855Y-97917618D01*
X227103855Y-96812857D02*
X227103855Y-97270000D01*
X227103855Y-97041428D02*
X226303855Y-97041428D01*
X226303855Y-97041428D02*
X226418140Y-97117619D01*
X226418140Y-97117619D02*
X226494331Y-97193809D01*
X226494331Y-97193809D02*
X226532426Y-97270000D01*
X226303855Y-96546190D02*
X226303855Y-96050952D01*
X226303855Y-96050952D02*
X226608617Y-96317618D01*
X226608617Y-96317618D02*
X226608617Y-96203333D01*
X226608617Y-96203333D02*
X226646712Y-96127142D01*
X226646712Y-96127142D02*
X226684807Y-96089047D01*
X226684807Y-96089047D02*
X226760998Y-96050952D01*
X226760998Y-96050952D02*
X226951474Y-96050952D01*
X226951474Y-96050952D02*
X227027664Y-96089047D01*
X227027664Y-96089047D02*
X227065760Y-96127142D01*
X227065760Y-96127142D02*
X227103855Y-96203333D01*
X227103855Y-96203333D02*
X227103855Y-96431904D01*
X227103855Y-96431904D02*
X227065760Y-96508095D01*
X227065760Y-96508095D02*
X227027664Y-96546190D01*
X216943855Y-74369999D02*
X216143855Y-74369999D01*
X216143855Y-73836666D02*
X216143855Y-73684285D01*
X216143855Y-73684285D02*
X216181950Y-73608095D01*
X216181950Y-73608095D02*
X216258140Y-73531904D01*
X216258140Y-73531904D02*
X216410521Y-73493809D01*
X216410521Y-73493809D02*
X216677188Y-73493809D01*
X216677188Y-73493809D02*
X216829569Y-73531904D01*
X216829569Y-73531904D02*
X216905760Y-73608095D01*
X216905760Y-73608095D02*
X216943855Y-73684285D01*
X216943855Y-73684285D02*
X216943855Y-73836666D01*
X216943855Y-73836666D02*
X216905760Y-73912857D01*
X216905760Y-73912857D02*
X216829569Y-73989047D01*
X216829569Y-73989047D02*
X216677188Y-74027143D01*
X216677188Y-74027143D02*
X216410521Y-74027143D01*
X216410521Y-74027143D02*
X216258140Y-73989047D01*
X216258140Y-73989047D02*
X216181950Y-73912857D01*
X216181950Y-73912857D02*
X216143855Y-73836666D01*
X216143855Y-72808095D02*
X216143855Y-72960476D01*
X216143855Y-72960476D02*
X216181950Y-73036667D01*
X216181950Y-73036667D02*
X216220045Y-73074762D01*
X216220045Y-73074762D02*
X216334331Y-73150952D01*
X216334331Y-73150952D02*
X216486712Y-73189048D01*
X216486712Y-73189048D02*
X216791474Y-73189048D01*
X216791474Y-73189048D02*
X216867664Y-73150952D01*
X216867664Y-73150952D02*
X216905760Y-73112857D01*
X216905760Y-73112857D02*
X216943855Y-73036667D01*
X216943855Y-73036667D02*
X216943855Y-72884286D01*
X216943855Y-72884286D02*
X216905760Y-72808095D01*
X216905760Y-72808095D02*
X216867664Y-72770000D01*
X216867664Y-72770000D02*
X216791474Y-72731905D01*
X216791474Y-72731905D02*
X216600998Y-72731905D01*
X216600998Y-72731905D02*
X216524807Y-72770000D01*
X216524807Y-72770000D02*
X216486712Y-72808095D01*
X216486712Y-72808095D02*
X216448617Y-72884286D01*
X216448617Y-72884286D02*
X216448617Y-73036667D01*
X216448617Y-73036667D02*
X216486712Y-73112857D01*
X216486712Y-73112857D02*
X216524807Y-73150952D01*
X216524807Y-73150952D02*
X216600998Y-73189048D01*
X214403855Y-98069999D02*
X213603855Y-98069999D01*
X213603855Y-97536666D02*
X213603855Y-97384285D01*
X213603855Y-97384285D02*
X213641950Y-97308095D01*
X213641950Y-97308095D02*
X213718140Y-97231904D01*
X213718140Y-97231904D02*
X213870521Y-97193809D01*
X213870521Y-97193809D02*
X214137188Y-97193809D01*
X214137188Y-97193809D02*
X214289569Y-97231904D01*
X214289569Y-97231904D02*
X214365760Y-97308095D01*
X214365760Y-97308095D02*
X214403855Y-97384285D01*
X214403855Y-97384285D02*
X214403855Y-97536666D01*
X214403855Y-97536666D02*
X214365760Y-97612857D01*
X214365760Y-97612857D02*
X214289569Y-97689047D01*
X214289569Y-97689047D02*
X214137188Y-97727143D01*
X214137188Y-97727143D02*
X213870521Y-97727143D01*
X213870521Y-97727143D02*
X213718140Y-97689047D01*
X213718140Y-97689047D02*
X213641950Y-97612857D01*
X213641950Y-97612857D02*
X213603855Y-97536666D01*
X213946712Y-96736667D02*
X213908617Y-96812857D01*
X213908617Y-96812857D02*
X213870521Y-96850952D01*
X213870521Y-96850952D02*
X213794331Y-96889048D01*
X213794331Y-96889048D02*
X213756236Y-96889048D01*
X213756236Y-96889048D02*
X213680045Y-96850952D01*
X213680045Y-96850952D02*
X213641950Y-96812857D01*
X213641950Y-96812857D02*
X213603855Y-96736667D01*
X213603855Y-96736667D02*
X213603855Y-96584286D01*
X213603855Y-96584286D02*
X213641950Y-96508095D01*
X213641950Y-96508095D02*
X213680045Y-96470000D01*
X213680045Y-96470000D02*
X213756236Y-96431905D01*
X213756236Y-96431905D02*
X213794331Y-96431905D01*
X213794331Y-96431905D02*
X213870521Y-96470000D01*
X213870521Y-96470000D02*
X213908617Y-96508095D01*
X213908617Y-96508095D02*
X213946712Y-96584286D01*
X213946712Y-96584286D02*
X213946712Y-96736667D01*
X213946712Y-96736667D02*
X213984807Y-96812857D01*
X213984807Y-96812857D02*
X214022902Y-96850952D01*
X214022902Y-96850952D02*
X214099093Y-96889048D01*
X214099093Y-96889048D02*
X214251474Y-96889048D01*
X214251474Y-96889048D02*
X214327664Y-96850952D01*
X214327664Y-96850952D02*
X214365760Y-96812857D01*
X214365760Y-96812857D02*
X214403855Y-96736667D01*
X214403855Y-96736667D02*
X214403855Y-96584286D01*
X214403855Y-96584286D02*
X214365760Y-96508095D01*
X214365760Y-96508095D02*
X214327664Y-96470000D01*
X214327664Y-96470000D02*
X214251474Y-96431905D01*
X214251474Y-96431905D02*
X214099093Y-96431905D01*
X214099093Y-96431905D02*
X214022902Y-96470000D01*
X214022902Y-96470000D02*
X213984807Y-96508095D01*
X213984807Y-96508095D02*
X213946712Y-96584286D01*
X227103855Y-74369999D02*
X226303855Y-74369999D01*
X226303855Y-73836666D02*
X226303855Y-73684285D01*
X226303855Y-73684285D02*
X226341950Y-73608095D01*
X226341950Y-73608095D02*
X226418140Y-73531904D01*
X226418140Y-73531904D02*
X226570521Y-73493809D01*
X226570521Y-73493809D02*
X226837188Y-73493809D01*
X226837188Y-73493809D02*
X226989569Y-73531904D01*
X226989569Y-73531904D02*
X227065760Y-73608095D01*
X227065760Y-73608095D02*
X227103855Y-73684285D01*
X227103855Y-73684285D02*
X227103855Y-73836666D01*
X227103855Y-73836666D02*
X227065760Y-73912857D01*
X227065760Y-73912857D02*
X226989569Y-73989047D01*
X226989569Y-73989047D02*
X226837188Y-74027143D01*
X226837188Y-74027143D02*
X226570521Y-74027143D01*
X226570521Y-74027143D02*
X226418140Y-73989047D01*
X226418140Y-73989047D02*
X226341950Y-73912857D01*
X226341950Y-73912857D02*
X226303855Y-73836666D01*
X226380045Y-73189048D02*
X226341950Y-73150952D01*
X226341950Y-73150952D02*
X226303855Y-73074762D01*
X226303855Y-73074762D02*
X226303855Y-72884286D01*
X226303855Y-72884286D02*
X226341950Y-72808095D01*
X226341950Y-72808095D02*
X226380045Y-72770000D01*
X226380045Y-72770000D02*
X226456236Y-72731905D01*
X226456236Y-72731905D02*
X226532426Y-72731905D01*
X226532426Y-72731905D02*
X226646712Y-72770000D01*
X226646712Y-72770000D02*
X227103855Y-73227143D01*
X227103855Y-73227143D02*
X227103855Y-72731905D01*
X233923855Y-97422380D02*
X233923855Y-97803332D01*
X233923855Y-97803332D02*
X234304807Y-97841428D01*
X234304807Y-97841428D02*
X234266712Y-97803332D01*
X234266712Y-97803332D02*
X234228617Y-97727142D01*
X234228617Y-97727142D02*
X234228617Y-97536666D01*
X234228617Y-97536666D02*
X234266712Y-97460475D01*
X234266712Y-97460475D02*
X234304807Y-97422380D01*
X234304807Y-97422380D02*
X234380998Y-97384285D01*
X234380998Y-97384285D02*
X234571474Y-97384285D01*
X234571474Y-97384285D02*
X234647664Y-97422380D01*
X234647664Y-97422380D02*
X234685760Y-97460475D01*
X234685760Y-97460475D02*
X234723855Y-97536666D01*
X234723855Y-97536666D02*
X234723855Y-97727142D01*
X234723855Y-97727142D02*
X234685760Y-97803332D01*
X234685760Y-97803332D02*
X234647664Y-97841428D01*
X233923855Y-97155713D02*
X234723855Y-96889046D01*
X234723855Y-96889046D02*
X233923855Y-96622380D01*
X233923855Y-74179523D02*
X233923855Y-73722380D01*
X234723855Y-73950952D02*
X233923855Y-73950952D01*
X233923855Y-73531904D02*
X234723855Y-72998570D01*
X233923855Y-72998570D02*
X234723855Y-73531904D01*
X232183855Y-73703332D02*
X231802902Y-73969999D01*
X232183855Y-74160475D02*
X231383855Y-74160475D01*
X231383855Y-74160475D02*
X231383855Y-73855713D01*
X231383855Y-73855713D02*
X231421950Y-73779523D01*
X231421950Y-73779523D02*
X231460045Y-73741428D01*
X231460045Y-73741428D02*
X231536236Y-73703332D01*
X231536236Y-73703332D02*
X231650521Y-73703332D01*
X231650521Y-73703332D02*
X231726712Y-73741428D01*
X231726712Y-73741428D02*
X231764807Y-73779523D01*
X231764807Y-73779523D02*
X231802902Y-73855713D01*
X231802902Y-73855713D02*
X231802902Y-74160475D01*
X231383855Y-73436666D02*
X232183855Y-72903332D01*
X231383855Y-72903332D02*
X232183855Y-73436666D01*
X219483855Y-74369999D02*
X218683855Y-74369999D01*
X218683855Y-73836666D02*
X218683855Y-73684285D01*
X218683855Y-73684285D02*
X218721950Y-73608095D01*
X218721950Y-73608095D02*
X218798140Y-73531904D01*
X218798140Y-73531904D02*
X218950521Y-73493809D01*
X218950521Y-73493809D02*
X219217188Y-73493809D01*
X219217188Y-73493809D02*
X219369569Y-73531904D01*
X219369569Y-73531904D02*
X219445760Y-73608095D01*
X219445760Y-73608095D02*
X219483855Y-73684285D01*
X219483855Y-73684285D02*
X219483855Y-73836666D01*
X219483855Y-73836666D02*
X219445760Y-73912857D01*
X219445760Y-73912857D02*
X219369569Y-73989047D01*
X219369569Y-73989047D02*
X219217188Y-74027143D01*
X219217188Y-74027143D02*
X218950521Y-74027143D01*
X218950521Y-74027143D02*
X218798140Y-73989047D01*
X218798140Y-73989047D02*
X218721950Y-73912857D01*
X218721950Y-73912857D02*
X218683855Y-73836666D01*
X218683855Y-72770000D02*
X218683855Y-73150952D01*
X218683855Y-73150952D02*
X219064807Y-73189048D01*
X219064807Y-73189048D02*
X219026712Y-73150952D01*
X219026712Y-73150952D02*
X218988617Y-73074762D01*
X218988617Y-73074762D02*
X218988617Y-72884286D01*
X218988617Y-72884286D02*
X219026712Y-72808095D01*
X219026712Y-72808095D02*
X219064807Y-72770000D01*
X219064807Y-72770000D02*
X219140998Y-72731905D01*
X219140998Y-72731905D02*
X219331474Y-72731905D01*
X219331474Y-72731905D02*
X219407664Y-72770000D01*
X219407664Y-72770000D02*
X219445760Y-72808095D01*
X219445760Y-72808095D02*
X219483855Y-72884286D01*
X219483855Y-72884286D02*
X219483855Y-73074762D01*
X219483855Y-73074762D02*
X219445760Y-73150952D01*
X219445760Y-73150952D02*
X219407664Y-73189048D01*
X222023855Y-98450951D02*
X221223855Y-98450951D01*
X221223855Y-97917618D02*
X221223855Y-97765237D01*
X221223855Y-97765237D02*
X221261950Y-97689047D01*
X221261950Y-97689047D02*
X221338140Y-97612856D01*
X221338140Y-97612856D02*
X221490521Y-97574761D01*
X221490521Y-97574761D02*
X221757188Y-97574761D01*
X221757188Y-97574761D02*
X221909569Y-97612856D01*
X221909569Y-97612856D02*
X221985760Y-97689047D01*
X221985760Y-97689047D02*
X222023855Y-97765237D01*
X222023855Y-97765237D02*
X222023855Y-97917618D01*
X222023855Y-97917618D02*
X221985760Y-97993809D01*
X221985760Y-97993809D02*
X221909569Y-98069999D01*
X221909569Y-98069999D02*
X221757188Y-98108095D01*
X221757188Y-98108095D02*
X221490521Y-98108095D01*
X221490521Y-98108095D02*
X221338140Y-98069999D01*
X221338140Y-98069999D02*
X221261950Y-97993809D01*
X221261950Y-97993809D02*
X221223855Y-97917618D01*
X222023855Y-96812857D02*
X222023855Y-97270000D01*
X222023855Y-97041428D02*
X221223855Y-97041428D01*
X221223855Y-97041428D02*
X221338140Y-97117619D01*
X221338140Y-97117619D02*
X221414331Y-97193809D01*
X221414331Y-97193809D02*
X221452426Y-97270000D01*
X222023855Y-96050952D02*
X222023855Y-96508095D01*
X222023855Y-96279523D02*
X221223855Y-96279523D01*
X221223855Y-96279523D02*
X221338140Y-96355714D01*
X221338140Y-96355714D02*
X221414331Y-96431904D01*
X221414331Y-96431904D02*
X221452426Y-96508095D01*
X216943855Y-98069999D02*
X216143855Y-98069999D01*
X216143855Y-97536666D02*
X216143855Y-97384285D01*
X216143855Y-97384285D02*
X216181950Y-97308095D01*
X216181950Y-97308095D02*
X216258140Y-97231904D01*
X216258140Y-97231904D02*
X216410521Y-97193809D01*
X216410521Y-97193809D02*
X216677188Y-97193809D01*
X216677188Y-97193809D02*
X216829569Y-97231904D01*
X216829569Y-97231904D02*
X216905760Y-97308095D01*
X216905760Y-97308095D02*
X216943855Y-97384285D01*
X216943855Y-97384285D02*
X216943855Y-97536666D01*
X216943855Y-97536666D02*
X216905760Y-97612857D01*
X216905760Y-97612857D02*
X216829569Y-97689047D01*
X216829569Y-97689047D02*
X216677188Y-97727143D01*
X216677188Y-97727143D02*
X216410521Y-97727143D01*
X216410521Y-97727143D02*
X216258140Y-97689047D01*
X216258140Y-97689047D02*
X216181950Y-97612857D01*
X216181950Y-97612857D02*
X216143855Y-97536666D01*
X216943855Y-96812857D02*
X216943855Y-96660476D01*
X216943855Y-96660476D02*
X216905760Y-96584286D01*
X216905760Y-96584286D02*
X216867664Y-96546190D01*
X216867664Y-96546190D02*
X216753379Y-96470000D01*
X216753379Y-96470000D02*
X216600998Y-96431905D01*
X216600998Y-96431905D02*
X216296236Y-96431905D01*
X216296236Y-96431905D02*
X216220045Y-96470000D01*
X216220045Y-96470000D02*
X216181950Y-96508095D01*
X216181950Y-96508095D02*
X216143855Y-96584286D01*
X216143855Y-96584286D02*
X216143855Y-96736667D01*
X216143855Y-96736667D02*
X216181950Y-96812857D01*
X216181950Y-96812857D02*
X216220045Y-96850952D01*
X216220045Y-96850952D02*
X216296236Y-96889048D01*
X216296236Y-96889048D02*
X216486712Y-96889048D01*
X216486712Y-96889048D02*
X216562902Y-96850952D01*
X216562902Y-96850952D02*
X216600998Y-96812857D01*
X216600998Y-96812857D02*
X216639093Y-96736667D01*
X216639093Y-96736667D02*
X216639093Y-96584286D01*
X216639093Y-96584286D02*
X216600998Y-96508095D01*
X216600998Y-96508095D02*
X216562902Y-96470000D01*
X216562902Y-96470000D02*
X216486712Y-96431905D01*
X231421950Y-97879523D02*
X231383855Y-97955713D01*
X231383855Y-97955713D02*
X231383855Y-98069999D01*
X231383855Y-98069999D02*
X231421950Y-98184285D01*
X231421950Y-98184285D02*
X231498140Y-98260475D01*
X231498140Y-98260475D02*
X231574331Y-98298570D01*
X231574331Y-98298570D02*
X231726712Y-98336666D01*
X231726712Y-98336666D02*
X231840998Y-98336666D01*
X231840998Y-98336666D02*
X231993379Y-98298570D01*
X231993379Y-98298570D02*
X232069569Y-98260475D01*
X232069569Y-98260475D02*
X232145760Y-98184285D01*
X232145760Y-98184285D02*
X232183855Y-98069999D01*
X232183855Y-98069999D02*
X232183855Y-97993808D01*
X232183855Y-97993808D02*
X232145760Y-97879523D01*
X232145760Y-97879523D02*
X232107664Y-97841427D01*
X232107664Y-97841427D02*
X231840998Y-97841427D01*
X231840998Y-97841427D02*
X231840998Y-97993808D01*
X232183855Y-97498570D02*
X231383855Y-97498570D01*
X231383855Y-97498570D02*
X232183855Y-97041427D01*
X232183855Y-97041427D02*
X231383855Y-97041427D01*
X232183855Y-96660475D02*
X231383855Y-96660475D01*
X231383855Y-96660475D02*
X231383855Y-96469999D01*
X231383855Y-96469999D02*
X231421950Y-96355713D01*
X231421950Y-96355713D02*
X231498140Y-96279523D01*
X231498140Y-96279523D02*
X231574331Y-96241428D01*
X231574331Y-96241428D02*
X231726712Y-96203332D01*
X231726712Y-96203332D02*
X231840998Y-96203332D01*
X231840998Y-96203332D02*
X231993379Y-96241428D01*
X231993379Y-96241428D02*
X232069569Y-96279523D01*
X232069569Y-96279523D02*
X232145760Y-96355713D01*
X232145760Y-96355713D02*
X232183855Y-96469999D01*
X232183855Y-96469999D02*
X232183855Y-96660475D01*
X219483855Y-98450951D02*
X218683855Y-98450951D01*
X218683855Y-97917618D02*
X218683855Y-97765237D01*
X218683855Y-97765237D02*
X218721950Y-97689047D01*
X218721950Y-97689047D02*
X218798140Y-97612856D01*
X218798140Y-97612856D02*
X218950521Y-97574761D01*
X218950521Y-97574761D02*
X219217188Y-97574761D01*
X219217188Y-97574761D02*
X219369569Y-97612856D01*
X219369569Y-97612856D02*
X219445760Y-97689047D01*
X219445760Y-97689047D02*
X219483855Y-97765237D01*
X219483855Y-97765237D02*
X219483855Y-97917618D01*
X219483855Y-97917618D02*
X219445760Y-97993809D01*
X219445760Y-97993809D02*
X219369569Y-98069999D01*
X219369569Y-98069999D02*
X219217188Y-98108095D01*
X219217188Y-98108095D02*
X218950521Y-98108095D01*
X218950521Y-98108095D02*
X218798140Y-98069999D01*
X218798140Y-98069999D02*
X218721950Y-97993809D01*
X218721950Y-97993809D02*
X218683855Y-97917618D01*
X219483855Y-96812857D02*
X219483855Y-97270000D01*
X219483855Y-97041428D02*
X218683855Y-97041428D01*
X218683855Y-97041428D02*
X218798140Y-97117619D01*
X218798140Y-97117619D02*
X218874331Y-97193809D01*
X218874331Y-97193809D02*
X218912426Y-97270000D01*
X218683855Y-96317618D02*
X218683855Y-96241428D01*
X218683855Y-96241428D02*
X218721950Y-96165237D01*
X218721950Y-96165237D02*
X218760045Y-96127142D01*
X218760045Y-96127142D02*
X218836236Y-96089047D01*
X218836236Y-96089047D02*
X218988617Y-96050952D01*
X218988617Y-96050952D02*
X219179093Y-96050952D01*
X219179093Y-96050952D02*
X219331474Y-96089047D01*
X219331474Y-96089047D02*
X219407664Y-96127142D01*
X219407664Y-96127142D02*
X219445760Y-96165237D01*
X219445760Y-96165237D02*
X219483855Y-96241428D01*
X219483855Y-96241428D02*
X219483855Y-96317618D01*
X219483855Y-96317618D02*
X219445760Y-96393809D01*
X219445760Y-96393809D02*
X219407664Y-96431904D01*
X219407664Y-96431904D02*
X219331474Y-96469999D01*
X219331474Y-96469999D02*
X219179093Y-96508095D01*
X219179093Y-96508095D02*
X218988617Y-96508095D01*
X218988617Y-96508095D02*
X218836236Y-96469999D01*
X218836236Y-96469999D02*
X218760045Y-96431904D01*
X218760045Y-96431904D02*
X218721950Y-96393809D01*
X218721950Y-96393809D02*
X218683855Y-96317618D01*
X229643855Y-74369999D02*
X228843855Y-74369999D01*
X228843855Y-73836666D02*
X228843855Y-73684285D01*
X228843855Y-73684285D02*
X228881950Y-73608095D01*
X228881950Y-73608095D02*
X228958140Y-73531904D01*
X228958140Y-73531904D02*
X229110521Y-73493809D01*
X229110521Y-73493809D02*
X229377188Y-73493809D01*
X229377188Y-73493809D02*
X229529569Y-73531904D01*
X229529569Y-73531904D02*
X229605760Y-73608095D01*
X229605760Y-73608095D02*
X229643855Y-73684285D01*
X229643855Y-73684285D02*
X229643855Y-73836666D01*
X229643855Y-73836666D02*
X229605760Y-73912857D01*
X229605760Y-73912857D02*
X229529569Y-73989047D01*
X229529569Y-73989047D02*
X229377188Y-74027143D01*
X229377188Y-74027143D02*
X229110521Y-74027143D01*
X229110521Y-74027143D02*
X228958140Y-73989047D01*
X228958140Y-73989047D02*
X228881950Y-73912857D01*
X228881950Y-73912857D02*
X228843855Y-73836666D01*
X229643855Y-72731905D02*
X229643855Y-73189048D01*
X229643855Y-72960476D02*
X228843855Y-72960476D01*
X228843855Y-72960476D02*
X228958140Y-73036667D01*
X228958140Y-73036667D02*
X229034331Y-73112857D01*
X229034331Y-73112857D02*
X229072426Y-73189048D01*
X214403855Y-74369999D02*
X213603855Y-74369999D01*
X213603855Y-73836666D02*
X213603855Y-73684285D01*
X213603855Y-73684285D02*
X213641950Y-73608095D01*
X213641950Y-73608095D02*
X213718140Y-73531904D01*
X213718140Y-73531904D02*
X213870521Y-73493809D01*
X213870521Y-73493809D02*
X214137188Y-73493809D01*
X214137188Y-73493809D02*
X214289569Y-73531904D01*
X214289569Y-73531904D02*
X214365760Y-73608095D01*
X214365760Y-73608095D02*
X214403855Y-73684285D01*
X214403855Y-73684285D02*
X214403855Y-73836666D01*
X214403855Y-73836666D02*
X214365760Y-73912857D01*
X214365760Y-73912857D02*
X214289569Y-73989047D01*
X214289569Y-73989047D02*
X214137188Y-74027143D01*
X214137188Y-74027143D02*
X213870521Y-74027143D01*
X213870521Y-74027143D02*
X213718140Y-73989047D01*
X213718140Y-73989047D02*
X213641950Y-73912857D01*
X213641950Y-73912857D02*
X213603855Y-73836666D01*
X213603855Y-73227143D02*
X213603855Y-72693809D01*
X213603855Y-72693809D02*
X214403855Y-73036667D01*
X224563855Y-98450951D02*
X223763855Y-98450951D01*
X223763855Y-97917618D02*
X223763855Y-97765237D01*
X223763855Y-97765237D02*
X223801950Y-97689047D01*
X223801950Y-97689047D02*
X223878140Y-97612856D01*
X223878140Y-97612856D02*
X224030521Y-97574761D01*
X224030521Y-97574761D02*
X224297188Y-97574761D01*
X224297188Y-97574761D02*
X224449569Y-97612856D01*
X224449569Y-97612856D02*
X224525760Y-97689047D01*
X224525760Y-97689047D02*
X224563855Y-97765237D01*
X224563855Y-97765237D02*
X224563855Y-97917618D01*
X224563855Y-97917618D02*
X224525760Y-97993809D01*
X224525760Y-97993809D02*
X224449569Y-98069999D01*
X224449569Y-98069999D02*
X224297188Y-98108095D01*
X224297188Y-98108095D02*
X224030521Y-98108095D01*
X224030521Y-98108095D02*
X223878140Y-98069999D01*
X223878140Y-98069999D02*
X223801950Y-97993809D01*
X223801950Y-97993809D02*
X223763855Y-97917618D01*
X224563855Y-96812857D02*
X224563855Y-97270000D01*
X224563855Y-97041428D02*
X223763855Y-97041428D01*
X223763855Y-97041428D02*
X223878140Y-97117619D01*
X223878140Y-97117619D02*
X223954331Y-97193809D01*
X223954331Y-97193809D02*
X223992426Y-97270000D01*
X223840045Y-96508095D02*
X223801950Y-96469999D01*
X223801950Y-96469999D02*
X223763855Y-96393809D01*
X223763855Y-96393809D02*
X223763855Y-96203333D01*
X223763855Y-96203333D02*
X223801950Y-96127142D01*
X223801950Y-96127142D02*
X223840045Y-96089047D01*
X223840045Y-96089047D02*
X223916236Y-96050952D01*
X223916236Y-96050952D02*
X223992426Y-96050952D01*
X223992426Y-96050952D02*
X224106712Y-96089047D01*
X224106712Y-96089047D02*
X224563855Y-96546190D01*
X224563855Y-96546190D02*
X224563855Y-96050952D01*
X224563855Y-74369999D02*
X223763855Y-74369999D01*
X223763855Y-73836666D02*
X223763855Y-73684285D01*
X223763855Y-73684285D02*
X223801950Y-73608095D01*
X223801950Y-73608095D02*
X223878140Y-73531904D01*
X223878140Y-73531904D02*
X224030521Y-73493809D01*
X224030521Y-73493809D02*
X224297188Y-73493809D01*
X224297188Y-73493809D02*
X224449569Y-73531904D01*
X224449569Y-73531904D02*
X224525760Y-73608095D01*
X224525760Y-73608095D02*
X224563855Y-73684285D01*
X224563855Y-73684285D02*
X224563855Y-73836666D01*
X224563855Y-73836666D02*
X224525760Y-73912857D01*
X224525760Y-73912857D02*
X224449569Y-73989047D01*
X224449569Y-73989047D02*
X224297188Y-74027143D01*
X224297188Y-74027143D02*
X224030521Y-74027143D01*
X224030521Y-74027143D02*
X223878140Y-73989047D01*
X223878140Y-73989047D02*
X223801950Y-73912857D01*
X223801950Y-73912857D02*
X223763855Y-73836666D01*
X223763855Y-73227143D02*
X223763855Y-72731905D01*
X223763855Y-72731905D02*
X224068617Y-72998571D01*
X224068617Y-72998571D02*
X224068617Y-72884286D01*
X224068617Y-72884286D02*
X224106712Y-72808095D01*
X224106712Y-72808095D02*
X224144807Y-72770000D01*
X224144807Y-72770000D02*
X224220998Y-72731905D01*
X224220998Y-72731905D02*
X224411474Y-72731905D01*
X224411474Y-72731905D02*
X224487664Y-72770000D01*
X224487664Y-72770000D02*
X224525760Y-72808095D01*
X224525760Y-72808095D02*
X224563855Y-72884286D01*
X224563855Y-72884286D02*
X224563855Y-73112857D01*
X224563855Y-73112857D02*
X224525760Y-73189048D01*
X224525760Y-73189048D02*
X224487664Y-73227143D01*
X222023855Y-74369999D02*
X221223855Y-74369999D01*
X221223855Y-73836666D02*
X221223855Y-73684285D01*
X221223855Y-73684285D02*
X221261950Y-73608095D01*
X221261950Y-73608095D02*
X221338140Y-73531904D01*
X221338140Y-73531904D02*
X221490521Y-73493809D01*
X221490521Y-73493809D02*
X221757188Y-73493809D01*
X221757188Y-73493809D02*
X221909569Y-73531904D01*
X221909569Y-73531904D02*
X221985760Y-73608095D01*
X221985760Y-73608095D02*
X222023855Y-73684285D01*
X222023855Y-73684285D02*
X222023855Y-73836666D01*
X222023855Y-73836666D02*
X221985760Y-73912857D01*
X221985760Y-73912857D02*
X221909569Y-73989047D01*
X221909569Y-73989047D02*
X221757188Y-74027143D01*
X221757188Y-74027143D02*
X221490521Y-74027143D01*
X221490521Y-74027143D02*
X221338140Y-73989047D01*
X221338140Y-73989047D02*
X221261950Y-73912857D01*
X221261950Y-73912857D02*
X221223855Y-73836666D01*
X221490521Y-72808095D02*
X222023855Y-72808095D01*
X221185760Y-72998571D02*
X221757188Y-73189048D01*
X221757188Y-73189048D02*
X221757188Y-72693809D01*
X228843855Y-98260476D02*
X228843855Y-97765238D01*
X228843855Y-97765238D02*
X229148617Y-98031904D01*
X229148617Y-98031904D02*
X229148617Y-97917619D01*
X229148617Y-97917619D02*
X229186712Y-97841428D01*
X229186712Y-97841428D02*
X229224807Y-97803333D01*
X229224807Y-97803333D02*
X229300998Y-97765238D01*
X229300998Y-97765238D02*
X229491474Y-97765238D01*
X229491474Y-97765238D02*
X229567664Y-97803333D01*
X229567664Y-97803333D02*
X229605760Y-97841428D01*
X229605760Y-97841428D02*
X229643855Y-97917619D01*
X229643855Y-97917619D02*
X229643855Y-98146190D01*
X229643855Y-98146190D02*
X229605760Y-98222381D01*
X229605760Y-98222381D02*
X229567664Y-98260476D01*
X228843855Y-97536666D02*
X229643855Y-97269999D01*
X229643855Y-97269999D02*
X228843855Y-97003333D01*
X228843855Y-96812857D02*
X228843855Y-96317619D01*
X228843855Y-96317619D02*
X229148617Y-96584285D01*
X229148617Y-96584285D02*
X229148617Y-96470000D01*
X229148617Y-96470000D02*
X229186712Y-96393809D01*
X229186712Y-96393809D02*
X229224807Y-96355714D01*
X229224807Y-96355714D02*
X229300998Y-96317619D01*
X229300998Y-96317619D02*
X229491474Y-96317619D01*
X229491474Y-96317619D02*
X229567664Y-96355714D01*
X229567664Y-96355714D02*
X229605760Y-96393809D01*
X229605760Y-96393809D02*
X229643855Y-96470000D01*
X229643855Y-96470000D02*
X229643855Y-96698571D01*
X229643855Y-96698571D02*
X229605760Y-96774762D01*
X229605760Y-96774762D02*
X229567664Y-96812857D01*
D12*
X181710442Y-97527701D02*
X181845129Y-97460358D01*
X181845129Y-97460358D02*
X181912473Y-97460358D01*
X181912473Y-97460358D02*
X182013488Y-97494030D01*
X182013488Y-97494030D02*
X182114503Y-97595045D01*
X182114503Y-97595045D02*
X182148175Y-97696060D01*
X182148175Y-97696060D02*
X182148175Y-97763404D01*
X182148175Y-97763404D02*
X182114503Y-97864419D01*
X182114503Y-97864419D02*
X181845129Y-98133793D01*
X181845129Y-98133793D02*
X181138023Y-97426686D01*
X181138023Y-97426686D02*
X181373725Y-97190984D01*
X181373725Y-97190984D02*
X181474740Y-97157312D01*
X181474740Y-97157312D02*
X181542084Y-97157312D01*
X181542084Y-97157312D02*
X181643099Y-97190984D01*
X181643099Y-97190984D02*
X181710442Y-97258327D01*
X181710442Y-97258327D02*
X181744114Y-97359343D01*
X181744114Y-97359343D02*
X181744114Y-97426686D01*
X181744114Y-97426686D02*
X181710442Y-97527701D01*
X181710442Y-97527701D02*
X181474740Y-97763404D01*
X182316534Y-97258327D02*
X182653251Y-96921610D01*
X182451221Y-97527701D02*
X181979816Y-96584892D01*
X181979816Y-96584892D02*
X182922625Y-97056297D01*
X182350206Y-96214503D02*
X182754267Y-95810442D01*
X183259343Y-96719579D02*
X182552236Y-96012472D01*
X184067465Y-95911457D02*
X183663404Y-96315518D01*
X183865435Y-96113487D02*
X183158328Y-95406381D01*
X183158328Y-95406381D02*
X183192000Y-95574739D01*
X183192000Y-95574739D02*
X183192000Y-95709426D01*
X183192000Y-95709426D02*
X183158328Y-95810442D01*
X229866667Y-72407200D02*
X230009524Y-72454819D01*
X230009524Y-72454819D02*
X230247619Y-72454819D01*
X230247619Y-72454819D02*
X230342857Y-72407200D01*
X230342857Y-72407200D02*
X230390476Y-72359580D01*
X230390476Y-72359580D02*
X230438095Y-72264342D01*
X230438095Y-72264342D02*
X230438095Y-72169104D01*
X230438095Y-72169104D02*
X230390476Y-72073866D01*
X230390476Y-72073866D02*
X230342857Y-72026247D01*
X230342857Y-72026247D02*
X230247619Y-71978628D01*
X230247619Y-71978628D02*
X230057143Y-71931009D01*
X230057143Y-71931009D02*
X229961905Y-71883390D01*
X229961905Y-71883390D02*
X229914286Y-71835771D01*
X229914286Y-71835771D02*
X229866667Y-71740533D01*
X229866667Y-71740533D02*
X229866667Y-71645295D01*
X229866667Y-71645295D02*
X229914286Y-71550057D01*
X229914286Y-71550057D02*
X229961905Y-71502438D01*
X229961905Y-71502438D02*
X230057143Y-71454819D01*
X230057143Y-71454819D02*
X230295238Y-71454819D01*
X230295238Y-71454819D02*
X230438095Y-71502438D01*
X230771429Y-71454819D02*
X231009524Y-72454819D01*
X231009524Y-72454819D02*
X231200000Y-71740533D01*
X231200000Y-71740533D02*
X231390476Y-72454819D01*
X231390476Y-72454819D02*
X231628572Y-71454819D01*
X231914286Y-71454819D02*
X232533333Y-71454819D01*
X232533333Y-71454819D02*
X232200000Y-71835771D01*
X232200000Y-71835771D02*
X232342857Y-71835771D01*
X232342857Y-71835771D02*
X232438095Y-71883390D01*
X232438095Y-71883390D02*
X232485714Y-71931009D01*
X232485714Y-71931009D02*
X232533333Y-72026247D01*
X232533333Y-72026247D02*
X232533333Y-72264342D01*
X232533333Y-72264342D02*
X232485714Y-72359580D01*
X232485714Y-72359580D02*
X232438095Y-72407200D01*
X232438095Y-72407200D02*
X232342857Y-72454819D01*
X232342857Y-72454819D02*
X232057143Y-72454819D01*
X232057143Y-72454819D02*
X231961905Y-72407200D01*
X231961905Y-72407200D02*
X231914286Y-72359580D01*
X180866667Y-72407200D02*
X181009524Y-72454819D01*
X181009524Y-72454819D02*
X181247619Y-72454819D01*
X181247619Y-72454819D02*
X181342857Y-72407200D01*
X181342857Y-72407200D02*
X181390476Y-72359580D01*
X181390476Y-72359580D02*
X181438095Y-72264342D01*
X181438095Y-72264342D02*
X181438095Y-72169104D01*
X181438095Y-72169104D02*
X181390476Y-72073866D01*
X181390476Y-72073866D02*
X181342857Y-72026247D01*
X181342857Y-72026247D02*
X181247619Y-71978628D01*
X181247619Y-71978628D02*
X181057143Y-71931009D01*
X181057143Y-71931009D02*
X180961905Y-71883390D01*
X180961905Y-71883390D02*
X180914286Y-71835771D01*
X180914286Y-71835771D02*
X180866667Y-71740533D01*
X180866667Y-71740533D02*
X180866667Y-71645295D01*
X180866667Y-71645295D02*
X180914286Y-71550057D01*
X180914286Y-71550057D02*
X180961905Y-71502438D01*
X180961905Y-71502438D02*
X181057143Y-71454819D01*
X181057143Y-71454819D02*
X181295238Y-71454819D01*
X181295238Y-71454819D02*
X181438095Y-71502438D01*
X181771429Y-71454819D02*
X182009524Y-72454819D01*
X182009524Y-72454819D02*
X182200000Y-71740533D01*
X182200000Y-71740533D02*
X182390476Y-72454819D01*
X182390476Y-72454819D02*
X182628572Y-71454819D01*
X183200000Y-71454819D02*
X183295238Y-71454819D01*
X183295238Y-71454819D02*
X183390476Y-71502438D01*
X183390476Y-71502438D02*
X183438095Y-71550057D01*
X183438095Y-71550057D02*
X183485714Y-71645295D01*
X183485714Y-71645295D02*
X183533333Y-71835771D01*
X183533333Y-71835771D02*
X183533333Y-72073866D01*
X183533333Y-72073866D02*
X183485714Y-72264342D01*
X183485714Y-72264342D02*
X183438095Y-72359580D01*
X183438095Y-72359580D02*
X183390476Y-72407200D01*
X183390476Y-72407200D02*
X183295238Y-72454819D01*
X183295238Y-72454819D02*
X183200000Y-72454819D01*
X183200000Y-72454819D02*
X183104762Y-72407200D01*
X183104762Y-72407200D02*
X183057143Y-72359580D01*
X183057143Y-72359580D02*
X183009524Y-72264342D01*
X183009524Y-72264342D02*
X182961905Y-72073866D01*
X182961905Y-72073866D02*
X182961905Y-71835771D01*
X182961905Y-71835771D02*
X183009524Y-71645295D01*
X183009524Y-71645295D02*
X183057143Y-71550057D01*
X183057143Y-71550057D02*
X183104762Y-71502438D01*
X183104762Y-71502438D02*
X183200000Y-71454819D01*
X211566666Y-81644819D02*
X211566666Y-82359104D01*
X211566666Y-82359104D02*
X211519047Y-82501961D01*
X211519047Y-82501961D02*
X211423809Y-82597200D01*
X211423809Y-82597200D02*
X211280952Y-82644819D01*
X211280952Y-82644819D02*
X211185714Y-82644819D01*
X212566666Y-82644819D02*
X211995238Y-82644819D01*
X212280952Y-82644819D02*
X212280952Y-81644819D01*
X212280952Y-81644819D02*
X212185714Y-81787676D01*
X212185714Y-81787676D02*
X212090476Y-81882914D01*
X212090476Y-81882914D02*
X211995238Y-81930533D01*
X213866667Y-72407200D02*
X214009524Y-72454819D01*
X214009524Y-72454819D02*
X214247619Y-72454819D01*
X214247619Y-72454819D02*
X214342857Y-72407200D01*
X214342857Y-72407200D02*
X214390476Y-72359580D01*
X214390476Y-72359580D02*
X214438095Y-72264342D01*
X214438095Y-72264342D02*
X214438095Y-72169104D01*
X214438095Y-72169104D02*
X214390476Y-72073866D01*
X214390476Y-72073866D02*
X214342857Y-72026247D01*
X214342857Y-72026247D02*
X214247619Y-71978628D01*
X214247619Y-71978628D02*
X214057143Y-71931009D01*
X214057143Y-71931009D02*
X213961905Y-71883390D01*
X213961905Y-71883390D02*
X213914286Y-71835771D01*
X213914286Y-71835771D02*
X213866667Y-71740533D01*
X213866667Y-71740533D02*
X213866667Y-71645295D01*
X213866667Y-71645295D02*
X213914286Y-71550057D01*
X213914286Y-71550057D02*
X213961905Y-71502438D01*
X213961905Y-71502438D02*
X214057143Y-71454819D01*
X214057143Y-71454819D02*
X214295238Y-71454819D01*
X214295238Y-71454819D02*
X214438095Y-71502438D01*
X214771429Y-71454819D02*
X215009524Y-72454819D01*
X215009524Y-72454819D02*
X215200000Y-71740533D01*
X215200000Y-71740533D02*
X215390476Y-72454819D01*
X215390476Y-72454819D02*
X215628572Y-71454819D01*
X215961905Y-71550057D02*
X216009524Y-71502438D01*
X216009524Y-71502438D02*
X216104762Y-71454819D01*
X216104762Y-71454819D02*
X216342857Y-71454819D01*
X216342857Y-71454819D02*
X216438095Y-71502438D01*
X216438095Y-71502438D02*
X216485714Y-71550057D01*
X216485714Y-71550057D02*
X216533333Y-71645295D01*
X216533333Y-71645295D02*
X216533333Y-71740533D01*
X216533333Y-71740533D02*
X216485714Y-71883390D01*
X216485714Y-71883390D02*
X215914286Y-72454819D01*
X215914286Y-72454819D02*
X216533333Y-72454819D01*
X196866667Y-72407200D02*
X197009524Y-72454819D01*
X197009524Y-72454819D02*
X197247619Y-72454819D01*
X197247619Y-72454819D02*
X197342857Y-72407200D01*
X197342857Y-72407200D02*
X197390476Y-72359580D01*
X197390476Y-72359580D02*
X197438095Y-72264342D01*
X197438095Y-72264342D02*
X197438095Y-72169104D01*
X197438095Y-72169104D02*
X197390476Y-72073866D01*
X197390476Y-72073866D02*
X197342857Y-72026247D01*
X197342857Y-72026247D02*
X197247619Y-71978628D01*
X197247619Y-71978628D02*
X197057143Y-71931009D01*
X197057143Y-71931009D02*
X196961905Y-71883390D01*
X196961905Y-71883390D02*
X196914286Y-71835771D01*
X196914286Y-71835771D02*
X196866667Y-71740533D01*
X196866667Y-71740533D02*
X196866667Y-71645295D01*
X196866667Y-71645295D02*
X196914286Y-71550057D01*
X196914286Y-71550057D02*
X196961905Y-71502438D01*
X196961905Y-71502438D02*
X197057143Y-71454819D01*
X197057143Y-71454819D02*
X197295238Y-71454819D01*
X197295238Y-71454819D02*
X197438095Y-71502438D01*
X197771429Y-71454819D02*
X198009524Y-72454819D01*
X198009524Y-72454819D02*
X198200000Y-71740533D01*
X198200000Y-71740533D02*
X198390476Y-72454819D01*
X198390476Y-72454819D02*
X198628572Y-71454819D01*
X199533333Y-72454819D02*
X198961905Y-72454819D01*
X199247619Y-72454819D02*
X199247619Y-71454819D01*
X199247619Y-71454819D02*
X199152381Y-71597676D01*
X199152381Y-71597676D02*
X199057143Y-71692914D01*
X199057143Y-71692914D02*
X198961905Y-71740533D01*
X182582200Y-77358332D02*
X182629819Y-77215475D01*
X182629819Y-77215475D02*
X182629819Y-76977380D01*
X182629819Y-76977380D02*
X182582200Y-76882142D01*
X182582200Y-76882142D02*
X182534580Y-76834523D01*
X182534580Y-76834523D02*
X182439342Y-76786904D01*
X182439342Y-76786904D02*
X182344104Y-76786904D01*
X182344104Y-76786904D02*
X182248866Y-76834523D01*
X182248866Y-76834523D02*
X182201247Y-76882142D01*
X182201247Y-76882142D02*
X182153628Y-76977380D01*
X182153628Y-76977380D02*
X182106009Y-77167856D01*
X182106009Y-77167856D02*
X182058390Y-77263094D01*
X182058390Y-77263094D02*
X182010771Y-77310713D01*
X182010771Y-77310713D02*
X181915533Y-77358332D01*
X181915533Y-77358332D02*
X181820295Y-77358332D01*
X181820295Y-77358332D02*
X181725057Y-77310713D01*
X181725057Y-77310713D02*
X181677438Y-77263094D01*
X181677438Y-77263094D02*
X181629819Y-77167856D01*
X181629819Y-77167856D02*
X181629819Y-76929761D01*
X181629819Y-76929761D02*
X181677438Y-76786904D01*
X181629819Y-76453570D02*
X182629819Y-76215475D01*
X182629819Y-76215475D02*
X181915533Y-76024999D01*
X181915533Y-76024999D02*
X182629819Y-75834523D01*
X182629819Y-75834523D02*
X181629819Y-75596428D01*
X181963152Y-74786904D02*
X182629819Y-74786904D01*
X181582200Y-75024999D02*
X182296485Y-75263094D01*
X182296485Y-75263094D02*
X182296485Y-74644047D01*
D11*
%TO.C,U1*%
X212200000Y-76420000D02*
X236200000Y-76420000D01*
X212200000Y-94420000D02*
X212200000Y-76420000D01*
X236200000Y-76420000D02*
X236200000Y-94420000D01*
X236200000Y-94420000D02*
X212200000Y-94420000D01*
%TO.C,BAT1*%
X177530223Y-95851650D02*
X178803015Y-94578858D01*
X178555527Y-96876955D02*
X177530223Y-95851650D01*
X178803015Y-94578858D02*
X178102979Y-93878822D01*
X181447594Y-97972970D02*
X183872970Y-95547594D01*
X181751650Y-91630223D02*
X180478858Y-92903015D01*
X182776955Y-92655527D02*
X181751650Y-91630223D01*
%TO.C,SW3*%
X228750000Y-69275000D02*
X228750000Y-68725000D01*
X229775000Y-67150000D02*
X228850000Y-67150000D01*
X233550000Y-67150000D02*
X232625000Y-67150000D01*
X233550000Y-70850000D02*
X228850000Y-70850000D01*
X233650000Y-69275000D02*
X233650000Y-68725000D01*
%TO.C,SW0*%
X179750000Y-69275000D02*
X179750000Y-68725000D01*
X180775000Y-67150000D02*
X179850000Y-67150000D01*
X184550000Y-67150000D02*
X183625000Y-67150000D01*
X184550000Y-70850000D02*
X179850000Y-70850000D01*
X184650000Y-69275000D02*
X184650000Y-68725000D01*
%TO.C,SW5*%
X175850000Y-81800000D02*
X175850000Y-89600000D01*
X175850000Y-81800000D02*
X179950000Y-81800000D01*
X179900000Y-84800000D02*
X179900000Y-84100000D01*
X179900000Y-87300000D02*
X179900000Y-86600000D01*
X179900000Y-89600000D02*
X175850000Y-89600000D01*
D13*
X179950000Y-82600000D02*
X179950000Y-81800000D01*
X179950000Y-88700000D02*
X179950000Y-89600000D01*
D11*
%TO.C,J1*%
X188000000Y-70000000D02*
X236000000Y-70000000D01*
X188000000Y-101000000D02*
X188000000Y-70000000D01*
X188280000Y-78395000D02*
X188280000Y-75285000D01*
X188280000Y-83475000D02*
X188280000Y-79915000D01*
X188280000Y-88555000D02*
X188280000Y-84995000D01*
X188280000Y-93635000D02*
X188280000Y-90075000D01*
X188280000Y-95155000D02*
X186760000Y-95155000D01*
X188280000Y-95725000D02*
X188280000Y-95155000D01*
X190940000Y-75285000D02*
X188280000Y-75285000D01*
X190940000Y-75855000D02*
X190940000Y-75285000D01*
X190940000Y-80935000D02*
X190940000Y-77375000D01*
X190940000Y-86015000D02*
X190940000Y-82455000D01*
X190940000Y-91095000D02*
X190940000Y-87535000D01*
X190940000Y-95725000D02*
X188280000Y-95725000D01*
X190940000Y-95725000D02*
X190940000Y-92615000D01*
X236000000Y-70000000D02*
X236000000Y-101000000D01*
X236000000Y-101000000D02*
X188000000Y-101000000D01*
%TO.C,SW2*%
X212750000Y-69275000D02*
X212750000Y-68725000D01*
X213775000Y-67150000D02*
X212850000Y-67150000D01*
X217550000Y-67150000D02*
X216625000Y-67150000D01*
X217550000Y-70850000D02*
X212850000Y-70850000D01*
X217650000Y-69275000D02*
X217650000Y-68725000D01*
%TO.C,SW1*%
X195750000Y-69275000D02*
X195750000Y-68725000D01*
X196775000Y-67150000D02*
X195850000Y-67150000D01*
X200550000Y-67150000D02*
X199625000Y-67150000D01*
X200550000Y-70850000D02*
X195850000Y-70850000D01*
X200650000Y-69275000D02*
X200650000Y-68725000D01*
%TO.C,SW4*%
X177325000Y-73675000D02*
X177325000Y-74600000D01*
X177325000Y-77450000D02*
X177325000Y-78375000D01*
X179450000Y-73575000D02*
X178900000Y-73575000D01*
X179450000Y-78475000D02*
X178900000Y-78475000D01*
X181025000Y-73675000D02*
X181025000Y-78375000D01*
%TD*%
M02*
