%TF.GenerationSoftware,KiCad,Pcbnew,9.0.0*%
%TF.CreationDate,2025-09-27T11:06:56-07:00*%
%TF.ProjectId,grippy,67726970-7079-42e6-9b69-6361645f7063,rev?*%
%TF.SameCoordinates,Original*%
%TF.FileFunction,Copper,L1,Top*%
%TF.FilePolarity,Positive*%
%FSLAX46Y46*%
G04 Gerber Fmt 4.6, Leading zero omitted, Abs format (unit mm)*
G04 Created by KiCad (PCBNEW 9.0.0) date 2025-09-27 11:06:56*
%MOMM*%
%LPD*%
G01*
G04 APERTURE LIST*
G04 Aperture macros list*
%AMRoundRect*
0 Rectangle with rounded corners*
0 $1 Rounding radius*
0 $2 $3 $4 $5 $6 $7 $8 $9 X,Y pos of 4 corners*
0 Add a 4 corners polygon primitive as box body*
4,1,4,$2,$3,$4,$5,$6,$7,$8,$9,$2,$3,0*
0 Add four circle primitives for the rounded corners*
1,1,$1+$1,$2,$3*
1,1,$1+$1,$4,$5*
1,1,$1+$1,$6,$7*
1,1,$1+$1,$8,$9*
0 Add four rect primitives between the rounded corners*
20,1,$1+$1,$2,$3,$4,$5,0*
20,1,$1+$1,$4,$5,$6,$7,0*
20,1,$1+$1,$6,$7,$8,$9,0*
20,1,$1+$1,$8,$9,$2,$3,0*%
G04 Aperture macros list end*
%TA.AperFunction,SMDPad,CuDef*%
%ADD10R,2.400000X1.400000*%
%TD*%
%TA.AperFunction,SMDPad,CuDef*%
%ADD11R,1.600000X2.000000*%
%TD*%
%TA.AperFunction,SMDPad,CuDef*%
%ADD12RoundRect,0.150000X-0.601041X-0.388909X-0.388909X-0.601041X0.601041X0.388909X0.388909X0.601041X0*%
%TD*%
%TA.AperFunction,SMDPad,CuDef*%
%ADD13RoundRect,0.250000X-0.954594X-0.601041X-0.601041X-0.954594X0.954594X0.601041X0.601041X0.954594X0*%
%TD*%
%TA.AperFunction,SMDPad,CuDef*%
%ADD14R,1.000000X1.550000*%
%TD*%
%TA.AperFunction,SMDPad,CuDef*%
%ADD15RoundRect,0.240000X0.360000X1.010000X-0.360000X1.010000X-0.360000X-1.010000X0.360000X-1.010000X0*%
%TD*%
%TA.AperFunction,SMDPad,CuDef*%
%ADD16R,1.000000X2.510000*%
%TD*%
%TA.AperFunction,SMDPad,CuDef*%
%ADD17R,1.550000X1.000000*%
%TD*%
%TA.AperFunction,Conductor*%
%ADD18C,0.500000*%
%TD*%
%TA.AperFunction,Conductor*%
%ADD19C,0.300000*%
%TD*%
G04 APERTURE END LIST*
D10*
%TO.P,U1,3V3,3V3*%
%TO.N,VCC*%
X195060000Y-107330000D03*
%TO.P,U1,5V,5V*%
%TO.N,unconnected-(U1-Pad5V)*%
X195060000Y-112410000D03*
D11*
%TO.P,U1,B+,B+*%
%TO.N,/RAW*%
X202430000Y-112250000D03*
%TO.P,U1,B-,B-*%
%TO.N,GND*%
X205630000Y-112250000D03*
D10*
%TO.P,U1,GND,GND*%
X195060000Y-109870000D03*
%TO.P,U1,IO1,IO1*%
%TO.N,unconnected-(U1-PadIO1)*%
X213000000Y-107330000D03*
%TO.P,U1,IO2,IO2*%
%TO.N,/pinky*%
X213000000Y-104790000D03*
%TO.P,U1,IO3,IO3*%
%TO.N,unconnected-(U1-PadIO3)*%
X213000000Y-102250000D03*
%TO.P,U1,IO4,IO4*%
%TO.N,/ring*%
X213000000Y-99710000D03*
%TO.P,U1,IO5,IO5*%
%TO.N,/middle*%
X213000000Y-97170000D03*
%TO.P,U1,IO6,IO6*%
%TO.N,/index*%
X213000000Y-94630000D03*
%TO.P,U1,IO7,IO7*%
%TO.N,/thumb*%
X213000000Y-92090000D03*
%TO.P,U1,IO8,IO8*%
%TO.N,/SCL*%
X195060000Y-92090000D03*
%TO.P,U1,IO9,IO9*%
%TO.N,/SDA*%
X195060000Y-94630000D03*
%TO.P,U1,IO10,IO10*%
%TO.N,/RES*%
X195060000Y-97170000D03*
%TO.P,U1,IO11,IO11*%
%TO.N,/DC*%
X195060000Y-99710000D03*
%TO.P,U1,IO12,IO12*%
%TO.N,/CS*%
X195060000Y-102250000D03*
%TO.P,U1,IO13,IO13*%
%TO.N,/BLK*%
X195060000Y-104790000D03*
%TO.P,U1,RX,RX*%
%TO.N,unconnected-(U1-PadRX)*%
X213000000Y-109870000D03*
%TO.P,U1,TX,TX*%
%TO.N,unconnected-(U1-PadTX)*%
X213000000Y-112410000D03*
%TD*%
D12*
%TO.P,BAT1,1,Pin_1*%
%TO.N,/B+*%
X195366117Y-57150000D03*
%TO.P,BAT1,2,Pin_2*%
%TO.N,GND*%
X196250000Y-58033883D03*
D13*
%TO.P,BAT1,3,Pin_3*%
%TO.N,/mp*%
X191795228Y-58104594D03*
%TO.P,BAT1,4,Pin_4*%
X195295406Y-61604772D03*
%TD*%
D14*
%TO.P,SW3,1,A*%
%TO.N,/pinky*%
X221300000Y-106625000D03*
X221300000Y-111875000D03*
%TO.P,SW3,2,B*%
%TO.N,GND*%
X219600000Y-106625000D03*
X219600000Y-111875000D03*
%TD*%
%TO.P,SW0,1,A*%
%TO.N,/index*%
X221300000Y-57625000D03*
X221300000Y-62875000D03*
%TO.P,SW0,2,B*%
%TO.N,GND*%
X219600000Y-57625000D03*
X219600000Y-62875000D03*
%TD*%
D15*
%TO.P,SW5,1,A*%
%TO.N,/RAW*%
X206250000Y-58800000D03*
%TO.P,SW5,2,B*%
%TO.N,/B+*%
X203750000Y-58800000D03*
%TO.P,SW5,3,C*%
%TO.N,unconnected-(SW5A-C-Pad3)*%
X201250000Y-58800000D03*
%TD*%
D16*
%TO.P,J1,1,Pin_1*%
%TO.N,GND*%
X195055000Y-66005000D03*
%TO.P,J1,2,Pin_2*%
%TO.N,VCC*%
X197595000Y-69315000D03*
%TO.P,J1,3,Pin_3*%
%TO.N,/SCL*%
X200135000Y-66005000D03*
%TO.P,J1,4,Pin_4*%
%TO.N,/SDA*%
X202675000Y-69315000D03*
%TO.P,J1,5,Pin_5*%
%TO.N,/RES*%
X205215000Y-66005000D03*
%TO.P,J1,6,Pin_6*%
%TO.N,/DC*%
X207755000Y-69315000D03*
%TO.P,J1,7,Pin_7*%
%TO.N,/CS*%
X210295000Y-66005000D03*
%TO.P,J1,8,Pin_8*%
%TO.N,/BLK*%
X212835000Y-69315000D03*
%TD*%
D14*
%TO.P,SW2,1,A*%
%TO.N,/ring*%
X221300000Y-90625000D03*
X221300000Y-95875000D03*
%TO.P,SW2,2,B*%
%TO.N,GND*%
X219600000Y-90625000D03*
X219600000Y-95875000D03*
%TD*%
%TO.P,SW1,1,A*%
%TO.N,/middle*%
X221300000Y-73625000D03*
X221300000Y-78875000D03*
%TO.P,SW1,2,B*%
%TO.N,GND*%
X219600000Y-73625000D03*
X219600000Y-78875000D03*
%TD*%
D17*
%TO.P,SW4,1,A*%
%TO.N,/thumb*%
X210800000Y-56375000D03*
X216050000Y-56375000D03*
%TO.P,SW4,2,B*%
%TO.N,GND*%
X210800000Y-58075000D03*
X216050000Y-58075000D03*
%TD*%
D18*
%TO.N,/B+*%
X199250000Y-57950000D02*
X199250000Y-60300000D01*
X200200000Y-61250000D02*
X202800000Y-61250000D01*
X203750000Y-60300000D02*
X203750000Y-58800000D01*
X195366117Y-57150000D02*
X196566117Y-55950000D01*
X202800000Y-61250000D02*
X203750000Y-60300000D01*
X199250000Y-60300000D02*
X200200000Y-61250000D01*
X196566117Y-55950000D02*
X197250000Y-55950000D01*
X197250000Y-55950000D02*
X199250000Y-57950000D01*
%TO.N,/SCL*%
X200135000Y-88265000D02*
X196310000Y-92090000D01*
X200135000Y-66005000D02*
X200135000Y-88265000D01*
X196310000Y-92090000D02*
X194780000Y-92090000D01*
%TO.N,VCC*%
X192480000Y-107330000D02*
X195060000Y-107330000D01*
X190450000Y-91550000D02*
X190450000Y-105300000D01*
X197595000Y-69315000D02*
X197595000Y-84405000D01*
X190450000Y-105300000D02*
X192480000Y-107330000D01*
X197595000Y-84405000D02*
X190450000Y-91550000D01*
%TO.N,/SDA*%
X196750000Y-94700000D02*
X194850000Y-94700000D01*
X202675000Y-69315000D02*
X202675000Y-88775000D01*
X202675000Y-88775000D02*
X196750000Y-94700000D01*
X194850000Y-94700000D02*
X194780000Y-94630000D01*
D19*
%TO.N,/index*%
X220700000Y-62337500D02*
X221325000Y-62962500D01*
D18*
X216450000Y-72750000D02*
X221325000Y-67875000D01*
D19*
X220700000Y-58337500D02*
X220700000Y-62337500D01*
X221325000Y-57712500D02*
X220700000Y-58337500D01*
D18*
X221325000Y-67875000D02*
X221325000Y-62875000D01*
X213000000Y-94630000D02*
X214870000Y-94630000D01*
X214870000Y-94630000D02*
X216450000Y-93050000D01*
X216450000Y-93050000D02*
X216450000Y-72750000D01*
D19*
%TO.N,/middle*%
X221325000Y-73612500D02*
X220700000Y-74237500D01*
D18*
X221325000Y-78875000D02*
X221325000Y-81675000D01*
X215030000Y-97220000D02*
X212770000Y-97220000D01*
X217700000Y-94550000D02*
X215030000Y-97220000D01*
X217700000Y-85300000D02*
X217700000Y-94550000D01*
X212770000Y-97220000D02*
X212720000Y-97170000D01*
X221325000Y-81675000D02*
X217700000Y-85300000D01*
D19*
X220700000Y-74237500D02*
X220700000Y-78237500D01*
X220700000Y-78237500D02*
X221325000Y-78862500D01*
%TO.N,/ring*%
X220700000Y-95237500D02*
X221325000Y-95862500D01*
D18*
X218790000Y-99710000D02*
X213000000Y-99710000D01*
X221325000Y-97175000D02*
X218790000Y-99710000D01*
D19*
X220700000Y-91237500D02*
X220700000Y-95237500D01*
D18*
X221325000Y-95925000D02*
X221325000Y-97175000D01*
D19*
X221325000Y-90612500D02*
X220700000Y-91237500D01*
%TO.N,/pinky*%
X220700000Y-111275000D02*
X220700000Y-107275000D01*
D18*
X221325000Y-102925000D02*
X221325000Y-105725000D01*
X218950000Y-101800000D02*
X220200000Y-101800000D01*
D19*
X220700000Y-107275000D02*
X221325000Y-106650000D01*
D18*
X220200000Y-101800000D02*
X221325000Y-102925000D01*
X215960000Y-104790000D02*
X218950000Y-101800000D01*
X213000000Y-104790000D02*
X215960000Y-104790000D01*
D19*
X221325000Y-111900000D02*
X220700000Y-111275000D01*
D18*
%TO.N,/thumb*%
X215200000Y-67300000D02*
X215200000Y-89890000D01*
D19*
X215425000Y-57000000D02*
X211425000Y-57000000D01*
D18*
X216425000Y-56375000D02*
X216925000Y-56375000D01*
X216925000Y-56375000D02*
X217700000Y-57150000D01*
X215200000Y-89890000D02*
X213000000Y-92090000D01*
X217700000Y-57150000D02*
X217700000Y-64800000D01*
D19*
X216050000Y-56375000D02*
X215425000Y-57000000D01*
X211425000Y-57000000D02*
X210800000Y-56375000D01*
D18*
X217700000Y-64800000D02*
X215200000Y-67300000D01*
%TO.N,/RAW*%
X211900000Y-61750000D02*
X209950000Y-61750000D01*
X214200000Y-64050000D02*
X214200000Y-64000000D01*
X210700000Y-95800000D02*
X210700000Y-74550000D01*
X207000000Y-58800000D02*
X205800000Y-58800000D01*
X209950000Y-61750000D02*
X207000000Y-58800000D01*
X214200000Y-64050000D02*
X211900000Y-61750000D01*
X210700000Y-74550000D02*
X214200000Y-71050000D01*
X202430000Y-104070000D02*
X210700000Y-95800000D01*
X202430000Y-112250000D02*
X202430000Y-104070000D01*
X214200000Y-71050000D02*
X214200000Y-64050000D01*
%TO.N,/mp*%
X191795228Y-58104594D02*
X195295406Y-61604772D01*
%TO.N,/BLK*%
X194840000Y-104850000D02*
X194780000Y-104790000D01*
X212835000Y-69315000D02*
X212635000Y-69315000D01*
X198400000Y-104850000D02*
X194840000Y-104850000D01*
X212635000Y-69315000D02*
X209400000Y-72550000D01*
X209400000Y-72550000D02*
X209400000Y-93850000D01*
X209400000Y-93850000D02*
X198400000Y-104850000D01*
%TO.N,/RES*%
X194830000Y-97220000D02*
X194780000Y-97170000D01*
X197130000Y-97220000D02*
X194830000Y-97220000D01*
X205200000Y-66020000D02*
X205200000Y-69400000D01*
X205215000Y-66005000D02*
X205200000Y-66020000D01*
X205200000Y-69400000D02*
X204450000Y-70150000D01*
X204450000Y-70150000D02*
X204450000Y-89900000D01*
X204450000Y-89900000D02*
X197130000Y-97220000D01*
%TO.N,/CS*%
X210295000Y-66005000D02*
X210295000Y-69605000D01*
X207950000Y-92550000D02*
X198250000Y-102250000D01*
X198250000Y-102250000D02*
X195060000Y-102250000D01*
X207950000Y-71950000D02*
X207950000Y-92550000D01*
X210295000Y-69605000D02*
X207950000Y-71950000D01*
%TO.N,/DC*%
X194830000Y-99760000D02*
X197590000Y-99760000D01*
X194780000Y-99710000D02*
X194830000Y-99760000D01*
X206200000Y-70870000D02*
X207755000Y-69315000D01*
X197590000Y-99760000D02*
X206200000Y-91150000D01*
X206200000Y-91150000D02*
X206200000Y-70870000D01*
%TD*%
%TA.AperFunction,Conductor*%
%TO.N,GND*%
G36*
X220144738Y-55050689D02*
G01*
X220398593Y-55093715D01*
X220403911Y-55094925D01*
X220687489Y-55176420D01*
X220696056Y-55178882D01*
X220719125Y-55193399D01*
X221986708Y-56617649D01*
X221986708Y-56617650D01*
X222052831Y-56691945D01*
X222052833Y-56691947D01*
X222391078Y-57071997D01*
X222576617Y-57280468D01*
X222577286Y-57281219D01*
X222588964Y-57305431D01*
X222637264Y-57584206D01*
X222637896Y-57589652D01*
X222656953Y-57908940D01*
X222657040Y-57911678D01*
X222657059Y-57916812D01*
X222657015Y-58544552D01*
X222653182Y-112647067D01*
X222653180Y-112647093D01*
X222653180Y-112677305D01*
X222653103Y-112680052D01*
X222635105Y-113000571D01*
X222634490Y-113006032D01*
X222624187Y-113066669D01*
X222611213Y-113092409D01*
X220283261Y-115515379D01*
X220256135Y-115529739D01*
X220140964Y-115549308D01*
X220132756Y-115550000D01*
X190192250Y-115550000D01*
X190184042Y-115549308D01*
X190157594Y-115544814D01*
X190131154Y-115531154D01*
X187764352Y-113164352D01*
X187750000Y-113129704D01*
X187750000Y-111655513D01*
X189749500Y-111655513D01*
X189749500Y-111844480D01*
X189779059Y-112031115D01*
X189779060Y-112031118D01*
X189837453Y-112210833D01*
X189923236Y-112379193D01*
X189923239Y-112379197D01*
X189923240Y-112379199D01*
X190034310Y-112532073D01*
X190034312Y-112532075D01*
X190034315Y-112532079D01*
X190167920Y-112665684D01*
X190167923Y-112665686D01*
X190167927Y-112665690D01*
X190320801Y-112776760D01*
X190320803Y-112776761D01*
X190320806Y-112776763D01*
X190442691Y-112838866D01*
X190489168Y-112862547D01*
X190668882Y-112920940D01*
X190855519Y-112950500D01*
X190855520Y-112950500D01*
X191044480Y-112950500D01*
X191044481Y-112950500D01*
X191231118Y-112920940D01*
X191410832Y-112862547D01*
X191579199Y-112776760D01*
X191732073Y-112665690D01*
X191865690Y-112532073D01*
X191976760Y-112379199D01*
X192062547Y-112210832D01*
X192120940Y-112031118D01*
X192150500Y-111844481D01*
X192150500Y-111690252D01*
X193659500Y-111690252D01*
X193659500Y-113129748D01*
X193671133Y-113188231D01*
X193688882Y-113214795D01*
X193715447Y-113254552D01*
X193738184Y-113269744D01*
X193781769Y-113298867D01*
X193840252Y-113310500D01*
X193840255Y-113310500D01*
X196279745Y-113310500D01*
X196279748Y-113310500D01*
X196338231Y-113298867D01*
X196404552Y-113254552D01*
X196448867Y-113188231D01*
X196460500Y-113129748D01*
X196460500Y-111690252D01*
X196448867Y-111631769D01*
X196422301Y-111592012D01*
X196404552Y-111565447D01*
X196364795Y-111538882D01*
X196338231Y-111521133D01*
X196279748Y-111509500D01*
X193840252Y-111509500D01*
X193781769Y-111521133D01*
X193715447Y-111565447D01*
X193671134Y-111631768D01*
X193671133Y-111631769D01*
X193659500Y-111690252D01*
X192150500Y-111690252D01*
X192150500Y-111655519D01*
X192120940Y-111468882D01*
X192062547Y-111289168D01*
X192042636Y-111250090D01*
X192032528Y-111230252D01*
X201429500Y-111230252D01*
X201429500Y-113269748D01*
X201441133Y-113328231D01*
X201458882Y-113354795D01*
X201485447Y-113394552D01*
X201512012Y-113412301D01*
X201551769Y-113438867D01*
X201610252Y-113450500D01*
X201610255Y-113450500D01*
X203249745Y-113450500D01*
X203249748Y-113450500D01*
X203308231Y-113438867D01*
X203374552Y-113394552D01*
X203418867Y-113328231D01*
X203429529Y-113274629D01*
X204580000Y-113274629D01*
X204594503Y-113347542D01*
X204649759Y-113430240D01*
X204732457Y-113485496D01*
X204805370Y-113499999D01*
X204805376Y-113500000D01*
X205130000Y-113500000D01*
X206130000Y-113500000D01*
X206454624Y-113500000D01*
X206454629Y-113499999D01*
X206527542Y-113485496D01*
X206610240Y-113430240D01*
X206665496Y-113347542D01*
X206679999Y-113274629D01*
X206680000Y-113274624D01*
X206680000Y-112750000D01*
X206130000Y-112750000D01*
X206130000Y-113500000D01*
X205130000Y-113500000D01*
X205130000Y-112750000D01*
X204580000Y-112750000D01*
X204580000Y-113274629D01*
X203429529Y-113274629D01*
X203430500Y-113269748D01*
X203430500Y-111230252D01*
X203429529Y-111225370D01*
X204580000Y-111225370D01*
X204580000Y-111750000D01*
X205130000Y-111750000D01*
X206130000Y-111750000D01*
X206680000Y-111750000D01*
X206680000Y-111690252D01*
X211599500Y-111690252D01*
X211599500Y-113129748D01*
X211611133Y-113188231D01*
X211628882Y-113214795D01*
X211655447Y-113254552D01*
X211678184Y-113269744D01*
X211721769Y-113298867D01*
X211780252Y-113310500D01*
X211780255Y-113310500D01*
X214219745Y-113310500D01*
X214219748Y-113310500D01*
X214278231Y-113298867D01*
X214344552Y-113254552D01*
X214388867Y-113188231D01*
X214400500Y-113129748D01*
X214400500Y-111690252D01*
X214393590Y-111655513D01*
X215749500Y-111655513D01*
X215749500Y-111844480D01*
X215779059Y-112031115D01*
X215779060Y-112031118D01*
X215837453Y-112210833D01*
X215923236Y-112379193D01*
X215923239Y-112379197D01*
X215923240Y-112379199D01*
X216034310Y-112532073D01*
X216034312Y-112532075D01*
X216034315Y-112532079D01*
X216167920Y-112665684D01*
X216167923Y-112665686D01*
X216167927Y-112665690D01*
X216320801Y-112776760D01*
X216320803Y-112776761D01*
X216320806Y-112776763D01*
X216442691Y-112838866D01*
X216489168Y-112862547D01*
X216668882Y-112920940D01*
X216855519Y-112950500D01*
X216855520Y-112950500D01*
X217044480Y-112950500D01*
X217044481Y-112950500D01*
X217231118Y-112920940D01*
X217410832Y-112862547D01*
X217579199Y-112776760D01*
X217719770Y-112674629D01*
X218850000Y-112674629D01*
X218864503Y-112747542D01*
X218919759Y-112830240D01*
X219002457Y-112885496D01*
X219075370Y-112899999D01*
X219075376Y-112900000D01*
X219100000Y-112900000D01*
X220100000Y-112900000D01*
X220124624Y-112900000D01*
X220124629Y-112899999D01*
X220197542Y-112885496D01*
X220280240Y-112830240D01*
X220335496Y-112747542D01*
X220349999Y-112674629D01*
X220350000Y-112674624D01*
X220350000Y-112375000D01*
X220100000Y-112375000D01*
X220100000Y-112900000D01*
X219100000Y-112900000D01*
X219100000Y-112375000D01*
X218850000Y-112375000D01*
X218850000Y-112674629D01*
X217719770Y-112674629D01*
X217732073Y-112665690D01*
X217865690Y-112532073D01*
X217976760Y-112379199D01*
X218062547Y-112210832D01*
X218120940Y-112031118D01*
X218150500Y-111844481D01*
X218150500Y-111655519D01*
X218120940Y-111468882D01*
X218062547Y-111289168D01*
X217976760Y-111120801D01*
X217943752Y-111075370D01*
X218850000Y-111075370D01*
X218850000Y-111375000D01*
X219100000Y-111375000D01*
X219100000Y-110850000D01*
X219075370Y-110850000D01*
X219002457Y-110864503D01*
X218919759Y-110919759D01*
X218864503Y-111002457D01*
X218850000Y-111075370D01*
X217943752Y-111075370D01*
X217865690Y-110967927D01*
X217865686Y-110967923D01*
X217865684Y-110967920D01*
X217732079Y-110834315D01*
X217732080Y-110834315D01*
X217628235Y-110758867D01*
X217579199Y-110723240D01*
X217579197Y-110723239D01*
X217579193Y-110723236D01*
X217410833Y-110637453D01*
X217231118Y-110579060D01*
X217231115Y-110579059D01*
X217087744Y-110556352D01*
X217044481Y-110549500D01*
X216855519Y-110549500D01*
X216820397Y-110555062D01*
X216668884Y-110579059D01*
X216668881Y-110579060D01*
X216489166Y-110637453D01*
X216320806Y-110723236D01*
X216167920Y-110834315D01*
X216034315Y-110967920D01*
X215923236Y-111120806D01*
X215837453Y-111289166D01*
X215779060Y-111468881D01*
X215779059Y-111468884D01*
X215759240Y-111594018D01*
X215750052Y-111652032D01*
X215750052Y-111652034D01*
X215750051Y-111652033D01*
X215749500Y-111655513D01*
X214393590Y-111655513D01*
X214388867Y-111631769D01*
X214374162Y-111609762D01*
X214344552Y-111565447D01*
X214304795Y-111538882D01*
X214278231Y-111521133D01*
X214219748Y-111509500D01*
X211780252Y-111509500D01*
X211721769Y-111521133D01*
X211655447Y-111565447D01*
X211611134Y-111631768D01*
X211611133Y-111631769D01*
X211599500Y-111690252D01*
X206680000Y-111690252D01*
X206680000Y-111225376D01*
X206679999Y-111225370D01*
X206665496Y-111152457D01*
X206610240Y-111069759D01*
X206527542Y-111014503D01*
X206454629Y-111000000D01*
X206130000Y-111000000D01*
X206130000Y-111750000D01*
X205130000Y-111750000D01*
X205130000Y-111000000D01*
X204805370Y-111000000D01*
X204732457Y-111014503D01*
X204649759Y-111069759D01*
X204594503Y-111152457D01*
X204580000Y-111225370D01*
X203429529Y-111225370D01*
X203418867Y-111171769D01*
X203381552Y-111115924D01*
X203374552Y-111105447D01*
X203329538Y-111075370D01*
X203308231Y-111061133D01*
X203249748Y-111049500D01*
X203249745Y-111049500D01*
X202929500Y-111049500D01*
X202894852Y-111035148D01*
X202880500Y-111000500D01*
X202880500Y-109150252D01*
X211599500Y-109150252D01*
X211599500Y-110589748D01*
X211611133Y-110648231D01*
X211628882Y-110674795D01*
X211655447Y-110714552D01*
X211668444Y-110723236D01*
X211721769Y-110758867D01*
X211780252Y-110770500D01*
X211780255Y-110770500D01*
X214219745Y-110770500D01*
X214219748Y-110770500D01*
X214278231Y-110758867D01*
X214344552Y-110714552D01*
X214388867Y-110648231D01*
X214400500Y-110589748D01*
X214400500Y-109181001D01*
X218374500Y-109181001D01*
X218374500Y-109318998D01*
X218401417Y-109454318D01*
X218401420Y-109454328D01*
X218454225Y-109581811D01*
X218485137Y-109628074D01*
X218530883Y-109696539D01*
X218628460Y-109794116D01*
X218674102Y-109824613D01*
X218743189Y-109870775D01*
X218870672Y-109923580D01*
X218870678Y-109923581D01*
X218870681Y-109923582D01*
X219006001Y-109950499D01*
X219006007Y-109950500D01*
X219143993Y-109950500D01*
X219279328Y-109923580D01*
X219406811Y-109870775D01*
X219521542Y-109794114D01*
X219619114Y-109696542D01*
X219695775Y-109581811D01*
X219748580Y-109454328D01*
X219775500Y-109318993D01*
X219775500Y-109181007D01*
X219769383Y-109150255D01*
X219748582Y-109045681D01*
X219748579Y-109045670D01*
X219740203Y-109025448D01*
X219695775Y-108918189D01*
X219649613Y-108849102D01*
X219619116Y-108803460D01*
X219521539Y-108705883D01*
X219453074Y-108660137D01*
X219406811Y-108629225D01*
X219406808Y-108629223D01*
X219406807Y-108629223D01*
X219279329Y-108576420D01*
X219279318Y-108576417D01*
X219143998Y-108549500D01*
X219143993Y-108549500D01*
X219006007Y-108549500D01*
X219006001Y-108549500D01*
X218870681Y-108576417D01*
X218870670Y-108576420D01*
X218743192Y-108629223D01*
X218628460Y-108705883D01*
X218530883Y-108803460D01*
X218454223Y-108918192D01*
X218401420Y-109045670D01*
X218401417Y-109045681D01*
X218374500Y-109181001D01*
X214400500Y-109181001D01*
X214400500Y-109150252D01*
X214388867Y-109091769D01*
X214362301Y-109052012D01*
X214344552Y-109025447D01*
X214304795Y-108998882D01*
X214278231Y-108981133D01*
X214219748Y-108969500D01*
X211780252Y-108969500D01*
X211721769Y-108981133D01*
X211655447Y-109025447D01*
X211624037Y-109072457D01*
X211611133Y-109091769D01*
X211599500Y-109150252D01*
X202880500Y-109150252D01*
X202880500Y-106610252D01*
X211599500Y-106610252D01*
X211599500Y-108049748D01*
X211611133Y-108108231D01*
X211628882Y-108134795D01*
X211655447Y-108174552D01*
X211682012Y-108192301D01*
X211721769Y-108218867D01*
X211780252Y-108230500D01*
X211780255Y-108230500D01*
X214219745Y-108230500D01*
X214219748Y-108230500D01*
X214278231Y-108218867D01*
X214344552Y-108174552D01*
X214388867Y-108108231D01*
X214400500Y-108049748D01*
X214400500Y-107424629D01*
X218850000Y-107424629D01*
X218864503Y-107497542D01*
X218919759Y-107580240D01*
X219002457Y-107635496D01*
X219075370Y-107649999D01*
X219075376Y-107650000D01*
X219100000Y-107650000D01*
X219100000Y-107125000D01*
X218850000Y-107125000D01*
X218850000Y-107424629D01*
X214400500Y-107424629D01*
X214400500Y-106610252D01*
X214388867Y-106551769D01*
X214362301Y-106512012D01*
X214344552Y-106485447D01*
X214304795Y-106458882D01*
X214278231Y-106441133D01*
X214219748Y-106429500D01*
X211780252Y-106429500D01*
X211721769Y-106441133D01*
X211655447Y-106485447D01*
X211611133Y-106551769D01*
X211599500Y-106610252D01*
X202880500Y-106610252D01*
X202880500Y-105825370D01*
X218850000Y-105825370D01*
X218850000Y-106125000D01*
X219100000Y-106125000D01*
X220100000Y-106125000D01*
X220350000Y-106125000D01*
X220350000Y-105825376D01*
X220349999Y-105825370D01*
X220335496Y-105752457D01*
X220280240Y-105669759D01*
X220197542Y-105614503D01*
X220124629Y-105600000D01*
X220100000Y-105600000D01*
X220100000Y-106125000D01*
X219100000Y-106125000D01*
X219100000Y-105600000D01*
X219075370Y-105600000D01*
X219002457Y-105614503D01*
X218919759Y-105669759D01*
X218864503Y-105752457D01*
X218850000Y-105825370D01*
X202880500Y-105825370D01*
X202880500Y-104276899D01*
X202894852Y-104242251D01*
X203066851Y-104070252D01*
X211599500Y-104070252D01*
X211599500Y-105509748D01*
X211611133Y-105568231D01*
X211628882Y-105594795D01*
X211655447Y-105634552D01*
X211676075Y-105648335D01*
X211721769Y-105678867D01*
X211780252Y-105690500D01*
X211780255Y-105690500D01*
X214219745Y-105690500D01*
X214219748Y-105690500D01*
X214278231Y-105678867D01*
X214344552Y-105634552D01*
X214388867Y-105568231D01*
X214400500Y-105509748D01*
X214400500Y-105289500D01*
X214414852Y-105254852D01*
X214449500Y-105240500D01*
X216019311Y-105240500D01*
X216049430Y-105232428D01*
X216109673Y-105216286D01*
X216133887Y-105209799D01*
X216236614Y-105150489D01*
X219122251Y-102264852D01*
X219156899Y-102250500D01*
X219993101Y-102250500D01*
X220027749Y-102264852D01*
X220860148Y-103097251D01*
X220874500Y-103131899D01*
X220874500Y-105600500D01*
X220860148Y-105635148D01*
X220825500Y-105649500D01*
X220780252Y-105649500D01*
X220721769Y-105661133D01*
X220655447Y-105705447D01*
X220624037Y-105752457D01*
X220611133Y-105771769D01*
X220599500Y-105830252D01*
X220599500Y-105830255D01*
X220599500Y-106859522D01*
X220585148Y-106894170D01*
X220419531Y-107059787D01*
X220419530Y-107059787D01*
X220396025Y-107100500D01*
X220366272Y-107123330D01*
X220353590Y-107125000D01*
X220100000Y-107125000D01*
X220100000Y-107650000D01*
X220124624Y-107650000D01*
X220124629Y-107649999D01*
X220197542Y-107635496D01*
X220273277Y-107584892D01*
X220310059Y-107577576D01*
X220341242Y-107598411D01*
X220349500Y-107625634D01*
X220349500Y-110874365D01*
X220335148Y-110909013D01*
X220300500Y-110923365D01*
X220273277Y-110915107D01*
X220197542Y-110864503D01*
X220124629Y-110850000D01*
X220100000Y-110850000D01*
X220100000Y-111375000D01*
X220326332Y-111375000D01*
X220360980Y-111389352D01*
X220371509Y-111407591D01*
X220372158Y-111407323D01*
X220373386Y-111410290D01*
X220419530Y-111490212D01*
X220585148Y-111655830D01*
X220599500Y-111690478D01*
X220599500Y-112669748D01*
X220611133Y-112728231D01*
X220625679Y-112750000D01*
X220655447Y-112794552D01*
X220682012Y-112812301D01*
X220721769Y-112838867D01*
X220780252Y-112850500D01*
X220780255Y-112850500D01*
X221819745Y-112850500D01*
X221819748Y-112850500D01*
X221878231Y-112838867D01*
X221944552Y-112794552D01*
X221988867Y-112728231D01*
X222000500Y-112669748D01*
X222000500Y-111080252D01*
X221988867Y-111021769D01*
X221959204Y-110977376D01*
X221944552Y-110955447D01*
X221896537Y-110923365D01*
X221878231Y-110911133D01*
X221819748Y-110899500D01*
X221819745Y-110899500D01*
X221099500Y-110899500D01*
X221064852Y-110885148D01*
X221050500Y-110850500D01*
X221050500Y-109444474D01*
X221064852Y-109409826D01*
X221099500Y-109395474D01*
X221134148Y-109409826D01*
X221147558Y-109434913D01*
X221151420Y-109454328D01*
X221204225Y-109581811D01*
X221235137Y-109628074D01*
X221280883Y-109696539D01*
X221378460Y-109794116D01*
X221424102Y-109824613D01*
X221493189Y-109870775D01*
X221620672Y-109923580D01*
X221620678Y-109923581D01*
X221620681Y-109923582D01*
X221756001Y-109950499D01*
X221756007Y-109950500D01*
X221893993Y-109950500D01*
X222029328Y-109923580D01*
X222156811Y-109870775D01*
X222271542Y-109794114D01*
X222369114Y-109696542D01*
X222445775Y-109581811D01*
X222498580Y-109454328D01*
X222525500Y-109318993D01*
X222525500Y-109181007D01*
X222519383Y-109150255D01*
X222498582Y-109045681D01*
X222498579Y-109045670D01*
X222490203Y-109025448D01*
X222445775Y-108918189D01*
X222399613Y-108849102D01*
X222369116Y-108803460D01*
X222271539Y-108705883D01*
X222203074Y-108660137D01*
X222156811Y-108629225D01*
X222156808Y-108629223D01*
X222156807Y-108629223D01*
X222029329Y-108576420D01*
X222029318Y-108576417D01*
X221893998Y-108549500D01*
X221893993Y-108549500D01*
X221756007Y-108549500D01*
X221756001Y-108549500D01*
X221620681Y-108576417D01*
X221620670Y-108576420D01*
X221493192Y-108629223D01*
X221378460Y-108705883D01*
X221280883Y-108803460D01*
X221204223Y-108918192D01*
X221151420Y-109045670D01*
X221151418Y-109045679D01*
X221147558Y-109065085D01*
X221126723Y-109096267D01*
X221089940Y-109103583D01*
X221058758Y-109082748D01*
X221050500Y-109055525D01*
X221050500Y-107649500D01*
X221064852Y-107614852D01*
X221099500Y-107600500D01*
X221819745Y-107600500D01*
X221819748Y-107600500D01*
X221878231Y-107588867D01*
X221944552Y-107544552D01*
X221988867Y-107478231D01*
X222000500Y-107419748D01*
X222000500Y-105830252D01*
X221988867Y-105771769D01*
X221962301Y-105732012D01*
X221944552Y-105705447D01*
X221904770Y-105678866D01*
X221878231Y-105661133D01*
X221849381Y-105655394D01*
X221819744Y-105649499D01*
X221819695Y-105649495D01*
X221819680Y-105649487D01*
X221817387Y-105649031D01*
X221817525Y-105648335D01*
X221786621Y-105631815D01*
X221775500Y-105600731D01*
X221775500Y-102865688D01*
X221746469Y-102757346D01*
X221746468Y-102757342D01*
X221746468Y-102757343D01*
X221744799Y-102751114D01*
X221744799Y-102751113D01*
X221685489Y-102648386D01*
X220476614Y-101439511D01*
X220417616Y-101405448D01*
X220373888Y-101380201D01*
X220373886Y-101380200D01*
X220349673Y-101373713D01*
X220302724Y-101361133D01*
X220259311Y-101349500D01*
X220259309Y-101349500D01*
X218890691Y-101349500D01*
X218890688Y-101349500D01*
X218776115Y-101380200D01*
X218776111Y-101380201D01*
X218673393Y-101439505D01*
X218673384Y-101439512D01*
X215787749Y-104325148D01*
X215753101Y-104339500D01*
X214449500Y-104339500D01*
X214414852Y-104325148D01*
X214400500Y-104290500D01*
X214400500Y-104070255D01*
X214400500Y-104070252D01*
X214388867Y-104011769D01*
X214362301Y-103972012D01*
X214344552Y-103945447D01*
X214304795Y-103918882D01*
X214278231Y-103901133D01*
X214219748Y-103889500D01*
X211780252Y-103889500D01*
X211721769Y-103901133D01*
X211655447Y-103945447D01*
X211611855Y-104010688D01*
X211611133Y-104011769D01*
X211599500Y-104070252D01*
X203066851Y-104070252D01*
X205606851Y-101530252D01*
X211599500Y-101530252D01*
X211599500Y-102969748D01*
X211611133Y-103028231D01*
X211628882Y-103054795D01*
X211655447Y-103094552D01*
X211680966Y-103111603D01*
X211721769Y-103138867D01*
X211780252Y-103150500D01*
X211780255Y-103150500D01*
X214219745Y-103150500D01*
X214219748Y-103150500D01*
X214278231Y-103138867D01*
X214344552Y-103094552D01*
X214388867Y-103028231D01*
X214400500Y-102969748D01*
X214400500Y-101530252D01*
X214388867Y-101471769D01*
X214362301Y-101432012D01*
X214344552Y-101405447D01*
X214297058Y-101373713D01*
X214278231Y-101361133D01*
X214219748Y-101349500D01*
X211780252Y-101349500D01*
X211721769Y-101361133D01*
X211655447Y-101405447D01*
X211611133Y-101471769D01*
X211599500Y-101530252D01*
X205606851Y-101530252D01*
X208146851Y-98990252D01*
X211599500Y-98990252D01*
X211599500Y-100429748D01*
X211611133Y-100488231D01*
X211628882Y-100514795D01*
X211655447Y-100554552D01*
X211682012Y-100572301D01*
X211721769Y-100598867D01*
X211780252Y-100610500D01*
X211780255Y-100610500D01*
X214219745Y-100610500D01*
X214219748Y-100610500D01*
X214278231Y-100598867D01*
X214344552Y-100554552D01*
X214388867Y-100488231D01*
X214400500Y-100429748D01*
X214400500Y-100209500D01*
X214414852Y-100174852D01*
X214449500Y-100160500D01*
X218849311Y-100160500D01*
X218879430Y-100152428D01*
X218939673Y-100136286D01*
X218963887Y-100129799D01*
X219066614Y-100070489D01*
X221685489Y-97451614D01*
X221744798Y-97348887D01*
X221744799Y-97348886D01*
X221775499Y-97234312D01*
X221775500Y-97234312D01*
X221775500Y-96899268D01*
X221789852Y-96864620D01*
X221817502Y-96851548D01*
X221817387Y-96850969D01*
X221819700Y-96850508D01*
X221819715Y-96850502D01*
X221819735Y-96850500D01*
X221819748Y-96850500D01*
X221878231Y-96838867D01*
X221944552Y-96794552D01*
X221988867Y-96728231D01*
X222000500Y-96669748D01*
X222000500Y-95080252D01*
X221988867Y-95021769D01*
X221962301Y-94982012D01*
X221944552Y-94955447D01*
X221896537Y-94923365D01*
X221878231Y-94911133D01*
X221819748Y-94899500D01*
X221819745Y-94899500D01*
X221099500Y-94899500D01*
X221064852Y-94885148D01*
X221050500Y-94850500D01*
X221050500Y-93444474D01*
X221064852Y-93409826D01*
X221099500Y-93395474D01*
X221134148Y-93409826D01*
X221147558Y-93434913D01*
X221151420Y-93454328D01*
X221204225Y-93581811D01*
X221235137Y-93628074D01*
X221280883Y-93696539D01*
X221378460Y-93794116D01*
X221424102Y-93824613D01*
X221493189Y-93870775D01*
X221620672Y-93923580D01*
X221620678Y-93923581D01*
X221620681Y-93923582D01*
X221756001Y-93950499D01*
X221756007Y-93950500D01*
X221893993Y-93950500D01*
X222029328Y-93923580D01*
X222156811Y-93870775D01*
X222271542Y-93794114D01*
X222369114Y-93696542D01*
X222445775Y-93581811D01*
X222498580Y-93454328D01*
X222525500Y-93318993D01*
X222525500Y-93181007D01*
X222511238Y-93109309D01*
X222498582Y-93045681D01*
X222498579Y-93045670D01*
X222475727Y-92990500D01*
X222445775Y-92918189D01*
X222373317Y-92809748D01*
X222369116Y-92803460D01*
X222271539Y-92705883D01*
X222203074Y-92660137D01*
X222156811Y-92629225D01*
X222156808Y-92629223D01*
X222156807Y-92629223D01*
X222029329Y-92576420D01*
X222029318Y-92576417D01*
X221893998Y-92549500D01*
X221893993Y-92549500D01*
X221756007Y-92549500D01*
X221756001Y-92549500D01*
X221620681Y-92576417D01*
X221620670Y-92576420D01*
X221493192Y-92629223D01*
X221378460Y-92705883D01*
X221280883Y-92803460D01*
X221204223Y-92918192D01*
X221151420Y-93045670D01*
X221151418Y-93045679D01*
X221147558Y-93065085D01*
X221126723Y-93096267D01*
X221089940Y-93103583D01*
X221058758Y-93082748D01*
X221050500Y-93055525D01*
X221050500Y-91649500D01*
X221064852Y-91614852D01*
X221099500Y-91600500D01*
X221819745Y-91600500D01*
X221819748Y-91600500D01*
X221878231Y-91588867D01*
X221944552Y-91544552D01*
X221988867Y-91478231D01*
X222000500Y-91419748D01*
X222000500Y-89830252D01*
X221988867Y-89771769D01*
X221952771Y-89717748D01*
X221944552Y-89705447D01*
X221904795Y-89678882D01*
X221878231Y-89661133D01*
X221819748Y-89649500D01*
X220780252Y-89649500D01*
X220721769Y-89661133D01*
X220655447Y-89705447D01*
X220624037Y-89752457D01*
X220611133Y-89771769D01*
X220599500Y-89830252D01*
X220599500Y-89830255D01*
X220599500Y-90822022D01*
X220585148Y-90856670D01*
X220419532Y-91022285D01*
X220419525Y-91022294D01*
X220380038Y-91090689D01*
X220380038Y-91090691D01*
X220374374Y-91100501D01*
X220344620Y-91123331D01*
X220331939Y-91125000D01*
X220100000Y-91125000D01*
X220100000Y-91650000D01*
X220124624Y-91650000D01*
X220124629Y-91649999D01*
X220197542Y-91635496D01*
X220273277Y-91584892D01*
X220310059Y-91577576D01*
X220341242Y-91598411D01*
X220349500Y-91625634D01*
X220349500Y-94874365D01*
X220335148Y-94909013D01*
X220300500Y-94923365D01*
X220273277Y-94915107D01*
X220197542Y-94864503D01*
X220124629Y-94850000D01*
X220100000Y-94850000D01*
X220100000Y-95375000D01*
X220346373Y-95375000D01*
X220381021Y-95389352D01*
X220388808Y-95399500D01*
X220419530Y-95452712D01*
X220585148Y-95618330D01*
X220599500Y-95652978D01*
X220599500Y-96669748D01*
X220611133Y-96728231D01*
X220628882Y-96754795D01*
X220655447Y-96794552D01*
X220682012Y-96812301D01*
X220721769Y-96838867D01*
X220780252Y-96850500D01*
X220825500Y-96850500D01*
X220860148Y-96864852D01*
X220874500Y-96899500D01*
X220874500Y-96968101D01*
X220860148Y-97002749D01*
X218617749Y-99245148D01*
X218583101Y-99259500D01*
X214449500Y-99259500D01*
X214414852Y-99245148D01*
X214400500Y-99210500D01*
X214400500Y-98990255D01*
X214400500Y-98990252D01*
X214388867Y-98931769D01*
X214362301Y-98892012D01*
X214344552Y-98865447D01*
X214304795Y-98838882D01*
X214278231Y-98821133D01*
X214219748Y-98809500D01*
X211780252Y-98809500D01*
X211721769Y-98821133D01*
X211655447Y-98865447D01*
X211611133Y-98931769D01*
X211599500Y-98990252D01*
X208146851Y-98990252D01*
X210686851Y-96450252D01*
X211599500Y-96450252D01*
X211599500Y-97889748D01*
X211611133Y-97948231D01*
X211628882Y-97974795D01*
X211655447Y-98014552D01*
X211682012Y-98032301D01*
X211721769Y-98058867D01*
X211780252Y-98070500D01*
X211780255Y-98070500D01*
X214219745Y-98070500D01*
X214219748Y-98070500D01*
X214278231Y-98058867D01*
X214344552Y-98014552D01*
X214388867Y-97948231D01*
X214400500Y-97889748D01*
X214400500Y-97719500D01*
X214414852Y-97684852D01*
X214449500Y-97670500D01*
X215089311Y-97670500D01*
X215119430Y-97662428D01*
X215179673Y-97646286D01*
X215203887Y-97639799D01*
X215306614Y-97580489D01*
X216212474Y-96674629D01*
X218850000Y-96674629D01*
X218864503Y-96747542D01*
X218919759Y-96830240D01*
X219002457Y-96885496D01*
X219075370Y-96899999D01*
X219075376Y-96900000D01*
X219100000Y-96900000D01*
X220100000Y-96900000D01*
X220124624Y-96900000D01*
X220124629Y-96899999D01*
X220197542Y-96885496D01*
X220280240Y-96830240D01*
X220335496Y-96747542D01*
X220349999Y-96674629D01*
X220350000Y-96674624D01*
X220350000Y-96375000D01*
X220100000Y-96375000D01*
X220100000Y-96900000D01*
X219100000Y-96900000D01*
X219100000Y-96375000D01*
X218850000Y-96375000D01*
X218850000Y-96674629D01*
X216212474Y-96674629D01*
X217811733Y-95075370D01*
X218850000Y-95075370D01*
X218850000Y-95375000D01*
X219100000Y-95375000D01*
X219100000Y-94850000D01*
X219075370Y-94850000D01*
X219002457Y-94864503D01*
X218919759Y-94919759D01*
X218864503Y-95002457D01*
X218850000Y-95075370D01*
X217811733Y-95075370D01*
X218060489Y-94826614D01*
X218119799Y-94723887D01*
X218142091Y-94640691D01*
X218150500Y-94609309D01*
X218150500Y-93181001D01*
X218374500Y-93181001D01*
X218374500Y-93318998D01*
X218401417Y-93454318D01*
X218401420Y-93454328D01*
X218454225Y-93581811D01*
X218485137Y-93628074D01*
X218530883Y-93696539D01*
X218628460Y-93794116D01*
X218674102Y-93824613D01*
X218743189Y-93870775D01*
X218870672Y-93923580D01*
X218870678Y-93923581D01*
X218870681Y-93923582D01*
X219006001Y-93950499D01*
X219006007Y-93950500D01*
X219143993Y-93950500D01*
X219279328Y-93923580D01*
X219406811Y-93870775D01*
X219521542Y-93794114D01*
X219619114Y-93696542D01*
X219695775Y-93581811D01*
X219748580Y-93454328D01*
X219775500Y-93318993D01*
X219775500Y-93181007D01*
X219761238Y-93109309D01*
X219748582Y-93045681D01*
X219748579Y-93045670D01*
X219725727Y-92990500D01*
X219695775Y-92918189D01*
X219623317Y-92809748D01*
X219619116Y-92803460D01*
X219521539Y-92705883D01*
X219453074Y-92660137D01*
X219406811Y-92629225D01*
X219406808Y-92629223D01*
X219406807Y-92629223D01*
X219279329Y-92576420D01*
X219279318Y-92576417D01*
X219143998Y-92549500D01*
X219143993Y-92549500D01*
X219006007Y-92549500D01*
X219006001Y-92549500D01*
X218870681Y-92576417D01*
X218870670Y-92576420D01*
X218743192Y-92629223D01*
X218628460Y-92705883D01*
X218530883Y-92803460D01*
X218454223Y-92918192D01*
X218401420Y-93045670D01*
X218401417Y-93045681D01*
X218374500Y-93181001D01*
X218150500Y-93181001D01*
X218150500Y-91424629D01*
X218850000Y-91424629D01*
X218864503Y-91497542D01*
X218919759Y-91580240D01*
X219002457Y-91635496D01*
X219075370Y-91649999D01*
X219075376Y-91650000D01*
X219100000Y-91650000D01*
X219100000Y-91125000D01*
X218850000Y-91125000D01*
X218850000Y-91424629D01*
X218150500Y-91424629D01*
X218150500Y-89825370D01*
X218850000Y-89825370D01*
X218850000Y-90125000D01*
X219100000Y-90125000D01*
X220100000Y-90125000D01*
X220350000Y-90125000D01*
X220350000Y-89825376D01*
X220349999Y-89825370D01*
X220335496Y-89752457D01*
X220280240Y-89669759D01*
X220197542Y-89614503D01*
X220124629Y-89600000D01*
X220100000Y-89600000D01*
X220100000Y-90125000D01*
X219100000Y-90125000D01*
X219100000Y-89600000D01*
X219075370Y-89600000D01*
X219002457Y-89614503D01*
X218919759Y-89669759D01*
X218864503Y-89752457D01*
X218850000Y-89825370D01*
X218150500Y-89825370D01*
X218150500Y-85506899D01*
X218164852Y-85472251D01*
X221685488Y-81951615D01*
X221685489Y-81951614D01*
X221744799Y-81848887D01*
X221751286Y-81824673D01*
X221775500Y-81734309D01*
X221775500Y-79899268D01*
X221789852Y-79864620D01*
X221817502Y-79851548D01*
X221817387Y-79850969D01*
X221819700Y-79850508D01*
X221819715Y-79850502D01*
X221819735Y-79850500D01*
X221819748Y-79850500D01*
X221878231Y-79838867D01*
X221944552Y-79794552D01*
X221988867Y-79728231D01*
X222000500Y-79669748D01*
X222000500Y-78080252D01*
X221988867Y-78021769D01*
X221962301Y-77982012D01*
X221944552Y-77955447D01*
X221896537Y-77923365D01*
X221878231Y-77911133D01*
X221819748Y-77899500D01*
X221819745Y-77899500D01*
X221099500Y-77899500D01*
X221064852Y-77885148D01*
X221050500Y-77850500D01*
X221050500Y-76444474D01*
X221064852Y-76409826D01*
X221099500Y-76395474D01*
X221134148Y-76409826D01*
X221147558Y-76434913D01*
X221151420Y-76454328D01*
X221204225Y-76581811D01*
X221235137Y-76628074D01*
X221280883Y-76696539D01*
X221378460Y-76794116D01*
X221424102Y-76824613D01*
X221493189Y-76870775D01*
X221620672Y-76923580D01*
X221620678Y-76923581D01*
X221620681Y-76923582D01*
X221756001Y-76950499D01*
X221756007Y-76950500D01*
X221893993Y-76950500D01*
X222029328Y-76923580D01*
X222156811Y-76870775D01*
X222271542Y-76794114D01*
X222369114Y-76696542D01*
X222445775Y-76581811D01*
X222498580Y-76454328D01*
X222525500Y-76318993D01*
X222525500Y-76181007D01*
X222525499Y-76181001D01*
X222498582Y-76045681D01*
X222498579Y-76045670D01*
X222445776Y-75918192D01*
X222445775Y-75918189D01*
X222399613Y-75849102D01*
X222369116Y-75803460D01*
X222271539Y-75705883D01*
X222203074Y-75660137D01*
X222156811Y-75629225D01*
X222156808Y-75629223D01*
X222156807Y-75629223D01*
X222029329Y-75576420D01*
X222029318Y-75576417D01*
X221893998Y-75549500D01*
X221893993Y-75549500D01*
X221756007Y-75549500D01*
X221756001Y-75549500D01*
X221620681Y-75576417D01*
X221620670Y-75576420D01*
X221493192Y-75629223D01*
X221378460Y-75705883D01*
X221280883Y-75803460D01*
X221204223Y-75918192D01*
X221151420Y-76045670D01*
X221151418Y-76045679D01*
X221147558Y-76065085D01*
X221126723Y-76096267D01*
X221089940Y-76103583D01*
X221058758Y-76082748D01*
X221050500Y-76055525D01*
X221050500Y-74649500D01*
X221064852Y-74614852D01*
X221099500Y-74600500D01*
X221819745Y-74600500D01*
X221819748Y-74600500D01*
X221878231Y-74588867D01*
X221944552Y-74544552D01*
X221988867Y-74478231D01*
X222000500Y-74419748D01*
X222000500Y-72830252D01*
X221988867Y-72771769D01*
X221955780Y-72722251D01*
X221944552Y-72705447D01*
X221904795Y-72678882D01*
X221878231Y-72661133D01*
X221819748Y-72649500D01*
X220780252Y-72649500D01*
X220721769Y-72661133D01*
X220655447Y-72705447D01*
X220624037Y-72752457D01*
X220611133Y-72771769D01*
X220599500Y-72830252D01*
X220599500Y-72830255D01*
X220599500Y-73822022D01*
X220585148Y-73856670D01*
X220419532Y-74022285D01*
X220419525Y-74022294D01*
X220374954Y-74099493D01*
X220374955Y-74099494D01*
X220374376Y-74100497D01*
X220344624Y-74123330D01*
X220331939Y-74125000D01*
X220100000Y-74125000D01*
X220100000Y-74650000D01*
X220124624Y-74650000D01*
X220124629Y-74649999D01*
X220197542Y-74635496D01*
X220273277Y-74584892D01*
X220310059Y-74577576D01*
X220341242Y-74598411D01*
X220349500Y-74625634D01*
X220349500Y-77874365D01*
X220335148Y-77909013D01*
X220300500Y-77923365D01*
X220273277Y-77915107D01*
X220197542Y-77864503D01*
X220124629Y-77850000D01*
X220100000Y-77850000D01*
X220100000Y-78375000D01*
X220346373Y-78375000D01*
X220381021Y-78389352D01*
X220388808Y-78399500D01*
X220419530Y-78452712D01*
X220585148Y-78618330D01*
X220599500Y-78652978D01*
X220599500Y-79669748D01*
X220611133Y-79728231D01*
X220628882Y-79754795D01*
X220655447Y-79794552D01*
X220682012Y-79812301D01*
X220721769Y-79838867D01*
X220780252Y-79850500D01*
X220825500Y-79850500D01*
X220860148Y-79864852D01*
X220874500Y-79899500D01*
X220874500Y-81468101D01*
X220860148Y-81502749D01*
X217339512Y-85023385D01*
X217339511Y-85023385D01*
X217280201Y-85126111D01*
X217278532Y-85132343D01*
X217278531Y-85132342D01*
X217278531Y-85132346D01*
X217249500Y-85240688D01*
X217249500Y-94343101D01*
X217235148Y-94377749D01*
X214857749Y-96755148D01*
X214823101Y-96769500D01*
X214449500Y-96769500D01*
X214414852Y-96755148D01*
X214400500Y-96720500D01*
X214400500Y-96450255D01*
X214400500Y-96450252D01*
X214388867Y-96391769D01*
X214362301Y-96352012D01*
X214344552Y-96325447D01*
X214304795Y-96298882D01*
X214278231Y-96281133D01*
X214219748Y-96269500D01*
X211780252Y-96269500D01*
X211721769Y-96281133D01*
X211655447Y-96325447D01*
X211611133Y-96391769D01*
X211599500Y-96450252D01*
X210686851Y-96450252D01*
X211060488Y-96076615D01*
X211060489Y-96076614D01*
X211119799Y-95973887D01*
X211126286Y-95949673D01*
X211150500Y-95859309D01*
X211150500Y-93910252D01*
X211599500Y-93910252D01*
X211599500Y-95349748D01*
X211611133Y-95408231D01*
X211628882Y-95434795D01*
X211655447Y-95474552D01*
X211682012Y-95492301D01*
X211721769Y-95518867D01*
X211780252Y-95530500D01*
X211780255Y-95530500D01*
X214219745Y-95530500D01*
X214219748Y-95530500D01*
X214278231Y-95518867D01*
X214344552Y-95474552D01*
X214388867Y-95408231D01*
X214400500Y-95349748D01*
X214400500Y-95129500D01*
X214414852Y-95094852D01*
X214449500Y-95080500D01*
X214929311Y-95080500D01*
X214959430Y-95072428D01*
X215019673Y-95056286D01*
X215043887Y-95049799D01*
X215146614Y-94990489D01*
X216810489Y-93326614D01*
X216869798Y-93223887D01*
X216869799Y-93223886D01*
X216881289Y-93181007D01*
X216900499Y-93109312D01*
X216900500Y-93109312D01*
X216900500Y-79674629D01*
X218850000Y-79674629D01*
X218864503Y-79747542D01*
X218919759Y-79830240D01*
X219002457Y-79885496D01*
X219075370Y-79899999D01*
X219075376Y-79900000D01*
X219100000Y-79900000D01*
X220100000Y-79900000D01*
X220124624Y-79900000D01*
X220124629Y-79899999D01*
X220197542Y-79885496D01*
X220280240Y-79830240D01*
X220335496Y-79747542D01*
X220349999Y-79674629D01*
X220350000Y-79674624D01*
X220350000Y-79375000D01*
X220100000Y-79375000D01*
X220100000Y-79900000D01*
X219100000Y-79900000D01*
X219100000Y-79375000D01*
X218850000Y-79375000D01*
X218850000Y-79674629D01*
X216900500Y-79674629D01*
X216900500Y-78075370D01*
X218850000Y-78075370D01*
X218850000Y-78375000D01*
X219100000Y-78375000D01*
X219100000Y-77850000D01*
X219075370Y-77850000D01*
X219002457Y-77864503D01*
X218919759Y-77919759D01*
X218864503Y-78002457D01*
X218850000Y-78075370D01*
X216900500Y-78075370D01*
X216900500Y-76181001D01*
X218374500Y-76181001D01*
X218374500Y-76318998D01*
X218401417Y-76454318D01*
X218401420Y-76454328D01*
X218454225Y-76581811D01*
X218485137Y-76628074D01*
X218530883Y-76696539D01*
X218628460Y-76794116D01*
X218674102Y-76824613D01*
X218743189Y-76870775D01*
X218870672Y-76923580D01*
X218870678Y-76923581D01*
X218870681Y-76923582D01*
X219006001Y-76950499D01*
X219006007Y-76950500D01*
X219143993Y-76950500D01*
X219279328Y-76923580D01*
X219406811Y-76870775D01*
X219521542Y-76794114D01*
X219619114Y-76696542D01*
X219695775Y-76581811D01*
X219748580Y-76454328D01*
X219775500Y-76318993D01*
X219775500Y-76181007D01*
X219775499Y-76181001D01*
X219748582Y-76045681D01*
X219748579Y-76045670D01*
X219695776Y-75918192D01*
X219695775Y-75918189D01*
X219649613Y-75849102D01*
X219619116Y-75803460D01*
X219521539Y-75705883D01*
X219453074Y-75660137D01*
X219406811Y-75629225D01*
X219406808Y-75629223D01*
X219406807Y-75629223D01*
X219279329Y-75576420D01*
X219279318Y-75576417D01*
X219143998Y-75549500D01*
X219143993Y-75549500D01*
X219006007Y-75549500D01*
X219006001Y-75549500D01*
X218870681Y-75576417D01*
X218870670Y-75576420D01*
X218743192Y-75629223D01*
X218628460Y-75705883D01*
X218530883Y-75803460D01*
X218454223Y-75918192D01*
X218401420Y-76045670D01*
X218401417Y-76045681D01*
X218374500Y-76181001D01*
X216900500Y-76181001D01*
X216900500Y-74424629D01*
X218850000Y-74424629D01*
X218864503Y-74497542D01*
X218919759Y-74580240D01*
X219002457Y-74635496D01*
X219075370Y-74649999D01*
X219075376Y-74650000D01*
X219100000Y-74650000D01*
X219100000Y-74125000D01*
X218850000Y-74125000D01*
X218850000Y-74424629D01*
X216900500Y-74424629D01*
X216900500Y-72956899D01*
X216914852Y-72922251D01*
X217011733Y-72825370D01*
X218850000Y-72825370D01*
X218850000Y-73125000D01*
X219100000Y-73125000D01*
X220100000Y-73125000D01*
X220350000Y-73125000D01*
X220350000Y-72825376D01*
X220349999Y-72825370D01*
X220335496Y-72752457D01*
X220280240Y-72669759D01*
X220197542Y-72614503D01*
X220124629Y-72600000D01*
X220100000Y-72600000D01*
X220100000Y-73125000D01*
X219100000Y-73125000D01*
X219100000Y-72600000D01*
X219075370Y-72600000D01*
X219002457Y-72614503D01*
X218919759Y-72669759D01*
X218864503Y-72752457D01*
X218850000Y-72825370D01*
X217011733Y-72825370D01*
X221685488Y-68151615D01*
X221685489Y-68151614D01*
X221744799Y-68048887D01*
X221763960Y-67977376D01*
X221775500Y-67934309D01*
X221775500Y-63899268D01*
X221789852Y-63864620D01*
X221817502Y-63851548D01*
X221817387Y-63850969D01*
X221819700Y-63850508D01*
X221819715Y-63850502D01*
X221819735Y-63850500D01*
X221819748Y-63850500D01*
X221878231Y-63838867D01*
X221944552Y-63794552D01*
X221988867Y-63728231D01*
X222000500Y-63669748D01*
X222000500Y-62080252D01*
X221988867Y-62021769D01*
X221962301Y-61982012D01*
X221944552Y-61955447D01*
X221896537Y-61923365D01*
X221878231Y-61911133D01*
X221819748Y-61899500D01*
X221819745Y-61899500D01*
X221099500Y-61899500D01*
X221064852Y-61885148D01*
X221050500Y-61850500D01*
X221050500Y-60444474D01*
X221064852Y-60409826D01*
X221099500Y-60395474D01*
X221134148Y-60409826D01*
X221147558Y-60434913D01*
X221149460Y-60444474D01*
X221151420Y-60454328D01*
X221151420Y-60454329D01*
X221204223Y-60581807D01*
X221204225Y-60581811D01*
X221235137Y-60628074D01*
X221280883Y-60696539D01*
X221378460Y-60794116D01*
X221424102Y-60824613D01*
X221493189Y-60870775D01*
X221620672Y-60923580D01*
X221620678Y-60923581D01*
X221620681Y-60923582D01*
X221756001Y-60950499D01*
X221756007Y-60950500D01*
X221893993Y-60950500D01*
X222029328Y-60923580D01*
X222156811Y-60870775D01*
X222271542Y-60794114D01*
X222369114Y-60696542D01*
X222445775Y-60581811D01*
X222498580Y-60454328D01*
X222525500Y-60318993D01*
X222525500Y-60181007D01*
X222514359Y-60124999D01*
X222498582Y-60045681D01*
X222498579Y-60045670D01*
X222445776Y-59918192D01*
X222445775Y-59918189D01*
X222399613Y-59849102D01*
X222369116Y-59803460D01*
X222271539Y-59705883D01*
X222203074Y-59660137D01*
X222156811Y-59629225D01*
X222156808Y-59629223D01*
X222156807Y-59629223D01*
X222029329Y-59576420D01*
X222029318Y-59576417D01*
X221893998Y-59549500D01*
X221893993Y-59549500D01*
X221756007Y-59549500D01*
X221756001Y-59549500D01*
X221620681Y-59576417D01*
X221620670Y-59576420D01*
X221493192Y-59629223D01*
X221378460Y-59705883D01*
X221280883Y-59803460D01*
X221204223Y-59918192D01*
X221151420Y-60045670D01*
X221151418Y-60045679D01*
X221147558Y-60065085D01*
X221126723Y-60096267D01*
X221089940Y-60103583D01*
X221058758Y-60082748D01*
X221050500Y-60055525D01*
X221050500Y-58649500D01*
X221064852Y-58614852D01*
X221099500Y-58600500D01*
X221819745Y-58600500D01*
X221819748Y-58600500D01*
X221878231Y-58588867D01*
X221944552Y-58544552D01*
X221988867Y-58478231D01*
X222000500Y-58419748D01*
X222000500Y-56830252D01*
X221988867Y-56771769D01*
X221944552Y-56705448D01*
X221917671Y-56687486D01*
X221917670Y-56687485D01*
X221897102Y-56673743D01*
X221878231Y-56661133D01*
X221819748Y-56649500D01*
X220780252Y-56649500D01*
X220721769Y-56661133D01*
X220655447Y-56705447D01*
X220611133Y-56771769D01*
X220599500Y-56830252D01*
X220599500Y-56830255D01*
X220599500Y-57922022D01*
X220585148Y-57956670D01*
X220418057Y-58123761D01*
X220383409Y-58138113D01*
X220351752Y-58125000D01*
X220100000Y-58125000D01*
X220100000Y-58650000D01*
X220124624Y-58650000D01*
X220124629Y-58649999D01*
X220197542Y-58635496D01*
X220273277Y-58584892D01*
X220310059Y-58577576D01*
X220341242Y-58598411D01*
X220349500Y-58625634D01*
X220349500Y-61874365D01*
X220335148Y-61909013D01*
X220300500Y-61923365D01*
X220273277Y-61915107D01*
X220197542Y-61864503D01*
X220124629Y-61850000D01*
X220100000Y-61850000D01*
X220100000Y-62375000D01*
X220309585Y-62375000D01*
X220321403Y-62379895D01*
X220334085Y-62381565D01*
X220338115Y-62386818D01*
X220344233Y-62389352D01*
X220356915Y-62411318D01*
X220368673Y-62455199D01*
X220368673Y-62455200D01*
X220373384Y-62472783D01*
X220373386Y-62472789D01*
X220419530Y-62552712D01*
X220585148Y-62718330D01*
X220599500Y-62752978D01*
X220599500Y-63669748D01*
X220611133Y-63728231D01*
X220628882Y-63754795D01*
X220655447Y-63794552D01*
X220682012Y-63812301D01*
X220721769Y-63838867D01*
X220780252Y-63850500D01*
X220825500Y-63850500D01*
X220860148Y-63864852D01*
X220874500Y-63899500D01*
X220874500Y-67668101D01*
X220860148Y-67702749D01*
X216089512Y-72473385D01*
X216089511Y-72473385D01*
X216030201Y-72576111D01*
X216028532Y-72582343D01*
X216028531Y-72582342D01*
X216028531Y-72582346D01*
X215999500Y-72690688D01*
X215999500Y-92843101D01*
X215985148Y-92877749D01*
X214697749Y-94165148D01*
X214663101Y-94179500D01*
X214449500Y-94179500D01*
X214414852Y-94165148D01*
X214400500Y-94130500D01*
X214400500Y-93910255D01*
X214400500Y-93910252D01*
X214388867Y-93851769D01*
X214350343Y-93794114D01*
X214344552Y-93785447D01*
X214304795Y-93758882D01*
X214278231Y-93741133D01*
X214219748Y-93729500D01*
X211780252Y-93729500D01*
X211721769Y-93741133D01*
X211655447Y-93785447D01*
X211611133Y-93851769D01*
X211599500Y-93910252D01*
X211150500Y-93910252D01*
X211150500Y-74756899D01*
X211164852Y-74722251D01*
X212762103Y-73125000D01*
X214560489Y-71326614D01*
X214594731Y-71267304D01*
X214619799Y-71223886D01*
X214650499Y-71109312D01*
X214650500Y-71109312D01*
X214650500Y-63940688D01*
X214623216Y-63838866D01*
X214619799Y-63826114D01*
X214560489Y-63723387D01*
X214476613Y-63639511D01*
X214373888Y-63580201D01*
X214371653Y-63579276D01*
X214355757Y-63568654D01*
X212176614Y-61389511D01*
X212073888Y-61330201D01*
X212073886Y-61330200D01*
X212049673Y-61323713D01*
X212019551Y-61315642D01*
X211959311Y-61299500D01*
X211959309Y-61299500D01*
X210156899Y-61299500D01*
X210122251Y-61285148D01*
X207436732Y-58599629D01*
X209775000Y-58599629D01*
X209789503Y-58672542D01*
X209844759Y-58755240D01*
X209927457Y-58810496D01*
X210000370Y-58824999D01*
X210000376Y-58825000D01*
X210300000Y-58825000D01*
X211300000Y-58825000D01*
X211599624Y-58825000D01*
X211599629Y-58824999D01*
X211672542Y-58810496D01*
X211755240Y-58755240D01*
X211810496Y-58672542D01*
X211824999Y-58599629D01*
X211825000Y-58599624D01*
X211825000Y-58575000D01*
X211300000Y-58575000D01*
X211300000Y-58825000D01*
X210300000Y-58825000D01*
X210300000Y-58575000D01*
X209775000Y-58575000D01*
X209775000Y-58599629D01*
X207436732Y-58599629D01*
X207368104Y-58531001D01*
X212724500Y-58531001D01*
X212724500Y-58668998D01*
X212751417Y-58804318D01*
X212751420Y-58804329D01*
X212804223Y-58931807D01*
X212804225Y-58931811D01*
X212824582Y-58962277D01*
X212880883Y-59046539D01*
X212978460Y-59144116D01*
X213024102Y-59174613D01*
X213093189Y-59220775D01*
X213220672Y-59273580D01*
X213220678Y-59273581D01*
X213220681Y-59273582D01*
X213356001Y-59300499D01*
X213356007Y-59300500D01*
X213493993Y-59300500D01*
X213629328Y-59273580D01*
X213756811Y-59220775D01*
X213871542Y-59144114D01*
X213969114Y-59046542D01*
X214045775Y-58931811D01*
X214098580Y-58804328D01*
X214125500Y-58668993D01*
X214125500Y-58599629D01*
X215025000Y-58599629D01*
X215039503Y-58672542D01*
X215094759Y-58755240D01*
X215177457Y-58810496D01*
X215250370Y-58824999D01*
X215250376Y-58825000D01*
X215550000Y-58825000D01*
X216550000Y-58825000D01*
X216849624Y-58825000D01*
X216849629Y-58824999D01*
X216922542Y-58810496D01*
X217005240Y-58755240D01*
X217060496Y-58672542D01*
X217074999Y-58599629D01*
X217075000Y-58599624D01*
X217075000Y-58575000D01*
X216550000Y-58575000D01*
X216550000Y-58825000D01*
X215550000Y-58825000D01*
X215550000Y-58575000D01*
X215025000Y-58575000D01*
X215025000Y-58599629D01*
X214125500Y-58599629D01*
X214125500Y-58531007D01*
X214123360Y-58520250D01*
X214098582Y-58395681D01*
X214098579Y-58395670D01*
X214092172Y-58380201D01*
X214045775Y-58268189D01*
X213999613Y-58199102D01*
X213969116Y-58153460D01*
X213871539Y-58055883D01*
X213803074Y-58010137D01*
X213756811Y-57979225D01*
X213756808Y-57979223D01*
X213756807Y-57979223D01*
X213629329Y-57926420D01*
X213629318Y-57926417D01*
X213493998Y-57899500D01*
X213493993Y-57899500D01*
X213356007Y-57899500D01*
X213356001Y-57899500D01*
X213220681Y-57926417D01*
X213220670Y-57926420D01*
X213093192Y-57979223D01*
X212978460Y-58055883D01*
X212880883Y-58153460D01*
X212804223Y-58268192D01*
X212751420Y-58395670D01*
X212751417Y-58395681D01*
X212724500Y-58531001D01*
X207368104Y-58531001D01*
X207276614Y-58439511D01*
X207173890Y-58380202D01*
X207173887Y-58380201D01*
X207135065Y-58369799D01*
X207123330Y-58366654D01*
X207086817Y-58356870D01*
X207057064Y-58334039D01*
X207050500Y-58309540D01*
X207050500Y-57736943D01*
X207050500Y-57736934D01*
X207047710Y-57707181D01*
X207003852Y-57581843D01*
X206995330Y-57570296D01*
X206980624Y-57550370D01*
X209775000Y-57550370D01*
X209775000Y-57575000D01*
X210300000Y-57575000D01*
X210300000Y-57325000D01*
X210000370Y-57325000D01*
X209927457Y-57339503D01*
X209844759Y-57394759D01*
X209789503Y-57477457D01*
X209775000Y-57550370D01*
X206980624Y-57550370D01*
X206924999Y-57475000D01*
X206818159Y-57396149D01*
X206818157Y-57396148D01*
X206766002Y-57377898D01*
X206692821Y-57352290D01*
X206692812Y-57352289D01*
X206663077Y-57349501D01*
X206663076Y-57349500D01*
X206663066Y-57349500D01*
X205836934Y-57349500D01*
X205836924Y-57349500D01*
X205836922Y-57349501D01*
X205807187Y-57352289D01*
X205807178Y-57352290D01*
X205681840Y-57396149D01*
X205575000Y-57475000D01*
X205496149Y-57581840D01*
X205452290Y-57707178D01*
X205452289Y-57707187D01*
X205449501Y-57736922D01*
X205449500Y-57736943D01*
X205449500Y-58493736D01*
X205440501Y-58520250D01*
X205441117Y-58520606D01*
X205380201Y-58626112D01*
X205380200Y-58626115D01*
X205349500Y-58740688D01*
X205349500Y-58859311D01*
X205380200Y-58973884D01*
X205380201Y-58973887D01*
X205441117Y-59079394D01*
X205440499Y-59079750D01*
X205449500Y-59106263D01*
X205449500Y-59863056D01*
X205449501Y-59863077D01*
X205452289Y-59892812D01*
X205452290Y-59892821D01*
X205461167Y-59918189D01*
X205496148Y-60018157D01*
X205496149Y-60018159D01*
X205496148Y-60018159D01*
X205575000Y-60124999D01*
X205650881Y-60181001D01*
X205681843Y-60203852D01*
X205807181Y-60247710D01*
X205836934Y-60250500D01*
X205836944Y-60250500D01*
X206663056Y-60250500D01*
X206663066Y-60250500D01*
X206692819Y-60247710D01*
X206818157Y-60203852D01*
X206924999Y-60124999D01*
X207003852Y-60018157D01*
X207047710Y-59892819D01*
X207050500Y-59863066D01*
X207050500Y-59605899D01*
X207064852Y-59571251D01*
X207099500Y-59556899D01*
X207134148Y-59571251D01*
X209673386Y-62110489D01*
X209776113Y-62169799D01*
X209800326Y-62176286D01*
X209845508Y-62188393D01*
X209890689Y-62200500D01*
X209890691Y-62200500D01*
X211693101Y-62200500D01*
X211727749Y-62214852D01*
X213735148Y-64222251D01*
X213749500Y-64256899D01*
X213749500Y-70843101D01*
X213735148Y-70877749D01*
X210339512Y-74273385D01*
X210339511Y-74273385D01*
X210280201Y-74376111D01*
X210278532Y-74382343D01*
X210278531Y-74382342D01*
X210278531Y-74382346D01*
X210249500Y-74490688D01*
X210249500Y-95593101D01*
X210235148Y-95627749D01*
X202069512Y-103793385D01*
X202069511Y-103793385D01*
X202010201Y-103896111D01*
X202008532Y-103902343D01*
X202008531Y-103902342D01*
X202008531Y-103902346D01*
X201979500Y-104010688D01*
X201979500Y-111000500D01*
X201965148Y-111035148D01*
X201930500Y-111049500D01*
X201610252Y-111049500D01*
X201551769Y-111061133D01*
X201485447Y-111105447D01*
X201454037Y-111152457D01*
X201441133Y-111171769D01*
X201429500Y-111230252D01*
X192032528Y-111230252D01*
X191976763Y-111120806D01*
X191976761Y-111120803D01*
X191976760Y-111120801D01*
X191865690Y-110967927D01*
X191865686Y-110967923D01*
X191865684Y-110967920D01*
X191732079Y-110834315D01*
X191732080Y-110834315D01*
X191628235Y-110758867D01*
X191579199Y-110723240D01*
X191579197Y-110723239D01*
X191579193Y-110723236D01*
X191410833Y-110637453D01*
X191279034Y-110594629D01*
X193610000Y-110594629D01*
X193624503Y-110667542D01*
X193679759Y-110750240D01*
X193762457Y-110805496D01*
X193835370Y-110819999D01*
X193835376Y-110820000D01*
X194560000Y-110820000D01*
X195560000Y-110820000D01*
X196284624Y-110820000D01*
X196284629Y-110819999D01*
X196357542Y-110805496D01*
X196440240Y-110750240D01*
X196495496Y-110667542D01*
X196509999Y-110594629D01*
X196510000Y-110594624D01*
X196510000Y-110370000D01*
X195560000Y-110370000D01*
X195560000Y-110820000D01*
X194560000Y-110820000D01*
X194560000Y-110370000D01*
X193610000Y-110370000D01*
X193610000Y-110594629D01*
X191279034Y-110594629D01*
X191231118Y-110579060D01*
X191231115Y-110579059D01*
X191087744Y-110556352D01*
X191044481Y-110549500D01*
X190855519Y-110549500D01*
X190820397Y-110555062D01*
X190668884Y-110579059D01*
X190668881Y-110579060D01*
X190489166Y-110637453D01*
X190320806Y-110723236D01*
X190167920Y-110834315D01*
X190034315Y-110967920D01*
X189923236Y-111120806D01*
X189837453Y-111289166D01*
X189779060Y-111468881D01*
X189779059Y-111468884D01*
X189759240Y-111594018D01*
X189750052Y-111652032D01*
X189750052Y-111652034D01*
X189750051Y-111652033D01*
X189749500Y-111655513D01*
X187750000Y-111655513D01*
X187750000Y-109145370D01*
X193610000Y-109145370D01*
X193610000Y-109370000D01*
X194560000Y-109370000D01*
X195560000Y-109370000D01*
X196510000Y-109370000D01*
X196510000Y-109145376D01*
X196509999Y-109145370D01*
X196495496Y-109072457D01*
X196440240Y-108989759D01*
X196357542Y-108934503D01*
X196284629Y-108920000D01*
X195560000Y-108920000D01*
X195560000Y-109370000D01*
X194560000Y-109370000D01*
X194560000Y-108920000D01*
X193835370Y-108920000D01*
X193762457Y-108934503D01*
X193679759Y-108989759D01*
X193624503Y-109072457D01*
X193610000Y-109145370D01*
X187750000Y-109145370D01*
X187750000Y-91490688D01*
X189999500Y-91490688D01*
X189999500Y-105359310D01*
X190023713Y-105449672D01*
X190023713Y-105449673D01*
X190030200Y-105473886D01*
X190030201Y-105473888D01*
X190084670Y-105568230D01*
X190089511Y-105576614D01*
X192203387Y-107690490D01*
X192203390Y-107690491D01*
X192203393Y-107690494D01*
X192306111Y-107749798D01*
X192306113Y-107749798D01*
X192306114Y-107749799D01*
X192334758Y-107757474D01*
X192420688Y-107780500D01*
X192420691Y-107780500D01*
X193610500Y-107780500D01*
X193645148Y-107794852D01*
X193659500Y-107829500D01*
X193659500Y-108049748D01*
X193671133Y-108108231D01*
X193688882Y-108134795D01*
X193715447Y-108174552D01*
X193742012Y-108192301D01*
X193781769Y-108218867D01*
X193840252Y-108230500D01*
X193840255Y-108230500D01*
X196279745Y-108230500D01*
X196279748Y-108230500D01*
X196338231Y-108218867D01*
X196404552Y-108174552D01*
X196448867Y-108108231D01*
X196460500Y-108049748D01*
X196460500Y-106610252D01*
X196448867Y-106551769D01*
X196422301Y-106512012D01*
X196404552Y-106485447D01*
X196364795Y-106458882D01*
X196338231Y-106441133D01*
X196279748Y-106429500D01*
X193840252Y-106429500D01*
X193781769Y-106441133D01*
X193715447Y-106485447D01*
X193671133Y-106551769D01*
X193659500Y-106610252D01*
X193659500Y-106610255D01*
X193659500Y-106830500D01*
X193645148Y-106865148D01*
X193610500Y-106879500D01*
X192686899Y-106879500D01*
X192652251Y-106865148D01*
X190914852Y-105127749D01*
X190900500Y-105093101D01*
X190900500Y-104070252D01*
X193659500Y-104070252D01*
X193659500Y-105509748D01*
X193671133Y-105568231D01*
X193688882Y-105594795D01*
X193715447Y-105634552D01*
X193736075Y-105648335D01*
X193781769Y-105678867D01*
X193840252Y-105690500D01*
X193840255Y-105690500D01*
X196279745Y-105690500D01*
X196279748Y-105690500D01*
X196338231Y-105678867D01*
X196404552Y-105634552D01*
X196448867Y-105568231D01*
X196460500Y-105509748D01*
X196460500Y-105349500D01*
X196474852Y-105314852D01*
X196509500Y-105300500D01*
X198459311Y-105300500D01*
X198489430Y-105292428D01*
X198549673Y-105276286D01*
X198573887Y-105269799D01*
X198676614Y-105210489D01*
X209760489Y-94126614D01*
X209819799Y-94023887D01*
X209826286Y-93999673D01*
X209850247Y-93910255D01*
X209850500Y-93909310D01*
X209850500Y-72756899D01*
X209864852Y-72722251D01*
X212050852Y-70536251D01*
X212085500Y-70521899D01*
X212120148Y-70536251D01*
X212134500Y-70570899D01*
X212134500Y-70589748D01*
X212146133Y-70648231D01*
X212161844Y-70671744D01*
X212190447Y-70714552D01*
X212199089Y-70720326D01*
X212256769Y-70758867D01*
X212315252Y-70770500D01*
X212315255Y-70770500D01*
X213354745Y-70770500D01*
X213354748Y-70770500D01*
X213413231Y-70758867D01*
X213479552Y-70714552D01*
X213523867Y-70648231D01*
X213535500Y-70589748D01*
X213535500Y-68040252D01*
X213523867Y-67981769D01*
X213497301Y-67942012D01*
X213479552Y-67915447D01*
X213439795Y-67888882D01*
X213413231Y-67871133D01*
X213354748Y-67859500D01*
X212315252Y-67859500D01*
X212256769Y-67871133D01*
X212190447Y-67915447D01*
X212155382Y-67967927D01*
X212146133Y-67981769D01*
X212134500Y-68040252D01*
X212134500Y-68040255D01*
X212134500Y-69158101D01*
X212120148Y-69192749D01*
X209039512Y-72273385D01*
X209039511Y-72273385D01*
X208980201Y-72376111D01*
X208978532Y-72382343D01*
X208978531Y-72382342D01*
X208978531Y-72382346D01*
X208949500Y-72490688D01*
X208949500Y-93643101D01*
X208935148Y-93677749D01*
X198227749Y-104385148D01*
X198193101Y-104399500D01*
X196509500Y-104399500D01*
X196474852Y-104385148D01*
X196460500Y-104350500D01*
X196460500Y-104070255D01*
X196460500Y-104070252D01*
X196448867Y-104011769D01*
X196422301Y-103972012D01*
X196404552Y-103945447D01*
X196364795Y-103918882D01*
X196338231Y-103901133D01*
X196279748Y-103889500D01*
X193840252Y-103889500D01*
X193781769Y-103901133D01*
X193715447Y-103945447D01*
X193671855Y-104010688D01*
X193671133Y-104011769D01*
X193659500Y-104070252D01*
X190900500Y-104070252D01*
X190900500Y-101530252D01*
X193659500Y-101530252D01*
X193659500Y-102969748D01*
X193671133Y-103028231D01*
X193688882Y-103054795D01*
X193715447Y-103094552D01*
X193740966Y-103111603D01*
X193781769Y-103138867D01*
X193840252Y-103150500D01*
X193840255Y-103150500D01*
X196279745Y-103150500D01*
X196279748Y-103150500D01*
X196338231Y-103138867D01*
X196404552Y-103094552D01*
X196448867Y-103028231D01*
X196460500Y-102969748D01*
X196460500Y-102749500D01*
X196474852Y-102714852D01*
X196509500Y-102700500D01*
X198309311Y-102700500D01*
X198339430Y-102692428D01*
X198399673Y-102676286D01*
X198423887Y-102669799D01*
X198526614Y-102610489D01*
X208310490Y-92826613D01*
X208369799Y-92723886D01*
X208379010Y-92689511D01*
X208400500Y-92609309D01*
X208400500Y-72156899D01*
X208414852Y-72122251D01*
X209494853Y-71042250D01*
X210655490Y-69881614D01*
X210714799Y-69778887D01*
X210734205Y-69706462D01*
X210745500Y-69664309D01*
X210745500Y-67509500D01*
X210759852Y-67474852D01*
X210794500Y-67460500D01*
X210814745Y-67460500D01*
X210814748Y-67460500D01*
X210873231Y-67448867D01*
X210939552Y-67404552D01*
X210983867Y-67338231D01*
X210995500Y-67279748D01*
X210995500Y-64730252D01*
X210983867Y-64671769D01*
X210954453Y-64627749D01*
X210939552Y-64605447D01*
X210899795Y-64578882D01*
X210873231Y-64561133D01*
X210814748Y-64549500D01*
X209775252Y-64549500D01*
X209716769Y-64561133D01*
X209650447Y-64605447D01*
X209619037Y-64652457D01*
X209606133Y-64671769D01*
X209594500Y-64730252D01*
X209594500Y-67279748D01*
X209606133Y-67338231D01*
X209623882Y-67364795D01*
X209650447Y-67404552D01*
X209677012Y-67422301D01*
X209716769Y-67448867D01*
X209775252Y-67460500D01*
X209795500Y-67460500D01*
X209830148Y-67474852D01*
X209844500Y-67509500D01*
X209844500Y-69398100D01*
X209830148Y-69432748D01*
X207589511Y-71673385D01*
X207530201Y-71776111D01*
X207528532Y-71782343D01*
X207528531Y-71782342D01*
X207528531Y-71782346D01*
X207499500Y-71890688D01*
X207499500Y-92343101D01*
X207485148Y-92377749D01*
X198077749Y-101785148D01*
X198043101Y-101799500D01*
X196509500Y-101799500D01*
X196474852Y-101785148D01*
X196460500Y-101750500D01*
X196460500Y-101530255D01*
X196460500Y-101530252D01*
X196448867Y-101471769D01*
X196422301Y-101432012D01*
X196404552Y-101405447D01*
X196357058Y-101373713D01*
X196338231Y-101361133D01*
X196279748Y-101349500D01*
X193840252Y-101349500D01*
X193781769Y-101361133D01*
X193715447Y-101405447D01*
X193671133Y-101471769D01*
X193659500Y-101530252D01*
X190900500Y-101530252D01*
X190900500Y-98990252D01*
X193659500Y-98990252D01*
X193659500Y-100429748D01*
X193671133Y-100488231D01*
X193688882Y-100514795D01*
X193715447Y-100554552D01*
X193742012Y-100572301D01*
X193781769Y-100598867D01*
X193840252Y-100610500D01*
X193840255Y-100610500D01*
X196279745Y-100610500D01*
X196279748Y-100610500D01*
X196338231Y-100598867D01*
X196404552Y-100554552D01*
X196448867Y-100488231D01*
X196460500Y-100429748D01*
X196460500Y-100259500D01*
X196474852Y-100224852D01*
X196509500Y-100210500D01*
X197649311Y-100210500D01*
X197679430Y-100202428D01*
X197739673Y-100186286D01*
X197763887Y-100179799D01*
X197866614Y-100120489D01*
X206560490Y-91426614D01*
X206619799Y-91323887D01*
X206633330Y-91273387D01*
X206650500Y-91209309D01*
X206650500Y-71076898D01*
X206664851Y-71042251D01*
X207021006Y-70686095D01*
X207055653Y-70671744D01*
X207090301Y-70686096D01*
X207096395Y-70693521D01*
X207110447Y-70714552D01*
X207119089Y-70720326D01*
X207176769Y-70758867D01*
X207235252Y-70770500D01*
X207235255Y-70770500D01*
X208274745Y-70770500D01*
X208274748Y-70770500D01*
X208333231Y-70758867D01*
X208399552Y-70714552D01*
X208443867Y-70648231D01*
X208455500Y-70589748D01*
X208455500Y-68040252D01*
X208443867Y-67981769D01*
X208417301Y-67942012D01*
X208399552Y-67915447D01*
X208359795Y-67888882D01*
X208333231Y-67871133D01*
X208274748Y-67859500D01*
X207235252Y-67859500D01*
X207176769Y-67871133D01*
X207110447Y-67915447D01*
X207075382Y-67967927D01*
X207066133Y-67981769D01*
X207054500Y-68040252D01*
X207054500Y-68040255D01*
X207054500Y-69358101D01*
X207040148Y-69392749D01*
X205839512Y-70593385D01*
X205839511Y-70593385D01*
X205780201Y-70696110D01*
X205780199Y-70696115D01*
X205773713Y-70720326D01*
X205749500Y-70810688D01*
X205749500Y-90943100D01*
X205735148Y-90977748D01*
X197417749Y-99295148D01*
X197383101Y-99309500D01*
X196509500Y-99309500D01*
X196474852Y-99295148D01*
X196460500Y-99260500D01*
X196460500Y-98990255D01*
X196460500Y-98990252D01*
X196448867Y-98931769D01*
X196422301Y-98892012D01*
X196404552Y-98865447D01*
X196364795Y-98838882D01*
X196338231Y-98821133D01*
X196279748Y-98809500D01*
X193840252Y-98809500D01*
X193781769Y-98821133D01*
X193715447Y-98865447D01*
X193671133Y-98931769D01*
X193659500Y-98990252D01*
X190900500Y-98990252D01*
X190900500Y-96450252D01*
X193659500Y-96450252D01*
X193659500Y-97889748D01*
X193671133Y-97948231D01*
X193688882Y-97974795D01*
X193715447Y-98014552D01*
X193742012Y-98032301D01*
X193781769Y-98058867D01*
X193840252Y-98070500D01*
X193840255Y-98070500D01*
X196279745Y-98070500D01*
X196279748Y-98070500D01*
X196338231Y-98058867D01*
X196404552Y-98014552D01*
X196448867Y-97948231D01*
X196460500Y-97889748D01*
X196460500Y-97719500D01*
X196474852Y-97684852D01*
X196509500Y-97670500D01*
X197189311Y-97670500D01*
X197219430Y-97662428D01*
X197279673Y-97646286D01*
X197303887Y-97639799D01*
X197406614Y-97580489D01*
X204810489Y-90176614D01*
X204869798Y-90073887D01*
X204869799Y-90073886D01*
X204872479Y-90063887D01*
X204900499Y-89959312D01*
X204900500Y-89959310D01*
X204900500Y-70356899D01*
X204914852Y-70322251D01*
X205560488Y-69676615D01*
X205560489Y-69676614D01*
X205619799Y-69573887D01*
X205631003Y-69532073D01*
X205650500Y-69459309D01*
X205650500Y-67509500D01*
X205664852Y-67474852D01*
X205699500Y-67460500D01*
X205734745Y-67460500D01*
X205734748Y-67460500D01*
X205793231Y-67448867D01*
X205859552Y-67404552D01*
X205903867Y-67338231D01*
X205915500Y-67279748D01*
X205915500Y-64730252D01*
X205903867Y-64671769D01*
X205874453Y-64627749D01*
X205859552Y-64605447D01*
X205819795Y-64578882D01*
X205793231Y-64561133D01*
X205734748Y-64549500D01*
X204695252Y-64549500D01*
X204636769Y-64561133D01*
X204570447Y-64605447D01*
X204539037Y-64652457D01*
X204526133Y-64671769D01*
X204514500Y-64730252D01*
X204514500Y-67279748D01*
X204526133Y-67338231D01*
X204543882Y-67364795D01*
X204570447Y-67404552D01*
X204597012Y-67422301D01*
X204636769Y-67448867D01*
X204695252Y-67460500D01*
X204700500Y-67460500D01*
X204735148Y-67474852D01*
X204749500Y-67509500D01*
X204749500Y-69193101D01*
X204735148Y-69227749D01*
X204089512Y-69873385D01*
X204089511Y-69873385D01*
X204030201Y-69976111D01*
X204028532Y-69982343D01*
X204028531Y-69982342D01*
X204028531Y-69982346D01*
X203999500Y-70090688D01*
X203999500Y-89693101D01*
X203985148Y-89727749D01*
X196957749Y-96755148D01*
X196923101Y-96769500D01*
X196509500Y-96769500D01*
X196474852Y-96755148D01*
X196460500Y-96720500D01*
X196460500Y-96450255D01*
X196460500Y-96450252D01*
X196448867Y-96391769D01*
X196422301Y-96352012D01*
X196404552Y-96325447D01*
X196364795Y-96298882D01*
X196338231Y-96281133D01*
X196279748Y-96269500D01*
X193840252Y-96269500D01*
X193781769Y-96281133D01*
X193715447Y-96325447D01*
X193671133Y-96391769D01*
X193659500Y-96450252D01*
X190900500Y-96450252D01*
X190900500Y-93910252D01*
X193659500Y-93910252D01*
X193659500Y-95349748D01*
X193671133Y-95408231D01*
X193688882Y-95434795D01*
X193715447Y-95474552D01*
X193742012Y-95492301D01*
X193781769Y-95518867D01*
X193840252Y-95530500D01*
X193840255Y-95530500D01*
X196279745Y-95530500D01*
X196279748Y-95530500D01*
X196338231Y-95518867D01*
X196404552Y-95474552D01*
X196448867Y-95408231D01*
X196460500Y-95349748D01*
X196460500Y-95199500D01*
X196474852Y-95164852D01*
X196509500Y-95150500D01*
X196809311Y-95150500D01*
X196839430Y-95142428D01*
X196899673Y-95126286D01*
X196923887Y-95119799D01*
X197026614Y-95060489D01*
X203035489Y-89051614D01*
X203094798Y-88948887D01*
X203094799Y-88948886D01*
X203125499Y-88834312D01*
X203125500Y-88834312D01*
X203125500Y-70819500D01*
X203139852Y-70784852D01*
X203174500Y-70770500D01*
X203194745Y-70770500D01*
X203194748Y-70770500D01*
X203253231Y-70758867D01*
X203319552Y-70714552D01*
X203363867Y-70648231D01*
X203375500Y-70589748D01*
X203375500Y-68040252D01*
X203363867Y-67981769D01*
X203337301Y-67942012D01*
X203319552Y-67915447D01*
X203279795Y-67888882D01*
X203253231Y-67871133D01*
X203194748Y-67859500D01*
X202155252Y-67859500D01*
X202096769Y-67871133D01*
X202030447Y-67915447D01*
X201995382Y-67967927D01*
X201986133Y-67981769D01*
X201974500Y-68040252D01*
X201974500Y-70589748D01*
X201986133Y-70648231D01*
X202001844Y-70671744D01*
X202030447Y-70714552D01*
X202039089Y-70720326D01*
X202096769Y-70758867D01*
X202155252Y-70770500D01*
X202175500Y-70770500D01*
X202210148Y-70784852D01*
X202224500Y-70819500D01*
X202224500Y-88568101D01*
X202210148Y-88602749D01*
X196577749Y-94235148D01*
X196543101Y-94249500D01*
X196509500Y-94249500D01*
X196474852Y-94235148D01*
X196460500Y-94200500D01*
X196460500Y-93910255D01*
X196460500Y-93910252D01*
X196448867Y-93851769D01*
X196410343Y-93794114D01*
X196404552Y-93785447D01*
X196364795Y-93758882D01*
X196338231Y-93741133D01*
X196279748Y-93729500D01*
X193840252Y-93729500D01*
X193781769Y-93741133D01*
X193715447Y-93785447D01*
X193671133Y-93851769D01*
X193659500Y-93910252D01*
X190900500Y-93910252D01*
X190900500Y-91756899D01*
X190914852Y-91722251D01*
X191266851Y-91370252D01*
X193659500Y-91370252D01*
X193659500Y-92809748D01*
X193671133Y-92868231D01*
X193677493Y-92877749D01*
X193715447Y-92934552D01*
X193742012Y-92952301D01*
X193781769Y-92978867D01*
X193840252Y-92990500D01*
X193840255Y-92990500D01*
X196279745Y-92990500D01*
X196279748Y-92990500D01*
X196338231Y-92978867D01*
X196404552Y-92934552D01*
X196448867Y-92868231D01*
X196460500Y-92809748D01*
X196460500Y-92551591D01*
X196474852Y-92516943D01*
X196484997Y-92509157D01*
X196586614Y-92450489D01*
X200495489Y-88541614D01*
X200554799Y-88438887D01*
X200577222Y-88355202D01*
X200585500Y-88324309D01*
X200585500Y-67509500D01*
X200599852Y-67474852D01*
X200634500Y-67460500D01*
X200654745Y-67460500D01*
X200654748Y-67460500D01*
X200713231Y-67448867D01*
X200779552Y-67404552D01*
X200823867Y-67338231D01*
X200835500Y-67279748D01*
X200835500Y-64730252D01*
X200823867Y-64671769D01*
X200794453Y-64627749D01*
X200779552Y-64605447D01*
X200739795Y-64578882D01*
X200713231Y-64561133D01*
X200654748Y-64549500D01*
X199615252Y-64549500D01*
X199556769Y-64561133D01*
X199490447Y-64605447D01*
X199459037Y-64652457D01*
X199446133Y-64671769D01*
X199434500Y-64730252D01*
X199434500Y-67279748D01*
X199446133Y-67338231D01*
X199463882Y-67364795D01*
X199490447Y-67404552D01*
X199517012Y-67422301D01*
X199556769Y-67448867D01*
X199615252Y-67460500D01*
X199635500Y-67460500D01*
X199670148Y-67474852D01*
X199684500Y-67509500D01*
X199684500Y-88058100D01*
X199670148Y-88092748D01*
X196491991Y-91270904D01*
X196457343Y-91285256D01*
X196422695Y-91270904D01*
X196416602Y-91263480D01*
X196404553Y-91245448D01*
X196371391Y-91223290D01*
X196338231Y-91201133D01*
X196279748Y-91189500D01*
X193840252Y-91189500D01*
X193781769Y-91201133D01*
X193715447Y-91245447D01*
X193671133Y-91311769D01*
X193659500Y-91370252D01*
X191266851Y-91370252D01*
X197955488Y-84681615D01*
X197955489Y-84681614D01*
X198014799Y-84578887D01*
X198021286Y-84554673D01*
X198045500Y-84464309D01*
X198045500Y-70819500D01*
X198059852Y-70784852D01*
X198094500Y-70770500D01*
X198114745Y-70770500D01*
X198114748Y-70770500D01*
X198173231Y-70758867D01*
X198239552Y-70714552D01*
X198283867Y-70648231D01*
X198295500Y-70589748D01*
X198295500Y-68040252D01*
X198283867Y-67981769D01*
X198257301Y-67942012D01*
X198239552Y-67915447D01*
X198199795Y-67888882D01*
X198173231Y-67871133D01*
X198114748Y-67859500D01*
X197075252Y-67859500D01*
X197016769Y-67871133D01*
X196950447Y-67915447D01*
X196915382Y-67967927D01*
X196906133Y-67981769D01*
X196894500Y-68040252D01*
X196894500Y-70589748D01*
X196906133Y-70648231D01*
X196921844Y-70671744D01*
X196950447Y-70714552D01*
X196959089Y-70720326D01*
X197016769Y-70758867D01*
X197075252Y-70770500D01*
X197095500Y-70770500D01*
X197130148Y-70784852D01*
X197144500Y-70819500D01*
X197144500Y-84198101D01*
X197130148Y-84232749D01*
X190089512Y-91273385D01*
X190089511Y-91273385D01*
X190030201Y-91376111D01*
X190028532Y-91382343D01*
X190028531Y-91382342D01*
X190028531Y-91382346D01*
X189999500Y-91490688D01*
X187750000Y-91490688D01*
X187750000Y-68655513D01*
X189749500Y-68655513D01*
X189749500Y-68844480D01*
X189779059Y-69031115D01*
X189779060Y-69031118D01*
X189837453Y-69210833D01*
X189923236Y-69379193D01*
X189923239Y-69379197D01*
X189923240Y-69379199D01*
X190034310Y-69532073D01*
X190034312Y-69532075D01*
X190034315Y-69532079D01*
X190167920Y-69665684D01*
X190167923Y-69665686D01*
X190167927Y-69665690D01*
X190320801Y-69776760D01*
X190320803Y-69776761D01*
X190320806Y-69776763D01*
X190324975Y-69778887D01*
X190489168Y-69862547D01*
X190668882Y-69920940D01*
X190855519Y-69950500D01*
X190855520Y-69950500D01*
X191044480Y-69950500D01*
X191044481Y-69950500D01*
X191231118Y-69920940D01*
X191410832Y-69862547D01*
X191579199Y-69776760D01*
X191732073Y-69665690D01*
X191865690Y-69532073D01*
X191976760Y-69379199D01*
X192062547Y-69210832D01*
X192120940Y-69031118D01*
X192150500Y-68844481D01*
X192150500Y-68655519D01*
X192120940Y-68468882D01*
X192062547Y-68289168D01*
X192057284Y-68278839D01*
X191976763Y-68120806D01*
X191976761Y-68120803D01*
X191976760Y-68120801D01*
X191865690Y-67967927D01*
X191865686Y-67967923D01*
X191865684Y-67967920D01*
X191732079Y-67834315D01*
X191732080Y-67834315D01*
X191579193Y-67723236D01*
X191410833Y-67637453D01*
X191231118Y-67579060D01*
X191231115Y-67579059D01*
X191087744Y-67556352D01*
X191044481Y-67549500D01*
X190855519Y-67549500D01*
X190820397Y-67555062D01*
X190668884Y-67579059D01*
X190668881Y-67579060D01*
X190489166Y-67637453D01*
X190320806Y-67723236D01*
X190167920Y-67834315D01*
X190034315Y-67967920D01*
X189923236Y-68120806D01*
X189837453Y-68289166D01*
X189779060Y-68468881D01*
X189779059Y-68468884D01*
X189759240Y-68594018D01*
X189750052Y-68652032D01*
X189750052Y-68652034D01*
X189750051Y-68652033D01*
X189749500Y-68655513D01*
X187750000Y-68655513D01*
X187750000Y-67284629D01*
X194305000Y-67284629D01*
X194319503Y-67357542D01*
X194374759Y-67440240D01*
X194457457Y-67495496D01*
X194530370Y-67509999D01*
X194530376Y-67510000D01*
X194555000Y-67510000D01*
X195555000Y-67510000D01*
X195579624Y-67510000D01*
X195579629Y-67509999D01*
X195652542Y-67495496D01*
X195735240Y-67440240D01*
X195790496Y-67357542D01*
X195804999Y-67284629D01*
X195805000Y-67284624D01*
X195805000Y-66505000D01*
X195555000Y-66505000D01*
X195555000Y-67510000D01*
X194555000Y-67510000D01*
X194555000Y-66505000D01*
X194305000Y-66505000D01*
X194305000Y-67284629D01*
X187750000Y-67284629D01*
X187750000Y-64725370D01*
X194305000Y-64725370D01*
X194305000Y-65505000D01*
X194555000Y-65505000D01*
X195555000Y-65505000D01*
X195805000Y-65505000D01*
X195805000Y-64725376D01*
X195804999Y-64725370D01*
X195790496Y-64652457D01*
X195735240Y-64569759D01*
X195652542Y-64514503D01*
X195579629Y-64500000D01*
X195555000Y-64500000D01*
X195555000Y-65505000D01*
X194555000Y-65505000D01*
X194555000Y-64500000D01*
X194530370Y-64500000D01*
X194457457Y-64514503D01*
X194374759Y-64569759D01*
X194319503Y-64652457D01*
X194305000Y-64725370D01*
X187750000Y-64725370D01*
X187750000Y-58705634D01*
X190385045Y-58705634D01*
X190405286Y-58839923D01*
X190405288Y-58839930D01*
X190464207Y-58962274D01*
X190464207Y-58962275D01*
X190464209Y-58962277D01*
X190483710Y-58985815D01*
X190914007Y-59416112D01*
X190937545Y-59435613D01*
X190937546Y-59435613D01*
X190937547Y-59435614D01*
X191059891Y-59494533D01*
X191059897Y-59494534D01*
X191059900Y-59494536D01*
X191194187Y-59514777D01*
X191328475Y-59494536D01*
X191328478Y-59494534D01*
X191328483Y-59494533D01*
X191450826Y-59435615D01*
X191450826Y-59435614D01*
X191450830Y-59435613D01*
X191474367Y-59416112D01*
X191937357Y-58953122D01*
X191972005Y-58938770D01*
X192006653Y-58953122D01*
X194446878Y-61393347D01*
X194461230Y-61427995D01*
X194446878Y-61462643D01*
X193983889Y-61925631D01*
X193964384Y-61949173D01*
X193905466Y-62071516D01*
X193905464Y-62071523D01*
X193886024Y-62200500D01*
X193885223Y-62205813D01*
X193895343Y-62272956D01*
X193905464Y-62340101D01*
X193905466Y-62340108D01*
X193964385Y-62462452D01*
X193964385Y-62462453D01*
X193977387Y-62478147D01*
X193983888Y-62485993D01*
X194414185Y-62916290D01*
X194437723Y-62935791D01*
X194437724Y-62935791D01*
X194437725Y-62935792D01*
X194560069Y-62994711D01*
X194560075Y-62994712D01*
X194560078Y-62994714D01*
X194694365Y-63014955D01*
X194828653Y-62994714D01*
X194828656Y-62994712D01*
X194828661Y-62994711D01*
X194951004Y-62935793D01*
X194951004Y-62935792D01*
X194951008Y-62935791D01*
X194974545Y-62916290D01*
X196606924Y-61283911D01*
X196626425Y-61260374D01*
X196626427Y-61260370D01*
X196685345Y-61138027D01*
X196685346Y-61138022D01*
X196685348Y-61138019D01*
X196705589Y-61003731D01*
X196685348Y-60869444D01*
X196685346Y-60869441D01*
X196685345Y-60869435D01*
X196626426Y-60747091D01*
X196626426Y-60747090D01*
X196606922Y-60723549D01*
X196176628Y-60293255D01*
X196176627Y-60293254D01*
X196153089Y-60273753D01*
X196153087Y-60273752D01*
X196153086Y-60273751D01*
X196030742Y-60214832D01*
X196030735Y-60214830D01*
X195957888Y-60203850D01*
X195896447Y-60194589D01*
X195896446Y-60194589D01*
X195762157Y-60214830D01*
X195762150Y-60214832D01*
X195639807Y-60273750D01*
X195616265Y-60293255D01*
X195153277Y-60756244D01*
X195118629Y-60770596D01*
X195083981Y-60756244D01*
X193332124Y-59004387D01*
X195703758Y-59004387D01*
X195797739Y-59034924D01*
X195924446Y-59034924D01*
X196044952Y-58995768D01*
X196044957Y-58995766D01*
X196121670Y-58940029D01*
X196121675Y-58940025D01*
X196426776Y-58634923D01*
X196250000Y-58458147D01*
X195703758Y-59004387D01*
X193332124Y-59004387D01*
X192687174Y-58359437D01*
X195248959Y-58359437D01*
X195248959Y-58486143D01*
X195279494Y-58580123D01*
X195825735Y-58033882D01*
X196674264Y-58033882D01*
X196674264Y-58033883D01*
X196851040Y-58210659D01*
X197156142Y-57905556D01*
X197156148Y-57905550D01*
X197211886Y-57828834D01*
X197251041Y-57708328D01*
X197251041Y-57581622D01*
X197220504Y-57487641D01*
X196674264Y-58033882D01*
X195825735Y-58033882D01*
X195648959Y-57857106D01*
X195648958Y-57857106D01*
X195343857Y-58162209D01*
X195343851Y-58162215D01*
X195288113Y-58238931D01*
X195248959Y-58359437D01*
X192687174Y-58359437D01*
X192643756Y-58316019D01*
X192629404Y-58281371D01*
X192643756Y-58246723D01*
X192868086Y-58022393D01*
X193106746Y-57783733D01*
X193126247Y-57760196D01*
X193137445Y-57736943D01*
X193185167Y-57637849D01*
X193185168Y-57637844D01*
X193185170Y-57637841D01*
X193205411Y-57503553D01*
X193201924Y-57480420D01*
X194414577Y-57480420D01*
X194414577Y-57597397D01*
X194452559Y-57708035D01*
X194493717Y-57763231D01*
X194493720Y-57763234D01*
X194493723Y-57763238D01*
X194752878Y-58022393D01*
X194752882Y-58022396D01*
X194752886Y-58022400D01*
X194808082Y-58063558D01*
X194918720Y-58101540D01*
X194918721Y-58101540D01*
X195035696Y-58101540D01*
X195035697Y-58101540D01*
X195146334Y-58063558D01*
X195201531Y-58022400D01*
X195791090Y-57432841D01*
X196073223Y-57432841D01*
X196073223Y-57432842D01*
X196250000Y-57609619D01*
X196250001Y-57609619D01*
X196796241Y-57063377D01*
X196702261Y-57032842D01*
X196575554Y-57032842D01*
X196455047Y-57071997D01*
X196455042Y-57071999D01*
X196378327Y-57127737D01*
X196378320Y-57127743D01*
X196073223Y-57432841D01*
X195791090Y-57432841D01*
X196238517Y-56985414D01*
X196279675Y-56930217D01*
X196305620Y-56854639D01*
X196317315Y-56835903D01*
X196738368Y-56414852D01*
X196773016Y-56400500D01*
X197043101Y-56400500D01*
X197077749Y-56414852D01*
X198785148Y-58122251D01*
X198799500Y-58156899D01*
X198799500Y-60359310D01*
X198823713Y-60449672D01*
X198823713Y-60449673D01*
X198830200Y-60473886D01*
X198830201Y-60473888D01*
X198889511Y-60576614D01*
X199923386Y-61610489D01*
X200026113Y-61669799D01*
X200050326Y-61676286D01*
X200095508Y-61688393D01*
X200140689Y-61700500D01*
X200140691Y-61700500D01*
X202859311Y-61700500D01*
X202889430Y-61692428D01*
X202949673Y-61676286D01*
X202973887Y-61669799D01*
X203076614Y-61610489D01*
X204110489Y-60576614D01*
X204169799Y-60473887D01*
X204176286Y-60449673D01*
X204200500Y-60359309D01*
X204200500Y-60279789D01*
X204214852Y-60245141D01*
X204233315Y-60233539D01*
X204318157Y-60203852D01*
X204424999Y-60124999D01*
X204503852Y-60018157D01*
X204547710Y-59892819D01*
X204550500Y-59863066D01*
X204550500Y-57736934D01*
X204547710Y-57707181D01*
X204503852Y-57581843D01*
X204503850Y-57581840D01*
X204503851Y-57581840D01*
X204424999Y-57475000D01*
X204318159Y-57396149D01*
X204318157Y-57396148D01*
X204266002Y-57377898D01*
X204192821Y-57352290D01*
X204192812Y-57352289D01*
X204163077Y-57349501D01*
X204163076Y-57349500D01*
X204163066Y-57349500D01*
X203336934Y-57349500D01*
X203336924Y-57349500D01*
X203336922Y-57349501D01*
X203307187Y-57352289D01*
X203307178Y-57352290D01*
X203181840Y-57396149D01*
X203075000Y-57475000D01*
X202996149Y-57581840D01*
X202952290Y-57707178D01*
X202952289Y-57707187D01*
X202949501Y-57736922D01*
X202949500Y-57736943D01*
X202949500Y-59863056D01*
X202949501Y-59863077D01*
X202952289Y-59892812D01*
X202952290Y-59892821D01*
X202961167Y-59918189D01*
X202996148Y-60018157D01*
X202996149Y-60018159D01*
X202996148Y-60018159D01*
X203075000Y-60124999D01*
X203151680Y-60181591D01*
X203171036Y-60213713D01*
X203162008Y-60250113D01*
X203157231Y-60255664D01*
X202627749Y-60785148D01*
X202593101Y-60799500D01*
X200406899Y-60799500D01*
X200372251Y-60785148D01*
X199714852Y-60127749D01*
X199700500Y-60093101D01*
X199700500Y-57890688D01*
X199672564Y-57786433D01*
X199672563Y-57786432D01*
X199669799Y-57776114D01*
X199669799Y-57776113D01*
X199647184Y-57736943D01*
X200449500Y-57736943D01*
X200449500Y-59863056D01*
X200449501Y-59863077D01*
X200452289Y-59892812D01*
X200452290Y-59892821D01*
X200461167Y-59918189D01*
X200496148Y-60018157D01*
X200496149Y-60018159D01*
X200496148Y-60018159D01*
X200575000Y-60124999D01*
X200650881Y-60181001D01*
X200681843Y-60203852D01*
X200807181Y-60247710D01*
X200836934Y-60250500D01*
X200836944Y-60250500D01*
X201663056Y-60250500D01*
X201663066Y-60250500D01*
X201692819Y-60247710D01*
X201818157Y-60203852D01*
X201924999Y-60124999D01*
X202003852Y-60018157D01*
X202047710Y-59892819D01*
X202050500Y-59863066D01*
X202050500Y-57736934D01*
X202047710Y-57707181D01*
X202003852Y-57581843D01*
X202003850Y-57581840D01*
X202003851Y-57581840D01*
X201924999Y-57475000D01*
X201818159Y-57396149D01*
X201818157Y-57396148D01*
X201766002Y-57377898D01*
X201692821Y-57352290D01*
X201692812Y-57352289D01*
X201663077Y-57349501D01*
X201663076Y-57349500D01*
X201663066Y-57349500D01*
X200836934Y-57349500D01*
X200836924Y-57349500D01*
X200836922Y-57349501D01*
X200807187Y-57352289D01*
X200807178Y-57352290D01*
X200681840Y-57396149D01*
X200575000Y-57475000D01*
X200496149Y-57581840D01*
X200452290Y-57707178D01*
X200452289Y-57707187D01*
X200449501Y-57736922D01*
X200449500Y-57736943D01*
X199647184Y-57736943D01*
X199610489Y-57673386D01*
X197918104Y-55981001D01*
X201549500Y-55981001D01*
X201549500Y-56118998D01*
X201576417Y-56254318D01*
X201576420Y-56254329D01*
X201625543Y-56372923D01*
X201629225Y-56381811D01*
X201660137Y-56428074D01*
X201705883Y-56496539D01*
X201803460Y-56594116D01*
X201838682Y-56617650D01*
X201918189Y-56670775D01*
X202045672Y-56723580D01*
X202045678Y-56723581D01*
X202045681Y-56723582D01*
X202181001Y-56750499D01*
X202181007Y-56750500D01*
X202318993Y-56750500D01*
X202454328Y-56723580D01*
X202581811Y-56670775D01*
X202696542Y-56594114D01*
X202794114Y-56496542D01*
X202870775Y-56381811D01*
X202923580Y-56254328D01*
X202950500Y-56118993D01*
X202950500Y-55981007D01*
X202950499Y-55981001D01*
X204549500Y-55981001D01*
X204549500Y-56118998D01*
X204576417Y-56254318D01*
X204576420Y-56254329D01*
X204625543Y-56372923D01*
X204629225Y-56381811D01*
X204660137Y-56428074D01*
X204705883Y-56496539D01*
X204803460Y-56594116D01*
X204838682Y-56617650D01*
X204918189Y-56670775D01*
X205045672Y-56723580D01*
X205045678Y-56723581D01*
X205045681Y-56723582D01*
X205181001Y-56750499D01*
X205181007Y-56750500D01*
X205318993Y-56750500D01*
X205454328Y-56723580D01*
X205581811Y-56670775D01*
X205696542Y-56594114D01*
X205794114Y-56496542D01*
X205870775Y-56381811D01*
X205923580Y-56254328D01*
X205950500Y-56118993D01*
X205950500Y-55981007D01*
X205945367Y-55955200D01*
X205926909Y-55862404D01*
X205925486Y-55855252D01*
X209824500Y-55855252D01*
X209824500Y-56894748D01*
X209836133Y-56953231D01*
X209851423Y-56976114D01*
X209880447Y-57019552D01*
X209902689Y-57034413D01*
X209946769Y-57063867D01*
X210005252Y-57075500D01*
X210984522Y-57075500D01*
X211019170Y-57089852D01*
X211209787Y-57280469D01*
X211268879Y-57314586D01*
X211275498Y-57318407D01*
X211298329Y-57348157D01*
X211300000Y-57360843D01*
X211300000Y-57575000D01*
X211825000Y-57575000D01*
X211825000Y-57550376D01*
X211824999Y-57550370D01*
X211810496Y-57477457D01*
X211776597Y-57426723D01*
X211769281Y-57389940D01*
X211790116Y-57358758D01*
X211817339Y-57350500D01*
X215032661Y-57350500D01*
X215067309Y-57364852D01*
X215081661Y-57399500D01*
X215073403Y-57426723D01*
X215039503Y-57477457D01*
X215025000Y-57550370D01*
X215025000Y-57575000D01*
X215550000Y-57575000D01*
X216550000Y-57575000D01*
X217075000Y-57575000D01*
X217075000Y-57550376D01*
X217074999Y-57550370D01*
X217060496Y-57477457D01*
X217005240Y-57394759D01*
X216922542Y-57339503D01*
X216849629Y-57325000D01*
X216550000Y-57325000D01*
X216550000Y-57575000D01*
X215550000Y-57575000D01*
X215550000Y-57360843D01*
X215564352Y-57326195D01*
X215574498Y-57318409D01*
X215581121Y-57314586D01*
X215640212Y-57280470D01*
X215830830Y-57089852D01*
X215865478Y-57075500D01*
X216844745Y-57075500D01*
X216844748Y-57075500D01*
X216903231Y-57063867D01*
X216913873Y-57056755D01*
X216950652Y-57049437D01*
X216975745Y-57062848D01*
X217235148Y-57322251D01*
X217249500Y-57356899D01*
X217249500Y-64593101D01*
X217235148Y-64627749D01*
X214839512Y-67023385D01*
X214839511Y-67023385D01*
X214780201Y-67126111D01*
X214778532Y-67132343D01*
X214778531Y-67132342D01*
X214778531Y-67132346D01*
X214749500Y-67240688D01*
X214749500Y-89683100D01*
X214735148Y-89717748D01*
X213277749Y-91175148D01*
X213243101Y-91189500D01*
X211780252Y-91189500D01*
X211721769Y-91201133D01*
X211655447Y-91245447D01*
X211611133Y-91311769D01*
X211599500Y-91370252D01*
X211599500Y-92809748D01*
X211611133Y-92868231D01*
X211617493Y-92877749D01*
X211655447Y-92934552D01*
X211682012Y-92952301D01*
X211721769Y-92978867D01*
X211780252Y-92990500D01*
X211780255Y-92990500D01*
X214219745Y-92990500D01*
X214219748Y-92990500D01*
X214278231Y-92978867D01*
X214344552Y-92934552D01*
X214388867Y-92868231D01*
X214400500Y-92809748D01*
X214400500Y-91370252D01*
X214398368Y-91359532D01*
X214405684Y-91322749D01*
X214411773Y-91315329D01*
X215560490Y-90166614D01*
X215619799Y-90063887D01*
X215647820Y-89959309D01*
X215650500Y-89949309D01*
X215650500Y-68655513D01*
X215749500Y-68655513D01*
X215749500Y-68844480D01*
X215779059Y-69031115D01*
X215779060Y-69031118D01*
X215837453Y-69210833D01*
X215923236Y-69379193D01*
X215923239Y-69379197D01*
X215923240Y-69379199D01*
X216034310Y-69532073D01*
X216034312Y-69532075D01*
X216034315Y-69532079D01*
X216167920Y-69665684D01*
X216167923Y-69665686D01*
X216167927Y-69665690D01*
X216320801Y-69776760D01*
X216320803Y-69776761D01*
X216320806Y-69776763D01*
X216324975Y-69778887D01*
X216489168Y-69862547D01*
X216668882Y-69920940D01*
X216855519Y-69950500D01*
X216855520Y-69950500D01*
X217044480Y-69950500D01*
X217044481Y-69950500D01*
X217231118Y-69920940D01*
X217410832Y-69862547D01*
X217579199Y-69776760D01*
X217732073Y-69665690D01*
X217865690Y-69532073D01*
X217976760Y-69379199D01*
X218062547Y-69210832D01*
X218120940Y-69031118D01*
X218150500Y-68844481D01*
X218150500Y-68655519D01*
X218120940Y-68468882D01*
X218062547Y-68289168D01*
X218057284Y-68278839D01*
X217976763Y-68120806D01*
X217976761Y-68120803D01*
X217976760Y-68120801D01*
X217865690Y-67967927D01*
X217865686Y-67967923D01*
X217865684Y-67967920D01*
X217732079Y-67834315D01*
X217732080Y-67834315D01*
X217579193Y-67723236D01*
X217410833Y-67637453D01*
X217231118Y-67579060D01*
X217231115Y-67579059D01*
X217087744Y-67556352D01*
X217044481Y-67549500D01*
X216855519Y-67549500D01*
X216820397Y-67555062D01*
X216668884Y-67579059D01*
X216668881Y-67579060D01*
X216489166Y-67637453D01*
X216320806Y-67723236D01*
X216167920Y-67834315D01*
X216034315Y-67967920D01*
X215923236Y-68120806D01*
X215837453Y-68289166D01*
X215779060Y-68468881D01*
X215779059Y-68468884D01*
X215759240Y-68594018D01*
X215750052Y-68652032D01*
X215750052Y-68652034D01*
X215750051Y-68652033D01*
X215749500Y-68655513D01*
X215650500Y-68655513D01*
X215650500Y-67506899D01*
X215664852Y-67472251D01*
X218060488Y-65076615D01*
X218060489Y-65076614D01*
X218119799Y-64973887D01*
X218126286Y-64949673D01*
X218150500Y-64859309D01*
X218150500Y-63674629D01*
X218850000Y-63674629D01*
X218864503Y-63747542D01*
X218919759Y-63830240D01*
X219002457Y-63885496D01*
X219075370Y-63899999D01*
X219075376Y-63900000D01*
X219100000Y-63900000D01*
X220100000Y-63900000D01*
X220124624Y-63900000D01*
X220124629Y-63899999D01*
X220197542Y-63885496D01*
X220280240Y-63830240D01*
X220335496Y-63747542D01*
X220349999Y-63674629D01*
X220350000Y-63674624D01*
X220350000Y-63375000D01*
X220100000Y-63375000D01*
X220100000Y-63900000D01*
X219100000Y-63900000D01*
X219100000Y-63375000D01*
X218850000Y-63375000D01*
X218850000Y-63674629D01*
X218150500Y-63674629D01*
X218150500Y-62075370D01*
X218850000Y-62075370D01*
X218850000Y-62375000D01*
X219100000Y-62375000D01*
X219100000Y-61850000D01*
X219075370Y-61850000D01*
X219002457Y-61864503D01*
X218919759Y-61919759D01*
X218864503Y-62002457D01*
X218850000Y-62075370D01*
X218150500Y-62075370D01*
X218150500Y-60181001D01*
X218374500Y-60181001D01*
X218374500Y-60318998D01*
X218401417Y-60454318D01*
X218401420Y-60454329D01*
X218454223Y-60581807D01*
X218454225Y-60581811D01*
X218485137Y-60628074D01*
X218530883Y-60696539D01*
X218628460Y-60794116D01*
X218674102Y-60824613D01*
X218743189Y-60870775D01*
X218870672Y-60923580D01*
X218870678Y-60923581D01*
X218870681Y-60923582D01*
X219006001Y-60950499D01*
X219006007Y-60950500D01*
X219143993Y-60950500D01*
X219279328Y-60923580D01*
X219406811Y-60870775D01*
X219521542Y-60794114D01*
X219619114Y-60696542D01*
X219695775Y-60581811D01*
X219748580Y-60454328D01*
X219775500Y-60318993D01*
X219775500Y-60181007D01*
X219764359Y-60124999D01*
X219748582Y-60045681D01*
X219748579Y-60045670D01*
X219695776Y-59918192D01*
X219695775Y-59918189D01*
X219649613Y-59849102D01*
X219619116Y-59803460D01*
X219521539Y-59705883D01*
X219453074Y-59660137D01*
X219406811Y-59629225D01*
X219406808Y-59629223D01*
X219406807Y-59629223D01*
X219279329Y-59576420D01*
X219279318Y-59576417D01*
X219143998Y-59549500D01*
X219143993Y-59549500D01*
X219006007Y-59549500D01*
X219006001Y-59549500D01*
X218870681Y-59576417D01*
X218870670Y-59576420D01*
X218743192Y-59629223D01*
X218628460Y-59705883D01*
X218530883Y-59803460D01*
X218454223Y-59918192D01*
X218401420Y-60045670D01*
X218401417Y-60045681D01*
X218374500Y-60181001D01*
X218150500Y-60181001D01*
X218150500Y-58424629D01*
X218850000Y-58424629D01*
X218864503Y-58497542D01*
X218919759Y-58580240D01*
X219002457Y-58635496D01*
X219075370Y-58649999D01*
X219075376Y-58650000D01*
X219100000Y-58650000D01*
X219100000Y-58125000D01*
X218850000Y-58125000D01*
X218850000Y-58424629D01*
X218150500Y-58424629D01*
X218150500Y-57090691D01*
X218150500Y-57090688D01*
X218150499Y-57090687D01*
X218119800Y-56976117D01*
X218119799Y-56976115D01*
X218119799Y-56976114D01*
X218106948Y-56953856D01*
X218060490Y-56873387D01*
X218012473Y-56825370D01*
X218850000Y-56825370D01*
X218850000Y-57125000D01*
X219100000Y-57125000D01*
X220100000Y-57125000D01*
X220350000Y-57125000D01*
X220350000Y-56825376D01*
X220349999Y-56825370D01*
X220335496Y-56752457D01*
X220280240Y-56669759D01*
X220197542Y-56614503D01*
X220124629Y-56600000D01*
X220100000Y-56600000D01*
X220100000Y-57125000D01*
X219100000Y-57125000D01*
X219100000Y-56600000D01*
X219075370Y-56600000D01*
X219002457Y-56614503D01*
X218919759Y-56669759D01*
X218864503Y-56752457D01*
X218850000Y-56825370D01*
X218012473Y-56825370D01*
X217201614Y-56014511D01*
X217143574Y-55981001D01*
X217098888Y-55955201D01*
X217098886Y-55955200D01*
X217074673Y-55948713D01*
X217061815Y-55945267D01*
X217032064Y-55922436D01*
X217025500Y-55897938D01*
X217025500Y-55855255D01*
X217025500Y-55855252D01*
X217013867Y-55796769D01*
X216987301Y-55757012D01*
X216969552Y-55730447D01*
X216929795Y-55703882D01*
X216903231Y-55686133D01*
X216844748Y-55674500D01*
X215255252Y-55674500D01*
X215196769Y-55686133D01*
X215130447Y-55730447D01*
X215096669Y-55781001D01*
X215086133Y-55796769D01*
X215074500Y-55855252D01*
X215074500Y-55855255D01*
X215074500Y-56600500D01*
X215060148Y-56635148D01*
X215025500Y-56649500D01*
X211824500Y-56649500D01*
X211789852Y-56635148D01*
X211775500Y-56600500D01*
X211775500Y-55855255D01*
X211775500Y-55855252D01*
X211763867Y-55796769D01*
X211753331Y-55781001D01*
X212724500Y-55781001D01*
X212724500Y-55918998D01*
X212751417Y-56054318D01*
X212751420Y-56054328D01*
X212804225Y-56181811D01*
X212820932Y-56206815D01*
X212880883Y-56296539D01*
X212978460Y-56394116D01*
X213024102Y-56424613D01*
X213093189Y-56470775D01*
X213220672Y-56523580D01*
X213220678Y-56523581D01*
X213220681Y-56523582D01*
X213356001Y-56550499D01*
X213356007Y-56550500D01*
X213493993Y-56550500D01*
X213629328Y-56523580D01*
X213756811Y-56470775D01*
X213871542Y-56394114D01*
X213969114Y-56296542D01*
X214045775Y-56181811D01*
X214098580Y-56054328D01*
X214125500Y-55918993D01*
X214125500Y-55781007D01*
X214114543Y-55725921D01*
X214098582Y-55645681D01*
X214098579Y-55645670D01*
X214075317Y-55589511D01*
X214045775Y-55518189D01*
X213986330Y-55429223D01*
X213969116Y-55403460D01*
X213871539Y-55305883D01*
X213803074Y-55260137D01*
X213756811Y-55229225D01*
X213756808Y-55229223D01*
X213756807Y-55229223D01*
X213629329Y-55176420D01*
X213629318Y-55176417D01*
X213493998Y-55149500D01*
X213493993Y-55149500D01*
X213356007Y-55149500D01*
X213356001Y-55149500D01*
X213220681Y-55176417D01*
X213220670Y-55176420D01*
X213093192Y-55229223D01*
X212978460Y-55305883D01*
X212880883Y-55403460D01*
X212804223Y-55518192D01*
X212751420Y-55645670D01*
X212751417Y-55645681D01*
X212724500Y-55781001D01*
X211753331Y-55781001D01*
X211737301Y-55757012D01*
X211719552Y-55730447D01*
X211679795Y-55703882D01*
X211653231Y-55686133D01*
X211594748Y-55674500D01*
X210005252Y-55674500D01*
X209946769Y-55686133D01*
X209880447Y-55730447D01*
X209846669Y-55781001D01*
X209836133Y-55796769D01*
X209824500Y-55855252D01*
X205925486Y-55855252D01*
X205923582Y-55845679D01*
X205923579Y-55845670D01*
X205875852Y-55730447D01*
X205870775Y-55718189D01*
X205822319Y-55645670D01*
X205794116Y-55603460D01*
X205696539Y-55505883D01*
X205628074Y-55460137D01*
X205581811Y-55429225D01*
X205581808Y-55429223D01*
X205581807Y-55429223D01*
X205454329Y-55376420D01*
X205454318Y-55376417D01*
X205318998Y-55349500D01*
X205318993Y-55349500D01*
X205181007Y-55349500D01*
X205181001Y-55349500D01*
X205045681Y-55376417D01*
X205045670Y-55376420D01*
X204918192Y-55429223D01*
X204803460Y-55505883D01*
X204705883Y-55603460D01*
X204629223Y-55718192D01*
X204576420Y-55845670D01*
X204576417Y-55845681D01*
X204549500Y-55981001D01*
X202950499Y-55981001D01*
X202943391Y-55945268D01*
X202923582Y-55845681D01*
X202923579Y-55845670D01*
X202875852Y-55730447D01*
X202870775Y-55718189D01*
X202822319Y-55645670D01*
X202794116Y-55603460D01*
X202696539Y-55505883D01*
X202628074Y-55460137D01*
X202581811Y-55429225D01*
X202581808Y-55429223D01*
X202581807Y-55429223D01*
X202454329Y-55376420D01*
X202454318Y-55376417D01*
X202318998Y-55349500D01*
X202318993Y-55349500D01*
X202181007Y-55349500D01*
X202181001Y-55349500D01*
X202045681Y-55376417D01*
X202045670Y-55376420D01*
X201918192Y-55429223D01*
X201803460Y-55505883D01*
X201705883Y-55603460D01*
X201629223Y-55718192D01*
X201576420Y-55845670D01*
X201576417Y-55845681D01*
X201549500Y-55981001D01*
X197918104Y-55981001D01*
X197526614Y-55589511D01*
X197423888Y-55530201D01*
X197423886Y-55530200D01*
X197399673Y-55523713D01*
X197342771Y-55508466D01*
X197309311Y-55499500D01*
X197309309Y-55499500D01*
X196506808Y-55499500D01*
X196506805Y-55499500D01*
X196392235Y-55530199D01*
X196392229Y-55530202D01*
X196348813Y-55555268D01*
X196289502Y-55589511D01*
X196289501Y-55589512D01*
X195680214Y-56198798D01*
X195661477Y-56210495D01*
X195585899Y-56236442D01*
X195530709Y-56277594D01*
X195530699Y-56277603D01*
X194493720Y-57314582D01*
X194493719Y-57314584D01*
X194493717Y-57314586D01*
X194452559Y-57369783D01*
X194414577Y-57480420D01*
X193201924Y-57480420D01*
X193185170Y-57369266D01*
X193185167Y-57369261D01*
X193185167Y-57369257D01*
X193126248Y-57246913D01*
X193126248Y-57246912D01*
X193106744Y-57223371D01*
X192676450Y-56793077D01*
X192676449Y-56793076D01*
X192652911Y-56773575D01*
X192652909Y-56773574D01*
X192652908Y-56773573D01*
X192530564Y-56714654D01*
X192530557Y-56714652D01*
X192463412Y-56704531D01*
X192396269Y-56694411D01*
X192396268Y-56694411D01*
X192261979Y-56714652D01*
X192261972Y-56714654D01*
X192139629Y-56773572D01*
X192116087Y-56793077D01*
X190483711Y-58425453D01*
X190464206Y-58448995D01*
X190405288Y-58571338D01*
X190405286Y-58571345D01*
X190385045Y-58705634D01*
X187750000Y-58705634D01*
X187750000Y-57570296D01*
X187764352Y-57535648D01*
X190235648Y-55064352D01*
X190270296Y-55050000D01*
X220136550Y-55050000D01*
X220144738Y-55050689D01*
G37*
%TD.AperFunction*%
%TD*%
M02*
