%TF.GenerationSoftware,KiCad,Pcbnew,9.0.0*%
%TF.CreationDate,2025-09-24T13:29:07-07:00*%
%TF.ProjectId,grippy,67726970-7079-42e6-9b69-6361645f7063,rev?*%
%TF.SameCoordinates,Original*%
%TF.FileFunction,Copper,L1,Top*%
%TF.FilePolarity,Positive*%
%FSLAX46Y46*%
G04 Gerber Fmt 4.6, Leading zero omitted, Abs format (unit mm)*
G04 Created by KiCad (PCBNEW 9.0.0) date 2025-09-24 13:29:07*
%MOMM*%
%LPD*%
G01*
G04 APERTURE LIST*
G04 Aperture macros list*
%AMRoundRect*
0 Rectangle with rounded corners*
0 $1 Rounding radius*
0 $2 $3 $4 $5 $6 $7 $8 $9 X,Y pos of 4 corners*
0 Add a 4 corners polygon primitive as box body*
4,1,4,$2,$3,$4,$5,$6,$7,$8,$9,$2,$3,0*
0 Add four circle primitives for the rounded corners*
1,1,$1+$1,$2,$3*
1,1,$1+$1,$4,$5*
1,1,$1+$1,$6,$7*
1,1,$1+$1,$8,$9*
0 Add four rect primitives between the rounded corners*
20,1,$1+$1,$2,$3,$4,$5,0*
20,1,$1+$1,$4,$5,$6,$7,0*
20,1,$1+$1,$6,$7,$8,$9,0*
20,1,$1+$1,$8,$9,$2,$3,0*%
G04 Aperture macros list end*
%TA.AperFunction,SMDPad,CuDef*%
%ADD10R,1.400000X2.400000*%
%TD*%
%TA.AperFunction,SMDPad,CuDef*%
%ADD11R,2.000000X1.600000*%
%TD*%
%TA.AperFunction,SMDPad,CuDef*%
%ADD12RoundRect,0.150000X0.700000X-0.150000X0.700000X0.150000X-0.700000X0.150000X-0.700000X-0.150000X0*%
%TD*%
%TA.AperFunction,SMDPad,CuDef*%
%ADD13RoundRect,0.250000X1.100000X-0.250000X1.100000X0.250000X-1.100000X0.250000X-1.100000X-0.250000X0*%
%TD*%
%TA.AperFunction,SMDPad,CuDef*%
%ADD14R,1.550000X1.000000*%
%TD*%
%TA.AperFunction,SMDPad,CuDef*%
%ADD15RoundRect,0.240000X-1.010000X0.360000X-1.010000X-0.360000X1.010000X-0.360000X1.010000X0.360000X0*%
%TD*%
%TA.AperFunction,SMDPad,CuDef*%
%ADD16R,2.510000X1.000000*%
%TD*%
%TA.AperFunction,SMDPad,CuDef*%
%ADD17R,1.000000X1.550000*%
%TD*%
%TA.AperFunction,Conductor*%
%ADD18C,0.500000*%
%TD*%
%TA.AperFunction,Conductor*%
%ADD19C,0.300000*%
%TD*%
G04 APERTURE END LIST*
D10*
%TO.P,U1,3V3,3V3*%
%TO.N,VCC*%
X229280000Y-94390000D03*
%TO.P,U1,5V,5V*%
%TO.N,unconnected-(U1-Pad5V)*%
X234360000Y-94390000D03*
D11*
%TO.P,U1,B+,B+*%
%TO.N,/RAW*%
X234200000Y-87020000D03*
%TO.P,U1,B-,B-*%
%TO.N,GND*%
X234200000Y-83820000D03*
D10*
%TO.P,U1,GND,GND*%
X231820000Y-94390000D03*
%TO.P,U1,IO1,IO1*%
%TO.N,unconnected-(U1-PadIO1)*%
X229280000Y-76450000D03*
%TO.P,U1,IO2,IO2*%
%TO.N,/pinky*%
X226740000Y-76450000D03*
%TO.P,U1,IO3,IO3*%
%TO.N,unconnected-(U1-PadIO3)*%
X224200000Y-76450000D03*
%TO.P,U1,IO4,IO4*%
%TO.N,/ring*%
X221660000Y-76450000D03*
%TO.P,U1,IO5,IO5*%
%TO.N,/middle*%
X219120000Y-76450000D03*
%TO.P,U1,IO6,IO6*%
%TO.N,/index*%
X216580000Y-76450000D03*
%TO.P,U1,IO7,IO7*%
%TO.N,/thumb*%
X214040000Y-76450000D03*
%TO.P,U1,IO8,IO8*%
%TO.N,/SCL*%
X214040000Y-94390000D03*
%TO.P,U1,IO9,IO9*%
%TO.N,/SDA*%
X216580000Y-94390000D03*
%TO.P,U1,IO10,IO10*%
%TO.N,/RES*%
X219120000Y-94390000D03*
%TO.P,U1,IO11,IO11*%
%TO.N,/DC*%
X221660000Y-94390000D03*
%TO.P,U1,IO12,IO12*%
%TO.N,/CS*%
X224200000Y-94390000D03*
%TO.P,U1,IO13,IO13*%
%TO.N,/BLK*%
X226740000Y-94390000D03*
%TO.P,U1,RX,RX*%
%TO.N,unconnected-(U1-PadRX)*%
X231820000Y-76450000D03*
%TO.P,U1,TX,TX*%
%TO.N,unconnected-(U1-PadTX)*%
X234360000Y-76450000D03*
%TD*%
D12*
%TO.P,BAT1,1,Pin_1*%
%TO.N,/B+*%
X178800000Y-98500000D03*
%TO.P,BAT1,2,Pin_2*%
%TO.N,GND*%
X178800000Y-97250000D03*
D13*
%TO.P,BAT1,3,Pin_3*%
%TO.N,/mp*%
X182000000Y-100350000D03*
%TO.P,BAT1,4,Pin_4*%
X182000000Y-95400000D03*
%TD*%
D14*
%TO.P,SW3,1,A*%
%TO.N,/pinky*%
X228575000Y-68150000D03*
X233825000Y-68150000D03*
%TO.P,SW3,2,B*%
%TO.N,GND*%
X228575000Y-69850000D03*
X233825000Y-69850000D03*
%TD*%
%TO.P,SW0,1,A*%
%TO.N,/index*%
X179575000Y-68150000D03*
X184825000Y-68150000D03*
%TO.P,SW0,2,B*%
%TO.N,GND*%
X179575000Y-69850000D03*
X184825000Y-69850000D03*
%TD*%
D15*
%TO.P,SW5,1,A*%
%TO.N,/RAW*%
X180750000Y-85000000D03*
%TO.P,SW5,2,B*%
%TO.N,/B+*%
X180750000Y-87500000D03*
%TO.P,SW5,3,C*%
%TO.N,unconnected-(SW5A-C-Pad3)*%
X180750000Y-90000000D03*
%TD*%
D16*
%TO.P,J1,1,Pin_1*%
%TO.N,GND*%
X186615000Y-94395000D03*
%TO.P,J1,2,Pin_2*%
%TO.N,VCC*%
X189925000Y-91855000D03*
%TO.P,J1,3,Pin_3*%
%TO.N,/SCL*%
X186615000Y-89315000D03*
%TO.P,J1,4,Pin_4*%
%TO.N,/SDA*%
X189925000Y-86775000D03*
%TO.P,J1,5,Pin_5*%
%TO.N,/RES*%
X186615000Y-84235000D03*
%TO.P,J1,6,Pin_6*%
%TO.N,/DC*%
X189925000Y-81695000D03*
%TO.P,J1,7,Pin_7*%
%TO.N,/CS*%
X186615000Y-79155000D03*
%TO.P,J1,8,Pin_8*%
%TO.N,/BLK*%
X189925000Y-76615000D03*
%TD*%
D14*
%TO.P,SW2,1,A*%
%TO.N,/ring*%
X212575000Y-68150000D03*
X217825000Y-68150000D03*
%TO.P,SW2,2,B*%
%TO.N,GND*%
X212575000Y-69850000D03*
X217825000Y-69850000D03*
%TD*%
%TO.P,SW1,1,A*%
%TO.N,/middle*%
X195575000Y-68150000D03*
X200825000Y-68150000D03*
%TO.P,SW1,2,B*%
%TO.N,GND*%
X195575000Y-69850000D03*
X200825000Y-69850000D03*
%TD*%
D17*
%TO.P,SW4,1,A*%
%TO.N,/thumb*%
X178325000Y-79750000D03*
X178325000Y-74500000D03*
%TO.P,SW4,2,B*%
%TO.N,GND*%
X180025000Y-79750000D03*
X180025000Y-74500000D03*
%TD*%
D18*
%TO.N,/B+*%
X184250000Y-89500000D02*
X184250000Y-97000000D01*
X180750000Y-87500000D02*
X182250000Y-87500000D01*
X184250000Y-97000000D02*
X182750000Y-98500000D01*
X182250000Y-87500000D02*
X184250000Y-89500000D01*
X182750000Y-98500000D02*
X179500000Y-98500000D01*
%TO.N,/SCL*%
X214040000Y-93140000D02*
X214040000Y-94670000D01*
X210215000Y-89315000D02*
X214040000Y-93140000D01*
X186615000Y-89315000D02*
X210215000Y-89315000D01*
%TO.N,VCC*%
X213500000Y-99000000D02*
X227250000Y-99000000D01*
X227250000Y-99000000D02*
X229280000Y-96970000D01*
X206355000Y-91855000D02*
X213500000Y-99000000D01*
X189925000Y-91855000D02*
X206355000Y-91855000D01*
X229280000Y-96970000D02*
X229280000Y-94390000D01*
%TO.N,/SDA*%
X189925000Y-86775000D02*
X210725000Y-86775000D01*
X216650000Y-94600000D02*
X216580000Y-94670000D01*
X216650000Y-92700000D02*
X216650000Y-94600000D01*
X210725000Y-86775000D02*
X216650000Y-92700000D01*
D19*
%TO.N,/index*%
X184287500Y-68750000D02*
X184912500Y-68125000D01*
D18*
X194700000Y-73000000D02*
X189825000Y-68125000D01*
D19*
X180287500Y-68750000D02*
X184287500Y-68750000D01*
X179662500Y-68125000D02*
X180287500Y-68750000D01*
D18*
X189825000Y-68125000D02*
X184825000Y-68125000D01*
X216580000Y-76450000D02*
X216580000Y-74580000D01*
X216580000Y-74580000D02*
X215000000Y-73000000D01*
X215000000Y-73000000D02*
X194700000Y-73000000D01*
D19*
%TO.N,/middle*%
X195562500Y-68125000D02*
X196187500Y-68750000D01*
D18*
X200825000Y-68125000D02*
X203625000Y-68125000D01*
X219170000Y-74420000D02*
X219170000Y-76680000D01*
X216500000Y-71750000D02*
X219170000Y-74420000D01*
X207250000Y-71750000D02*
X216500000Y-71750000D01*
X219170000Y-76680000D02*
X219120000Y-76730000D01*
X203625000Y-68125000D02*
X207250000Y-71750000D01*
D19*
X196187500Y-68750000D02*
X200187500Y-68750000D01*
X200187500Y-68750000D02*
X200812500Y-68125000D01*
%TO.N,/ring*%
X217187500Y-68750000D02*
X217812500Y-68125000D01*
D18*
X221660000Y-70660000D02*
X221660000Y-76450000D01*
X219125000Y-68125000D02*
X221660000Y-70660000D01*
D19*
X213187500Y-68750000D02*
X217187500Y-68750000D01*
D18*
X217875000Y-68125000D02*
X219125000Y-68125000D01*
D19*
X212562500Y-68125000D02*
X213187500Y-68750000D01*
%TO.N,/pinky*%
X233225000Y-68750000D02*
X229225000Y-68750000D01*
D18*
X224875000Y-68125000D02*
X227675000Y-68125000D01*
X223750000Y-70500000D02*
X223750000Y-69250000D01*
D19*
X229225000Y-68750000D02*
X228600000Y-68125000D01*
D18*
X223750000Y-69250000D02*
X224875000Y-68125000D01*
X226740000Y-73490000D02*
X223750000Y-70500000D01*
X226740000Y-76450000D02*
X226740000Y-73490000D01*
D19*
X233850000Y-68125000D02*
X233225000Y-68750000D01*
D18*
%TO.N,/thumb*%
X211840000Y-74250000D02*
X214040000Y-76450000D01*
X186750000Y-71750000D02*
X189250000Y-74250000D01*
X180598000Y-71750000D02*
X186750000Y-71750000D01*
D19*
X179000000Y-75175000D02*
X178325000Y-74500000D01*
D18*
X178325000Y-74500000D02*
X178325000Y-74023000D01*
X178325000Y-74500000D02*
X178325000Y-74977000D01*
X189250000Y-74250000D02*
X211840000Y-74250000D01*
D19*
X179000000Y-79075000D02*
X179000000Y-75175000D01*
X178325000Y-79750000D02*
X179000000Y-79075000D01*
D18*
X178325000Y-74023000D02*
X180598000Y-71750000D01*
%TO.N,/RAW*%
X180750000Y-85000000D02*
X180976000Y-84774000D01*
X186000000Y-75250000D02*
X185950000Y-75250000D01*
X217750000Y-78750000D02*
X196500000Y-78750000D01*
X180976000Y-82224000D02*
X183700000Y-79500000D01*
X196500000Y-78750000D02*
X193000000Y-75250000D01*
X183700000Y-79500000D02*
X183700000Y-77550000D01*
X183700000Y-77550000D02*
X186000000Y-75250000D01*
X180976000Y-84774000D02*
X180976000Y-82224000D01*
X226020000Y-87020000D02*
X217750000Y-78750000D01*
X234200000Y-87020000D02*
X226020000Y-87020000D01*
X193000000Y-75250000D02*
X186000000Y-75250000D01*
%TO.N,/BLK*%
X215750000Y-80000000D02*
X226800000Y-91050000D01*
X226800000Y-94610000D02*
X226740000Y-94670000D01*
X193310000Y-80000000D02*
X215750000Y-80000000D01*
X226800000Y-91050000D02*
X226800000Y-94610000D01*
X189925000Y-76615000D02*
X193310000Y-80000000D01*
%TO.N,/RES*%
X219170000Y-92320000D02*
X219170000Y-94620000D01*
X187380000Y-85000000D02*
X211850000Y-85000000D01*
X211850000Y-85000000D02*
X219170000Y-92320000D01*
X219170000Y-94620000D02*
X219120000Y-94670000D01*
X186615000Y-84235000D02*
X187380000Y-85000000D01*
%TO.N,/CS*%
X192750000Y-81500000D02*
X214500000Y-81500000D01*
X185855000Y-79155000D02*
X190405000Y-79155000D01*
X190405000Y-79155000D02*
X192750000Y-81500000D01*
X214500000Y-81500000D02*
X224200000Y-91200000D01*
X224200000Y-91200000D02*
X224200000Y-94390000D01*
%TO.N,/DC*%
X221710000Y-94620000D02*
X221710000Y-91860000D01*
X221710000Y-91860000D02*
X213100000Y-83250000D01*
X213100000Y-83250000D02*
X191480000Y-83250000D01*
X221660000Y-94670000D02*
X221710000Y-94620000D01*
X191480000Y-83250000D02*
X189925000Y-81695000D01*
%TD*%
%TA.AperFunction,Conductor*%
%TO.N,GND*%
G36*
X234601747Y-66796817D02*
G01*
X234601752Y-66796820D01*
X234627311Y-66796820D01*
X234630052Y-66796897D01*
X234950584Y-66814895D01*
X234956020Y-66815507D01*
X235016671Y-66825812D01*
X235042408Y-66838784D01*
X235395948Y-67178460D01*
X237465379Y-69166737D01*
X237479739Y-69193863D01*
X237499308Y-69309036D01*
X237500000Y-69317244D01*
X237500000Y-99257748D01*
X237499308Y-99265956D01*
X237494814Y-99292404D01*
X237481154Y-99318844D01*
X235114352Y-101685648D01*
X235079704Y-101700000D01*
X179520296Y-101700000D01*
X179485648Y-101685648D01*
X177845724Y-100045724D01*
X180449500Y-100045724D01*
X180449500Y-100654275D01*
X180452353Y-100684698D01*
X180452353Y-100684699D01*
X180497204Y-100812876D01*
X180497208Y-100812885D01*
X180577849Y-100922150D01*
X180687114Y-101002791D01*
X180687117Y-101002792D01*
X180687118Y-101002793D01*
X180687120Y-101002793D01*
X180687123Y-101002795D01*
X180815301Y-101047646D01*
X180845734Y-101050500D01*
X180845744Y-101050500D01*
X183154256Y-101050500D01*
X183154266Y-101050500D01*
X183184699Y-101047646D01*
X183312882Y-101002793D01*
X183422150Y-100922150D01*
X183502793Y-100812882D01*
X183547646Y-100684699D01*
X183550500Y-100654266D01*
X183550500Y-100045734D01*
X183547646Y-100015301D01*
X183502793Y-99887118D01*
X183502792Y-99887117D01*
X183502791Y-99887114D01*
X183422150Y-99777849D01*
X183312885Y-99697208D01*
X183312876Y-99697204D01*
X183184698Y-99652353D01*
X183154275Y-99649500D01*
X183154266Y-99649500D01*
X180845734Y-99649500D01*
X180845724Y-99649500D01*
X180815301Y-99652353D01*
X180815300Y-99652353D01*
X180687123Y-99697204D01*
X180687114Y-99697208D01*
X180577849Y-99777849D01*
X180497208Y-99887114D01*
X180497204Y-99887123D01*
X180452353Y-100015300D01*
X180452353Y-100015301D01*
X180449500Y-100045724D01*
X177845724Y-100045724D01*
X177014352Y-99214352D01*
X177000000Y-99179704D01*
X177000000Y-98316738D01*
X177749500Y-98316738D01*
X177749500Y-98683261D01*
X177759427Y-98751394D01*
X177759428Y-98751396D01*
X177778369Y-98790140D01*
X177810802Y-98856483D01*
X177893517Y-98939198D01*
X177998607Y-98990573D01*
X178046884Y-98997606D01*
X178066738Y-99000500D01*
X178066740Y-99000500D01*
X179533262Y-99000500D01*
X179547076Y-98998486D01*
X179601393Y-98990573D01*
X179643867Y-98969808D01*
X179673180Y-98955479D01*
X179694700Y-98950500D01*
X182809311Y-98950500D01*
X182839430Y-98942428D01*
X182899673Y-98926286D01*
X182923887Y-98919799D01*
X183026614Y-98860489D01*
X183481590Y-98405513D01*
X189499500Y-98405513D01*
X189499500Y-98594480D01*
X189529059Y-98781115D01*
X189529060Y-98781118D01*
X189587453Y-98960833D01*
X189673236Y-99129193D01*
X189673239Y-99129197D01*
X189673240Y-99129199D01*
X189784310Y-99282073D01*
X189784312Y-99282075D01*
X189784315Y-99282079D01*
X189917920Y-99415684D01*
X189917923Y-99415686D01*
X189917927Y-99415690D01*
X190070801Y-99526760D01*
X190070803Y-99526761D01*
X190070806Y-99526763D01*
X190239166Y-99612546D01*
X190239168Y-99612547D01*
X190418882Y-99670940D01*
X190605519Y-99700500D01*
X190605520Y-99700500D01*
X190794480Y-99700500D01*
X190794481Y-99700500D01*
X190981118Y-99670940D01*
X191160832Y-99612547D01*
X191329199Y-99526760D01*
X191482073Y-99415690D01*
X191615690Y-99282073D01*
X191726760Y-99129199D01*
X191812547Y-98960832D01*
X191870940Y-98781118D01*
X191900500Y-98594481D01*
X191900500Y-98405519D01*
X191870940Y-98218882D01*
X191812547Y-98039168D01*
X191726760Y-97870801D01*
X191615690Y-97717927D01*
X191615686Y-97717923D01*
X191615684Y-97717920D01*
X191482079Y-97584315D01*
X191482080Y-97584315D01*
X191452600Y-97562897D01*
X191329199Y-97473240D01*
X191329197Y-97473239D01*
X191329193Y-97473236D01*
X191160833Y-97387453D01*
X190981118Y-97329060D01*
X190981115Y-97329059D01*
X190837744Y-97306352D01*
X190794481Y-97299500D01*
X190605519Y-97299500D01*
X190570397Y-97305062D01*
X190418884Y-97329059D01*
X190418881Y-97329060D01*
X190239166Y-97387453D01*
X190070806Y-97473236D01*
X189917920Y-97584315D01*
X189784315Y-97717920D01*
X189673236Y-97870806D01*
X189587453Y-98039166D01*
X189529060Y-98218881D01*
X189529059Y-98218884D01*
X189524352Y-98248605D01*
X189500052Y-98402032D01*
X189500052Y-98402034D01*
X189500051Y-98402033D01*
X189499500Y-98405513D01*
X183481590Y-98405513D01*
X184610489Y-97276614D01*
X184669798Y-97173887D01*
X184669799Y-97173886D01*
X184700499Y-97059312D01*
X184700500Y-97059312D01*
X184700500Y-94919629D01*
X185110000Y-94919629D01*
X185124503Y-94992542D01*
X185179759Y-95075240D01*
X185262457Y-95130496D01*
X185335370Y-95144999D01*
X185335376Y-95145000D01*
X186115000Y-95145000D01*
X187115000Y-95145000D01*
X187894624Y-95145000D01*
X187894629Y-95144999D01*
X187967542Y-95130496D01*
X188050240Y-95075240D01*
X188105496Y-94992542D01*
X188119999Y-94919629D01*
X188120000Y-94919624D01*
X188120000Y-94895000D01*
X187115000Y-94895000D01*
X187115000Y-95145000D01*
X186115000Y-95145000D01*
X186115000Y-94895000D01*
X185110000Y-94895000D01*
X185110000Y-94919629D01*
X184700500Y-94919629D01*
X184700500Y-93870370D01*
X185110000Y-93870370D01*
X185110000Y-93895000D01*
X186115000Y-93895000D01*
X187115000Y-93895000D01*
X188120000Y-93895000D01*
X188120000Y-93870376D01*
X188119999Y-93870370D01*
X188105496Y-93797457D01*
X188050240Y-93714759D01*
X187967542Y-93659503D01*
X187894629Y-93645000D01*
X187115000Y-93645000D01*
X187115000Y-93895000D01*
X186115000Y-93895000D01*
X186115000Y-93645000D01*
X185335370Y-93645000D01*
X185262457Y-93659503D01*
X185179759Y-93714759D01*
X185124503Y-93797457D01*
X185110000Y-93870370D01*
X184700500Y-93870370D01*
X184700500Y-91335252D01*
X188469500Y-91335252D01*
X188469500Y-92374748D01*
X188481133Y-92433231D01*
X188498882Y-92459795D01*
X188525447Y-92499552D01*
X188536000Y-92506603D01*
X188591769Y-92543867D01*
X188650252Y-92555500D01*
X188650255Y-92555500D01*
X191199745Y-92555500D01*
X191199748Y-92555500D01*
X191258231Y-92543867D01*
X191324552Y-92499552D01*
X191368867Y-92433231D01*
X191380500Y-92374748D01*
X191380500Y-92354500D01*
X191394852Y-92319852D01*
X191429500Y-92305500D01*
X206148101Y-92305500D01*
X206182749Y-92319852D01*
X213223386Y-99360489D01*
X213326113Y-99419799D01*
X213350326Y-99426286D01*
X213395508Y-99438393D01*
X213440689Y-99450500D01*
X213440691Y-99450500D01*
X227309311Y-99450500D01*
X227339430Y-99442428D01*
X227399673Y-99426286D01*
X227423887Y-99419799D01*
X227526614Y-99360489D01*
X228481590Y-98405513D01*
X232499500Y-98405513D01*
X232499500Y-98594480D01*
X232529059Y-98781115D01*
X232529060Y-98781118D01*
X232587453Y-98960833D01*
X232673236Y-99129193D01*
X232673239Y-99129197D01*
X232673240Y-99129199D01*
X232784310Y-99282073D01*
X232784312Y-99282075D01*
X232784315Y-99282079D01*
X232917920Y-99415684D01*
X232917923Y-99415686D01*
X232917927Y-99415690D01*
X233070801Y-99526760D01*
X233070803Y-99526761D01*
X233070806Y-99526763D01*
X233239166Y-99612546D01*
X233239168Y-99612547D01*
X233418882Y-99670940D01*
X233605519Y-99700500D01*
X233605520Y-99700500D01*
X233794480Y-99700500D01*
X233794481Y-99700500D01*
X233981118Y-99670940D01*
X234160832Y-99612547D01*
X234329199Y-99526760D01*
X234482073Y-99415690D01*
X234615690Y-99282073D01*
X234726760Y-99129199D01*
X234812547Y-98960832D01*
X234870940Y-98781118D01*
X234900500Y-98594481D01*
X234900500Y-98405519D01*
X234870940Y-98218882D01*
X234812547Y-98039168D01*
X234726760Y-97870801D01*
X234615690Y-97717927D01*
X234615686Y-97717923D01*
X234615684Y-97717920D01*
X234482079Y-97584315D01*
X234482080Y-97584315D01*
X234452600Y-97562897D01*
X234329199Y-97473240D01*
X234329197Y-97473239D01*
X234329193Y-97473236D01*
X234160833Y-97387453D01*
X233981118Y-97329060D01*
X233981115Y-97329059D01*
X233837744Y-97306352D01*
X233794481Y-97299500D01*
X233605519Y-97299500D01*
X233570397Y-97305062D01*
X233418884Y-97329059D01*
X233418881Y-97329060D01*
X233239166Y-97387453D01*
X233070806Y-97473236D01*
X232917920Y-97584315D01*
X232784315Y-97717920D01*
X232673236Y-97870806D01*
X232587453Y-98039166D01*
X232529060Y-98218881D01*
X232529059Y-98218884D01*
X232524352Y-98248605D01*
X232500052Y-98402032D01*
X232500052Y-98402034D01*
X232500051Y-98402033D01*
X232499500Y-98405513D01*
X228481590Y-98405513D01*
X229640490Y-97246613D01*
X229699799Y-97143886D01*
X229722461Y-97059312D01*
X229730500Y-97029311D01*
X229730500Y-95839500D01*
X229744852Y-95804852D01*
X229779500Y-95790500D01*
X229999745Y-95790500D01*
X229999748Y-95790500D01*
X230058231Y-95778867D01*
X230124552Y-95734552D01*
X230168867Y-95668231D01*
X230179529Y-95614629D01*
X230870000Y-95614629D01*
X230884503Y-95687542D01*
X230939759Y-95770240D01*
X231022457Y-95825496D01*
X231095370Y-95839999D01*
X231095376Y-95840000D01*
X231320000Y-95840000D01*
X232320000Y-95840000D01*
X232544624Y-95840000D01*
X232544629Y-95839999D01*
X232617542Y-95825496D01*
X232700240Y-95770240D01*
X232755496Y-95687542D01*
X232769999Y-95614629D01*
X232770000Y-95614624D01*
X232770000Y-94890000D01*
X232320000Y-94890000D01*
X232320000Y-95840000D01*
X231320000Y-95840000D01*
X231320000Y-94890000D01*
X230870000Y-94890000D01*
X230870000Y-95614629D01*
X230179529Y-95614629D01*
X230180500Y-95609748D01*
X230180500Y-93170252D01*
X230179529Y-93165370D01*
X230870000Y-93165370D01*
X230870000Y-93890000D01*
X231320000Y-93890000D01*
X232320000Y-93890000D01*
X232770000Y-93890000D01*
X232770000Y-93170252D01*
X233459500Y-93170252D01*
X233459500Y-95609748D01*
X233471133Y-95668231D01*
X233488882Y-95694795D01*
X233515447Y-95734552D01*
X233542012Y-95752301D01*
X233581769Y-95778867D01*
X233640252Y-95790500D01*
X233640255Y-95790500D01*
X235079745Y-95790500D01*
X235079748Y-95790500D01*
X235138231Y-95778867D01*
X235204552Y-95734552D01*
X235248867Y-95668231D01*
X235260500Y-95609748D01*
X235260500Y-93170252D01*
X235248867Y-93111769D01*
X235222301Y-93072012D01*
X235204552Y-93045447D01*
X235164795Y-93018882D01*
X235138231Y-93001133D01*
X235079748Y-92989500D01*
X233640252Y-92989500D01*
X233583659Y-93000757D01*
X233581769Y-93001133D01*
X233515447Y-93045447D01*
X233484037Y-93092457D01*
X233471133Y-93111769D01*
X233459500Y-93170252D01*
X232770000Y-93170252D01*
X232770000Y-93165376D01*
X232769999Y-93165370D01*
X232755496Y-93092457D01*
X232700240Y-93009759D01*
X232617542Y-92954503D01*
X232544629Y-92940000D01*
X232320000Y-92940000D01*
X232320000Y-93890000D01*
X231320000Y-93890000D01*
X231320000Y-92940000D01*
X231095370Y-92940000D01*
X231022457Y-92954503D01*
X230939759Y-93009759D01*
X230884503Y-93092457D01*
X230870000Y-93165370D01*
X230179529Y-93165370D01*
X230168867Y-93111769D01*
X230142301Y-93072012D01*
X230124552Y-93045447D01*
X230084795Y-93018882D01*
X230058231Y-93001133D01*
X229999748Y-92989500D01*
X228560252Y-92989500D01*
X228503659Y-93000757D01*
X228501769Y-93001133D01*
X228435447Y-93045447D01*
X228404037Y-93092457D01*
X228391133Y-93111769D01*
X228379500Y-93170252D01*
X228379500Y-95609748D01*
X228391133Y-95668231D01*
X228408882Y-95694795D01*
X228435447Y-95734552D01*
X228462012Y-95752301D01*
X228501769Y-95778867D01*
X228560252Y-95790500D01*
X228780500Y-95790500D01*
X228815148Y-95804852D01*
X228829500Y-95839500D01*
X228829500Y-96763101D01*
X228815148Y-96797749D01*
X227077749Y-98535148D01*
X227043101Y-98549500D01*
X213706899Y-98549500D01*
X213672251Y-98535148D01*
X206631614Y-91494511D01*
X206528888Y-91435201D01*
X206528886Y-91435200D01*
X206504673Y-91428713D01*
X206474551Y-91420642D01*
X206414311Y-91404500D01*
X206414309Y-91404500D01*
X191429500Y-91404500D01*
X191394852Y-91390148D01*
X191380500Y-91355500D01*
X191380500Y-91335255D01*
X191380500Y-91335252D01*
X191368867Y-91276769D01*
X191342301Y-91237012D01*
X191324552Y-91210447D01*
X191284795Y-91183882D01*
X191258231Y-91166133D01*
X191199748Y-91154500D01*
X188650252Y-91154500D01*
X188591769Y-91166133D01*
X188525447Y-91210447D01*
X188481133Y-91276769D01*
X188469500Y-91335252D01*
X184700500Y-91335252D01*
X184700500Y-89440688D01*
X184671469Y-89332346D01*
X184671468Y-89332342D01*
X184671468Y-89332343D01*
X184669799Y-89326114D01*
X184669799Y-89326113D01*
X184669156Y-89325000D01*
X184623631Y-89246149D01*
X184610489Y-89223386D01*
X184182355Y-88795252D01*
X185159500Y-88795252D01*
X185159500Y-89834748D01*
X185171133Y-89893231D01*
X185188882Y-89919795D01*
X185215447Y-89959552D01*
X185242012Y-89977301D01*
X185281769Y-90003867D01*
X185340252Y-90015500D01*
X185340255Y-90015500D01*
X187889745Y-90015500D01*
X187889748Y-90015500D01*
X187948231Y-90003867D01*
X188014552Y-89959552D01*
X188058867Y-89893231D01*
X188070500Y-89834748D01*
X188070500Y-89814500D01*
X188084852Y-89779852D01*
X188119500Y-89765500D01*
X210008101Y-89765500D01*
X210042749Y-89779852D01*
X213220905Y-92958008D01*
X213235257Y-92992656D01*
X213220905Y-93027304D01*
X213213481Y-93033397D01*
X213195448Y-93045446D01*
X213164037Y-93092457D01*
X213151133Y-93111769D01*
X213139500Y-93170252D01*
X213139500Y-95609748D01*
X213151133Y-95668231D01*
X213168882Y-95694795D01*
X213195447Y-95734552D01*
X213222012Y-95752301D01*
X213261769Y-95778867D01*
X213320252Y-95790500D01*
X213320255Y-95790500D01*
X214759745Y-95790500D01*
X214759748Y-95790500D01*
X214818231Y-95778867D01*
X214884552Y-95734552D01*
X214928867Y-95668231D01*
X214940500Y-95609748D01*
X214940500Y-93170252D01*
X214928867Y-93111769D01*
X214902301Y-93072012D01*
X214884552Y-93045447D01*
X214844795Y-93018882D01*
X214818231Y-93001133D01*
X214759748Y-92989500D01*
X214759745Y-92989500D01*
X214501592Y-92989500D01*
X214466944Y-92975148D01*
X214459157Y-92965000D01*
X214400488Y-92863385D01*
X210491614Y-88954511D01*
X210388888Y-88895201D01*
X210388886Y-88895200D01*
X210364673Y-88888713D01*
X210334551Y-88880642D01*
X210274311Y-88864500D01*
X210274309Y-88864500D01*
X188119500Y-88864500D01*
X188084852Y-88850148D01*
X188070500Y-88815500D01*
X188070500Y-88795255D01*
X188070500Y-88795252D01*
X188058867Y-88736769D01*
X188032301Y-88697012D01*
X188014552Y-88670447D01*
X187974795Y-88643882D01*
X187948231Y-88626133D01*
X187889748Y-88614500D01*
X185340252Y-88614500D01*
X185281769Y-88626133D01*
X185215447Y-88670447D01*
X185171133Y-88736769D01*
X185159500Y-88795252D01*
X184182355Y-88795252D01*
X182526614Y-87139511D01*
X182423888Y-87080201D01*
X182423886Y-87080200D01*
X182399673Y-87073713D01*
X182369551Y-87065642D01*
X182309311Y-87049500D01*
X182309309Y-87049500D01*
X182229789Y-87049500D01*
X182195141Y-87035148D01*
X182183539Y-87016684D01*
X182153852Y-86931843D01*
X182153850Y-86931840D01*
X182074999Y-86825000D01*
X181968159Y-86746149D01*
X181968157Y-86746148D01*
X181930537Y-86732984D01*
X181842821Y-86702290D01*
X181842812Y-86702289D01*
X181813077Y-86699501D01*
X181813076Y-86699500D01*
X181813066Y-86699500D01*
X179686934Y-86699500D01*
X179686924Y-86699500D01*
X179686922Y-86699501D01*
X179657187Y-86702289D01*
X179657178Y-86702290D01*
X179531840Y-86746149D01*
X179425000Y-86825000D01*
X179346149Y-86931840D01*
X179302290Y-87057178D01*
X179302289Y-87057187D01*
X179299501Y-87086922D01*
X179299500Y-87086943D01*
X179299500Y-87913056D01*
X179299501Y-87913077D01*
X179302289Y-87942812D01*
X179302290Y-87942821D01*
X179325401Y-88008866D01*
X179346148Y-88068157D01*
X179346149Y-88068159D01*
X179346148Y-88068159D01*
X179425000Y-88174999D01*
X179531840Y-88253850D01*
X179531843Y-88253852D01*
X179657181Y-88297710D01*
X179686934Y-88300500D01*
X179686944Y-88300500D01*
X181813056Y-88300500D01*
X181813066Y-88300500D01*
X181842819Y-88297710D01*
X181968157Y-88253852D01*
X182074999Y-88174999D01*
X182131592Y-88098319D01*
X182163714Y-88078963D01*
X182200114Y-88087991D01*
X182205665Y-88092768D01*
X183785148Y-89672251D01*
X183799500Y-89706899D01*
X183799500Y-96793101D01*
X183785148Y-96827749D01*
X182577749Y-98035148D01*
X182543101Y-98049500D01*
X179694700Y-98049500D01*
X179673180Y-98044521D01*
X179601396Y-98009428D01*
X179601394Y-98009427D01*
X179601393Y-98009427D01*
X179578682Y-98006118D01*
X179533262Y-97999500D01*
X179533260Y-97999500D01*
X178066740Y-97999500D01*
X178066738Y-97999500D01*
X177998605Y-98009427D01*
X177998603Y-98009428D01*
X177893519Y-98060801D01*
X177893515Y-98060803D01*
X177810803Y-98143515D01*
X177810801Y-98143519D01*
X177759428Y-98248603D01*
X177759427Y-98248605D01*
X177749500Y-98316738D01*
X177000000Y-98316738D01*
X177000000Y-97550000D01*
X177727499Y-97550000D01*
X177772357Y-97638042D01*
X177772359Y-97638045D01*
X177861954Y-97727640D01*
X177861961Y-97727645D01*
X177974849Y-97785163D01*
X178068519Y-97799999D01*
X178499999Y-97799999D01*
X179100000Y-97799999D01*
X179531479Y-97799999D01*
X179625147Y-97785165D01*
X179738038Y-97727645D01*
X179738045Y-97727640D01*
X179827640Y-97638045D01*
X179827642Y-97638042D01*
X179872501Y-97550000D01*
X179100000Y-97550000D01*
X179100000Y-97799999D01*
X178499999Y-97799999D01*
X178500000Y-97799998D01*
X178500000Y-97550000D01*
X177727499Y-97550000D01*
X177000000Y-97550000D01*
X177000000Y-96950000D01*
X177727499Y-96950000D01*
X178500000Y-96950000D01*
X179100000Y-96950000D01*
X179872501Y-96950000D01*
X179827642Y-96861957D01*
X179827640Y-96861954D01*
X179738045Y-96772359D01*
X179738038Y-96772354D01*
X179625150Y-96714836D01*
X179531480Y-96700000D01*
X179100000Y-96700000D01*
X179100000Y-96950000D01*
X178500000Y-96950000D01*
X178500000Y-96700000D01*
X178068520Y-96700000D01*
X177974852Y-96714834D01*
X177861961Y-96772354D01*
X177861954Y-96772359D01*
X177772359Y-96861954D01*
X177772357Y-96861957D01*
X177727499Y-96950000D01*
X177000000Y-96950000D01*
X177000000Y-95095724D01*
X180449500Y-95095724D01*
X180449500Y-95704275D01*
X180452353Y-95734698D01*
X180452353Y-95734699D01*
X180497204Y-95862876D01*
X180497208Y-95862885D01*
X180577849Y-95972150D01*
X180687114Y-96052791D01*
X180687117Y-96052792D01*
X180687118Y-96052793D01*
X180687120Y-96052793D01*
X180687123Y-96052795D01*
X180815301Y-96097646D01*
X180845734Y-96100500D01*
X180845744Y-96100500D01*
X183154256Y-96100500D01*
X183154266Y-96100500D01*
X183184699Y-96097646D01*
X183312882Y-96052793D01*
X183422150Y-95972150D01*
X183502793Y-95862882D01*
X183547646Y-95734699D01*
X183550500Y-95704266D01*
X183550500Y-95095734D01*
X183547646Y-95065301D01*
X183502793Y-94937118D01*
X183502792Y-94937117D01*
X183502791Y-94937114D01*
X183422150Y-94827849D01*
X183312885Y-94747208D01*
X183312876Y-94747204D01*
X183184698Y-94702353D01*
X183154275Y-94699500D01*
X183154266Y-94699500D01*
X180845734Y-94699500D01*
X180845724Y-94699500D01*
X180815301Y-94702353D01*
X180815300Y-94702353D01*
X180687123Y-94747204D01*
X180687114Y-94747208D01*
X180577849Y-94827849D01*
X180497208Y-94937114D01*
X180497204Y-94937123D01*
X180452353Y-95065300D01*
X180452353Y-95065301D01*
X180449500Y-95095724D01*
X177000000Y-95095724D01*
X177000000Y-88931001D01*
X177299500Y-88931001D01*
X177299500Y-89068998D01*
X177326417Y-89204318D01*
X177326420Y-89204329D01*
X177376865Y-89326114D01*
X177379225Y-89331811D01*
X177410137Y-89378074D01*
X177455883Y-89446539D01*
X177553460Y-89544116D01*
X177573014Y-89557181D01*
X177668189Y-89620775D01*
X177795672Y-89673580D01*
X177795678Y-89673581D01*
X177795681Y-89673582D01*
X177931001Y-89700499D01*
X177931007Y-89700500D01*
X178068993Y-89700500D01*
X178204328Y-89673580D01*
X178331811Y-89620775D01*
X178382444Y-89586943D01*
X179299500Y-89586943D01*
X179299500Y-90413056D01*
X179299501Y-90413077D01*
X179302289Y-90442812D01*
X179302290Y-90442821D01*
X179332984Y-90530537D01*
X179346148Y-90568157D01*
X179346149Y-90568159D01*
X179346148Y-90568159D01*
X179425000Y-90674999D01*
X179531840Y-90753850D01*
X179531843Y-90753852D01*
X179657181Y-90797710D01*
X179686934Y-90800500D01*
X179686944Y-90800500D01*
X181813056Y-90800500D01*
X181813066Y-90800500D01*
X181842819Y-90797710D01*
X181968157Y-90753852D01*
X182074999Y-90674999D01*
X182153852Y-90568157D01*
X182197710Y-90442819D01*
X182200500Y-90413066D01*
X182200500Y-89586934D01*
X182197710Y-89557181D01*
X182153852Y-89431843D01*
X182153850Y-89431840D01*
X182153851Y-89431840D01*
X182074999Y-89325000D01*
X181968159Y-89246149D01*
X181968157Y-89246148D01*
X181930537Y-89232984D01*
X181842821Y-89202290D01*
X181842812Y-89202289D01*
X181813077Y-89199501D01*
X181813076Y-89199500D01*
X181813066Y-89199500D01*
X179686934Y-89199500D01*
X179686924Y-89199500D01*
X179686922Y-89199501D01*
X179657187Y-89202289D01*
X179657178Y-89202290D01*
X179531840Y-89246149D01*
X179425000Y-89325000D01*
X179346149Y-89431840D01*
X179302290Y-89557178D01*
X179302289Y-89557187D01*
X179299501Y-89586922D01*
X179299500Y-89586943D01*
X178382444Y-89586943D01*
X178426986Y-89557181D01*
X178445148Y-89545046D01*
X178445149Y-89545045D01*
X178445499Y-89544810D01*
X178446542Y-89544114D01*
X178544114Y-89446542D01*
X178620775Y-89331811D01*
X178673580Y-89204328D01*
X178700500Y-89068993D01*
X178700500Y-88931007D01*
X178693378Y-88895201D01*
X178673582Y-88795681D01*
X178673579Y-88795670D01*
X178673406Y-88795252D01*
X178620775Y-88668189D01*
X178574613Y-88599102D01*
X178544116Y-88553460D01*
X178446539Y-88455883D01*
X178378074Y-88410137D01*
X178331811Y-88379225D01*
X178331808Y-88379223D01*
X178331807Y-88379223D01*
X178204329Y-88326420D01*
X178204318Y-88326417D01*
X178068998Y-88299500D01*
X178068993Y-88299500D01*
X177931007Y-88299500D01*
X177931001Y-88299500D01*
X177795681Y-88326417D01*
X177795670Y-88326420D01*
X177668192Y-88379223D01*
X177553460Y-88455883D01*
X177455883Y-88553460D01*
X177379223Y-88668192D01*
X177326420Y-88795670D01*
X177326417Y-88795681D01*
X177299500Y-88931001D01*
X177000000Y-88931001D01*
X177000000Y-85931001D01*
X177299500Y-85931001D01*
X177299500Y-86068998D01*
X177326417Y-86204318D01*
X177326420Y-86204329D01*
X177379223Y-86331807D01*
X177379225Y-86331811D01*
X177390519Y-86348713D01*
X177455883Y-86446539D01*
X177553460Y-86544116D01*
X177591451Y-86569500D01*
X177668189Y-86620775D01*
X177795672Y-86673580D01*
X177795678Y-86673581D01*
X177795681Y-86673582D01*
X177931001Y-86700499D01*
X177931007Y-86700500D01*
X178068993Y-86700500D01*
X178204328Y-86673580D01*
X178331811Y-86620775D01*
X178446542Y-86544114D01*
X178544114Y-86446542D01*
X178620775Y-86331811D01*
X178652487Y-86255252D01*
X188469500Y-86255252D01*
X188469500Y-87294748D01*
X188481133Y-87353231D01*
X188498882Y-87379795D01*
X188525447Y-87419552D01*
X188552012Y-87437301D01*
X188591769Y-87463867D01*
X188650252Y-87475500D01*
X188650255Y-87475500D01*
X191199745Y-87475500D01*
X191199748Y-87475500D01*
X191258231Y-87463867D01*
X191324552Y-87419552D01*
X191368867Y-87353231D01*
X191380500Y-87294748D01*
X191380500Y-87274500D01*
X191394852Y-87239852D01*
X191429500Y-87225500D01*
X210518101Y-87225500D01*
X210552749Y-87239852D01*
X216185148Y-92872251D01*
X216199500Y-92906899D01*
X216199500Y-92940500D01*
X216185148Y-92975148D01*
X216150500Y-92989500D01*
X215860252Y-92989500D01*
X215803659Y-93000757D01*
X215801769Y-93001133D01*
X215735447Y-93045447D01*
X215704037Y-93092457D01*
X215691133Y-93111769D01*
X215679500Y-93170252D01*
X215679500Y-95609748D01*
X215691133Y-95668231D01*
X215708882Y-95694795D01*
X215735447Y-95734552D01*
X215762012Y-95752301D01*
X215801769Y-95778867D01*
X215860252Y-95790500D01*
X215860255Y-95790500D01*
X217299745Y-95790500D01*
X217299748Y-95790500D01*
X217358231Y-95778867D01*
X217424552Y-95734552D01*
X217468867Y-95668231D01*
X217480500Y-95609748D01*
X217480500Y-93170252D01*
X217468867Y-93111769D01*
X217442301Y-93072012D01*
X217424552Y-93045447D01*
X217384795Y-93018882D01*
X217358231Y-93001133D01*
X217299748Y-92989500D01*
X217299745Y-92989500D01*
X217149500Y-92989500D01*
X217114852Y-92975148D01*
X217100500Y-92940500D01*
X217100500Y-92640688D01*
X217100499Y-92640687D01*
X217069800Y-92526117D01*
X217069799Y-92526115D01*
X217069799Y-92526114D01*
X217044731Y-92482696D01*
X217010489Y-92423386D01*
X211001614Y-86414511D01*
X210898888Y-86355201D01*
X210898886Y-86355200D01*
X210874673Y-86348713D01*
X210844551Y-86340642D01*
X210784311Y-86324500D01*
X210784309Y-86324500D01*
X191429500Y-86324500D01*
X191394852Y-86310148D01*
X191380500Y-86275500D01*
X191380500Y-86255255D01*
X191380500Y-86255252D01*
X191368867Y-86196769D01*
X191332117Y-86141769D01*
X191324552Y-86130447D01*
X191284795Y-86103882D01*
X191258231Y-86086133D01*
X191199748Y-86074500D01*
X188650252Y-86074500D01*
X188591769Y-86086133D01*
X188525447Y-86130447D01*
X188481133Y-86196769D01*
X188469500Y-86255252D01*
X178652487Y-86255252D01*
X178673580Y-86204328D01*
X178700500Y-86068993D01*
X178700500Y-85931007D01*
X178700499Y-85931001D01*
X178673582Y-85795681D01*
X178673579Y-85795670D01*
X178620775Y-85668189D01*
X178553936Y-85568157D01*
X178544116Y-85553460D01*
X178446539Y-85455883D01*
X178378074Y-85410137D01*
X178331811Y-85379225D01*
X178331808Y-85379223D01*
X178331807Y-85379223D01*
X178204329Y-85326420D01*
X178204318Y-85326417D01*
X178068998Y-85299500D01*
X178068993Y-85299500D01*
X177931007Y-85299500D01*
X177931001Y-85299500D01*
X177795681Y-85326417D01*
X177795670Y-85326420D01*
X177668192Y-85379223D01*
X177553460Y-85455883D01*
X177455883Y-85553460D01*
X177379223Y-85668192D01*
X177326420Y-85795670D01*
X177326417Y-85795681D01*
X177299500Y-85931001D01*
X177000000Y-85931001D01*
X177000000Y-84586943D01*
X179299500Y-84586943D01*
X179299500Y-85413056D01*
X179299501Y-85413077D01*
X179302289Y-85442812D01*
X179302290Y-85442821D01*
X179332984Y-85530537D01*
X179346148Y-85568157D01*
X179346149Y-85568159D01*
X179346148Y-85568159D01*
X179425000Y-85674999D01*
X179531840Y-85753850D01*
X179531843Y-85753852D01*
X179657181Y-85797710D01*
X179686934Y-85800500D01*
X179686944Y-85800500D01*
X181813056Y-85800500D01*
X181813066Y-85800500D01*
X181842819Y-85797710D01*
X181968157Y-85753852D01*
X182074999Y-85674999D01*
X182153852Y-85568157D01*
X182197710Y-85442819D01*
X182200500Y-85413066D01*
X182200500Y-84586934D01*
X182197710Y-84557181D01*
X182153852Y-84431843D01*
X182153850Y-84431840D01*
X182153851Y-84431840D01*
X182074999Y-84325000D01*
X181968159Y-84246149D01*
X181968157Y-84246148D01*
X181930537Y-84232984D01*
X181842821Y-84202290D01*
X181842812Y-84202289D01*
X181813077Y-84199501D01*
X181813076Y-84199500D01*
X181813066Y-84199500D01*
X181813056Y-84199500D01*
X181475500Y-84199500D01*
X181440852Y-84185148D01*
X181426500Y-84150500D01*
X181426500Y-83715252D01*
X185159500Y-83715252D01*
X185159500Y-84754748D01*
X185171133Y-84813231D01*
X185188882Y-84839795D01*
X185215447Y-84879552D01*
X185242012Y-84897301D01*
X185281769Y-84923867D01*
X185340252Y-84935500D01*
X186658101Y-84935500D01*
X186692749Y-84949852D01*
X187103386Y-85360489D01*
X187135838Y-85379225D01*
X187206111Y-85419798D01*
X187206113Y-85419798D01*
X187206114Y-85419799D01*
X187234758Y-85427474D01*
X187320688Y-85450500D01*
X187320691Y-85450500D01*
X211643101Y-85450500D01*
X211677749Y-85464852D01*
X218705148Y-92492251D01*
X218719500Y-92526899D01*
X218719500Y-92940500D01*
X218705148Y-92975148D01*
X218670500Y-92989500D01*
X218400252Y-92989500D01*
X218343659Y-93000757D01*
X218341769Y-93001133D01*
X218275447Y-93045447D01*
X218244037Y-93092457D01*
X218231133Y-93111769D01*
X218219500Y-93170252D01*
X218219500Y-95609748D01*
X218231133Y-95668231D01*
X218248882Y-95694795D01*
X218275447Y-95734552D01*
X218302012Y-95752301D01*
X218341769Y-95778867D01*
X218400252Y-95790500D01*
X218400255Y-95790500D01*
X219839745Y-95790500D01*
X219839748Y-95790500D01*
X219898231Y-95778867D01*
X219964552Y-95734552D01*
X220008867Y-95668231D01*
X220020500Y-95609748D01*
X220020500Y-93170252D01*
X220008867Y-93111769D01*
X219982301Y-93072012D01*
X219964552Y-93045447D01*
X219924795Y-93018882D01*
X219898231Y-93001133D01*
X219839748Y-92989500D01*
X219839745Y-92989500D01*
X219669500Y-92989500D01*
X219634852Y-92975148D01*
X219620500Y-92940500D01*
X219620500Y-92260688D01*
X219620499Y-92260687D01*
X219589800Y-92146117D01*
X219589799Y-92146115D01*
X219589799Y-92146114D01*
X219564731Y-92102696D01*
X219543776Y-92066400D01*
X219530491Y-92043389D01*
X219530486Y-92043383D01*
X212126614Y-84639511D01*
X212023888Y-84580201D01*
X212023886Y-84580200D01*
X211999673Y-84573713D01*
X211969551Y-84565642D01*
X211909311Y-84549500D01*
X211909309Y-84549500D01*
X188119500Y-84549500D01*
X188084852Y-84535148D01*
X188070500Y-84500500D01*
X188070500Y-83715255D01*
X188070500Y-83715252D01*
X188058867Y-83656769D01*
X188027943Y-83610488D01*
X188014552Y-83590447D01*
X187974795Y-83563882D01*
X187948231Y-83546133D01*
X187889748Y-83534500D01*
X185340252Y-83534500D01*
X185281769Y-83546133D01*
X185215447Y-83590447D01*
X185171133Y-83656769D01*
X185159500Y-83715252D01*
X181426500Y-83715252D01*
X181426500Y-82430899D01*
X181440852Y-82396251D01*
X182661851Y-81175252D01*
X188469500Y-81175252D01*
X188469500Y-82214748D01*
X188481133Y-82273231D01*
X188498882Y-82299795D01*
X188525447Y-82339552D01*
X188546478Y-82353604D01*
X188591769Y-82383867D01*
X188650252Y-82395500D01*
X189968101Y-82395500D01*
X190002749Y-82409852D01*
X191203386Y-83610489D01*
X191306113Y-83669799D01*
X191330326Y-83676286D01*
X191375508Y-83688393D01*
X191420689Y-83700500D01*
X191420691Y-83700500D01*
X212893101Y-83700500D01*
X212927749Y-83714852D01*
X221245148Y-92032251D01*
X221259500Y-92066899D01*
X221259500Y-92940500D01*
X221245148Y-92975148D01*
X221210500Y-92989500D01*
X220940252Y-92989500D01*
X220883659Y-93000757D01*
X220881769Y-93001133D01*
X220815447Y-93045447D01*
X220784037Y-93092457D01*
X220771133Y-93111769D01*
X220759500Y-93170252D01*
X220759500Y-95609748D01*
X220771133Y-95668231D01*
X220788882Y-95694795D01*
X220815447Y-95734552D01*
X220842012Y-95752301D01*
X220881769Y-95778867D01*
X220940252Y-95790500D01*
X220940255Y-95790500D01*
X222379745Y-95790500D01*
X222379748Y-95790500D01*
X222438231Y-95778867D01*
X222504552Y-95734552D01*
X222548867Y-95668231D01*
X222560500Y-95609748D01*
X222560500Y-93170252D01*
X222548867Y-93111769D01*
X222522301Y-93072012D01*
X222504552Y-93045447D01*
X222464795Y-93018882D01*
X222438231Y-93001133D01*
X222379748Y-92989500D01*
X222379745Y-92989500D01*
X222209500Y-92989500D01*
X222174852Y-92975148D01*
X222160500Y-92940500D01*
X222160500Y-91800688D01*
X222131469Y-91692346D01*
X222131468Y-91692342D01*
X222131468Y-91692343D01*
X222129799Y-91686114D01*
X222129799Y-91686113D01*
X222129798Y-91686111D01*
X222070494Y-91583392D01*
X222070491Y-91583389D01*
X222070490Y-91583386D01*
X213376614Y-82889511D01*
X213273888Y-82830201D01*
X213273886Y-82830200D01*
X213249673Y-82823713D01*
X213219551Y-82815642D01*
X213159311Y-82799500D01*
X213159309Y-82799500D01*
X191686899Y-82799500D01*
X191652251Y-82785148D01*
X191296097Y-82428994D01*
X191281745Y-82394346D01*
X191296097Y-82359698D01*
X191303522Y-82353604D01*
X191324552Y-82339552D01*
X191368867Y-82273231D01*
X191380500Y-82214748D01*
X191380500Y-81175252D01*
X191368867Y-81116769D01*
X191342301Y-81077012D01*
X191324552Y-81050447D01*
X191284795Y-81023882D01*
X191258231Y-81006133D01*
X191199748Y-80994500D01*
X188650252Y-80994500D01*
X188591769Y-81006133D01*
X188525447Y-81050447D01*
X188481133Y-81116769D01*
X188469500Y-81175252D01*
X182661851Y-81175252D01*
X182720334Y-81116769D01*
X184060490Y-79776614D01*
X184119799Y-79673887D01*
X184129010Y-79639511D01*
X184144902Y-79580200D01*
X184150500Y-79559310D01*
X184150500Y-78635252D01*
X185159500Y-78635252D01*
X185159500Y-79674748D01*
X185171133Y-79733231D01*
X185188882Y-79759795D01*
X185215447Y-79799552D01*
X185242012Y-79817301D01*
X185281769Y-79843867D01*
X185340252Y-79855500D01*
X185340255Y-79855500D01*
X187889745Y-79855500D01*
X187889748Y-79855500D01*
X187948231Y-79843867D01*
X188014552Y-79799552D01*
X188058867Y-79733231D01*
X188070500Y-79674748D01*
X188070500Y-79654500D01*
X188084852Y-79619852D01*
X188119500Y-79605500D01*
X190198101Y-79605500D01*
X190232748Y-79619851D01*
X192473386Y-81860490D01*
X192576113Y-81919799D01*
X192600326Y-81926286D01*
X192645508Y-81938393D01*
X192690689Y-81950500D01*
X192690691Y-81950500D01*
X214293101Y-81950500D01*
X214327749Y-81964852D01*
X223735148Y-91372251D01*
X223749500Y-91406899D01*
X223749500Y-92940500D01*
X223735148Y-92975148D01*
X223700500Y-92989500D01*
X223480252Y-92989500D01*
X223423659Y-93000757D01*
X223421769Y-93001133D01*
X223355447Y-93045447D01*
X223324037Y-93092457D01*
X223311133Y-93111769D01*
X223299500Y-93170252D01*
X223299500Y-95609748D01*
X223311133Y-95668231D01*
X223328882Y-95694795D01*
X223355447Y-95734552D01*
X223382012Y-95752301D01*
X223421769Y-95778867D01*
X223480252Y-95790500D01*
X223480255Y-95790500D01*
X224919745Y-95790500D01*
X224919748Y-95790500D01*
X224978231Y-95778867D01*
X225044552Y-95734552D01*
X225088867Y-95668231D01*
X225100500Y-95609748D01*
X225100500Y-93170252D01*
X225088867Y-93111769D01*
X225062301Y-93072012D01*
X225044552Y-93045447D01*
X225004795Y-93018882D01*
X224978231Y-93001133D01*
X224919748Y-92989500D01*
X224919745Y-92989500D01*
X224699500Y-92989500D01*
X224664852Y-92975148D01*
X224650500Y-92940500D01*
X224650500Y-91140688D01*
X224619799Y-91026115D01*
X224619798Y-91026111D01*
X224560494Y-90923393D01*
X224560491Y-90923390D01*
X224560490Y-90923387D01*
X214776614Y-81139511D01*
X214737224Y-81116769D01*
X214673888Y-81080201D01*
X214673886Y-81080200D01*
X214649673Y-81073713D01*
X214619551Y-81065642D01*
X214559311Y-81049500D01*
X214559309Y-81049500D01*
X192956900Y-81049500D01*
X192922252Y-81035148D01*
X190681615Y-78794512D01*
X190681614Y-78794511D01*
X190578888Y-78735201D01*
X190578886Y-78735200D01*
X190538953Y-78724501D01*
X190514071Y-78717834D01*
X190464311Y-78704500D01*
X190464309Y-78704500D01*
X188119500Y-78704500D01*
X188084852Y-78690148D01*
X188070500Y-78655500D01*
X188070500Y-78635255D01*
X188070500Y-78635252D01*
X188058867Y-78576769D01*
X188032301Y-78537012D01*
X188014552Y-78510447D01*
X187974795Y-78483882D01*
X187948231Y-78466133D01*
X187889748Y-78454500D01*
X185340252Y-78454500D01*
X185281769Y-78466133D01*
X185215447Y-78510447D01*
X185171133Y-78576769D01*
X185159500Y-78635252D01*
X184150500Y-78635252D01*
X184150500Y-77756899D01*
X184164852Y-77722251D01*
X185791851Y-76095252D01*
X188469500Y-76095252D01*
X188469500Y-77134748D01*
X188481133Y-77193231D01*
X188481646Y-77193998D01*
X188525447Y-77259552D01*
X188546478Y-77273604D01*
X188591769Y-77303867D01*
X188650252Y-77315500D01*
X189968101Y-77315500D01*
X190002749Y-77329852D01*
X193033386Y-80360489D01*
X193136113Y-80419799D01*
X193160326Y-80426286D01*
X193205508Y-80438393D01*
X193250689Y-80450500D01*
X193250691Y-80450500D01*
X215543101Y-80450500D01*
X215577749Y-80464852D01*
X226335148Y-91222251D01*
X226349500Y-91256899D01*
X226349500Y-92940500D01*
X226335148Y-92975148D01*
X226300500Y-92989500D01*
X226020252Y-92989500D01*
X225963659Y-93000757D01*
X225961769Y-93001133D01*
X225895447Y-93045447D01*
X225864037Y-93092457D01*
X225851133Y-93111769D01*
X225839500Y-93170252D01*
X225839500Y-95609748D01*
X225851133Y-95668231D01*
X225868882Y-95694795D01*
X225895447Y-95734552D01*
X225922012Y-95752301D01*
X225961769Y-95778867D01*
X226020252Y-95790500D01*
X226020255Y-95790500D01*
X227459745Y-95790500D01*
X227459748Y-95790500D01*
X227518231Y-95778867D01*
X227584552Y-95734552D01*
X227628867Y-95668231D01*
X227640500Y-95609748D01*
X227640500Y-93170252D01*
X227628867Y-93111769D01*
X227602301Y-93072012D01*
X227584552Y-93045447D01*
X227544795Y-93018882D01*
X227518231Y-93001133D01*
X227459748Y-92989500D01*
X227459745Y-92989500D01*
X227299500Y-92989500D01*
X227264852Y-92975148D01*
X227250500Y-92940500D01*
X227250500Y-90990688D01*
X227221469Y-90882346D01*
X227221468Y-90882342D01*
X227221468Y-90882343D01*
X227219799Y-90876114D01*
X227219799Y-90876113D01*
X227160489Y-90773386D01*
X216026614Y-79639511D01*
X215967706Y-79605500D01*
X215923888Y-79580201D01*
X215923886Y-79580200D01*
X215899673Y-79573713D01*
X215868940Y-79565478D01*
X215809311Y-79549500D01*
X215809309Y-79549500D01*
X193516899Y-79549500D01*
X193482251Y-79535148D01*
X191296097Y-77348994D01*
X191281745Y-77314346D01*
X191296097Y-77279698D01*
X191303522Y-77273604D01*
X191324552Y-77259552D01*
X191368867Y-77193231D01*
X191380500Y-77134748D01*
X191380500Y-76095252D01*
X191368867Y-76036769D01*
X191342301Y-75997012D01*
X191324552Y-75970447D01*
X191284795Y-75943882D01*
X191258231Y-75926133D01*
X191199748Y-75914500D01*
X188650252Y-75914500D01*
X188591769Y-75926133D01*
X188525447Y-75970447D01*
X188481133Y-76036769D01*
X188469500Y-76095252D01*
X185791851Y-76095252D01*
X186172251Y-75714852D01*
X186206899Y-75700500D01*
X192793101Y-75700500D01*
X192827749Y-75714852D01*
X196223386Y-79110489D01*
X196273652Y-79139510D01*
X196326111Y-79169798D01*
X196326113Y-79169798D01*
X196326114Y-79169799D01*
X196354758Y-79177474D01*
X196440688Y-79200500D01*
X196440691Y-79200500D01*
X217543101Y-79200500D01*
X217577749Y-79214852D01*
X225743386Y-87380489D01*
X225846113Y-87439799D01*
X225870326Y-87446286D01*
X225915508Y-87458393D01*
X225960689Y-87470500D01*
X225960691Y-87470500D01*
X232950500Y-87470500D01*
X232985148Y-87484852D01*
X232999500Y-87519500D01*
X232999500Y-87839748D01*
X233011133Y-87898231D01*
X233021039Y-87913056D01*
X233055447Y-87964552D01*
X233082012Y-87982301D01*
X233121769Y-88008867D01*
X233180252Y-88020500D01*
X233180255Y-88020500D01*
X235219745Y-88020500D01*
X235219748Y-88020500D01*
X235278231Y-88008867D01*
X235344552Y-87964552D01*
X235388867Y-87898231D01*
X235400500Y-87839748D01*
X235400500Y-86200252D01*
X235388867Y-86141769D01*
X235351692Y-86086133D01*
X235344552Y-86075447D01*
X235304795Y-86048882D01*
X235278231Y-86031133D01*
X235219748Y-86019500D01*
X233180252Y-86019500D01*
X233121769Y-86031133D01*
X233055447Y-86075447D01*
X233011133Y-86141769D01*
X232999500Y-86200252D01*
X232999500Y-86200255D01*
X232999500Y-86520500D01*
X232985148Y-86555148D01*
X232950500Y-86569500D01*
X226226899Y-86569500D01*
X226192251Y-86555148D01*
X224281732Y-84644629D01*
X232950000Y-84644629D01*
X232964503Y-84717542D01*
X233019759Y-84800240D01*
X233102457Y-84855496D01*
X233175370Y-84869999D01*
X233175376Y-84870000D01*
X233700000Y-84870000D01*
X234700000Y-84870000D01*
X235224624Y-84870000D01*
X235224629Y-84869999D01*
X235297542Y-84855496D01*
X235380240Y-84800240D01*
X235435496Y-84717542D01*
X235449999Y-84644629D01*
X235450000Y-84644624D01*
X235450000Y-84320000D01*
X234700000Y-84320000D01*
X234700000Y-84870000D01*
X233700000Y-84870000D01*
X233700000Y-84320000D01*
X232950000Y-84320000D01*
X232950000Y-84644629D01*
X224281732Y-84644629D01*
X222632473Y-82995370D01*
X232950000Y-82995370D01*
X232950000Y-83320000D01*
X233700000Y-83320000D01*
X234700000Y-83320000D01*
X235450000Y-83320000D01*
X235450000Y-82995376D01*
X235449999Y-82995370D01*
X235435496Y-82922457D01*
X235380240Y-82839759D01*
X235297542Y-82784503D01*
X235224629Y-82770000D01*
X234700000Y-82770000D01*
X234700000Y-83320000D01*
X233700000Y-83320000D01*
X233700000Y-82770000D01*
X233175370Y-82770000D01*
X233102457Y-82784503D01*
X233019759Y-82839759D01*
X232964503Y-82922457D01*
X232950000Y-82995370D01*
X222632473Y-82995370D01*
X218026614Y-78389511D01*
X217923888Y-78330201D01*
X217923886Y-78330200D01*
X217899673Y-78323713D01*
X217869551Y-78315642D01*
X217809311Y-78299500D01*
X217809309Y-78299500D01*
X196706899Y-78299500D01*
X196672251Y-78285148D01*
X193276614Y-74889511D01*
X193173888Y-74830201D01*
X193173886Y-74830200D01*
X193149673Y-74823713D01*
X193119551Y-74815642D01*
X193059311Y-74799500D01*
X193059309Y-74799500D01*
X186059309Y-74799500D01*
X185890691Y-74799500D01*
X185890688Y-74799500D01*
X185776115Y-74830200D01*
X185776112Y-74830201D01*
X185673386Y-74889511D01*
X185673386Y-74889512D01*
X185589512Y-74973386D01*
X185589511Y-74973386D01*
X185530199Y-75076116D01*
X185529274Y-75078350D01*
X185518655Y-75094240D01*
X183339512Y-77273384D01*
X183339511Y-77273385D01*
X183280201Y-77376111D01*
X183278532Y-77382343D01*
X183278531Y-77382342D01*
X183278531Y-77382346D01*
X183249500Y-77490688D01*
X183249500Y-79293100D01*
X183235148Y-79327748D01*
X180615511Y-81947385D01*
X180556201Y-82050111D01*
X180554532Y-82056343D01*
X180554531Y-82056342D01*
X180554531Y-82056346D01*
X180525500Y-82164688D01*
X180525500Y-84150500D01*
X180511148Y-84185148D01*
X180476500Y-84199500D01*
X179686934Y-84199500D01*
X179686924Y-84199500D01*
X179686922Y-84199501D01*
X179657187Y-84202289D01*
X179657178Y-84202290D01*
X179531840Y-84246149D01*
X179425000Y-84325000D01*
X179346149Y-84431840D01*
X179302290Y-84557178D01*
X179302289Y-84557187D01*
X179299501Y-84586922D01*
X179299500Y-84586943D01*
X177000000Y-84586943D01*
X177000000Y-77056001D01*
X177099500Y-77056001D01*
X177099500Y-77193998D01*
X177126417Y-77329318D01*
X177126420Y-77329329D01*
X177179223Y-77456807D01*
X177179225Y-77456811D01*
X177201861Y-77490688D01*
X177255883Y-77571539D01*
X177353460Y-77669116D01*
X177399102Y-77699613D01*
X177468189Y-77745775D01*
X177595672Y-77798580D01*
X177595678Y-77798581D01*
X177595681Y-77798582D01*
X177731001Y-77825499D01*
X177731007Y-77825500D01*
X177868993Y-77825500D01*
X178004328Y-77798580D01*
X178131811Y-77745775D01*
X178246542Y-77669114D01*
X178344114Y-77571542D01*
X178420775Y-77456811D01*
X178473580Y-77329328D01*
X178500500Y-77193993D01*
X178500500Y-77056007D01*
X178473580Y-76920672D01*
X178420775Y-76793189D01*
X178374613Y-76724102D01*
X178344116Y-76678460D01*
X178246539Y-76580883D01*
X178178074Y-76535137D01*
X178131811Y-76504225D01*
X178131808Y-76504223D01*
X178131807Y-76504223D01*
X178004329Y-76451420D01*
X178004318Y-76451417D01*
X177868998Y-76424500D01*
X177868993Y-76424500D01*
X177731007Y-76424500D01*
X177731001Y-76424500D01*
X177595681Y-76451417D01*
X177595670Y-76451420D01*
X177468192Y-76504223D01*
X177353460Y-76580883D01*
X177255883Y-76678460D01*
X177179223Y-76793192D01*
X177126420Y-76920670D01*
X177126417Y-76920681D01*
X177099500Y-77056001D01*
X177000000Y-77056001D01*
X177000000Y-73705252D01*
X177624500Y-73705252D01*
X177624500Y-75294748D01*
X177636133Y-75353231D01*
X177653882Y-75379795D01*
X177680447Y-75419552D01*
X177707012Y-75437301D01*
X177746769Y-75463867D01*
X177805252Y-75475500D01*
X178600500Y-75475500D01*
X178635148Y-75489852D01*
X178649500Y-75524500D01*
X178649500Y-78725500D01*
X178635148Y-78760148D01*
X178600500Y-78774500D01*
X177805252Y-78774500D01*
X177746769Y-78786133D01*
X177680447Y-78830447D01*
X177649037Y-78877457D01*
X177636133Y-78896769D01*
X177624500Y-78955252D01*
X177624500Y-80544748D01*
X177636133Y-80603231D01*
X177653882Y-80629795D01*
X177680447Y-80669552D01*
X177707012Y-80687301D01*
X177746769Y-80713867D01*
X177805252Y-80725500D01*
X177805255Y-80725500D01*
X178844745Y-80725500D01*
X178844748Y-80725500D01*
X178903231Y-80713867D01*
X178969552Y-80669552D01*
X179013867Y-80603231D01*
X179024529Y-80549629D01*
X179275000Y-80549629D01*
X179289503Y-80622542D01*
X179344759Y-80705240D01*
X179427457Y-80760496D01*
X179500370Y-80774999D01*
X179500376Y-80775000D01*
X179525000Y-80775000D01*
X180525000Y-80775000D01*
X180549624Y-80775000D01*
X180549629Y-80774999D01*
X180622542Y-80760496D01*
X180705240Y-80705240D01*
X180760496Y-80622542D01*
X180774999Y-80549629D01*
X180775000Y-80549624D01*
X180775000Y-80250000D01*
X180525000Y-80250000D01*
X180525000Y-80775000D01*
X179525000Y-80775000D01*
X179525000Y-80250000D01*
X179275000Y-80250000D01*
X179275000Y-80549629D01*
X179024529Y-80549629D01*
X179025500Y-80544748D01*
X179025500Y-79565478D01*
X179039852Y-79530830D01*
X179280470Y-79290212D01*
X179289540Y-79274501D01*
X179319292Y-79251670D01*
X179331976Y-79250000D01*
X179525000Y-79250000D01*
X180525000Y-79250000D01*
X180775000Y-79250000D01*
X180775000Y-78950376D01*
X180774999Y-78950370D01*
X180760496Y-78877457D01*
X180705240Y-78794759D01*
X180622542Y-78739503D01*
X180549629Y-78725000D01*
X180525000Y-78725000D01*
X180525000Y-79250000D01*
X179525000Y-79250000D01*
X179525000Y-78725000D01*
X179500370Y-78725000D01*
X179427456Y-78739504D01*
X179426720Y-78739996D01*
X179425852Y-78740168D01*
X179422998Y-78741351D01*
X179422762Y-78740782D01*
X179389937Y-78747310D01*
X179358756Y-78726472D01*
X179350500Y-78699252D01*
X179350500Y-77056001D01*
X179849500Y-77056001D01*
X179849500Y-77193998D01*
X179876417Y-77329318D01*
X179876420Y-77329329D01*
X179929223Y-77456807D01*
X179929225Y-77456811D01*
X179951861Y-77490688D01*
X180005883Y-77571539D01*
X180103460Y-77669116D01*
X180149102Y-77699613D01*
X180218189Y-77745775D01*
X180345672Y-77798580D01*
X180345678Y-77798581D01*
X180345681Y-77798582D01*
X180481001Y-77825499D01*
X180481007Y-77825500D01*
X180618993Y-77825500D01*
X180754328Y-77798580D01*
X180881811Y-77745775D01*
X180996542Y-77669114D01*
X181094114Y-77571542D01*
X181170775Y-77456811D01*
X181223580Y-77329328D01*
X181250500Y-77193993D01*
X181250500Y-77056007D01*
X181223580Y-76920672D01*
X181170775Y-76793189D01*
X181124613Y-76724102D01*
X181094116Y-76678460D01*
X180996539Y-76580883D01*
X180928074Y-76535137D01*
X180881811Y-76504225D01*
X180881808Y-76504223D01*
X180881807Y-76504223D01*
X180754329Y-76451420D01*
X180754318Y-76451417D01*
X180618998Y-76424500D01*
X180618993Y-76424500D01*
X180481007Y-76424500D01*
X180481001Y-76424500D01*
X180345681Y-76451417D01*
X180345670Y-76451420D01*
X180218192Y-76504223D01*
X180103460Y-76580883D01*
X180005883Y-76678460D01*
X179929223Y-76793192D01*
X179876420Y-76920670D01*
X179876417Y-76920681D01*
X179849500Y-77056001D01*
X179350500Y-77056001D01*
X179350500Y-75550747D01*
X179364852Y-75516099D01*
X179399500Y-75501747D01*
X179422914Y-75508850D01*
X179422998Y-75508649D01*
X179425045Y-75509497D01*
X179426726Y-75510007D01*
X179427458Y-75510496D01*
X179500370Y-75524999D01*
X179500376Y-75525000D01*
X179525000Y-75525000D01*
X180525000Y-75525000D01*
X180549624Y-75525000D01*
X180549629Y-75524999D01*
X180622542Y-75510496D01*
X180705240Y-75455240D01*
X180760496Y-75372542D01*
X180774999Y-75299629D01*
X180775000Y-75299624D01*
X180775000Y-75000000D01*
X180525000Y-75000000D01*
X180525000Y-75525000D01*
X179525000Y-75525000D01*
X179525000Y-75000000D01*
X179331976Y-75000000D01*
X179297328Y-74985648D01*
X179289540Y-74975498D01*
X179280474Y-74959794D01*
X179280471Y-74959791D01*
X179280470Y-74959788D01*
X179039852Y-74719170D01*
X179025500Y-74684522D01*
X179025500Y-73979899D01*
X179039852Y-73945251D01*
X179191352Y-73793751D01*
X179226000Y-73779399D01*
X179260648Y-73793751D01*
X179275000Y-73828399D01*
X179275000Y-74000000D01*
X179525000Y-74000000D01*
X180525000Y-74000000D01*
X180775000Y-74000000D01*
X180775000Y-73700376D01*
X180774999Y-73700370D01*
X180760496Y-73627457D01*
X180705240Y-73544759D01*
X180622542Y-73489503D01*
X180549629Y-73475000D01*
X180525000Y-73475000D01*
X180525000Y-74000000D01*
X179525000Y-74000000D01*
X179525000Y-73480399D01*
X179539352Y-73445751D01*
X180770251Y-72214852D01*
X180804899Y-72200500D01*
X186543101Y-72200500D01*
X186577749Y-72214852D01*
X188973386Y-74610489D01*
X189076113Y-74669799D01*
X189100326Y-74676286D01*
X189145508Y-74688393D01*
X189190689Y-74700500D01*
X189190691Y-74700500D01*
X211633101Y-74700500D01*
X211667749Y-74714852D01*
X213125148Y-76172251D01*
X213139500Y-76206899D01*
X213139500Y-77669748D01*
X213151133Y-77728231D01*
X213168882Y-77754795D01*
X213195447Y-77794552D01*
X213222012Y-77812301D01*
X213261769Y-77838867D01*
X213320252Y-77850500D01*
X213320255Y-77850500D01*
X214759745Y-77850500D01*
X214759748Y-77850500D01*
X214818231Y-77838867D01*
X214884552Y-77794552D01*
X214928867Y-77728231D01*
X214940500Y-77669748D01*
X214940500Y-75230252D01*
X214928867Y-75171769D01*
X214900193Y-75128856D01*
X214884552Y-75105447D01*
X214840651Y-75076114D01*
X214818231Y-75061133D01*
X214759748Y-75049500D01*
X213320252Y-75049500D01*
X213320249Y-75049500D01*
X213309529Y-75051632D01*
X213272747Y-75044313D01*
X213265325Y-75038221D01*
X212116615Y-73889512D01*
X212116614Y-73889511D01*
X212013888Y-73830201D01*
X212013886Y-73830200D01*
X211989673Y-73823713D01*
X211959551Y-73815642D01*
X211899311Y-73799500D01*
X211899309Y-73799500D01*
X189456899Y-73799500D01*
X189422251Y-73785148D01*
X188042616Y-72405513D01*
X189499500Y-72405513D01*
X189499500Y-72594480D01*
X189529059Y-72781115D01*
X189529060Y-72781118D01*
X189587453Y-72960833D01*
X189673236Y-73129193D01*
X189673239Y-73129197D01*
X189673240Y-73129199D01*
X189784310Y-73282073D01*
X189784312Y-73282075D01*
X189784315Y-73282079D01*
X189917920Y-73415684D01*
X189917923Y-73415686D01*
X189917927Y-73415690D01*
X190070801Y-73526760D01*
X190070803Y-73526761D01*
X190070806Y-73526763D01*
X190176168Y-73580447D01*
X190239168Y-73612547D01*
X190418882Y-73670940D01*
X190605519Y-73700500D01*
X190605520Y-73700500D01*
X190794480Y-73700500D01*
X190794481Y-73700500D01*
X190981118Y-73670940D01*
X191160832Y-73612547D01*
X191329199Y-73526760D01*
X191482073Y-73415690D01*
X191615690Y-73282073D01*
X191726760Y-73129199D01*
X191812547Y-72960832D01*
X191870940Y-72781118D01*
X191900500Y-72594481D01*
X191900500Y-72405519D01*
X191870940Y-72218882D01*
X191812547Y-72039168D01*
X191726760Y-71870801D01*
X191615690Y-71717927D01*
X191615686Y-71717923D01*
X191615684Y-71717920D01*
X191482079Y-71584315D01*
X191482080Y-71584315D01*
X191329193Y-71473236D01*
X191160833Y-71387453D01*
X190981118Y-71329060D01*
X190981115Y-71329059D01*
X190837744Y-71306352D01*
X190794481Y-71299500D01*
X190605519Y-71299500D01*
X190570397Y-71305062D01*
X190418884Y-71329059D01*
X190418881Y-71329060D01*
X190239166Y-71387453D01*
X190070806Y-71473236D01*
X189917920Y-71584315D01*
X189784315Y-71717920D01*
X189673236Y-71870806D01*
X189587453Y-72039166D01*
X189529060Y-72218881D01*
X189529059Y-72218884D01*
X189509240Y-72344018D01*
X189500052Y-72402032D01*
X189500052Y-72402034D01*
X189500051Y-72402033D01*
X189499500Y-72405513D01*
X188042616Y-72405513D01*
X187026614Y-71389511D01*
X186923888Y-71330201D01*
X186923886Y-71330200D01*
X186899673Y-71323713D01*
X186869551Y-71315642D01*
X186809311Y-71299500D01*
X186809309Y-71299500D01*
X180538691Y-71299500D01*
X180538688Y-71299500D01*
X180424118Y-71330199D01*
X180424112Y-71330202D01*
X180380696Y-71355268D01*
X180321385Y-71389511D01*
X180321385Y-71389512D01*
X178200749Y-73510148D01*
X178166101Y-73524500D01*
X177805252Y-73524500D01*
X177746769Y-73536133D01*
X177680447Y-73580447D01*
X177649037Y-73627457D01*
X177636133Y-73646769D01*
X177624500Y-73705252D01*
X177000000Y-73705252D01*
X177000000Y-70374629D01*
X178550000Y-70374629D01*
X178564503Y-70447542D01*
X178619759Y-70530240D01*
X178702457Y-70585496D01*
X178775370Y-70599999D01*
X178775376Y-70600000D01*
X179075000Y-70600000D01*
X180075000Y-70600000D01*
X180374624Y-70600000D01*
X180374629Y-70599999D01*
X180447542Y-70585496D01*
X180530240Y-70530240D01*
X180585496Y-70447542D01*
X180599999Y-70374629D01*
X180600000Y-70374624D01*
X180600000Y-70350000D01*
X180075000Y-70350000D01*
X180075000Y-70600000D01*
X179075000Y-70600000D01*
X179075000Y-70350000D01*
X178550000Y-70350000D01*
X178550000Y-70374629D01*
X177000000Y-70374629D01*
X177000000Y-70306001D01*
X181499500Y-70306001D01*
X181499500Y-70443998D01*
X181526417Y-70579318D01*
X181526420Y-70579329D01*
X181565587Y-70673886D01*
X181579225Y-70706811D01*
X181610137Y-70753074D01*
X181655883Y-70821539D01*
X181753460Y-70919116D01*
X181799102Y-70949613D01*
X181868189Y-70995775D01*
X181995672Y-71048580D01*
X181995678Y-71048581D01*
X181995681Y-71048582D01*
X182131001Y-71075499D01*
X182131007Y-71075500D01*
X182268993Y-71075500D01*
X182404328Y-71048580D01*
X182531811Y-70995775D01*
X182646542Y-70919114D01*
X182744114Y-70821542D01*
X182820775Y-70706811D01*
X182873580Y-70579328D01*
X182900500Y-70443993D01*
X182900500Y-70374629D01*
X183800000Y-70374629D01*
X183814503Y-70447542D01*
X183869759Y-70530240D01*
X183952457Y-70585496D01*
X184025370Y-70599999D01*
X184025376Y-70600000D01*
X184325000Y-70600000D01*
X185325000Y-70600000D01*
X185624624Y-70600000D01*
X185624629Y-70599999D01*
X185697542Y-70585496D01*
X185780240Y-70530240D01*
X185835496Y-70447542D01*
X185849999Y-70374629D01*
X185850000Y-70374624D01*
X185850000Y-70350000D01*
X185325000Y-70350000D01*
X185325000Y-70600000D01*
X184325000Y-70600000D01*
X184325000Y-70350000D01*
X183800000Y-70350000D01*
X183800000Y-70374629D01*
X182900500Y-70374629D01*
X182900500Y-70306007D01*
X182873580Y-70170672D01*
X182820775Y-70043189D01*
X182774613Y-69974102D01*
X182744116Y-69928460D01*
X182646539Y-69830883D01*
X182578074Y-69785137D01*
X182531811Y-69754225D01*
X182531808Y-69754223D01*
X182531807Y-69754223D01*
X182404329Y-69701420D01*
X182404318Y-69701417D01*
X182268998Y-69674500D01*
X182268993Y-69674500D01*
X182131007Y-69674500D01*
X182131001Y-69674500D01*
X181995681Y-69701417D01*
X181995670Y-69701420D01*
X181868192Y-69754223D01*
X181753460Y-69830883D01*
X181655883Y-69928460D01*
X181579223Y-70043192D01*
X181526420Y-70170670D01*
X181526417Y-70170681D01*
X181499500Y-70306001D01*
X177000000Y-70306001D01*
X177000000Y-69325370D01*
X178550000Y-69325370D01*
X178550000Y-69350000D01*
X179075000Y-69350000D01*
X179075000Y-69100000D01*
X178775370Y-69100000D01*
X178702457Y-69114503D01*
X178619759Y-69169759D01*
X178564503Y-69252457D01*
X178550000Y-69325370D01*
X177000000Y-69325370D01*
X177000000Y-69313448D01*
X177000689Y-69305260D01*
X177016728Y-69210629D01*
X177043715Y-69051402D01*
X177044924Y-69046092D01*
X177083897Y-68910477D01*
X177098410Y-68887414D01*
X178517925Y-67624046D01*
X178553347Y-67611733D01*
X178587103Y-67628073D01*
X178599500Y-67660650D01*
X178599500Y-68669748D01*
X178611133Y-68728231D01*
X178628882Y-68754795D01*
X178655447Y-68794552D01*
X178682012Y-68812301D01*
X178721769Y-68838867D01*
X178780252Y-68850500D01*
X179872022Y-68850500D01*
X179906670Y-68864852D01*
X180073761Y-69031943D01*
X180088113Y-69066591D01*
X180075000Y-69098247D01*
X180075000Y-69350000D01*
X180600000Y-69350000D01*
X180600000Y-69325376D01*
X180599999Y-69325370D01*
X180585496Y-69252457D01*
X180534893Y-69176723D01*
X180527577Y-69139940D01*
X180548412Y-69108758D01*
X180575635Y-69100500D01*
X183824365Y-69100500D01*
X183859013Y-69114852D01*
X183873365Y-69149500D01*
X183865107Y-69176723D01*
X183814503Y-69252457D01*
X183800000Y-69325370D01*
X183800000Y-69350000D01*
X184325000Y-69350000D01*
X185325000Y-69350000D01*
X185850000Y-69350000D01*
X185850000Y-69325376D01*
X185849999Y-69325370D01*
X185835496Y-69252457D01*
X185780240Y-69169759D01*
X185697542Y-69114503D01*
X185624629Y-69100000D01*
X185325000Y-69100000D01*
X185325000Y-69350000D01*
X184325000Y-69350000D01*
X184325000Y-69140415D01*
X184339352Y-69105767D01*
X184361315Y-69093085D01*
X184422788Y-69076614D01*
X184423656Y-69076113D01*
X184502712Y-69030470D01*
X184668330Y-68864852D01*
X184702978Y-68850500D01*
X185619745Y-68850500D01*
X185619748Y-68850500D01*
X185678231Y-68838867D01*
X185744552Y-68794552D01*
X185788867Y-68728231D01*
X185800500Y-68669748D01*
X185800500Y-68624500D01*
X185814852Y-68589852D01*
X185849500Y-68575500D01*
X189618101Y-68575500D01*
X189652749Y-68589852D01*
X194423386Y-73360489D01*
X194526113Y-73419799D01*
X194550326Y-73426286D01*
X194595508Y-73438393D01*
X194640689Y-73450500D01*
X194640691Y-73450500D01*
X214793101Y-73450500D01*
X214827749Y-73464852D01*
X216115148Y-74752251D01*
X216129500Y-74786899D01*
X216129500Y-75000500D01*
X216115148Y-75035148D01*
X216080500Y-75049500D01*
X215860252Y-75049500D01*
X215801769Y-75061133D01*
X215735447Y-75105447D01*
X215691133Y-75171769D01*
X215679500Y-75230252D01*
X215679500Y-77669748D01*
X215691133Y-77728231D01*
X215708882Y-77754795D01*
X215735447Y-77794552D01*
X215762012Y-77812301D01*
X215801769Y-77838867D01*
X215860252Y-77850500D01*
X215860255Y-77850500D01*
X217299745Y-77850500D01*
X217299748Y-77850500D01*
X217358231Y-77838867D01*
X217424552Y-77794552D01*
X217468867Y-77728231D01*
X217480500Y-77669748D01*
X217480500Y-75230252D01*
X217468867Y-75171769D01*
X217440193Y-75128856D01*
X217424552Y-75105447D01*
X217380651Y-75076114D01*
X217358231Y-75061133D01*
X217299748Y-75049500D01*
X217299745Y-75049500D01*
X217079500Y-75049500D01*
X217044852Y-75035148D01*
X217030500Y-75000500D01*
X217030500Y-74520688D01*
X216999799Y-74406115D01*
X216999798Y-74406111D01*
X216953611Y-74326114D01*
X216940488Y-74303385D01*
X215276614Y-72639511D01*
X215173888Y-72580201D01*
X215173886Y-72580200D01*
X215149673Y-72573713D01*
X215119551Y-72565642D01*
X215059311Y-72549500D01*
X215059309Y-72549500D01*
X194906899Y-72549500D01*
X194872251Y-72535148D01*
X192711732Y-70374629D01*
X194550000Y-70374629D01*
X194564503Y-70447542D01*
X194619759Y-70530240D01*
X194702457Y-70585496D01*
X194775370Y-70599999D01*
X194775376Y-70600000D01*
X195075000Y-70600000D01*
X196075000Y-70600000D01*
X196374624Y-70600000D01*
X196374629Y-70599999D01*
X196447542Y-70585496D01*
X196530240Y-70530240D01*
X196585496Y-70447542D01*
X196599999Y-70374629D01*
X196600000Y-70374624D01*
X196600000Y-70350000D01*
X196075000Y-70350000D01*
X196075000Y-70600000D01*
X195075000Y-70600000D01*
X195075000Y-70350000D01*
X194550000Y-70350000D01*
X194550000Y-70374629D01*
X192711732Y-70374629D01*
X192643104Y-70306001D01*
X197499500Y-70306001D01*
X197499500Y-70443998D01*
X197526417Y-70579318D01*
X197526420Y-70579329D01*
X197565587Y-70673886D01*
X197579225Y-70706811D01*
X197610137Y-70753074D01*
X197655883Y-70821539D01*
X197753460Y-70919116D01*
X197799102Y-70949613D01*
X197868189Y-70995775D01*
X197995672Y-71048580D01*
X197995678Y-71048581D01*
X197995681Y-71048582D01*
X198131001Y-71075499D01*
X198131007Y-71075500D01*
X198268993Y-71075500D01*
X198404328Y-71048580D01*
X198531811Y-70995775D01*
X198646542Y-70919114D01*
X198744114Y-70821542D01*
X198820775Y-70706811D01*
X198873580Y-70579328D01*
X198900500Y-70443993D01*
X198900500Y-70374629D01*
X199800000Y-70374629D01*
X199814503Y-70447542D01*
X199869759Y-70530240D01*
X199952457Y-70585496D01*
X200025370Y-70599999D01*
X200025376Y-70600000D01*
X200325000Y-70600000D01*
X201325000Y-70600000D01*
X201624624Y-70600000D01*
X201624629Y-70599999D01*
X201697542Y-70585496D01*
X201780240Y-70530240D01*
X201835496Y-70447542D01*
X201849999Y-70374629D01*
X201850000Y-70374624D01*
X201850000Y-70350000D01*
X201325000Y-70350000D01*
X201325000Y-70600000D01*
X200325000Y-70600000D01*
X200325000Y-70350000D01*
X199800000Y-70350000D01*
X199800000Y-70374629D01*
X198900500Y-70374629D01*
X198900500Y-70306007D01*
X198873580Y-70170672D01*
X198820775Y-70043189D01*
X198774613Y-69974102D01*
X198744116Y-69928460D01*
X198646539Y-69830883D01*
X198578074Y-69785137D01*
X198531811Y-69754225D01*
X198531808Y-69754223D01*
X198531807Y-69754223D01*
X198404329Y-69701420D01*
X198404318Y-69701417D01*
X198268998Y-69674500D01*
X198268993Y-69674500D01*
X198131007Y-69674500D01*
X198131001Y-69674500D01*
X197995681Y-69701417D01*
X197995670Y-69701420D01*
X197868192Y-69754223D01*
X197753460Y-69830883D01*
X197655883Y-69928460D01*
X197579223Y-70043192D01*
X197526420Y-70170670D01*
X197526417Y-70170681D01*
X197499500Y-70306001D01*
X192643104Y-70306001D01*
X191662473Y-69325370D01*
X194550000Y-69325370D01*
X194550000Y-69350000D01*
X195075000Y-69350000D01*
X195075000Y-69100000D01*
X194775370Y-69100000D01*
X194702457Y-69114503D01*
X194619759Y-69169759D01*
X194564503Y-69252457D01*
X194550000Y-69325370D01*
X191662473Y-69325370D01*
X190101614Y-67764511D01*
X189998888Y-67705201D01*
X189998886Y-67705200D01*
X189957057Y-67693993D01*
X189932804Y-67687494D01*
X189886830Y-67675175D01*
X189884311Y-67674500D01*
X189884309Y-67674500D01*
X185849269Y-67674500D01*
X185814621Y-67660148D01*
X185801542Y-67632498D01*
X185800969Y-67632613D01*
X185800513Y-67630322D01*
X185800505Y-67630305D01*
X185800500Y-67630255D01*
X185800500Y-67630252D01*
X194599500Y-67630252D01*
X194599500Y-68669748D01*
X194611133Y-68728231D01*
X194628882Y-68754795D01*
X194655447Y-68794552D01*
X194682012Y-68812301D01*
X194721769Y-68838867D01*
X194780252Y-68850500D01*
X195772022Y-68850500D01*
X195806670Y-68864852D01*
X195972287Y-69030469D01*
X196003885Y-69048712D01*
X196050500Y-69075626D01*
X196073330Y-69105378D01*
X196075000Y-69118060D01*
X196075000Y-69350000D01*
X196600000Y-69350000D01*
X196600000Y-69325376D01*
X196599999Y-69325370D01*
X196585496Y-69252457D01*
X196534893Y-69176723D01*
X196527577Y-69139940D01*
X196548412Y-69108758D01*
X196575635Y-69100500D01*
X199824365Y-69100500D01*
X199859013Y-69114852D01*
X199873365Y-69149500D01*
X199865107Y-69176723D01*
X199814503Y-69252457D01*
X199800000Y-69325370D01*
X199800000Y-69350000D01*
X200325000Y-69350000D01*
X201325000Y-69350000D01*
X201850000Y-69350000D01*
X201850000Y-69325376D01*
X201849999Y-69325370D01*
X201835496Y-69252457D01*
X201780240Y-69169759D01*
X201697542Y-69114503D01*
X201624629Y-69100000D01*
X201325000Y-69100000D01*
X201325000Y-69350000D01*
X200325000Y-69350000D01*
X200325000Y-69103627D01*
X200327534Y-69097509D01*
X200326670Y-69090945D01*
X200334456Y-69080797D01*
X200339352Y-69068979D01*
X200349500Y-69061192D01*
X200352811Y-69059279D01*
X200402712Y-69030470D01*
X200568330Y-68864852D01*
X200602978Y-68850500D01*
X201619745Y-68850500D01*
X201619748Y-68850500D01*
X201678231Y-68838867D01*
X201744552Y-68794552D01*
X201788867Y-68728231D01*
X201800500Y-68669748D01*
X201800500Y-68624500D01*
X201814852Y-68589852D01*
X201849500Y-68575500D01*
X203418101Y-68575500D01*
X203452749Y-68589852D01*
X206973386Y-72110489D01*
X207076113Y-72169799D01*
X207100326Y-72176286D01*
X207145508Y-72188393D01*
X207190689Y-72200500D01*
X207190691Y-72200500D01*
X216293101Y-72200500D01*
X216327749Y-72214852D01*
X218705148Y-74592251D01*
X218719500Y-74626899D01*
X218719500Y-75000500D01*
X218705148Y-75035148D01*
X218670500Y-75049500D01*
X218400252Y-75049500D01*
X218341769Y-75061133D01*
X218275447Y-75105447D01*
X218231133Y-75171769D01*
X218219500Y-75230252D01*
X218219500Y-77669748D01*
X218231133Y-77728231D01*
X218248882Y-77754795D01*
X218275447Y-77794552D01*
X218302012Y-77812301D01*
X218341769Y-77838867D01*
X218400252Y-77850500D01*
X218400255Y-77850500D01*
X219839745Y-77850500D01*
X219839748Y-77850500D01*
X219898231Y-77838867D01*
X219964552Y-77794552D01*
X220008867Y-77728231D01*
X220020500Y-77669748D01*
X220020500Y-75230252D01*
X220008867Y-75171769D01*
X219980193Y-75128856D01*
X219964552Y-75105447D01*
X219920651Y-75076114D01*
X219898231Y-75061133D01*
X219839748Y-75049500D01*
X219839745Y-75049500D01*
X219669500Y-75049500D01*
X219634852Y-75035148D01*
X219620500Y-75000500D01*
X219620500Y-74360688D01*
X219591469Y-74252346D01*
X219591468Y-74252342D01*
X219591468Y-74252343D01*
X219589799Y-74246114D01*
X219589799Y-74246113D01*
X219530489Y-74143386D01*
X216776614Y-71389511D01*
X216673888Y-71330201D01*
X216673886Y-71330200D01*
X216649673Y-71323713D01*
X216619551Y-71315642D01*
X216559311Y-71299500D01*
X216559309Y-71299500D01*
X207456899Y-71299500D01*
X207422251Y-71285148D01*
X206511732Y-70374629D01*
X211550000Y-70374629D01*
X211564503Y-70447542D01*
X211619759Y-70530240D01*
X211702457Y-70585496D01*
X211775370Y-70599999D01*
X211775376Y-70600000D01*
X212075000Y-70600000D01*
X213075000Y-70600000D01*
X213374624Y-70600000D01*
X213374629Y-70599999D01*
X213447542Y-70585496D01*
X213530240Y-70530240D01*
X213585496Y-70447542D01*
X213599999Y-70374629D01*
X213600000Y-70374624D01*
X213600000Y-70350000D01*
X213075000Y-70350000D01*
X213075000Y-70600000D01*
X212075000Y-70600000D01*
X212075000Y-70350000D01*
X211550000Y-70350000D01*
X211550000Y-70374629D01*
X206511732Y-70374629D01*
X206443104Y-70306001D01*
X214499500Y-70306001D01*
X214499500Y-70443998D01*
X214526417Y-70579318D01*
X214526420Y-70579329D01*
X214565587Y-70673886D01*
X214579225Y-70706811D01*
X214610137Y-70753074D01*
X214655883Y-70821539D01*
X214753460Y-70919116D01*
X214799102Y-70949613D01*
X214868189Y-70995775D01*
X214995672Y-71048580D01*
X214995678Y-71048581D01*
X214995681Y-71048582D01*
X215131001Y-71075499D01*
X215131007Y-71075500D01*
X215268993Y-71075500D01*
X215404328Y-71048580D01*
X215531811Y-70995775D01*
X215646542Y-70919114D01*
X215744114Y-70821542D01*
X215820775Y-70706811D01*
X215873580Y-70579328D01*
X215900500Y-70443993D01*
X215900500Y-70374629D01*
X216800000Y-70374629D01*
X216814503Y-70447542D01*
X216869759Y-70530240D01*
X216952457Y-70585496D01*
X217025370Y-70599999D01*
X217025376Y-70600000D01*
X217325000Y-70600000D01*
X218325000Y-70600000D01*
X218624624Y-70600000D01*
X218624629Y-70599999D01*
X218697542Y-70585496D01*
X218780240Y-70530240D01*
X218835496Y-70447542D01*
X218849999Y-70374629D01*
X218850000Y-70374624D01*
X218850000Y-70350000D01*
X218325000Y-70350000D01*
X218325000Y-70600000D01*
X217325000Y-70600000D01*
X217325000Y-70350000D01*
X216800000Y-70350000D01*
X216800000Y-70374629D01*
X215900500Y-70374629D01*
X215900500Y-70306007D01*
X215873580Y-70170672D01*
X215820775Y-70043189D01*
X215774613Y-69974102D01*
X215744116Y-69928460D01*
X215646539Y-69830883D01*
X215578074Y-69785137D01*
X215531811Y-69754225D01*
X215531808Y-69754223D01*
X215531807Y-69754223D01*
X215404329Y-69701420D01*
X215404318Y-69701417D01*
X215268998Y-69674500D01*
X215268993Y-69674500D01*
X215131007Y-69674500D01*
X215131001Y-69674500D01*
X214995681Y-69701417D01*
X214995670Y-69701420D01*
X214868192Y-69754223D01*
X214753460Y-69830883D01*
X214655883Y-69928460D01*
X214579223Y-70043192D01*
X214526420Y-70170670D01*
X214526417Y-70170681D01*
X214499500Y-70306001D01*
X206443104Y-70306001D01*
X205462473Y-69325370D01*
X211550000Y-69325370D01*
X211550000Y-69350000D01*
X212075000Y-69350000D01*
X212075000Y-69100000D01*
X211775370Y-69100000D01*
X211702457Y-69114503D01*
X211619759Y-69169759D01*
X211564503Y-69252457D01*
X211550000Y-69325370D01*
X205462473Y-69325370D01*
X203901614Y-67764511D01*
X203798888Y-67705201D01*
X203798886Y-67705200D01*
X203757057Y-67693993D01*
X203732804Y-67687494D01*
X203686830Y-67675175D01*
X203684311Y-67674500D01*
X203684309Y-67674500D01*
X201849269Y-67674500D01*
X201814621Y-67660148D01*
X201801542Y-67632498D01*
X201800969Y-67632613D01*
X201800513Y-67630322D01*
X201800505Y-67630305D01*
X201800500Y-67630255D01*
X201800500Y-67630252D01*
X211599500Y-67630252D01*
X211599500Y-68669748D01*
X211611133Y-68728231D01*
X211628882Y-68754795D01*
X211655447Y-68794552D01*
X211682012Y-68812301D01*
X211721769Y-68838867D01*
X211780252Y-68850500D01*
X212772022Y-68850500D01*
X212806670Y-68864852D01*
X212972287Y-69030469D01*
X213003885Y-69048712D01*
X213050500Y-69075626D01*
X213073330Y-69105378D01*
X213075000Y-69118060D01*
X213075000Y-69350000D01*
X213600000Y-69350000D01*
X213600000Y-69325376D01*
X213599999Y-69325370D01*
X213585496Y-69252457D01*
X213534893Y-69176723D01*
X213527577Y-69139940D01*
X213548412Y-69108758D01*
X213575635Y-69100500D01*
X216824365Y-69100500D01*
X216859013Y-69114852D01*
X216873365Y-69149500D01*
X216865107Y-69176723D01*
X216814503Y-69252457D01*
X216800000Y-69325370D01*
X216800000Y-69350000D01*
X217325000Y-69350000D01*
X218325000Y-69350000D01*
X218850000Y-69350000D01*
X218850000Y-69325376D01*
X218849999Y-69325370D01*
X218835496Y-69252457D01*
X218780240Y-69169759D01*
X218697542Y-69114503D01*
X218624629Y-69100000D01*
X218325000Y-69100000D01*
X218325000Y-69350000D01*
X217325000Y-69350000D01*
X217325000Y-69103627D01*
X217327534Y-69097509D01*
X217326670Y-69090945D01*
X217334456Y-69080797D01*
X217339352Y-69068979D01*
X217349500Y-69061192D01*
X217352811Y-69059279D01*
X217402712Y-69030470D01*
X217568330Y-68864852D01*
X217602978Y-68850500D01*
X218619745Y-68850500D01*
X218619748Y-68850500D01*
X218678231Y-68838867D01*
X218744552Y-68794552D01*
X218788867Y-68728231D01*
X218800500Y-68669748D01*
X218800500Y-68624500D01*
X218814852Y-68589852D01*
X218849500Y-68575500D01*
X218918101Y-68575500D01*
X218952749Y-68589852D01*
X221195148Y-70832251D01*
X221209500Y-70866899D01*
X221209500Y-75000500D01*
X221195148Y-75035148D01*
X221160500Y-75049500D01*
X220940252Y-75049500D01*
X220881769Y-75061133D01*
X220815447Y-75105447D01*
X220771133Y-75171769D01*
X220759500Y-75230252D01*
X220759500Y-77669748D01*
X220771133Y-77728231D01*
X220788882Y-77754795D01*
X220815447Y-77794552D01*
X220842012Y-77812301D01*
X220881769Y-77838867D01*
X220940252Y-77850500D01*
X220940255Y-77850500D01*
X222379745Y-77850500D01*
X222379748Y-77850500D01*
X222438231Y-77838867D01*
X222504552Y-77794552D01*
X222548867Y-77728231D01*
X222560500Y-77669748D01*
X222560500Y-75230252D01*
X223299500Y-75230252D01*
X223299500Y-77669748D01*
X223311133Y-77728231D01*
X223328882Y-77754795D01*
X223355447Y-77794552D01*
X223382012Y-77812301D01*
X223421769Y-77838867D01*
X223480252Y-77850500D01*
X223480255Y-77850500D01*
X224919745Y-77850500D01*
X224919748Y-77850500D01*
X224978231Y-77838867D01*
X225044552Y-77794552D01*
X225088867Y-77728231D01*
X225100500Y-77669748D01*
X225100500Y-75230252D01*
X225088867Y-75171769D01*
X225060193Y-75128856D01*
X225044552Y-75105447D01*
X225000651Y-75076114D01*
X224978231Y-75061133D01*
X224919748Y-75049500D01*
X223480252Y-75049500D01*
X223421769Y-75061133D01*
X223355447Y-75105447D01*
X223311133Y-75171769D01*
X223299500Y-75230252D01*
X222560500Y-75230252D01*
X222548867Y-75171769D01*
X222520193Y-75128856D01*
X222504552Y-75105447D01*
X222460651Y-75076114D01*
X222438231Y-75061133D01*
X222379748Y-75049500D01*
X222379745Y-75049500D01*
X222159500Y-75049500D01*
X222124852Y-75035148D01*
X222110500Y-75000500D01*
X222110500Y-70600688D01*
X222079799Y-70486115D01*
X222079798Y-70486111D01*
X222053574Y-70440691D01*
X222020488Y-70383385D01*
X220827791Y-69190688D01*
X223299500Y-69190688D01*
X223299500Y-70559310D01*
X223323713Y-70649672D01*
X223323713Y-70649673D01*
X223330200Y-70673886D01*
X223330201Y-70673888D01*
X223389511Y-70776614D01*
X226275148Y-73662251D01*
X226289500Y-73696899D01*
X226289500Y-75000500D01*
X226275148Y-75035148D01*
X226240500Y-75049500D01*
X226020252Y-75049500D01*
X225961769Y-75061133D01*
X225895447Y-75105447D01*
X225851133Y-75171769D01*
X225839500Y-75230252D01*
X225839500Y-77669748D01*
X225851133Y-77728231D01*
X225868882Y-77754795D01*
X225895447Y-77794552D01*
X225922012Y-77812301D01*
X225961769Y-77838867D01*
X226020252Y-77850500D01*
X226020255Y-77850500D01*
X227459745Y-77850500D01*
X227459748Y-77850500D01*
X227518231Y-77838867D01*
X227584552Y-77794552D01*
X227628867Y-77728231D01*
X227640500Y-77669748D01*
X227640500Y-75230252D01*
X228379500Y-75230252D01*
X228379500Y-77669748D01*
X228391133Y-77728231D01*
X228408882Y-77754795D01*
X228435447Y-77794552D01*
X228462012Y-77812301D01*
X228501769Y-77838867D01*
X228560252Y-77850500D01*
X228560255Y-77850500D01*
X229999745Y-77850500D01*
X229999748Y-77850500D01*
X230058231Y-77838867D01*
X230124552Y-77794552D01*
X230168867Y-77728231D01*
X230180500Y-77669748D01*
X230180500Y-75230252D01*
X230919500Y-75230252D01*
X230919500Y-77669748D01*
X230931133Y-77728231D01*
X230948882Y-77754795D01*
X230975447Y-77794552D01*
X231002012Y-77812301D01*
X231041769Y-77838867D01*
X231100252Y-77850500D01*
X231100255Y-77850500D01*
X232539745Y-77850500D01*
X232539748Y-77850500D01*
X232598231Y-77838867D01*
X232664552Y-77794552D01*
X232708867Y-77728231D01*
X232720500Y-77669748D01*
X232720500Y-75230252D01*
X233459500Y-75230252D01*
X233459500Y-77669748D01*
X233471133Y-77728231D01*
X233488882Y-77754795D01*
X233515447Y-77794552D01*
X233542012Y-77812301D01*
X233581769Y-77838867D01*
X233640252Y-77850500D01*
X233640255Y-77850500D01*
X235079745Y-77850500D01*
X235079748Y-77850500D01*
X235138231Y-77838867D01*
X235204552Y-77794552D01*
X235248867Y-77728231D01*
X235260500Y-77669748D01*
X235260500Y-75230252D01*
X235248867Y-75171769D01*
X235220193Y-75128856D01*
X235204552Y-75105447D01*
X235160651Y-75076114D01*
X235138231Y-75061133D01*
X235079748Y-75049500D01*
X233640252Y-75049500D01*
X233581769Y-75061133D01*
X233515447Y-75105447D01*
X233471133Y-75171769D01*
X233459500Y-75230252D01*
X232720500Y-75230252D01*
X232708867Y-75171769D01*
X232680193Y-75128856D01*
X232664552Y-75105447D01*
X232620651Y-75076114D01*
X232598231Y-75061133D01*
X232539748Y-75049500D01*
X231100252Y-75049500D01*
X231041769Y-75061133D01*
X230975447Y-75105447D01*
X230931133Y-75171769D01*
X230919500Y-75230252D01*
X230180500Y-75230252D01*
X230168867Y-75171769D01*
X230140193Y-75128856D01*
X230124552Y-75105447D01*
X230080651Y-75076114D01*
X230058231Y-75061133D01*
X229999748Y-75049500D01*
X228560252Y-75049500D01*
X228501769Y-75061133D01*
X228435447Y-75105447D01*
X228391133Y-75171769D01*
X228379500Y-75230252D01*
X227640500Y-75230252D01*
X227628867Y-75171769D01*
X227600193Y-75128856D01*
X227584552Y-75105447D01*
X227540651Y-75076114D01*
X227518231Y-75061133D01*
X227459748Y-75049500D01*
X227459745Y-75049500D01*
X227239500Y-75049500D01*
X227204852Y-75035148D01*
X227190500Y-75000500D01*
X227190500Y-73430688D01*
X227159799Y-73316115D01*
X227159798Y-73316111D01*
X227100494Y-73213393D01*
X227100491Y-73213390D01*
X227100490Y-73213387D01*
X226292616Y-72405513D01*
X232499500Y-72405513D01*
X232499500Y-72594480D01*
X232529059Y-72781115D01*
X232529060Y-72781118D01*
X232587453Y-72960833D01*
X232673236Y-73129193D01*
X232673239Y-73129197D01*
X232673240Y-73129199D01*
X232784310Y-73282073D01*
X232784312Y-73282075D01*
X232784315Y-73282079D01*
X232917920Y-73415684D01*
X232917923Y-73415686D01*
X232917927Y-73415690D01*
X233070801Y-73526760D01*
X233070803Y-73526761D01*
X233070806Y-73526763D01*
X233176168Y-73580447D01*
X233239168Y-73612547D01*
X233418882Y-73670940D01*
X233605519Y-73700500D01*
X233605520Y-73700500D01*
X233794480Y-73700500D01*
X233794481Y-73700500D01*
X233981118Y-73670940D01*
X234160832Y-73612547D01*
X234329199Y-73526760D01*
X234482073Y-73415690D01*
X234615690Y-73282073D01*
X234726760Y-73129199D01*
X234812547Y-72960832D01*
X234870940Y-72781118D01*
X234900500Y-72594481D01*
X234900500Y-72405519D01*
X234870940Y-72218882D01*
X234812547Y-72039168D01*
X234726760Y-71870801D01*
X234615690Y-71717927D01*
X234615686Y-71717923D01*
X234615684Y-71717920D01*
X234482079Y-71584315D01*
X234482080Y-71584315D01*
X234329193Y-71473236D01*
X234160833Y-71387453D01*
X233981118Y-71329060D01*
X233981115Y-71329059D01*
X233837744Y-71306352D01*
X233794481Y-71299500D01*
X233605519Y-71299500D01*
X233570397Y-71305062D01*
X233418884Y-71329059D01*
X233418881Y-71329060D01*
X233239166Y-71387453D01*
X233070806Y-71473236D01*
X232917920Y-71584315D01*
X232784315Y-71717920D01*
X232673236Y-71870806D01*
X232587453Y-72039166D01*
X232529060Y-72218881D01*
X232529059Y-72218884D01*
X232509240Y-72344018D01*
X232500052Y-72402032D01*
X232500052Y-72402034D01*
X232500051Y-72402033D01*
X232499500Y-72405513D01*
X226292616Y-72405513D01*
X224261732Y-70374629D01*
X227550000Y-70374629D01*
X227564503Y-70447542D01*
X227619759Y-70530240D01*
X227702457Y-70585496D01*
X227775370Y-70599999D01*
X227775376Y-70600000D01*
X228075000Y-70600000D01*
X229075000Y-70600000D01*
X229374624Y-70600000D01*
X229374629Y-70599999D01*
X229447542Y-70585496D01*
X229530240Y-70530240D01*
X229585496Y-70447542D01*
X229599999Y-70374629D01*
X229600000Y-70374624D01*
X229600000Y-70350000D01*
X229075000Y-70350000D01*
X229075000Y-70600000D01*
X228075000Y-70600000D01*
X228075000Y-70350000D01*
X227550000Y-70350000D01*
X227550000Y-70374629D01*
X224261732Y-70374629D01*
X224214852Y-70327749D01*
X224205843Y-70306001D01*
X230499500Y-70306001D01*
X230499500Y-70443998D01*
X230526417Y-70579318D01*
X230526420Y-70579329D01*
X230565587Y-70673886D01*
X230579225Y-70706811D01*
X230610137Y-70753074D01*
X230655883Y-70821539D01*
X230753460Y-70919116D01*
X230799102Y-70949613D01*
X230868189Y-70995775D01*
X230995672Y-71048580D01*
X230995678Y-71048581D01*
X230995681Y-71048582D01*
X231131001Y-71075499D01*
X231131007Y-71075500D01*
X231268993Y-71075500D01*
X231404328Y-71048580D01*
X231531811Y-70995775D01*
X231646542Y-70919114D01*
X231744114Y-70821542D01*
X231820775Y-70706811D01*
X231873580Y-70579328D01*
X231900500Y-70443993D01*
X231900500Y-70374629D01*
X232800000Y-70374629D01*
X232814503Y-70447542D01*
X232869759Y-70530240D01*
X232952457Y-70585496D01*
X233025370Y-70599999D01*
X233025376Y-70600000D01*
X233325000Y-70600000D01*
X234325000Y-70600000D01*
X234624624Y-70600000D01*
X234624629Y-70599999D01*
X234697542Y-70585496D01*
X234780240Y-70530240D01*
X234835496Y-70447542D01*
X234849999Y-70374629D01*
X234850000Y-70374624D01*
X234850000Y-70350000D01*
X234325000Y-70350000D01*
X234325000Y-70600000D01*
X233325000Y-70600000D01*
X233325000Y-70350000D01*
X232800000Y-70350000D01*
X232800000Y-70374629D01*
X231900500Y-70374629D01*
X231900500Y-70306007D01*
X231873580Y-70170672D01*
X231820775Y-70043189D01*
X231774613Y-69974102D01*
X231744116Y-69928460D01*
X231646539Y-69830883D01*
X231578074Y-69785137D01*
X231531811Y-69754225D01*
X231531808Y-69754223D01*
X231531807Y-69754223D01*
X231404329Y-69701420D01*
X231404318Y-69701417D01*
X231268998Y-69674500D01*
X231268993Y-69674500D01*
X231131007Y-69674500D01*
X231131001Y-69674500D01*
X230995681Y-69701417D01*
X230995670Y-69701420D01*
X230868192Y-69754223D01*
X230753460Y-69830883D01*
X230655883Y-69928460D01*
X230579223Y-70043192D01*
X230526420Y-70170670D01*
X230526417Y-70170681D01*
X230499500Y-70306001D01*
X224205843Y-70306001D01*
X224200500Y-70293101D01*
X224200500Y-69456899D01*
X224214852Y-69422251D01*
X224311733Y-69325370D01*
X227550000Y-69325370D01*
X227550000Y-69350000D01*
X228075000Y-69350000D01*
X228075000Y-69100000D01*
X227775370Y-69100000D01*
X227702457Y-69114503D01*
X227619759Y-69169759D01*
X227564503Y-69252457D01*
X227550000Y-69325370D01*
X224311733Y-69325370D01*
X225047251Y-68589852D01*
X225081899Y-68575500D01*
X227550500Y-68575500D01*
X227585148Y-68589852D01*
X227599500Y-68624500D01*
X227599500Y-68669748D01*
X227611133Y-68728231D01*
X227628882Y-68754795D01*
X227655447Y-68794552D01*
X227682012Y-68812301D01*
X227721769Y-68838867D01*
X227780252Y-68850500D01*
X228809522Y-68850500D01*
X228844170Y-68864852D01*
X229009787Y-69030469D01*
X229041385Y-69048712D01*
X229050498Y-69053973D01*
X229073330Y-69083725D01*
X229075000Y-69096409D01*
X229075000Y-69350000D01*
X229600000Y-69350000D01*
X229600000Y-69325376D01*
X229599999Y-69325370D01*
X229585496Y-69252457D01*
X229534893Y-69176723D01*
X229527577Y-69139940D01*
X229548412Y-69108758D01*
X229575635Y-69100500D01*
X232824365Y-69100500D01*
X232859013Y-69114852D01*
X232873365Y-69149500D01*
X232865107Y-69176723D01*
X232814503Y-69252457D01*
X232800000Y-69325370D01*
X232800000Y-69350000D01*
X233325000Y-69350000D01*
X234325000Y-69350000D01*
X234850000Y-69350000D01*
X234850000Y-69325376D01*
X234849999Y-69325370D01*
X234835496Y-69252457D01*
X234780240Y-69169759D01*
X234697542Y-69114503D01*
X234624629Y-69100000D01*
X234325000Y-69100000D01*
X234325000Y-69350000D01*
X233325000Y-69350000D01*
X233325000Y-69123668D01*
X233339352Y-69089020D01*
X233350157Y-69080860D01*
X233355455Y-69077908D01*
X233360288Y-69076614D01*
X233361156Y-69076113D01*
X233440212Y-69030470D01*
X233605830Y-68864852D01*
X233640478Y-68850500D01*
X234619745Y-68850500D01*
X234619748Y-68850500D01*
X234678231Y-68838867D01*
X234744552Y-68794552D01*
X234788867Y-68728231D01*
X234800500Y-68669748D01*
X234800500Y-67630252D01*
X234788867Y-67571769D01*
X234762301Y-67532012D01*
X234744552Y-67505447D01*
X234704795Y-67478882D01*
X234678231Y-67461133D01*
X234619748Y-67449500D01*
X233030252Y-67449500D01*
X232971769Y-67461133D01*
X232905447Y-67505447D01*
X232871669Y-67556001D01*
X232861133Y-67571769D01*
X232849500Y-67630252D01*
X232849500Y-67630255D01*
X232849500Y-68350500D01*
X232835148Y-68385148D01*
X232800500Y-68399500D01*
X231394475Y-68399500D01*
X231359827Y-68385148D01*
X231345475Y-68350500D01*
X231359827Y-68315852D01*
X231384915Y-68302442D01*
X231393671Y-68300699D01*
X231404328Y-68298580D01*
X231531811Y-68245775D01*
X231646542Y-68169114D01*
X231744114Y-68071542D01*
X231820775Y-67956811D01*
X231873580Y-67829328D01*
X231900500Y-67693993D01*
X231900500Y-67556007D01*
X231879314Y-67449500D01*
X231873582Y-67420681D01*
X231873579Y-67420670D01*
X231820775Y-67293189D01*
X231774613Y-67224102D01*
X231744116Y-67178460D01*
X231646539Y-67080883D01*
X231578074Y-67035137D01*
X231531811Y-67004225D01*
X231531808Y-67004223D01*
X231531807Y-67004223D01*
X231404329Y-66951420D01*
X231404318Y-66951417D01*
X231268998Y-66924500D01*
X231268993Y-66924500D01*
X231131007Y-66924500D01*
X231131001Y-66924500D01*
X230995681Y-66951417D01*
X230995670Y-66951420D01*
X230868192Y-67004223D01*
X230753460Y-67080883D01*
X230655883Y-67178460D01*
X230579223Y-67293192D01*
X230526420Y-67420670D01*
X230526417Y-67420681D01*
X230499500Y-67556001D01*
X230499500Y-67693998D01*
X230526417Y-67829318D01*
X230526420Y-67829328D01*
X230579225Y-67956811D01*
X230610137Y-68003074D01*
X230655883Y-68071539D01*
X230753460Y-68169116D01*
X230799102Y-68199613D01*
X230868189Y-68245775D01*
X230995672Y-68298580D01*
X231004345Y-68300305D01*
X231015085Y-68302442D01*
X231046267Y-68323277D01*
X231053583Y-68360060D01*
X231032748Y-68391242D01*
X231005525Y-68399500D01*
X229599500Y-68399500D01*
X229564852Y-68385148D01*
X229550500Y-68350500D01*
X229550500Y-67630255D01*
X229550500Y-67630252D01*
X229538867Y-67571769D01*
X229512301Y-67532012D01*
X229494552Y-67505447D01*
X229454795Y-67478882D01*
X229428231Y-67461133D01*
X229369748Y-67449500D01*
X227780252Y-67449500D01*
X227721769Y-67461133D01*
X227655447Y-67505447D01*
X227611133Y-67571769D01*
X227599499Y-67630255D01*
X227599495Y-67630305D01*
X227599487Y-67630319D01*
X227599031Y-67632613D01*
X227598335Y-67632474D01*
X227581815Y-67663379D01*
X227550731Y-67674500D01*
X224815689Y-67674500D01*
X224767192Y-67687495D01*
X224742943Y-67693993D01*
X224701113Y-67705200D01*
X224701111Y-67705201D01*
X224598385Y-67764511D01*
X224598385Y-67764512D01*
X223389512Y-68973385D01*
X223389511Y-68973385D01*
X223330201Y-69076111D01*
X223328532Y-69082343D01*
X223328531Y-69082342D01*
X223328531Y-69082346D01*
X223299500Y-69190688D01*
X220827791Y-69190688D01*
X219401614Y-67764511D01*
X219298888Y-67705201D01*
X219298886Y-67705200D01*
X219257057Y-67693993D01*
X219232807Y-67687495D01*
X219184311Y-67674500D01*
X219184309Y-67674500D01*
X218849269Y-67674500D01*
X218814621Y-67660148D01*
X218801542Y-67632498D01*
X218800969Y-67632613D01*
X218800513Y-67630322D01*
X218800505Y-67630305D01*
X218800500Y-67630255D01*
X218800500Y-67630252D01*
X218788867Y-67571769D01*
X218762301Y-67532012D01*
X218744552Y-67505447D01*
X218704795Y-67478882D01*
X218678231Y-67461133D01*
X218619748Y-67449500D01*
X217030252Y-67449500D01*
X216971769Y-67461133D01*
X216905447Y-67505447D01*
X216871669Y-67556001D01*
X216861133Y-67571769D01*
X216849500Y-67630252D01*
X216849500Y-67630255D01*
X216849500Y-68350500D01*
X216835148Y-68385148D01*
X216800500Y-68399500D01*
X215394475Y-68399500D01*
X215359827Y-68385148D01*
X215345475Y-68350500D01*
X215359827Y-68315852D01*
X215384915Y-68302442D01*
X215393671Y-68300699D01*
X215404328Y-68298580D01*
X215531811Y-68245775D01*
X215646542Y-68169114D01*
X215744114Y-68071542D01*
X215820775Y-67956811D01*
X215873580Y-67829328D01*
X215900500Y-67693993D01*
X215900500Y-67556007D01*
X215879314Y-67449500D01*
X215873582Y-67420681D01*
X215873579Y-67420670D01*
X215820775Y-67293189D01*
X215774613Y-67224102D01*
X215744116Y-67178460D01*
X215646539Y-67080883D01*
X215578074Y-67035137D01*
X215531811Y-67004225D01*
X215531808Y-67004223D01*
X215531807Y-67004223D01*
X215404329Y-66951420D01*
X215404318Y-66951417D01*
X215268998Y-66924500D01*
X215268993Y-66924500D01*
X215131007Y-66924500D01*
X215131001Y-66924500D01*
X214995681Y-66951417D01*
X214995670Y-66951420D01*
X214868192Y-67004223D01*
X214753460Y-67080883D01*
X214655883Y-67178460D01*
X214579223Y-67293192D01*
X214526420Y-67420670D01*
X214526417Y-67420681D01*
X214499500Y-67556001D01*
X214499500Y-67693998D01*
X214526417Y-67829318D01*
X214526420Y-67829328D01*
X214579225Y-67956811D01*
X214610137Y-68003074D01*
X214655883Y-68071539D01*
X214753460Y-68169116D01*
X214799102Y-68199613D01*
X214868189Y-68245775D01*
X214995672Y-68298580D01*
X215004345Y-68300305D01*
X215015085Y-68302442D01*
X215046267Y-68323277D01*
X215053583Y-68360060D01*
X215032748Y-68391242D01*
X215005525Y-68399500D01*
X213599500Y-68399500D01*
X213564852Y-68385148D01*
X213550500Y-68350500D01*
X213550500Y-67630255D01*
X213550500Y-67630252D01*
X213538867Y-67571769D01*
X213512301Y-67532012D01*
X213494552Y-67505447D01*
X213454795Y-67478882D01*
X213428231Y-67461133D01*
X213369748Y-67449500D01*
X211780252Y-67449500D01*
X211721769Y-67461133D01*
X211655447Y-67505447D01*
X211621669Y-67556001D01*
X211611133Y-67571769D01*
X211599500Y-67630252D01*
X201800500Y-67630252D01*
X201788867Y-67571769D01*
X201762301Y-67532012D01*
X201744552Y-67505447D01*
X201704795Y-67478882D01*
X201678231Y-67461133D01*
X201619748Y-67449500D01*
X200030252Y-67449500D01*
X199971769Y-67461133D01*
X199905447Y-67505447D01*
X199871669Y-67556001D01*
X199861133Y-67571769D01*
X199849500Y-67630252D01*
X199849500Y-67630255D01*
X199849500Y-68350500D01*
X199835148Y-68385148D01*
X199800500Y-68399500D01*
X198394475Y-68399500D01*
X198359827Y-68385148D01*
X198345475Y-68350500D01*
X198359827Y-68315852D01*
X198384915Y-68302442D01*
X198393671Y-68300699D01*
X198404328Y-68298580D01*
X198531811Y-68245775D01*
X198646542Y-68169114D01*
X198744114Y-68071542D01*
X198820775Y-67956811D01*
X198873580Y-67829328D01*
X198900500Y-67693993D01*
X198900500Y-67556007D01*
X198879314Y-67449500D01*
X198873582Y-67420681D01*
X198873579Y-67420670D01*
X198820775Y-67293189D01*
X198774613Y-67224102D01*
X198744116Y-67178460D01*
X198646539Y-67080883D01*
X198578074Y-67035137D01*
X198531811Y-67004225D01*
X198531808Y-67004223D01*
X198531807Y-67004223D01*
X198404329Y-66951420D01*
X198404318Y-66951417D01*
X198268998Y-66924500D01*
X198268993Y-66924500D01*
X198131007Y-66924500D01*
X198131001Y-66924500D01*
X197995681Y-66951417D01*
X197995670Y-66951420D01*
X197868192Y-67004223D01*
X197753460Y-67080883D01*
X197655883Y-67178460D01*
X197579223Y-67293192D01*
X197526420Y-67420670D01*
X197526417Y-67420681D01*
X197499500Y-67556001D01*
X197499500Y-67693998D01*
X197526417Y-67829318D01*
X197526420Y-67829328D01*
X197579225Y-67956811D01*
X197610137Y-68003074D01*
X197655883Y-68071539D01*
X197753460Y-68169116D01*
X197799102Y-68199613D01*
X197868189Y-68245775D01*
X197995672Y-68298580D01*
X198004345Y-68300305D01*
X198015085Y-68302442D01*
X198046267Y-68323277D01*
X198053583Y-68360060D01*
X198032748Y-68391242D01*
X198005525Y-68399500D01*
X196599500Y-68399500D01*
X196564852Y-68385148D01*
X196550500Y-68350500D01*
X196550500Y-67630255D01*
X196550500Y-67630252D01*
X196538867Y-67571769D01*
X196512301Y-67532012D01*
X196494552Y-67505447D01*
X196454795Y-67478882D01*
X196428231Y-67461133D01*
X196369748Y-67449500D01*
X194780252Y-67449500D01*
X194721769Y-67461133D01*
X194655447Y-67505447D01*
X194621669Y-67556001D01*
X194611133Y-67571769D01*
X194599500Y-67630252D01*
X185800500Y-67630252D01*
X185788867Y-67571769D01*
X185762301Y-67532012D01*
X185744552Y-67505447D01*
X185704795Y-67478882D01*
X185678231Y-67461133D01*
X185619748Y-67449500D01*
X184030252Y-67449500D01*
X183971769Y-67461133D01*
X183905447Y-67505447D01*
X183871669Y-67556001D01*
X183861133Y-67571769D01*
X183849500Y-67630252D01*
X183849500Y-67630255D01*
X183849500Y-68350500D01*
X183835148Y-68385148D01*
X183800500Y-68399500D01*
X182394475Y-68399500D01*
X182359827Y-68385148D01*
X182345475Y-68350500D01*
X182359827Y-68315852D01*
X182384915Y-68302442D01*
X182393671Y-68300699D01*
X182404328Y-68298580D01*
X182531811Y-68245775D01*
X182646542Y-68169114D01*
X182744114Y-68071542D01*
X182820775Y-67956811D01*
X182873580Y-67829328D01*
X182900500Y-67693993D01*
X182900500Y-67556007D01*
X182879314Y-67449500D01*
X182873582Y-67420681D01*
X182873579Y-67420670D01*
X182820775Y-67293189D01*
X182774613Y-67224102D01*
X182744116Y-67178460D01*
X182646539Y-67080883D01*
X182578074Y-67035137D01*
X182531811Y-67004225D01*
X182531808Y-67004223D01*
X182531807Y-67004223D01*
X182404329Y-66951420D01*
X182404318Y-66951417D01*
X182268998Y-66924500D01*
X182268993Y-66924500D01*
X182131007Y-66924500D01*
X182131001Y-66924500D01*
X181995681Y-66951417D01*
X181995670Y-66951420D01*
X181868192Y-67004223D01*
X181753460Y-67080883D01*
X181655883Y-67178460D01*
X181579223Y-67293192D01*
X181526420Y-67420670D01*
X181526417Y-67420681D01*
X181499500Y-67556001D01*
X181499500Y-67693998D01*
X181526417Y-67829318D01*
X181526420Y-67829328D01*
X181579225Y-67956811D01*
X181610137Y-68003074D01*
X181655883Y-68071539D01*
X181753460Y-68169116D01*
X181799102Y-68199613D01*
X181868189Y-68245775D01*
X181995672Y-68298580D01*
X182004345Y-68300305D01*
X182015085Y-68302442D01*
X182046267Y-68323277D01*
X182053583Y-68360060D01*
X182032748Y-68391242D01*
X182005525Y-68399500D01*
X180599500Y-68399500D01*
X180564852Y-68385148D01*
X180550500Y-68350500D01*
X180550500Y-67630255D01*
X180550500Y-67630252D01*
X180538867Y-67571769D01*
X180512301Y-67532012D01*
X180494552Y-67505447D01*
X180454795Y-67478882D01*
X180428231Y-67461133D01*
X180369748Y-67449500D01*
X178842804Y-67449500D01*
X178808156Y-67435148D01*
X178793804Y-67400500D01*
X178808156Y-67365852D01*
X178810209Y-67363913D01*
X179393765Y-66844548D01*
X179417970Y-66832874D01*
X179534213Y-66812734D01*
X179539643Y-66812103D01*
X179858941Y-66793045D01*
X179861643Y-66792959D01*
X179866812Y-66792940D01*
X234601747Y-66796817D01*
G37*
%TD.AperFunction*%
%TD*%
M02*
