%TF.GenerationSoftware,KiCad,Pcbnew,9.0.0*%
%TF.CreationDate,2025-08-20T16:33:56-07:00*%
%TF.ProjectId,flatchord,666c6174-6368-46f7-9264-2e6b69636164,rev?*%
%TF.SameCoordinates,Original*%
%TF.FileFunction,Soldermask,Top*%
%TF.FilePolarity,Negative*%
%FSLAX46Y46*%
G04 Gerber Fmt 4.6, Leading zero omitted, Abs format (unit mm)*
G04 Created by KiCad (PCBNEW 9.0.0) date 2025-08-20 16:33:56*
%MOMM*%
%LPD*%
G01*
G04 APERTURE LIST*
G04 Aperture macros list*
%AMRoundRect*
0 Rectangle with rounded corners*
0 $1 Rounding radius*
0 $2 $3 $4 $5 $6 $7 $8 $9 X,Y pos of 4 corners*
0 Add a 4 corners polygon primitive as box body*
4,1,4,$2,$3,$4,$5,$6,$7,$8,$9,$2,$3,0*
0 Add four circle primitives for the rounded corners*
1,1,$1+$1,$2,$3*
1,1,$1+$1,$4,$5*
1,1,$1+$1,$6,$7*
1,1,$1+$1,$8,$9*
0 Add four rect primitives between the rounded corners*
20,1,$1+$1,$2,$3,$4,$5,0*
20,1,$1+$1,$4,$5,$6,$7,0*
20,1,$1+$1,$6,$7,$8,$9,0*
20,1,$1+$1,$8,$9,$2,$3,0*%
G04 Aperture macros list end*
%ADD10R,1.400000X2.400000*%
%ADD11R,2.000000X1.600000*%
%ADD12RoundRect,0.150000X0.700000X-0.150000X0.700000X0.150000X-0.700000X0.150000X-0.700000X-0.150000X0*%
%ADD13RoundRect,0.250000X1.100000X-0.250000X1.100000X0.250000X-1.100000X0.250000X-1.100000X-0.250000X0*%
%ADD14R,1.000000X2.510000*%
%ADD15C,0.900000*%
%ADD16R,1.550000X1.000000*%
%ADD17RoundRect,0.240000X-1.010000X0.360000X-1.010000X-0.360000X1.010000X-0.360000X1.010000X0.360000X0*%
%ADD18R,1.000000X1.550000*%
G04 APERTURE END LIST*
D10*
%TO.C,U1*%
X223800000Y-95370000D03*
X228880000Y-95370000D03*
D11*
X228720000Y-88000000D03*
X228720000Y-84800000D03*
D10*
X226340000Y-95370000D03*
X223800000Y-77430000D03*
X221260000Y-77430000D03*
X218720000Y-77430000D03*
X216180000Y-77430000D03*
X213640000Y-77430000D03*
X211100000Y-77430000D03*
X208560000Y-77430000D03*
X208560000Y-95370000D03*
X211100000Y-95370000D03*
X213640000Y-95370000D03*
X216180000Y-95370000D03*
X218720000Y-95370000D03*
X221260000Y-95370000D03*
X226340000Y-77430000D03*
X228880000Y-77430000D03*
%TD*%
D12*
%TO.C,BAT1*%
X175900000Y-87900000D03*
X175900000Y-86650000D03*
D13*
X179100000Y-89750000D03*
X179100000Y-84800000D03*
%TD*%
D14*
%TO.C,J1*%
X205810000Y-101195000D03*
X203270000Y-97885000D03*
X200730000Y-101195000D03*
X198190000Y-97885000D03*
%TD*%
D15*
%TO.C,SW3*%
X225300000Y-69425000D03*
X225300000Y-72175000D03*
D16*
X222675000Y-69950000D03*
X227925000Y-69950000D03*
X222675000Y-71650000D03*
X227925000Y-71650000D03*
%TD*%
D15*
%TO.C,SW0*%
X178700000Y-69425000D03*
X178700000Y-72175000D03*
D16*
X176075000Y-69950000D03*
X181325000Y-69950000D03*
X176075000Y-71650000D03*
X181325000Y-71650000D03*
%TD*%
D15*
%TO.C,SW5*%
X174300000Y-95100000D03*
X174300000Y-98100000D03*
D17*
X177050000Y-94100000D03*
X177050000Y-96600000D03*
X177050000Y-99100000D03*
%TD*%
D15*
%TO.C,SW2*%
X210250000Y-69425000D03*
X210250000Y-72175000D03*
D16*
X207625000Y-69950000D03*
X212875000Y-69950000D03*
X207625000Y-71650000D03*
X212875000Y-71650000D03*
%TD*%
D15*
%TO.C,SW1*%
X193700000Y-69425000D03*
X193700000Y-72175000D03*
D16*
X191075000Y-69950000D03*
X196325000Y-69950000D03*
X191075000Y-71650000D03*
X196325000Y-71650000D03*
%TD*%
D15*
%TO.C,SW4*%
X174100000Y-79025000D03*
X176850000Y-79025000D03*
D18*
X174625000Y-81650000D03*
X174625000Y-76400000D03*
X176325000Y-81650000D03*
X176325000Y-76400000D03*
%TD*%
M02*
