  0
SECTION
  2
HEADER
  9
$ANGBASE
  50
0.0
  9
$ANGDIR
  70
1
  9
$MEASUREMENT
  70
1
  0
ENDSEC
  0
SECTION
  2
TABLES
  0
TABLE
  2
LTYPE
  70
4
  0
LTYPE
  5
40F
  2
CONTINUOUS
  70
0
  3
Solid line
  72
65
  73
0
  40
0.0
  0
LTYPE
  5
410
  2
DASHDOT
 70
0
  3
Dash Dot ____ _ ____ _
 72
65
 73
4
 40
2.0
 49
1.25
 49
-0.25
 49
0.25
 49
-0.25
  0
LTYPE
  5
411
  2
DASHED
 70
0
  3
Dashed __ __ __ __ __
 72
65
 73
2
 40
0.75
 49
0.5
 49
-0.25
  0
LTYPE
  5
43B
  2
DOTTED
 70
0
  3
Dotted .  .  .  .
 72
65
 73
2
 40
0.2
 49
0.0
 49
-0.2
  0
ENDTAB
  0
TABLE
  2
STYLE
  70
4
  0
STYLE
  2
KICAD
  70
0
  40
0
  41
1
  42
1
  50
0
  71
0
  3
isocp.shx
  0
STYLE
  2
KICADB
  70
0
  40
0
  41
1
  42
1
  50
0
  71
0
  3
isocp.shx
  0
STYLE
  2
KICADI
  70
0
  40
0
  41
1
  42
1
  50
15
  71
0
  3
isocp.shx
  0
STYLE
  2
KICADBI
  70
0
  40
0
  41
1
  42
1
  50
15
  71
0
  3
isocp.shx
  0
ENDTAB
  0
TABLE
  2
LAYER
  70
1
  0
LAYER
  2
BLACK
  70
0
  62
7
  6
CONTINUOUS
  0
ENDTAB
  0
ENDSEC
  0
SECTION
  2
ENTITIES
0
LINE
8
BLACK
6
CONTINUOUS
10
190.9684619999999882
20
-97.3817749999999904
11
191.1400859999999966
21
-97.437539000000001
0
LINE
8
BLACK
6
CONTINUOUS
10
191.1400859999999966
20
-97.437539000000001
11
191.3008729999999957
21
-97.5194639999999993
0
LINE
8
BLACK
6
CONTINUOUS
10
191.3008729999999957
20
-97.5194639999999993
11
191.4468650000000025
21
-97.6255329999999901
0
LINE
8
BLACK
6
CONTINUOUS
10
191.4468650000000025
20
-97.6255329999999901
11
191.5744669999999985
21
-97.7531350000000003
0
LINE
8
BLACK
6
CONTINUOUS
10
191.5744669999999985
20
-97.7531350000000003
11
191.6805359999999894
21
-97.8991269999999929
0
LINE
8
BLACK
6
CONTINUOUS
10
191.6805359999999894
20
-97.8991269999999929
11
191.7624610000000018
21
-98.059913999999992
0
LINE
8
BLACK
6
CONTINUOUS
10
191.7624610000000018
20
-98.059913999999992
11
191.818224999999984
21
-98.2315380000000005
0
LINE
8
BLACK
6
CONTINUOUS
10
191.818224999999984
20
-98.2315380000000005
11
191.8464549999999917
21
-98.4097719999999896
0
LINE
8
BLACK
6
CONTINUOUS
10
191.8464549999999917
20
-98.4097719999999896
11
191.8464549999999917
21
-98.5902279999999962
0
LINE
8
BLACK
6
CONTINUOUS
10
191.8464549999999917
20
-98.5902279999999962
11
191.818224999999984
21
-98.7684619999999995
0
LINE
8
BLACK
6
CONTINUOUS
10
191.818224999999984
20
-98.7684619999999995
11
191.7624610000000018
21
-98.9400859999999938
0
LINE
8
BLACK
6
CONTINUOUS
10
191.7624610000000018
20
-98.9400859999999938
11
191.6805359999999894
21
-99.1008729999999929
0
LINE
8
BLACK
6
CONTINUOUS
10
191.6805359999999894
20
-99.1008729999999929
11
191.5744669999999985
21
-99.2468649999999997
0
LINE
8
BLACK
6
CONTINUOUS
10
191.5744669999999985
20
-99.2468649999999997
11
191.4468650000000025
21
-99.3744669999999957
0
LINE
8
BLACK
6
CONTINUOUS
10
191.4468650000000025
20
-99.3744669999999957
11
191.3008729999999957
21
-99.4805360000000007
0
LINE
8
BLACK
6
CONTINUOUS
10
191.3008729999999957
20
-99.4805360000000007
11
191.1400859999999966
21
-99.562460999999999
0
LINE
8
BLACK
6
CONTINUOUS
10
191.1400859999999966
20
-99.562460999999999
11
190.9684619999999882
21
-99.6182249999999954
0
LINE
8
BLACK
6
CONTINUOUS
10
190.9684619999999882
20
-99.6182249999999954
11
190.7902279999999848
21
-99.6464549999999889
0
LINE
8
BLACK
6
CONTINUOUS
10
190.7902279999999848
20
-99.6464549999999889
11
190.6097719999999924
21
-99.6464549999999889
0
LINE
8
BLACK
6
CONTINUOUS
10
190.6097719999999924
20
-99.6464549999999889
11
190.4315379999999891
21
-99.6182249999999954
0
LINE
8
BLACK
6
CONTINUOUS
10
190.4315379999999891
20
-99.6182249999999954
11
190.2599139999999807
21
-99.562460999999999
0
LINE
8
BLACK
6
CONTINUOUS
10
190.2599139999999807
20
-99.562460999999999
11
190.0991269999999815
21
-99.4805360000000007
0
LINE
8
BLACK
6
CONTINUOUS
10
190.0991269999999815
20
-99.4805360000000007
11
189.9531350000000032
21
-99.3744669999999957
0
LINE
8
BLACK
6
CONTINUOUS
10
189.9531350000000032
20
-99.3744669999999957
11
189.8255329999999788
21
-99.2468649999999997
0
LINE
8
BLACK
6
CONTINUOUS
10
189.8255329999999788
20
-99.2468649999999997
11
189.7194639999999879
21
-99.1008729999999929
0
LINE
8
BLACK
6
CONTINUOUS
10
189.7194639999999879
20
-99.1008729999999929
11
189.6375390000000039
21
-98.9400859999999938
0
LINE
8
BLACK
6
CONTINUOUS
10
189.6375390000000039
20
-98.9400859999999938
11
189.5817749999999933
21
-98.7684619999999995
0
LINE
8
BLACK
6
CONTINUOUS
10
189.5817749999999933
20
-98.7684619999999995
11
189.5535449999999855
21
-98.5902279999999962
0
LINE
8
BLACK
6
CONTINUOUS
10
189.5535449999999855
20
-98.5902279999999962
11
189.5535449999999855
21
-98.4097719999999896
0
LINE
8
BLACK
6
CONTINUOUS
10
189.5535449999999855
20
-98.4097719999999896
11
189.5556339999999977
21
-98.3965839999999901
0
LINE
8
BLACK
6
CONTINUOUS
10
189.5556339999999977
20
-98.3965839999999901
11
189.5817749999999933
21
-98.2315380000000005
0
LINE
8
BLACK
6
CONTINUOUS
10
189.5817749999999933
20
-98.2315380000000005
11
189.6375390000000039
21
-98.059913999999992
0
LINE
8
BLACK
6
CONTINUOUS
10
189.6375390000000039
20
-98.059913999999992
11
189.7194639999999879
21
-97.8991269999999929
0
LINE
8
BLACK
6
CONTINUOUS
10
189.7194639999999879
20
-97.8991269999999929
11
189.8255329999999788
21
-97.7531350000000003
0
LINE
8
BLACK
6
CONTINUOUS
10
189.8255329999999788
20
-97.7531350000000003
11
189.9531350000000032
21
-97.6255329999999901
0
LINE
8
BLACK
6
CONTINUOUS
10
189.9531350000000032
20
-97.6255329999999901
11
190.0991269999999815
21
-97.5194639999999993
0
LINE
8
BLACK
6
CONTINUOUS
10
190.0991269999999815
20
-97.5194639999999993
11
190.2599139999999807
21
-97.437539000000001
0
LINE
8
BLACK
6
CONTINUOUS
10
190.2599139999999807
20
-97.437539000000001
11
190.4315379999999891
21
-97.3817749999999904
0
LINE
8
BLACK
6
CONTINUOUS
10
190.4315379999999891
20
-97.3817749999999904
11
190.6097719999999924
21
-97.3535449999999969
0
LINE
8
BLACK
6
CONTINUOUS
10
190.6097719999999924
20
-97.3535449999999969
11
190.7902279999999848
21
-97.3535449999999969
0
LINE
8
BLACK
6
CONTINUOUS
10
190.7902279999999848
20
-97.3535449999999969
11
190.9684619999999882
21
-97.3817749999999904
0
LINE
8
BLACK
6
CONTINUOUS
10
189.6499999999999773
20
-98.6034159999999957
11
189.6903499999999951
21
-98.8062740000000019
0
LINE
8
BLACK
6
CONTINUOUS
10
189.6903499999999951
20
-98.8062740000000019
11
189.7695019999999886
21
-98.9973619999999954
0
LINE
8
BLACK
6
CONTINUOUS
10
189.7695019999999886
20
-98.9973619999999954
11
189.8844110000000001
21
-99.1693360000000013
0
LINE
8
BLACK
6
CONTINUOUS
10
189.8844110000000001
20
-99.1693360000000013
11
190.0306640000000016
21
-99.3155889999999886
0
LINE
8
BLACK
6
CONTINUOUS
10
190.0306640000000016
20
-99.3155889999999886
11
190.202637999999979
21
-99.430498
0
LINE
8
BLACK
6
CONTINUOUS
10
190.202637999999979
20
-99.430498
11
190.3937259999999867
21
-99.5096499999999935
0
LINE
8
BLACK
6
CONTINUOUS
10
190.3937259999999867
20
-99.5096499999999935
11
190.5965839999999787
21
-99.5499999999999972
0
LINE
8
BLACK
6
CONTINUOUS
10
190.5965839999999787
20
-99.5499999999999972
11
190.8034159999999986
21
-99.5499999999999972
0
LINE
8
BLACK
6
CONTINUOUS
10
190.8034159999999986
20
-99.5499999999999972
11
191.0062739999999906
21
-99.5096499999999935
0
LINE
8
BLACK
6
CONTINUOUS
10
191.0062739999999906
20
-99.5096499999999935
11
191.1973619999999983
21
-99.430498
0
LINE
8
BLACK
6
CONTINUOUS
10
191.1973619999999983
20
-99.430498
11
191.3693360000000041
21
-99.3155889999999886
0
LINE
8
BLACK
6
CONTINUOUS
10
191.3693360000000041
20
-99.3155889999999886
11
191.5155889999999772
21
-99.1693360000000013
0
LINE
8
BLACK
6
CONTINUOUS
10
191.5155889999999772
20
-99.1693360000000013
11
191.6304979999999887
21
-98.9973619999999954
0
LINE
8
BLACK
6
CONTINUOUS
10
191.6304979999999887
20
-98.9973619999999954
11
191.7096499999999821
21
-98.8062740000000019
0
LINE
8
BLACK
6
CONTINUOUS
10
191.7096499999999821
20
-98.8062740000000019
11
191.75
21
-98.6034159999999957
0
LINE
8
BLACK
6
CONTINUOUS
10
191.75
20
-98.6034159999999957
11
191.75
21
-98.3965839999999901
0
LINE
8
BLACK
6
CONTINUOUS
10
191.75
20
-98.3965839999999901
11
191.7096499999999821
21
-98.1937259999999981
0
LINE
8
BLACK
6
CONTINUOUS
10
191.7096499999999821
20
-98.1937259999999981
11
191.6304979999999887
21
-98.0026379999999904
0
LINE
8
BLACK
6
CONTINUOUS
10
191.6304979999999887
20
-98.0026379999999904
11
191.5155889999999772
21
-97.8306639999999987
0
LINE
8
BLACK
6
CONTINUOUS
10
191.5155889999999772
20
-97.8306639999999987
11
191.3693360000000041
21
-97.6844109999999972
0
LINE
8
BLACK
6
CONTINUOUS
10
191.3693360000000041
20
-97.6844109999999972
11
191.1973619999999983
21
-97.569502
0
LINE
8
BLACK
6
CONTINUOUS
10
191.1973619999999983
20
-97.569502
11
191.0062739999999906
21
-97.4903499999999923
0
LINE
8
BLACK
6
CONTINUOUS
10
191.0062739999999906
20
-97.4903499999999923
11
190.8034159999999986
21
-97.4499999999999886
0
LINE
8
BLACK
6
CONTINUOUS
10
190.8034159999999986
20
-97.4499999999999886
11
190.5965839999999787
21
-97.4499999999999886
0
LINE
8
BLACK
6
CONTINUOUS
10
190.5965839999999787
20
-97.4499999999999886
11
190.3937259999999867
21
-97.4903499999999923
0
LINE
8
BLACK
6
CONTINUOUS
10
190.3937259999999867
20
-97.4903499999999923
11
190.202637999999979
21
-97.569502
0
LINE
8
BLACK
6
CONTINUOUS
10
190.202637999999979
20
-97.569502
11
190.0306640000000016
21
-97.6844109999999972
0
LINE
8
BLACK
6
CONTINUOUS
10
190.0306640000000016
20
-97.6844109999999972
11
189.8844110000000001
21
-97.8306639999999987
0
LINE
8
BLACK
6
CONTINUOUS
10
189.8844110000000001
20
-97.8306639999999987
11
189.7695019999999886
21
-98.0026379999999904
0
LINE
8
BLACK
6
CONTINUOUS
10
189.7695019999999886
20
-98.0026379999999904
11
189.6903499999999951
21
-98.1937259999999981
0
LINE
8
BLACK
6
CONTINUOUS
10
189.6903499999999951
20
-98.1937259999999981
11
189.6499999999999773
21
-98.3965839999999901
0
LINE
8
BLACK
6
CONTINUOUS
10
189.6499999999999773
20
-98.3965839999999901
11
189.6499999999999773
21
-98.6034159999999957
0
LINE
8
BLACK
6
CONTINUOUS
10
233.9684619999999882
20
-97.3817749999999904
11
234.1400859999999966
21
-97.437539000000001
0
LINE
8
BLACK
6
CONTINUOUS
10
234.1400859999999966
20
-97.437539000000001
11
234.3008729999999957
21
-97.5194639999999993
0
LINE
8
BLACK
6
CONTINUOUS
10
234.3008729999999957
20
-97.5194639999999993
11
234.4468650000000025
21
-97.6255329999999901
0
LINE
8
BLACK
6
CONTINUOUS
10
234.4468650000000025
20
-97.6255329999999901
11
234.5744669999999985
21
-97.7531350000000003
0
LINE
8
BLACK
6
CONTINUOUS
10
234.5744669999999985
20
-97.7531350000000003
11
234.6805359999999894
21
-97.8991269999999929
0
LINE
8
BLACK
6
CONTINUOUS
10
234.6805359999999894
20
-97.8991269999999929
11
234.7624610000000018
21
-98.059913999999992
0
LINE
8
BLACK
6
CONTINUOUS
10
234.7624610000000018
20
-98.059913999999992
11
234.818224999999984
21
-98.2315380000000005
0
LINE
8
BLACK
6
CONTINUOUS
10
234.818224999999984
20
-98.2315380000000005
11
234.8464549999999917
21
-98.4097719999999896
0
LINE
8
BLACK
6
CONTINUOUS
10
234.8464549999999917
20
-98.4097719999999896
11
234.8464549999999917
21
-98.5902279999999962
0
LINE
8
BLACK
6
CONTINUOUS
10
234.8464549999999917
20
-98.5902279999999962
11
234.818224999999984
21
-98.7684619999999995
0
LINE
8
BLACK
6
CONTINUOUS
10
234.818224999999984
20
-98.7684619999999995
11
234.7624610000000018
21
-98.9400859999999938
0
LINE
8
BLACK
6
CONTINUOUS
10
234.7624610000000018
20
-98.9400859999999938
11
234.6805359999999894
21
-99.1008729999999929
0
LINE
8
BLACK
6
CONTINUOUS
10
234.6805359999999894
20
-99.1008729999999929
11
234.5744669999999985
21
-99.2468649999999997
0
LINE
8
BLACK
6
CONTINUOUS
10
234.5744669999999985
20
-99.2468649999999997
11
234.4468650000000025
21
-99.3744669999999957
0
LINE
8
BLACK
6
CONTINUOUS
10
234.4468650000000025
20
-99.3744669999999957
11
234.3008729999999957
21
-99.4805360000000007
0
LINE
8
BLACK
6
CONTINUOUS
10
234.3008729999999957
20
-99.4805360000000007
11
234.1400859999999966
21
-99.562460999999999
0
LINE
8
BLACK
6
CONTINUOUS
10
234.1400859999999966
20
-99.562460999999999
11
233.9684619999999882
21
-99.6182249999999954
0
LINE
8
BLACK
6
CONTINUOUS
10
233.9684619999999882
20
-99.6182249999999954
11
233.7902279999999848
21
-99.6464549999999889
0
LINE
8
BLACK
6
CONTINUOUS
10
233.7902279999999848
20
-99.6464549999999889
11
233.6097719999999924
21
-99.6464549999999889
0
LINE
8
BLACK
6
CONTINUOUS
10
233.6097719999999924
20
-99.6464549999999889
11
233.4315379999999891
21
-99.6182249999999954
0
LINE
8
BLACK
6
CONTINUOUS
10
233.4315379999999891
20
-99.6182249999999954
11
233.2599139999999807
21
-99.562460999999999
0
LINE
8
BLACK
6
CONTINUOUS
10
233.2599139999999807
20
-99.562460999999999
11
233.0991269999999815
21
-99.4805360000000007
0
LINE
8
BLACK
6
CONTINUOUS
10
233.0991269999999815
20
-99.4805360000000007
11
232.9531350000000032
21
-99.3744669999999957
0
LINE
8
BLACK
6
CONTINUOUS
10
232.9531350000000032
20
-99.3744669999999957
11
232.8255329999999788
21
-99.2468649999999997
0
LINE
8
BLACK
6
CONTINUOUS
10
232.8255329999999788
20
-99.2468649999999997
11
232.7194639999999879
21
-99.1008729999999929
0
LINE
8
BLACK
6
CONTINUOUS
10
232.7194639999999879
20
-99.1008729999999929
11
232.6375389999999754
21
-98.9400859999999938
0
LINE
8
BLACK
6
CONTINUOUS
10
232.6375389999999754
20
-98.9400859999999938
11
232.5817749999999933
21
-98.7684619999999995
0
LINE
8
BLACK
6
CONTINUOUS
10
232.5817749999999933
20
-98.7684619999999995
11
232.5535449999999855
21
-98.5902279999999962
0
LINE
8
BLACK
6
CONTINUOUS
10
232.5535449999999855
20
-98.5902279999999962
11
232.5535449999999855
21
-98.4097719999999896
0
LINE
8
BLACK
6
CONTINUOUS
10
232.5535449999999855
20
-98.4097719999999896
11
232.5556339999999977
21
-98.3965839999999901
0
LINE
8
BLACK
6
CONTINUOUS
10
232.5556339999999977
20
-98.3965839999999901
11
232.5817749999999933
21
-98.2315380000000005
0
LINE
8
BLACK
6
CONTINUOUS
10
232.5817749999999933
20
-98.2315380000000005
11
232.6375389999999754
21
-98.059913999999992
0
LINE
8
BLACK
6
CONTINUOUS
10
232.6375389999999754
20
-98.059913999999992
11
232.7194639999999879
21
-97.8991269999999929
0
LINE
8
BLACK
6
CONTINUOUS
10
232.7194639999999879
20
-97.8991269999999929
11
232.8255329999999788
21
-97.7531350000000003
0
LINE
8
BLACK
6
CONTINUOUS
10
232.8255329999999788
20
-97.7531350000000003
11
232.9531350000000032
21
-97.6255329999999901
0
LINE
8
BLACK
6
CONTINUOUS
10
232.9531350000000032
20
-97.6255329999999901
11
233.0991269999999815
21
-97.5194639999999993
0
LINE
8
BLACK
6
CONTINUOUS
10
233.0991269999999815
20
-97.5194639999999993
11
233.2599139999999807
21
-97.437539000000001
0
LINE
8
BLACK
6
CONTINUOUS
10
233.2599139999999807
20
-97.437539000000001
11
233.4315379999999891
21
-97.3817749999999904
0
LINE
8
BLACK
6
CONTINUOUS
10
233.4315379999999891
20
-97.3817749999999904
11
233.6097719999999924
21
-97.3535449999999969
0
LINE
8
BLACK
6
CONTINUOUS
10
233.6097719999999924
20
-97.3535449999999969
11
233.7902279999999848
21
-97.3535449999999969
0
LINE
8
BLACK
6
CONTINUOUS
10
233.7902279999999848
20
-97.3535449999999969
11
233.9684619999999882
21
-97.3817749999999904
0
LINE
8
BLACK
6
CONTINUOUS
10
232.6499999999999773
20
-98.6034159999999957
11
232.6903499999999951
21
-98.8062740000000019
0
LINE
8
BLACK
6
CONTINUOUS
10
232.6903499999999951
20
-98.8062740000000019
11
232.7695019999999886
21
-98.9973619999999954
0
LINE
8
BLACK
6
CONTINUOUS
10
232.7695019999999886
20
-98.9973619999999954
11
232.8844110000000001
21
-99.1693360000000013
0
LINE
8
BLACK
6
CONTINUOUS
10
232.8844110000000001
20
-99.1693360000000013
11
233.0306640000000016
21
-99.3155889999999886
0
LINE
8
BLACK
6
CONTINUOUS
10
233.0306640000000016
20
-99.3155889999999886
11
233.202637999999979
21
-99.430498
0
LINE
8
BLACK
6
CONTINUOUS
10
233.202637999999979
20
-99.430498
11
233.3937259999999867
21
-99.5096499999999935
0
LINE
8
BLACK
6
CONTINUOUS
10
233.3937259999999867
20
-99.5096499999999935
11
233.5965839999999787
21
-99.5499999999999972
0
LINE
8
BLACK
6
CONTINUOUS
10
233.5965839999999787
20
-99.5499999999999972
11
233.8034159999999986
21
-99.5499999999999972
0
LINE
8
BLACK
6
CONTINUOUS
10
233.8034159999999986
20
-99.5499999999999972
11
234.0062739999999906
21
-99.5096499999999935
0
LINE
8
BLACK
6
CONTINUOUS
10
234.0062739999999906
20
-99.5096499999999935
11
234.1973619999999983
21
-99.430498
0
LINE
8
BLACK
6
CONTINUOUS
10
234.1973619999999983
20
-99.430498
11
234.3693359999999757
21
-99.3155889999999886
0
LINE
8
BLACK
6
CONTINUOUS
10
234.3693359999999757
20
-99.3155889999999886
11
234.5155889999999772
21
-99.1693360000000013
0
LINE
8
BLACK
6
CONTINUOUS
10
234.5155889999999772
20
-99.1693360000000013
11
234.6304979999999887
21
-98.9973619999999954
0
LINE
8
BLACK
6
CONTINUOUS
10
234.6304979999999887
20
-98.9973619999999954
11
234.7096499999999821
21
-98.8062740000000019
0
LINE
8
BLACK
6
CONTINUOUS
10
234.7096499999999821
20
-98.8062740000000019
11
234.75
21
-98.6034159999999957
0
LINE
8
BLACK
6
CONTINUOUS
10
234.75
20
-98.6034159999999957
11
234.75
21
-98.3965839999999901
0
LINE
8
BLACK
6
CONTINUOUS
10
234.75
20
-98.3965839999999901
11
234.7096499999999821
21
-98.1937259999999981
0
LINE
8
BLACK
6
CONTINUOUS
10
234.7096499999999821
20
-98.1937259999999981
11
234.6304979999999887
21
-98.0026379999999904
0
LINE
8
BLACK
6
CONTINUOUS
10
234.6304979999999887
20
-98.0026379999999904
11
234.5155889999999772
21
-97.8306639999999987
0
LINE
8
BLACK
6
CONTINUOUS
10
234.5155889999999772
20
-97.8306639999999987
11
234.3693359999999757
21
-97.6844109999999972
0
LINE
8
BLACK
6
CONTINUOUS
10
234.3693359999999757
20
-97.6844109999999972
11
234.1973619999999983
21
-97.569502
0
LINE
8
BLACK
6
CONTINUOUS
10
234.1973619999999983
20
-97.569502
11
234.0062739999999906
21
-97.4903499999999923
0
LINE
8
BLACK
6
CONTINUOUS
10
234.0062739999999906
20
-97.4903499999999923
11
233.8034159999999986
21
-97.4499999999999886
0
LINE
8
BLACK
6
CONTINUOUS
10
233.8034159999999986
20
-97.4499999999999886
11
233.5965839999999787
21
-97.4499999999999886
0
LINE
8
BLACK
6
CONTINUOUS
10
233.5965839999999787
20
-97.4499999999999886
11
233.3937259999999867
21
-97.4903499999999923
0
LINE
8
BLACK
6
CONTINUOUS
10
233.3937259999999867
20
-97.4903499999999923
11
233.202637999999979
21
-97.569502
0
LINE
8
BLACK
6
CONTINUOUS
10
233.202637999999979
20
-97.569502
11
233.0306640000000016
21
-97.6844109999999972
0
LINE
8
BLACK
6
CONTINUOUS
10
233.0306640000000016
20
-97.6844109999999972
11
232.8844110000000001
21
-97.8306639999999987
0
LINE
8
BLACK
6
CONTINUOUS
10
232.8844110000000001
20
-97.8306639999999987
11
232.7695019999999886
21
-98.0026379999999904
0
LINE
8
BLACK
6
CONTINUOUS
10
232.7695019999999886
20
-98.0026379999999904
11
232.6903499999999951
21
-98.1937259999999981
0
LINE
8
BLACK
6
CONTINUOUS
10
232.6903499999999951
20
-98.1937259999999981
11
232.6499999999999773
21
-98.3965839999999901
0
LINE
8
BLACK
6
CONTINUOUS
10
232.6499999999999773
20
-98.3965839999999901
11
232.6499999999999773
21
-98.6034159999999957
0
LINE
8
BLACK
6
CONTINUOUS
10
190.9684619999999882
20
-71.3817749999999904
11
191.1400859999999966
21
-71.437539000000001
0
LINE
8
BLACK
6
CONTINUOUS
10
191.1400859999999966
20
-71.437539000000001
11
191.3008729999999957
21
-71.5194639999999993
0
LINE
8
BLACK
6
CONTINUOUS
10
191.3008729999999957
20
-71.5194639999999993
11
191.4468650000000025
21
-71.6255329999999901
0
LINE
8
BLACK
6
CONTINUOUS
10
191.4468650000000025
20
-71.6255329999999901
11
191.5744669999999985
21
-71.7531350000000003
0
LINE
8
BLACK
6
CONTINUOUS
10
191.5744669999999985
20
-71.7531350000000003
11
191.6805359999999894
21
-71.8991269999999929
0
LINE
8
BLACK
6
CONTINUOUS
10
191.6805359999999894
20
-71.8991269999999929
11
191.7624610000000018
21
-72.059913999999992
0
LINE
8
BLACK
6
CONTINUOUS
10
191.7624610000000018
20
-72.059913999999992
11
191.818224999999984
21
-72.2315380000000005
0
LINE
8
BLACK
6
CONTINUOUS
10
191.818224999999984
20
-72.2315380000000005
11
191.8464549999999917
21
-72.4097720000000038
0
LINE
8
BLACK
6
CONTINUOUS
10
191.8464549999999917
20
-72.4097720000000038
11
191.8464549999999917
21
-72.5902279999999962
0
LINE
8
BLACK
6
CONTINUOUS
10
191.8464549999999917
20
-72.5902279999999962
11
191.818224999999984
21
-72.7684619999999995
0
LINE
8
BLACK
6
CONTINUOUS
10
191.818224999999984
20
-72.7684619999999995
11
191.7624610000000018
21
-72.9400859999999938
0
LINE
8
BLACK
6
CONTINUOUS
10
191.7624610000000018
20
-72.9400859999999938
11
191.6805359999999894
21
-73.1008729999999929
0
LINE
8
BLACK
6
CONTINUOUS
10
191.6805359999999894
20
-73.1008729999999929
11
191.5744669999999985
21
-73.2468649999999997
0
LINE
8
BLACK
6
CONTINUOUS
10
191.5744669999999985
20
-73.2468649999999997
11
191.4468650000000025
21
-73.3744669999999957
0
LINE
8
BLACK
6
CONTINUOUS
10
191.4468650000000025
20
-73.3744669999999957
11
191.3008729999999957
21
-73.4805360000000007
0
LINE
8
BLACK
6
CONTINUOUS
10
191.3008729999999957
20
-73.4805360000000007
11
191.1400859999999966
21
-73.562460999999999
0
LINE
8
BLACK
6
CONTINUOUS
10
191.1400859999999966
20
-73.562460999999999
11
190.9684619999999882
21
-73.6182249999999954
0
LINE
8
BLACK
6
CONTINUOUS
10
190.9684619999999882
20
-73.6182249999999954
11
190.7902279999999848
21
-73.6464550000000031
0
LINE
8
BLACK
6
CONTINUOUS
10
190.7902279999999848
20
-73.6464550000000031
11
190.6097719999999924
21
-73.6464550000000031
0
LINE
8
BLACK
6
CONTINUOUS
10
190.6097719999999924
20
-73.6464550000000031
11
190.4315379999999891
21
-73.6182249999999954
0
LINE
8
BLACK
6
CONTINUOUS
10
190.4315379999999891
20
-73.6182249999999954
11
190.2599139999999807
21
-73.562460999999999
0
LINE
8
BLACK
6
CONTINUOUS
10
190.2599139999999807
20
-73.562460999999999
11
190.0991269999999815
21
-73.4805360000000007
0
LINE
8
BLACK
6
CONTINUOUS
10
190.0991269999999815
20
-73.4805360000000007
11
189.9531350000000032
21
-73.3744669999999957
0
LINE
8
BLACK
6
CONTINUOUS
10
189.9531350000000032
20
-73.3744669999999957
11
189.8255329999999788
21
-73.2468649999999997
0
LINE
8
BLACK
6
CONTINUOUS
10
189.8255329999999788
20
-73.2468649999999997
11
189.7194639999999879
21
-73.1008729999999929
0
LINE
8
BLACK
6
CONTINUOUS
10
189.7194639999999879
20
-73.1008729999999929
11
189.6375390000000039
21
-72.9400859999999938
0
LINE
8
BLACK
6
CONTINUOUS
10
189.6375390000000039
20
-72.9400859999999938
11
189.5817749999999933
21
-72.7684619999999995
0
LINE
8
BLACK
6
CONTINUOUS
10
189.5817749999999933
20
-72.7684619999999995
11
189.5535449999999855
21
-72.5902279999999962
0
LINE
8
BLACK
6
CONTINUOUS
10
189.5535449999999855
20
-72.5902279999999962
11
189.5535449999999855
21
-72.4097720000000038
0
LINE
8
BLACK
6
CONTINUOUS
10
189.5535449999999855
20
-72.4097720000000038
11
189.5556339999999977
21
-72.3965839999999901
0
LINE
8
BLACK
6
CONTINUOUS
10
189.5556339999999977
20
-72.3965839999999901
11
189.5817749999999933
21
-72.2315380000000005
0
LINE
8
BLACK
6
CONTINUOUS
10
189.5817749999999933
20
-72.2315380000000005
11
189.6375390000000039
21
-72.059913999999992
0
LINE
8
BLACK
6
CONTINUOUS
10
189.6375390000000039
20
-72.059913999999992
11
189.7194639999999879
21
-71.8991269999999929
0
LINE
8
BLACK
6
CONTINUOUS
10
189.7194639999999879
20
-71.8991269999999929
11
189.8255329999999788
21
-71.7531350000000003
0
LINE
8
BLACK
6
CONTINUOUS
10
189.8255329999999788
20
-71.7531350000000003
11
189.9531350000000032
21
-71.6255329999999901
0
LINE
8
BLACK
6
CONTINUOUS
10
189.9531350000000032
20
-71.6255329999999901
11
190.0991269999999815
21
-71.5194639999999993
0
LINE
8
BLACK
6
CONTINUOUS
10
190.0991269999999815
20
-71.5194639999999993
11
190.2599139999999807
21
-71.437539000000001
0
LINE
8
BLACK
6
CONTINUOUS
10
190.2599139999999807
20
-71.437539000000001
11
190.4315379999999891
21
-71.3817749999999904
0
LINE
8
BLACK
6
CONTINUOUS
10
190.4315379999999891
20
-71.3817749999999904
11
190.6097719999999924
21
-71.3535449999999969
0
LINE
8
BLACK
6
CONTINUOUS
10
190.6097719999999924
20
-71.3535449999999969
11
190.7902279999999848
21
-71.3535449999999969
0
LINE
8
BLACK
6
CONTINUOUS
10
190.7902279999999848
20
-71.3535449999999969
11
190.9684619999999882
21
-71.3817749999999904
0
LINE
8
BLACK
6
CONTINUOUS
10
189.6499999999999773
20
-72.6034159999999957
11
189.6903499999999951
21
-72.8062740000000019
0
LINE
8
BLACK
6
CONTINUOUS
10
189.6903499999999951
20
-72.8062740000000019
11
189.7695019999999886
21
-72.9973619999999954
0
LINE
8
BLACK
6
CONTINUOUS
10
189.7695019999999886
20
-72.9973619999999954
11
189.8844110000000001
21
-73.1693360000000013
0
LINE
8
BLACK
6
CONTINUOUS
10
189.8844110000000001
20
-73.1693360000000013
11
190.0306640000000016
21
-73.3155890000000028
0
LINE
8
BLACK
6
CONTINUOUS
10
190.0306640000000016
20
-73.3155890000000028
11
190.202637999999979
21
-73.430498
0
LINE
8
BLACK
6
CONTINUOUS
10
190.202637999999979
20
-73.430498
11
190.3937259999999867
21
-73.5096499999999935
0
LINE
8
BLACK
6
CONTINUOUS
10
190.3937259999999867
20
-73.5096499999999935
11
190.5965839999999787
21
-73.5499999999999972
0
LINE
8
BLACK
6
CONTINUOUS
10
190.5965839999999787
20
-73.5499999999999972
11
190.8034159999999986
21
-73.5499999999999972
0
LINE
8
BLACK
6
CONTINUOUS
10
190.8034159999999986
20
-73.5499999999999972
11
191.0062739999999906
21
-73.5096499999999935
0
LINE
8
BLACK
6
CONTINUOUS
10
191.0062739999999906
20
-73.5096499999999935
11
191.1973619999999983
21
-73.430498
0
LINE
8
BLACK
6
CONTINUOUS
10
191.1973619999999983
20
-73.430498
11
191.3693360000000041
21
-73.3155890000000028
0
LINE
8
BLACK
6
CONTINUOUS
10
191.3693360000000041
20
-73.3155890000000028
11
191.5155889999999772
21
-73.1693360000000013
0
LINE
8
BLACK
6
CONTINUOUS
10
191.5155889999999772
20
-73.1693360000000013
11
191.6304979999999887
21
-72.9973619999999954
0
LINE
8
BLACK
6
CONTINUOUS
10
191.6304979999999887
20
-72.9973619999999954
11
191.7096499999999821
21
-72.8062740000000019
0
LINE
8
BLACK
6
CONTINUOUS
10
191.7096499999999821
20
-72.8062740000000019
11
191.75
21
-72.6034159999999957
0
LINE
8
BLACK
6
CONTINUOUS
10
191.75
20
-72.6034159999999957
11
191.75
21
-72.3965839999999901
0
LINE
8
BLACK
6
CONTINUOUS
10
191.75
20
-72.3965839999999901
11
191.7096499999999821
21
-72.1937259999999981
0
LINE
8
BLACK
6
CONTINUOUS
10
191.7096499999999821
20
-72.1937259999999981
11
191.6304979999999887
21
-72.0026379999999904
0
LINE
8
BLACK
6
CONTINUOUS
10
191.6304979999999887
20
-72.0026379999999904
11
191.5155889999999772
21
-71.8306639999999987
0
LINE
8
BLACK
6
CONTINUOUS
10
191.5155889999999772
20
-71.8306639999999987
11
191.3693360000000041
21
-71.6844109999999972
0
LINE
8
BLACK
6
CONTINUOUS
10
191.3693360000000041
20
-71.6844109999999972
11
191.1973619999999983
21
-71.569502
0
LINE
8
BLACK
6
CONTINUOUS
10
191.1973619999999983
20
-71.569502
11
191.0062739999999906
21
-71.4903499999999923
0
LINE
8
BLACK
6
CONTINUOUS
10
191.0062739999999906
20
-71.4903499999999923
11
190.8034159999999986
21
-71.4500000000000028
0
LINE
8
BLACK
6
CONTINUOUS
10
190.8034159999999986
20
-71.4500000000000028
11
190.5965839999999787
21
-71.4500000000000028
0
LINE
8
BLACK
6
CONTINUOUS
10
190.5965839999999787
20
-71.4500000000000028
11
190.3937259999999867
21
-71.4903499999999923
0
LINE
8
BLACK
6
CONTINUOUS
10
190.3937259999999867
20
-71.4903499999999923
11
190.202637999999979
21
-71.569502
0
LINE
8
BLACK
6
CONTINUOUS
10
190.202637999999979
20
-71.569502
11
190.0306640000000016
21
-71.6844109999999972
0
LINE
8
BLACK
6
CONTINUOUS
10
190.0306640000000016
20
-71.6844109999999972
11
189.8844110000000001
21
-71.8306639999999987
0
LINE
8
BLACK
6
CONTINUOUS
10
189.8844110000000001
20
-71.8306639999999987
11
189.7695019999999886
21
-72.0026379999999904
0
LINE
8
BLACK
6
CONTINUOUS
10
189.7695019999999886
20
-72.0026379999999904
11
189.6903499999999951
21
-72.1937259999999981
0
LINE
8
BLACK
6
CONTINUOUS
10
189.6903499999999951
20
-72.1937259999999981
11
189.6499999999999773
21
-72.3965839999999901
0
LINE
8
BLACK
6
CONTINUOUS
10
189.6499999999999773
20
-72.3965839999999901
11
189.6499999999999773
21
-72.6034159999999957
0
LINE
8
BLACK
6
CONTINUOUS
10
233.9684619999999882
20
-71.3817749999999904
11
234.1400859999999966
21
-71.437539000000001
0
LINE
8
BLACK
6
CONTINUOUS
10
234.1400859999999966
20
-71.437539000000001
11
234.3008729999999957
21
-71.5194639999999993
0
LINE
8
BLACK
6
CONTINUOUS
10
234.3008729999999957
20
-71.5194639999999993
11
234.4468650000000025
21
-71.6255329999999901
0
LINE
8
BLACK
6
CONTINUOUS
10
234.4468650000000025
20
-71.6255329999999901
11
234.5744669999999985
21
-71.7531350000000003
0
LINE
8
BLACK
6
CONTINUOUS
10
234.5744669999999985
20
-71.7531350000000003
11
234.6805359999999894
21
-71.8991269999999929
0
LINE
8
BLACK
6
CONTINUOUS
10
234.6805359999999894
20
-71.8991269999999929
11
234.7624610000000018
21
-72.059913999999992
0
LINE
8
BLACK
6
CONTINUOUS
10
234.7624610000000018
20
-72.059913999999992
11
234.818224999999984
21
-72.2315380000000005
0
LINE
8
BLACK
6
CONTINUOUS
10
234.818224999999984
20
-72.2315380000000005
11
234.8464549999999917
21
-72.4097720000000038
0
LINE
8
BLACK
6
CONTINUOUS
10
234.8464549999999917
20
-72.4097720000000038
11
234.8464549999999917
21
-72.5902279999999962
0
LINE
8
BLACK
6
CONTINUOUS
10
234.8464549999999917
20
-72.5902279999999962
11
234.818224999999984
21
-72.7684619999999995
0
LINE
8
BLACK
6
CONTINUOUS
10
234.818224999999984
20
-72.7684619999999995
11
234.7624610000000018
21
-72.9400859999999938
0
LINE
8
BLACK
6
CONTINUOUS
10
234.7624610000000018
20
-72.9400859999999938
11
234.6805359999999894
21
-73.1008729999999929
0
LINE
8
BLACK
6
CONTINUOUS
10
234.6805359999999894
20
-73.1008729999999929
11
234.5744669999999985
21
-73.2468649999999997
0
LINE
8
BLACK
6
CONTINUOUS
10
234.5744669999999985
20
-73.2468649999999997
11
234.4468650000000025
21
-73.3744669999999957
0
LINE
8
BLACK
6
CONTINUOUS
10
234.4468650000000025
20
-73.3744669999999957
11
234.3008729999999957
21
-73.4805360000000007
0
LINE
8
BLACK
6
CONTINUOUS
10
234.3008729999999957
20
-73.4805360000000007
11
234.1400859999999966
21
-73.562460999999999
0
LINE
8
BLACK
6
CONTINUOUS
10
234.1400859999999966
20
-73.562460999999999
11
233.9684619999999882
21
-73.6182249999999954
0
LINE
8
BLACK
6
CONTINUOUS
10
233.9684619999999882
20
-73.6182249999999954
11
233.7902279999999848
21
-73.6464550000000031
0
LINE
8
BLACK
6
CONTINUOUS
10
233.7902279999999848
20
-73.6464550000000031
11
233.6097719999999924
21
-73.6464550000000031
0
LINE
8
BLACK
6
CONTINUOUS
10
233.6097719999999924
20
-73.6464550000000031
11
233.4315379999999891
21
-73.6182249999999954
0
LINE
8
BLACK
6
CONTINUOUS
10
233.4315379999999891
20
-73.6182249999999954
11
233.2599139999999807
21
-73.562460999999999
0
LINE
8
BLACK
6
CONTINUOUS
10
233.2599139999999807
20
-73.562460999999999
11
233.0991269999999815
21
-73.4805360000000007
0
LINE
8
BLACK
6
CONTINUOUS
10
233.0991269999999815
20
-73.4805360000000007
11
232.9531350000000032
21
-73.3744669999999957
0
LINE
8
BLACK
6
CONTINUOUS
10
232.9531350000000032
20
-73.3744669999999957
11
232.8255329999999788
21
-73.2468649999999997
0
LINE
8
BLACK
6
CONTINUOUS
10
232.8255329999999788
20
-73.2468649999999997
11
232.7194639999999879
21
-73.1008729999999929
0
LINE
8
BLACK
6
CONTINUOUS
10
232.7194639999999879
20
-73.1008729999999929
11
232.6375389999999754
21
-72.9400859999999938
0
LINE
8
BLACK
6
CONTINUOUS
10
232.6375389999999754
20
-72.9400859999999938
11
232.5817749999999933
21
-72.7684619999999995
0
LINE
8
BLACK
6
CONTINUOUS
10
232.5817749999999933
20
-72.7684619999999995
11
232.5535449999999855
21
-72.5902279999999962
0
LINE
8
BLACK
6
CONTINUOUS
10
232.5535449999999855
20
-72.5902279999999962
11
232.5535449999999855
21
-72.4097720000000038
0
LINE
8
BLACK
6
CONTINUOUS
10
232.5535449999999855
20
-72.4097720000000038
11
232.5556339999999977
21
-72.3965839999999901
0
LINE
8
BLACK
6
CONTINUOUS
10
232.5556339999999977
20
-72.3965839999999901
11
232.5817749999999933
21
-72.2315380000000005
0
LINE
8
BLACK
6
CONTINUOUS
10
232.5817749999999933
20
-72.2315380000000005
11
232.6375389999999754
21
-72.059913999999992
0
LINE
8
BLACK
6
CONTINUOUS
10
232.6375389999999754
20
-72.059913999999992
11
232.7194639999999879
21
-71.8991269999999929
0
LINE
8
BLACK
6
CONTINUOUS
10
232.7194639999999879
20
-71.8991269999999929
11
232.8255329999999788
21
-71.7531350000000003
0
LINE
8
BLACK
6
CONTINUOUS
10
232.8255329999999788
20
-71.7531350000000003
11
232.9531350000000032
21
-71.6255329999999901
0
LINE
8
BLACK
6
CONTINUOUS
10
232.9531350000000032
20
-71.6255329999999901
11
233.0991269999999815
21
-71.5194639999999993
0
LINE
8
BLACK
6
CONTINUOUS
10
233.0991269999999815
20
-71.5194639999999993
11
233.2599139999999807
21
-71.437539000000001
0
LINE
8
BLACK
6
CONTINUOUS
10
233.2599139999999807
20
-71.437539000000001
11
233.4315379999999891
21
-71.3817749999999904
0
LINE
8
BLACK
6
CONTINUOUS
10
233.4315379999999891
20
-71.3817749999999904
11
233.6097719999999924
21
-71.3535449999999969
0
LINE
8
BLACK
6
CONTINUOUS
10
233.6097719999999924
20
-71.3535449999999969
11
233.7902279999999848
21
-71.3535449999999969
0
LINE
8
BLACK
6
CONTINUOUS
10
233.7902279999999848
20
-71.3535449999999969
11
233.9684619999999882
21
-71.3817749999999904
0
LINE
8
BLACK
6
CONTINUOUS
10
232.6499999999999773
20
-72.6034159999999957
11
232.6903499999999951
21
-72.8062740000000019
0
LINE
8
BLACK
6
CONTINUOUS
10
232.6903499999999951
20
-72.8062740000000019
11
232.7695019999999886
21
-72.9973619999999954
0
LINE
8
BLACK
6
CONTINUOUS
10
232.7695019999999886
20
-72.9973619999999954
11
232.8844110000000001
21
-73.1693360000000013
0
LINE
8
BLACK
6
CONTINUOUS
10
232.8844110000000001
20
-73.1693360000000013
11
233.0306640000000016
21
-73.3155890000000028
0
LINE
8
BLACK
6
CONTINUOUS
10
233.0306640000000016
20
-73.3155890000000028
11
233.202637999999979
21
-73.430498
0
LINE
8
BLACK
6
CONTINUOUS
10
233.202637999999979
20
-73.430498
11
233.3937259999999867
21
-73.5096499999999935
0
LINE
8
BLACK
6
CONTINUOUS
10
233.3937259999999867
20
-73.5096499999999935
11
233.5965839999999787
21
-73.5499999999999972
0
LINE
8
BLACK
6
CONTINUOUS
10
233.5965839999999787
20
-73.5499999999999972
11
233.8034159999999986
21
-73.5499999999999972
0
LINE
8
BLACK
6
CONTINUOUS
10
233.8034159999999986
20
-73.5499999999999972
11
234.0062739999999906
21
-73.5096499999999935
0
LINE
8
BLACK
6
CONTINUOUS
10
234.0062739999999906
20
-73.5096499999999935
11
234.1973619999999983
21
-73.430498
0
LINE
8
BLACK
6
CONTINUOUS
10
234.1973619999999983
20
-73.430498
11
234.3693359999999757
21
-73.3155890000000028
0
LINE
8
BLACK
6
CONTINUOUS
10
234.3693359999999757
20
-73.3155890000000028
11
234.5155889999999772
21
-73.1693360000000013
0
LINE
8
BLACK
6
CONTINUOUS
10
234.5155889999999772
20
-73.1693360000000013
11
234.6304979999999887
21
-72.9973619999999954
0
LINE
8
BLACK
6
CONTINUOUS
10
234.6304979999999887
20
-72.9973619999999954
11
234.7096499999999821
21
-72.8062740000000019
0
LINE
8
BLACK
6
CONTINUOUS
10
234.7096499999999821
20
-72.8062740000000019
11
234.75
21
-72.6034159999999957
0
LINE
8
BLACK
6
CONTINUOUS
10
234.75
20
-72.6034159999999957
11
234.75
21
-72.3965839999999901
0
LINE
8
BLACK
6
CONTINUOUS
10
234.75
20
-72.3965839999999901
11
234.7096499999999821
21
-72.1937259999999981
0
LINE
8
BLACK
6
CONTINUOUS
10
234.7096499999999821
20
-72.1937259999999981
11
234.6304979999999887
21
-72.0026379999999904
0
LINE
8
BLACK
6
CONTINUOUS
10
234.6304979999999887
20
-72.0026379999999904
11
234.5155889999999772
21
-71.8306639999999987
0
LINE
8
BLACK
6
CONTINUOUS
10
234.5155889999999772
20
-71.8306639999999987
11
234.3693359999999757
21
-71.6844109999999972
0
LINE
8
BLACK
6
CONTINUOUS
10
234.3693359999999757
20
-71.6844109999999972
11
234.1973619999999983
21
-71.569502
0
LINE
8
BLACK
6
CONTINUOUS
10
234.1973619999999983
20
-71.569502
11
234.0062739999999906
21
-71.4903499999999923
0
LINE
8
BLACK
6
CONTINUOUS
10
234.0062739999999906
20
-71.4903499999999923
11
233.8034159999999986
21
-71.4500000000000028
0
LINE
8
BLACK
6
CONTINUOUS
10
233.8034159999999986
20
-71.4500000000000028
11
233.5965839999999787
21
-71.4500000000000028
0
LINE
8
BLACK
6
CONTINUOUS
10
233.5965839999999787
20
-71.4500000000000028
11
233.3937259999999867
21
-71.4903499999999923
0
LINE
8
BLACK
6
CONTINUOUS
10
233.3937259999999867
20
-71.4903499999999923
11
233.202637999999979
21
-71.569502
0
LINE
8
BLACK
6
CONTINUOUS
10
233.202637999999979
20
-71.569502
11
233.0306640000000016
21
-71.6844109999999972
0
LINE
8
BLACK
6
CONTINUOUS
10
233.0306640000000016
20
-71.6844109999999972
11
232.8844110000000001
21
-71.8306639999999987
0
LINE
8
BLACK
6
CONTINUOUS
10
232.8844110000000001
20
-71.8306639999999987
11
232.7695019999999886
21
-72.0026379999999904
0
LINE
8
BLACK
6
CONTINUOUS
10
232.7695019999999886
20
-72.0026379999999904
11
232.6903499999999951
21
-72.1937259999999981
0
LINE
8
BLACK
6
CONTINUOUS
10
232.6903499999999951
20
-72.1937259999999981
11
232.6499999999999773
21
-72.3965839999999901
0
LINE
8
BLACK
6
CONTINUOUS
10
232.6499999999999773
20
-72.3965839999999901
11
232.6499999999999773
21
-72.6034159999999957
0
LINE
8
BLACK
6
CONTINUOUS
10
234.6286819999999977
20
-66.6713199999999944
11
234.944878999999986
21
-66.6878889999999984
0
LINE
8
BLACK
6
CONTINUOUS
10
234.944878999999986
20
-66.6878889999999984
11
235.2576139999999896
21
-66.7374200000000002
0
LINE
8
BLACK
6
CONTINUOUS
10
235.2576139999999896
20
-66.7374200000000002
11
235.5634589999999946
21
-66.8193689999999947
0
LINE
8
BLACK
6
CONTINUOUS
10
235.5634589999999946
20
-66.8193689999999947
11
235.8590619999999944
21
-66.9328390000000013
0
LINE
8
BLACK
6
CONTINUOUS
10
235.8590619999999944
20
-66.9328390000000013
11
236.1411839999999813
21
-67.0765870000000035
0
LINE
8
BLACK
6
CONTINUOUS
10
236.1411839999999813
20
-67.0765870000000035
11
236.4067349999999976
21
-67.2490370000000013
0
LINE
8
BLACK
6
CONTINUOUS
10
236.4067349999999976
20
-67.2490370000000013
11
236.6528059999999982
21
-67.4483010000000007
0
LINE
8
BLACK
6
CONTINUOUS
10
236.6528059999999982
20
-67.4483010000000007
11
236.8766990000000021
21
-67.6721939999999904
0
LINE
8
BLACK
6
CONTINUOUS
10
236.8766990000000021
20
-67.6721939999999904
11
237.0759630000000016
21
-67.918264999999991
0
LINE
8
BLACK
6
CONTINUOUS
10
237.0759630000000016
20
-67.918264999999991
11
237.2484129999999993
21
-68.1838159999999931
0
LINE
8
BLACK
6
CONTINUOUS
10
237.2484129999999993
20
-68.1838159999999931
11
237.3921609999999873
21
-68.4659379999999942
0
LINE
8
BLACK
6
CONTINUOUS
10
237.3921609999999873
20
-68.4659379999999942
11
237.5056309999999939
21
-68.761540999999994
0
LINE
8
BLACK
6
CONTINUOUS
10
237.5056309999999939
20
-68.761540999999994
11
237.5875800000000027
21
-69.0673859999999991
0
LINE
8
BLACK
6
CONTINUOUS
10
237.5875800000000027
20
-69.0673859999999991
11
237.637110999999976
21
-69.3801210000000026
0
LINE
8
BLACK
6
CONTINUOUS
10
237.637110999999976
20
-69.3801210000000026
11
237.6536799999999801
21
-69.6963200000000001
0
LINE
8
BLACK
6
CONTINUOUS
10
237.6536799999999801
20
-69.6963200000000001
11
237.6536799999999801
21
-98.8786999999999949
0
LINE
8
BLACK
6
CONTINUOUS
10
237.6536799999999801
20
-98.8786999999999949
11
237.6536769999999876
21
-98.8787129999999905
0
LINE
8
BLACK
6
CONTINUOUS
10
237.6536769999999876
20
-98.8787129999999905
11
237.6371099999999785
21
-99.1948790000000002
0
LINE
8
BLACK
6
CONTINUOUS
10
237.6371099999999785
20
-99.1948790000000002
11
237.5875789999999768
21
-99.5076139999999896
0
LINE
8
BLACK
6
CONTINUOUS
10
237.5875789999999768
20
-99.5076139999999896
11
237.5056299999999965
21
-99.8134579999999971
0
LINE
8
BLACK
6
CONTINUOUS
10
237.5056299999999965
20
-99.8134579999999971
11
237.3921599999999899
21
-100.109060999999997
0
LINE
8
BLACK
6
CONTINUOUS
10
237.3921599999999899
20
-100.109060999999997
11
237.2484120000000019
21
-100.3911839999999955
0
LINE
8
BLACK
6
CONTINUOUS
10
237.2484120000000019
20
-100.3911839999999955
11
237.0759619999999757
21
-100.6567349999999976
0
LINE
8
BLACK
6
CONTINUOUS
10
237.0759619999999757
20
-100.6567349999999976
11
236.8766979999999762
21
-100.9028050000000007
0
LINE
8
BLACK
6
CONTINUOUS
10
236.8766979999999762
20
-100.9028050000000007
11
236.6528050000000007
21
-101.1266979999999904
0
LINE
8
BLACK
6
CONTINUOUS
10
236.6528050000000007
20
-101.1266979999999904
11
236.4067349999999976
21
-101.3259619999999899
0
LINE
8
BLACK
6
CONTINUOUS
10
236.4067349999999976
20
-101.3259619999999899
11
236.1411839999999813
21
-101.4984120000000019
0
LINE
8
BLACK
6
CONTINUOUS
10
236.1411839999999813
20
-101.4984120000000019
11
235.859060999999997
21
-101.6421599999999899
0
LINE
8
BLACK
6
CONTINUOUS
10
235.859060999999997
20
-101.6421599999999899
11
235.5634579999999971
21
-101.7556299999999965
0
LINE
8
BLACK
6
CONTINUOUS
10
235.5634579999999971
20
-101.7556299999999965
11
235.2576139999999896
21
-101.837578999999991
0
LINE
8
BLACK
6
CONTINUOUS
10
235.2576139999999896
20
-101.837578999999991
11
234.944878999999986
21
-101.8871099999999927
0
LINE
8
BLACK
6
CONTINUOUS
10
234.944878999999986
20
-101.8871099999999927
11
234.6286859999999876
21
-101.9036779999999993
0
LINE
8
BLACK
6
CONTINUOUS
10
234.6286859999999876
20
-101.9036779999999993
11
234.6286800000000028
21
-101.9036799999999943
0
LINE
8
BLACK
6
CONTINUOUS
10
234.6286800000000028
20
-101.9036799999999943
11
179.8713199999999972
21
-101.9036799999999943
0
LINE
8
BLACK
6
CONTINUOUS
10
179.8713199999999972
20
-101.9036799999999943
11
179.5551209999999855
21
-101.8871109999999902
0
LINE
8
BLACK
6
CONTINUOUS
10
179.5551209999999855
20
-101.8871109999999902
11
179.242385999999982
21
-101.8375799999999884
0
LINE
8
BLACK
6
CONTINUOUS
10
179.242385999999982
20
-101.8375799999999884
11
178.9365410000000054
21
-101.7556309999999939
0
LINE
8
BLACK
6
CONTINUOUS
10
178.9365410000000054
20
-101.7556309999999939
11
178.6409380000000056
21
-101.6421610000000015
0
LINE
8
BLACK
6
CONTINUOUS
10
178.6409380000000056
20
-101.6421610000000015
11
178.3588159999999903
21
-101.4984129999999993
0
LINE
8
BLACK
6
CONTINUOUS
10
178.3588159999999903
20
-101.4984129999999993
11
178.0932650000000024
21
-101.3259630000000016
0
LINE
8
BLACK
6
CONTINUOUS
10
178.0932650000000024
20
-101.3259630000000016
11
177.8471940000000018
21
-101.1266990000000021
0
LINE
8
BLACK
6
CONTINUOUS
10
177.8471940000000018
20
-101.1266990000000021
11
177.6233009999999979
21
-100.9028059999999982
0
LINE
8
BLACK
6
CONTINUOUS
10
177.6233009999999979
20
-100.9028059999999982
11
177.4240369999999984
21
-100.6567349999999976
0
LINE
8
BLACK
6
CONTINUOUS
10
177.4240369999999984
20
-100.6567349999999976
11
177.2515870000000007
21
-100.3911839999999955
0
LINE
8
BLACK
6
CONTINUOUS
10
177.2515870000000007
20
-100.3911839999999955
11
177.1078389999999843
21
-100.1090619999999944
0
LINE
8
BLACK
6
CONTINUOUS
10
177.1078389999999843
20
-100.1090619999999944
11
176.9943690000000061
21
-99.8134589999999946
0
LINE
8
BLACK
6
CONTINUOUS
10
176.9943690000000061
20
-99.8134589999999946
11
176.9124199999999973
21
-99.5076139999999896
0
LINE
8
BLACK
6
CONTINUOUS
10
176.9124199999999973
20
-99.5076139999999896
11
176.8628889999999956
21
-99.1948790000000002
0
LINE
8
BLACK
6
CONTINUOUS
10
176.8628889999999956
20
-99.1948790000000002
11
176.846320999999989
21
-98.8787069999999915
0
LINE
8
BLACK
6
CONTINUOUS
10
176.846320999999989
20
-98.8787069999999915
11
176.8463199999999915
21
-98.8786999999999949
0
LINE
8
BLACK
6
CONTINUOUS
10
176.8463199999999915
20
-98.8786999999999949
11
176.8463199999999915
21
-69.6924470000000014
0
LINE
8
BLACK
6
CONTINUOUS
10
176.8463199999999915
20
-69.6924470000000014
11
176.8463199999999915
21
-69.6924439999999947
0
LINE
8
BLACK
6
CONTINUOUS
10
176.8463199999999915
20
-69.6924439999999947
11
176.8628099999999961
21
-69.3769759999999991
0
LINE
8
BLACK
6
CONTINUOUS
10
176.8628099999999961
20
-69.3769759999999991
11
176.9121099999999842
21
-69.0649470000000036
0
LINE
8
BLACK
6
CONTINUOUS
10
176.9121099999999842
20
-69.0649470000000036
11
176.9936809999999809
21
-68.7597609999999975
0
LINE
8
BLACK
6
CONTINUOUS
10
176.9936809999999809
20
-68.7597609999999975
11
177.1066359999999804
21
-68.464745999999991
0
LINE
8
BLACK
6
CONTINUOUS
10
177.1066359999999804
20
-68.464745999999991
11
177.2497400000000027
21
-68.1831189999999907
0
LINE
8
BLACK
6
CONTINUOUS
10
177.2497400000000027
20
-68.1831189999999907
11
177.4214350000000024
21
-67.9179529999999971
0
LINE
8
BLACK
6
CONTINUOUS
10
177.4214350000000024
20
-67.9179529999999971
11
177.6198459999999955
21
-67.6721369999999922
0
LINE
8
BLACK
6
CONTINUOUS
10
177.6198459999999955
20
-67.6721369999999922
11
177.8428119999999808
21
-67.4483539999999948
0
LINE
8
BLACK
6
CONTINUOUS
10
177.8428119999999808
20
-67.4483539999999948
11
178.0878999999999905
21
-67.2490439999999978
0
LINE
8
BLACK
6
CONTINUOUS
10
178.0878999999999905
20
-67.2490439999999978
11
178.3524359999999831
21
-67.0763809999999978
0
LINE
8
BLACK
6
CONTINUOUS
10
178.3524359999999831
20
-67.0763809999999978
11
178.6335369999999898
21
-66.9322470000000038
0
LINE
8
BLACK
6
CONTINUOUS
10
178.6335369999999898
20
-66.9322470000000038
11
178.9281369999999924
21
-66.8182139999999976
0
LINE
8
BLACK
6
CONTINUOUS
10
178.9281369999999924
20
-66.8182139999999976
11
179.2330220000000054
21
-66.735525999999993
0
LINE
8
BLACK
6
CONTINUOUS
10
179.2330220000000054
20
-66.735525999999993
11
179.5448690000000056
21
-66.6850850000000008
0
LINE
8
BLACK
6
CONTINUOUS
10
179.5448690000000056
20
-66.6850850000000008
11
179.8602750000000015
21
-66.6674399999999991
0
LINE
8
BLACK
6
CONTINUOUS
10
179.8602750000000015
20
-66.6674399999999991
11
179.8602750000000015
21
-66.6674579999999963
0
LINE
8
BLACK
6
CONTINUOUS
10
179.8602750000000015
20
-66.6674579999999963
11
179.860367999999994
21
-66.6674399999999991
0
LINE
8
BLACK
6
CONTINUOUS
10
179.860367999999994
20
-66.6674399999999991
11
234.6286819999999977
21
-66.6713199999999944
0
LINE
8
BLACK
6
CONTINUOUS
10
179.704905999999994
20
-66.7179879999999912
11
179.3956179999999847
21
-66.7515590000000003
0
LINE
8
BLACK
6
CONTINUOUS
10
179.3956179999999847
20
-66.7515590000000003
11
179.0915179999999793
21
-66.8172029999999921
0
LINE
8
BLACK
6
CONTINUOUS
10
179.0915179999999793
20
-66.8172029999999921
11
178.7959229999999877
21
-66.9142030000000005
0
LINE
8
BLACK
6
CONTINUOUS
10
178.7959229999999877
20
-66.9142030000000005
11
178.5120539999999778
21
-67.0415009999999967
0
LINE
8
BLACK
6
CONTINUOUS
10
178.5120539999999778
20
-67.0415009999999967
11
178.2430099999999982
21
-67.1977079999999916
0
LINE
8
BLACK
6
CONTINUOUS
10
178.2430099999999982
20
-67.1977079999999916
11
177.991722999999979
21
-67.3811219999999906
0
LINE
8
BLACK
6
CONTINUOUS
10
177.991722999999979
20
-67.3811219999999906
11
177.7609339999999918
21
-67.5897420000000011
0
LINE
8
BLACK
6
CONTINUOUS
10
177.7609339999999918
20
-67.5897420000000011
11
177.5531599999999912
21
-67.8212929999999972
0
LINE
8
BLACK
6
CONTINUOUS
10
177.5531599999999912
20
-67.8212929999999972
11
177.3706659999999999
21
-68.0732500000000016
0
LINE
8
BLACK
6
CONTINUOUS
10
177.3706659999999999
20
-68.0732500000000016
11
177.2154439999999909
21
-68.3428639999999916
0
LINE
8
BLACK
6
CONTINUOUS
10
177.2154439999999909
20
-68.3428639999999916
11
177.0891859999999838
21
-68.6271959999999979
0
LINE
8
BLACK
6
CONTINUOUS
10
177.0891859999999838
20
-68.6271959999999979
11
176.993268999999998
21
-68.923144999999991
0
LINE
8
BLACK
6
CONTINUOUS
10
176.993268999999998
20
-68.923144999999991
11
176.9287379999999814
21
-69.2274829999999923
0
LINE
8
BLACK
6
CONTINUOUS
10
176.9287379999999814
20
-69.2274829999999923
11
176.8962989999999991
21
-69.5368919999999946
0
LINE
8
BLACK
6
CONTINUOUS
10
176.8962989999999991
20
-69.5368919999999946
11
176.8963190000000054
21
-69.6924379999999957
0
LINE
8
BLACK
6
CONTINUOUS
10
176.8963190000000054
20
-69.6924379999999957
11
176.8963210000000004
21
-69.6924439999999947
0
LINE
8
BLACK
6
CONTINUOUS
10
176.8963210000000004
20
-69.6924439999999947
11
176.8963200000000029
21
-98.8786799999999886
0
LINE
8
BLACK
6
CONTINUOUS
10
176.8963200000000029
20
-98.8786799999999886
11
176.8963190000000054
21
-99.0345939999999985
0
LINE
8
BLACK
6
CONTINUOUS
10
176.8963190000000054
20
-99.0345939999999985
11
176.9289119999999969
21
-99.3447120000000012
0
LINE
8
BLACK
6
CONTINUOUS
10
176.9289119999999969
20
-99.3447120000000012
11
176.9937429999999949
21
-99.6497249999999894
0
LINE
8
BLACK
6
CONTINUOUS
10
176.9937429999999949
20
-99.6497249999999894
11
177.0901010000000042
21
-99.9462910000000022
0
LINE
8
BLACK
6
CONTINUOUS
10
177.0901010000000042
20
-99.9462910000000022
11
177.2169319999999857
21
-100.231158999999991
0
LINE
8
BLACK
6
CONTINUOUS
10
177.2169319999999857
20
-100.231158999999991
11
177.3728449999999839
21
-100.5012100000000004
0
LINE
8
BLACK
6
CONTINUOUS
10
177.3728449999999839
20
-100.5012100000000004
11
177.556131999999991
21
-100.7534829999999886
0
LINE
8
BLACK
6
CONTINUOUS
10
177.556131999999991
20
-100.7534829999999886
11
177.7647839999999917
21
-100.9852159999999941
0
LINE
8
BLACK
6
CONTINUOUS
10
177.7647839999999917
20
-100.9852159999999941
11
177.996516999999983
21
-101.1938679999999948
0
LINE
8
BLACK
6
CONTINUOUS
10
177.996516999999983
20
-101.1938679999999948
11
178.2487899999999854
21
-101.3771550000000019
0
LINE
8
BLACK
6
CONTINUOUS
10
178.2487899999999854
20
-101.3771550000000019
11
178.5188409999999806
21
-101.5330680000000001
0
LINE
8
BLACK
6
CONTINUOUS
10
178.5188409999999806
20
-101.5330680000000001
11
178.8037089999999978
21
-101.6598989999999958
0
LINE
8
BLACK
6
CONTINUOUS
10
178.8037089999999978
20
-101.6598989999999958
11
179.1002749999999821
21
-101.7562569999999909
0
LINE
8
BLACK
6
CONTINUOUS
10
179.1002749999999821
20
-101.7562569999999909
11
179.4052879999999845
21
-101.8210879999999889
0
LINE
8
BLACK
6
CONTINUOUS
10
179.4052879999999845
20
-101.8210879999999889
11
179.7154060000000015
21
-101.8536809999999946
0
LINE
8
BLACK
6
CONTINUOUS
10
179.7154060000000015
20
-101.8536809999999946
11
179.8713199999999972
21
-101.8536799999999971
0
LINE
8
BLACK
6
CONTINUOUS
10
179.8713199999999972
20
-101.8536799999999971
11
234.6286769999999819
21
-101.8536799999999971
0
LINE
8
BLACK
6
CONTINUOUS
10
234.6286769999999819
20
-101.8536799999999971
11
234.6286800000000028
21
-101.8536789999999996
0
LINE
8
BLACK
6
CONTINUOUS
10
234.6286800000000028
20
-101.8536789999999996
11
234.7845939999999985
21
-101.8536799999999971
0
LINE
8
BLACK
6
CONTINUOUS
10
234.7845939999999985
20
-101.8536799999999971
11
235.094711999999987
21
-101.8210869999999915
0
LINE
8
BLACK
6
CONTINUOUS
10
235.094711999999987
20
-101.8210869999999915
11
235.3997249999999894
21
-101.7562559999999934
0
LINE
8
BLACK
6
CONTINUOUS
10
235.3997249999999894
20
-101.7562559999999934
11
235.6962899999999763
21
-101.6598979999999983
0
LINE
8
BLACK
6
CONTINUOUS
10
235.6962899999999763
20
-101.6598979999999983
11
235.981158999999991
21
-101.5330669999999884
0
LINE
8
BLACK
6
CONTINUOUS
10
235.981158999999991
20
-101.5330669999999884
11
236.2512089999999887
21
-101.3771550000000019
0
LINE
8
BLACK
6
CONTINUOUS
10
236.2512089999999887
20
-101.3771550000000019
11
236.5034819999999911
21
-101.1938679999999948
0
LINE
8
BLACK
6
CONTINUOUS
10
236.5034819999999911
20
-101.1938679999999948
11
236.7352149999999824
21
-100.9852149999999966
0
LINE
8
BLACK
6
CONTINUOUS
10
236.7352149999999824
20
-100.9852149999999966
11
236.9438679999999806
21
-100.7534819999999911
0
LINE
8
BLACK
6
CONTINUOUS
10
236.9438679999999806
20
-100.7534819999999911
11
237.1271549999999877
21
-100.5012089999999887
0
LINE
8
BLACK
6
CONTINUOUS
10
237.1271549999999877
20
-100.5012089999999887
11
237.2830669999999884
21
-100.231158999999991
0
LINE
8
BLACK
6
CONTINUOUS
10
237.2830669999999884
20
-100.231158999999991
11
237.4098979999999983
21
-99.9462899999999905
0
LINE
8
BLACK
6
CONTINUOUS
10
237.4098979999999983
20
-99.9462899999999905
11
237.5062559999999792
21
-99.6497249999999894
0
LINE
8
BLACK
6
CONTINUOUS
10
237.5062559999999792
20
-99.6497249999999894
11
237.5710869999999773
21
-99.3447120000000012
0
LINE
8
BLACK
6
CONTINUOUS
10
237.5710869999999773
20
-99.3447120000000012
11
237.6036799999999971
21
-99.0345939999999985
0
LINE
8
BLACK
6
CONTINUOUS
10
237.6036799999999971
20
-99.0345939999999985
11
237.6036789999999996
21
-98.8786799999999886
0
LINE
8
BLACK
6
CONTINUOUS
10
237.6036789999999996
20
-98.8786799999999886
11
237.6036799999999971
21
-98.8786759999999987
0
LINE
8
BLACK
6
CONTINUOUS
10
237.6036799999999971
20
-98.8786759999999987
11
237.6036799999999971
21
-69.6963200000000001
0
LINE
8
BLACK
6
CONTINUOUS
10
237.6036799999999971
20
-69.6963200000000001
11
237.6036809999999946
21
-69.5404059999999902
0
LINE
8
BLACK
6
CONTINUOUS
10
237.6036809999999946
20
-69.5404059999999902
11
237.5710880000000031
21
-69.2302880000000016
0
LINE
8
BLACK
6
CONTINUOUS
10
237.5710880000000031
20
-69.2302880000000016
11
237.5062569999999766
21
-68.9252749999999992
0
LINE
8
BLACK
6
CONTINUOUS
10
237.5062569999999766
20
-68.9252749999999992
11
237.4098989999999958
21
-68.6287090000000006
0
LINE
8
BLACK
6
CONTINUOUS
10
237.4098989999999958
20
-68.6287090000000006
11
237.2830679999999859
21
-68.3438409999999976
0
LINE
8
BLACK
6
CONTINUOUS
10
237.2830679999999859
20
-68.3438409999999976
11
237.1271549999999877
21
-68.0737900000000025
0
LINE
8
BLACK
6
CONTINUOUS
10
237.1271549999999877
20
-68.0737900000000025
11
236.9438679999999806
21
-67.8215170000000001
0
LINE
8
BLACK
6
CONTINUOUS
10
236.9438679999999806
20
-67.8215170000000001
11
236.7352159999999799
21
-67.5897839999999945
0
LINE
8
BLACK
6
CONTINUOUS
10
236.7352159999999799
20
-67.5897839999999945
11
236.5034829999999886
21
-67.3811319999999938
0
LINE
8
BLACK
6
CONTINUOUS
10
236.5034829999999886
20
-67.3811319999999938
11
236.2512099999999862
21
-67.1978450000000009
0
LINE
8
BLACK
6
CONTINUOUS
10
236.2512099999999862
20
-67.1978450000000009
11
235.981158999999991
21
-67.0419320000000027
0
LINE
8
BLACK
6
CONTINUOUS
10
235.981158999999991
20
-67.0419320000000027
11
235.6962910000000022
21
-66.9151009999999928
0
LINE
8
BLACK
6
CONTINUOUS
10
235.6962910000000022
20
-66.9151009999999928
11
235.3997249999999894
21
-66.8187429999999978
0
LINE
8
BLACK
6
CONTINUOUS
10
235.3997249999999894
20
-66.8187429999999978
11
235.094711999999987
21
-66.7539119999999997
0
LINE
8
BLACK
6
CONTINUOUS
10
235.094711999999987
20
-66.7539119999999997
11
234.7845939999999985
21
-66.721318999999994
0
LINE
8
BLACK
6
CONTINUOUS
10
234.7845939999999985
20
-66.721318999999994
11
234.6286800000000028
21
-66.7213199999999915
0
LINE
8
BLACK
6
CONTINUOUS
10
234.6286800000000028
20
-66.7213199999999915
11
234.6286789999999769
21
-66.721318999999994
0
LINE
8
BLACK
6
CONTINUOUS
10
234.6286789999999769
20
-66.721318999999994
11
234.6286779999999794
21
-66.7213199999999915
0
LINE
8
BLACK
6
CONTINUOUS
10
234.6286779999999794
20
-66.7213199999999915
11
179.8605289999999854
21
-66.7174399999999963
0
LINE
8
BLACK
6
CONTINUOUS
10
179.8605289999999854
20
-66.7174399999999963
11
179.8604569999999967
21
-66.7174639999999926
0
LINE
8
BLACK
6
CONTINUOUS
10
179.8604569999999967
20
-66.7174639999999926
11
179.8604569999999967
21
-66.7174399999999963
0
LINE
8
BLACK
6
CONTINUOUS
10
179.8604569999999967
20
-66.7174399999999963
11
179.8604550000000017
21
-66.7174399999999963
0
LINE
8
BLACK
6
CONTINUOUS
10
179.8604550000000017
20
-66.7174399999999963
11
179.704905999999994
21
-66.7179879999999912
  0
ENDSEC
  0
EOF
