%TF.GenerationSoftware,KiCad,Pcbnew,9.0.0*%
%TF.CreationDate,2025-09-03T15:15:46-07:00*%
%TF.ProjectId,grippy,67726970-7079-42e6-9b69-6361645f7063,rev?*%
%TF.SameCoordinates,Original*%
%TF.FileFunction,Legend,Top*%
%TF.FilePolarity,Positive*%
%FSLAX46Y46*%
G04 Gerber Fmt 4.6, Leading zero omitted, Abs format (unit mm)*
G04 Created by KiCad (PCBNEW 9.0.0) date 2025-09-03 15:15:46*
%MOMM*%
%LPD*%
G01*
G04 APERTURE LIST*
%ADD10C,0.300000*%
%ADD11C,0.120000*%
%ADD12C,0.150000*%
%ADD13C,0.100000*%
G04 APERTURE END LIST*
D10*
G36*
X191732998Y-80629941D02*
G01*
X191720529Y-80875097D01*
X191688119Y-81051382D01*
X191626353Y-81201678D01*
X191537665Y-81311684D01*
X191418347Y-81391347D01*
X191253428Y-81447605D01*
X190808906Y-81487356D01*
X187772906Y-81487356D01*
X187269399Y-81447605D01*
X187087061Y-81389728D01*
X186960371Y-81306555D01*
X186868230Y-81189365D01*
X186804788Y-81025309D01*
X186772767Y-80831918D01*
X186760336Y-80558134D01*
X186760336Y-75764563D01*
X186786811Y-75436698D01*
X186854132Y-75219464D01*
X186950540Y-75081110D01*
X187091588Y-74987496D01*
X187318012Y-74921108D01*
X187665195Y-74894753D01*
X190799075Y-74894753D01*
X191267960Y-74934931D01*
X191437157Y-74992793D01*
X191557754Y-75076836D01*
X191644433Y-75194431D01*
X191703079Y-75363638D01*
X191742829Y-75826967D01*
X191742829Y-76320643D01*
X191708491Y-76625860D01*
X191622732Y-76809146D01*
X191496355Y-76910847D01*
X191317969Y-76946393D01*
X191127882Y-76911945D01*
X191004239Y-76817738D01*
X190930285Y-76664166D01*
X190893108Y-76395869D01*
X190858914Y-76061623D01*
X190821645Y-75946224D01*
X190764881Y-75868427D01*
X190682586Y-75814637D01*
X190555015Y-75777385D01*
X190181446Y-75752595D01*
X189877974Y-75742764D01*
X188370446Y-75742764D01*
X187958836Y-75771829D01*
X187826343Y-75821152D01*
X187734438Y-75905613D01*
X187675627Y-76025395D01*
X187639122Y-76210794D01*
X187619888Y-76765164D01*
X187629291Y-77049402D01*
X187672034Y-77222509D01*
X187766922Y-77331930D01*
X187935327Y-77423826D01*
X188158871Y-77549062D01*
X188255469Y-77677289D01*
X188306313Y-77818745D01*
X188325139Y-78008544D01*
X188325139Y-78442808D01*
X188325139Y-79834076D01*
X188342906Y-80204226D01*
X188381987Y-80384599D01*
X188467292Y-80505772D01*
X188618353Y-80580787D01*
X188822234Y-80609852D01*
X189242393Y-80629514D01*
X189486880Y-80629514D01*
X189712133Y-80639345D01*
X190172042Y-80639345D01*
X190568265Y-80610707D01*
X190693676Y-80557611D01*
X190782405Y-80457261D01*
X190836064Y-80313994D01*
X190868318Y-80072579D01*
X190883278Y-79348094D01*
X190868745Y-78811675D01*
X190840915Y-78624931D01*
X190797365Y-78510768D01*
X190728187Y-78425614D01*
X190635799Y-78372282D01*
X190357545Y-78323983D01*
X190230172Y-78314153D01*
X189966390Y-78270739D01*
X189819844Y-78199603D01*
X189731051Y-78082218D01*
X189698028Y-77894849D01*
X189733030Y-77712948D01*
X189832172Y-77585527D01*
X190008526Y-77500103D01*
X190299415Y-77466141D01*
X190906786Y-77466141D01*
X191219621Y-77492576D01*
X191426377Y-77559870D01*
X191557754Y-77656773D01*
X191645326Y-77797037D01*
X191708013Y-78023723D01*
X191732998Y-78372710D01*
X191732998Y-80629941D01*
G37*
G36*
X193954754Y-80610707D02*
G01*
X193929963Y-81031721D01*
X193890360Y-81184364D01*
X193829091Y-81292877D01*
X193740942Y-81373366D01*
X193622644Y-81424952D01*
X193284979Y-81460001D01*
X193000613Y-81443309D01*
X192843021Y-81404435D01*
X192723790Y-81325252D01*
X192626317Y-81187303D01*
X192575881Y-80991970D01*
X192566050Y-80611989D01*
X192566050Y-77598643D01*
X192590840Y-77187460D01*
X192633144Y-77045981D01*
X192702398Y-76946393D01*
X192801637Y-76876616D01*
X192938337Y-76834835D01*
X193334132Y-76809617D01*
X194577939Y-76809617D01*
X194896271Y-76834323D01*
X195061357Y-76890827D01*
X195161938Y-76997383D01*
X195198560Y-77174210D01*
X195160744Y-77367054D01*
X195060929Y-77472553D01*
X194896323Y-77525120D01*
X194577939Y-77548207D01*
X193813703Y-77548207D01*
X193520018Y-77576685D01*
X193397391Y-77637539D01*
X193336850Y-77760617D01*
X193308487Y-78055561D01*
X193308487Y-78104714D01*
X193325899Y-78315903D01*
X193364480Y-78416307D01*
X193443994Y-78481248D01*
X193621362Y-78543252D01*
X193806021Y-78621126D01*
X193893632Y-78706101D01*
X193935546Y-78833842D01*
X193954754Y-79107026D01*
X193954754Y-80610707D01*
G37*
G36*
X197080085Y-75500414D02*
G01*
X197037767Y-75816498D01*
X196933906Y-75988961D01*
X196749979Y-76084873D01*
X196390648Y-76125737D01*
X196012927Y-76088512D01*
X195828157Y-76003921D01*
X195724600Y-75844959D01*
X195681978Y-75539737D01*
X195703097Y-75303648D01*
X195757702Y-75142911D01*
X195837988Y-75036658D01*
X195952383Y-74965414D01*
X196134108Y-74914804D01*
X196410310Y-74894753D01*
X196753046Y-74932469D01*
X196933906Y-75021698D01*
X197037339Y-75185711D01*
X197080085Y-75500414D01*
G37*
G36*
X197080085Y-80615409D02*
G01*
X197055294Y-81034285D01*
X197015726Y-81185740D01*
X196954422Y-81293732D01*
X196866299Y-81373782D01*
X196747976Y-81424952D01*
X196410310Y-81460001D01*
X196125925Y-81443435D01*
X195968353Y-81404863D01*
X195849060Y-81325821D01*
X195751648Y-81188586D01*
X195701212Y-80994107D01*
X195691381Y-80615409D01*
X195691381Y-77419552D01*
X195716247Y-77102310D01*
X195772592Y-76941691D01*
X195880746Y-76845591D01*
X196067515Y-76809617D01*
X196245691Y-76845152D01*
X196352180Y-76941691D01*
X196408829Y-77102346D01*
X196433818Y-77419552D01*
X196433818Y-78123094D01*
X196451224Y-78333086D01*
X196489811Y-78432977D01*
X196569270Y-78497590D01*
X196746693Y-78559495D01*
X196931398Y-78636935D01*
X197018963Y-78721489D01*
X197060887Y-78848661D01*
X197080085Y-79120276D01*
X197080085Y-80615409D01*
G37*
G36*
X201663363Y-74919971D02*
G01*
X201817343Y-74959977D01*
X201937342Y-75025117D01*
X202077538Y-75145651D01*
X202157894Y-75302089D01*
X202198072Y-75541019D01*
X202207903Y-75901339D01*
X202207903Y-77386213D01*
X202167725Y-77857663D01*
X202108008Y-78025661D01*
X202017271Y-78143610D01*
X201890533Y-78225406D01*
X201708243Y-78279531D01*
X201195333Y-78314153D01*
X200127625Y-78314153D01*
X199730120Y-78338516D01*
X199599779Y-78379611D01*
X199510851Y-78447937D01*
X199452243Y-78546748D01*
X199416390Y-78697980D01*
X199397156Y-79157890D01*
X199397156Y-80537617D01*
X199373122Y-80909845D01*
X199313454Y-81147639D01*
X199231742Y-81291168D01*
X199105822Y-81391100D01*
X198905590Y-81460190D01*
X198600008Y-81487356D01*
X198336110Y-81461822D01*
X198138969Y-81392863D01*
X197992637Y-81286466D01*
X197910079Y-81173983D01*
X197861845Y-81034713D01*
X197832353Y-80558134D01*
X197832353Y-76594622D01*
X198682074Y-76594622D01*
X198706010Y-77054104D01*
X198744593Y-77212348D01*
X198801325Y-77316543D01*
X198885067Y-77391139D01*
X199001360Y-77437077D01*
X199353986Y-77466141D01*
X200637116Y-77466141D01*
X201024363Y-77437077D01*
X201153073Y-77390389D01*
X201238503Y-77316970D01*
X201293738Y-77211475D01*
X201328689Y-77044273D01*
X201347923Y-76544613D01*
X201323988Y-76120608D01*
X201286106Y-75975857D01*
X201229099Y-75877403D01*
X201144640Y-75808352D01*
X201019661Y-75767127D01*
X200637116Y-75742764D01*
X199383478Y-75742764D01*
X199015893Y-75772256D01*
X198894669Y-75818001D01*
X198806027Y-75892790D01*
X198745523Y-75996859D01*
X198706010Y-76150527D01*
X198682074Y-76594622D01*
X197832353Y-76594622D01*
X197832353Y-75774821D01*
X197872103Y-75337138D01*
X197932123Y-75182061D01*
X198027686Y-75065723D01*
X198158754Y-74983454D01*
X198341844Y-74929802D01*
X198854754Y-74894753D01*
X201156010Y-74894753D01*
X201663363Y-74919971D01*
G37*
G36*
X206737752Y-74919971D02*
G01*
X206891732Y-74959977D01*
X207011732Y-75025117D01*
X207151927Y-75145651D01*
X207232283Y-75302089D01*
X207272461Y-75541019D01*
X207282292Y-75901339D01*
X207282292Y-77386213D01*
X207242114Y-77857663D01*
X207182397Y-78025661D01*
X207091660Y-78143610D01*
X206964923Y-78225406D01*
X206782632Y-78279531D01*
X206269722Y-78314153D01*
X205202015Y-78314153D01*
X204804509Y-78338516D01*
X204674169Y-78379611D01*
X204585240Y-78447937D01*
X204526632Y-78546748D01*
X204490779Y-78697980D01*
X204471545Y-79157890D01*
X204471545Y-80537617D01*
X204447511Y-80909845D01*
X204387843Y-81147639D01*
X204306132Y-81291168D01*
X204180211Y-81391100D01*
X203979980Y-81460190D01*
X203674398Y-81487356D01*
X203410500Y-81461822D01*
X203213359Y-81392863D01*
X203067027Y-81286466D01*
X202984469Y-81173983D01*
X202936235Y-81034713D01*
X202906742Y-80558134D01*
X202906742Y-76594622D01*
X203756463Y-76594622D01*
X203780399Y-77054104D01*
X203818982Y-77212348D01*
X203875715Y-77316543D01*
X203959456Y-77391139D01*
X204075750Y-77437077D01*
X204428375Y-77466141D01*
X205711505Y-77466141D01*
X206098752Y-77437077D01*
X206227462Y-77390389D01*
X206312892Y-77316970D01*
X206368128Y-77211475D01*
X206403079Y-77044273D01*
X206422313Y-76544613D01*
X206398377Y-76120608D01*
X206360496Y-75975857D01*
X206303489Y-75877403D01*
X206219030Y-75808352D01*
X206094050Y-75767127D01*
X205711505Y-75742764D01*
X204457868Y-75742764D01*
X204090282Y-75772256D01*
X203969058Y-75818001D01*
X203880416Y-75892790D01*
X203819912Y-75996859D01*
X203780399Y-76150527D01*
X203756463Y-76594622D01*
X202906742Y-76594622D01*
X202906742Y-75774821D01*
X202946493Y-75337138D01*
X203006512Y-75182061D01*
X203102076Y-75065723D01*
X203233143Y-74983454D01*
X203416233Y-74929802D01*
X203929143Y-74894753D01*
X206230399Y-74894753D01*
X206737752Y-74919971D01*
G37*
G36*
X211533888Y-82399053D02*
G01*
X211503968Y-82784591D01*
X211458046Y-82920812D01*
X211387709Y-83015400D01*
X211288716Y-83081659D01*
X211147069Y-83126103D01*
X210746571Y-83156023D01*
X208533365Y-83156023D01*
X208214898Y-83132652D01*
X208054221Y-83079941D01*
X207958320Y-82976646D01*
X207922147Y-82791429D01*
X207959206Y-82606396D01*
X208059351Y-82498216D01*
X208224452Y-82442022D01*
X208543196Y-82417432D01*
X210286235Y-82417432D01*
X210573649Y-82390755D01*
X210702974Y-82332375D01*
X210771598Y-82217298D01*
X210801709Y-81968209D01*
X210773232Y-81672869D01*
X210712377Y-81549332D01*
X210589751Y-81488478D01*
X210296065Y-81460001D01*
X208680399Y-81460001D01*
X208289305Y-81435210D01*
X208149017Y-81393046D01*
X208053367Y-81324079D01*
X207986764Y-81225771D01*
X207942236Y-81088568D01*
X207912316Y-80693628D01*
X207912316Y-77654208D01*
X207927276Y-77241316D01*
X207992672Y-77031878D01*
X208096151Y-76918933D01*
X208279613Y-76840963D01*
X208582519Y-76809617D01*
X208857789Y-76824804D01*
X209009516Y-76860053D01*
X209125331Y-76932751D01*
X209221092Y-77060943D01*
X209286060Y-77270381D01*
X209301020Y-77654636D01*
X209301020Y-79141220D01*
X209281986Y-79413531D01*
X209239898Y-79545137D01*
X209151578Y-79631415D01*
X208967629Y-79702002D01*
X208789512Y-79770842D01*
X208710746Y-79834076D01*
X208672502Y-79930665D01*
X208654754Y-80148233D01*
X208654754Y-80216621D01*
X208668859Y-80491883D01*
X208693864Y-80582903D01*
X208733827Y-80642337D01*
X208794210Y-80682111D01*
X208889410Y-80707305D01*
X209169801Y-80721410D01*
X210276404Y-80721410D01*
X210551666Y-80702176D01*
X210702547Y-80632506D01*
X210772644Y-80481625D01*
X210791878Y-80216621D01*
X210791878Y-77419980D01*
X210816751Y-77102359D01*
X210873089Y-76941691D01*
X210980900Y-76845607D01*
X211167585Y-76809617D01*
X211353627Y-76845814D01*
X211457379Y-76941691D01*
X211510385Y-77101981D01*
X211533888Y-77419980D01*
X211533888Y-82399053D01*
G37*
G36*
X190465177Y-98714836D02*
G01*
X190456866Y-98878975D01*
X190436601Y-98980816D01*
X190397707Y-99064046D01*
X190339148Y-99129316D01*
X190270762Y-99171823D01*
X190187962Y-99197948D01*
X189903419Y-99215045D01*
X189035868Y-99215045D01*
X188775261Y-99228722D01*
X188691513Y-99254389D01*
X188636043Y-99299309D01*
X188600562Y-99365185D01*
X188579134Y-99469302D01*
X188568143Y-99783642D01*
X188587194Y-100007369D01*
X188616590Y-100073777D01*
X188666085Y-100124605D01*
X188714445Y-100157090D01*
X188787962Y-100173210D01*
X188910327Y-100181514D01*
X189103035Y-100184200D01*
X190009665Y-100184200D01*
X190231437Y-100187131D01*
X190336706Y-100207159D01*
X190394522Y-100234803D01*
X190443928Y-100285561D01*
X190476132Y-100351439D01*
X190487404Y-100432840D01*
X190465309Y-100549589D01*
X190406315Y-100617976D01*
X190308510Y-100654262D01*
X190121528Y-100670000D01*
X188196406Y-100670000D01*
X187931158Y-100650216D01*
X187837748Y-100618908D01*
X187771179Y-100569616D01*
X187724300Y-100500164D01*
X187693510Y-100401332D01*
X187673726Y-100119476D01*
X187673726Y-99268778D01*
X187687892Y-99006706D01*
X187710391Y-98928377D01*
X187747976Y-98861137D01*
X187818923Y-98793136D01*
X187902581Y-98752205D01*
X188006486Y-98732111D01*
X188185415Y-98723628D01*
X189472330Y-98723628D01*
X189634752Y-98723628D01*
X189819399Y-98704577D01*
X189880643Y-98677039D01*
X189925157Y-98634480D01*
X189954535Y-98575280D01*
X189973761Y-98480851D01*
X189984996Y-98211207D01*
X189984996Y-97903217D01*
X189971318Y-97631130D01*
X189947420Y-97540566D01*
X189908792Y-97480676D01*
X189851620Y-97440029D01*
X189766643Y-97415708D01*
X189511653Y-97401786D01*
X188610642Y-97401786D01*
X188385938Y-97415708D01*
X188306724Y-97436583D01*
X188251849Y-97467243D01*
X188210899Y-97510934D01*
X188184193Y-97567871D01*
X188165143Y-97735666D01*
X188159525Y-97858764D01*
X188139977Y-98040192D01*
X188104570Y-98132316D01*
X188039157Y-98186850D01*
X187922365Y-98207787D01*
X187791311Y-98184850D01*
X187723063Y-98126699D01*
X187689211Y-98025026D01*
X187673726Y-97808206D01*
X187673726Y-97466755D01*
X187693510Y-97184654D01*
X187725691Y-97086637D01*
X187776796Y-97019057D01*
X187849771Y-96972483D01*
X187956315Y-96941632D01*
X188263572Y-96921849D01*
X189858478Y-96921849D01*
X190159874Y-96938946D01*
X190257564Y-96964271D01*
X190327669Y-97001472D01*
X190396057Y-97061800D01*
X190439532Y-97145087D01*
X190459560Y-97272826D01*
X190465177Y-97466755D01*
X190465177Y-98714836D01*
G37*
G36*
X193556071Y-96941632D02*
G01*
X193654801Y-96972910D01*
X193724354Y-97021988D01*
X193773289Y-97091931D01*
X193804710Y-97193203D01*
X193824494Y-97477990D01*
X193824494Y-100158555D01*
X193804466Y-100415498D01*
X193773508Y-100506420D01*
X193724110Y-100572791D01*
X193655213Y-100619733D01*
X193558757Y-100650216D01*
X193285205Y-100670000D01*
X191488799Y-100670000D01*
X191195464Y-100650216D01*
X191092344Y-100617431D01*
X191021318Y-100564242D01*
X190972419Y-100489129D01*
X190941207Y-100384724D01*
X190921423Y-100085771D01*
X190921423Y-97920069D01*
X191406978Y-97920069D01*
X191406978Y-99632456D01*
X191417969Y-99933119D01*
X191436860Y-100035705D01*
X191464131Y-100097739D01*
X191508043Y-100140603D01*
X191575505Y-100165150D01*
X191785310Y-100178583D01*
X192372958Y-100178583D01*
X192687299Y-100167592D01*
X192790834Y-100146638D01*
X192851674Y-100113614D01*
X192892233Y-100061282D01*
X192916643Y-99980013D01*
X192930321Y-99727711D01*
X192930321Y-98966650D01*
X192935938Y-98776385D01*
X192941556Y-98604438D01*
X192970621Y-98495505D01*
X193036810Y-98423210D01*
X193153558Y-98366057D01*
X193259042Y-98310127D01*
X193306454Y-98260300D01*
X193328873Y-98190636D01*
X193338939Y-98048785D01*
X193344556Y-97819441D01*
X193327948Y-97609148D01*
X193303140Y-97533670D01*
X193265666Y-97480921D01*
X193212363Y-97443513D01*
X193134508Y-97418394D01*
X192915910Y-97401786D01*
X191886182Y-97401786D01*
X191617027Y-97415708D01*
X191530185Y-97440277D01*
X191474877Y-97480676D01*
X191439355Y-97540440D01*
X191417969Y-97633817D01*
X191406978Y-97920069D01*
X190921423Y-97920069D01*
X190921423Y-97477990D01*
X190941207Y-97181967D01*
X190971396Y-97095439D01*
X191018632Y-97030293D01*
X191089158Y-96977912D01*
X191178367Y-96944563D01*
X191288996Y-96928633D01*
X191483182Y-96921849D01*
X193273970Y-96921849D01*
X193556071Y-96941632D01*
G37*
G36*
X197089043Y-98714836D02*
G01*
X197080732Y-98878975D01*
X197060467Y-98980816D01*
X197021573Y-99064046D01*
X196963014Y-99129316D01*
X196894628Y-99171823D01*
X196811828Y-99197948D01*
X196527285Y-99215045D01*
X195659734Y-99215045D01*
X195399127Y-99228722D01*
X195315379Y-99254389D01*
X195259909Y-99299309D01*
X195224428Y-99365185D01*
X195203000Y-99469302D01*
X195192009Y-99783642D01*
X195211060Y-100007369D01*
X195240456Y-100073777D01*
X195289951Y-100124605D01*
X195338311Y-100157090D01*
X195411828Y-100173210D01*
X195534193Y-100181514D01*
X195726901Y-100184200D01*
X196633531Y-100184200D01*
X196855303Y-100187131D01*
X196960572Y-100207159D01*
X197018388Y-100234803D01*
X197067794Y-100285561D01*
X197099998Y-100351439D01*
X197111270Y-100432840D01*
X197089175Y-100549589D01*
X197030181Y-100617976D01*
X196932376Y-100654262D01*
X196745394Y-100670000D01*
X194820272Y-100670000D01*
X194555024Y-100650216D01*
X194461614Y-100618908D01*
X194395045Y-100569616D01*
X194348166Y-100500164D01*
X194317376Y-100401332D01*
X194297592Y-100119476D01*
X194297592Y-99268778D01*
X194311758Y-99006706D01*
X194334257Y-98928377D01*
X194371842Y-98861137D01*
X194442789Y-98793136D01*
X194526448Y-98752205D01*
X194630352Y-98732111D01*
X194809281Y-98723628D01*
X196096196Y-98723628D01*
X196258618Y-98723628D01*
X196443265Y-98704577D01*
X196504509Y-98677039D01*
X196549023Y-98634480D01*
X196578401Y-98575280D01*
X196597627Y-98480851D01*
X196608862Y-98211207D01*
X196608862Y-97903217D01*
X196595184Y-97631130D01*
X196571286Y-97540566D01*
X196532658Y-97480676D01*
X196475486Y-97440029D01*
X196390509Y-97415708D01*
X196135519Y-97401786D01*
X195234508Y-97401786D01*
X195009804Y-97415708D01*
X194930590Y-97436583D01*
X194875715Y-97467243D01*
X194834765Y-97510934D01*
X194808060Y-97567871D01*
X194789009Y-97735666D01*
X194783391Y-97858764D01*
X194763843Y-98040192D01*
X194728436Y-98132316D01*
X194663023Y-98186850D01*
X194546231Y-98207787D01*
X194415177Y-98184850D01*
X194346929Y-98126699D01*
X194313077Y-98025026D01*
X194297592Y-97808206D01*
X194297592Y-97466755D01*
X194317376Y-97184654D01*
X194349557Y-97086637D01*
X194400662Y-97019057D01*
X194473637Y-96972483D01*
X194580181Y-96941632D01*
X194887438Y-96921849D01*
X196482344Y-96921849D01*
X196783740Y-96938946D01*
X196881430Y-96964271D01*
X196951535Y-97001472D01*
X197019923Y-97061800D01*
X197063398Y-97145087D01*
X197083426Y-97272826D01*
X197089043Y-97466755D01*
X197089043Y-98714836D01*
G37*
G36*
X200297418Y-100063300D02*
G01*
X200277390Y-100379106D01*
X200245862Y-100488374D01*
X200197034Y-100564242D01*
X200126977Y-100617706D01*
X200028750Y-100650216D01*
X199741032Y-100670000D01*
X198090195Y-100670000D01*
X197788555Y-100650216D01*
X197682287Y-100618699D01*
X197609036Y-100569860D01*
X197557785Y-100499900D01*
X197525750Y-100401577D01*
X197505966Y-100113859D01*
X197505966Y-99794877D01*
X197514515Y-99574815D01*
X197558234Y-99471011D01*
X197639667Y-99406285D01*
X197748988Y-99384061D01*
X197866629Y-99404774D01*
X197936566Y-99459532D01*
X197975398Y-99550274D01*
X197991765Y-99716475D01*
X198005443Y-99963649D01*
X198027307Y-100047345D01*
X198059665Y-100103112D01*
X198107586Y-100142579D01*
X198176657Y-100167836D01*
X198381332Y-100184200D01*
X198935275Y-100184200D01*
X199185136Y-100170523D01*
X199270591Y-100147412D01*
X199327041Y-100110928D01*
X199365760Y-100057002D01*
X199389323Y-99977327D01*
X199403244Y-99744319D01*
X199403244Y-99341563D01*
X199389323Y-99080711D01*
X199364393Y-98996032D01*
X199321667Y-98938806D01*
X199258105Y-98901310D01*
X199157048Y-98879211D01*
X198856873Y-98867976D01*
X198067969Y-98867976D01*
X197780251Y-98848192D01*
X197680972Y-98817716D01*
X197609281Y-98770767D01*
X197558025Y-98703588D01*
X197525994Y-98608101D01*
X197505966Y-98334305D01*
X197505966Y-97382979D01*
X197528681Y-97159253D01*
X197561582Y-97078237D01*
X197611967Y-97016127D01*
X197680418Y-96971306D01*
X197774633Y-96941632D01*
X198028646Y-96921849D01*
X199718806Y-96921849D01*
X199930944Y-96938724D01*
X200037055Y-96976803D01*
X200100434Y-97048557D01*
X200124005Y-97170244D01*
X200103302Y-97287930D01*
X200048534Y-97358066D01*
X199957170Y-97396598D01*
X199785973Y-97413021D01*
X198437264Y-97413021D01*
X198187648Y-97429630D01*
X198107998Y-97453291D01*
X198062351Y-97483363D01*
X198031978Y-97535905D01*
X198005443Y-97634061D01*
X197986147Y-97931304D01*
X198002512Y-98169685D01*
X198028936Y-98249150D01*
X198070411Y-98303286D01*
X198129465Y-98340570D01*
X198215491Y-98365812D01*
X198470725Y-98382421D01*
X199713189Y-98382421D01*
X200011898Y-98402205D01*
X200116241Y-98433483D01*
X200191172Y-98482561D01*
X200244831Y-98552240D01*
X200277390Y-98648157D01*
X200297418Y-98927327D01*
X200297418Y-100063300D01*
G37*
G36*
X203368771Y-96941632D02*
G01*
X203467502Y-96972910D01*
X203537055Y-97021988D01*
X203585990Y-97091931D01*
X203617411Y-97193203D01*
X203637194Y-97477990D01*
X203637194Y-100158555D01*
X203617166Y-100415498D01*
X203586208Y-100506420D01*
X203536810Y-100572791D01*
X203467913Y-100619733D01*
X203371458Y-100650216D01*
X203097906Y-100670000D01*
X201301500Y-100670000D01*
X201008164Y-100650216D01*
X200905045Y-100617431D01*
X200834019Y-100564242D01*
X200785120Y-100489129D01*
X200753907Y-100384724D01*
X200734124Y-100085771D01*
X200734124Y-97920069D01*
X201219678Y-97920069D01*
X201219678Y-99632456D01*
X201230669Y-99933119D01*
X201249561Y-100035705D01*
X201276831Y-100097739D01*
X201320743Y-100140603D01*
X201388206Y-100165150D01*
X201598011Y-100178583D01*
X202185659Y-100178583D01*
X202500000Y-100167592D01*
X202603535Y-100146638D01*
X202664375Y-100113614D01*
X202704933Y-100061282D01*
X202729344Y-99980013D01*
X202743021Y-99727711D01*
X202743021Y-98966650D01*
X202748639Y-98776385D01*
X202754256Y-98604438D01*
X202783321Y-98495505D01*
X202849511Y-98423210D01*
X202966259Y-98366057D01*
X203071743Y-98310127D01*
X203119155Y-98260300D01*
X203141574Y-98190636D01*
X203151639Y-98048785D01*
X203157257Y-97819441D01*
X203140648Y-97609148D01*
X203115841Y-97533670D01*
X203078367Y-97480921D01*
X203025063Y-97443513D01*
X202947208Y-97418394D01*
X202728611Y-97401786D01*
X201698883Y-97401786D01*
X201429727Y-97415708D01*
X201342885Y-97440277D01*
X201287578Y-97480676D01*
X201252055Y-97540440D01*
X201230669Y-97633817D01*
X201219678Y-97920069D01*
X200734124Y-97920069D01*
X200734124Y-97477990D01*
X200753907Y-97181967D01*
X200784097Y-97095439D01*
X200831332Y-97030293D01*
X200901859Y-96977912D01*
X200991067Y-96944563D01*
X201101696Y-96928633D01*
X201295882Y-96921849D01*
X203086671Y-96921849D01*
X203368771Y-96941632D01*
G37*
G36*
X206517794Y-96955554D02*
G01*
X206615379Y-96976584D01*
X206685589Y-97012707D01*
X206757810Y-97081049D01*
X206803070Y-97172686D01*
X206825131Y-97290609D01*
X206834577Y-97500460D01*
X206834577Y-100113859D01*
X206823098Y-100386922D01*
X206804334Y-100459633D01*
X206771807Y-100521011D01*
X206693652Y-100598167D01*
X206569266Y-100649879D01*
X206379064Y-100670000D01*
X206255236Y-100662881D01*
X206166329Y-100644354D01*
X206090511Y-100610153D01*
X206031751Y-100561067D01*
X205983147Y-100492435D01*
X205951639Y-100406706D01*
X205937473Y-100285073D01*
X205934787Y-100108241D01*
X205934787Y-99727711D01*
X205923551Y-99452693D01*
X205902235Y-99359758D01*
X205866887Y-99302240D01*
X205812399Y-99263807D01*
X205727669Y-99239958D01*
X205466817Y-99226280D01*
X204549197Y-99226280D01*
X204286392Y-99206252D01*
X204195797Y-99175002D01*
X204132030Y-99125896D01*
X204087210Y-99057446D01*
X204057536Y-98963230D01*
X204037752Y-98692365D01*
X204037752Y-97841667D01*
X204523307Y-97841667D01*
X204523307Y-98317452D01*
X204536985Y-98539225D01*
X204559220Y-98614761D01*
X204593893Y-98667452D01*
X204644052Y-98704152D01*
X204716503Y-98726803D01*
X204924110Y-98740481D01*
X205964829Y-98740481D01*
X206163886Y-98726803D01*
X206233326Y-98704178D01*
X206280879Y-98667452D01*
X206313723Y-98615533D01*
X206335101Y-98542156D01*
X206348778Y-98328688D01*
X206348778Y-97841667D01*
X206332414Y-97623314D01*
X206305929Y-97551733D01*
X206262072Y-97500704D01*
X206200774Y-97466156D01*
X206111374Y-97443796D01*
X205852965Y-97429874D01*
X204968806Y-97429874D01*
X204735799Y-97443796D01*
X204655370Y-97466096D01*
X204601953Y-97500460D01*
X204564730Y-97550930D01*
X204539672Y-97625757D01*
X204523307Y-97841667D01*
X204037752Y-97841667D01*
X204037752Y-97472372D01*
X204060467Y-97212742D01*
X204093033Y-97118534D01*
X204140579Y-97050076D01*
X204206470Y-97000225D01*
X204297383Y-96967034D01*
X204549197Y-96944075D01*
X206171946Y-96944075D01*
X206517794Y-96955554D01*
G37*
G36*
X209973098Y-96941632D02*
G01*
X210071828Y-96972910D01*
X210141381Y-97021988D01*
X210190316Y-97091931D01*
X210221737Y-97193203D01*
X210241521Y-97477990D01*
X210241521Y-100158555D01*
X210221493Y-100415498D01*
X210190535Y-100506420D01*
X210141137Y-100572791D01*
X210072240Y-100619733D01*
X209975785Y-100650216D01*
X209702233Y-100670000D01*
X207905826Y-100670000D01*
X207612491Y-100650216D01*
X207509371Y-100617431D01*
X207438346Y-100564242D01*
X207389446Y-100489129D01*
X207358234Y-100384724D01*
X207338450Y-100085771D01*
X207338450Y-97920069D01*
X207824005Y-97920069D01*
X207824005Y-99632456D01*
X207834996Y-99933119D01*
X207853887Y-100035705D01*
X207881158Y-100097739D01*
X207925070Y-100140603D01*
X207992533Y-100165150D01*
X208202337Y-100178583D01*
X208789986Y-100178583D01*
X209104326Y-100167592D01*
X209207861Y-100146638D01*
X209268702Y-100113614D01*
X209309260Y-100061282D01*
X209333670Y-99980013D01*
X209347348Y-99727711D01*
X209347348Y-98966650D01*
X209352965Y-98776385D01*
X209358583Y-98604438D01*
X209387648Y-98495505D01*
X209453838Y-98423210D01*
X209570586Y-98366057D01*
X209676070Y-98310127D01*
X209723482Y-98260300D01*
X209745900Y-98190636D01*
X209755966Y-98048785D01*
X209761584Y-97819441D01*
X209744975Y-97609148D01*
X209720167Y-97533670D01*
X209682693Y-97480921D01*
X209629390Y-97443513D01*
X209551535Y-97418394D01*
X209332937Y-97401786D01*
X208303210Y-97401786D01*
X208034054Y-97415708D01*
X207947212Y-97440277D01*
X207891905Y-97480676D01*
X207856382Y-97540440D01*
X207834996Y-97633817D01*
X207824005Y-97920069D01*
X207338450Y-97920069D01*
X207338450Y-97477990D01*
X207358234Y-97181967D01*
X207388423Y-97095439D01*
X207435659Y-97030293D01*
X207506186Y-96977912D01*
X207595394Y-96944563D01*
X207706023Y-96928633D01*
X207900209Y-96921849D01*
X209690997Y-96921849D01*
X209973098Y-96941632D01*
G37*
G36*
X213472365Y-100124361D02*
G01*
X213452337Y-100412568D01*
X213421835Y-100492335D01*
X213369539Y-100561311D01*
X213294801Y-100615778D01*
X213200767Y-100650216D01*
X213067899Y-100667313D01*
X212871528Y-100670000D01*
X211293475Y-100670000D01*
X210977913Y-100649972D01*
X210867916Y-100619006D01*
X210789846Y-100572058D01*
X210733609Y-100503852D01*
X210698255Y-100407683D01*
X210675540Y-100131444D01*
X210675540Y-99758729D01*
X210692785Y-99564659D01*
X210733182Y-99460020D01*
X210807515Y-99396134D01*
X210929553Y-99372581D01*
X211041905Y-99387725D01*
X211081107Y-99409721D01*
X211112247Y-99447564D01*
X211149860Y-99564801D01*
X211166957Y-99752135D01*
X211186252Y-99987829D01*
X211208612Y-100067291D01*
X211242916Y-100118988D01*
X211294023Y-100153426D01*
X211373831Y-100174187D01*
X211612212Y-100185422D01*
X212048918Y-100185422D01*
X212337857Y-100171500D01*
X212433586Y-100147745D01*
X212493928Y-100111172D01*
X212534304Y-100055103D01*
X212558897Y-99967069D01*
X212572575Y-99699867D01*
X212572575Y-99416057D01*
X212566957Y-99228967D01*
X212550593Y-99030153D01*
X212525268Y-98963027D01*
X212485624Y-98917313D01*
X212430206Y-98887240D01*
X212346161Y-98867976D01*
X212099232Y-98856741D01*
X211483740Y-98856741D01*
X211271454Y-98840843D01*
X211167934Y-98805450D01*
X211107054Y-98736848D01*
X211084159Y-98617138D01*
X211106694Y-98492514D01*
X211165247Y-98423698D01*
X211264309Y-98387958D01*
X211461270Y-98372163D01*
X212099232Y-98372163D01*
X212362770Y-98361416D01*
X212450080Y-98339637D01*
X212504919Y-98302309D01*
X212540514Y-98245780D01*
X212561584Y-98158450D01*
X212572575Y-97890272D01*
X212558897Y-97628199D01*
X212535793Y-97540206D01*
X212499302Y-97481409D01*
X212444755Y-97440932D01*
X212362770Y-97416685D01*
X212116085Y-97403007D01*
X211561898Y-97403007D01*
X211351367Y-97422319D01*
X211253663Y-97465045D01*
X211199765Y-97549412D01*
X211172575Y-97730048D01*
X211166957Y-97869511D01*
X211142621Y-98044460D01*
X211106140Y-98130851D01*
X211041410Y-98180690D01*
X210923935Y-98200216D01*
X210805728Y-98179670D01*
X210733426Y-98124989D01*
X210692233Y-98035835D01*
X210675540Y-97884166D01*
X210675540Y-97480921D01*
X210692637Y-97195889D01*
X210720063Y-97113309D01*
X210767131Y-97044459D01*
X210837479Y-96981791D01*
X210921249Y-96944075D01*
X211024385Y-96925996D01*
X211198220Y-96918429D01*
X212524459Y-96918429D01*
X212714070Y-96926859D01*
X212826587Y-96947006D01*
X212916843Y-96987609D01*
X212984124Y-97050321D01*
X213024180Y-97119197D01*
X213049825Y-97204682D01*
X213061060Y-97331933D01*
X213063991Y-97525617D01*
X213063991Y-97912009D01*
X213069364Y-98123768D01*
X213096475Y-98244424D01*
X213161688Y-98315010D01*
X213283077Y-98375338D01*
X213382972Y-98429804D01*
X213440858Y-98502344D01*
X213466748Y-98627885D01*
X213472365Y-98836224D01*
X213472365Y-100124361D01*
G37*
D11*
X227153855Y-99730951D02*
X226353855Y-99730951D01*
X226353855Y-99197618D02*
X226353855Y-99045237D01*
X226353855Y-99045237D02*
X226391950Y-98969047D01*
X226391950Y-98969047D02*
X226468140Y-98892856D01*
X226468140Y-98892856D02*
X226620521Y-98854761D01*
X226620521Y-98854761D02*
X226887188Y-98854761D01*
X226887188Y-98854761D02*
X227039569Y-98892856D01*
X227039569Y-98892856D02*
X227115760Y-98969047D01*
X227115760Y-98969047D02*
X227153855Y-99045237D01*
X227153855Y-99045237D02*
X227153855Y-99197618D01*
X227153855Y-99197618D02*
X227115760Y-99273809D01*
X227115760Y-99273809D02*
X227039569Y-99349999D01*
X227039569Y-99349999D02*
X226887188Y-99388095D01*
X226887188Y-99388095D02*
X226620521Y-99388095D01*
X226620521Y-99388095D02*
X226468140Y-99349999D01*
X226468140Y-99349999D02*
X226391950Y-99273809D01*
X226391950Y-99273809D02*
X226353855Y-99197618D01*
X227153855Y-98092857D02*
X227153855Y-98550000D01*
X227153855Y-98321428D02*
X226353855Y-98321428D01*
X226353855Y-98321428D02*
X226468140Y-98397619D01*
X226468140Y-98397619D02*
X226544331Y-98473809D01*
X226544331Y-98473809D02*
X226582426Y-98550000D01*
X226353855Y-97826190D02*
X226353855Y-97330952D01*
X226353855Y-97330952D02*
X226658617Y-97597618D01*
X226658617Y-97597618D02*
X226658617Y-97483333D01*
X226658617Y-97483333D02*
X226696712Y-97407142D01*
X226696712Y-97407142D02*
X226734807Y-97369047D01*
X226734807Y-97369047D02*
X226810998Y-97330952D01*
X226810998Y-97330952D02*
X227001474Y-97330952D01*
X227001474Y-97330952D02*
X227077664Y-97369047D01*
X227077664Y-97369047D02*
X227115760Y-97407142D01*
X227115760Y-97407142D02*
X227153855Y-97483333D01*
X227153855Y-97483333D02*
X227153855Y-97711904D01*
X227153855Y-97711904D02*
X227115760Y-97788095D01*
X227115760Y-97788095D02*
X227077664Y-97826190D01*
X216993855Y-75649999D02*
X216193855Y-75649999D01*
X216193855Y-75116666D02*
X216193855Y-74964285D01*
X216193855Y-74964285D02*
X216231950Y-74888095D01*
X216231950Y-74888095D02*
X216308140Y-74811904D01*
X216308140Y-74811904D02*
X216460521Y-74773809D01*
X216460521Y-74773809D02*
X216727188Y-74773809D01*
X216727188Y-74773809D02*
X216879569Y-74811904D01*
X216879569Y-74811904D02*
X216955760Y-74888095D01*
X216955760Y-74888095D02*
X216993855Y-74964285D01*
X216993855Y-74964285D02*
X216993855Y-75116666D01*
X216993855Y-75116666D02*
X216955760Y-75192857D01*
X216955760Y-75192857D02*
X216879569Y-75269047D01*
X216879569Y-75269047D02*
X216727188Y-75307143D01*
X216727188Y-75307143D02*
X216460521Y-75307143D01*
X216460521Y-75307143D02*
X216308140Y-75269047D01*
X216308140Y-75269047D02*
X216231950Y-75192857D01*
X216231950Y-75192857D02*
X216193855Y-75116666D01*
X216193855Y-74088095D02*
X216193855Y-74240476D01*
X216193855Y-74240476D02*
X216231950Y-74316667D01*
X216231950Y-74316667D02*
X216270045Y-74354762D01*
X216270045Y-74354762D02*
X216384331Y-74430952D01*
X216384331Y-74430952D02*
X216536712Y-74469048D01*
X216536712Y-74469048D02*
X216841474Y-74469048D01*
X216841474Y-74469048D02*
X216917664Y-74430952D01*
X216917664Y-74430952D02*
X216955760Y-74392857D01*
X216955760Y-74392857D02*
X216993855Y-74316667D01*
X216993855Y-74316667D02*
X216993855Y-74164286D01*
X216993855Y-74164286D02*
X216955760Y-74088095D01*
X216955760Y-74088095D02*
X216917664Y-74050000D01*
X216917664Y-74050000D02*
X216841474Y-74011905D01*
X216841474Y-74011905D02*
X216650998Y-74011905D01*
X216650998Y-74011905D02*
X216574807Y-74050000D01*
X216574807Y-74050000D02*
X216536712Y-74088095D01*
X216536712Y-74088095D02*
X216498617Y-74164286D01*
X216498617Y-74164286D02*
X216498617Y-74316667D01*
X216498617Y-74316667D02*
X216536712Y-74392857D01*
X216536712Y-74392857D02*
X216574807Y-74430952D01*
X216574807Y-74430952D02*
X216650998Y-74469048D01*
X214453855Y-99349999D02*
X213653855Y-99349999D01*
X213653855Y-98816666D02*
X213653855Y-98664285D01*
X213653855Y-98664285D02*
X213691950Y-98588095D01*
X213691950Y-98588095D02*
X213768140Y-98511904D01*
X213768140Y-98511904D02*
X213920521Y-98473809D01*
X213920521Y-98473809D02*
X214187188Y-98473809D01*
X214187188Y-98473809D02*
X214339569Y-98511904D01*
X214339569Y-98511904D02*
X214415760Y-98588095D01*
X214415760Y-98588095D02*
X214453855Y-98664285D01*
X214453855Y-98664285D02*
X214453855Y-98816666D01*
X214453855Y-98816666D02*
X214415760Y-98892857D01*
X214415760Y-98892857D02*
X214339569Y-98969047D01*
X214339569Y-98969047D02*
X214187188Y-99007143D01*
X214187188Y-99007143D02*
X213920521Y-99007143D01*
X213920521Y-99007143D02*
X213768140Y-98969047D01*
X213768140Y-98969047D02*
X213691950Y-98892857D01*
X213691950Y-98892857D02*
X213653855Y-98816666D01*
X213996712Y-98016667D02*
X213958617Y-98092857D01*
X213958617Y-98092857D02*
X213920521Y-98130952D01*
X213920521Y-98130952D02*
X213844331Y-98169048D01*
X213844331Y-98169048D02*
X213806236Y-98169048D01*
X213806236Y-98169048D02*
X213730045Y-98130952D01*
X213730045Y-98130952D02*
X213691950Y-98092857D01*
X213691950Y-98092857D02*
X213653855Y-98016667D01*
X213653855Y-98016667D02*
X213653855Y-97864286D01*
X213653855Y-97864286D02*
X213691950Y-97788095D01*
X213691950Y-97788095D02*
X213730045Y-97750000D01*
X213730045Y-97750000D02*
X213806236Y-97711905D01*
X213806236Y-97711905D02*
X213844331Y-97711905D01*
X213844331Y-97711905D02*
X213920521Y-97750000D01*
X213920521Y-97750000D02*
X213958617Y-97788095D01*
X213958617Y-97788095D02*
X213996712Y-97864286D01*
X213996712Y-97864286D02*
X213996712Y-98016667D01*
X213996712Y-98016667D02*
X214034807Y-98092857D01*
X214034807Y-98092857D02*
X214072902Y-98130952D01*
X214072902Y-98130952D02*
X214149093Y-98169048D01*
X214149093Y-98169048D02*
X214301474Y-98169048D01*
X214301474Y-98169048D02*
X214377664Y-98130952D01*
X214377664Y-98130952D02*
X214415760Y-98092857D01*
X214415760Y-98092857D02*
X214453855Y-98016667D01*
X214453855Y-98016667D02*
X214453855Y-97864286D01*
X214453855Y-97864286D02*
X214415760Y-97788095D01*
X214415760Y-97788095D02*
X214377664Y-97750000D01*
X214377664Y-97750000D02*
X214301474Y-97711905D01*
X214301474Y-97711905D02*
X214149093Y-97711905D01*
X214149093Y-97711905D02*
X214072902Y-97750000D01*
X214072902Y-97750000D02*
X214034807Y-97788095D01*
X214034807Y-97788095D02*
X213996712Y-97864286D01*
X227153855Y-75649999D02*
X226353855Y-75649999D01*
X226353855Y-75116666D02*
X226353855Y-74964285D01*
X226353855Y-74964285D02*
X226391950Y-74888095D01*
X226391950Y-74888095D02*
X226468140Y-74811904D01*
X226468140Y-74811904D02*
X226620521Y-74773809D01*
X226620521Y-74773809D02*
X226887188Y-74773809D01*
X226887188Y-74773809D02*
X227039569Y-74811904D01*
X227039569Y-74811904D02*
X227115760Y-74888095D01*
X227115760Y-74888095D02*
X227153855Y-74964285D01*
X227153855Y-74964285D02*
X227153855Y-75116666D01*
X227153855Y-75116666D02*
X227115760Y-75192857D01*
X227115760Y-75192857D02*
X227039569Y-75269047D01*
X227039569Y-75269047D02*
X226887188Y-75307143D01*
X226887188Y-75307143D02*
X226620521Y-75307143D01*
X226620521Y-75307143D02*
X226468140Y-75269047D01*
X226468140Y-75269047D02*
X226391950Y-75192857D01*
X226391950Y-75192857D02*
X226353855Y-75116666D01*
X226430045Y-74469048D02*
X226391950Y-74430952D01*
X226391950Y-74430952D02*
X226353855Y-74354762D01*
X226353855Y-74354762D02*
X226353855Y-74164286D01*
X226353855Y-74164286D02*
X226391950Y-74088095D01*
X226391950Y-74088095D02*
X226430045Y-74050000D01*
X226430045Y-74050000D02*
X226506236Y-74011905D01*
X226506236Y-74011905D02*
X226582426Y-74011905D01*
X226582426Y-74011905D02*
X226696712Y-74050000D01*
X226696712Y-74050000D02*
X227153855Y-74507143D01*
X227153855Y-74507143D02*
X227153855Y-74011905D01*
X233973855Y-98702380D02*
X233973855Y-99083332D01*
X233973855Y-99083332D02*
X234354807Y-99121428D01*
X234354807Y-99121428D02*
X234316712Y-99083332D01*
X234316712Y-99083332D02*
X234278617Y-99007142D01*
X234278617Y-99007142D02*
X234278617Y-98816666D01*
X234278617Y-98816666D02*
X234316712Y-98740475D01*
X234316712Y-98740475D02*
X234354807Y-98702380D01*
X234354807Y-98702380D02*
X234430998Y-98664285D01*
X234430998Y-98664285D02*
X234621474Y-98664285D01*
X234621474Y-98664285D02*
X234697664Y-98702380D01*
X234697664Y-98702380D02*
X234735760Y-98740475D01*
X234735760Y-98740475D02*
X234773855Y-98816666D01*
X234773855Y-98816666D02*
X234773855Y-99007142D01*
X234773855Y-99007142D02*
X234735760Y-99083332D01*
X234735760Y-99083332D02*
X234697664Y-99121428D01*
X233973855Y-98435713D02*
X234773855Y-98169046D01*
X234773855Y-98169046D02*
X233973855Y-97902380D01*
X233973855Y-75459523D02*
X233973855Y-75002380D01*
X234773855Y-75230952D02*
X233973855Y-75230952D01*
X233973855Y-74811904D02*
X234773855Y-74278570D01*
X233973855Y-74278570D02*
X234773855Y-74811904D01*
X232233855Y-74983332D02*
X231852902Y-75249999D01*
X232233855Y-75440475D02*
X231433855Y-75440475D01*
X231433855Y-75440475D02*
X231433855Y-75135713D01*
X231433855Y-75135713D02*
X231471950Y-75059523D01*
X231471950Y-75059523D02*
X231510045Y-75021428D01*
X231510045Y-75021428D02*
X231586236Y-74983332D01*
X231586236Y-74983332D02*
X231700521Y-74983332D01*
X231700521Y-74983332D02*
X231776712Y-75021428D01*
X231776712Y-75021428D02*
X231814807Y-75059523D01*
X231814807Y-75059523D02*
X231852902Y-75135713D01*
X231852902Y-75135713D02*
X231852902Y-75440475D01*
X231433855Y-74716666D02*
X232233855Y-74183332D01*
X231433855Y-74183332D02*
X232233855Y-74716666D01*
X219533855Y-75649999D02*
X218733855Y-75649999D01*
X218733855Y-75116666D02*
X218733855Y-74964285D01*
X218733855Y-74964285D02*
X218771950Y-74888095D01*
X218771950Y-74888095D02*
X218848140Y-74811904D01*
X218848140Y-74811904D02*
X219000521Y-74773809D01*
X219000521Y-74773809D02*
X219267188Y-74773809D01*
X219267188Y-74773809D02*
X219419569Y-74811904D01*
X219419569Y-74811904D02*
X219495760Y-74888095D01*
X219495760Y-74888095D02*
X219533855Y-74964285D01*
X219533855Y-74964285D02*
X219533855Y-75116666D01*
X219533855Y-75116666D02*
X219495760Y-75192857D01*
X219495760Y-75192857D02*
X219419569Y-75269047D01*
X219419569Y-75269047D02*
X219267188Y-75307143D01*
X219267188Y-75307143D02*
X219000521Y-75307143D01*
X219000521Y-75307143D02*
X218848140Y-75269047D01*
X218848140Y-75269047D02*
X218771950Y-75192857D01*
X218771950Y-75192857D02*
X218733855Y-75116666D01*
X218733855Y-74050000D02*
X218733855Y-74430952D01*
X218733855Y-74430952D02*
X219114807Y-74469048D01*
X219114807Y-74469048D02*
X219076712Y-74430952D01*
X219076712Y-74430952D02*
X219038617Y-74354762D01*
X219038617Y-74354762D02*
X219038617Y-74164286D01*
X219038617Y-74164286D02*
X219076712Y-74088095D01*
X219076712Y-74088095D02*
X219114807Y-74050000D01*
X219114807Y-74050000D02*
X219190998Y-74011905D01*
X219190998Y-74011905D02*
X219381474Y-74011905D01*
X219381474Y-74011905D02*
X219457664Y-74050000D01*
X219457664Y-74050000D02*
X219495760Y-74088095D01*
X219495760Y-74088095D02*
X219533855Y-74164286D01*
X219533855Y-74164286D02*
X219533855Y-74354762D01*
X219533855Y-74354762D02*
X219495760Y-74430952D01*
X219495760Y-74430952D02*
X219457664Y-74469048D01*
X222073855Y-99730951D02*
X221273855Y-99730951D01*
X221273855Y-99197618D02*
X221273855Y-99045237D01*
X221273855Y-99045237D02*
X221311950Y-98969047D01*
X221311950Y-98969047D02*
X221388140Y-98892856D01*
X221388140Y-98892856D02*
X221540521Y-98854761D01*
X221540521Y-98854761D02*
X221807188Y-98854761D01*
X221807188Y-98854761D02*
X221959569Y-98892856D01*
X221959569Y-98892856D02*
X222035760Y-98969047D01*
X222035760Y-98969047D02*
X222073855Y-99045237D01*
X222073855Y-99045237D02*
X222073855Y-99197618D01*
X222073855Y-99197618D02*
X222035760Y-99273809D01*
X222035760Y-99273809D02*
X221959569Y-99349999D01*
X221959569Y-99349999D02*
X221807188Y-99388095D01*
X221807188Y-99388095D02*
X221540521Y-99388095D01*
X221540521Y-99388095D02*
X221388140Y-99349999D01*
X221388140Y-99349999D02*
X221311950Y-99273809D01*
X221311950Y-99273809D02*
X221273855Y-99197618D01*
X222073855Y-98092857D02*
X222073855Y-98550000D01*
X222073855Y-98321428D02*
X221273855Y-98321428D01*
X221273855Y-98321428D02*
X221388140Y-98397619D01*
X221388140Y-98397619D02*
X221464331Y-98473809D01*
X221464331Y-98473809D02*
X221502426Y-98550000D01*
X222073855Y-97330952D02*
X222073855Y-97788095D01*
X222073855Y-97559523D02*
X221273855Y-97559523D01*
X221273855Y-97559523D02*
X221388140Y-97635714D01*
X221388140Y-97635714D02*
X221464331Y-97711904D01*
X221464331Y-97711904D02*
X221502426Y-97788095D01*
X216993855Y-99349999D02*
X216193855Y-99349999D01*
X216193855Y-98816666D02*
X216193855Y-98664285D01*
X216193855Y-98664285D02*
X216231950Y-98588095D01*
X216231950Y-98588095D02*
X216308140Y-98511904D01*
X216308140Y-98511904D02*
X216460521Y-98473809D01*
X216460521Y-98473809D02*
X216727188Y-98473809D01*
X216727188Y-98473809D02*
X216879569Y-98511904D01*
X216879569Y-98511904D02*
X216955760Y-98588095D01*
X216955760Y-98588095D02*
X216993855Y-98664285D01*
X216993855Y-98664285D02*
X216993855Y-98816666D01*
X216993855Y-98816666D02*
X216955760Y-98892857D01*
X216955760Y-98892857D02*
X216879569Y-98969047D01*
X216879569Y-98969047D02*
X216727188Y-99007143D01*
X216727188Y-99007143D02*
X216460521Y-99007143D01*
X216460521Y-99007143D02*
X216308140Y-98969047D01*
X216308140Y-98969047D02*
X216231950Y-98892857D01*
X216231950Y-98892857D02*
X216193855Y-98816666D01*
X216993855Y-98092857D02*
X216993855Y-97940476D01*
X216993855Y-97940476D02*
X216955760Y-97864286D01*
X216955760Y-97864286D02*
X216917664Y-97826190D01*
X216917664Y-97826190D02*
X216803379Y-97750000D01*
X216803379Y-97750000D02*
X216650998Y-97711905D01*
X216650998Y-97711905D02*
X216346236Y-97711905D01*
X216346236Y-97711905D02*
X216270045Y-97750000D01*
X216270045Y-97750000D02*
X216231950Y-97788095D01*
X216231950Y-97788095D02*
X216193855Y-97864286D01*
X216193855Y-97864286D02*
X216193855Y-98016667D01*
X216193855Y-98016667D02*
X216231950Y-98092857D01*
X216231950Y-98092857D02*
X216270045Y-98130952D01*
X216270045Y-98130952D02*
X216346236Y-98169048D01*
X216346236Y-98169048D02*
X216536712Y-98169048D01*
X216536712Y-98169048D02*
X216612902Y-98130952D01*
X216612902Y-98130952D02*
X216650998Y-98092857D01*
X216650998Y-98092857D02*
X216689093Y-98016667D01*
X216689093Y-98016667D02*
X216689093Y-97864286D01*
X216689093Y-97864286D02*
X216650998Y-97788095D01*
X216650998Y-97788095D02*
X216612902Y-97750000D01*
X216612902Y-97750000D02*
X216536712Y-97711905D01*
X231471950Y-99159523D02*
X231433855Y-99235713D01*
X231433855Y-99235713D02*
X231433855Y-99349999D01*
X231433855Y-99349999D02*
X231471950Y-99464285D01*
X231471950Y-99464285D02*
X231548140Y-99540475D01*
X231548140Y-99540475D02*
X231624331Y-99578570D01*
X231624331Y-99578570D02*
X231776712Y-99616666D01*
X231776712Y-99616666D02*
X231890998Y-99616666D01*
X231890998Y-99616666D02*
X232043379Y-99578570D01*
X232043379Y-99578570D02*
X232119569Y-99540475D01*
X232119569Y-99540475D02*
X232195760Y-99464285D01*
X232195760Y-99464285D02*
X232233855Y-99349999D01*
X232233855Y-99349999D02*
X232233855Y-99273808D01*
X232233855Y-99273808D02*
X232195760Y-99159523D01*
X232195760Y-99159523D02*
X232157664Y-99121427D01*
X232157664Y-99121427D02*
X231890998Y-99121427D01*
X231890998Y-99121427D02*
X231890998Y-99273808D01*
X232233855Y-98778570D02*
X231433855Y-98778570D01*
X231433855Y-98778570D02*
X232233855Y-98321427D01*
X232233855Y-98321427D02*
X231433855Y-98321427D01*
X232233855Y-97940475D02*
X231433855Y-97940475D01*
X231433855Y-97940475D02*
X231433855Y-97749999D01*
X231433855Y-97749999D02*
X231471950Y-97635713D01*
X231471950Y-97635713D02*
X231548140Y-97559523D01*
X231548140Y-97559523D02*
X231624331Y-97521428D01*
X231624331Y-97521428D02*
X231776712Y-97483332D01*
X231776712Y-97483332D02*
X231890998Y-97483332D01*
X231890998Y-97483332D02*
X232043379Y-97521428D01*
X232043379Y-97521428D02*
X232119569Y-97559523D01*
X232119569Y-97559523D02*
X232195760Y-97635713D01*
X232195760Y-97635713D02*
X232233855Y-97749999D01*
X232233855Y-97749999D02*
X232233855Y-97940475D01*
X219533855Y-99730951D02*
X218733855Y-99730951D01*
X218733855Y-99197618D02*
X218733855Y-99045237D01*
X218733855Y-99045237D02*
X218771950Y-98969047D01*
X218771950Y-98969047D02*
X218848140Y-98892856D01*
X218848140Y-98892856D02*
X219000521Y-98854761D01*
X219000521Y-98854761D02*
X219267188Y-98854761D01*
X219267188Y-98854761D02*
X219419569Y-98892856D01*
X219419569Y-98892856D02*
X219495760Y-98969047D01*
X219495760Y-98969047D02*
X219533855Y-99045237D01*
X219533855Y-99045237D02*
X219533855Y-99197618D01*
X219533855Y-99197618D02*
X219495760Y-99273809D01*
X219495760Y-99273809D02*
X219419569Y-99349999D01*
X219419569Y-99349999D02*
X219267188Y-99388095D01*
X219267188Y-99388095D02*
X219000521Y-99388095D01*
X219000521Y-99388095D02*
X218848140Y-99349999D01*
X218848140Y-99349999D02*
X218771950Y-99273809D01*
X218771950Y-99273809D02*
X218733855Y-99197618D01*
X219533855Y-98092857D02*
X219533855Y-98550000D01*
X219533855Y-98321428D02*
X218733855Y-98321428D01*
X218733855Y-98321428D02*
X218848140Y-98397619D01*
X218848140Y-98397619D02*
X218924331Y-98473809D01*
X218924331Y-98473809D02*
X218962426Y-98550000D01*
X218733855Y-97597618D02*
X218733855Y-97521428D01*
X218733855Y-97521428D02*
X218771950Y-97445237D01*
X218771950Y-97445237D02*
X218810045Y-97407142D01*
X218810045Y-97407142D02*
X218886236Y-97369047D01*
X218886236Y-97369047D02*
X219038617Y-97330952D01*
X219038617Y-97330952D02*
X219229093Y-97330952D01*
X219229093Y-97330952D02*
X219381474Y-97369047D01*
X219381474Y-97369047D02*
X219457664Y-97407142D01*
X219457664Y-97407142D02*
X219495760Y-97445237D01*
X219495760Y-97445237D02*
X219533855Y-97521428D01*
X219533855Y-97521428D02*
X219533855Y-97597618D01*
X219533855Y-97597618D02*
X219495760Y-97673809D01*
X219495760Y-97673809D02*
X219457664Y-97711904D01*
X219457664Y-97711904D02*
X219381474Y-97749999D01*
X219381474Y-97749999D02*
X219229093Y-97788095D01*
X219229093Y-97788095D02*
X219038617Y-97788095D01*
X219038617Y-97788095D02*
X218886236Y-97749999D01*
X218886236Y-97749999D02*
X218810045Y-97711904D01*
X218810045Y-97711904D02*
X218771950Y-97673809D01*
X218771950Y-97673809D02*
X218733855Y-97597618D01*
X229693855Y-75649999D02*
X228893855Y-75649999D01*
X228893855Y-75116666D02*
X228893855Y-74964285D01*
X228893855Y-74964285D02*
X228931950Y-74888095D01*
X228931950Y-74888095D02*
X229008140Y-74811904D01*
X229008140Y-74811904D02*
X229160521Y-74773809D01*
X229160521Y-74773809D02*
X229427188Y-74773809D01*
X229427188Y-74773809D02*
X229579569Y-74811904D01*
X229579569Y-74811904D02*
X229655760Y-74888095D01*
X229655760Y-74888095D02*
X229693855Y-74964285D01*
X229693855Y-74964285D02*
X229693855Y-75116666D01*
X229693855Y-75116666D02*
X229655760Y-75192857D01*
X229655760Y-75192857D02*
X229579569Y-75269047D01*
X229579569Y-75269047D02*
X229427188Y-75307143D01*
X229427188Y-75307143D02*
X229160521Y-75307143D01*
X229160521Y-75307143D02*
X229008140Y-75269047D01*
X229008140Y-75269047D02*
X228931950Y-75192857D01*
X228931950Y-75192857D02*
X228893855Y-75116666D01*
X229693855Y-74011905D02*
X229693855Y-74469048D01*
X229693855Y-74240476D02*
X228893855Y-74240476D01*
X228893855Y-74240476D02*
X229008140Y-74316667D01*
X229008140Y-74316667D02*
X229084331Y-74392857D01*
X229084331Y-74392857D02*
X229122426Y-74469048D01*
X214453855Y-75649999D02*
X213653855Y-75649999D01*
X213653855Y-75116666D02*
X213653855Y-74964285D01*
X213653855Y-74964285D02*
X213691950Y-74888095D01*
X213691950Y-74888095D02*
X213768140Y-74811904D01*
X213768140Y-74811904D02*
X213920521Y-74773809D01*
X213920521Y-74773809D02*
X214187188Y-74773809D01*
X214187188Y-74773809D02*
X214339569Y-74811904D01*
X214339569Y-74811904D02*
X214415760Y-74888095D01*
X214415760Y-74888095D02*
X214453855Y-74964285D01*
X214453855Y-74964285D02*
X214453855Y-75116666D01*
X214453855Y-75116666D02*
X214415760Y-75192857D01*
X214415760Y-75192857D02*
X214339569Y-75269047D01*
X214339569Y-75269047D02*
X214187188Y-75307143D01*
X214187188Y-75307143D02*
X213920521Y-75307143D01*
X213920521Y-75307143D02*
X213768140Y-75269047D01*
X213768140Y-75269047D02*
X213691950Y-75192857D01*
X213691950Y-75192857D02*
X213653855Y-75116666D01*
X213653855Y-74507143D02*
X213653855Y-73973809D01*
X213653855Y-73973809D02*
X214453855Y-74316667D01*
X224613855Y-99730951D02*
X223813855Y-99730951D01*
X223813855Y-99197618D02*
X223813855Y-99045237D01*
X223813855Y-99045237D02*
X223851950Y-98969047D01*
X223851950Y-98969047D02*
X223928140Y-98892856D01*
X223928140Y-98892856D02*
X224080521Y-98854761D01*
X224080521Y-98854761D02*
X224347188Y-98854761D01*
X224347188Y-98854761D02*
X224499569Y-98892856D01*
X224499569Y-98892856D02*
X224575760Y-98969047D01*
X224575760Y-98969047D02*
X224613855Y-99045237D01*
X224613855Y-99045237D02*
X224613855Y-99197618D01*
X224613855Y-99197618D02*
X224575760Y-99273809D01*
X224575760Y-99273809D02*
X224499569Y-99349999D01*
X224499569Y-99349999D02*
X224347188Y-99388095D01*
X224347188Y-99388095D02*
X224080521Y-99388095D01*
X224080521Y-99388095D02*
X223928140Y-99349999D01*
X223928140Y-99349999D02*
X223851950Y-99273809D01*
X223851950Y-99273809D02*
X223813855Y-99197618D01*
X224613855Y-98092857D02*
X224613855Y-98550000D01*
X224613855Y-98321428D02*
X223813855Y-98321428D01*
X223813855Y-98321428D02*
X223928140Y-98397619D01*
X223928140Y-98397619D02*
X224004331Y-98473809D01*
X224004331Y-98473809D02*
X224042426Y-98550000D01*
X223890045Y-97788095D02*
X223851950Y-97749999D01*
X223851950Y-97749999D02*
X223813855Y-97673809D01*
X223813855Y-97673809D02*
X223813855Y-97483333D01*
X223813855Y-97483333D02*
X223851950Y-97407142D01*
X223851950Y-97407142D02*
X223890045Y-97369047D01*
X223890045Y-97369047D02*
X223966236Y-97330952D01*
X223966236Y-97330952D02*
X224042426Y-97330952D01*
X224042426Y-97330952D02*
X224156712Y-97369047D01*
X224156712Y-97369047D02*
X224613855Y-97826190D01*
X224613855Y-97826190D02*
X224613855Y-97330952D01*
X224613855Y-75649999D02*
X223813855Y-75649999D01*
X223813855Y-75116666D02*
X223813855Y-74964285D01*
X223813855Y-74964285D02*
X223851950Y-74888095D01*
X223851950Y-74888095D02*
X223928140Y-74811904D01*
X223928140Y-74811904D02*
X224080521Y-74773809D01*
X224080521Y-74773809D02*
X224347188Y-74773809D01*
X224347188Y-74773809D02*
X224499569Y-74811904D01*
X224499569Y-74811904D02*
X224575760Y-74888095D01*
X224575760Y-74888095D02*
X224613855Y-74964285D01*
X224613855Y-74964285D02*
X224613855Y-75116666D01*
X224613855Y-75116666D02*
X224575760Y-75192857D01*
X224575760Y-75192857D02*
X224499569Y-75269047D01*
X224499569Y-75269047D02*
X224347188Y-75307143D01*
X224347188Y-75307143D02*
X224080521Y-75307143D01*
X224080521Y-75307143D02*
X223928140Y-75269047D01*
X223928140Y-75269047D02*
X223851950Y-75192857D01*
X223851950Y-75192857D02*
X223813855Y-75116666D01*
X223813855Y-74507143D02*
X223813855Y-74011905D01*
X223813855Y-74011905D02*
X224118617Y-74278571D01*
X224118617Y-74278571D02*
X224118617Y-74164286D01*
X224118617Y-74164286D02*
X224156712Y-74088095D01*
X224156712Y-74088095D02*
X224194807Y-74050000D01*
X224194807Y-74050000D02*
X224270998Y-74011905D01*
X224270998Y-74011905D02*
X224461474Y-74011905D01*
X224461474Y-74011905D02*
X224537664Y-74050000D01*
X224537664Y-74050000D02*
X224575760Y-74088095D01*
X224575760Y-74088095D02*
X224613855Y-74164286D01*
X224613855Y-74164286D02*
X224613855Y-74392857D01*
X224613855Y-74392857D02*
X224575760Y-74469048D01*
X224575760Y-74469048D02*
X224537664Y-74507143D01*
X222073855Y-75649999D02*
X221273855Y-75649999D01*
X221273855Y-75116666D02*
X221273855Y-74964285D01*
X221273855Y-74964285D02*
X221311950Y-74888095D01*
X221311950Y-74888095D02*
X221388140Y-74811904D01*
X221388140Y-74811904D02*
X221540521Y-74773809D01*
X221540521Y-74773809D02*
X221807188Y-74773809D01*
X221807188Y-74773809D02*
X221959569Y-74811904D01*
X221959569Y-74811904D02*
X222035760Y-74888095D01*
X222035760Y-74888095D02*
X222073855Y-74964285D01*
X222073855Y-74964285D02*
X222073855Y-75116666D01*
X222073855Y-75116666D02*
X222035760Y-75192857D01*
X222035760Y-75192857D02*
X221959569Y-75269047D01*
X221959569Y-75269047D02*
X221807188Y-75307143D01*
X221807188Y-75307143D02*
X221540521Y-75307143D01*
X221540521Y-75307143D02*
X221388140Y-75269047D01*
X221388140Y-75269047D02*
X221311950Y-75192857D01*
X221311950Y-75192857D02*
X221273855Y-75116666D01*
X221540521Y-74088095D02*
X222073855Y-74088095D01*
X221235760Y-74278571D02*
X221807188Y-74469048D01*
X221807188Y-74469048D02*
X221807188Y-73973809D01*
X228893855Y-99540476D02*
X228893855Y-99045238D01*
X228893855Y-99045238D02*
X229198617Y-99311904D01*
X229198617Y-99311904D02*
X229198617Y-99197619D01*
X229198617Y-99197619D02*
X229236712Y-99121428D01*
X229236712Y-99121428D02*
X229274807Y-99083333D01*
X229274807Y-99083333D02*
X229350998Y-99045238D01*
X229350998Y-99045238D02*
X229541474Y-99045238D01*
X229541474Y-99045238D02*
X229617664Y-99083333D01*
X229617664Y-99083333D02*
X229655760Y-99121428D01*
X229655760Y-99121428D02*
X229693855Y-99197619D01*
X229693855Y-99197619D02*
X229693855Y-99426190D01*
X229693855Y-99426190D02*
X229655760Y-99502381D01*
X229655760Y-99502381D02*
X229617664Y-99540476D01*
X228893855Y-98816666D02*
X229693855Y-98549999D01*
X229693855Y-98549999D02*
X228893855Y-98283333D01*
X228893855Y-98092857D02*
X228893855Y-97597619D01*
X228893855Y-97597619D02*
X229198617Y-97864285D01*
X229198617Y-97864285D02*
X229198617Y-97750000D01*
X229198617Y-97750000D02*
X229236712Y-97673809D01*
X229236712Y-97673809D02*
X229274807Y-97635714D01*
X229274807Y-97635714D02*
X229350998Y-97597619D01*
X229350998Y-97597619D02*
X229541474Y-97597619D01*
X229541474Y-97597619D02*
X229617664Y-97635714D01*
X229617664Y-97635714D02*
X229655760Y-97673809D01*
X229655760Y-97673809D02*
X229693855Y-97750000D01*
X229693855Y-97750000D02*
X229693855Y-97978571D01*
X229693855Y-97978571D02*
X229655760Y-98054762D01*
X229655760Y-98054762D02*
X229617664Y-98092857D01*
D12*
X177955670Y-101327612D02*
X178090357Y-101260269D01*
X178090357Y-101260269D02*
X178157701Y-101260269D01*
X178157701Y-101260269D02*
X178258716Y-101293941D01*
X178258716Y-101293941D02*
X178359731Y-101394956D01*
X178359731Y-101394956D02*
X178393403Y-101495971D01*
X178393403Y-101495971D02*
X178393403Y-101563315D01*
X178393403Y-101563315D02*
X178359731Y-101664330D01*
X178359731Y-101664330D02*
X178090357Y-101933704D01*
X178090357Y-101933704D02*
X177383251Y-101226597D01*
X177383251Y-101226597D02*
X177618953Y-100990895D01*
X177618953Y-100990895D02*
X177719968Y-100957223D01*
X177719968Y-100957223D02*
X177787312Y-100957223D01*
X177787312Y-100957223D02*
X177888327Y-100990895D01*
X177888327Y-100990895D02*
X177955670Y-101058238D01*
X177955670Y-101058238D02*
X177989342Y-101159254D01*
X177989342Y-101159254D02*
X177989342Y-101226597D01*
X177989342Y-101226597D02*
X177955670Y-101327612D01*
X177955670Y-101327612D02*
X177719968Y-101563315D01*
X178561762Y-101058238D02*
X178898479Y-100721521D01*
X178696449Y-101327612D02*
X178225044Y-100384803D01*
X178225044Y-100384803D02*
X179167853Y-100856208D01*
X178595434Y-100014414D02*
X178999495Y-99610353D01*
X179504571Y-100519490D02*
X178797464Y-99812383D01*
X180312693Y-99711368D02*
X179908632Y-100115429D01*
X180110663Y-99913398D02*
X179403556Y-99206292D01*
X179403556Y-99206292D02*
X179437228Y-99374650D01*
X179437228Y-99374650D02*
X179437228Y-99509337D01*
X179437228Y-99509337D02*
X179403556Y-99610353D01*
X231566667Y-74207200D02*
X231709524Y-74254819D01*
X231709524Y-74254819D02*
X231947619Y-74254819D01*
X231947619Y-74254819D02*
X232042857Y-74207200D01*
X232042857Y-74207200D02*
X232090476Y-74159580D01*
X232090476Y-74159580D02*
X232138095Y-74064342D01*
X232138095Y-74064342D02*
X232138095Y-73969104D01*
X232138095Y-73969104D02*
X232090476Y-73873866D01*
X232090476Y-73873866D02*
X232042857Y-73826247D01*
X232042857Y-73826247D02*
X231947619Y-73778628D01*
X231947619Y-73778628D02*
X231757143Y-73731009D01*
X231757143Y-73731009D02*
X231661905Y-73683390D01*
X231661905Y-73683390D02*
X231614286Y-73635771D01*
X231614286Y-73635771D02*
X231566667Y-73540533D01*
X231566667Y-73540533D02*
X231566667Y-73445295D01*
X231566667Y-73445295D02*
X231614286Y-73350057D01*
X231614286Y-73350057D02*
X231661905Y-73302438D01*
X231661905Y-73302438D02*
X231757143Y-73254819D01*
X231757143Y-73254819D02*
X231995238Y-73254819D01*
X231995238Y-73254819D02*
X232138095Y-73302438D01*
X232471429Y-73254819D02*
X232709524Y-74254819D01*
X232709524Y-74254819D02*
X232900000Y-73540533D01*
X232900000Y-73540533D02*
X233090476Y-74254819D01*
X233090476Y-74254819D02*
X233328572Y-73254819D01*
X233614286Y-73254819D02*
X234233333Y-73254819D01*
X234233333Y-73254819D02*
X233900000Y-73635771D01*
X233900000Y-73635771D02*
X234042857Y-73635771D01*
X234042857Y-73635771D02*
X234138095Y-73683390D01*
X234138095Y-73683390D02*
X234185714Y-73731009D01*
X234185714Y-73731009D02*
X234233333Y-73826247D01*
X234233333Y-73826247D02*
X234233333Y-74064342D01*
X234233333Y-74064342D02*
X234185714Y-74159580D01*
X234185714Y-74159580D02*
X234138095Y-74207200D01*
X234138095Y-74207200D02*
X234042857Y-74254819D01*
X234042857Y-74254819D02*
X233757143Y-74254819D01*
X233757143Y-74254819D02*
X233661905Y-74207200D01*
X233661905Y-74207200D02*
X233614286Y-74159580D01*
X178266667Y-74207200D02*
X178409524Y-74254819D01*
X178409524Y-74254819D02*
X178647619Y-74254819D01*
X178647619Y-74254819D02*
X178742857Y-74207200D01*
X178742857Y-74207200D02*
X178790476Y-74159580D01*
X178790476Y-74159580D02*
X178838095Y-74064342D01*
X178838095Y-74064342D02*
X178838095Y-73969104D01*
X178838095Y-73969104D02*
X178790476Y-73873866D01*
X178790476Y-73873866D02*
X178742857Y-73826247D01*
X178742857Y-73826247D02*
X178647619Y-73778628D01*
X178647619Y-73778628D02*
X178457143Y-73731009D01*
X178457143Y-73731009D02*
X178361905Y-73683390D01*
X178361905Y-73683390D02*
X178314286Y-73635771D01*
X178314286Y-73635771D02*
X178266667Y-73540533D01*
X178266667Y-73540533D02*
X178266667Y-73445295D01*
X178266667Y-73445295D02*
X178314286Y-73350057D01*
X178314286Y-73350057D02*
X178361905Y-73302438D01*
X178361905Y-73302438D02*
X178457143Y-73254819D01*
X178457143Y-73254819D02*
X178695238Y-73254819D01*
X178695238Y-73254819D02*
X178838095Y-73302438D01*
X179171429Y-73254819D02*
X179409524Y-74254819D01*
X179409524Y-74254819D02*
X179600000Y-73540533D01*
X179600000Y-73540533D02*
X179790476Y-74254819D01*
X179790476Y-74254819D02*
X180028572Y-73254819D01*
X180600000Y-73254819D02*
X180695238Y-73254819D01*
X180695238Y-73254819D02*
X180790476Y-73302438D01*
X180790476Y-73302438D02*
X180838095Y-73350057D01*
X180838095Y-73350057D02*
X180885714Y-73445295D01*
X180885714Y-73445295D02*
X180933333Y-73635771D01*
X180933333Y-73635771D02*
X180933333Y-73873866D01*
X180933333Y-73873866D02*
X180885714Y-74064342D01*
X180885714Y-74064342D02*
X180838095Y-74159580D01*
X180838095Y-74159580D02*
X180790476Y-74207200D01*
X180790476Y-74207200D02*
X180695238Y-74254819D01*
X180695238Y-74254819D02*
X180600000Y-74254819D01*
X180600000Y-74254819D02*
X180504762Y-74207200D01*
X180504762Y-74207200D02*
X180457143Y-74159580D01*
X180457143Y-74159580D02*
X180409524Y-74064342D01*
X180409524Y-74064342D02*
X180361905Y-73873866D01*
X180361905Y-73873866D02*
X180361905Y-73635771D01*
X180361905Y-73635771D02*
X180409524Y-73445295D01*
X180409524Y-73445295D02*
X180457143Y-73350057D01*
X180457143Y-73350057D02*
X180504762Y-73302438D01*
X180504762Y-73302438D02*
X180600000Y-73254819D01*
X205861666Y-82294819D02*
X205861666Y-83009104D01*
X205861666Y-83009104D02*
X205814047Y-83151961D01*
X205814047Y-83151961D02*
X205718809Y-83247200D01*
X205718809Y-83247200D02*
X205575952Y-83294819D01*
X205575952Y-83294819D02*
X205480714Y-83294819D01*
X206861666Y-83294819D02*
X206290238Y-83294819D01*
X206575952Y-83294819D02*
X206575952Y-82294819D01*
X206575952Y-82294819D02*
X206480714Y-82437676D01*
X206480714Y-82437676D02*
X206385476Y-82532914D01*
X206385476Y-82532914D02*
X206290238Y-82580533D01*
X214566667Y-74207200D02*
X214709524Y-74254819D01*
X214709524Y-74254819D02*
X214947619Y-74254819D01*
X214947619Y-74254819D02*
X215042857Y-74207200D01*
X215042857Y-74207200D02*
X215090476Y-74159580D01*
X215090476Y-74159580D02*
X215138095Y-74064342D01*
X215138095Y-74064342D02*
X215138095Y-73969104D01*
X215138095Y-73969104D02*
X215090476Y-73873866D01*
X215090476Y-73873866D02*
X215042857Y-73826247D01*
X215042857Y-73826247D02*
X214947619Y-73778628D01*
X214947619Y-73778628D02*
X214757143Y-73731009D01*
X214757143Y-73731009D02*
X214661905Y-73683390D01*
X214661905Y-73683390D02*
X214614286Y-73635771D01*
X214614286Y-73635771D02*
X214566667Y-73540533D01*
X214566667Y-73540533D02*
X214566667Y-73445295D01*
X214566667Y-73445295D02*
X214614286Y-73350057D01*
X214614286Y-73350057D02*
X214661905Y-73302438D01*
X214661905Y-73302438D02*
X214757143Y-73254819D01*
X214757143Y-73254819D02*
X214995238Y-73254819D01*
X214995238Y-73254819D02*
X215138095Y-73302438D01*
X215471429Y-73254819D02*
X215709524Y-74254819D01*
X215709524Y-74254819D02*
X215900000Y-73540533D01*
X215900000Y-73540533D02*
X216090476Y-74254819D01*
X216090476Y-74254819D02*
X216328572Y-73254819D01*
X216661905Y-73350057D02*
X216709524Y-73302438D01*
X216709524Y-73302438D02*
X216804762Y-73254819D01*
X216804762Y-73254819D02*
X217042857Y-73254819D01*
X217042857Y-73254819D02*
X217138095Y-73302438D01*
X217138095Y-73302438D02*
X217185714Y-73350057D01*
X217185714Y-73350057D02*
X217233333Y-73445295D01*
X217233333Y-73445295D02*
X217233333Y-73540533D01*
X217233333Y-73540533D02*
X217185714Y-73683390D01*
X217185714Y-73683390D02*
X216614286Y-74254819D01*
X216614286Y-74254819D02*
X217233333Y-74254819D01*
X195291667Y-74207200D02*
X195434524Y-74254819D01*
X195434524Y-74254819D02*
X195672619Y-74254819D01*
X195672619Y-74254819D02*
X195767857Y-74207200D01*
X195767857Y-74207200D02*
X195815476Y-74159580D01*
X195815476Y-74159580D02*
X195863095Y-74064342D01*
X195863095Y-74064342D02*
X195863095Y-73969104D01*
X195863095Y-73969104D02*
X195815476Y-73873866D01*
X195815476Y-73873866D02*
X195767857Y-73826247D01*
X195767857Y-73826247D02*
X195672619Y-73778628D01*
X195672619Y-73778628D02*
X195482143Y-73731009D01*
X195482143Y-73731009D02*
X195386905Y-73683390D01*
X195386905Y-73683390D02*
X195339286Y-73635771D01*
X195339286Y-73635771D02*
X195291667Y-73540533D01*
X195291667Y-73540533D02*
X195291667Y-73445295D01*
X195291667Y-73445295D02*
X195339286Y-73350057D01*
X195339286Y-73350057D02*
X195386905Y-73302438D01*
X195386905Y-73302438D02*
X195482143Y-73254819D01*
X195482143Y-73254819D02*
X195720238Y-73254819D01*
X195720238Y-73254819D02*
X195863095Y-73302438D01*
X196196429Y-73254819D02*
X196434524Y-74254819D01*
X196434524Y-74254819D02*
X196625000Y-73540533D01*
X196625000Y-73540533D02*
X196815476Y-74254819D01*
X196815476Y-74254819D02*
X197053572Y-73254819D01*
X197958333Y-74254819D02*
X197386905Y-74254819D01*
X197672619Y-74254819D02*
X197672619Y-73254819D01*
X197672619Y-73254819D02*
X197577381Y-73397676D01*
X197577381Y-73397676D02*
X197482143Y-73492914D01*
X197482143Y-73492914D02*
X197386905Y-73540533D01*
X178882200Y-80358332D02*
X178929819Y-80215475D01*
X178929819Y-80215475D02*
X178929819Y-79977380D01*
X178929819Y-79977380D02*
X178882200Y-79882142D01*
X178882200Y-79882142D02*
X178834580Y-79834523D01*
X178834580Y-79834523D02*
X178739342Y-79786904D01*
X178739342Y-79786904D02*
X178644104Y-79786904D01*
X178644104Y-79786904D02*
X178548866Y-79834523D01*
X178548866Y-79834523D02*
X178501247Y-79882142D01*
X178501247Y-79882142D02*
X178453628Y-79977380D01*
X178453628Y-79977380D02*
X178406009Y-80167856D01*
X178406009Y-80167856D02*
X178358390Y-80263094D01*
X178358390Y-80263094D02*
X178310771Y-80310713D01*
X178310771Y-80310713D02*
X178215533Y-80358332D01*
X178215533Y-80358332D02*
X178120295Y-80358332D01*
X178120295Y-80358332D02*
X178025057Y-80310713D01*
X178025057Y-80310713D02*
X177977438Y-80263094D01*
X177977438Y-80263094D02*
X177929819Y-80167856D01*
X177929819Y-80167856D02*
X177929819Y-79929761D01*
X177929819Y-79929761D02*
X177977438Y-79786904D01*
X177929819Y-79453570D02*
X178929819Y-79215475D01*
X178929819Y-79215475D02*
X178215533Y-79024999D01*
X178215533Y-79024999D02*
X178929819Y-78834523D01*
X178929819Y-78834523D02*
X177929819Y-78596428D01*
X178263152Y-77786904D02*
X178929819Y-77786904D01*
X177882200Y-78024999D02*
X178596485Y-78263094D01*
X178596485Y-78263094D02*
X178596485Y-77644047D01*
D11*
%TO.C,U1*%
X212250000Y-77700000D02*
X236250000Y-77700000D01*
X212250000Y-95700000D02*
X212250000Y-77700000D01*
X236250000Y-77700000D02*
X236250000Y-95700000D01*
X236250000Y-95700000D02*
X212250000Y-95700000D01*
%TO.C,BAT1*%
X173775451Y-99651561D02*
X175048243Y-98378769D01*
X174800755Y-100676866D02*
X173775451Y-99651561D01*
X175048243Y-98378769D02*
X174348207Y-97678733D01*
X177692822Y-101772881D02*
X180118198Y-99347505D01*
X177996878Y-95430134D02*
X176724086Y-96702926D01*
X179022183Y-96455438D02*
X177996878Y-95430134D01*
%TO.C,SW3*%
X230450000Y-71075000D02*
X230450000Y-70525000D01*
X231475000Y-68950000D02*
X230550000Y-68950000D01*
X235250000Y-68950000D02*
X234325000Y-68950000D01*
X235250000Y-72650000D02*
X230550000Y-72650000D01*
X235350000Y-71075000D02*
X235350000Y-70525000D01*
%TO.C,SW0*%
X177150000Y-71075000D02*
X177150000Y-70525000D01*
X178175000Y-68950000D02*
X177250000Y-68950000D01*
X181950000Y-68950000D02*
X181025000Y-68950000D01*
X181950000Y-72650000D02*
X177250000Y-72650000D01*
X182050000Y-71075000D02*
X182050000Y-70525000D01*
%TO.C,SW5*%
X172150000Y-84900000D02*
X172150000Y-92700000D01*
X172150000Y-84900000D02*
X176250000Y-84900000D01*
X176200000Y-87900000D02*
X176200000Y-87200000D01*
X176200000Y-90400000D02*
X176200000Y-89700000D01*
X176200000Y-92700000D02*
X172150000Y-92700000D01*
D13*
X176250000Y-85700000D02*
X176250000Y-84900000D01*
X176250000Y-91800000D02*
X176250000Y-92700000D01*
D11*
%TO.C,J1*%
X181625000Y-79045000D02*
X181625000Y-75935000D01*
X181625000Y-84125000D02*
X181625000Y-80565000D01*
X181625000Y-89205000D02*
X181625000Y-85645000D01*
X181625000Y-94285000D02*
X181625000Y-90725000D01*
X181625000Y-95805000D02*
X180105000Y-95805000D01*
X181625000Y-96375000D02*
X181625000Y-95805000D01*
X182295000Y-70650000D02*
X230295000Y-70650000D01*
X182295000Y-101650000D02*
X182295000Y-70650000D01*
X184285000Y-75935000D02*
X181625000Y-75935000D01*
X184285000Y-76505000D02*
X184285000Y-75935000D01*
X184285000Y-81585000D02*
X184285000Y-78025000D01*
X184285000Y-86665000D02*
X184285000Y-83105000D01*
X184285000Y-91745000D02*
X184285000Y-88185000D01*
X184285000Y-96375000D02*
X181625000Y-96375000D01*
X184285000Y-96375000D02*
X184285000Y-93265000D01*
X230295000Y-70650000D02*
X230295000Y-101650000D01*
X230295000Y-101650000D02*
X182295000Y-101650000D01*
%TO.C,SW2*%
X213450000Y-71075000D02*
X213450000Y-70525000D01*
X214475000Y-68950000D02*
X213550000Y-68950000D01*
X218250000Y-68950000D02*
X217325000Y-68950000D01*
X218250000Y-72650000D02*
X213550000Y-72650000D01*
X218350000Y-71075000D02*
X218350000Y-70525000D01*
%TO.C,SW1*%
X194175000Y-71075000D02*
X194175000Y-70525000D01*
X195200000Y-68950000D02*
X194275000Y-68950000D01*
X198975000Y-68950000D02*
X198050000Y-68950000D01*
X198975000Y-72650000D02*
X194275000Y-72650000D01*
X199075000Y-71075000D02*
X199075000Y-70525000D01*
%TO.C,SW4*%
X173625000Y-76675000D02*
X173625000Y-77600000D01*
X173625000Y-80450000D02*
X173625000Y-81375000D01*
X175750000Y-76575000D02*
X175200000Y-76575000D01*
X175750000Y-81475000D02*
X175200000Y-81475000D01*
X177325000Y-76675000D02*
X177325000Y-81375000D01*
%TD*%
M02*
