  0
SECTION
  2
HEADER
  9
$ANGBASE
  50
0.0
  9
$ANGDIR
  70
1
  9
$MEASUREMENT
  70
1
  0
ENDSEC
  0
SECTION
  2
TABLES
  0
TABLE
  2
LTYPE
  70
4
  0
LTYPE
  5
40F
  2
CONTINUOUS
  70
0
  3
Solid line
  72
65
  73
0
  40
0.0
  0
LTYPE
  5
410
  2
DASHDOT
 70
0
  3
Dash Dot ____ _ ____ _
 72
65
 73
4
 40
2.0
 49
1.25
 49
-0.25
 49
0.25
 49
-0.25
  0
LTYPE
  5
411
  2
DASHED
 70
0
  3
Dashed __ __ __ __ __
 72
65
 73
2
 40
0.75
 49
0.5
 49
-0.25
  0
LTYPE
  5
43B
  2
DOTTED
 70
0
  3
Dotted .  .  .  .
 72
65
 73
2
 40
0.2
 49
0.0
 49
-0.2
  0
ENDTAB
  0
TABLE
  2
STYLE
  70
4
  0
STYLE
  2
KICAD
  70
0
  40
0
  41
1
  42
1
  50
0
  71
0
  3
isocp.shx
  0
STYLE
  2
KICADB
  70
0
  40
0
  41
1
  42
1
  50
0
  71
0
  3
isocp.shx
  0
STYLE
  2
KICADI
  70
0
  40
0
  41
1
  42
1
  50
15
  71
0
  3
isocp.shx
  0
STYLE
  2
KICADBI
  70
0
  40
0
  41
1
  42
1
  50
15
  71
0
  3
isocp.shx
  0
ENDTAB
  0
TABLE
  2
LAYER
  70
1
  0
LAYER
  2
BLACK
  70
0
  62
7
  6
CONTINUOUS
  0
ENDTAB
  0
ENDSEC
  0
SECTION
  2
ENTITIES
0
LINE
8
BLACK
6
CONTINUOUS
10
178.1722079999999835
20
-86.78425399999999
11
178.2739430000000027
21
-86.8429909999999978
0
LINE
8
BLACK
6
CONTINUOUS
10
178.2739430000000027
20
-86.8429909999999978
11
178.357009000000005
21
-86.9260570000000001
0
LINE
8
BLACK
6
CONTINUOUS
10
178.357009000000005
20
-86.9260570000000001
11
178.4157459999999844
21
-87.0277919999999909
0
LINE
8
BLACK
6
CONTINUOUS
10
178.4157459999999844
20
-87.0277919999999909
11
178.4461499999999887
21
-87.141262999999995
0
LINE
8
BLACK
6
CONTINUOUS
10
178.4461499999999887
20
-87.141262999999995
11
178.4461499999999887
21
-87.2587369999999964
0
LINE
8
BLACK
6
CONTINUOUS
10
178.4461499999999887
20
-87.2587369999999964
11
178.4157459999999844
21
-87.3722080000000005
0
LINE
8
BLACK
6
CONTINUOUS
10
178.4157459999999844
20
-87.3722080000000005
11
178.357009000000005
21
-87.4739429999999913
0
LINE
8
BLACK
6
CONTINUOUS
10
178.357009000000005
20
-87.4739429999999913
11
178.2739430000000027
21
-87.5570089999999936
0
LINE
8
BLACK
6
CONTINUOUS
10
178.2739430000000027
20
-87.5570089999999936
11
178.1722079999999835
21
-87.6157460000000015
0
LINE
8
BLACK
6
CONTINUOUS
10
178.1722079999999835
20
-87.6157460000000015
11
178.0587369999999794
21
-87.6461499999999916
0
LINE
8
BLACK
6
CONTINUOUS
10
178.0587369999999794
20
-87.6461499999999916
11
177.9412629999999922
21
-87.6461499999999916
0
LINE
8
BLACK
6
CONTINUOUS
10
177.9412629999999922
20
-87.6461499999999916
11
177.8277919999999881
21
-87.6157460000000015
0
LINE
8
BLACK
6
CONTINUOUS
10
177.8277919999999881
20
-87.6157460000000015
11
177.7260569999999973
21
-87.5570089999999936
0
LINE
8
BLACK
6
CONTINUOUS
10
177.7260569999999973
20
-87.5570089999999936
11
177.642990999999995
21
-87.4739429999999913
0
LINE
8
BLACK
6
CONTINUOUS
10
177.642990999999995
20
-87.4739429999999913
11
177.5842539999999872
21
-87.3722080000000005
0
LINE
8
BLACK
6
CONTINUOUS
10
177.5842539999999872
20
-87.3722080000000005
11
177.5538499999999829
21
-87.2587369999999964
0
LINE
8
BLACK
6
CONTINUOUS
10
177.5538499999999829
20
-87.2587369999999964
11
177.5538499999999829
21
-87.141262999999995
0
LINE
8
BLACK
6
CONTINUOUS
10
177.5538499999999829
20
-87.141262999999995
11
177.5842539999999872
21
-87.0277919999999909
0
LINE
8
BLACK
6
CONTINUOUS
10
177.5842539999999872
20
-87.0277919999999909
11
177.642990999999995
21
-86.9260570000000001
0
LINE
8
BLACK
6
CONTINUOUS
10
177.642990999999995
20
-86.9260570000000001
11
177.7260569999999973
21
-86.8429909999999978
0
LINE
8
BLACK
6
CONTINUOUS
10
177.7260569999999973
20
-86.8429909999999978
11
177.8277919999999881
21
-86.78425399999999
0
LINE
8
BLACK
6
CONTINUOUS
10
177.8277919999999881
20
-86.78425399999999
11
177.9412629999999922
21
-86.7538499999999999
0
LINE
8
BLACK
6
CONTINUOUS
10
177.9412629999999922
20
-86.7538499999999999
11
178.0587369999999794
21
-86.7538499999999999
0
LINE
8
BLACK
6
CONTINUOUS
10
178.0587369999999794
20
-86.7538499999999999
11
178.1722079999999835
21
-86.78425399999999
0
LINE
8
BLACK
6
CONTINUOUS
10
178.1722079999999835
20
-83.78425399999999
11
178.2739430000000027
21
-83.8429909999999978
0
LINE
8
BLACK
6
CONTINUOUS
10
178.2739430000000027
20
-83.8429909999999978
11
178.357009000000005
21
-83.9260570000000001
0
LINE
8
BLACK
6
CONTINUOUS
10
178.357009000000005
20
-83.9260570000000001
11
178.4157459999999844
21
-84.0277919999999909
0
LINE
8
BLACK
6
CONTINUOUS
10
178.4157459999999844
20
-84.0277919999999909
11
178.4461499999999887
21
-84.141262999999995
0
LINE
8
BLACK
6
CONTINUOUS
10
178.4461499999999887
20
-84.141262999999995
11
178.4461499999999887
21
-84.2587369999999964
0
LINE
8
BLACK
6
CONTINUOUS
10
178.4461499999999887
20
-84.2587369999999964
11
178.4157459999999844
21
-84.3722080000000005
0
LINE
8
BLACK
6
CONTINUOUS
10
178.4157459999999844
20
-84.3722080000000005
11
178.357009000000005
21
-84.4739429999999913
0
LINE
8
BLACK
6
CONTINUOUS
10
178.357009000000005
20
-84.4739429999999913
11
178.2739430000000027
21
-84.5570089999999936
0
LINE
8
BLACK
6
CONTINUOUS
10
178.2739430000000027
20
-84.5570089999999936
11
178.1722079999999835
21
-84.6157460000000015
0
LINE
8
BLACK
6
CONTINUOUS
10
178.1722079999999835
20
-84.6157460000000015
11
178.0587369999999794
21
-84.6461499999999916
0
LINE
8
BLACK
6
CONTINUOUS
10
178.0587369999999794
20
-84.6461499999999916
11
177.9412629999999922
21
-84.6461499999999916
0
LINE
8
BLACK
6
CONTINUOUS
10
177.9412629999999922
20
-84.6461499999999916
11
177.8277919999999881
21
-84.6157460000000015
0
LINE
8
BLACK
6
CONTINUOUS
10
177.8277919999999881
20
-84.6157460000000015
11
177.7260569999999973
21
-84.5570089999999936
0
LINE
8
BLACK
6
CONTINUOUS
10
177.7260569999999973
20
-84.5570089999999936
11
177.642990999999995
21
-84.4739429999999913
0
LINE
8
BLACK
6
CONTINUOUS
10
177.642990999999995
20
-84.4739429999999913
11
177.5842539999999872
21
-84.3722080000000005
0
LINE
8
BLACK
6
CONTINUOUS
10
177.5842539999999872
20
-84.3722080000000005
11
177.5538499999999829
21
-84.2587369999999964
0
LINE
8
BLACK
6
CONTINUOUS
10
177.5538499999999829
20
-84.2587369999999964
11
177.5538499999999829
21
-84.141262999999995
0
LINE
8
BLACK
6
CONTINUOUS
10
177.5538499999999829
20
-84.141262999999995
11
177.5842539999999872
21
-84.0277919999999909
0
LINE
8
BLACK
6
CONTINUOUS
10
177.5842539999999872
20
-84.0277919999999909
11
177.642990999999995
21
-83.9260570000000001
0
LINE
8
BLACK
6
CONTINUOUS
10
177.642990999999995
20
-83.9260570000000001
11
177.7260569999999973
21
-83.8429909999999978
0
LINE
8
BLACK
6
CONTINUOUS
10
177.7260569999999973
20
-83.8429909999999978
11
177.8277919999999881
21
-83.78425399999999
0
LINE
8
BLACK
6
CONTINUOUS
10
177.8277919999999881
20
-83.78425399999999
11
177.9412629999999922
21
-83.7538499999999999
0
LINE
8
BLACK
6
CONTINUOUS
10
177.9412629999999922
20
-83.7538499999999999
11
178.0587369999999794
21
-83.7538499999999999
0
LINE
8
BLACK
6
CONTINUOUS
10
178.0587369999999794
20
-83.7538499999999999
11
178.1722079999999835
21
-83.78425399999999
0
LINE
8
BLACK
6
CONTINUOUS
10
177.9722079999999949
20
-75.6092539999999929
11
178.0739429999999857
21
-75.6679910000000007
0
LINE
8
BLACK
6
CONTINUOUS
10
178.0739429999999857
20
-75.6679910000000007
11
178.157008999999988
21
-75.751057000000003
0
LINE
8
BLACK
6
CONTINUOUS
10
178.157008999999988
20
-75.751057000000003
11
178.2157459999999958
21
-75.8527919999999938
0
LINE
8
BLACK
6
CONTINUOUS
10
178.2157459999999958
20
-75.8527919999999938
11
178.2461500000000001
21
-75.9662629999999979
0
LINE
8
BLACK
6
CONTINUOUS
10
178.2461500000000001
20
-75.9662629999999979
11
178.2461500000000001
21
-76.0837369999999993
0
LINE
8
BLACK
6
CONTINUOUS
10
178.2461500000000001
20
-76.0837369999999993
11
178.2157459999999958
21
-76.1972080000000034
0
LINE
8
BLACK
6
CONTINUOUS
10
178.2157459999999958
20
-76.1972080000000034
11
178.157008999999988
21
-76.2989429999999942
0
LINE
8
BLACK
6
CONTINUOUS
10
178.157008999999988
20
-76.2989429999999942
11
178.0739429999999857
21
-76.3820089999999965
0
LINE
8
BLACK
6
CONTINUOUS
10
178.0739429999999857
20
-76.3820089999999965
11
177.9722079999999949
21
-76.4407459999999901
0
LINE
8
BLACK
6
CONTINUOUS
10
177.9722079999999949
20
-76.4407459999999901
11
177.8587369999999908
21
-76.4711499999999944
0
LINE
8
BLACK
6
CONTINUOUS
10
177.8587369999999908
20
-76.4711499999999944
11
177.7412630000000036
21
-76.4711499999999944
0
LINE
8
BLACK
6
CONTINUOUS
10
177.7412630000000036
20
-76.4711499999999944
11
177.6277919999999995
21
-76.4407459999999901
0
LINE
8
BLACK
6
CONTINUOUS
10
177.6277919999999995
20
-76.4407459999999901
11
177.5260569999999802
21
-76.3820089999999965
0
LINE
8
BLACK
6
CONTINUOUS
10
177.5260569999999802
20
-76.3820089999999965
11
177.4429909999999779
21
-76.2989429999999942
0
LINE
8
BLACK
6
CONTINUOUS
10
177.4429909999999779
20
-76.2989429999999942
11
177.3842539999999985
21
-76.1972080000000034
0
LINE
8
BLACK
6
CONTINUOUS
10
177.3842539999999985
20
-76.1972080000000034
11
177.3538499999999942
21
-76.0837369999999993
0
LINE
8
BLACK
6
CONTINUOUS
10
177.3538499999999942
20
-76.0837369999999993
11
177.3538499999999942
21
-75.9662629999999979
0
LINE
8
BLACK
6
CONTINUOUS
10
177.3538499999999942
20
-75.9662629999999979
11
177.3842539999999985
21
-75.8527919999999938
0
LINE
8
BLACK
6
CONTINUOUS
10
177.3842539999999985
20
-75.8527919999999938
11
177.4429909999999779
21
-75.751057000000003
0
LINE
8
BLACK
6
CONTINUOUS
10
177.4429909999999779
20
-75.751057000000003
11
177.5260569999999802
21
-75.6679910000000007
0
LINE
8
BLACK
6
CONTINUOUS
10
177.5260569999999802
20
-75.6679910000000007
11
177.6277919999999995
21
-75.6092539999999929
0
LINE
8
BLACK
6
CONTINUOUS
10
177.6277919999999995
20
-75.6092539999999929
11
177.7412630000000036
21
-75.5788500000000028
0
LINE
8
BLACK
6
CONTINUOUS
10
177.7412630000000036
20
-75.5788500000000028
11
177.8587369999999908
21
-75.5788500000000028
0
LINE
8
BLACK
6
CONTINUOUS
10
177.8587369999999908
20
-75.5788500000000028
11
177.9722079999999949
21
-75.6092539999999929
0
LINE
8
BLACK
6
CONTINUOUS
10
180.7222079999999949
20
-75.6092539999999929
11
180.8239429999999857
21
-75.6679910000000007
0
LINE
8
BLACK
6
CONTINUOUS
10
180.8239429999999857
20
-75.6679910000000007
11
180.907008999999988
21
-75.751057000000003
0
LINE
8
BLACK
6
CONTINUOUS
10
180.907008999999988
20
-75.751057000000003
11
180.9657459999999958
21
-75.8527919999999938
0
LINE
8
BLACK
6
CONTINUOUS
10
180.9657459999999958
20
-75.8527919999999938
11
180.9961500000000001
21
-75.9662629999999979
0
LINE
8
BLACK
6
CONTINUOUS
10
180.9961500000000001
20
-75.9662629999999979
11
180.9961500000000001
21
-76.0837369999999993
0
LINE
8
BLACK
6
CONTINUOUS
10
180.9961500000000001
20
-76.0837369999999993
11
180.9657459999999958
21
-76.1972080000000034
0
LINE
8
BLACK
6
CONTINUOUS
10
180.9657459999999958
20
-76.1972080000000034
11
180.907008999999988
21
-76.2989429999999942
0
LINE
8
BLACK
6
CONTINUOUS
10
180.907008999999988
20
-76.2989429999999942
11
180.8239429999999857
21
-76.3820089999999965
0
LINE
8
BLACK
6
CONTINUOUS
10
180.8239429999999857
20
-76.3820089999999965
11
180.7222079999999949
21
-76.4407459999999901
0
LINE
8
BLACK
6
CONTINUOUS
10
180.7222079999999949
20
-76.4407459999999901
11
180.6087369999999908
21
-76.4711499999999944
0
LINE
8
BLACK
6
CONTINUOUS
10
180.6087369999999908
20
-76.4711499999999944
11
180.4912630000000036
21
-76.4711499999999944
0
LINE
8
BLACK
6
CONTINUOUS
10
180.4912630000000036
20
-76.4711499999999944
11
180.3777919999999995
21
-76.4407459999999901
0
LINE
8
BLACK
6
CONTINUOUS
10
180.3777919999999995
20
-76.4407459999999901
11
180.2760569999999802
21
-76.3820089999999965
0
LINE
8
BLACK
6
CONTINUOUS
10
180.2760569999999802
20
-76.3820089999999965
11
180.1929909999999779
21
-76.2989429999999942
0
LINE
8
BLACK
6
CONTINUOUS
10
180.1929909999999779
20
-76.2989429999999942
11
180.1342539999999985
21
-76.1972080000000034
0
LINE
8
BLACK
6
CONTINUOUS
10
180.1342539999999985
20
-76.1972080000000034
11
180.1038499999999942
21
-76.0837369999999993
0
LINE
8
BLACK
6
CONTINUOUS
10
180.1038499999999942
20
-76.0837369999999993
11
180.1038499999999942
21
-75.9662629999999979
0
LINE
8
BLACK
6
CONTINUOUS
10
180.1038499999999942
20
-75.9662629999999979
11
180.1342539999999985
21
-75.8527919999999938
0
LINE
8
BLACK
6
CONTINUOUS
10
180.1342539999999985
20
-75.8527919999999938
11
180.1929909999999779
21
-75.751057000000003
0
LINE
8
BLACK
6
CONTINUOUS
10
180.1929909999999779
20
-75.751057000000003
11
180.2760569999999802
21
-75.6679910000000007
0
LINE
8
BLACK
6
CONTINUOUS
10
180.2760569999999802
20
-75.6679910000000007
11
180.3777919999999995
21
-75.6092539999999929
0
LINE
8
BLACK
6
CONTINUOUS
10
180.3777919999999995
20
-75.6092539999999929
11
180.4912630000000036
21
-75.5788500000000028
0
LINE
8
BLACK
6
CONTINUOUS
10
180.4912630000000036
20
-75.5788500000000028
11
180.6087369999999908
21
-75.5788500000000028
0
LINE
8
BLACK
6
CONTINUOUS
10
180.6087369999999908
20
-75.5788500000000028
11
180.7222079999999949
21
-75.6092539999999929
0
LINE
8
BLACK
6
CONTINUOUS
10
182.3722080000000005
20
-69.9592540000000014
11
182.4739429999999913
21
-70.017990999999995
0
LINE
8
BLACK
6
CONTINUOUS
10
182.4739429999999913
20
-70.017990999999995
11
182.5570089999999936
21
-70.1010569999999973
0
LINE
8
BLACK
6
CONTINUOUS
10
182.5570089999999936
20
-70.1010569999999973
11
182.6157460000000015
21
-70.2027920000000023
0
LINE
8
BLACK
6
CONTINUOUS
10
182.6157460000000015
20
-70.2027920000000023
11
182.6461500000000058
21
-70.3162629999999922
0
LINE
8
BLACK
6
CONTINUOUS
10
182.6461500000000058
20
-70.3162629999999922
11
182.6461500000000058
21
-70.4337369999999936
0
LINE
8
BLACK
6
CONTINUOUS
10
182.6461500000000058
20
-70.4337369999999936
11
182.6157460000000015
21
-70.5472079999999977
0
LINE
8
BLACK
6
CONTINUOUS
10
182.6157460000000015
20
-70.5472079999999977
11
182.5570089999999936
21
-70.6489430000000027
0
LINE
8
BLACK
6
CONTINUOUS
10
182.5570089999999936
20
-70.6489430000000027
11
182.4739429999999913
21
-70.7320089999999908
0
LINE
8
BLACK
6
CONTINUOUS
10
182.4739429999999913
20
-70.7320089999999908
11
182.3722080000000005
21
-70.7907459999999986
0
LINE
8
BLACK
6
CONTINUOUS
10
182.3722080000000005
20
-70.7907459999999986
11
182.2587369999999964
21
-70.8211500000000029
0
LINE
8
BLACK
6
CONTINUOUS
10
182.2587369999999964
20
-70.8211500000000029
11
182.1412629999999808
21
-70.8211500000000029
0
LINE
8
BLACK
6
CONTINUOUS
10
182.1412629999999808
20
-70.8211500000000029
11
182.0277920000000051
21
-70.7907459999999986
0
LINE
8
BLACK
6
CONTINUOUS
10
182.0277920000000051
20
-70.7907459999999986
11
181.9260569999999859
21
-70.7320089999999908
0
LINE
8
BLACK
6
CONTINUOUS
10
181.9260569999999859
20
-70.7320089999999908
11
181.8429909999999836
21
-70.6489430000000027
0
LINE
8
BLACK
6
CONTINUOUS
10
181.8429909999999836
20
-70.6489430000000027
11
181.7842540000000042
21
-70.5472079999999977
0
LINE
8
BLACK
6
CONTINUOUS
10
181.7842540000000042
20
-70.5472079999999977
11
181.7538499999999999
21
-70.4337369999999936
0
LINE
8
BLACK
6
CONTINUOUS
10
181.7538499999999999
20
-70.4337369999999936
11
181.7538499999999999
21
-70.3162629999999922
0
LINE
8
BLACK
6
CONTINUOUS
10
181.7538499999999999
20
-70.3162629999999922
11
181.7842540000000042
21
-70.2027920000000023
0
LINE
8
BLACK
6
CONTINUOUS
10
181.7842540000000042
20
-70.2027920000000023
11
181.8429909999999836
21
-70.1010569999999973
0
LINE
8
BLACK
6
CONTINUOUS
10
181.8429909999999836
20
-70.1010569999999973
11
181.9260569999999859
21
-70.017990999999995
0
LINE
8
BLACK
6
CONTINUOUS
10
181.9260569999999859
20
-70.017990999999995
11
182.0277920000000051
21
-69.9592540000000014
0
LINE
8
BLACK
6
CONTINUOUS
10
182.0277920000000051
20
-69.9592540000000014
11
182.1412629999999808
21
-69.9288499999999971
0
LINE
8
BLACK
6
CONTINUOUS
10
182.1412629999999808
20
-69.9288499999999971
11
182.2587369999999964
21
-69.9288499999999971
0
LINE
8
BLACK
6
CONTINUOUS
10
182.2587369999999964
20
-69.9288499999999971
11
182.3722080000000005
21
-69.9592540000000014
0
LINE
8
BLACK
6
CONTINUOUS
10
198.3722080000000005
20
-69.9592540000000014
11
198.4739429999999913
21
-70.017990999999995
0
LINE
8
BLACK
6
CONTINUOUS
10
198.4739429999999913
20
-70.017990999999995
11
198.5570089999999936
21
-70.1010569999999973
0
LINE
8
BLACK
6
CONTINUOUS
10
198.5570089999999936
20
-70.1010569999999973
11
198.6157460000000015
21
-70.2027920000000023
0
LINE
8
BLACK
6
CONTINUOUS
10
198.6157460000000015
20
-70.2027920000000023
11
198.6461499999999774
21
-70.3162629999999922
0
LINE
8
BLACK
6
CONTINUOUS
10
198.6461499999999774
20
-70.3162629999999922
11
198.6461499999999774
21
-70.4337369999999936
0
LINE
8
BLACK
6
CONTINUOUS
10
198.6461499999999774
20
-70.4337369999999936
11
198.6157460000000015
21
-70.5472079999999977
0
LINE
8
BLACK
6
CONTINUOUS
10
198.6157460000000015
20
-70.5472079999999977
11
198.5570089999999936
21
-70.6489430000000027
0
LINE
8
BLACK
6
CONTINUOUS
10
198.5570089999999936
20
-70.6489430000000027
11
198.4739429999999913
21
-70.7320089999999908
0
LINE
8
BLACK
6
CONTINUOUS
10
198.4739429999999913
20
-70.7320089999999908
11
198.3722080000000005
21
-70.7907459999999986
0
LINE
8
BLACK
6
CONTINUOUS
10
198.3722080000000005
20
-70.7907459999999986
11
198.2587369999999964
21
-70.8211500000000029
0
LINE
8
BLACK
6
CONTINUOUS
10
198.2587369999999964
20
-70.8211500000000029
11
198.1412629999999808
21
-70.8211500000000029
0
LINE
8
BLACK
6
CONTINUOUS
10
198.1412629999999808
20
-70.8211500000000029
11
198.0277920000000051
21
-70.7907459999999986
0
LINE
8
BLACK
6
CONTINUOUS
10
198.0277920000000051
20
-70.7907459999999986
11
197.9260569999999859
21
-70.7320089999999908
0
LINE
8
BLACK
6
CONTINUOUS
10
197.9260569999999859
20
-70.7320089999999908
11
197.8429909999999836
21
-70.6489430000000027
0
LINE
8
BLACK
6
CONTINUOUS
10
197.8429909999999836
20
-70.6489430000000027
11
197.7842540000000042
21
-70.5472079999999977
0
LINE
8
BLACK
6
CONTINUOUS
10
197.7842540000000042
20
-70.5472079999999977
11
197.7538499999999999
21
-70.4337369999999936
0
LINE
8
BLACK
6
CONTINUOUS
10
197.7538499999999999
20
-70.4337369999999936
11
197.7538499999999999
21
-70.3162629999999922
0
LINE
8
BLACK
6
CONTINUOUS
10
197.7538499999999999
20
-70.3162629999999922
11
197.7842540000000042
21
-70.2027920000000023
0
LINE
8
BLACK
6
CONTINUOUS
10
197.7842540000000042
20
-70.2027920000000023
11
197.8429909999999836
21
-70.1010569999999973
0
LINE
8
BLACK
6
CONTINUOUS
10
197.8429909999999836
20
-70.1010569999999973
11
197.9260569999999859
21
-70.017990999999995
0
LINE
8
BLACK
6
CONTINUOUS
10
197.9260569999999859
20
-70.017990999999995
11
198.0277920000000051
21
-69.9592540000000014
0
LINE
8
BLACK
6
CONTINUOUS
10
198.0277920000000051
20
-69.9592540000000014
11
198.1412629999999808
21
-69.9288499999999971
0
LINE
8
BLACK
6
CONTINUOUS
10
198.1412629999999808
20
-69.9288499999999971
11
198.2587369999999964
21
-69.9288499999999971
0
LINE
8
BLACK
6
CONTINUOUS
10
198.2587369999999964
20
-69.9288499999999971
11
198.3722080000000005
21
-69.9592540000000014
0
LINE
8
BLACK
6
CONTINUOUS
10
215.3722080000000005
20
-69.9592540000000014
11
215.4739429999999913
21
-70.017990999999995
0
LINE
8
BLACK
6
CONTINUOUS
10
215.4739429999999913
20
-70.017990999999995
11
215.5570089999999936
21
-70.1010569999999973
0
LINE
8
BLACK
6
CONTINUOUS
10
215.5570089999999936
20
-70.1010569999999973
11
215.6157460000000015
21
-70.2027920000000023
0
LINE
8
BLACK
6
CONTINUOUS
10
215.6157460000000015
20
-70.2027920000000023
11
215.6461499999999774
21
-70.3162629999999922
0
LINE
8
BLACK
6
CONTINUOUS
10
215.6461499999999774
20
-70.3162629999999922
11
215.6461499999999774
21
-70.4337369999999936
0
LINE
8
BLACK
6
CONTINUOUS
10
215.6461499999999774
20
-70.4337369999999936
11
215.6157460000000015
21
-70.5472079999999977
0
LINE
8
BLACK
6
CONTINUOUS
10
215.6157460000000015
20
-70.5472079999999977
11
215.5570089999999936
21
-70.6489430000000027
0
LINE
8
BLACK
6
CONTINUOUS
10
215.5570089999999936
20
-70.6489430000000027
11
215.4739429999999913
21
-70.7320089999999908
0
LINE
8
BLACK
6
CONTINUOUS
10
215.4739429999999913
20
-70.7320089999999908
11
215.3722080000000005
21
-70.7907459999999986
0
LINE
8
BLACK
6
CONTINUOUS
10
215.3722080000000005
20
-70.7907459999999986
11
215.2587369999999964
21
-70.8211500000000029
0
LINE
8
BLACK
6
CONTINUOUS
10
215.2587369999999964
20
-70.8211500000000029
11
215.1412629999999808
21
-70.8211500000000029
0
LINE
8
BLACK
6
CONTINUOUS
10
215.1412629999999808
20
-70.8211500000000029
11
215.0277919999999767
21
-70.7907459999999986
0
LINE
8
BLACK
6
CONTINUOUS
10
215.0277919999999767
20
-70.7907459999999986
11
214.9260569999999859
21
-70.7320089999999908
0
LINE
8
BLACK
6
CONTINUOUS
10
214.9260569999999859
20
-70.7320089999999908
11
214.8429909999999836
21
-70.6489430000000027
0
LINE
8
BLACK
6
CONTINUOUS
10
214.8429909999999836
20
-70.6489430000000027
11
214.7842540000000042
21
-70.5472079999999977
0
LINE
8
BLACK
6
CONTINUOUS
10
214.7842540000000042
20
-70.5472079999999977
11
214.7538499999999999
21
-70.4337369999999936
0
LINE
8
BLACK
6
CONTINUOUS
10
214.7538499999999999
20
-70.4337369999999936
11
214.7538499999999999
21
-70.3162629999999922
0
LINE
8
BLACK
6
CONTINUOUS
10
214.7538499999999999
20
-70.3162629999999922
11
214.7842540000000042
21
-70.2027920000000023
0
LINE
8
BLACK
6
CONTINUOUS
10
214.7842540000000042
20
-70.2027920000000023
11
214.8429909999999836
21
-70.1010569999999973
0
LINE
8
BLACK
6
CONTINUOUS
10
214.8429909999999836
20
-70.1010569999999973
11
214.9260569999999859
21
-70.017990999999995
0
LINE
8
BLACK
6
CONTINUOUS
10
214.9260569999999859
20
-70.017990999999995
11
215.0277919999999767
21
-69.9592540000000014
0
LINE
8
BLACK
6
CONTINUOUS
10
215.0277919999999767
20
-69.9592540000000014
11
215.1412629999999808
21
-69.9288499999999971
0
LINE
8
BLACK
6
CONTINUOUS
10
215.1412629999999808
20
-69.9288499999999971
11
215.2587369999999964
21
-69.9288499999999971
0
LINE
8
BLACK
6
CONTINUOUS
10
215.2587369999999964
20
-69.9288499999999971
11
215.3722080000000005
21
-69.9592540000000014
0
LINE
8
BLACK
6
CONTINUOUS
10
231.3722080000000005
20
-69.9592540000000014
11
231.4739429999999913
21
-70.017990999999995
0
LINE
8
BLACK
6
CONTINUOUS
10
231.4739429999999913
20
-70.017990999999995
11
231.5570089999999936
21
-70.1010569999999973
0
LINE
8
BLACK
6
CONTINUOUS
10
231.5570089999999936
20
-70.1010569999999973
11
231.6157460000000015
21
-70.2027920000000023
0
LINE
8
BLACK
6
CONTINUOUS
10
231.6157460000000015
20
-70.2027920000000023
11
231.6461499999999774
21
-70.3162629999999922
0
LINE
8
BLACK
6
CONTINUOUS
10
231.6461499999999774
20
-70.3162629999999922
11
231.6461499999999774
21
-70.4337369999999936
0
LINE
8
BLACK
6
CONTINUOUS
10
231.6461499999999774
20
-70.4337369999999936
11
231.6157460000000015
21
-70.5472079999999977
0
LINE
8
BLACK
6
CONTINUOUS
10
231.6157460000000015
20
-70.5472079999999977
11
231.5570089999999936
21
-70.6489430000000027
0
LINE
8
BLACK
6
CONTINUOUS
10
231.5570089999999936
20
-70.6489430000000027
11
231.4739429999999913
21
-70.7320089999999908
0
LINE
8
BLACK
6
CONTINUOUS
10
231.4739429999999913
20
-70.7320089999999908
11
231.3722080000000005
21
-70.7907459999999986
0
LINE
8
BLACK
6
CONTINUOUS
10
231.3722080000000005
20
-70.7907459999999986
11
231.2587369999999964
21
-70.8211500000000029
0
LINE
8
BLACK
6
CONTINUOUS
10
231.2587369999999964
20
-70.8211500000000029
11
231.1412629999999808
21
-70.8211500000000029
0
LINE
8
BLACK
6
CONTINUOUS
10
231.1412629999999808
20
-70.8211500000000029
11
231.0277919999999767
21
-70.7907459999999986
0
LINE
8
BLACK
6
CONTINUOUS
10
231.0277919999999767
20
-70.7907459999999986
11
230.9260569999999859
21
-70.7320089999999908
0
LINE
8
BLACK
6
CONTINUOUS
10
230.9260569999999859
20
-70.7320089999999908
11
230.8429909999999836
21
-70.6489430000000027
0
LINE
8
BLACK
6
CONTINUOUS
10
230.8429909999999836
20
-70.6489430000000027
11
230.7842539999999758
21
-70.5472079999999977
0
LINE
8
BLACK
6
CONTINUOUS
10
230.7842539999999758
20
-70.5472079999999977
11
230.7538499999999999
21
-70.4337369999999936
0
LINE
8
BLACK
6
CONTINUOUS
10
230.7538499999999999
20
-70.4337369999999936
11
230.7538499999999999
21
-70.3162629999999922
0
LINE
8
BLACK
6
CONTINUOUS
10
230.7538499999999999
20
-70.3162629999999922
11
230.7842539999999758
21
-70.2027920000000023
0
LINE
8
BLACK
6
CONTINUOUS
10
230.7842539999999758
20
-70.2027920000000023
11
230.8429909999999836
21
-70.1010569999999973
0
LINE
8
BLACK
6
CONTINUOUS
10
230.8429909999999836
20
-70.1010569999999973
11
230.9260569999999859
21
-70.017990999999995
0
LINE
8
BLACK
6
CONTINUOUS
10
230.9260569999999859
20
-70.017990999999995
11
231.0277919999999767
21
-69.9592540000000014
0
LINE
8
BLACK
6
CONTINUOUS
10
231.0277919999999767
20
-69.9592540000000014
11
231.1412629999999808
21
-69.9288499999999971
0
LINE
8
BLACK
6
CONTINUOUS
10
231.1412629999999808
20
-69.9288499999999971
11
231.2587369999999964
21
-69.9288499999999971
0
LINE
8
BLACK
6
CONTINUOUS
10
231.2587369999999964
20
-69.9288499999999971
11
231.3722080000000005
21
-69.9592540000000014
0
LINE
8
BLACK
6
CONTINUOUS
10
182.3722080000000005
20
-67.2092540000000014
11
182.4739429999999913
21
-67.267990999999995
0
LINE
8
BLACK
6
CONTINUOUS
10
182.4739429999999913
20
-67.267990999999995
11
182.5570089999999936
21
-67.3510569999999973
0
LINE
8
BLACK
6
CONTINUOUS
10
182.5570089999999936
20
-67.3510569999999973
11
182.6157460000000015
21
-67.4527920000000023
0
LINE
8
BLACK
6
CONTINUOUS
10
182.6157460000000015
20
-67.4527920000000023
11
182.6461500000000058
21
-67.5662629999999922
0
LINE
8
BLACK
6
CONTINUOUS
10
182.6461500000000058
20
-67.5662629999999922
11
182.6461500000000058
21
-67.6837369999999936
0
LINE
8
BLACK
6
CONTINUOUS
10
182.6461500000000058
20
-67.6837369999999936
11
182.6157460000000015
21
-67.7972079999999977
0
LINE
8
BLACK
6
CONTINUOUS
10
182.6157460000000015
20
-67.7972079999999977
11
182.5570089999999936
21
-67.8989430000000027
0
LINE
8
BLACK
6
CONTINUOUS
10
182.5570089999999936
20
-67.8989430000000027
11
182.4739429999999913
21
-67.9820089999999908
0
LINE
8
BLACK
6
CONTINUOUS
10
182.4739429999999913
20
-67.9820089999999908
11
182.3722080000000005
21
-68.0407459999999986
0
LINE
8
BLACK
6
CONTINUOUS
10
182.3722080000000005
20
-68.0407459999999986
11
182.2587369999999964
21
-68.0711500000000029
0
LINE
8
BLACK
6
CONTINUOUS
10
182.2587369999999964
20
-68.0711500000000029
11
182.1412629999999808
21
-68.0711500000000029
0
LINE
8
BLACK
6
CONTINUOUS
10
182.1412629999999808
20
-68.0711500000000029
11
182.0277920000000051
21
-68.0407459999999986
0
LINE
8
BLACK
6
CONTINUOUS
10
182.0277920000000051
20
-68.0407459999999986
11
181.9260569999999859
21
-67.9820089999999908
0
LINE
8
BLACK
6
CONTINUOUS
10
181.9260569999999859
20
-67.9820089999999908
11
181.8429909999999836
21
-67.8989430000000027
0
LINE
8
BLACK
6
CONTINUOUS
10
181.8429909999999836
20
-67.8989430000000027
11
181.7842540000000042
21
-67.7972079999999977
0
LINE
8
BLACK
6
CONTINUOUS
10
181.7842540000000042
20
-67.7972079999999977
11
181.7538499999999999
21
-67.6837369999999936
0
LINE
8
BLACK
6
CONTINUOUS
10
181.7538499999999999
20
-67.6837369999999936
11
181.7538499999999999
21
-67.5662629999999922
0
LINE
8
BLACK
6
CONTINUOUS
10
181.7538499999999999
20
-67.5662629999999922
11
181.7842540000000042
21
-67.4527920000000023
0
LINE
8
BLACK
6
CONTINUOUS
10
181.7842540000000042
20
-67.4527920000000023
11
181.8429909999999836
21
-67.3510569999999973
0
LINE
8
BLACK
6
CONTINUOUS
10
181.8429909999999836
20
-67.3510569999999973
11
181.9260569999999859
21
-67.267990999999995
0
LINE
8
BLACK
6
CONTINUOUS
10
181.9260569999999859
20
-67.267990999999995
11
182.0277920000000051
21
-67.2092540000000014
0
LINE
8
BLACK
6
CONTINUOUS
10
182.0277920000000051
20
-67.2092540000000014
11
182.1412629999999808
21
-67.1788499999999971
0
LINE
8
BLACK
6
CONTINUOUS
10
182.1412629999999808
20
-67.1788499999999971
11
182.2587369999999964
21
-67.1788499999999971
0
LINE
8
BLACK
6
CONTINUOUS
10
182.2587369999999964
20
-67.1788499999999971
11
182.3722080000000005
21
-67.2092540000000014
0
LINE
8
BLACK
6
CONTINUOUS
10
198.3722080000000005
20
-67.2092540000000014
11
198.4739429999999913
21
-67.267990999999995
0
LINE
8
BLACK
6
CONTINUOUS
10
198.4739429999999913
20
-67.267990999999995
11
198.5570089999999936
21
-67.3510569999999973
0
LINE
8
BLACK
6
CONTINUOUS
10
198.5570089999999936
20
-67.3510569999999973
11
198.6157460000000015
21
-67.4527920000000023
0
LINE
8
BLACK
6
CONTINUOUS
10
198.6157460000000015
20
-67.4527920000000023
11
198.6461499999999774
21
-67.5662629999999922
0
LINE
8
BLACK
6
CONTINUOUS
10
198.6461499999999774
20
-67.5662629999999922
11
198.6461499999999774
21
-67.6837369999999936
0
LINE
8
BLACK
6
CONTINUOUS
10
198.6461499999999774
20
-67.6837369999999936
11
198.6157460000000015
21
-67.7972079999999977
0
LINE
8
BLACK
6
CONTINUOUS
10
198.6157460000000015
20
-67.7972079999999977
11
198.5570089999999936
21
-67.8989430000000027
0
LINE
8
BLACK
6
CONTINUOUS
10
198.5570089999999936
20
-67.8989430000000027
11
198.4739429999999913
21
-67.9820089999999908
0
LINE
8
BLACK
6
CONTINUOUS
10
198.4739429999999913
20
-67.9820089999999908
11
198.3722080000000005
21
-68.0407459999999986
0
LINE
8
BLACK
6
CONTINUOUS
10
198.3722080000000005
20
-68.0407459999999986
11
198.2587369999999964
21
-68.0711500000000029
0
LINE
8
BLACK
6
CONTINUOUS
10
198.2587369999999964
20
-68.0711500000000029
11
198.1412629999999808
21
-68.0711500000000029
0
LINE
8
BLACK
6
CONTINUOUS
10
198.1412629999999808
20
-68.0711500000000029
11
198.0277920000000051
21
-68.0407459999999986
0
LINE
8
BLACK
6
CONTINUOUS
10
198.0277920000000051
20
-68.0407459999999986
11
197.9260569999999859
21
-67.9820089999999908
0
LINE
8
BLACK
6
CONTINUOUS
10
197.9260569999999859
20
-67.9820089999999908
11
197.8429909999999836
21
-67.8989430000000027
0
LINE
8
BLACK
6
CONTINUOUS
10
197.8429909999999836
20
-67.8989430000000027
11
197.7842540000000042
21
-67.7972079999999977
0
LINE
8
BLACK
6
CONTINUOUS
10
197.7842540000000042
20
-67.7972079999999977
11
197.7538499999999999
21
-67.6837369999999936
0
LINE
8
BLACK
6
CONTINUOUS
10
197.7538499999999999
20
-67.6837369999999936
11
197.7538499999999999
21
-67.5662629999999922
0
LINE
8
BLACK
6
CONTINUOUS
10
197.7538499999999999
20
-67.5662629999999922
11
197.7842540000000042
21
-67.4527920000000023
0
LINE
8
BLACK
6
CONTINUOUS
10
197.7842540000000042
20
-67.4527920000000023
11
197.8429909999999836
21
-67.3510569999999973
0
LINE
8
BLACK
6
CONTINUOUS
10
197.8429909999999836
20
-67.3510569999999973
11
197.9260569999999859
21
-67.267990999999995
0
LINE
8
BLACK
6
CONTINUOUS
10
197.9260569999999859
20
-67.267990999999995
11
198.0277920000000051
21
-67.2092540000000014
0
LINE
8
BLACK
6
CONTINUOUS
10
198.0277920000000051
20
-67.2092540000000014
11
198.1412629999999808
21
-67.1788499999999971
0
LINE
8
BLACK
6
CONTINUOUS
10
198.1412629999999808
20
-67.1788499999999971
11
198.2587369999999964
21
-67.1788499999999971
0
LINE
8
BLACK
6
CONTINUOUS
10
198.2587369999999964
20
-67.1788499999999971
11
198.3722080000000005
21
-67.2092540000000014
0
LINE
8
BLACK
6
CONTINUOUS
10
215.3722080000000005
20
-67.2092540000000014
11
215.4739429999999913
21
-67.267990999999995
0
LINE
8
BLACK
6
CONTINUOUS
10
215.4739429999999913
20
-67.267990999999995
11
215.5570089999999936
21
-67.3510569999999973
0
LINE
8
BLACK
6
CONTINUOUS
10
215.5570089999999936
20
-67.3510569999999973
11
215.6157460000000015
21
-67.4527920000000023
0
LINE
8
BLACK
6
CONTINUOUS
10
215.6157460000000015
20
-67.4527920000000023
11
215.6461499999999774
21
-67.5662629999999922
0
LINE
8
BLACK
6
CONTINUOUS
10
215.6461499999999774
20
-67.5662629999999922
11
215.6461499999999774
21
-67.6837369999999936
0
LINE
8
BLACK
6
CONTINUOUS
10
215.6461499999999774
20
-67.6837369999999936
11
215.6157460000000015
21
-67.7972079999999977
0
LINE
8
BLACK
6
CONTINUOUS
10
215.6157460000000015
20
-67.7972079999999977
11
215.5570089999999936
21
-67.8989430000000027
0
LINE
8
BLACK
6
CONTINUOUS
10
215.5570089999999936
20
-67.8989430000000027
11
215.4739429999999913
21
-67.9820089999999908
0
LINE
8
BLACK
6
CONTINUOUS
10
215.4739429999999913
20
-67.9820089999999908
11
215.3722080000000005
21
-68.0407459999999986
0
LINE
8
BLACK
6
CONTINUOUS
10
215.3722080000000005
20
-68.0407459999999986
11
215.2587369999999964
21
-68.0711500000000029
0
LINE
8
BLACK
6
CONTINUOUS
10
215.2587369999999964
20
-68.0711500000000029
11
215.1412629999999808
21
-68.0711500000000029
0
LINE
8
BLACK
6
CONTINUOUS
10
215.1412629999999808
20
-68.0711500000000029
11
215.0277919999999767
21
-68.0407459999999986
0
LINE
8
BLACK
6
CONTINUOUS
10
215.0277919999999767
20
-68.0407459999999986
11
214.9260569999999859
21
-67.9820089999999908
0
LINE
8
BLACK
6
CONTINUOUS
10
214.9260569999999859
20
-67.9820089999999908
11
214.8429909999999836
21
-67.8989430000000027
0
LINE
8
BLACK
6
CONTINUOUS
10
214.8429909999999836
20
-67.8989430000000027
11
214.7842540000000042
21
-67.7972079999999977
0
LINE
8
BLACK
6
CONTINUOUS
10
214.7842540000000042
20
-67.7972079999999977
11
214.7538499999999999
21
-67.6837369999999936
0
LINE
8
BLACK
6
CONTINUOUS
10
214.7538499999999999
20
-67.6837369999999936
11
214.7538499999999999
21
-67.5662629999999922
0
LINE
8
BLACK
6
CONTINUOUS
10
214.7538499999999999
20
-67.5662629999999922
11
214.7842540000000042
21
-67.4527920000000023
0
LINE
8
BLACK
6
CONTINUOUS
10
214.7842540000000042
20
-67.4527920000000023
11
214.8429909999999836
21
-67.3510569999999973
0
LINE
8
BLACK
6
CONTINUOUS
10
214.8429909999999836
20
-67.3510569999999973
11
214.9260569999999859
21
-67.267990999999995
0
LINE
8
BLACK
6
CONTINUOUS
10
214.9260569999999859
20
-67.267990999999995
11
215.0277919999999767
21
-67.2092540000000014
0
LINE
8
BLACK
6
CONTINUOUS
10
215.0277919999999767
20
-67.2092540000000014
11
215.1412629999999808
21
-67.1788499999999971
0
LINE
8
BLACK
6
CONTINUOUS
10
215.1412629999999808
20
-67.1788499999999971
11
215.2587369999999964
21
-67.1788499999999971
0
LINE
8
BLACK
6
CONTINUOUS
10
215.2587369999999964
20
-67.1788499999999971
11
215.3722080000000005
21
-67.2092540000000014
0
LINE
8
BLACK
6
CONTINUOUS
10
231.3722080000000005
20
-67.2092540000000014
11
231.4739429999999913
21
-67.267990999999995
0
LINE
8
BLACK
6
CONTINUOUS
10
231.4739429999999913
20
-67.267990999999995
11
231.5570089999999936
21
-67.3510569999999973
0
LINE
8
BLACK
6
CONTINUOUS
10
231.5570089999999936
20
-67.3510569999999973
11
231.6157460000000015
21
-67.4527920000000023
0
LINE
8
BLACK
6
CONTINUOUS
10
231.6157460000000015
20
-67.4527920000000023
11
231.6461499999999774
21
-67.5662629999999922
0
LINE
8
BLACK
6
CONTINUOUS
10
231.6461499999999774
20
-67.5662629999999922
11
231.6461499999999774
21
-67.6837369999999936
0
LINE
8
BLACK
6
CONTINUOUS
10
231.6461499999999774
20
-67.6837369999999936
11
231.6157460000000015
21
-67.7972079999999977
0
LINE
8
BLACK
6
CONTINUOUS
10
231.6157460000000015
20
-67.7972079999999977
11
231.5570089999999936
21
-67.8989430000000027
0
LINE
8
BLACK
6
CONTINUOUS
10
231.5570089999999936
20
-67.8989430000000027
11
231.4739429999999913
21
-67.9820089999999908
0
LINE
8
BLACK
6
CONTINUOUS
10
231.4739429999999913
20
-67.9820089999999908
11
231.3722080000000005
21
-68.0407459999999986
0
LINE
8
BLACK
6
CONTINUOUS
10
231.3722080000000005
20
-68.0407459999999986
11
231.2587369999999964
21
-68.0711500000000029
0
LINE
8
BLACK
6
CONTINUOUS
10
231.2587369999999964
20
-68.0711500000000029
11
231.1412629999999808
21
-68.0711500000000029
0
LINE
8
BLACK
6
CONTINUOUS
10
231.1412629999999808
20
-68.0711500000000029
11
231.0277919999999767
21
-68.0407459999999986
0
LINE
8
BLACK
6
CONTINUOUS
10
231.0277919999999767
20
-68.0407459999999986
11
230.9260569999999859
21
-67.9820089999999908
0
LINE
8
BLACK
6
CONTINUOUS
10
230.9260569999999859
20
-67.9820089999999908
11
230.8429909999999836
21
-67.8989430000000027
0
LINE
8
BLACK
6
CONTINUOUS
10
230.8429909999999836
20
-67.8989430000000027
11
230.7842539999999758
21
-67.7972079999999977
0
LINE
8
BLACK
6
CONTINUOUS
10
230.7842539999999758
20
-67.7972079999999977
11
230.7538499999999999
21
-67.6837369999999936
0
LINE
8
BLACK
6
CONTINUOUS
10
230.7538499999999999
20
-67.6837369999999936
11
230.7538499999999999
21
-67.5662629999999922
0
LINE
8
BLACK
6
CONTINUOUS
10
230.7538499999999999
20
-67.5662629999999922
11
230.7842539999999758
21
-67.4527920000000023
0
LINE
8
BLACK
6
CONTINUOUS
10
230.7842539999999758
20
-67.4527920000000023
11
230.8429909999999836
21
-67.3510569999999973
0
LINE
8
BLACK
6
CONTINUOUS
10
230.8429909999999836
20
-67.3510569999999973
11
230.9260569999999859
21
-67.267990999999995
0
LINE
8
BLACK
6
CONTINUOUS
10
230.9260569999999859
20
-67.267990999999995
11
231.0277919999999767
21
-67.2092540000000014
0
LINE
8
BLACK
6
CONTINUOUS
10
231.0277919999999767
20
-67.2092540000000014
11
231.1412629999999808
21
-67.1788499999999971
0
LINE
8
BLACK
6
CONTINUOUS
10
231.1412629999999808
20
-67.1788499999999971
11
231.2587369999999964
21
-67.1788499999999971
0
LINE
8
BLACK
6
CONTINUOUS
10
231.2587369999999964
20
-67.1788499999999971
11
231.3722080000000005
21
-67.2092540000000014
  0
ENDSEC
  0
EOF
