  0
SECTION
  2
HEADER
  9
$ANGBASE
  50
0.0
  9
$ANGDIR
  70
1
  9
$MEASUREMENT
  70
1
  0
ENDSEC
  0
SECTION
  2
TABLES
  0
TABLE
  2
LTYPE
  70
4
  0
LTYPE
  5
40F
  2
CONTINUOUS
  70
0
  3
Solid line
  72
65
  73
0
  40
0.0
  0
LTYPE
  5
410
  2
DASHDOT
 70
0
  3
Dash Dot ____ _ ____ _
 72
65
 73
4
 40
2.0
 49
1.25
 49
-0.25
 49
0.25
 49
-0.25
  0
LTYPE
  5
411
  2
DASHED
 70
0
  3
Dashed __ __ __ __ __
 72
65
 73
2
 40
0.75
 49
0.5
 49
-0.25
  0
LTYPE
  5
43B
  2
DOTTED
 70
0
  3
Dotted .  .  .  .
 72
65
 73
2
 40
0.2
 49
0.0
 49
-0.2
  0
ENDTAB
  0
TABLE
  2
STYLE
  70
4
  0
STYLE
  2
KICAD
  70
0
  40
0
  41
1
  42
1
  50
0
  71
0
  3
isocp.shx
  0
STYLE
  2
KICADB
  70
0
  40
0
  41
1
  42
1
  50
0
  71
0
  3
isocp.shx
  0
STYLE
  2
KICADI
  70
0
  40
0
  41
1
  42
1
  50
15
  71
0
  3
isocp.shx
  0
STYLE
  2
KICADBI
  70
0
  40
0
  41
1
  42
1
  50
15
  71
0
  3
isocp.shx
  0
ENDTAB
  0
TABLE
  2
LAYER
  70
1
  0
LAYER
  2
BLACK
  70
0
  62
7
  6
CONTINUOUS
  0
ENDTAB
  0
ENDSEC
  0
SECTION
  2
ENTITIES
0
LINE
8
BLACK
6
CONTINUOUS
10
207.2456709999999873
20
-99.2440299999999951
11
207.3267769999999928
21
-99.298222999999993
0
LINE
8
BLACK
6
CONTINUOUS
10
207.3267769999999928
20
-99.298222999999993
11
207.3809699999999907
21
-99.3793289999999985
0
LINE
8
BLACK
6
CONTINUOUS
10
207.3809699999999907
20
-99.3793289999999985
11
207.3999999999999773
21
-99.4749999999999943
0
LINE
8
BLACK
6
CONTINUOUS
10
207.3999999999999773
20
-99.4749999999999943
11
207.3999999999999773
21
-99.9749999999999943
0
LINE
8
BLACK
6
CONTINUOUS
10
207.3999999999999773
20
-99.9749999999999943
11
207.3809699999999907
21
-100.0706709999999902
0
LINE
8
BLACK
6
CONTINUOUS
10
207.3809699999999907
20
-100.0706709999999902
11
207.3267769999999928
21
-100.1517769999999956
0
LINE
8
BLACK
6
CONTINUOUS
10
207.3267769999999928
20
-100.1517769999999956
11
207.2456709999999873
21
-100.2059699999999935
0
LINE
8
BLACK
6
CONTINUOUS
10
207.2456709999999873
20
-100.2059699999999935
11
207.1499999999999773
21
-100.2249999999999943
0
LINE
8
BLACK
6
CONTINUOUS
10
207.1499999999999773
20
-100.2249999999999943
11
204.9499999999999886
21
-100.2249999999999943
0
LINE
8
BLACK
6
CONTINUOUS
10
204.9499999999999886
20
-100.2249999999999943
11
204.8543289999999786
21
-100.2059699999999935
0
LINE
8
BLACK
6
CONTINUOUS
10
204.8543289999999786
20
-100.2059699999999935
11
204.7732230000000015
21
-100.1517769999999956
0
LINE
8
BLACK
6
CONTINUOUS
10
204.7732230000000015
20
-100.1517769999999956
11
204.7190300000000036
21
-100.0706709999999902
0
LINE
8
BLACK
6
CONTINUOUS
10
204.7190300000000036
20
-100.0706709999999902
11
204.6999999999999886
21
-99.9749999999999943
0
LINE
8
BLACK
6
CONTINUOUS
10
204.6999999999999886
20
-99.9749999999999943
11
204.6999999999999886
21
-99.4749999999999943
0
LINE
8
BLACK
6
CONTINUOUS
10
204.6999999999999886
20
-99.4749999999999943
11
204.7190300000000036
21
-99.3793289999999985
0
LINE
8
BLACK
6
CONTINUOUS
10
204.7190300000000036
20
-99.3793289999999985
11
204.7732230000000015
21
-99.298222999999993
0
LINE
8
BLACK
6
CONTINUOUS
10
204.7732230000000015
20
-99.298222999999993
11
204.8543289999999786
21
-99.2440299999999951
0
LINE
8
BLACK
6
CONTINUOUS
10
204.8543289999999786
20
-99.2440299999999951
11
204.9499999999999886
21
-99.2249999999999943
0
LINE
8
BLACK
6
CONTINUOUS
10
204.9499999999999886
20
-99.2249999999999943
11
207.1499999999999773
21
-99.2249999999999943
0
LINE
8
BLACK
6
CONTINUOUS
10
207.1499999999999773
20
-99.2249999999999943
11
207.2456709999999873
21
-99.2440299999999951
0
LINE
8
BLACK
6
CONTINUOUS
10
210.0074029999999823
20
-97.5864179999999948
11
210.0560659999999871
21
-97.6189339999999959
0
LINE
8
BLACK
6
CONTINUOUS
10
210.0560659999999871
20
-97.6189339999999959
11
210.0885820000000024
21
-97.6675970000000007
0
LINE
8
BLACK
6
CONTINUOUS
10
210.0885820000000024
20
-97.6675970000000007
11
210.0999999999999943
21
-97.7249999999999943
0
LINE
8
BLACK
6
CONTINUOUS
10
210.0999999999999943
20
-97.7249999999999943
11
210.0999999999999943
21
-98.0249999999999915
0
LINE
8
BLACK
6
CONTINUOUS
10
210.0999999999999943
20
-98.0249999999999915
11
210.0885820000000024
21
-98.0824029999999993
0
LINE
8
BLACK
6
CONTINUOUS
10
210.0885820000000024
20
-98.0824029999999993
11
210.0560659999999871
21
-98.1310659999999899
0
LINE
8
BLACK
6
CONTINUOUS
10
210.0560659999999871
20
-98.1310659999999899
11
210.0074029999999823
21
-98.163581999999991
0
LINE
8
BLACK
6
CONTINUOUS
10
210.0074029999999823
20
-98.163581999999991
11
209.9499999999999886
21
-98.1749999999999972
0
LINE
8
BLACK
6
CONTINUOUS
10
209.9499999999999886
20
-98.1749999999999972
11
208.5499999999999829
21
-98.1749999999999972
0
LINE
8
BLACK
6
CONTINUOUS
10
208.5499999999999829
20
-98.1749999999999972
11
208.4925969999999893
21
-98.163581999999991
0
LINE
8
BLACK
6
CONTINUOUS
10
208.4925969999999893
20
-98.163581999999991
11
208.4439339999999845
21
-98.1310659999999899
0
LINE
8
BLACK
6
CONTINUOUS
10
208.4439339999999845
20
-98.1310659999999899
11
208.4114179999999976
21
-98.0824029999999993
0
LINE
8
BLACK
6
CONTINUOUS
10
208.4114179999999976
20
-98.0824029999999993
11
208.3999999999999773
21
-98.0249999999999915
0
LINE
8
BLACK
6
CONTINUOUS
10
208.3999999999999773
20
-98.0249999999999915
11
208.3999999999999773
21
-97.7249999999999943
0
LINE
8
BLACK
6
CONTINUOUS
10
208.3999999999999773
20
-97.7249999999999943
11
208.4114179999999976
21
-97.6675970000000007
0
LINE
8
BLACK
6
CONTINUOUS
10
208.4114179999999976
20
-97.6675970000000007
11
208.4439339999999845
21
-97.6189339999999959
0
LINE
8
BLACK
6
CONTINUOUS
10
208.4439339999999845
20
-97.6189339999999959
11
208.4925969999999893
21
-97.5864179999999948
0
LINE
8
BLACK
6
CONTINUOUS
10
208.4925969999999893
20
-97.5864179999999948
11
208.5499999999999829
21
-97.5749999999999886
0
LINE
8
BLACK
6
CONTINUOUS
10
208.5499999999999829
20
-97.5749999999999886
11
209.9499999999999886
21
-97.5749999999999886
0
LINE
8
BLACK
6
CONTINUOUS
10
209.9499999999999886
20
-97.5749999999999886
11
210.0074029999999823
21
-97.5864179999999948
0
LINE
8
BLACK
6
CONTINUOUS
10
210.0074029999999823
20
-96.3364179999999948
11
210.0560659999999871
21
-96.3689339999999959
0
LINE
8
BLACK
6
CONTINUOUS
10
210.0560659999999871
20
-96.3689339999999959
11
210.0885820000000024
21
-96.4175970000000007
0
LINE
8
BLACK
6
CONTINUOUS
10
210.0885820000000024
20
-96.4175970000000007
11
210.0999999999999943
21
-96.4749999999999943
0
LINE
8
BLACK
6
CONTINUOUS
10
210.0999999999999943
20
-96.4749999999999943
11
210.0999999999999943
21
-96.7749999999999915
0
LINE
8
BLACK
6
CONTINUOUS
10
210.0999999999999943
20
-96.7749999999999915
11
210.0885820000000024
21
-96.8324029999999993
0
LINE
8
BLACK
6
CONTINUOUS
10
210.0885820000000024
20
-96.8324029999999993
11
210.0560659999999871
21
-96.8810659999999899
0
LINE
8
BLACK
6
CONTINUOUS
10
210.0560659999999871
20
-96.8810659999999899
11
210.0074029999999823
21
-96.913581999999991
0
LINE
8
BLACK
6
CONTINUOUS
10
210.0074029999999823
20
-96.913581999999991
11
209.9499999999999886
21
-96.9249999999999972
0
LINE
8
BLACK
6
CONTINUOUS
10
209.9499999999999886
20
-96.9249999999999972
11
208.5499999999999829
21
-96.9249999999999972
0
LINE
8
BLACK
6
CONTINUOUS
10
208.5499999999999829
20
-96.9249999999999972
11
208.4925969999999893
21
-96.913581999999991
0
LINE
8
BLACK
6
CONTINUOUS
10
208.4925969999999893
20
-96.913581999999991
11
208.4439339999999845
21
-96.8810659999999899
0
LINE
8
BLACK
6
CONTINUOUS
10
208.4439339999999845
20
-96.8810659999999899
11
208.4114179999999976
21
-96.8324029999999993
0
LINE
8
BLACK
6
CONTINUOUS
10
208.4114179999999976
20
-96.8324029999999993
11
208.3999999999999773
21
-96.7749999999999915
0
LINE
8
BLACK
6
CONTINUOUS
10
208.3999999999999773
20
-96.7749999999999915
11
208.3999999999999773
21
-96.4749999999999943
0
LINE
8
BLACK
6
CONTINUOUS
10
208.3999999999999773
20
-96.4749999999999943
11
208.4114179999999976
21
-96.4175970000000007
0
LINE
8
BLACK
6
CONTINUOUS
10
208.4114179999999976
20
-96.4175970000000007
11
208.4439339999999845
21
-96.3689339999999959
0
LINE
8
BLACK
6
CONTINUOUS
10
208.4439339999999845
20
-96.3689339999999959
11
208.4925969999999893
21
-96.3364179999999948
0
LINE
8
BLACK
6
CONTINUOUS
10
208.4925969999999893
20
-96.3364179999999948
11
208.5499999999999829
21
-96.3249999999999886
0
LINE
8
BLACK
6
CONTINUOUS
10
208.5499999999999829
20
-96.3249999999999886
11
209.9499999999999886
21
-96.3249999999999886
0
LINE
8
BLACK
6
CONTINUOUS
10
209.9499999999999886
20
-96.3249999999999886
11
210.0074029999999823
21
-96.3364179999999948
0
LINE
8
BLACK
6
CONTINUOUS
10
214.7399999999999807
20
-95.5899999999999892
11
213.3400000000000034
21
-95.5899999999999892
0
LINE
8
BLACK
6
CONTINUOUS
10
213.3400000000000034
20
-95.5899999999999892
11
213.3400000000000034
21
-93.1899999999999977
0
LINE
8
BLACK
6
CONTINUOUS
10
213.3400000000000034
20
-93.1899999999999977
11
214.7399999999999807
21
-93.1899999999999977
0
LINE
8
BLACK
6
CONTINUOUS
10
214.7399999999999807
20
-93.1899999999999977
11
214.7399999999999807
21
-95.5899999999999892
0
LINE
8
BLACK
6
CONTINUOUS
10
217.2800000000000011
20
-95.5899999999999892
11
215.8799999999999955
21
-95.5899999999999892
0
LINE
8
BLACK
6
CONTINUOUS
10
215.8799999999999955
20
-95.5899999999999892
11
215.8799999999999955
21
-93.1899999999999977
0
LINE
8
BLACK
6
CONTINUOUS
10
215.8799999999999955
20
-93.1899999999999977
11
217.2800000000000011
21
-93.1899999999999977
0
LINE
8
BLACK
6
CONTINUOUS
10
217.2800000000000011
20
-93.1899999999999977
11
217.2800000000000011
21
-95.5899999999999892
0
LINE
8
BLACK
6
CONTINUOUS
10
219.8199999999999932
20
-95.5899999999999892
11
218.4199999999999875
21
-95.5899999999999892
0
LINE
8
BLACK
6
CONTINUOUS
10
218.4199999999999875
20
-95.5899999999999892
11
218.4199999999999875
21
-93.1899999999999977
0
LINE
8
BLACK
6
CONTINUOUS
10
218.4199999999999875
20
-93.1899999999999977
11
219.8199999999999932
21
-93.1899999999999977
0
LINE
8
BLACK
6
CONTINUOUS
10
219.8199999999999932
20
-93.1899999999999977
11
219.8199999999999932
21
-95.5899999999999892
0
LINE
8
BLACK
6
CONTINUOUS
10
222.3599999999999852
20
-95.5899999999999892
11
220.9599999999999795
21
-95.5899999999999892
0
LINE
8
BLACK
6
CONTINUOUS
10
220.9599999999999795
20
-95.5899999999999892
11
220.9599999999999795
21
-93.1899999999999977
0
LINE
8
BLACK
6
CONTINUOUS
10
220.9599999999999795
20
-93.1899999999999977
11
222.3599999999999852
21
-93.1899999999999977
0
LINE
8
BLACK
6
CONTINUOUS
10
222.3599999999999852
20
-93.1899999999999977
11
222.3599999999999852
21
-95.5899999999999892
0
LINE
8
BLACK
6
CONTINUOUS
10
224.8999999999999773
20
-95.5899999999999892
11
223.5
21
-95.5899999999999892
0
LINE
8
BLACK
6
CONTINUOUS
10
223.5
20
-95.5899999999999892
11
223.5
21
-93.1899999999999977
0
LINE
8
BLACK
6
CONTINUOUS
10
223.5
20
-93.1899999999999977
11
224.8999999999999773
21
-93.1899999999999977
0
LINE
8
BLACK
6
CONTINUOUS
10
224.8999999999999773
20
-93.1899999999999977
11
224.8999999999999773
21
-95.5899999999999892
0
LINE
8
BLACK
6
CONTINUOUS
10
227.4399999999999977
20
-95.5899999999999892
11
226.039999999999992
21
-95.5899999999999892
0
LINE
8
BLACK
6
CONTINUOUS
10
226.039999999999992
20
-95.5899999999999892
11
226.039999999999992
21
-93.1899999999999977
0
LINE
8
BLACK
6
CONTINUOUS
10
226.039999999999992
20
-93.1899999999999977
11
227.4399999999999977
21
-93.1899999999999977
0
LINE
8
BLACK
6
CONTINUOUS
10
227.4399999999999977
20
-93.1899999999999977
11
227.4399999999999977
21
-95.5899999999999892
0
LINE
8
BLACK
6
CONTINUOUS
10
229.9799999999999898
20
-95.5899999999999892
11
228.5799999999999841
21
-95.5899999999999892
0
LINE
8
BLACK
6
CONTINUOUS
10
228.5799999999999841
20
-95.5899999999999892
11
228.5799999999999841
21
-93.1899999999999977
0
LINE
8
BLACK
6
CONTINUOUS
10
228.5799999999999841
20
-93.1899999999999977
11
229.9799999999999898
21
-93.1899999999999977
0
LINE
8
BLACK
6
CONTINUOUS
10
229.9799999999999898
20
-93.1899999999999977
11
229.9799999999999898
21
-95.5899999999999892
0
LINE
8
BLACK
6
CONTINUOUS
10
232.5199999999999818
20
-95.5899999999999892
11
231.1199999999999761
21
-95.5899999999999892
0
LINE
8
BLACK
6
CONTINUOUS
10
231.1199999999999761
20
-95.5899999999999892
11
231.1199999999999761
21
-93.1899999999999977
0
LINE
8
BLACK
6
CONTINUOUS
10
231.1199999999999761
20
-93.1899999999999977
11
232.5199999999999818
21
-93.1899999999999977
0
LINE
8
BLACK
6
CONTINUOUS
10
232.5199999999999818
20
-93.1899999999999977
11
232.5199999999999818
21
-95.5899999999999892
0
LINE
8
BLACK
6
CONTINUOUS
10
235.0600000000000023
20
-95.5899999999999892
11
233.6599999999999966
21
-95.5899999999999892
0
LINE
8
BLACK
6
CONTINUOUS
10
233.6599999999999966
20
-95.5899999999999892
11
233.6599999999999966
21
-93.1899999999999977
0
LINE
8
BLACK
6
CONTINUOUS
10
233.6599999999999966
20
-93.1899999999999977
11
235.0600000000000023
21
-93.1899999999999977
0
LINE
8
BLACK
6
CONTINUOUS
10
235.0600000000000023
20
-93.1899999999999977
11
235.0600000000000023
21
-95.5899999999999892
0
LINE
8
BLACK
6
CONTINUOUS
10
207.2456709999999873
20
-94.2940299999999922
11
207.3267769999999928
21
-94.3482229999999902
0
LINE
8
BLACK
6
CONTINUOUS
10
207.3267769999999928
20
-94.3482229999999902
11
207.3809699999999907
21
-94.4293289999999956
0
LINE
8
BLACK
6
CONTINUOUS
10
207.3809699999999907
20
-94.4293289999999956
11
207.3999999999999773
21
-94.5249999999999915
0
LINE
8
BLACK
6
CONTINUOUS
10
207.3999999999999773
20
-94.5249999999999915
11
207.3999999999999773
21
-95.0249999999999915
0
LINE
8
BLACK
6
CONTINUOUS
10
207.3999999999999773
20
-95.0249999999999915
11
207.3809699999999907
21
-95.1206710000000015
0
LINE
8
BLACK
6
CONTINUOUS
10
207.3809699999999907
20
-95.1206710000000015
11
207.3267769999999928
21
-95.2017769999999928
0
LINE
8
BLACK
6
CONTINUOUS
10
207.3267769999999928
20
-95.2017769999999928
11
207.2456709999999873
21
-95.2559699999999907
0
LINE
8
BLACK
6
CONTINUOUS
10
207.2456709999999873
20
-95.2559699999999907
11
207.1499999999999773
21
-95.2749999999999915
0
LINE
8
BLACK
6
CONTINUOUS
10
207.1499999999999773
20
-95.2749999999999915
11
204.9499999999999886
21
-95.2749999999999915
0
LINE
8
BLACK
6
CONTINUOUS
10
204.9499999999999886
20
-95.2749999999999915
11
204.8543289999999786
21
-95.2559699999999907
0
LINE
8
BLACK
6
CONTINUOUS
10
204.8543289999999786
20
-95.2559699999999907
11
204.7732230000000015
21
-95.2017769999999928
0
LINE
8
BLACK
6
CONTINUOUS
10
204.7732230000000015
20
-95.2017769999999928
11
204.7190300000000036
21
-95.1206710000000015
0
LINE
8
BLACK
6
CONTINUOUS
10
204.7190300000000036
20
-95.1206710000000015
11
204.6999999999999886
21
-95.0249999999999915
0
LINE
8
BLACK
6
CONTINUOUS
10
204.6999999999999886
20
-95.0249999999999915
11
204.6999999999999886
21
-94.5249999999999915
0
LINE
8
BLACK
6
CONTINUOUS
10
204.6999999999999886
20
-94.5249999999999915
11
204.7190300000000036
21
-94.4293289999999956
0
LINE
8
BLACK
6
CONTINUOUS
10
204.7190300000000036
20
-94.4293289999999956
11
204.7732230000000015
21
-94.3482229999999902
0
LINE
8
BLACK
6
CONTINUOUS
10
204.7732230000000015
20
-94.3482229999999902
11
204.8543289999999786
21
-94.2940299999999922
0
LINE
8
BLACK
6
CONTINUOUS
10
204.8543289999999786
20
-94.2940299999999922
11
204.9499999999999886
21
-94.2749999999999915
0
LINE
8
BLACK
6
CONTINUOUS
10
204.9499999999999886
20
-94.2749999999999915
11
207.1499999999999773
21
-94.2749999999999915
0
LINE
8
BLACK
6
CONTINUOUS
10
207.1499999999999773
20
-94.2749999999999915
11
207.2456709999999873
21
-94.2940299999999922
0
LINE
8
BLACK
6
CONTINUOUS
10
181.6949999999999932
20
-94.894999999999996
11
179.1850000000000023
21
-94.894999999999996
0
LINE
8
BLACK
6
CONTINUOUS
10
179.1850000000000023
20
-94.894999999999996
11
179.1850000000000023
21
-93.894999999999996
0
LINE
8
BLACK
6
CONTINUOUS
10
179.1850000000000023
20
-93.894999999999996
11
181.6949999999999932
21
-93.894999999999996
0
LINE
8
BLACK
6
CONTINUOUS
10
181.6949999999999932
20
-93.894999999999996
11
181.6949999999999932
21
-94.894999999999996
0
LINE
8
BLACK
6
CONTINUOUS
10
178.1518439999999828
20
-92.9282690000000002
11
178.2297059999999931
21
-92.9802940000000007
0
LINE
8
BLACK
6
CONTINUOUS
10
178.2297059999999931
20
-92.9802940000000007
11
178.2817309999999793
21
-93.0581559999999968
0
LINE
8
BLACK
6
CONTINUOUS
10
178.2817309999999793
20
-93.0581559999999968
11
178.2999999999999829
21
-93.1499999999999915
0
LINE
8
BLACK
6
CONTINUOUS
10
178.2999999999999829
20
-93.1499999999999915
11
178.2999999999999829
21
-93.8699999999999903
0
LINE
8
BLACK
6
CONTINUOUS
10
178.2999999999999829
20
-93.8699999999999903
11
178.2817309999999793
21
-93.9618439999999993
0
LINE
8
BLACK
6
CONTINUOUS
10
178.2817309999999793
20
-93.9618439999999993
11
178.2297059999999931
21
-94.0397059999999954
0
LINE
8
BLACK
6
CONTINUOUS
10
178.2297059999999931
20
-94.0397059999999954
11
178.1518439999999828
21
-94.0917309999999958
0
LINE
8
BLACK
6
CONTINUOUS
10
178.1518439999999828
20
-94.0917309999999958
11
178.0600000000000023
21
-94.1099999999999994
0
LINE
8
BLACK
6
CONTINUOUS
10
178.0600000000000023
20
-94.1099999999999994
11
176.039999999999992
21
-94.1099999999999994
0
LINE
8
BLACK
6
CONTINUOUS
10
176.039999999999992
20
-94.1099999999999994
11
175.9481559999999831
21
-94.0917309999999958
0
LINE
8
BLACK
6
CONTINUOUS
10
175.9481559999999831
20
-94.0917309999999958
11
175.8702940000000012
21
-94.0397059999999954
0
LINE
8
BLACK
6
CONTINUOUS
10
175.8702940000000012
20
-94.0397059999999954
11
175.8182689999999866
21
-93.9618439999999993
0
LINE
8
BLACK
6
CONTINUOUS
10
175.8182689999999866
20
-93.9618439999999993
11
175.7999999999999829
21
-93.8699999999999903
0
LINE
8
BLACK
6
CONTINUOUS
10
175.7999999999999829
20
-93.8699999999999903
11
175.7999999999999829
21
-93.1499999999999915
0
LINE
8
BLACK
6
CONTINUOUS
10
175.7999999999999829
20
-93.1499999999999915
11
175.8182689999999866
21
-93.0581559999999968
0
LINE
8
BLACK
6
CONTINUOUS
10
175.8182689999999866
20
-93.0581559999999968
11
175.8702940000000012
21
-92.9802940000000007
0
LINE
8
BLACK
6
CONTINUOUS
10
175.8702940000000012
20
-92.9802940000000007
11
175.9481559999999831
21
-92.9282690000000002
0
LINE
8
BLACK
6
CONTINUOUS
10
175.9481559999999831
20
-92.9282690000000002
11
176.039999999999992
21
-92.9099999999999966
0
LINE
8
BLACK
6
CONTINUOUS
10
176.039999999999992
20
-92.9099999999999966
11
178.0600000000000023
21
-92.9099999999999966
0
LINE
8
BLACK
6
CONTINUOUS
10
178.0600000000000023
20
-92.9099999999999966
11
178.1518439999999828
21
-92.9282690000000002
0
LINE
8
BLACK
6
CONTINUOUS
10
185.0049999999999955
20
-92.3549999999999898
11
182.4950000000000045
21
-92.3549999999999898
0
LINE
8
BLACK
6
CONTINUOUS
10
182.4950000000000045
20
-92.3549999999999898
11
182.4950000000000045
21
-91.3549999999999898
0
LINE
8
BLACK
6
CONTINUOUS
10
182.4950000000000045
20
-91.3549999999999898
11
185.0049999999999955
21
-91.3549999999999898
0
LINE
8
BLACK
6
CONTINUOUS
10
185.0049999999999955
20
-91.3549999999999898
11
185.0049999999999955
21
-92.3549999999999898
0
LINE
8
BLACK
6
CONTINUOUS
10
178.1518439999999828
20
-90.4282690000000002
11
178.2297059999999931
21
-90.4802940000000007
0
LINE
8
BLACK
6
CONTINUOUS
10
178.2297059999999931
20
-90.4802940000000007
11
178.2817309999999793
21
-90.5581559999999968
0
LINE
8
BLACK
6
CONTINUOUS
10
178.2817309999999793
20
-90.5581559999999968
11
178.2999999999999829
21
-90.6499999999999915
0
LINE
8
BLACK
6
CONTINUOUS
10
178.2999999999999829
20
-90.6499999999999915
11
178.2999999999999829
21
-91.3699999999999903
0
LINE
8
BLACK
6
CONTINUOUS
10
178.2999999999999829
20
-91.3699999999999903
11
178.2817309999999793
21
-91.4618439999999993
0
LINE
8
BLACK
6
CONTINUOUS
10
178.2817309999999793
20
-91.4618439999999993
11
178.2297059999999931
21
-91.5397059999999954
0
LINE
8
BLACK
6
CONTINUOUS
10
178.2297059999999931
20
-91.5397059999999954
11
178.1518439999999828
21
-91.5917309999999958
0
LINE
8
BLACK
6
CONTINUOUS
10
178.1518439999999828
20
-91.5917309999999958
11
178.0600000000000023
21
-91.6099999999999994
0
LINE
8
BLACK
6
CONTINUOUS
10
178.0600000000000023
20
-91.6099999999999994
11
176.039999999999992
21
-91.6099999999999994
0
LINE
8
BLACK
6
CONTINUOUS
10
176.039999999999992
20
-91.6099999999999994
11
175.9481559999999831
21
-91.5917309999999958
0
LINE
8
BLACK
6
CONTINUOUS
10
175.9481559999999831
20
-91.5917309999999958
11
175.8702940000000012
21
-91.5397059999999954
0
LINE
8
BLACK
6
CONTINUOUS
10
175.8702940000000012
20
-91.5397059999999954
11
175.8182689999999866
21
-91.4618439999999993
0
LINE
8
BLACK
6
CONTINUOUS
10
175.8182689999999866
20
-91.4618439999999993
11
175.7999999999999829
21
-91.3699999999999903
0
LINE
8
BLACK
6
CONTINUOUS
10
175.7999999999999829
20
-91.3699999999999903
11
175.7999999999999829
21
-90.6499999999999915
0
LINE
8
BLACK
6
CONTINUOUS
10
175.7999999999999829
20
-90.6499999999999915
11
175.8182689999999866
21
-90.5581559999999968
0
LINE
8
BLACK
6
CONTINUOUS
10
175.8182689999999866
20
-90.5581559999999968
11
175.8702940000000012
21
-90.4802940000000007
0
LINE
8
BLACK
6
CONTINUOUS
10
175.8702940000000012
20
-90.4802940000000007
11
175.9481559999999831
21
-90.4282690000000002
0
LINE
8
BLACK
6
CONTINUOUS
10
175.9481559999999831
20
-90.4282690000000002
11
176.039999999999992
21
-90.4099999999999966
0
LINE
8
BLACK
6
CONTINUOUS
10
176.039999999999992
20
-90.4099999999999966
11
178.0600000000000023
21
-90.4099999999999966
0
LINE
8
BLACK
6
CONTINUOUS
10
178.0600000000000023
20
-90.4099999999999966
11
178.1518439999999828
21
-90.4282690000000002
0
LINE
8
BLACK
6
CONTINUOUS
10
181.6949999999999932
20
-89.8149999999999977
11
179.1850000000000023
21
-89.8149999999999977
0
LINE
8
BLACK
6
CONTINUOUS
10
179.1850000000000023
20
-89.8149999999999977
11
179.1850000000000023
21
-88.8149999999999977
0
LINE
8
BLACK
6
CONTINUOUS
10
179.1850000000000023
20
-88.8149999999999977
11
181.6949999999999932
21
-88.8149999999999977
0
LINE
8
BLACK
6
CONTINUOUS
10
181.6949999999999932
20
-88.8149999999999977
11
181.6949999999999932
21
-89.8149999999999977
0
LINE
8
BLACK
6
CONTINUOUS
10
178.1518439999999828
20
-87.9282690000000002
11
178.2297059999999931
21
-87.9802940000000007
0
LINE
8
BLACK
6
CONTINUOUS
10
178.2297059999999931
20
-87.9802940000000007
11
178.2817309999999793
21
-88.0581559999999968
0
LINE
8
BLACK
6
CONTINUOUS
10
178.2817309999999793
20
-88.0581559999999968
11
178.2999999999999829
21
-88.1499999999999915
0
LINE
8
BLACK
6
CONTINUOUS
10
178.2999999999999829
20
-88.1499999999999915
11
178.2999999999999829
21
-88.8699999999999903
0
LINE
8
BLACK
6
CONTINUOUS
10
178.2999999999999829
20
-88.8699999999999903
11
178.2817309999999793
21
-88.9618439999999993
0
LINE
8
BLACK
6
CONTINUOUS
10
178.2817309999999793
20
-88.9618439999999993
11
178.2297059999999931
21
-89.0397059999999954
0
LINE
8
BLACK
6
CONTINUOUS
10
178.2297059999999931
20
-89.0397059999999954
11
178.1518439999999828
21
-89.0917309999999958
0
LINE
8
BLACK
6
CONTINUOUS
10
178.1518439999999828
20
-89.0917309999999958
11
178.0600000000000023
21
-89.1099999999999994
0
LINE
8
BLACK
6
CONTINUOUS
10
178.0600000000000023
20
-89.1099999999999994
11
176.039999999999992
21
-89.1099999999999994
0
LINE
8
BLACK
6
CONTINUOUS
10
176.039999999999992
20
-89.1099999999999994
11
175.9481559999999831
21
-89.0917309999999958
0
LINE
8
BLACK
6
CONTINUOUS
10
175.9481559999999831
20
-89.0917309999999958
11
175.8702940000000012
21
-89.0397059999999954
0
LINE
8
BLACK
6
CONTINUOUS
10
175.8702940000000012
20
-89.0397059999999954
11
175.8182689999999866
21
-88.9618439999999993
0
LINE
8
BLACK
6
CONTINUOUS
10
175.8182689999999866
20
-88.9618439999999993
11
175.7999999999999829
21
-88.8699999999999903
0
LINE
8
BLACK
6
CONTINUOUS
10
175.7999999999999829
20
-88.8699999999999903
11
175.7999999999999829
21
-88.1499999999999915
0
LINE
8
BLACK
6
CONTINUOUS
10
175.7999999999999829
20
-88.1499999999999915
11
175.8182689999999866
21
-88.0581559999999968
0
LINE
8
BLACK
6
CONTINUOUS
10
175.8182689999999866
20
-88.0581559999999968
11
175.8702940000000012
21
-87.9802940000000007
0
LINE
8
BLACK
6
CONTINUOUS
10
175.8702940000000012
20
-87.9802940000000007
11
175.9481559999999831
21
-87.9282690000000002
0
LINE
8
BLACK
6
CONTINUOUS
10
175.9481559999999831
20
-87.9282690000000002
11
176.039999999999992
21
-87.9099999999999966
0
LINE
8
BLACK
6
CONTINUOUS
10
176.039999999999992
20
-87.9099999999999966
11
178.0600000000000023
21
-87.9099999999999966
0
LINE
8
BLACK
6
CONTINUOUS
10
178.0600000000000023
20
-87.9099999999999966
11
178.1518439999999828
21
-87.9282690000000002
0
LINE
8
BLACK
6
CONTINUOUS
10
235.1999999999999886
20
-87.8199999999999932
11
233.1999999999999886
21
-87.8199999999999932
0
LINE
8
BLACK
6
CONTINUOUS
10
233.1999999999999886
20
-87.8199999999999932
11
233.1999999999999886
21
-86.2199999999999989
0
LINE
8
BLACK
6
CONTINUOUS
10
233.1999999999999886
20
-86.2199999999999989
11
235.1999999999999886
21
-86.2199999999999989
0
LINE
8
BLACK
6
CONTINUOUS
10
235.1999999999999886
20
-86.2199999999999989
11
235.1999999999999886
21
-87.8199999999999932
0
LINE
8
BLACK
6
CONTINUOUS
10
185.0049999999999955
20
-87.2749999999999915
11
182.4950000000000045
21
-87.2749999999999915
0
LINE
8
BLACK
6
CONTINUOUS
10
182.4950000000000045
20
-87.2749999999999915
11
182.4950000000000045
21
-86.2749999999999915
0
LINE
8
BLACK
6
CONTINUOUS
10
182.4950000000000045
20
-86.2749999999999915
11
185.0049999999999955
21
-86.2749999999999915
0
LINE
8
BLACK
6
CONTINUOUS
10
185.0049999999999955
20
-86.2749999999999915
11
185.0049999999999955
21
-87.2749999999999915
0
LINE
8
BLACK
6
CONTINUOUS
10
181.6949999999999932
20
-84.7349999999999994
11
179.1850000000000023
21
-84.7349999999999994
0
LINE
8
BLACK
6
CONTINUOUS
10
179.1850000000000023
20
-84.7349999999999994
11
179.1850000000000023
21
-83.7349999999999994
0
LINE
8
BLACK
6
CONTINUOUS
10
179.1850000000000023
20
-83.7349999999999994
11
181.6949999999999932
21
-83.7349999999999994
0
LINE
8
BLACK
6
CONTINUOUS
10
181.6949999999999932
20
-83.7349999999999994
11
181.6949999999999932
21
-84.7349999999999994
0
LINE
8
BLACK
6
CONTINUOUS
10
235.1999999999999886
20
-84.6199999999999903
11
233.1999999999999886
21
-84.6199999999999903
0
LINE
8
BLACK
6
CONTINUOUS
10
233.1999999999999886
20
-84.6199999999999903
11
233.1999999999999886
21
-83.019999999999996
0
LINE
8
BLACK
6
CONTINUOUS
10
233.1999999999999886
20
-83.019999999999996
11
235.1999999999999886
21
-83.019999999999996
0
LINE
8
BLACK
6
CONTINUOUS
10
235.1999999999999886
20
-83.019999999999996
11
235.1999999999999886
21
-84.6199999999999903
0
LINE
8
BLACK
6
CONTINUOUS
10
175.125
20
-82.4249999999999972
11
174.125
21
-82.4249999999999972
0
LINE
8
BLACK
6
CONTINUOUS
10
174.125
20
-82.4249999999999972
11
174.125
21
-80.875
0
LINE
8
BLACK
6
CONTINUOUS
10
174.125
20
-80.875
11
175.125
21
-80.875
0
LINE
8
BLACK
6
CONTINUOUS
10
175.125
20
-80.875
11
175.125
21
-82.4249999999999972
0
LINE
8
BLACK
6
CONTINUOUS
10
176.8249999999999886
20
-82.4249999999999972
11
175.8249999999999886
21
-82.4249999999999972
0
LINE
8
BLACK
6
CONTINUOUS
10
175.8249999999999886
20
-82.4249999999999972
11
175.8249999999999886
21
-80.875
0
LINE
8
BLACK
6
CONTINUOUS
10
175.8249999999999886
20
-80.875
11
176.8249999999999886
21
-80.875
0
LINE
8
BLACK
6
CONTINUOUS
10
176.8249999999999886
20
-80.875
11
176.8249999999999886
21
-82.4249999999999972
0
LINE
8
BLACK
6
CONTINUOUS
10
185.0049999999999955
20
-82.1949999999999932
11
182.4950000000000045
21
-82.1949999999999932
0
LINE
8
BLACK
6
CONTINUOUS
10
182.4950000000000045
20
-82.1949999999999932
11
182.4950000000000045
21
-81.1949999999999932
0
LINE
8
BLACK
6
CONTINUOUS
10
182.4950000000000045
20
-81.1949999999999932
11
185.0049999999999955
21
-81.1949999999999932
0
LINE
8
BLACK
6
CONTINUOUS
10
185.0049999999999955
20
-81.1949999999999932
11
185.0049999999999955
21
-82.1949999999999932
0
LINE
8
BLACK
6
CONTINUOUS
10
181.6949999999999932
20
-79.6550000000000011
11
179.1850000000000023
21
-79.6550000000000011
0
LINE
8
BLACK
6
CONTINUOUS
10
179.1850000000000023
20
-79.6550000000000011
11
179.1850000000000023
21
-78.6550000000000011
0
LINE
8
BLACK
6
CONTINUOUS
10
179.1850000000000023
20
-78.6550000000000011
11
181.6949999999999932
21
-78.6550000000000011
0
LINE
8
BLACK
6
CONTINUOUS
10
181.6949999999999932
20
-78.6550000000000011
11
181.6949999999999932
21
-79.6550000000000011
0
LINE
8
BLACK
6
CONTINUOUS
10
214.7399999999999807
20
-77.6499999999999915
11
213.3400000000000034
21
-77.6499999999999915
0
LINE
8
BLACK
6
CONTINUOUS
10
213.3400000000000034
20
-77.6499999999999915
11
213.3400000000000034
21
-75.25
0
LINE
8
BLACK
6
CONTINUOUS
10
213.3400000000000034
20
-75.25
11
214.7399999999999807
21
-75.25
0
LINE
8
BLACK
6
CONTINUOUS
10
214.7399999999999807
20
-75.25
11
214.7399999999999807
21
-77.6499999999999915
0
LINE
8
BLACK
6
CONTINUOUS
10
217.2800000000000011
20
-77.6499999999999915
11
215.8799999999999955
21
-77.6499999999999915
0
LINE
8
BLACK
6
CONTINUOUS
10
215.8799999999999955
20
-77.6499999999999915
11
215.8799999999999955
21
-75.25
0
LINE
8
BLACK
6
CONTINUOUS
10
215.8799999999999955
20
-75.25
11
217.2800000000000011
21
-75.25
0
LINE
8
BLACK
6
CONTINUOUS
10
217.2800000000000011
20
-75.25
11
217.2800000000000011
21
-77.6499999999999915
0
LINE
8
BLACK
6
CONTINUOUS
10
219.8199999999999932
20
-77.6499999999999915
11
218.4199999999999875
21
-77.6499999999999915
0
LINE
8
BLACK
6
CONTINUOUS
10
218.4199999999999875
20
-77.6499999999999915
11
218.4199999999999875
21
-75.25
0
LINE
8
BLACK
6
CONTINUOUS
10
218.4199999999999875
20
-75.25
11
219.8199999999999932
21
-75.25
0
LINE
8
BLACK
6
CONTINUOUS
10
219.8199999999999932
20
-75.25
11
219.8199999999999932
21
-77.6499999999999915
0
LINE
8
BLACK
6
CONTINUOUS
10
222.3599999999999852
20
-77.6499999999999915
11
220.9599999999999795
21
-77.6499999999999915
0
LINE
8
BLACK
6
CONTINUOUS
10
220.9599999999999795
20
-77.6499999999999915
11
220.9599999999999795
21
-75.25
0
LINE
8
BLACK
6
CONTINUOUS
10
220.9599999999999795
20
-75.25
11
222.3599999999999852
21
-75.25
0
LINE
8
BLACK
6
CONTINUOUS
10
222.3599999999999852
20
-75.25
11
222.3599999999999852
21
-77.6499999999999915
0
LINE
8
BLACK
6
CONTINUOUS
10
224.8999999999999773
20
-77.6499999999999915
11
223.5
21
-77.6499999999999915
0
LINE
8
BLACK
6
CONTINUOUS
10
223.5
20
-77.6499999999999915
11
223.5
21
-75.25
0
LINE
8
BLACK
6
CONTINUOUS
10
223.5
20
-75.25
11
224.8999999999999773
21
-75.25
0
LINE
8
BLACK
6
CONTINUOUS
10
224.8999999999999773
20
-75.25
11
224.8999999999999773
21
-77.6499999999999915
0
LINE
8
BLACK
6
CONTINUOUS
10
227.4399999999999977
20
-77.6499999999999915
11
226.039999999999992
21
-77.6499999999999915
0
LINE
8
BLACK
6
CONTINUOUS
10
226.039999999999992
20
-77.6499999999999915
11
226.039999999999992
21
-75.25
0
LINE
8
BLACK
6
CONTINUOUS
10
226.039999999999992
20
-75.25
11
227.4399999999999977
21
-75.25
0
LINE
8
BLACK
6
CONTINUOUS
10
227.4399999999999977
20
-75.25
11
227.4399999999999977
21
-77.6499999999999915
0
LINE
8
BLACK
6
CONTINUOUS
10
229.9799999999999898
20
-77.6499999999999915
11
228.5799999999999841
21
-77.6499999999999915
0
LINE
8
BLACK
6
CONTINUOUS
10
228.5799999999999841
20
-77.6499999999999915
11
228.5799999999999841
21
-75.25
0
LINE
8
BLACK
6
CONTINUOUS
10
228.5799999999999841
20
-75.25
11
229.9799999999999898
21
-75.25
0
LINE
8
BLACK
6
CONTINUOUS
10
229.9799999999999898
20
-75.25
11
229.9799999999999898
21
-77.6499999999999915
0
LINE
8
BLACK
6
CONTINUOUS
10
232.5199999999999818
20
-77.6499999999999915
11
231.1199999999999761
21
-77.6499999999999915
0
LINE
8
BLACK
6
CONTINUOUS
10
231.1199999999999761
20
-77.6499999999999915
11
231.1199999999999761
21
-75.25
0
LINE
8
BLACK
6
CONTINUOUS
10
231.1199999999999761
20
-75.25
11
232.5199999999999818
21
-75.25
0
LINE
8
BLACK
6
CONTINUOUS
10
232.5199999999999818
20
-75.25
11
232.5199999999999818
21
-77.6499999999999915
0
LINE
8
BLACK
6
CONTINUOUS
10
235.0600000000000023
20
-77.6499999999999915
11
233.6599999999999966
21
-77.6499999999999915
0
LINE
8
BLACK
6
CONTINUOUS
10
233.6599999999999966
20
-77.6499999999999915
11
233.6599999999999966
21
-75.25
0
LINE
8
BLACK
6
CONTINUOUS
10
233.6599999999999966
20
-75.25
11
235.0600000000000023
21
-75.25
0
LINE
8
BLACK
6
CONTINUOUS
10
235.0600000000000023
20
-75.25
11
235.0600000000000023
21
-77.6499999999999915
0
LINE
8
BLACK
6
CONTINUOUS
10
175.125
20
-77.1749999999999972
11
174.125
21
-77.1749999999999972
0
LINE
8
BLACK
6
CONTINUOUS
10
174.125
20
-77.1749999999999972
11
174.125
21
-75.625
0
LINE
8
BLACK
6
CONTINUOUS
10
174.125
20
-75.625
11
175.125
21
-75.625
0
LINE
8
BLACK
6
CONTINUOUS
10
175.125
20
-75.625
11
175.125
21
-77.1749999999999972
0
LINE
8
BLACK
6
CONTINUOUS
10
176.8249999999999886
20
-77.1749999999999972
11
175.8249999999999886
21
-77.1749999999999972
0
LINE
8
BLACK
6
CONTINUOUS
10
175.8249999999999886
20
-77.1749999999999972
11
175.8249999999999886
21
-75.625
0
LINE
8
BLACK
6
CONTINUOUS
10
175.8249999999999886
20
-75.625
11
176.8249999999999886
21
-75.625
0
LINE
8
BLACK
6
CONTINUOUS
10
176.8249999999999886
20
-75.625
11
176.8249999999999886
21
-77.1749999999999972
0
LINE
8
BLACK
6
CONTINUOUS
10
185.0049999999999955
20
-77.1149999999999949
11
182.4950000000000045
21
-77.1149999999999949
0
LINE
8
BLACK
6
CONTINUOUS
10
182.4950000000000045
20
-77.1149999999999949
11
182.4950000000000045
21
-76.1149999999999949
0
LINE
8
BLACK
6
CONTINUOUS
10
182.4950000000000045
20
-76.1149999999999949
11
185.0049999999999955
21
-76.1149999999999949
0
LINE
8
BLACK
6
CONTINUOUS
10
185.0049999999999955
20
-76.1149999999999949
11
185.0049999999999955
21
-77.1149999999999949
0
LINE
8
BLACK
6
CONTINUOUS
10
177.2750000000000057
20
-72.1499999999999915
11
175.7249999999999943
21
-72.1499999999999915
0
LINE
8
BLACK
6
CONTINUOUS
10
175.7249999999999943
20
-72.1499999999999915
11
175.7249999999999943
21
-71.1499999999999915
0
LINE
8
BLACK
6
CONTINUOUS
10
175.7249999999999943
20
-71.1499999999999915
11
177.2750000000000057
21
-71.1499999999999915
0
LINE
8
BLACK
6
CONTINUOUS
10
177.2750000000000057
20
-71.1499999999999915
11
177.2750000000000057
21
-72.1499999999999915
0
LINE
8
BLACK
6
CONTINUOUS
10
182.5250000000000057
20
-72.1499999999999915
11
180.9749999999999943
21
-72.1499999999999915
0
LINE
8
BLACK
6
CONTINUOUS
10
180.9749999999999943
20
-72.1499999999999915
11
180.9749999999999943
21
-71.1499999999999915
0
LINE
8
BLACK
6
CONTINUOUS
10
180.9749999999999943
20
-71.1499999999999915
11
182.5250000000000057
21
-71.1499999999999915
0
LINE
8
BLACK
6
CONTINUOUS
10
182.5250000000000057
20
-71.1499999999999915
11
182.5250000000000057
21
-72.1499999999999915
0
LINE
8
BLACK
6
CONTINUOUS
10
194.2999999999999829
20
-72.1499999999999915
11
192.75
21
-72.1499999999999915
0
LINE
8
BLACK
6
CONTINUOUS
10
192.75
20
-72.1499999999999915
11
192.75
21
-71.1499999999999915
0
LINE
8
BLACK
6
CONTINUOUS
10
192.75
20
-71.1499999999999915
11
194.2999999999999829
21
-71.1499999999999915
0
LINE
8
BLACK
6
CONTINUOUS
10
194.2999999999999829
20
-71.1499999999999915
11
194.2999999999999829
21
-72.1499999999999915
0
LINE
8
BLACK
6
CONTINUOUS
10
199.5499999999999829
20
-72.1499999999999915
11
198.
21
-72.1499999999999915
0
LINE
8
BLACK
6
CONTINUOUS
10
198.
20
-72.1499999999999915
11
198.
21
-71.1499999999999915
0
LINE
8
BLACK
6
CONTINUOUS
10
198.
20
-71.1499999999999915
11
199.5499999999999829
21
-71.1499999999999915
0
LINE
8
BLACK
6
CONTINUOUS
10
199.5499999999999829
20
-71.1499999999999915
11
199.5499999999999829
21
-72.1499999999999915
0
LINE
8
BLACK
6
CONTINUOUS
10
213.5749999999999886
20
-72.1499999999999915
11
212.0249999999999773
21
-72.1499999999999915
0
LINE
8
BLACK
6
CONTINUOUS
10
212.0249999999999773
20
-72.1499999999999915
11
212.0249999999999773
21
-71.1499999999999915
0
LINE
8
BLACK
6
CONTINUOUS
10
212.0249999999999773
20
-71.1499999999999915
11
213.5749999999999886
21
-71.1499999999999915
0
LINE
8
BLACK
6
CONTINUOUS
10
213.5749999999999886
20
-71.1499999999999915
11
213.5749999999999886
21
-72.1499999999999915
0
LINE
8
BLACK
6
CONTINUOUS
10
218.8249999999999886
20
-72.1499999999999915
11
217.2749999999999773
21
-72.1499999999999915
0
LINE
8
BLACK
6
CONTINUOUS
10
217.2749999999999773
20
-72.1499999999999915
11
217.2749999999999773
21
-71.1499999999999915
0
LINE
8
BLACK
6
CONTINUOUS
10
217.2749999999999773
20
-71.1499999999999915
11
218.8249999999999886
21
-71.1499999999999915
0
LINE
8
BLACK
6
CONTINUOUS
10
218.8249999999999886
20
-71.1499999999999915
11
218.8249999999999886
21
-72.1499999999999915
0
LINE
8
BLACK
6
CONTINUOUS
10
230.5749999999999886
20
-72.1499999999999915
11
229.0249999999999773
21
-72.1499999999999915
0
LINE
8
BLACK
6
CONTINUOUS
10
229.0249999999999773
20
-72.1499999999999915
11
229.0249999999999773
21
-71.1499999999999915
0
LINE
8
BLACK
6
CONTINUOUS
10
229.0249999999999773
20
-71.1499999999999915
11
230.5749999999999886
21
-71.1499999999999915
0
LINE
8
BLACK
6
CONTINUOUS
10
230.5749999999999886
20
-71.1499999999999915
11
230.5749999999999886
21
-72.1499999999999915
0
LINE
8
BLACK
6
CONTINUOUS
10
235.8249999999999886
20
-72.1499999999999915
11
234.2749999999999773
21
-72.1499999999999915
0
LINE
8
BLACK
6
CONTINUOUS
10
234.2749999999999773
20
-72.1499999999999915
11
234.2749999999999773
21
-71.1499999999999915
0
LINE
8
BLACK
6
CONTINUOUS
10
234.2749999999999773
20
-71.1499999999999915
11
235.8249999999999886
21
-71.1499999999999915
0
LINE
8
BLACK
6
CONTINUOUS
10
235.8249999999999886
20
-71.1499999999999915
11
235.8249999999999886
21
-72.1499999999999915
0
LINE
8
BLACK
6
CONTINUOUS
10
177.2750000000000057
20
-70.4500000000000028
11
175.7249999999999943
21
-70.4500000000000028
0
LINE
8
BLACK
6
CONTINUOUS
10
175.7249999999999943
20
-70.4500000000000028
11
175.7249999999999943
21
-69.4500000000000028
0
LINE
8
BLACK
6
CONTINUOUS
10
175.7249999999999943
20
-69.4500000000000028
11
177.2750000000000057
21
-69.4500000000000028
0
LINE
8
BLACK
6
CONTINUOUS
10
177.2750000000000057
20
-69.4500000000000028
11
177.2750000000000057
21
-70.4500000000000028
0
LINE
8
BLACK
6
CONTINUOUS
10
182.5250000000000057
20
-70.4500000000000028
11
180.9749999999999943
21
-70.4500000000000028
0
LINE
8
BLACK
6
CONTINUOUS
10
180.9749999999999943
20
-70.4500000000000028
11
180.9749999999999943
21
-69.4500000000000028
0
LINE
8
BLACK
6
CONTINUOUS
10
180.9749999999999943
20
-69.4500000000000028
11
182.5250000000000057
21
-69.4500000000000028
0
LINE
8
BLACK
6
CONTINUOUS
10
182.5250000000000057
20
-69.4500000000000028
11
182.5250000000000057
21
-70.4500000000000028
0
LINE
8
BLACK
6
CONTINUOUS
10
194.2999999999999829
20
-70.4500000000000028
11
192.75
21
-70.4500000000000028
0
LINE
8
BLACK
6
CONTINUOUS
10
192.75
20
-70.4500000000000028
11
192.75
21
-69.4500000000000028
0
LINE
8
BLACK
6
CONTINUOUS
10
192.75
20
-69.4500000000000028
11
194.2999999999999829
21
-69.4500000000000028
0
LINE
8
BLACK
6
CONTINUOUS
10
194.2999999999999829
20
-69.4500000000000028
11
194.2999999999999829
21
-70.4500000000000028
0
LINE
8
BLACK
6
CONTINUOUS
10
199.5499999999999829
20
-70.4500000000000028
11
198.
21
-70.4500000000000028
0
LINE
8
BLACK
6
CONTINUOUS
10
198.
20
-70.4500000000000028
11
198.
21
-69.4500000000000028
0
LINE
8
BLACK
6
CONTINUOUS
10
198.
20
-69.4500000000000028
11
199.5499999999999829
21
-69.4500000000000028
0
LINE
8
BLACK
6
CONTINUOUS
10
199.5499999999999829
20
-69.4500000000000028
11
199.5499999999999829
21
-70.4500000000000028
0
LINE
8
BLACK
6
CONTINUOUS
10
213.5749999999999886
20
-70.4500000000000028
11
212.0249999999999773
21
-70.4500000000000028
0
LINE
8
BLACK
6
CONTINUOUS
10
212.0249999999999773
20
-70.4500000000000028
11
212.0249999999999773
21
-69.4500000000000028
0
LINE
8
BLACK
6
CONTINUOUS
10
212.0249999999999773
20
-69.4500000000000028
11
213.5749999999999886
21
-69.4500000000000028
0
LINE
8
BLACK
6
CONTINUOUS
10
213.5749999999999886
20
-69.4500000000000028
11
213.5749999999999886
21
-70.4500000000000028
0
LINE
8
BLACK
6
CONTINUOUS
10
218.8249999999999886
20
-70.4500000000000028
11
217.2749999999999773
21
-70.4500000000000028
0
LINE
8
BLACK
6
CONTINUOUS
10
217.2749999999999773
20
-70.4500000000000028
11
217.2749999999999773
21
-69.4500000000000028
0
LINE
8
BLACK
6
CONTINUOUS
10
217.2749999999999773
20
-69.4500000000000028
11
218.8249999999999886
21
-69.4500000000000028
0
LINE
8
BLACK
6
CONTINUOUS
10
218.8249999999999886
20
-69.4500000000000028
11
218.8249999999999886
21
-70.4500000000000028
0
LINE
8
BLACK
6
CONTINUOUS
10
230.5749999999999886
20
-70.4500000000000028
11
229.0249999999999773
21
-70.4500000000000028
0
LINE
8
BLACK
6
CONTINUOUS
10
229.0249999999999773
20
-70.4500000000000028
11
229.0249999999999773
21
-69.4500000000000028
0
LINE
8
BLACK
6
CONTINUOUS
10
229.0249999999999773
20
-69.4500000000000028
11
230.5749999999999886
21
-69.4500000000000028
0
LINE
8
BLACK
6
CONTINUOUS
10
230.5749999999999886
20
-69.4500000000000028
11
230.5749999999999886
21
-70.4500000000000028
0
LINE
8
BLACK
6
CONTINUOUS
10
235.8249999999999886
20
-70.4500000000000028
11
234.2749999999999773
21
-70.4500000000000028
0
LINE
8
BLACK
6
CONTINUOUS
10
234.2749999999999773
20
-70.4500000000000028
11
234.2749999999999773
21
-69.4500000000000028
0
LINE
8
BLACK
6
CONTINUOUS
10
234.2749999999999773
20
-69.4500000000000028
11
235.8249999999999886
21
-69.4500000000000028
0
LINE
8
BLACK
6
CONTINUOUS
10
235.8249999999999886
20
-69.4500000000000028
11
235.8249999999999886
21
-70.4500000000000028
  0
ENDSEC
  0
EOF
