  0
SECTION
  2
HEADER
  9
$ANGBASE
  50
0.0
  9
$ANGDIR
  70
1
  9
$MEASUREMENT
  70
1
  0
ENDSEC
  0
SECTION
  2
TABLES
  0
TABLE
  2
LTYPE
  70
4
  0
LTYPE
  5
40F
  2
CONTINUOUS
  70
0
  3
Solid line
  72
65
  73
0
  40
0.0
  0
LTYPE
  5
410
  2
DASHDOT
 70
0
  3
Dash Dot ____ _ ____ _
 72
65
 73
4
 40
2.0
 49
1.25
 49
-0.25
 49
0.25
 49
-0.25
  0
LTYPE
  5
411
  2
DASHED
 70
0
  3
Dashed __ __ __ __ __
 72
65
 73
2
 40
0.75
 49
0.5
 49
-0.25
  0
LTYPE
  5
43B
  2
DOTTED
 70
0
  3
Dotted .  .  .  .
 72
65
 73
2
 40
0.2
 49
0.0
 49
-0.2
  0
ENDTAB
  0
TABLE
  2
STYLE
  70
4
  0
STYLE
  2
KICAD
  70
0
  40
0
  41
1
  42
1
  50
0
  71
0
  3
isocp.shx
  0
STYLE
  2
KICADB
  70
0
  40
0
  41
1
  42
1
  50
0
  71
0
  3
isocp.shx
  0
STYLE
  2
KICADI
  70
0
  40
0
  41
1
  42
1
  50
15
  71
0
  3
isocp.shx
  0
STYLE
  2
KICADBI
  70
0
  40
0
  41
1
  42
1
  50
15
  71
0
  3
isocp.shx
  0
ENDTAB
  0
TABLE
  2
LAYER
  70
1
  0
LAYER
  2
BLACK
  70
0
  62
7
  6
CONTINUOUS
  0
ENDTAB
  0
ENDSEC
  0
SECTION
  2
ENTITIES
0
LINE
8
BLACK
6
CONTINUOUS
10
175.7944519999999784
20
-100.2691189999999892
11
175.8755579999999838
21
-100.3233120000000014
0
LINE
8
BLACK
6
CONTINUOUS
10
175.8755579999999838
20
-100.3233120000000014
11
177.4311929999999791
21
-101.8789469999999966
0
LINE
8
BLACK
6
CONTINUOUS
10
177.4311929999999791
20
-101.8789469999999966
11
177.4853860000000054
21
-101.960053000000002
0
LINE
8
BLACK
6
CONTINUOUS
10
177.4853860000000054
20
-101.960053000000002
11
177.5044169999999895
21
-102.0557239999999979
0
LINE
8
BLACK
6
CONTINUOUS
10
177.5044169999999895
20
-102.0557239999999979
11
177.4853860000000054
21
-102.1513949999999937
0
LINE
8
BLACK
6
CONTINUOUS
10
177.4853860000000054
20
-102.1513949999999937
11
177.4311929999999791
21
-102.2325000000000017
0
LINE
8
BLACK
6
CONTINUOUS
10
177.4311929999999791
20
-102.2325000000000017
11
177.0776390000000049
21
-102.5860539999999901
0
LINE
8
BLACK
6
CONTINUOUS
10
177.0776390000000049
20
-102.5860539999999901
11
176.9965339999999969
21
-102.6402470000000022
0
LINE
8
BLACK
6
CONTINUOUS
10
176.9965339999999969
20
-102.6402470000000022
11
176.9008629999999869
21
-102.6592780000000005
0
LINE
8
BLACK
6
CONTINUOUS
10
176.9008629999999869
20
-102.6592780000000005
11
176.8051920000000052
21
-102.6402470000000022
0
LINE
8
BLACK
6
CONTINUOUS
10
176.8051920000000052
20
-102.6402470000000022
11
176.7240859999999998
21
-102.5860539999999901
0
LINE
8
BLACK
6
CONTINUOUS
10
176.7240859999999998
20
-102.5860539999999901
11
175.1684510000000046
21
-101.0304189999999949
0
LINE
8
BLACK
6
CONTINUOUS
10
175.1684510000000046
20
-101.0304189999999949
11
175.1142579999999782
21
-100.9493129999999894
0
LINE
8
BLACK
6
CONTINUOUS
10
175.1142579999999782
20
-100.9493129999999894
11
175.0952269999999942
21
-100.8536419999999936
0
LINE
8
BLACK
6
CONTINUOUS
10
175.0952269999999942
20
-100.8536419999999936
11
175.1142579999999782
21
-100.7579709999999977
0
LINE
8
BLACK
6
CONTINUOUS
10
175.1142579999999782
20
-100.7579709999999977
11
175.1684510000000046
21
-100.6768659999999898
0
LINE
8
BLACK
6
CONTINUOUS
10
175.1684510000000046
20
-100.6768659999999898
11
175.5220049999999787
21
-100.3233120000000014
0
LINE
8
BLACK
6
CONTINUOUS
10
175.5220049999999787
20
-100.3233120000000014
11
175.6031099999999867
21
-100.2691189999999892
0
LINE
8
BLACK
6
CONTINUOUS
10
175.6031099999999867
20
-100.2691189999999892
11
175.6987809999999968
21
-100.250087999999991
0
LINE
8
BLACK
6
CONTINUOUS
10
175.6987809999999968
20
-100.250087999999991
11
175.7944519999999784
21
-100.2691189999999892
0
LINE
8
BLACK
6
CONTINUOUS
10
179.2946299999999837
20
-96.7689409999999981
11
179.3757359999999892
21
-96.823133999999996
0
LINE
8
BLACK
6
CONTINUOUS
10
179.3757359999999892
20
-96.823133999999996
11
180.9313709999999844
21
-98.3787689999999913
0
LINE
8
BLACK
6
CONTINUOUS
10
180.9313709999999844
20
-98.3787689999999913
11
180.9855639999999823
21
-98.4598749999999967
0
LINE
8
BLACK
6
CONTINUOUS
10
180.9855639999999823
20
-98.4598749999999967
11
181.0045949999999948
21
-98.5555459999999925
0
LINE
8
BLACK
6
CONTINUOUS
10
181.0045949999999948
20
-98.5555459999999925
11
180.9855639999999823
21
-98.6512170000000026
0
LINE
8
BLACK
6
CONTINUOUS
10
180.9855639999999823
20
-98.6512170000000026
11
180.9313709999999844
21
-98.7323219999999964
0
LINE
8
BLACK
6
CONTINUOUS
10
180.9313709999999844
20
-98.7323219999999964
11
180.5778169999999818
21
-99.085875999999999
0
LINE
8
BLACK
6
CONTINUOUS
10
180.5778169999999818
20
-99.085875999999999
11
180.4967120000000023
21
-99.1400689999999969
0
LINE
8
BLACK
6
CONTINUOUS
10
180.4967120000000023
20
-99.1400689999999969
11
180.4010409999999922
21
-99.1590999999999951
0
LINE
8
BLACK
6
CONTINUOUS
10
180.4010409999999922
20
-99.1590999999999951
11
180.3053699999999822
21
-99.1400689999999969
0
LINE
8
BLACK
6
CONTINUOUS
10
180.3053699999999822
20
-99.1400689999999969
11
180.2242640000000051
21
-99.085875999999999
0
LINE
8
BLACK
6
CONTINUOUS
10
180.2242640000000051
20
-99.085875999999999
11
178.6686289999999815
21
-97.5302409999999895
0
LINE
8
BLACK
6
CONTINUOUS
10
178.6686289999999815
20
-97.5302409999999895
11
178.6144359999999836
21
-97.4491349999999983
0
LINE
8
BLACK
6
CONTINUOUS
10
178.6144359999999836
20
-97.4491349999999983
11
178.5954049999999995
21
-97.3534640000000024
0
LINE
8
BLACK
6
CONTINUOUS
10
178.5954049999999995
20
-97.3534640000000024
11
178.6144359999999836
21
-97.2577929999999924
0
LINE
8
BLACK
6
CONTINUOUS
10
178.6144359999999836
20
-97.2577929999999924
11
178.6686289999999815
21
-97.1766879999999986
0
LINE
8
BLACK
6
CONTINUOUS
10
178.6686289999999815
20
-97.1766879999999986
11
179.0221829999999841
21
-96.823133999999996
0
LINE
8
BLACK
6
CONTINUOUS
10
179.0221829999999841
20
-96.823133999999996
11
179.1032879999999921
21
-96.7689409999999981
0
LINE
8
BLACK
6
CONTINUOUS
10
179.1032879999999921
20
-96.7689409999999981
11
179.1989590000000021
21
-96.7499099999999999
0
LINE
8
BLACK
6
CONTINUOUS
10
179.1989590000000021
20
-96.7499099999999999
11
179.2946299999999837
21
-96.7689409999999981
0
LINE
8
BLACK
6
CONTINUOUS
10
175.0137210000000039
20
-97.144171
11
175.0623850000000061
21
-97.1766870000000011
0
LINE
8
BLACK
6
CONTINUOUS
10
175.0623850000000061
20
-97.1766870000000011
11
176.0523349999999994
21
-98.1666369999999944
0
LINE
8
BLACK
6
CONTINUOUS
10
176.0523349999999994
20
-98.1666369999999944
11
176.0848509999999862
21
-98.2153009999999966
0
LINE
8
BLACK
6
CONTINUOUS
10
176.0848509999999862
20
-98.2153009999999966
11
176.0962689999999782
21
-98.2727029999999928
0
LINE
8
BLACK
6
CONTINUOUS
10
176.0962689999999782
20
-98.2727029999999928
11
176.0848509999999862
21
-98.330104999999989
0
LINE
8
BLACK
6
CONTINUOUS
10
176.0848509999999862
20
-98.330104999999989
11
176.0523349999999994
21
-98.3787689999999913
0
LINE
8
BLACK
6
CONTINUOUS
10
176.0523349999999994
20
-98.3787689999999913
11
175.8402030000000025
21
-98.5909010000000023
0
LINE
8
BLACK
6
CONTINUOUS
10
175.8402030000000025
20
-98.5909010000000023
11
175.7915390000000002
21
-98.6234169999999892
0
LINE
8
BLACK
6
CONTINUOUS
10
175.7915390000000002
20
-98.6234169999999892
11
175.734137000000004
21
-98.6348349999999954
0
LINE
8
BLACK
6
CONTINUOUS
10
175.734137000000004
20
-98.6348349999999954
11
175.6767349999999794
21
-98.6234169999999892
0
LINE
8
BLACK
6
CONTINUOUS
10
175.6767349999999794
20
-98.6234169999999892
11
175.6280710000000056
21
-98.5909010000000023
0
LINE
8
BLACK
6
CONTINUOUS
10
175.6280710000000056
20
-98.5909010000000023
11
174.638120999999984
21
-97.6009509999999949
0
LINE
8
BLACK
6
CONTINUOUS
10
174.638120999999984
20
-97.6009509999999949
11
174.6056049999999971
21
-97.5522869999999926
0
LINE
8
BLACK
6
CONTINUOUS
10
174.6056049999999971
20
-97.5522869999999926
11
174.5941870000000051
21
-97.4948849999999965
0
LINE
8
BLACK
6
CONTINUOUS
10
174.5941870000000051
20
-97.4948849999999965
11
174.6056049999999971
21
-97.4374830000000003
0
LINE
8
BLACK
6
CONTINUOUS
10
174.6056049999999971
20
-97.4374830000000003
11
174.638120999999984
21
-97.388818999999998
0
LINE
8
BLACK
6
CONTINUOUS
10
174.638120999999984
20
-97.388818999999998
11
174.8502529999999808
21
-97.1766870000000011
0
LINE
8
BLACK
6
CONTINUOUS
10
174.8502529999999808
20
-97.1766870000000011
11
174.8989169999999831
21
-97.144171
0
LINE
8
BLACK
6
CONTINUOUS
10
174.8989169999999831
20
-97.144171
11
174.9563189999999793
21
-97.1327529999999939
0
LINE
8
BLACK
6
CONTINUOUS
10
174.9563189999999793
20
-97.1327529999999939
11
175.0137210000000039
21
-97.144171
0
LINE
8
BLACK
6
CONTINUOUS
10
175.8976040000000012
20
-96.2602880000000027
11
175.9462680000000034
21
-96.2928039999999896
0
LINE
8
BLACK
6
CONTINUOUS
10
175.9462680000000034
20
-96.2928039999999896
11
176.9362179999999967
21
-97.2827539999999971
0
LINE
8
BLACK
6
CONTINUOUS
10
176.9362179999999967
20
-97.2827539999999971
11
176.9687339999999836
21
-97.3314179999999993
0
LINE
8
BLACK
6
CONTINUOUS
10
176.9687339999999836
20
-97.3314179999999993
11
176.9801520000000039
21
-97.3888199999999955
0
LINE
8
BLACK
6
CONTINUOUS
10
176.9801520000000039
20
-97.3888199999999955
11
176.9687339999999836
21
-97.4462219999999917
0
LINE
8
BLACK
6
CONTINUOUS
10
176.9687339999999836
20
-97.4462219999999917
11
176.9362179999999967
21
-97.4948859999999939
0
LINE
8
BLACK
6
CONTINUOUS
10
176.9362179999999967
20
-97.4948859999999939
11
176.7240859999999998
21
-97.7070179999999908
0
LINE
8
BLACK
6
CONTINUOUS
10
176.7240859999999998
20
-97.7070179999999908
11
176.6754219999999975
21
-97.7395339999999919
0
LINE
8
BLACK
6
CONTINUOUS
10
176.6754219999999975
20
-97.7395339999999919
11
176.6180200000000013
21
-97.7509519999999981
0
LINE
8
BLACK
6
CONTINUOUS
10
176.6180200000000013
20
-97.7509519999999981
11
176.5606180000000052
21
-97.7395339999999919
0
LINE
8
BLACK
6
CONTINUOUS
10
176.5606180000000052
20
-97.7395339999999919
11
176.5119540000000029
21
-97.7070179999999908
0
LINE
8
BLACK
6
CONTINUOUS
10
176.5119540000000029
20
-97.7070179999999908
11
175.5220039999999813
21
-96.7170679999999976
0
LINE
8
BLACK
6
CONTINUOUS
10
175.5220039999999813
20
-96.7170679999999976
11
175.4894879999999944
21
-96.6684039999999953
0
LINE
8
BLACK
6
CONTINUOUS
10
175.4894879999999944
20
-96.6684039999999953
11
175.4780700000000024
21
-96.6110019999999992
0
LINE
8
BLACK
6
CONTINUOUS
10
175.4780700000000024
20
-96.6110019999999992
11
175.4894879999999944
21
-96.5535999999999888
0
LINE
8
BLACK
6
CONTINUOUS
10
175.4894879999999944
20
-96.5535999999999888
11
175.5220039999999813
21
-96.5049360000000007
0
LINE
8
BLACK
6
CONTINUOUS
10
175.5220039999999813
20
-96.5049360000000007
11
175.7341359999999781
21
-96.2928039999999896
0
LINE
8
BLACK
6
CONTINUOUS
10
175.7341359999999781
20
-96.2928039999999896
11
175.7827999999999804
21
-96.2602880000000027
0
LINE
8
BLACK
6
CONTINUOUS
10
175.7827999999999804
20
-96.2602880000000027
11
175.840202000000005
21
-96.2488699999999966
0
LINE
8
BLACK
6
CONTINUOUS
10
175.840202000000005
20
-96.2488699999999966
11
175.8976040000000012
21
-96.2602880000000027
0
LINE
8
BLACK
6
CONTINUOUS
10
214.789999999999992
20
-96.8699999999999903
11
213.3899999999999864
21
-96.8699999999999903
0
LINE
8
BLACK
6
CONTINUOUS
10
213.3899999999999864
20
-96.8699999999999903
11
213.3899999999999864
21
-94.4699999999999989
0
LINE
8
BLACK
6
CONTINUOUS
10
213.3899999999999864
20
-94.4699999999999989
11
214.789999999999992
21
-94.4699999999999989
0
LINE
8
BLACK
6
CONTINUOUS
10
214.789999999999992
20
-94.4699999999999989
11
214.789999999999992
21
-96.8699999999999903
0
LINE
8
BLACK
6
CONTINUOUS
10
217.3299999999999841
20
-96.8699999999999903
11
215.9299999999999784
21
-96.8699999999999903
0
LINE
8
BLACK
6
CONTINUOUS
10
215.9299999999999784
20
-96.8699999999999903
11
215.9299999999999784
21
-94.4699999999999989
0
LINE
8
BLACK
6
CONTINUOUS
10
215.9299999999999784
20
-94.4699999999999989
11
217.3299999999999841
21
-94.4699999999999989
0
LINE
8
BLACK
6
CONTINUOUS
10
217.3299999999999841
20
-94.4699999999999989
11
217.3299999999999841
21
-96.8699999999999903
0
LINE
8
BLACK
6
CONTINUOUS
10
219.8699999999999761
20
-96.8699999999999903
11
218.4699999999999989
21
-96.8699999999999903
0
LINE
8
BLACK
6
CONTINUOUS
10
218.4699999999999989
20
-96.8699999999999903
11
218.4699999999999989
21
-94.4699999999999989
0
LINE
8
BLACK
6
CONTINUOUS
10
218.4699999999999989
20
-94.4699999999999989
11
219.8699999999999761
21
-94.4699999999999989
0
LINE
8
BLACK
6
CONTINUOUS
10
219.8699999999999761
20
-94.4699999999999989
11
219.8699999999999761
21
-96.8699999999999903
0
LINE
8
BLACK
6
CONTINUOUS
10
222.4099999999999966
20
-96.8699999999999903
11
221.0099999999999909
21
-96.8699999999999903
0
LINE
8
BLACK
6
CONTINUOUS
10
221.0099999999999909
20
-96.8699999999999903
11
221.0099999999999909
21
-94.4699999999999989
0
LINE
8
BLACK
6
CONTINUOUS
10
221.0099999999999909
20
-94.4699999999999989
11
222.4099999999999966
21
-94.4699999999999989
0
LINE
8
BLACK
6
CONTINUOUS
10
222.4099999999999966
20
-94.4699999999999989
11
222.4099999999999966
21
-96.8699999999999903
0
LINE
8
BLACK
6
CONTINUOUS
10
224.9499999999999886
20
-96.8699999999999903
11
223.5499999999999829
21
-96.8699999999999903
0
LINE
8
BLACK
6
CONTINUOUS
10
223.5499999999999829
20
-96.8699999999999903
11
223.5499999999999829
21
-94.4699999999999989
0
LINE
8
BLACK
6
CONTINUOUS
10
223.5499999999999829
20
-94.4699999999999989
11
224.9499999999999886
21
-94.4699999999999989
0
LINE
8
BLACK
6
CONTINUOUS
10
224.9499999999999886
20
-94.4699999999999989
11
224.9499999999999886
21
-96.8699999999999903
0
LINE
8
BLACK
6
CONTINUOUS
10
227.4899999999999807
20
-96.8699999999999903
11
226.0900000000000034
21
-96.8699999999999903
0
LINE
8
BLACK
6
CONTINUOUS
10
226.0900000000000034
20
-96.8699999999999903
11
226.0900000000000034
21
-94.4699999999999989
0
LINE
8
BLACK
6
CONTINUOUS
10
226.0900000000000034
20
-94.4699999999999989
11
227.4899999999999807
21
-94.4699999999999989
0
LINE
8
BLACK
6
CONTINUOUS
10
227.4899999999999807
20
-94.4699999999999989
11
227.4899999999999807
21
-96.8699999999999903
0
LINE
8
BLACK
6
CONTINUOUS
10
230.0300000000000011
20
-96.8699999999999903
11
228.6299999999999955
21
-96.8699999999999903
0
LINE
8
BLACK
6
CONTINUOUS
10
228.6299999999999955
20
-96.8699999999999903
11
228.6299999999999955
21
-94.4699999999999989
0
LINE
8
BLACK
6
CONTINUOUS
10
228.6299999999999955
20
-94.4699999999999989
11
230.0300000000000011
21
-94.4699999999999989
0
LINE
8
BLACK
6
CONTINUOUS
10
230.0300000000000011
20
-94.4699999999999989
11
230.0300000000000011
21
-96.8699999999999903
0
LINE
8
BLACK
6
CONTINUOUS
10
232.5699999999999932
20
-96.8699999999999903
11
231.1699999999999875
21
-96.8699999999999903
0
LINE
8
BLACK
6
CONTINUOUS
10
231.1699999999999875
20
-96.8699999999999903
11
231.1699999999999875
21
-94.4699999999999989
0
LINE
8
BLACK
6
CONTINUOUS
10
231.1699999999999875
20
-94.4699999999999989
11
232.5699999999999932
21
-94.4699999999999989
0
LINE
8
BLACK
6
CONTINUOUS
10
232.5699999999999932
20
-94.4699999999999989
11
232.5699999999999932
21
-96.8699999999999903
0
LINE
8
BLACK
6
CONTINUOUS
10
235.1099999999999852
20
-96.8699999999999903
11
233.7099999999999795
21
-96.8699999999999903
0
LINE
8
BLACK
6
CONTINUOUS
10
233.7099999999999795
20
-96.8699999999999903
11
233.7099999999999795
21
-94.4699999999999989
0
LINE
8
BLACK
6
CONTINUOUS
10
233.7099999999999795
20
-94.4699999999999989
11
235.1099999999999852
21
-94.4699999999999989
0
LINE
8
BLACK
6
CONTINUOUS
10
235.1099999999999852
20
-94.4699999999999989
11
235.1099999999999852
21
-96.8699999999999903
0
LINE
8
BLACK
6
CONTINUOUS
10
182.5549999999999784
20
-95.5450000000000017
11
180.0449999999999875
21
-95.5450000000000017
0
LINE
8
BLACK
6
CONTINUOUS
10
180.0449999999999875
20
-95.5450000000000017
11
180.0449999999999875
21
-94.5450000000000017
0
LINE
8
BLACK
6
CONTINUOUS
10
180.0449999999999875
20
-94.5450000000000017
11
182.5549999999999784
21
-94.5450000000000017
0
LINE
8
BLACK
6
CONTINUOUS
10
182.5549999999999784
20
-94.5450000000000017
11
182.5549999999999784
21
-95.5450000000000017
0
LINE
8
BLACK
6
CONTINUOUS
10
185.8649999999999807
20
-93.0049999999999955
11
183.3549999999999898
21
-93.0049999999999955
0
LINE
8
BLACK
6
CONTINUOUS
10
183.3549999999999898
20
-93.0049999999999955
11
183.3549999999999898
21
-92.0049999999999955
0
LINE
8
BLACK
6
CONTINUOUS
10
183.3549999999999898
20
-92.0049999999999955
11
185.8649999999999807
21
-92.0049999999999955
0
LINE
8
BLACK
6
CONTINUOUS
10
185.8649999999999807
20
-92.0049999999999955
11
185.8649999999999807
21
-93.0049999999999955
0
LINE
8
BLACK
6
CONTINUOUS
10
178.1518439999999828
20
-90.7182689999999923
11
178.2297059999999931
21
-90.7702939999999927
0
LINE
8
BLACK
6
CONTINUOUS
10
178.2297059999999931
20
-90.7702939999999927
11
178.2817309999999793
21
-90.8481559999999888
0
LINE
8
BLACK
6
CONTINUOUS
10
178.2817309999999793
20
-90.8481559999999888
11
178.2999999999999829
21
-90.9399999999999977
0
LINE
8
BLACK
6
CONTINUOUS
10
178.2999999999999829
20
-90.9399999999999977
11
178.2999999999999829
21
-91.6599999999999966
0
LINE
8
BLACK
6
CONTINUOUS
10
178.2999999999999829
20
-91.6599999999999966
11
178.2817309999999793
21
-91.7518439999999913
0
LINE
8
BLACK
6
CONTINUOUS
10
178.2817309999999793
20
-91.7518439999999913
11
178.2297059999999931
21
-91.8297060000000016
0
LINE
8
BLACK
6
CONTINUOUS
10
178.2297059999999931
20
-91.8297060000000016
11
178.1518439999999828
21
-91.881731000000002
0
LINE
8
BLACK
6
CONTINUOUS
10
178.1518439999999828
20
-91.881731000000002
11
178.0600000000000023
21
-91.8999999999999915
0
LINE
8
BLACK
6
CONTINUOUS
10
178.0600000000000023
20
-91.8999999999999915
11
176.039999999999992
21
-91.8999999999999915
0
LINE
8
BLACK
6
CONTINUOUS
10
176.039999999999992
20
-91.8999999999999915
11
175.9481559999999831
21
-91.881731000000002
0
LINE
8
BLACK
6
CONTINUOUS
10
175.9481559999999831
20
-91.881731000000002
11
175.8702940000000012
21
-91.8297060000000016
0
LINE
8
BLACK
6
CONTINUOUS
10
175.8702940000000012
20
-91.8297060000000016
11
175.8182689999999866
21
-91.7518439999999913
0
LINE
8
BLACK
6
CONTINUOUS
10
175.8182689999999866
20
-91.7518439999999913
11
175.7999999999999829
21
-91.6599999999999966
0
LINE
8
BLACK
6
CONTINUOUS
10
175.7999999999999829
20
-91.6599999999999966
11
175.7999999999999829
21
-90.9399999999999977
0
LINE
8
BLACK
6
CONTINUOUS
10
175.7999999999999829
20
-90.9399999999999977
11
175.8182689999999866
21
-90.8481559999999888
0
LINE
8
BLACK
6
CONTINUOUS
10
175.8182689999999866
20
-90.8481559999999888
11
175.8702940000000012
21
-90.7702939999999927
0
LINE
8
BLACK
6
CONTINUOUS
10
175.8702940000000012
20
-90.7702939999999927
11
175.9481559999999831
21
-90.7182689999999923
0
LINE
8
BLACK
6
CONTINUOUS
10
175.9481559999999831
20
-90.7182689999999923
11
176.039999999999992
21
-90.7000000000000028
0
LINE
8
BLACK
6
CONTINUOUS
10
176.039999999999992
20
-90.7000000000000028
11
178.0600000000000023
21
-90.7000000000000028
0
LINE
8
BLACK
6
CONTINUOUS
10
178.0600000000000023
20
-90.7000000000000028
11
178.1518439999999828
21
-90.7182689999999923
0
LINE
8
BLACK
6
CONTINUOUS
10
174.4722079999999949
20
-89.8842539999999985
11
174.5739429999999857
21
-89.9429909999999921
0
LINE
8
BLACK
6
CONTINUOUS
10
174.5739429999999857
20
-89.9429909999999921
11
174.657008999999988
21
-90.0260569999999944
0
LINE
8
BLACK
6
CONTINUOUS
10
174.657008999999988
20
-90.0260569999999944
11
174.7157459999999958
21
-90.1277919999999995
0
LINE
8
BLACK
6
CONTINUOUS
10
174.7157459999999958
20
-90.1277919999999995
11
174.7461500000000001
21
-90.2412629999999893
0
LINE
8
BLACK
6
CONTINUOUS
10
174.7461500000000001
20
-90.2412629999999893
11
174.7461500000000001
21
-90.3587369999999908
0
LINE
8
BLACK
6
CONTINUOUS
10
174.7461500000000001
20
-90.3587369999999908
11
174.7157459999999958
21
-90.4722079999999949
0
LINE
8
BLACK
6
CONTINUOUS
10
174.7157459999999958
20
-90.4722079999999949
11
174.657008999999988
21
-90.5739429999999999
0
LINE
8
BLACK
6
CONTINUOUS
10
174.657008999999988
20
-90.5739429999999999
11
174.5739429999999857
21
-90.6570090000000022
0
LINE
8
BLACK
6
CONTINUOUS
10
174.5739429999999857
20
-90.6570090000000022
11
174.4722079999999949
21
-90.7157459999999958
0
LINE
8
BLACK
6
CONTINUOUS
10
174.4722079999999949
20
-90.7157459999999958
11
174.3587369999999908
21
-90.7461500000000001
0
LINE
8
BLACK
6
CONTINUOUS
10
174.3587369999999908
20
-90.7461500000000001
11
174.2412630000000036
21
-90.7461500000000001
0
LINE
8
BLACK
6
CONTINUOUS
10
174.2412630000000036
20
-90.7461500000000001
11
174.1277919999999995
21
-90.7157459999999958
0
LINE
8
BLACK
6
CONTINUOUS
10
174.1277919999999995
20
-90.7157459999999958
11
174.0260569999999802
21
-90.6570090000000022
0
LINE
8
BLACK
6
CONTINUOUS
10
174.0260569999999802
20
-90.6570090000000022
11
173.9429909999999779
21
-90.5739429999999999
0
LINE
8
BLACK
6
CONTINUOUS
10
173.9429909999999779
20
-90.5739429999999999
11
173.8842539999999985
21
-90.4722079999999949
0
LINE
8
BLACK
6
CONTINUOUS
10
173.8842539999999985
20
-90.4722079999999949
11
173.8538499999999942
21
-90.3587369999999908
0
LINE
8
BLACK
6
CONTINUOUS
10
173.8538499999999942
20
-90.3587369999999908
11
173.8538499999999942
21
-90.2412629999999893
0
LINE
8
BLACK
6
CONTINUOUS
10
173.8538499999999942
20
-90.2412629999999893
11
173.8842539999999985
21
-90.1277919999999995
0
LINE
8
BLACK
6
CONTINUOUS
10
173.8842539999999985
20
-90.1277919999999995
11
173.9429909999999779
21
-90.0260569999999944
0
LINE
8
BLACK
6
CONTINUOUS
10
173.9429909999999779
20
-90.0260569999999944
11
174.0260569999999802
21
-89.9429909999999921
0
LINE
8
BLACK
6
CONTINUOUS
10
174.0260569999999802
20
-89.9429909999999921
11
174.1277919999999995
21
-89.8842539999999985
0
LINE
8
BLACK
6
CONTINUOUS
10
174.1277919999999995
20
-89.8842539999999985
11
174.2412630000000036
21
-89.8538499999999942
0
LINE
8
BLACK
6
CONTINUOUS
10
174.2412630000000036
20
-89.8538499999999942
11
174.3587369999999908
21
-89.8538499999999942
0
LINE
8
BLACK
6
CONTINUOUS
10
174.3587369999999908
20
-89.8538499999999942
11
174.4722079999999949
21
-89.8842539999999985
0
LINE
8
BLACK
6
CONTINUOUS
10
182.5549999999999784
20
-90.4649999999999892
11
180.0449999999999875
21
-90.4649999999999892
0
LINE
8
BLACK
6
CONTINUOUS
10
180.0449999999999875
20
-90.4649999999999892
11
180.0449999999999875
21
-89.4649999999999892
0
LINE
8
BLACK
6
CONTINUOUS
10
180.0449999999999875
20
-89.4649999999999892
11
182.5549999999999784
21
-89.4649999999999892
0
LINE
8
BLACK
6
CONTINUOUS
10
182.5549999999999784
20
-89.4649999999999892
11
182.5549999999999784
21
-90.4649999999999892
0
LINE
8
BLACK
6
CONTINUOUS
10
178.1518439999999828
20
-88.2182689999999923
11
178.2297059999999931
21
-88.2702939999999927
0
LINE
8
BLACK
6
CONTINUOUS
10
178.2297059999999931
20
-88.2702939999999927
11
178.2817309999999793
21
-88.348156000000003
0
LINE
8
BLACK
6
CONTINUOUS
10
178.2817309999999793
20
-88.348156000000003
11
178.2999999999999829
21
-88.4399999999999977
0
LINE
8
BLACK
6
CONTINUOUS
10
178.2999999999999829
20
-88.4399999999999977
11
178.2999999999999829
21
-89.1599999999999966
0
LINE
8
BLACK
6
CONTINUOUS
10
178.2999999999999829
20
-89.1599999999999966
11
178.2817309999999793
21
-89.2518439999999913
0
LINE
8
BLACK
6
CONTINUOUS
10
178.2817309999999793
20
-89.2518439999999913
11
178.2297059999999931
21
-89.3297060000000016
0
LINE
8
BLACK
6
CONTINUOUS
10
178.2297059999999931
20
-89.3297060000000016
11
178.1518439999999828
21
-89.381731000000002
0
LINE
8
BLACK
6
CONTINUOUS
10
178.1518439999999828
20
-89.381731000000002
11
178.0600000000000023
21
-89.3999999999999915
0
LINE
8
BLACK
6
CONTINUOUS
10
178.0600000000000023
20
-89.3999999999999915
11
176.039999999999992
21
-89.3999999999999915
0
LINE
8
BLACK
6
CONTINUOUS
10
176.039999999999992
20
-89.3999999999999915
11
175.9481559999999831
21
-89.381731000000002
0
LINE
8
BLACK
6
CONTINUOUS
10
175.9481559999999831
20
-89.381731000000002
11
175.8702940000000012
21
-89.3297060000000016
0
LINE
8
BLACK
6
CONTINUOUS
10
175.8702940000000012
20
-89.3297060000000016
11
175.8182689999999866
21
-89.2518439999999913
0
LINE
8
BLACK
6
CONTINUOUS
10
175.8182689999999866
20
-89.2518439999999913
11
175.7999999999999829
21
-89.1599999999999966
0
LINE
8
BLACK
6
CONTINUOUS
10
175.7999999999999829
20
-89.1599999999999966
11
175.7999999999999829
21
-88.4399999999999977
0
LINE
8
BLACK
6
CONTINUOUS
10
175.7999999999999829
20
-88.4399999999999977
11
175.8182689999999866
21
-88.348156000000003
0
LINE
8
BLACK
6
CONTINUOUS
10
175.8182689999999866
20
-88.348156000000003
11
175.8702940000000012
21
-88.2702939999999927
0
LINE
8
BLACK
6
CONTINUOUS
10
175.8702940000000012
20
-88.2702939999999927
11
175.9481559999999831
21
-88.2182689999999923
0
LINE
8
BLACK
6
CONTINUOUS
10
175.9481559999999831
20
-88.2182689999999923
11
176.039999999999992
21
-88.2000000000000028
0
LINE
8
BLACK
6
CONTINUOUS
10
176.039999999999992
20
-88.2000000000000028
11
178.0600000000000023
21
-88.2000000000000028
0
LINE
8
BLACK
6
CONTINUOUS
10
178.0600000000000023
20
-88.2000000000000028
11
178.1518439999999828
21
-88.2182689999999923
0
LINE
8
BLACK
6
CONTINUOUS
10
235.25
20
-89.0999999999999943
11
233.25
21
-89.0999999999999943
0
LINE
8
BLACK
6
CONTINUOUS
10
233.25
20
-89.0999999999999943
11
233.25
21
-87.5
0
LINE
8
BLACK
6
CONTINUOUS
10
233.25
20
-87.5
11
235.25
21
-87.5
0
LINE
8
BLACK
6
CONTINUOUS
10
235.25
20
-87.5
11
235.25
21
-89.0999999999999943
0
LINE
8
BLACK
6
CONTINUOUS
10
185.8649999999999807
20
-87.9249999999999972
11
183.3549999999999898
21
-87.9249999999999972
0
LINE
8
BLACK
6
CONTINUOUS
10
183.3549999999999898
20
-87.9249999999999972
11
183.3549999999999898
21
-86.9249999999999972
0
LINE
8
BLACK
6
CONTINUOUS
10
183.3549999999999898
20
-86.9249999999999972
11
185.8649999999999807
21
-86.9249999999999972
0
LINE
8
BLACK
6
CONTINUOUS
10
185.8649999999999807
20
-86.9249999999999972
11
185.8649999999999807
21
-87.9249999999999972
0
LINE
8
BLACK
6
CONTINUOUS
10
174.4722079999999949
20
-86.8842539999999985
11
174.5739429999999857
21
-86.9429909999999921
0
LINE
8
BLACK
6
CONTINUOUS
10
174.5739429999999857
20
-86.9429909999999921
11
174.657008999999988
21
-87.0260569999999944
0
LINE
8
BLACK
6
CONTINUOUS
10
174.657008999999988
20
-87.0260569999999944
11
174.7157459999999958
21
-87.1277919999999995
0
LINE
8
BLACK
6
CONTINUOUS
10
174.7157459999999958
20
-87.1277919999999995
11
174.7461500000000001
21
-87.2412629999999893
0
LINE
8
BLACK
6
CONTINUOUS
10
174.7461500000000001
20
-87.2412629999999893
11
174.7461500000000001
21
-87.3587369999999908
0
LINE
8
BLACK
6
CONTINUOUS
10
174.7461500000000001
20
-87.3587369999999908
11
174.7157459999999958
21
-87.4722079999999949
0
LINE
8
BLACK
6
CONTINUOUS
10
174.7157459999999958
20
-87.4722079999999949
11
174.657008999999988
21
-87.5739429999999999
0
LINE
8
BLACK
6
CONTINUOUS
10
174.657008999999988
20
-87.5739429999999999
11
174.5739429999999857
21
-87.6570090000000022
0
LINE
8
BLACK
6
CONTINUOUS
10
174.5739429999999857
20
-87.6570090000000022
11
174.4722079999999949
21
-87.7157459999999958
0
LINE
8
BLACK
6
CONTINUOUS
10
174.4722079999999949
20
-87.7157459999999958
11
174.3587369999999908
21
-87.7461500000000001
0
LINE
8
BLACK
6
CONTINUOUS
10
174.3587369999999908
20
-87.7461500000000001
11
174.2412630000000036
21
-87.7461500000000001
0
LINE
8
BLACK
6
CONTINUOUS
10
174.2412630000000036
20
-87.7461500000000001
11
174.1277919999999995
21
-87.7157459999999958
0
LINE
8
BLACK
6
CONTINUOUS
10
174.1277919999999995
20
-87.7157459999999958
11
174.0260569999999802
21
-87.6570090000000022
0
LINE
8
BLACK
6
CONTINUOUS
10
174.0260569999999802
20
-87.6570090000000022
11
173.9429909999999779
21
-87.5739429999999999
0
LINE
8
BLACK
6
CONTINUOUS
10
173.9429909999999779
20
-87.5739429999999999
11
173.8842539999999985
21
-87.4722079999999949
0
LINE
8
BLACK
6
CONTINUOUS
10
173.8842539999999985
20
-87.4722079999999949
11
173.8538499999999942
21
-87.3587369999999908
0
LINE
8
BLACK
6
CONTINUOUS
10
173.8538499999999942
20
-87.3587369999999908
11
173.8538499999999942
21
-87.2412629999999893
0
LINE
8
BLACK
6
CONTINUOUS
10
173.8538499999999942
20
-87.2412629999999893
11
173.8842539999999985
21
-87.1277919999999995
0
LINE
8
BLACK
6
CONTINUOUS
10
173.8842539999999985
20
-87.1277919999999995
11
173.9429909999999779
21
-87.0260569999999944
0
LINE
8
BLACK
6
CONTINUOUS
10
173.9429909999999779
20
-87.0260569999999944
11
174.0260569999999802
21
-86.9429909999999921
0
LINE
8
BLACK
6
CONTINUOUS
10
174.0260569999999802
20
-86.9429909999999921
11
174.1277919999999995
21
-86.8842539999999985
0
LINE
8
BLACK
6
CONTINUOUS
10
174.1277919999999995
20
-86.8842539999999985
11
174.2412630000000036
21
-86.8538499999999942
0
LINE
8
BLACK
6
CONTINUOUS
10
174.2412630000000036
20
-86.8538499999999942
11
174.3587369999999908
21
-86.8538499999999942
0
LINE
8
BLACK
6
CONTINUOUS
10
174.3587369999999908
20
-86.8538499999999942
11
174.4722079999999949
21
-86.8842539999999985
0
LINE
8
BLACK
6
CONTINUOUS
10
178.1518439999999828
20
-85.7182689999999923
11
178.2297059999999931
21
-85.7702939999999927
0
LINE
8
BLACK
6
CONTINUOUS
10
178.2297059999999931
20
-85.7702939999999927
11
178.2817309999999793
21
-85.848156000000003
0
LINE
8
BLACK
6
CONTINUOUS
10
178.2817309999999793
20
-85.848156000000003
11
178.2999999999999829
21
-85.9399999999999977
0
LINE
8
BLACK
6
CONTINUOUS
10
178.2999999999999829
20
-85.9399999999999977
11
178.2999999999999829
21
-86.6599999999999966
0
LINE
8
BLACK
6
CONTINUOUS
10
178.2999999999999829
20
-86.6599999999999966
11
178.2817309999999793
21
-86.7518439999999913
0
LINE
8
BLACK
6
CONTINUOUS
10
178.2817309999999793
20
-86.7518439999999913
11
178.2297059999999931
21
-86.8297060000000016
0
LINE
8
BLACK
6
CONTINUOUS
10
178.2297059999999931
20
-86.8297060000000016
11
178.1518439999999828
21
-86.881731000000002
0
LINE
8
BLACK
6
CONTINUOUS
10
178.1518439999999828
20
-86.881731000000002
11
178.0600000000000023
21
-86.8999999999999915
0
LINE
8
BLACK
6
CONTINUOUS
10
178.0600000000000023
20
-86.8999999999999915
11
176.039999999999992
21
-86.8999999999999915
0
LINE
8
BLACK
6
CONTINUOUS
10
176.039999999999992
20
-86.8999999999999915
11
175.9481559999999831
21
-86.881731000000002
0
LINE
8
BLACK
6
CONTINUOUS
10
175.9481559999999831
20
-86.881731000000002
11
175.8702940000000012
21
-86.8297060000000016
0
LINE
8
BLACK
6
CONTINUOUS
10
175.8702940000000012
20
-86.8297060000000016
11
175.8182689999999866
21
-86.7518439999999913
0
LINE
8
BLACK
6
CONTINUOUS
10
175.8182689999999866
20
-86.7518439999999913
11
175.7999999999999829
21
-86.6599999999999966
0
LINE
8
BLACK
6
CONTINUOUS
10
175.7999999999999829
20
-86.6599999999999966
11
175.7999999999999829
21
-85.9399999999999977
0
LINE
8
BLACK
6
CONTINUOUS
10
175.7999999999999829
20
-85.9399999999999977
11
175.8182689999999866
21
-85.848156000000003
0
LINE
8
BLACK
6
CONTINUOUS
10
175.8182689999999866
20
-85.848156000000003
11
175.8702940000000012
21
-85.7702939999999927
0
LINE
8
BLACK
6
CONTINUOUS
10
175.8702940000000012
20
-85.7702939999999927
11
175.9481559999999831
21
-85.7182689999999923
0
LINE
8
BLACK
6
CONTINUOUS
10
175.9481559999999831
20
-85.7182689999999923
11
176.039999999999992
21
-85.7000000000000028
0
LINE
8
BLACK
6
CONTINUOUS
10
176.039999999999992
20
-85.7000000000000028
11
178.0600000000000023
21
-85.7000000000000028
0
LINE
8
BLACK
6
CONTINUOUS
10
178.0600000000000023
20
-85.7000000000000028
11
178.1518439999999828
21
-85.7182689999999923
0
LINE
8
BLACK
6
CONTINUOUS
10
235.25
20
-85.8999999999999915
11
233.25
21
-85.8999999999999915
0
LINE
8
BLACK
6
CONTINUOUS
10
233.25
20
-85.8999999999999915
11
233.25
21
-84.2999999999999972
0
LINE
8
BLACK
6
CONTINUOUS
10
233.25
20
-84.2999999999999972
11
235.25
21
-84.2999999999999972
0
LINE
8
BLACK
6
CONTINUOUS
10
235.25
20
-84.2999999999999972
11
235.25
21
-85.8999999999999915
0
LINE
8
BLACK
6
CONTINUOUS
10
182.5549999999999784
20
-85.3849999999999909
11
180.0449999999999875
21
-85.3849999999999909
0
LINE
8
BLACK
6
CONTINUOUS
10
180.0449999999999875
20
-85.3849999999999909
11
180.0449999999999875
21
-84.3849999999999909
0
LINE
8
BLACK
6
CONTINUOUS
10
180.0449999999999875
20
-84.3849999999999909
11
182.5549999999999784
21
-84.3849999999999909
0
LINE
8
BLACK
6
CONTINUOUS
10
182.5549999999999784
20
-84.3849999999999909
11
182.5549999999999784
21
-85.3849999999999909
0
LINE
8
BLACK
6
CONTINUOUS
10
185.8649999999999807
20
-82.8449999999999989
11
183.3549999999999898
21
-82.8449999999999989
0
LINE
8
BLACK
6
CONTINUOUS
10
183.3549999999999898
20
-82.8449999999999989
11
183.3549999999999898
21
-81.8449999999999989
0
LINE
8
BLACK
6
CONTINUOUS
10
183.3549999999999898
20
-81.8449999999999989
11
185.8649999999999807
21
-81.8449999999999989
0
LINE
8
BLACK
6
CONTINUOUS
10
185.8649999999999807
20
-81.8449999999999989
11
185.8649999999999807
21
-82.8449999999999989
0
LINE
8
BLACK
6
CONTINUOUS
10
175.125
20
-82.4249999999999972
11
174.125
21
-82.4249999999999972
0
LINE
8
BLACK
6
CONTINUOUS
10
174.125
20
-82.4249999999999972
11
174.125
21
-80.875
0
LINE
8
BLACK
6
CONTINUOUS
10
174.125
20
-80.875
11
175.125
21
-80.875
0
LINE
8
BLACK
6
CONTINUOUS
10
175.125
20
-80.875
11
175.125
21
-82.4249999999999972
0
LINE
8
BLACK
6
CONTINUOUS
10
176.8249999999999886
20
-82.4249999999999972
11
175.8249999999999886
21
-82.4249999999999972
0
LINE
8
BLACK
6
CONTINUOUS
10
175.8249999999999886
20
-82.4249999999999972
11
175.8249999999999886
21
-80.875
0
LINE
8
BLACK
6
CONTINUOUS
10
175.8249999999999886
20
-80.875
11
176.8249999999999886
21
-80.875
0
LINE
8
BLACK
6
CONTINUOUS
10
176.8249999999999886
20
-80.875
11
176.8249999999999886
21
-82.4249999999999972
0
LINE
8
BLACK
6
CONTINUOUS
10
182.5549999999999784
20
-80.3049999999999926
11
180.0449999999999875
21
-80.3049999999999926
0
LINE
8
BLACK
6
CONTINUOUS
10
180.0449999999999875
20
-80.3049999999999926
11
180.0449999999999875
21
-79.3049999999999926
0
LINE
8
BLACK
6
CONTINUOUS
10
180.0449999999999875
20
-79.3049999999999926
11
182.5549999999999784
21
-79.3049999999999926
0
LINE
8
BLACK
6
CONTINUOUS
10
182.5549999999999784
20
-79.3049999999999926
11
182.5549999999999784
21
-80.3049999999999926
0
LINE
8
BLACK
6
CONTINUOUS
10
174.2722080000000062
20
-78.6092539999999929
11
174.373942999999997
21
-78.6679910000000007
0
LINE
8
BLACK
6
CONTINUOUS
10
174.373942999999997
20
-78.6679910000000007
11
174.4570089999999993
21
-78.751057000000003
0
LINE
8
BLACK
6
CONTINUOUS
10
174.4570089999999993
20
-78.751057000000003
11
174.5157459999999787
21
-78.8527919999999938
0
LINE
8
BLACK
6
CONTINUOUS
10
174.5157459999999787
20
-78.8527919999999938
11
174.546149999999983
21
-78.9662629999999979
0
LINE
8
BLACK
6
CONTINUOUS
10
174.546149999999983
20
-78.9662629999999979
11
174.546149999999983
21
-79.0837369999999993
0
LINE
8
BLACK
6
CONTINUOUS
10
174.546149999999983
20
-79.0837369999999993
11
174.5157459999999787
21
-79.1972080000000034
0
LINE
8
BLACK
6
CONTINUOUS
10
174.5157459999999787
20
-79.1972080000000034
11
174.4570089999999993
21
-79.2989429999999942
0
LINE
8
BLACK
6
CONTINUOUS
10
174.4570089999999993
20
-79.2989429999999942
11
174.373942999999997
21
-79.3820089999999965
0
LINE
8
BLACK
6
CONTINUOUS
10
174.373942999999997
20
-79.3820089999999965
11
174.2722080000000062
21
-79.4407459999999901
0
LINE
8
BLACK
6
CONTINUOUS
10
174.2722080000000062
20
-79.4407459999999901
11
174.1587370000000021
21
-79.4711499999999944
0
LINE
8
BLACK
6
CONTINUOUS
10
174.1587370000000021
20
-79.4711499999999944
11
174.0412629999999865
21
-79.4711499999999944
0
LINE
8
BLACK
6
CONTINUOUS
10
174.0412629999999865
20
-79.4711499999999944
11
173.9277919999999824
21
-79.4407459999999901
0
LINE
8
BLACK
6
CONTINUOUS
10
173.9277919999999824
20
-79.4407459999999901
11
173.8260569999999916
21
-79.3820089999999965
0
LINE
8
BLACK
6
CONTINUOUS
10
173.8260569999999916
20
-79.3820089999999965
11
173.7429909999999893
21
-79.2989429999999942
0
LINE
8
BLACK
6
CONTINUOUS
10
173.7429909999999893
20
-79.2989429999999942
11
173.6842539999999815
21
-79.1972080000000034
0
LINE
8
BLACK
6
CONTINUOUS
10
173.6842539999999815
20
-79.1972080000000034
11
173.6538500000000056
21
-79.0837369999999993
0
LINE
8
BLACK
6
CONTINUOUS
10
173.6538500000000056
20
-79.0837369999999993
11
173.6538500000000056
21
-78.9662629999999979
0
LINE
8
BLACK
6
CONTINUOUS
10
173.6538500000000056
20
-78.9662629999999979
11
173.6842539999999815
21
-78.8527919999999938
0
LINE
8
BLACK
6
CONTINUOUS
10
173.6842539999999815
20
-78.8527919999999938
11
173.7429909999999893
21
-78.751057000000003
0
LINE
8
BLACK
6
CONTINUOUS
10
173.7429909999999893
20
-78.751057000000003
11
173.8260569999999916
21
-78.6679910000000007
0
LINE
8
BLACK
6
CONTINUOUS
10
173.8260569999999916
20
-78.6679910000000007
11
173.9277919999999824
21
-78.6092539999999929
0
LINE
8
BLACK
6
CONTINUOUS
10
173.9277919999999824
20
-78.6092539999999929
11
174.0412629999999865
21
-78.5788500000000028
0
LINE
8
BLACK
6
CONTINUOUS
10
174.0412629999999865
20
-78.5788500000000028
11
174.1587370000000021
21
-78.5788500000000028
0
LINE
8
BLACK
6
CONTINUOUS
10
174.1587370000000021
20
-78.5788500000000028
11
174.2722080000000062
21
-78.6092539999999929
0
LINE
8
BLACK
6
CONTINUOUS
10
177.0222079999999778
20
-78.6092539999999929
11
177.123942999999997
21
-78.6679910000000007
0
LINE
8
BLACK
6
CONTINUOUS
10
177.123942999999997
20
-78.6679910000000007
11
177.2070089999999993
21
-78.751057000000003
0
LINE
8
BLACK
6
CONTINUOUS
10
177.2070089999999993
20
-78.751057000000003
11
177.2657459999999787
21
-78.8527919999999938
0
LINE
8
BLACK
6
CONTINUOUS
10
177.2657459999999787
20
-78.8527919999999938
11
177.296149999999983
21
-78.9662629999999979
0
LINE
8
BLACK
6
CONTINUOUS
10
177.296149999999983
20
-78.9662629999999979
11
177.296149999999983
21
-79.0837369999999993
0
LINE
8
BLACK
6
CONTINUOUS
10
177.296149999999983
20
-79.0837369999999993
11
177.2657459999999787
21
-79.1972080000000034
0
LINE
8
BLACK
6
CONTINUOUS
10
177.2657459999999787
20
-79.1972080000000034
11
177.2070089999999993
21
-79.2989429999999942
0
LINE
8
BLACK
6
CONTINUOUS
10
177.2070089999999993
20
-79.2989429999999942
11
177.123942999999997
21
-79.3820089999999965
0
LINE
8
BLACK
6
CONTINUOUS
10
177.123942999999997
20
-79.3820089999999965
11
177.0222079999999778
21
-79.4407459999999901
0
LINE
8
BLACK
6
CONTINUOUS
10
177.0222079999999778
20
-79.4407459999999901
11
176.9087370000000021
21
-79.4711499999999944
0
LINE
8
BLACK
6
CONTINUOUS
10
176.9087370000000021
20
-79.4711499999999944
11
176.7912629999999865
21
-79.4711499999999944
0
LINE
8
BLACK
6
CONTINUOUS
10
176.7912629999999865
20
-79.4711499999999944
11
176.6777919999999824
21
-79.4407459999999901
0
LINE
8
BLACK
6
CONTINUOUS
10
176.6777919999999824
20
-79.4407459999999901
11
176.5760569999999916
21
-79.3820089999999965
0
LINE
8
BLACK
6
CONTINUOUS
10
176.5760569999999916
20
-79.3820089999999965
11
176.4929909999999893
21
-79.2989429999999942
0
LINE
8
BLACK
6
CONTINUOUS
10
176.4929909999999893
20
-79.2989429999999942
11
176.4342539999999815
21
-79.1972080000000034
0
LINE
8
BLACK
6
CONTINUOUS
10
176.4342539999999815
20
-79.1972080000000034
11
176.4038500000000056
21
-79.0837369999999993
0
LINE
8
BLACK
6
CONTINUOUS
10
176.4038500000000056
20
-79.0837369999999993
11
176.4038500000000056
21
-78.9662629999999979
0
LINE
8
BLACK
6
CONTINUOUS
10
176.4038500000000056
20
-78.9662629999999979
11
176.4342539999999815
21
-78.8527919999999938
0
LINE
8
BLACK
6
CONTINUOUS
10
176.4342539999999815
20
-78.8527919999999938
11
176.4929909999999893
21
-78.751057000000003
0
LINE
8
BLACK
6
CONTINUOUS
10
176.4929909999999893
20
-78.751057000000003
11
176.5760569999999916
21
-78.6679910000000007
0
LINE
8
BLACK
6
CONTINUOUS
10
176.5760569999999916
20
-78.6679910000000007
11
176.6777919999999824
21
-78.6092539999999929
0
LINE
8
BLACK
6
CONTINUOUS
10
176.6777919999999824
20
-78.6092539999999929
11
176.7912629999999865
21
-78.5788500000000028
0
LINE
8
BLACK
6
CONTINUOUS
10
176.7912629999999865
20
-78.5788500000000028
11
176.9087370000000021
21
-78.5788500000000028
0
LINE
8
BLACK
6
CONTINUOUS
10
176.9087370000000021
20
-78.5788500000000028
11
177.0222079999999778
21
-78.6092539999999929
0
LINE
8
BLACK
6
CONTINUOUS
10
214.789999999999992
20
-78.9299999999999926
11
213.3899999999999864
21
-78.9299999999999926
0
LINE
8
BLACK
6
CONTINUOUS
10
213.3899999999999864
20
-78.9299999999999926
11
213.3899999999999864
21
-76.5300000000000011
0
LINE
8
BLACK
6
CONTINUOUS
10
213.3899999999999864
20
-76.5300000000000011
11
214.789999999999992
21
-76.5300000000000011
0
LINE
8
BLACK
6
CONTINUOUS
10
214.789999999999992
20
-76.5300000000000011
11
214.789999999999992
21
-78.9299999999999926
0
LINE
8
BLACK
6
CONTINUOUS
10
217.3299999999999841
20
-78.9299999999999926
11
215.9299999999999784
21
-78.9299999999999926
0
LINE
8
BLACK
6
CONTINUOUS
10
215.9299999999999784
20
-78.9299999999999926
11
215.9299999999999784
21
-76.5300000000000011
0
LINE
8
BLACK
6
CONTINUOUS
10
215.9299999999999784
20
-76.5300000000000011
11
217.3299999999999841
21
-76.5300000000000011
0
LINE
8
BLACK
6
CONTINUOUS
10
217.3299999999999841
20
-76.5300000000000011
11
217.3299999999999841
21
-78.9299999999999926
0
LINE
8
BLACK
6
CONTINUOUS
10
219.8699999999999761
20
-78.9299999999999926
11
218.4699999999999989
21
-78.9299999999999926
0
LINE
8
BLACK
6
CONTINUOUS
10
218.4699999999999989
20
-78.9299999999999926
11
218.4699999999999989
21
-76.5300000000000011
0
LINE
8
BLACK
6
CONTINUOUS
10
218.4699999999999989
20
-76.5300000000000011
11
219.8699999999999761
21
-76.5300000000000011
0
LINE
8
BLACK
6
CONTINUOUS
10
219.8699999999999761
20
-76.5300000000000011
11
219.8699999999999761
21
-78.9299999999999926
0
LINE
8
BLACK
6
CONTINUOUS
10
222.4099999999999966
20
-78.9299999999999926
11
221.0099999999999909
21
-78.9299999999999926
0
LINE
8
BLACK
6
CONTINUOUS
10
221.0099999999999909
20
-78.9299999999999926
11
221.0099999999999909
21
-76.5300000000000011
0
LINE
8
BLACK
6
CONTINUOUS
10
221.0099999999999909
20
-76.5300000000000011
11
222.4099999999999966
21
-76.5300000000000011
0
LINE
8
BLACK
6
CONTINUOUS
10
222.4099999999999966
20
-76.5300000000000011
11
222.4099999999999966
21
-78.9299999999999926
0
LINE
8
BLACK
6
CONTINUOUS
10
224.9499999999999886
20
-78.9299999999999926
11
223.5499999999999829
21
-78.9299999999999926
0
LINE
8
BLACK
6
CONTINUOUS
10
223.5499999999999829
20
-78.9299999999999926
11
223.5499999999999829
21
-76.5300000000000011
0
LINE
8
BLACK
6
CONTINUOUS
10
223.5499999999999829
20
-76.5300000000000011
11
224.9499999999999886
21
-76.5300000000000011
0
LINE
8
BLACK
6
CONTINUOUS
10
224.9499999999999886
20
-76.5300000000000011
11
224.9499999999999886
21
-78.9299999999999926
0
LINE
8
BLACK
6
CONTINUOUS
10
227.4899999999999807
20
-78.9299999999999926
11
226.0900000000000034
21
-78.9299999999999926
0
LINE
8
BLACK
6
CONTINUOUS
10
226.0900000000000034
20
-78.9299999999999926
11
226.0900000000000034
21
-76.5300000000000011
0
LINE
8
BLACK
6
CONTINUOUS
10
226.0900000000000034
20
-76.5300000000000011
11
227.4899999999999807
21
-76.5300000000000011
0
LINE
8
BLACK
6
CONTINUOUS
10
227.4899999999999807
20
-76.5300000000000011
11
227.4899999999999807
21
-78.9299999999999926
0
LINE
8
BLACK
6
CONTINUOUS
10
230.0300000000000011
20
-78.9299999999999926
11
228.6299999999999955
21
-78.9299999999999926
0
LINE
8
BLACK
6
CONTINUOUS
10
228.6299999999999955
20
-78.9299999999999926
11
228.6299999999999955
21
-76.5300000000000011
0
LINE
8
BLACK
6
CONTINUOUS
10
228.6299999999999955
20
-76.5300000000000011
11
230.0300000000000011
21
-76.5300000000000011
0
LINE
8
BLACK
6
CONTINUOUS
10
230.0300000000000011
20
-76.5300000000000011
11
230.0300000000000011
21
-78.9299999999999926
0
LINE
8
BLACK
6
CONTINUOUS
10
232.5699999999999932
20
-78.9299999999999926
11
231.1699999999999875
21
-78.9299999999999926
0
LINE
8
BLACK
6
CONTINUOUS
10
231.1699999999999875
20
-78.9299999999999926
11
231.1699999999999875
21
-76.5300000000000011
0
LINE
8
BLACK
6
CONTINUOUS
10
231.1699999999999875
20
-76.5300000000000011
11
232.5699999999999932
21
-76.5300000000000011
0
LINE
8
BLACK
6
CONTINUOUS
10
232.5699999999999932
20
-76.5300000000000011
11
232.5699999999999932
21
-78.9299999999999926
0
LINE
8
BLACK
6
CONTINUOUS
10
235.1099999999999852
20
-78.9299999999999926
11
233.7099999999999795
21
-78.9299999999999926
0
LINE
8
BLACK
6
CONTINUOUS
10
233.7099999999999795
20
-78.9299999999999926
11
233.7099999999999795
21
-76.5300000000000011
0
LINE
8
BLACK
6
CONTINUOUS
10
233.7099999999999795
20
-76.5300000000000011
11
235.1099999999999852
21
-76.5300000000000011
0
LINE
8
BLACK
6
CONTINUOUS
10
235.1099999999999852
20
-76.5300000000000011
11
235.1099999999999852
21
-78.9299999999999926
0
LINE
8
BLACK
6
CONTINUOUS
10
185.8649999999999807
20
-77.7650000000000006
11
183.3549999999999898
21
-77.7650000000000006
0
LINE
8
BLACK
6
CONTINUOUS
10
183.3549999999999898
20
-77.7650000000000006
11
183.3549999999999898
21
-76.7650000000000006
0
LINE
8
BLACK
6
CONTINUOUS
10
183.3549999999999898
20
-76.7650000000000006
11
185.8649999999999807
21
-76.7650000000000006
0
LINE
8
BLACK
6
CONTINUOUS
10
185.8649999999999807
20
-76.7650000000000006
11
185.8649999999999807
21
-77.7650000000000006
0
LINE
8
BLACK
6
CONTINUOUS
10
175.125
20
-77.1749999999999972
11
174.125
21
-77.1749999999999972
0
LINE
8
BLACK
6
CONTINUOUS
10
174.125
20
-77.1749999999999972
11
174.125
21
-75.625
0
LINE
8
BLACK
6
CONTINUOUS
10
174.125
20
-75.625
11
175.125
21
-75.625
0
LINE
8
BLACK
6
CONTINUOUS
10
175.125
20
-75.625
11
175.125
21
-77.1749999999999972
0
LINE
8
BLACK
6
CONTINUOUS
10
176.8249999999999886
20
-77.1749999999999972
11
175.8249999999999886
21
-77.1749999999999972
0
LINE
8
BLACK
6
CONTINUOUS
10
175.8249999999999886
20
-77.1749999999999972
11
175.8249999999999886
21
-75.625
0
LINE
8
BLACK
6
CONTINUOUS
10
175.8249999999999886
20
-75.625
11
176.8249999999999886
21
-75.625
0
LINE
8
BLACK
6
CONTINUOUS
10
176.8249999999999886
20
-75.625
11
176.8249999999999886
21
-77.1749999999999972
0
LINE
8
BLACK
6
CONTINUOUS
10
179.7722079999999778
20
-71.7592539999999985
11
179.873942999999997
21
-71.8179909999999921
0
LINE
8
BLACK
6
CONTINUOUS
10
179.873942999999997
20
-71.8179909999999921
11
179.9570089999999993
21
-71.9010569999999944
0
LINE
8
BLACK
6
CONTINUOUS
10
179.9570089999999993
20
-71.9010569999999944
11
180.0157459999999787
21
-72.0027919999999995
0
LINE
8
BLACK
6
CONTINUOUS
10
180.0157459999999787
20
-72.0027919999999995
11
180.046149999999983
21
-72.1162630000000036
0
LINE
8
BLACK
6
CONTINUOUS
10
180.046149999999983
20
-72.1162630000000036
11
180.046149999999983
21
-72.2337369999999908
0
LINE
8
BLACK
6
CONTINUOUS
10
180.046149999999983
20
-72.2337369999999908
11
180.0157459999999787
21
-72.3472079999999949
0
LINE
8
BLACK
6
CONTINUOUS
10
180.0157459999999787
20
-72.3472079999999949
11
179.9570089999999993
21
-72.4489429999999999
0
LINE
8
BLACK
6
CONTINUOUS
10
179.9570089999999993
20
-72.4489429999999999
11
179.873942999999997
21
-72.5320090000000022
0
LINE
8
BLACK
6
CONTINUOUS
10
179.873942999999997
20
-72.5320090000000022
11
179.7722079999999778
21
-72.5907459999999958
0
LINE
8
BLACK
6
CONTINUOUS
10
179.7722079999999778
20
-72.5907459999999958
11
179.6587370000000021
21
-72.6211500000000001
0
LINE
8
BLACK
6
CONTINUOUS
10
179.6587370000000021
20
-72.6211500000000001
11
179.5412629999999865
21
-72.6211500000000001
0
LINE
8
BLACK
6
CONTINUOUS
10
179.5412629999999865
20
-72.6211500000000001
11
179.4277919999999824
21
-72.5907459999999958
0
LINE
8
BLACK
6
CONTINUOUS
10
179.4277919999999824
20
-72.5907459999999958
11
179.3260569999999916
21
-72.5320090000000022
0
LINE
8
BLACK
6
CONTINUOUS
10
179.3260569999999916
20
-72.5320090000000022
11
179.2429909999999893
21
-72.4489429999999999
0
LINE
8
BLACK
6
CONTINUOUS
10
179.2429909999999893
20
-72.4489429999999999
11
179.1842539999999815
21
-72.3472079999999949
0
LINE
8
BLACK
6
CONTINUOUS
10
179.1842539999999815
20
-72.3472079999999949
11
179.1538500000000056
21
-72.2337369999999908
0
LINE
8
BLACK
6
CONTINUOUS
10
179.1538500000000056
20
-72.2337369999999908
11
179.1538500000000056
21
-72.1162630000000036
0
LINE
8
BLACK
6
CONTINUOUS
10
179.1538500000000056
20
-72.1162630000000036
11
179.1842539999999815
21
-72.0027919999999995
0
LINE
8
BLACK
6
CONTINUOUS
10
179.1842539999999815
20
-72.0027919999999995
11
179.2429909999999893
21
-71.9010569999999944
0
LINE
8
BLACK
6
CONTINUOUS
10
179.2429909999999893
20
-71.9010569999999944
11
179.3260569999999916
21
-71.8179909999999921
0
LINE
8
BLACK
6
CONTINUOUS
10
179.3260569999999916
20
-71.8179909999999921
11
179.4277919999999824
21
-71.7592539999999985
0
LINE
8
BLACK
6
CONTINUOUS
10
179.4277919999999824
20
-71.7592539999999985
11
179.5412629999999865
21
-71.7288499999999942
0
LINE
8
BLACK
6
CONTINUOUS
10
179.5412629999999865
20
-71.7288499999999942
11
179.6587370000000021
21
-71.7288499999999942
0
LINE
8
BLACK
6
CONTINUOUS
10
179.6587370000000021
20
-71.7288499999999942
11
179.7722079999999778
21
-71.7592539999999985
0
LINE
8
BLACK
6
CONTINUOUS
10
196.7972079999999835
20
-71.7592539999999985
11
196.8989430000000027
21
-71.8179909999999921
0
LINE
8
BLACK
6
CONTINUOUS
10
196.8989430000000027
20
-71.8179909999999921
11
196.982009000000005
21
-71.9010569999999944
0
LINE
8
BLACK
6
CONTINUOUS
10
196.982009000000005
20
-71.9010569999999944
11
197.0407459999999844
21
-72.0027919999999995
0
LINE
8
BLACK
6
CONTINUOUS
10
197.0407459999999844
20
-72.0027919999999995
11
197.0711499999999887
21
-72.1162630000000036
0
LINE
8
BLACK
6
CONTINUOUS
10
197.0711499999999887
20
-72.1162630000000036
11
197.0711499999999887
21
-72.2337369999999908
0
LINE
8
BLACK
6
CONTINUOUS
10
197.0711499999999887
20
-72.2337369999999908
11
197.0407459999999844
21
-72.3472079999999949
0
LINE
8
BLACK
6
CONTINUOUS
10
197.0407459999999844
20
-72.3472079999999949
11
196.982009000000005
21
-72.4489429999999999
0
LINE
8
BLACK
6
CONTINUOUS
10
196.982009000000005
20
-72.4489429999999999
11
196.8989430000000027
21
-72.5320090000000022
0
LINE
8
BLACK
6
CONTINUOUS
10
196.8989430000000027
20
-72.5320090000000022
11
196.7972079999999835
21
-72.5907459999999958
0
LINE
8
BLACK
6
CONTINUOUS
10
196.7972079999999835
20
-72.5907459999999958
11
196.6837369999999794
21
-72.6211500000000001
0
LINE
8
BLACK
6
CONTINUOUS
10
196.6837369999999794
20
-72.6211500000000001
11
196.5662629999999922
21
-72.6211500000000001
0
LINE
8
BLACK
6
CONTINUOUS
10
196.5662629999999922
20
-72.6211500000000001
11
196.4527919999999881
21
-72.5907459999999958
0
LINE
8
BLACK
6
CONTINUOUS
10
196.4527919999999881
20
-72.5907459999999958
11
196.3510569999999973
21
-72.5320090000000022
0
LINE
8
BLACK
6
CONTINUOUS
10
196.3510569999999973
20
-72.5320090000000022
11
196.267990999999995
21
-72.4489429999999999
0
LINE
8
BLACK
6
CONTINUOUS
10
196.267990999999995
20
-72.4489429999999999
11
196.2092539999999872
21
-72.3472079999999949
0
LINE
8
BLACK
6
CONTINUOUS
10
196.2092539999999872
20
-72.3472079999999949
11
196.1788499999999829
21
-72.2337369999999908
0
LINE
8
BLACK
6
CONTINUOUS
10
196.1788499999999829
20
-72.2337369999999908
11
196.1788499999999829
21
-72.1162630000000036
0
LINE
8
BLACK
6
CONTINUOUS
10
196.1788499999999829
20
-72.1162630000000036
11
196.2092539999999872
21
-72.0027919999999995
0
LINE
8
BLACK
6
CONTINUOUS
10
196.2092539999999872
20
-72.0027919999999995
11
196.267990999999995
21
-71.9010569999999944
0
LINE
8
BLACK
6
CONTINUOUS
10
196.267990999999995
20
-71.9010569999999944
11
196.3510569999999973
21
-71.8179909999999921
0
LINE
8
BLACK
6
CONTINUOUS
10
196.3510569999999973
20
-71.8179909999999921
11
196.4527919999999881
21
-71.7592539999999985
0
LINE
8
BLACK
6
CONTINUOUS
10
196.4527919999999881
20
-71.7592539999999985
11
196.5662629999999922
21
-71.7288499999999942
0
LINE
8
BLACK
6
CONTINUOUS
10
196.5662629999999922
20
-71.7288499999999942
11
196.6837369999999794
21
-71.7288499999999942
0
LINE
8
BLACK
6
CONTINUOUS
10
196.6837369999999794
20
-71.7288499999999942
11
196.7972079999999835
21
-71.7592539999999985
0
LINE
8
BLACK
6
CONTINUOUS
10
216.0722079999999892
20
-71.7592539999999985
11
216.17394299999998
21
-71.8179909999999921
0
LINE
8
BLACK
6
CONTINUOUS
10
216.17394299999998
20
-71.8179909999999921
11
216.2570089999999823
21
-71.9010569999999944
0
LINE
8
BLACK
6
CONTINUOUS
10
216.2570089999999823
20
-71.9010569999999944
11
216.3157459999999901
21
-72.0027919999999995
0
LINE
8
BLACK
6
CONTINUOUS
10
216.3157459999999901
20
-72.0027919999999995
11
216.3461499999999944
21
-72.1162630000000036
0
LINE
8
BLACK
6
CONTINUOUS
10
216.3461499999999944
20
-72.1162630000000036
11
216.3461499999999944
21
-72.2337369999999908
0
LINE
8
BLACK
6
CONTINUOUS
10
216.3461499999999944
20
-72.2337369999999908
11
216.3157459999999901
21
-72.3472079999999949
0
LINE
8
BLACK
6
CONTINUOUS
10
216.3157459999999901
20
-72.3472079999999949
11
216.2570089999999823
21
-72.4489429999999999
0
LINE
8
BLACK
6
CONTINUOUS
10
216.2570089999999823
20
-72.4489429999999999
11
216.17394299999998
21
-72.5320090000000022
0
LINE
8
BLACK
6
CONTINUOUS
10
216.17394299999998
20
-72.5320090000000022
11
216.0722079999999892
21
-72.5907459999999958
0
LINE
8
BLACK
6
CONTINUOUS
10
216.0722079999999892
20
-72.5907459999999958
11
215.9587369999999851
21
-72.6211500000000001
0
LINE
8
BLACK
6
CONTINUOUS
10
215.9587369999999851
20
-72.6211500000000001
11
215.8412629999999979
21
-72.6211500000000001
0
LINE
8
BLACK
6
CONTINUOUS
10
215.8412629999999979
20
-72.6211500000000001
11
215.7277919999999938
21
-72.5907459999999958
0
LINE
8
BLACK
6
CONTINUOUS
10
215.7277919999999938
20
-72.5907459999999958
11
215.626057000000003
21
-72.5320090000000022
0
LINE
8
BLACK
6
CONTINUOUS
10
215.626057000000003
20
-72.5320090000000022
11
215.5429910000000007
21
-72.4489429999999999
0
LINE
8
BLACK
6
CONTINUOUS
10
215.5429910000000007
20
-72.4489429999999999
11
215.4842539999999929
21
-72.3472079999999949
0
LINE
8
BLACK
6
CONTINUOUS
10
215.4842539999999929
20
-72.3472079999999949
11
215.4538499999999885
21
-72.2337369999999908
0
LINE
8
BLACK
6
CONTINUOUS
10
215.4538499999999885
20
-72.2337369999999908
11
215.4538499999999885
21
-72.1162630000000036
0
LINE
8
BLACK
6
CONTINUOUS
10
215.4538499999999885
20
-72.1162630000000036
11
215.4842539999999929
21
-72.0027919999999995
0
LINE
8
BLACK
6
CONTINUOUS
10
215.4842539999999929
20
-72.0027919999999995
11
215.5429910000000007
21
-71.9010569999999944
0
LINE
8
BLACK
6
CONTINUOUS
10
215.5429910000000007
20
-71.9010569999999944
11
215.626057000000003
21
-71.8179909999999921
0
LINE
8
BLACK
6
CONTINUOUS
10
215.626057000000003
20
-71.8179909999999921
11
215.7277919999999938
21
-71.7592539999999985
0
LINE
8
BLACK
6
CONTINUOUS
10
215.7277919999999938
20
-71.7592539999999985
11
215.8412629999999979
21
-71.7288499999999942
0
LINE
8
BLACK
6
CONTINUOUS
10
215.8412629999999979
20
-71.7288499999999942
11
215.9587369999999851
21
-71.7288499999999942
0
LINE
8
BLACK
6
CONTINUOUS
10
215.9587369999999851
20
-71.7288499999999942
11
216.0722079999999892
21
-71.7592539999999985
0
LINE
8
BLACK
6
CONTINUOUS
10
233.0722079999999892
20
-71.7592539999999985
11
233.17394299999998
21
-71.8179909999999921
0
LINE
8
BLACK
6
CONTINUOUS
10
233.17394299999998
20
-71.8179909999999921
11
233.2570089999999823
21
-71.9010569999999944
0
LINE
8
BLACK
6
CONTINUOUS
10
233.2570089999999823
20
-71.9010569999999944
11
233.3157459999999901
21
-72.0027919999999995
0
LINE
8
BLACK
6
CONTINUOUS
10
233.3157459999999901
20
-72.0027919999999995
11
233.3461499999999944
21
-72.1162630000000036
0
LINE
8
BLACK
6
CONTINUOUS
10
233.3461499999999944
20
-72.1162630000000036
11
233.3461499999999944
21
-72.2337369999999908
0
LINE
8
BLACK
6
CONTINUOUS
10
233.3461499999999944
20
-72.2337369999999908
11
233.3157459999999901
21
-72.3472079999999949
0
LINE
8
BLACK
6
CONTINUOUS
10
233.3157459999999901
20
-72.3472079999999949
11
233.2570089999999823
21
-72.4489429999999999
0
LINE
8
BLACK
6
CONTINUOUS
10
233.2570089999999823
20
-72.4489429999999999
11
233.17394299999998
21
-72.5320090000000022
0
LINE
8
BLACK
6
CONTINUOUS
10
233.17394299999998
20
-72.5320090000000022
11
233.0722079999999892
21
-72.5907459999999958
0
LINE
8
BLACK
6
CONTINUOUS
10
233.0722079999999892
20
-72.5907459999999958
11
232.9587369999999851
21
-72.6211500000000001
0
LINE
8
BLACK
6
CONTINUOUS
10
232.9587369999999851
20
-72.6211500000000001
11
232.8412629999999979
21
-72.6211500000000001
0
LINE
8
BLACK
6
CONTINUOUS
10
232.8412629999999979
20
-72.6211500000000001
11
232.7277919999999938
21
-72.5907459999999958
0
LINE
8
BLACK
6
CONTINUOUS
10
232.7277919999999938
20
-72.5907459999999958
11
232.626057000000003
21
-72.5320090000000022
0
LINE
8
BLACK
6
CONTINUOUS
10
232.626057000000003
20
-72.5320090000000022
11
232.5429910000000007
21
-72.4489429999999999
0
LINE
8
BLACK
6
CONTINUOUS
10
232.5429910000000007
20
-72.4489429999999999
11
232.4842539999999929
21
-72.3472079999999949
0
LINE
8
BLACK
6
CONTINUOUS
10
232.4842539999999929
20
-72.3472079999999949
11
232.4538499999999885
21
-72.2337369999999908
0
LINE
8
BLACK
6
CONTINUOUS
10
232.4538499999999885
20
-72.2337369999999908
11
232.4538499999999885
21
-72.1162630000000036
0
LINE
8
BLACK
6
CONTINUOUS
10
232.4538499999999885
20
-72.1162630000000036
11
232.4842539999999929
21
-72.0027919999999995
0
LINE
8
BLACK
6
CONTINUOUS
10
232.4842539999999929
20
-72.0027919999999995
11
232.5429910000000007
21
-71.9010569999999944
0
LINE
8
BLACK
6
CONTINUOUS
10
232.5429910000000007
20
-71.9010569999999944
11
232.626057000000003
21
-71.8179909999999921
0
LINE
8
BLACK
6
CONTINUOUS
10
232.626057000000003
20
-71.8179909999999921
11
232.7277919999999938
21
-71.7592539999999985
0
LINE
8
BLACK
6
CONTINUOUS
10
232.7277919999999938
20
-71.7592539999999985
11
232.8412629999999979
21
-71.7288499999999942
0
LINE
8
BLACK
6
CONTINUOUS
10
232.8412629999999979
20
-71.7288499999999942
11
232.9587369999999851
21
-71.7288499999999942
0
LINE
8
BLACK
6
CONTINUOUS
10
232.9587369999999851
20
-71.7288499999999942
11
233.0722079999999892
21
-71.7592539999999985
0
LINE
8
BLACK
6
CONTINUOUS
10
177.75
20
-72.1499999999999915
11
176.1999999999999886
21
-72.1499999999999915
0
LINE
8
BLACK
6
CONTINUOUS
10
176.1999999999999886
20
-72.1499999999999915
11
176.1999999999999886
21
-71.1499999999999915
0
LINE
8
BLACK
6
CONTINUOUS
10
176.1999999999999886
20
-71.1499999999999915
11
177.75
21
-71.1499999999999915
0
LINE
8
BLACK
6
CONTINUOUS
10
177.75
20
-71.1499999999999915
11
177.75
21
-72.1499999999999915
0
LINE
8
BLACK
6
CONTINUOUS
10
183.
20
-72.1499999999999915
11
181.4499999999999886
21
-72.1499999999999915
0
LINE
8
BLACK
6
CONTINUOUS
10
181.4499999999999886
20
-72.1499999999999915
11
181.4499999999999886
21
-71.1499999999999915
0
LINE
8
BLACK
6
CONTINUOUS
10
181.4499999999999886
20
-71.1499999999999915
11
183.
21
-71.1499999999999915
0
LINE
8
BLACK
6
CONTINUOUS
10
183.
20
-71.1499999999999915
11
183.
21
-72.1499999999999915
0
LINE
8
BLACK
6
CONTINUOUS
10
194.7749999999999773
20
-72.1499999999999915
11
193.2249999999999943
21
-72.1499999999999915
0
LINE
8
BLACK
6
CONTINUOUS
10
193.2249999999999943
20
-72.1499999999999915
11
193.2249999999999943
21
-71.1499999999999915
0
LINE
8
BLACK
6
CONTINUOUS
10
193.2249999999999943
20
-71.1499999999999915
11
194.7749999999999773
21
-71.1499999999999915
0
LINE
8
BLACK
6
CONTINUOUS
10
194.7749999999999773
20
-71.1499999999999915
11
194.7749999999999773
21
-72.1499999999999915
0
LINE
8
BLACK
6
CONTINUOUS
10
200.0249999999999773
20
-72.1499999999999915
11
198.4749999999999943
21
-72.1499999999999915
0
LINE
8
BLACK
6
CONTINUOUS
10
198.4749999999999943
20
-72.1499999999999915
11
198.4749999999999943
21
-71.1499999999999915
0
LINE
8
BLACK
6
CONTINUOUS
10
198.4749999999999943
20
-71.1499999999999915
11
200.0249999999999773
21
-71.1499999999999915
0
LINE
8
BLACK
6
CONTINUOUS
10
200.0249999999999773
20
-71.1499999999999915
11
200.0249999999999773
21
-72.1499999999999915
0
LINE
8
BLACK
6
CONTINUOUS
10
214.0499999999999829
20
-72.1499999999999915
11
212.5
21
-72.1499999999999915
0
LINE
8
BLACK
6
CONTINUOUS
10
212.5
20
-72.1499999999999915
11
212.5
21
-71.1499999999999915
0
LINE
8
BLACK
6
CONTINUOUS
10
212.5
20
-71.1499999999999915
11
214.0499999999999829
21
-71.1499999999999915
0
LINE
8
BLACK
6
CONTINUOUS
10
214.0499999999999829
20
-71.1499999999999915
11
214.0499999999999829
21
-72.1499999999999915
0
LINE
8
BLACK
6
CONTINUOUS
10
219.2999999999999829
20
-72.1499999999999915
11
217.75
21
-72.1499999999999915
0
LINE
8
BLACK
6
CONTINUOUS
10
217.75
20
-72.1499999999999915
11
217.75
21
-71.1499999999999915
0
LINE
8
BLACK
6
CONTINUOUS
10
217.75
20
-71.1499999999999915
11
219.2999999999999829
21
-71.1499999999999915
0
LINE
8
BLACK
6
CONTINUOUS
10
219.2999999999999829
20
-71.1499999999999915
11
219.2999999999999829
21
-72.1499999999999915
0
LINE
8
BLACK
6
CONTINUOUS
10
231.0499999999999829
20
-72.1499999999999915
11
229.5
21
-72.1499999999999915
0
LINE
8
BLACK
6
CONTINUOUS
10
229.5
20
-72.1499999999999915
11
229.5
21
-71.1499999999999915
0
LINE
8
BLACK
6
CONTINUOUS
10
229.5
20
-71.1499999999999915
11
231.0499999999999829
21
-71.1499999999999915
0
LINE
8
BLACK
6
CONTINUOUS
10
231.0499999999999829
20
-71.1499999999999915
11
231.0499999999999829
21
-72.1499999999999915
0
LINE
8
BLACK
6
CONTINUOUS
10
236.2999999999999829
20
-72.1499999999999915
11
234.75
21
-72.1499999999999915
0
LINE
8
BLACK
6
CONTINUOUS
10
234.75
20
-72.1499999999999915
11
234.75
21
-71.1499999999999915
0
LINE
8
BLACK
6
CONTINUOUS
10
234.75
20
-71.1499999999999915
11
236.2999999999999829
21
-71.1499999999999915
0
LINE
8
BLACK
6
CONTINUOUS
10
236.2999999999999829
20
-71.1499999999999915
11
236.2999999999999829
21
-72.1499999999999915
0
LINE
8
BLACK
6
CONTINUOUS
10
177.75
20
-70.4500000000000028
11
176.1999999999999886
21
-70.4500000000000028
0
LINE
8
BLACK
6
CONTINUOUS
10
176.1999999999999886
20
-70.4500000000000028
11
176.1999999999999886
21
-69.4500000000000028
0
LINE
8
BLACK
6
CONTINUOUS
10
176.1999999999999886
20
-69.4500000000000028
11
177.75
21
-69.4500000000000028
0
LINE
8
BLACK
6
CONTINUOUS
10
177.75
20
-69.4500000000000028
11
177.75
21
-70.4500000000000028
0
LINE
8
BLACK
6
CONTINUOUS
10
183.
20
-70.4500000000000028
11
181.4499999999999886
21
-70.4500000000000028
0
LINE
8
BLACK
6
CONTINUOUS
10
181.4499999999999886
20
-70.4500000000000028
11
181.4499999999999886
21
-69.4500000000000028
0
LINE
8
BLACK
6
CONTINUOUS
10
181.4499999999999886
20
-69.4500000000000028
11
183.
21
-69.4500000000000028
0
LINE
8
BLACK
6
CONTINUOUS
10
183.
20
-69.4500000000000028
11
183.
21
-70.4500000000000028
0
LINE
8
BLACK
6
CONTINUOUS
10
194.7749999999999773
20
-70.4500000000000028
11
193.2249999999999943
21
-70.4500000000000028
0
LINE
8
BLACK
6
CONTINUOUS
10
193.2249999999999943
20
-70.4500000000000028
11
193.2249999999999943
21
-69.4500000000000028
0
LINE
8
BLACK
6
CONTINUOUS
10
193.2249999999999943
20
-69.4500000000000028
11
194.7749999999999773
21
-69.4500000000000028
0
LINE
8
BLACK
6
CONTINUOUS
10
194.7749999999999773
20
-69.4500000000000028
11
194.7749999999999773
21
-70.4500000000000028
0
LINE
8
BLACK
6
CONTINUOUS
10
200.0249999999999773
20
-70.4500000000000028
11
198.4749999999999943
21
-70.4500000000000028
0
LINE
8
BLACK
6
CONTINUOUS
10
198.4749999999999943
20
-70.4500000000000028
11
198.4749999999999943
21
-69.4500000000000028
0
LINE
8
BLACK
6
CONTINUOUS
10
198.4749999999999943
20
-69.4500000000000028
11
200.0249999999999773
21
-69.4500000000000028
0
LINE
8
BLACK
6
CONTINUOUS
10
200.0249999999999773
20
-69.4500000000000028
11
200.0249999999999773
21
-70.4500000000000028
0
LINE
8
BLACK
6
CONTINUOUS
10
214.0499999999999829
20
-70.4500000000000028
11
212.5
21
-70.4500000000000028
0
LINE
8
BLACK
6
CONTINUOUS
10
212.5
20
-70.4500000000000028
11
212.5
21
-69.4500000000000028
0
LINE
8
BLACK
6
CONTINUOUS
10
212.5
20
-69.4500000000000028
11
214.0499999999999829
21
-69.4500000000000028
0
LINE
8
BLACK
6
CONTINUOUS
10
214.0499999999999829
20
-69.4500000000000028
11
214.0499999999999829
21
-70.4500000000000028
0
LINE
8
BLACK
6
CONTINUOUS
10
219.2999999999999829
20
-70.4500000000000028
11
217.75
21
-70.4500000000000028
0
LINE
8
BLACK
6
CONTINUOUS
10
217.75
20
-70.4500000000000028
11
217.75
21
-69.4500000000000028
0
LINE
8
BLACK
6
CONTINUOUS
10
217.75
20
-69.4500000000000028
11
219.2999999999999829
21
-69.4500000000000028
0
LINE
8
BLACK
6
CONTINUOUS
10
219.2999999999999829
20
-69.4500000000000028
11
219.2999999999999829
21
-70.4500000000000028
0
LINE
8
BLACK
6
CONTINUOUS
10
231.0499999999999829
20
-70.4500000000000028
11
229.5
21
-70.4500000000000028
0
LINE
8
BLACK
6
CONTINUOUS
10
229.5
20
-70.4500000000000028
11
229.5
21
-69.4500000000000028
0
LINE
8
BLACK
6
CONTINUOUS
10
229.5
20
-69.4500000000000028
11
231.0499999999999829
21
-69.4500000000000028
0
LINE
8
BLACK
6
CONTINUOUS
10
231.0499999999999829
20
-69.4500000000000028
11
231.0499999999999829
21
-70.4500000000000028
0
LINE
8
BLACK
6
CONTINUOUS
10
236.2999999999999829
20
-70.4500000000000028
11
234.75
21
-70.4500000000000028
0
LINE
8
BLACK
6
CONTINUOUS
10
234.75
20
-70.4500000000000028
11
234.75
21
-69.4500000000000028
0
LINE
8
BLACK
6
CONTINUOUS
10
234.75
20
-69.4500000000000028
11
236.2999999999999829
21
-69.4500000000000028
0
LINE
8
BLACK
6
CONTINUOUS
10
236.2999999999999829
20
-69.4500000000000028
11
236.2999999999999829
21
-70.4500000000000028
0
LINE
8
BLACK
6
CONTINUOUS
10
179.7722079999999778
20
-69.0092539999999985
11
179.873942999999997
21
-69.0679909999999921
0
LINE
8
BLACK
6
CONTINUOUS
10
179.873942999999997
20
-69.0679909999999921
11
179.9570089999999993
21
-69.1510569999999944
0
LINE
8
BLACK
6
CONTINUOUS
10
179.9570089999999993
20
-69.1510569999999944
11
180.0157459999999787
21
-69.2527919999999995
0
LINE
8
BLACK
6
CONTINUOUS
10
180.0157459999999787
20
-69.2527919999999995
11
180.046149999999983
21
-69.3662630000000036
0
LINE
8
BLACK
6
CONTINUOUS
10
180.046149999999983
20
-69.3662630000000036
11
180.046149999999983
21
-69.4837369999999908
0
LINE
8
BLACK
6
CONTINUOUS
10
180.046149999999983
20
-69.4837369999999908
11
180.0157459999999787
21
-69.5972079999999949
0
LINE
8
BLACK
6
CONTINUOUS
10
180.0157459999999787
20
-69.5972079999999949
11
179.9570089999999993
21
-69.6989429999999999
0
LINE
8
BLACK
6
CONTINUOUS
10
179.9570089999999993
20
-69.6989429999999999
11
179.873942999999997
21
-69.7820090000000022
0
LINE
8
BLACK
6
CONTINUOUS
10
179.873942999999997
20
-69.7820090000000022
11
179.7722079999999778
21
-69.8407459999999958
0
LINE
8
BLACK
6
CONTINUOUS
10
179.7722079999999778
20
-69.8407459999999958
11
179.6587370000000021
21
-69.8711500000000001
0
LINE
8
BLACK
6
CONTINUOUS
10
179.6587370000000021
20
-69.8711500000000001
11
179.5412629999999865
21
-69.8711500000000001
0
LINE
8
BLACK
6
CONTINUOUS
10
179.5412629999999865
20
-69.8711500000000001
11
179.4277919999999824
21
-69.8407459999999958
0
LINE
8
BLACK
6
CONTINUOUS
10
179.4277919999999824
20
-69.8407459999999958
11
179.3260569999999916
21
-69.7820090000000022
0
LINE
8
BLACK
6
CONTINUOUS
10
179.3260569999999916
20
-69.7820090000000022
11
179.2429909999999893
21
-69.6989429999999999
0
LINE
8
BLACK
6
CONTINUOUS
10
179.2429909999999893
20
-69.6989429999999999
11
179.1842539999999815
21
-69.5972079999999949
0
LINE
8
BLACK
6
CONTINUOUS
10
179.1842539999999815
20
-69.5972079999999949
11
179.1538500000000056
21
-69.4837369999999908
0
LINE
8
BLACK
6
CONTINUOUS
10
179.1538500000000056
20
-69.4837369999999908
11
179.1538500000000056
21
-69.3662630000000036
0
LINE
8
BLACK
6
CONTINUOUS
10
179.1538500000000056
20
-69.3662630000000036
11
179.1842539999999815
21
-69.2527919999999995
0
LINE
8
BLACK
6
CONTINUOUS
10
179.1842539999999815
20
-69.2527919999999995
11
179.2429909999999893
21
-69.1510569999999944
0
LINE
8
BLACK
6
CONTINUOUS
10
179.2429909999999893
20
-69.1510569999999944
11
179.3260569999999916
21
-69.0679909999999921
0
LINE
8
BLACK
6
CONTINUOUS
10
179.3260569999999916
20
-69.0679909999999921
11
179.4277919999999824
21
-69.0092539999999985
0
LINE
8
BLACK
6
CONTINUOUS
10
179.4277919999999824
20
-69.0092539999999985
11
179.5412629999999865
21
-68.9788499999999942
0
LINE
8
BLACK
6
CONTINUOUS
10
179.5412629999999865
20
-68.9788499999999942
11
179.6587370000000021
21
-68.9788499999999942
0
LINE
8
BLACK
6
CONTINUOUS
10
179.6587370000000021
20
-68.9788499999999942
11
179.7722079999999778
21
-69.0092539999999985
0
LINE
8
BLACK
6
CONTINUOUS
10
196.7972079999999835
20
-69.0092539999999985
11
196.8989430000000027
21
-69.0679909999999921
0
LINE
8
BLACK
6
CONTINUOUS
10
196.8989430000000027
20
-69.0679909999999921
11
196.982009000000005
21
-69.1510569999999944
0
LINE
8
BLACK
6
CONTINUOUS
10
196.982009000000005
20
-69.1510569999999944
11
197.0407459999999844
21
-69.2527919999999995
0
LINE
8
BLACK
6
CONTINUOUS
10
197.0407459999999844
20
-69.2527919999999995
11
197.0711499999999887
21
-69.3662630000000036
0
LINE
8
BLACK
6
CONTINUOUS
10
197.0711499999999887
20
-69.3662630000000036
11
197.0711499999999887
21
-69.4837369999999908
0
LINE
8
BLACK
6
CONTINUOUS
10
197.0711499999999887
20
-69.4837369999999908
11
197.0407459999999844
21
-69.5972079999999949
0
LINE
8
BLACK
6
CONTINUOUS
10
197.0407459999999844
20
-69.5972079999999949
11
196.982009000000005
21
-69.6989429999999999
0
LINE
8
BLACK
6
CONTINUOUS
10
196.982009000000005
20
-69.6989429999999999
11
196.8989430000000027
21
-69.7820090000000022
0
LINE
8
BLACK
6
CONTINUOUS
10
196.8989430000000027
20
-69.7820090000000022
11
196.7972079999999835
21
-69.8407459999999958
0
LINE
8
BLACK
6
CONTINUOUS
10
196.7972079999999835
20
-69.8407459999999958
11
196.6837369999999794
21
-69.8711500000000001
0
LINE
8
BLACK
6
CONTINUOUS
10
196.6837369999999794
20
-69.8711500000000001
11
196.5662629999999922
21
-69.8711500000000001
0
LINE
8
BLACK
6
CONTINUOUS
10
196.5662629999999922
20
-69.8711500000000001
11
196.4527919999999881
21
-69.8407459999999958
0
LINE
8
BLACK
6
CONTINUOUS
10
196.4527919999999881
20
-69.8407459999999958
11
196.3510569999999973
21
-69.7820090000000022
0
LINE
8
BLACK
6
CONTINUOUS
10
196.3510569999999973
20
-69.7820090000000022
11
196.267990999999995
21
-69.6989429999999999
0
LINE
8
BLACK
6
CONTINUOUS
10
196.267990999999995
20
-69.6989429999999999
11
196.2092539999999872
21
-69.5972079999999949
0
LINE
8
BLACK
6
CONTINUOUS
10
196.2092539999999872
20
-69.5972079999999949
11
196.1788499999999829
21
-69.4837369999999908
0
LINE
8
BLACK
6
CONTINUOUS
10
196.1788499999999829
20
-69.4837369999999908
11
196.1788499999999829
21
-69.3662630000000036
0
LINE
8
BLACK
6
CONTINUOUS
10
196.1788499999999829
20
-69.3662630000000036
11
196.2092539999999872
21
-69.2527919999999995
0
LINE
8
BLACK
6
CONTINUOUS
10
196.2092539999999872
20
-69.2527919999999995
11
196.267990999999995
21
-69.1510569999999944
0
LINE
8
BLACK
6
CONTINUOUS
10
196.267990999999995
20
-69.1510569999999944
11
196.3510569999999973
21
-69.0679909999999921
0
LINE
8
BLACK
6
CONTINUOUS
10
196.3510569999999973
20
-69.0679909999999921
11
196.4527919999999881
21
-69.0092539999999985
0
LINE
8
BLACK
6
CONTINUOUS
10
196.4527919999999881
20
-69.0092539999999985
11
196.5662629999999922
21
-68.9788499999999942
0
LINE
8
BLACK
6
CONTINUOUS
10
196.5662629999999922
20
-68.9788499999999942
11
196.6837369999999794
21
-68.9788499999999942
0
LINE
8
BLACK
6
CONTINUOUS
10
196.6837369999999794
20
-68.9788499999999942
11
196.7972079999999835
21
-69.0092539999999985
0
LINE
8
BLACK
6
CONTINUOUS
10
216.0722079999999892
20
-69.0092539999999985
11
216.17394299999998
21
-69.0679909999999921
0
LINE
8
BLACK
6
CONTINUOUS
10
216.17394299999998
20
-69.0679909999999921
11
216.2570089999999823
21
-69.1510569999999944
0
LINE
8
BLACK
6
CONTINUOUS
10
216.2570089999999823
20
-69.1510569999999944
11
216.3157459999999901
21
-69.2527919999999995
0
LINE
8
BLACK
6
CONTINUOUS
10
216.3157459999999901
20
-69.2527919999999995
11
216.3461499999999944
21
-69.3662630000000036
0
LINE
8
BLACK
6
CONTINUOUS
10
216.3461499999999944
20
-69.3662630000000036
11
216.3461499999999944
21
-69.4837369999999908
0
LINE
8
BLACK
6
CONTINUOUS
10
216.3461499999999944
20
-69.4837369999999908
11
216.3157459999999901
21
-69.5972079999999949
0
LINE
8
BLACK
6
CONTINUOUS
10
216.3157459999999901
20
-69.5972079999999949
11
216.2570089999999823
21
-69.6989429999999999
0
LINE
8
BLACK
6
CONTINUOUS
10
216.2570089999999823
20
-69.6989429999999999
11
216.17394299999998
21
-69.7820090000000022
0
LINE
8
BLACK
6
CONTINUOUS
10
216.17394299999998
20
-69.7820090000000022
11
216.0722079999999892
21
-69.8407459999999958
0
LINE
8
BLACK
6
CONTINUOUS
10
216.0722079999999892
20
-69.8407459999999958
11
215.9587369999999851
21
-69.8711500000000001
0
LINE
8
BLACK
6
CONTINUOUS
10
215.9587369999999851
20
-69.8711500000000001
11
215.8412629999999979
21
-69.8711500000000001
0
LINE
8
BLACK
6
CONTINUOUS
10
215.8412629999999979
20
-69.8711500000000001
11
215.7277919999999938
21
-69.8407459999999958
0
LINE
8
BLACK
6
CONTINUOUS
10
215.7277919999999938
20
-69.8407459999999958
11
215.626057000000003
21
-69.7820090000000022
0
LINE
8
BLACK
6
CONTINUOUS
10
215.626057000000003
20
-69.7820090000000022
11
215.5429910000000007
21
-69.6989429999999999
0
LINE
8
BLACK
6
CONTINUOUS
10
215.5429910000000007
20
-69.6989429999999999
11
215.4842539999999929
21
-69.5972079999999949
0
LINE
8
BLACK
6
CONTINUOUS
10
215.4842539999999929
20
-69.5972079999999949
11
215.4538499999999885
21
-69.4837369999999908
0
LINE
8
BLACK
6
CONTINUOUS
10
215.4538499999999885
20
-69.4837369999999908
11
215.4538499999999885
21
-69.3662630000000036
0
LINE
8
BLACK
6
CONTINUOUS
10
215.4538499999999885
20
-69.3662630000000036
11
215.4842539999999929
21
-69.2527919999999995
0
LINE
8
BLACK
6
CONTINUOUS
10
215.4842539999999929
20
-69.2527919999999995
11
215.5429910000000007
21
-69.1510569999999944
0
LINE
8
BLACK
6
CONTINUOUS
10
215.5429910000000007
20
-69.1510569999999944
11
215.626057000000003
21
-69.0679909999999921
0
LINE
8
BLACK
6
CONTINUOUS
10
215.626057000000003
20
-69.0679909999999921
11
215.7277919999999938
21
-69.0092539999999985
0
LINE
8
BLACK
6
CONTINUOUS
10
215.7277919999999938
20
-69.0092539999999985
11
215.8412629999999979
21
-68.9788499999999942
0
LINE
8
BLACK
6
CONTINUOUS
10
215.8412629999999979
20
-68.9788499999999942
11
215.9587369999999851
21
-68.9788499999999942
0
LINE
8
BLACK
6
CONTINUOUS
10
215.9587369999999851
20
-68.9788499999999942
11
216.0722079999999892
21
-69.0092539999999985
0
LINE
8
BLACK
6
CONTINUOUS
10
233.0722079999999892
20
-69.0092539999999985
11
233.17394299999998
21
-69.0679909999999921
0
LINE
8
BLACK
6
CONTINUOUS
10
233.17394299999998
20
-69.0679909999999921
11
233.2570089999999823
21
-69.1510569999999944
0
LINE
8
BLACK
6
CONTINUOUS
10
233.2570089999999823
20
-69.1510569999999944
11
233.3157459999999901
21
-69.2527919999999995
0
LINE
8
BLACK
6
CONTINUOUS
10
233.3157459999999901
20
-69.2527919999999995
11
233.3461499999999944
21
-69.3662630000000036
0
LINE
8
BLACK
6
CONTINUOUS
10
233.3461499999999944
20
-69.3662630000000036
11
233.3461499999999944
21
-69.4837369999999908
0
LINE
8
BLACK
6
CONTINUOUS
10
233.3461499999999944
20
-69.4837369999999908
11
233.3157459999999901
21
-69.5972079999999949
0
LINE
8
BLACK
6
CONTINUOUS
10
233.3157459999999901
20
-69.5972079999999949
11
233.2570089999999823
21
-69.6989429999999999
0
LINE
8
BLACK
6
CONTINUOUS
10
233.2570089999999823
20
-69.6989429999999999
11
233.17394299999998
21
-69.7820090000000022
0
LINE
8
BLACK
6
CONTINUOUS
10
233.17394299999998
20
-69.7820090000000022
11
233.0722079999999892
21
-69.8407459999999958
0
LINE
8
BLACK
6
CONTINUOUS
10
233.0722079999999892
20
-69.8407459999999958
11
232.9587369999999851
21
-69.8711500000000001
0
LINE
8
BLACK
6
CONTINUOUS
10
232.9587369999999851
20
-69.8711500000000001
11
232.8412629999999979
21
-69.8711500000000001
0
LINE
8
BLACK
6
CONTINUOUS
10
232.8412629999999979
20
-69.8711500000000001
11
232.7277919999999938
21
-69.8407459999999958
0
LINE
8
BLACK
6
CONTINUOUS
10
232.7277919999999938
20
-69.8407459999999958
11
232.626057000000003
21
-69.7820090000000022
0
LINE
8
BLACK
6
CONTINUOUS
10
232.626057000000003
20
-69.7820090000000022
11
232.5429910000000007
21
-69.6989429999999999
0
LINE
8
BLACK
6
CONTINUOUS
10
232.5429910000000007
20
-69.6989429999999999
11
232.4842539999999929
21
-69.5972079999999949
0
LINE
8
BLACK
6
CONTINUOUS
10
232.4842539999999929
20
-69.5972079999999949
11
232.4538499999999885
21
-69.4837369999999908
0
LINE
8
BLACK
6
CONTINUOUS
10
232.4538499999999885
20
-69.4837369999999908
11
232.4538499999999885
21
-69.3662630000000036
0
LINE
8
BLACK
6
CONTINUOUS
10
232.4538499999999885
20
-69.3662630000000036
11
232.4842539999999929
21
-69.2527919999999995
0
LINE
8
BLACK
6
CONTINUOUS
10
232.4842539999999929
20
-69.2527919999999995
11
232.5429910000000007
21
-69.1510569999999944
0
LINE
8
BLACK
6
CONTINUOUS
10
232.5429910000000007
20
-69.1510569999999944
11
232.626057000000003
21
-69.0679909999999921
0
LINE
8
BLACK
6
CONTINUOUS
10
232.626057000000003
20
-69.0679909999999921
11
232.7277919999999938
21
-69.0092539999999985
0
LINE
8
BLACK
6
CONTINUOUS
10
232.7277919999999938
20
-69.0092539999999985
11
232.8412629999999979
21
-68.9788499999999942
0
LINE
8
BLACK
6
CONTINUOUS
10
232.8412629999999979
20
-68.9788499999999942
11
232.9587369999999851
21
-68.9788499999999942
0
LINE
8
BLACK
6
CONTINUOUS
10
232.9587369999999851
20
-68.9788499999999942
11
233.0722079999999892
21
-69.0092539999999985
  0
ENDSEC
  0
EOF
