  0
SECTION
  2
HEADER
  9
$ANGBASE
  50
0.0
  9
$ANGDIR
  70
1
  9
$MEASUREMENT
  70
1
  0
ENDSEC
  0
SECTION
  2
TABLES
  0
TABLE
  2
LTYPE
  70
4
  0
LTYPE
  5
40F
  2
CONTINUOUS
  70
0
  3
Solid line
  72
65
  73
0
  40
0.0
  0
LTYPE
  5
410
  2
DASHDOT
 70
0
  3
Dash Dot ____ _ ____ _
 72
65
 73
4
 40
2.0
 49
1.25
 49
-0.25
 49
0.25
 49
-0.25
  0
LTYPE
  5
411
  2
DASHED
 70
0
  3
Dashed __ __ __ __ __
 72
65
 73
2
 40
0.75
 49
0.5
 49
-0.25
  0
LTYPE
  5
43B
  2
DOTTED
 70
0
  3
Dotted .  .  .  .
 72
65
 73
2
 40
0.2
 49
0.0
 49
-0.2
  0
ENDTAB
  0
TABLE
  2
STYLE
  70
4
  0
STYLE
  2
KICAD
  70
0
  40
0
  41
1
  42
1
  50
0
  71
0
  3
isocp.shx
  0
STYLE
  2
KICADB
  70
0
  40
0
  41
1
  42
1
  50
0
  71
0
  3
isocp.shx
  0
STYLE
  2
KICADI
  70
0
  40
0
  41
1
  42
1
  50
15
  71
0
  3
isocp.shx
  0
STYLE
  2
KICADBI
  70
0
  40
0
  41
1
  42
1
  50
15
  71
0
  3
isocp.shx
  0
ENDTAB
  0
TABLE
  2
LAYER
  70
1
  0
LAYER
  2
BLACK
  70
0
  62
7
  6
CONTINUOUS
  0
ENDTAB
  0
ENDSEC
  0
SECTION
  2
ENTITIES
0
LINE
8
BLACK
6
CONTINUOUS
10
191.2184619999999882
20
-110.6317749999999904
11
191.3900859999999966
21
-110.687539000000001
0
LINE
8
BLACK
6
CONTINUOUS
10
191.3900859999999966
20
-110.687539000000001
11
191.5508729999999957
21
-110.7694639999999993
0
LINE
8
BLACK
6
CONTINUOUS
10
191.5508729999999957
20
-110.7694639999999993
11
191.6968650000000025
21
-110.8755329999999901
0
LINE
8
BLACK
6
CONTINUOUS
10
191.6968650000000025
20
-110.8755329999999901
11
191.8244669999999985
21
-111.0031350000000003
0
LINE
8
BLACK
6
CONTINUOUS
10
191.8244669999999985
20
-111.0031350000000003
11
191.9305359999999894
21
-111.1491269999999929
0
LINE
8
BLACK
6
CONTINUOUS
10
191.9305359999999894
20
-111.1491269999999929
11
192.0124610000000018
21
-111.309913999999992
0
LINE
8
BLACK
6
CONTINUOUS
10
192.0124610000000018
20
-111.309913999999992
11
192.068224999999984
21
-111.4815380000000005
0
LINE
8
BLACK
6
CONTINUOUS
10
192.068224999999984
20
-111.4815380000000005
11
192.0964549999999917
21
-111.6597719999999896
0
LINE
8
BLACK
6
CONTINUOUS
10
192.0964549999999917
20
-111.6597719999999896
11
192.0964549999999917
21
-111.8402279999999962
0
LINE
8
BLACK
6
CONTINUOUS
10
192.0964549999999917
20
-111.8402279999999962
11
192.068224999999984
21
-112.0184619999999995
0
LINE
8
BLACK
6
CONTINUOUS
10
192.068224999999984
20
-112.0184619999999995
11
192.0124610000000018
21
-112.1900859999999938
0
LINE
8
BLACK
6
CONTINUOUS
10
192.0124610000000018
20
-112.1900859999999938
11
191.9305359999999894
21
-112.3508729999999929
0
LINE
8
BLACK
6
CONTINUOUS
10
191.9305359999999894
20
-112.3508729999999929
11
191.8244669999999985
21
-112.4968649999999997
0
LINE
8
BLACK
6
CONTINUOUS
10
191.8244669999999985
20
-112.4968649999999997
11
191.6968650000000025
21
-112.6244669999999957
0
LINE
8
BLACK
6
CONTINUOUS
10
191.6968650000000025
20
-112.6244669999999957
11
191.5508729999999957
21
-112.7305360000000007
0
LINE
8
BLACK
6
CONTINUOUS
10
191.5508729999999957
20
-112.7305360000000007
11
191.3900859999999966
21
-112.812460999999999
0
LINE
8
BLACK
6
CONTINUOUS
10
191.3900859999999966
20
-112.812460999999999
11
191.2184619999999882
21
-112.8682249999999954
0
LINE
8
BLACK
6
CONTINUOUS
10
191.2184619999999882
20
-112.8682249999999954
11
191.0402279999999848
21
-112.8964549999999889
0
LINE
8
BLACK
6
CONTINUOUS
10
191.0402279999999848
20
-112.8964549999999889
11
190.8597719999999924
21
-112.8964549999999889
0
LINE
8
BLACK
6
CONTINUOUS
10
190.8597719999999924
20
-112.8964549999999889
11
190.6815379999999891
21
-112.8682249999999954
0
LINE
8
BLACK
6
CONTINUOUS
10
190.6815379999999891
20
-112.8682249999999954
11
190.5099139999999807
21
-112.812460999999999
0
LINE
8
BLACK
6
CONTINUOUS
10
190.5099139999999807
20
-112.812460999999999
11
190.3491269999999815
21
-112.7305360000000007
0
LINE
8
BLACK
6
CONTINUOUS
10
190.3491269999999815
20
-112.7305360000000007
11
190.2031350000000032
21
-112.6244669999999957
0
LINE
8
BLACK
6
CONTINUOUS
10
190.2031350000000032
20
-112.6244669999999957
11
190.0755329999999788
21
-112.4968649999999997
0
LINE
8
BLACK
6
CONTINUOUS
10
190.0755329999999788
20
-112.4968649999999997
11
189.9694639999999879
21
-112.3508729999999929
0
LINE
8
BLACK
6
CONTINUOUS
10
189.9694639999999879
20
-112.3508729999999929
11
189.8875390000000039
21
-112.1900859999999938
0
LINE
8
BLACK
6
CONTINUOUS
10
189.8875390000000039
20
-112.1900859999999938
11
189.8317749999999933
21
-112.0184619999999995
0
LINE
8
BLACK
6
CONTINUOUS
10
189.8317749999999933
20
-112.0184619999999995
11
189.8035449999999855
21
-111.8402279999999962
0
LINE
8
BLACK
6
CONTINUOUS
10
189.8035449999999855
20
-111.8402279999999962
11
189.8035449999999855
21
-111.6597719999999896
0
LINE
8
BLACK
6
CONTINUOUS
10
189.8035449999999855
20
-111.6597719999999896
11
189.8056339999999977
21
-111.6465839999999901
0
LINE
8
BLACK
6
CONTINUOUS
10
189.8056339999999977
20
-111.6465839999999901
11
189.8317749999999933
21
-111.4815380000000005
0
LINE
8
BLACK
6
CONTINUOUS
10
189.8317749999999933
20
-111.4815380000000005
11
189.8875390000000039
21
-111.309913999999992
0
LINE
8
BLACK
6
CONTINUOUS
10
189.8875390000000039
20
-111.309913999999992
11
189.9694639999999879
21
-111.1491269999999929
0
LINE
8
BLACK
6
CONTINUOUS
10
189.9694639999999879
20
-111.1491269999999929
11
190.0755329999999788
21
-111.0031350000000003
0
LINE
8
BLACK
6
CONTINUOUS
10
190.0755329999999788
20
-111.0031350000000003
11
190.2031350000000032
21
-110.8755329999999901
0
LINE
8
BLACK
6
CONTINUOUS
10
190.2031350000000032
20
-110.8755329999999901
11
190.3491269999999815
21
-110.7694639999999993
0
LINE
8
BLACK
6
CONTINUOUS
10
190.3491269999999815
20
-110.7694639999999993
11
190.5099139999999807
21
-110.687539000000001
0
LINE
8
BLACK
6
CONTINUOUS
10
190.5099139999999807
20
-110.687539000000001
11
190.6815379999999891
21
-110.6317749999999904
0
LINE
8
BLACK
6
CONTINUOUS
10
190.6815379999999891
20
-110.6317749999999904
11
190.8597719999999924
21
-110.6035449999999969
0
LINE
8
BLACK
6
CONTINUOUS
10
190.8597719999999924
20
-110.6035449999999969
11
191.0402279999999848
21
-110.6035449999999969
0
LINE
8
BLACK
6
CONTINUOUS
10
191.0402279999999848
20
-110.6035449999999969
11
191.2184619999999882
21
-110.6317749999999904
0
LINE
8
BLACK
6
CONTINUOUS
10
189.8999999999999773
20
-111.8534159999999957
11
189.9403499999999951
21
-112.0562740000000019
0
LINE
8
BLACK
6
CONTINUOUS
10
189.9403499999999951
20
-112.0562740000000019
11
190.0195019999999886
21
-112.2473619999999954
0
LINE
8
BLACK
6
CONTINUOUS
10
190.0195019999999886
20
-112.2473619999999954
11
190.1344110000000001
21
-112.4193360000000013
0
LINE
8
BLACK
6
CONTINUOUS
10
190.1344110000000001
20
-112.4193360000000013
11
190.2806640000000016
21
-112.5655889999999886
0
LINE
8
BLACK
6
CONTINUOUS
10
190.2806640000000016
20
-112.5655889999999886
11
190.452637999999979
21
-112.680498
0
LINE
8
BLACK
6
CONTINUOUS
10
190.452637999999979
20
-112.680498
11
190.6437259999999867
21
-112.7596499999999935
0
LINE
8
BLACK
6
CONTINUOUS
10
190.6437259999999867
20
-112.7596499999999935
11
190.8465839999999787
21
-112.7999999999999972
0
LINE
8
BLACK
6
CONTINUOUS
10
190.8465839999999787
20
-112.7999999999999972
11
191.0534159999999986
21
-112.7999999999999972
0
LINE
8
BLACK
6
CONTINUOUS
10
191.0534159999999986
20
-112.7999999999999972
11
191.2562739999999906
21
-112.7596499999999935
0
LINE
8
BLACK
6
CONTINUOUS
10
191.2562739999999906
20
-112.7596499999999935
11
191.4473619999999983
21
-112.680498
0
LINE
8
BLACK
6
CONTINUOUS
10
191.4473619999999983
20
-112.680498
11
191.6193360000000041
21
-112.5655889999999886
0
LINE
8
BLACK
6
CONTINUOUS
10
191.6193360000000041
20
-112.5655889999999886
11
191.7655889999999772
21
-112.4193360000000013
0
LINE
8
BLACK
6
CONTINUOUS
10
191.7655889999999772
20
-112.4193360000000013
11
191.8804979999999887
21
-112.2473619999999954
0
LINE
8
BLACK
6
CONTINUOUS
10
191.8804979999999887
20
-112.2473619999999954
11
191.9596499999999821
21
-112.0562740000000019
0
LINE
8
BLACK
6
CONTINUOUS
10
191.9596499999999821
20
-112.0562740000000019
11
192.
21
-111.8534159999999957
0
LINE
8
BLACK
6
CONTINUOUS
10
192.
20
-111.8534159999999957
11
192.
21
-111.6465839999999901
0
LINE
8
BLACK
6
CONTINUOUS
10
192.
20
-111.6465839999999901
11
191.9596499999999821
21
-111.4437259999999981
0
LINE
8
BLACK
6
CONTINUOUS
10
191.9596499999999821
20
-111.4437259999999981
11
191.8804979999999887
21
-111.2526379999999904
0
LINE
8
BLACK
6
CONTINUOUS
10
191.8804979999999887
20
-111.2526379999999904
11
191.7655889999999772
21
-111.0806639999999987
0
LINE
8
BLACK
6
CONTINUOUS
10
191.7655889999999772
20
-111.0806639999999987
11
191.6193360000000041
21
-110.9344109999999972
0
LINE
8
BLACK
6
CONTINUOUS
10
191.6193360000000041
20
-110.9344109999999972
11
191.4473619999999983
21
-110.819502
0
LINE
8
BLACK
6
CONTINUOUS
10
191.4473619999999983
20
-110.819502
11
191.2562739999999906
21
-110.7403499999999923
0
LINE
8
BLACK
6
CONTINUOUS
10
191.2562739999999906
20
-110.7403499999999923
11
191.0534159999999986
21
-110.6999999999999886
0
LINE
8
BLACK
6
CONTINUOUS
10
191.0534159999999986
20
-110.6999999999999886
11
190.8465839999999787
21
-110.6999999999999886
0
LINE
8
BLACK
6
CONTINUOUS
10
190.8465839999999787
20
-110.6999999999999886
11
190.6437259999999867
21
-110.7403499999999923
0
LINE
8
BLACK
6
CONTINUOUS
10
190.6437259999999867
20
-110.7403499999999923
11
190.452637999999979
21
-110.819502
0
LINE
8
BLACK
6
CONTINUOUS
10
190.452637999999979
20
-110.819502
11
190.2806640000000016
21
-110.9344109999999972
0
LINE
8
BLACK
6
CONTINUOUS
10
190.2806640000000016
20
-110.9344109999999972
11
190.1344110000000001
21
-111.0806639999999987
0
LINE
8
BLACK
6
CONTINUOUS
10
190.1344110000000001
20
-111.0806639999999987
11
190.0195019999999886
21
-111.2526379999999904
0
LINE
8
BLACK
6
CONTINUOUS
10
190.0195019999999886
20
-111.2526379999999904
11
189.9403499999999951
21
-111.4437259999999981
0
LINE
8
BLACK
6
CONTINUOUS
10
189.9403499999999951
20
-111.4437259999999981
11
189.8999999999999773
21
-111.6465839999999901
0
LINE
8
BLACK
6
CONTINUOUS
10
189.8999999999999773
20
-111.6465839999999901
11
189.8999999999999773
21
-111.8534159999999957
0
LINE
8
BLACK
6
CONTINUOUS
10
217.2184619999999882
20
-110.6317749999999904
11
217.3900859999999966
21
-110.687539000000001
0
LINE
8
BLACK
6
CONTINUOUS
10
217.3900859999999966
20
-110.687539000000001
11
217.5508729999999957
21
-110.7694639999999993
0
LINE
8
BLACK
6
CONTINUOUS
10
217.5508729999999957
20
-110.7694639999999993
11
217.6968650000000025
21
-110.8755329999999901
0
LINE
8
BLACK
6
CONTINUOUS
10
217.6968650000000025
20
-110.8755329999999901
11
217.8244669999999985
21
-111.0031350000000003
0
LINE
8
BLACK
6
CONTINUOUS
10
217.8244669999999985
20
-111.0031350000000003
11
217.9305359999999894
21
-111.1491269999999929
0
LINE
8
BLACK
6
CONTINUOUS
10
217.9305359999999894
20
-111.1491269999999929
11
218.0124610000000018
21
-111.309913999999992
0
LINE
8
BLACK
6
CONTINUOUS
10
218.0124610000000018
20
-111.309913999999992
11
218.068224999999984
21
-111.4815380000000005
0
LINE
8
BLACK
6
CONTINUOUS
10
218.068224999999984
20
-111.4815380000000005
11
218.0964549999999917
21
-111.6597719999999896
0
LINE
8
BLACK
6
CONTINUOUS
10
218.0964549999999917
20
-111.6597719999999896
11
218.0964549999999917
21
-111.8402279999999962
0
LINE
8
BLACK
6
CONTINUOUS
10
218.0964549999999917
20
-111.8402279999999962
11
218.068224999999984
21
-112.0184619999999995
0
LINE
8
BLACK
6
CONTINUOUS
10
218.068224999999984
20
-112.0184619999999995
11
218.0124610000000018
21
-112.1900859999999938
0
LINE
8
BLACK
6
CONTINUOUS
10
218.0124610000000018
20
-112.1900859999999938
11
217.9305359999999894
21
-112.3508729999999929
0
LINE
8
BLACK
6
CONTINUOUS
10
217.9305359999999894
20
-112.3508729999999929
11
217.8244669999999985
21
-112.4968649999999997
0
LINE
8
BLACK
6
CONTINUOUS
10
217.8244669999999985
20
-112.4968649999999997
11
217.6968650000000025
21
-112.6244669999999957
0
LINE
8
BLACK
6
CONTINUOUS
10
217.6968650000000025
20
-112.6244669999999957
11
217.5508729999999957
21
-112.7305360000000007
0
LINE
8
BLACK
6
CONTINUOUS
10
217.5508729999999957
20
-112.7305360000000007
11
217.3900859999999966
21
-112.812460999999999
0
LINE
8
BLACK
6
CONTINUOUS
10
217.3900859999999966
20
-112.812460999999999
11
217.2184619999999882
21
-112.8682249999999954
0
LINE
8
BLACK
6
CONTINUOUS
10
217.2184619999999882
20
-112.8682249999999954
11
217.0402279999999848
21
-112.8964549999999889
0
LINE
8
BLACK
6
CONTINUOUS
10
217.0402279999999848
20
-112.8964549999999889
11
216.8597719999999924
21
-112.8964549999999889
0
LINE
8
BLACK
6
CONTINUOUS
10
216.8597719999999924
20
-112.8964549999999889
11
216.6815379999999891
21
-112.8682249999999954
0
LINE
8
BLACK
6
CONTINUOUS
10
216.6815379999999891
20
-112.8682249999999954
11
216.5099139999999807
21
-112.812460999999999
0
LINE
8
BLACK
6
CONTINUOUS
10
216.5099139999999807
20
-112.812460999999999
11
216.3491269999999815
21
-112.7305360000000007
0
LINE
8
BLACK
6
CONTINUOUS
10
216.3491269999999815
20
-112.7305360000000007
11
216.2031350000000032
21
-112.6244669999999957
0
LINE
8
BLACK
6
CONTINUOUS
10
216.2031350000000032
20
-112.6244669999999957
11
216.0755329999999788
21
-112.4968649999999997
0
LINE
8
BLACK
6
CONTINUOUS
10
216.0755329999999788
20
-112.4968649999999997
11
215.9694639999999879
21
-112.3508729999999929
0
LINE
8
BLACK
6
CONTINUOUS
10
215.9694639999999879
20
-112.3508729999999929
11
215.8875390000000039
21
-112.1900859999999938
0
LINE
8
BLACK
6
CONTINUOUS
10
215.8875390000000039
20
-112.1900859999999938
11
215.8317749999999933
21
-112.0184619999999995
0
LINE
8
BLACK
6
CONTINUOUS
10
215.8317749999999933
20
-112.0184619999999995
11
215.8035449999999855
21
-111.8402279999999962
0
LINE
8
BLACK
6
CONTINUOUS
10
215.8035449999999855
20
-111.8402279999999962
11
215.8035449999999855
21
-111.6597719999999896
0
LINE
8
BLACK
6
CONTINUOUS
10
215.8035449999999855
20
-111.6597719999999896
11
215.8056339999999977
21
-111.6465839999999901
0
LINE
8
BLACK
6
CONTINUOUS
10
215.8056339999999977
20
-111.6465839999999901
11
215.8317749999999933
21
-111.4815380000000005
0
LINE
8
BLACK
6
CONTINUOUS
10
215.8317749999999933
20
-111.4815380000000005
11
215.8875390000000039
21
-111.309913999999992
0
LINE
8
BLACK
6
CONTINUOUS
10
215.8875390000000039
20
-111.309913999999992
11
215.9694639999999879
21
-111.1491269999999929
0
LINE
8
BLACK
6
CONTINUOUS
10
215.9694639999999879
20
-111.1491269999999929
11
216.0755329999999788
21
-111.0031350000000003
0
LINE
8
BLACK
6
CONTINUOUS
10
216.0755329999999788
20
-111.0031350000000003
11
216.2031350000000032
21
-110.8755329999999901
0
LINE
8
BLACK
6
CONTINUOUS
10
216.2031350000000032
20
-110.8755329999999901
11
216.3491269999999815
21
-110.7694639999999993
0
LINE
8
BLACK
6
CONTINUOUS
10
216.3491269999999815
20
-110.7694639999999993
11
216.5099139999999807
21
-110.687539000000001
0
LINE
8
BLACK
6
CONTINUOUS
10
216.5099139999999807
20
-110.687539000000001
11
216.6815379999999891
21
-110.6317749999999904
0
LINE
8
BLACK
6
CONTINUOUS
10
216.6815379999999891
20
-110.6317749999999904
11
216.8597719999999924
21
-110.6035449999999969
0
LINE
8
BLACK
6
CONTINUOUS
10
216.8597719999999924
20
-110.6035449999999969
11
217.0402279999999848
21
-110.6035449999999969
0
LINE
8
BLACK
6
CONTINUOUS
10
217.0402279999999848
20
-110.6035449999999969
11
217.2184619999999882
21
-110.6317749999999904
0
LINE
8
BLACK
6
CONTINUOUS
10
215.8999999999999773
20
-111.8534159999999957
11
215.9403499999999951
21
-112.0562740000000019
0
LINE
8
BLACK
6
CONTINUOUS
10
215.9403499999999951
20
-112.0562740000000019
11
216.0195019999999886
21
-112.2473619999999954
0
LINE
8
BLACK
6
CONTINUOUS
10
216.0195019999999886
20
-112.2473619999999954
11
216.1344110000000001
21
-112.4193360000000013
0
LINE
8
BLACK
6
CONTINUOUS
10
216.1344110000000001
20
-112.4193360000000013
11
216.2806640000000016
21
-112.5655889999999886
0
LINE
8
BLACK
6
CONTINUOUS
10
216.2806640000000016
20
-112.5655889999999886
11
216.452637999999979
21
-112.680498
0
LINE
8
BLACK
6
CONTINUOUS
10
216.452637999999979
20
-112.680498
11
216.6437259999999867
21
-112.7596499999999935
0
LINE
8
BLACK
6
CONTINUOUS
10
216.6437259999999867
20
-112.7596499999999935
11
216.8465839999999787
21
-112.7999999999999972
0
LINE
8
BLACK
6
CONTINUOUS
10
216.8465839999999787
20
-112.7999999999999972
11
217.0534159999999986
21
-112.7999999999999972
0
LINE
8
BLACK
6
CONTINUOUS
10
217.0534159999999986
20
-112.7999999999999972
11
217.2562739999999906
21
-112.7596499999999935
0
LINE
8
BLACK
6
CONTINUOUS
10
217.2562739999999906
20
-112.7596499999999935
11
217.4473619999999983
21
-112.680498
0
LINE
8
BLACK
6
CONTINUOUS
10
217.4473619999999983
20
-112.680498
11
217.6193360000000041
21
-112.5655889999999886
0
LINE
8
BLACK
6
CONTINUOUS
10
217.6193360000000041
20
-112.5655889999999886
11
217.7655889999999772
21
-112.4193360000000013
0
LINE
8
BLACK
6
CONTINUOUS
10
217.7655889999999772
20
-112.4193360000000013
11
217.8804979999999887
21
-112.2473619999999954
0
LINE
8
BLACK
6
CONTINUOUS
10
217.8804979999999887
20
-112.2473619999999954
11
217.9596499999999821
21
-112.0562740000000019
0
LINE
8
BLACK
6
CONTINUOUS
10
217.9596499999999821
20
-112.0562740000000019
11
218.
21
-111.8534159999999957
0
LINE
8
BLACK
6
CONTINUOUS
10
218.
20
-111.8534159999999957
11
218.
21
-111.6465839999999901
0
LINE
8
BLACK
6
CONTINUOUS
10
218.
20
-111.6465839999999901
11
217.9596499999999821
21
-111.4437259999999981
0
LINE
8
BLACK
6
CONTINUOUS
10
217.9596499999999821
20
-111.4437259999999981
11
217.8804979999999887
21
-111.2526379999999904
0
LINE
8
BLACK
6
CONTINUOUS
10
217.8804979999999887
20
-111.2526379999999904
11
217.7655889999999772
21
-111.0806639999999987
0
LINE
8
BLACK
6
CONTINUOUS
10
217.7655889999999772
20
-111.0806639999999987
11
217.6193360000000041
21
-110.9344109999999972
0
LINE
8
BLACK
6
CONTINUOUS
10
217.6193360000000041
20
-110.9344109999999972
11
217.4473619999999983
21
-110.819502
0
LINE
8
BLACK
6
CONTINUOUS
10
217.4473619999999983
20
-110.819502
11
217.2562739999999906
21
-110.7403499999999923
0
LINE
8
BLACK
6
CONTINUOUS
10
217.2562739999999906
20
-110.7403499999999923
11
217.0534159999999986
21
-110.6999999999999886
0
LINE
8
BLACK
6
CONTINUOUS
10
217.0534159999999986
20
-110.6999999999999886
11
216.8465839999999787
21
-110.6999999999999886
0
LINE
8
BLACK
6
CONTINUOUS
10
216.8465839999999787
20
-110.6999999999999886
11
216.6437259999999867
21
-110.7403499999999923
0
LINE
8
BLACK
6
CONTINUOUS
10
216.6437259999999867
20
-110.7403499999999923
11
216.452637999999979
21
-110.819502
0
LINE
8
BLACK
6
CONTINUOUS
10
216.452637999999979
20
-110.819502
11
216.2806640000000016
21
-110.9344109999999972
0
LINE
8
BLACK
6
CONTINUOUS
10
216.2806640000000016
20
-110.9344109999999972
11
216.1344110000000001
21
-111.0806639999999987
0
LINE
8
BLACK
6
CONTINUOUS
10
216.1344110000000001
20
-111.0806639999999987
11
216.0195019999999886
21
-111.2526379999999904
0
LINE
8
BLACK
6
CONTINUOUS
10
216.0195019999999886
20
-111.2526379999999904
11
215.9403499999999951
21
-111.4437259999999981
0
LINE
8
BLACK
6
CONTINUOUS
10
215.9403499999999951
20
-111.4437259999999981
11
215.8999999999999773
21
-111.6465839999999901
0
LINE
8
BLACK
6
CONTINUOUS
10
215.8999999999999773
20
-111.6465839999999901
11
215.8999999999999773
21
-111.8534159999999957
0
LINE
8
BLACK
6
CONTINUOUS
10
191.2184619999999882
20
-67.6317749999999904
11
191.3900859999999966
21
-67.687539000000001
0
LINE
8
BLACK
6
CONTINUOUS
10
191.3900859999999966
20
-67.687539000000001
11
191.5508729999999957
21
-67.7694639999999993
0
LINE
8
BLACK
6
CONTINUOUS
10
191.5508729999999957
20
-67.7694639999999993
11
191.6968650000000025
21
-67.8755329999999901
0
LINE
8
BLACK
6
CONTINUOUS
10
191.6968650000000025
20
-67.8755329999999901
11
191.8244669999999985
21
-68.0031350000000003
0
LINE
8
BLACK
6
CONTINUOUS
10
191.8244669999999985
20
-68.0031350000000003
11
191.9305359999999894
21
-68.1491269999999929
0
LINE
8
BLACK
6
CONTINUOUS
10
191.9305359999999894
20
-68.1491269999999929
11
192.0124610000000018
21
-68.309913999999992
0
LINE
8
BLACK
6
CONTINUOUS
10
192.0124610000000018
20
-68.309913999999992
11
192.068224999999984
21
-68.4815380000000005
0
LINE
8
BLACK
6
CONTINUOUS
10
192.068224999999984
20
-68.4815380000000005
11
192.0964549999999917
21
-68.6597720000000038
0
LINE
8
BLACK
6
CONTINUOUS
10
192.0964549999999917
20
-68.6597720000000038
11
192.0964549999999917
21
-68.8402279999999962
0
LINE
8
BLACK
6
CONTINUOUS
10
192.0964549999999917
20
-68.8402279999999962
11
192.068224999999984
21
-69.0184619999999995
0
LINE
8
BLACK
6
CONTINUOUS
10
192.068224999999984
20
-69.0184619999999995
11
192.0124610000000018
21
-69.1900859999999938
0
LINE
8
BLACK
6
CONTINUOUS
10
192.0124610000000018
20
-69.1900859999999938
11
191.9305359999999894
21
-69.3508729999999929
0
LINE
8
BLACK
6
CONTINUOUS
10
191.9305359999999894
20
-69.3508729999999929
11
191.8244669999999985
21
-69.4968649999999997
0
LINE
8
BLACK
6
CONTINUOUS
10
191.8244669999999985
20
-69.4968649999999997
11
191.6968650000000025
21
-69.6244669999999957
0
LINE
8
BLACK
6
CONTINUOUS
10
191.6968650000000025
20
-69.6244669999999957
11
191.5508729999999957
21
-69.7305360000000007
0
LINE
8
BLACK
6
CONTINUOUS
10
191.5508729999999957
20
-69.7305360000000007
11
191.3900859999999966
21
-69.812460999999999
0
LINE
8
BLACK
6
CONTINUOUS
10
191.3900859999999966
20
-69.812460999999999
11
191.2184619999999882
21
-69.8682249999999954
0
LINE
8
BLACK
6
CONTINUOUS
10
191.2184619999999882
20
-69.8682249999999954
11
191.0402279999999848
21
-69.8964550000000031
0
LINE
8
BLACK
6
CONTINUOUS
10
191.0402279999999848
20
-69.8964550000000031
11
190.8597719999999924
21
-69.8964550000000031
0
LINE
8
BLACK
6
CONTINUOUS
10
190.8597719999999924
20
-69.8964550000000031
11
190.6815379999999891
21
-69.8682249999999954
0
LINE
8
BLACK
6
CONTINUOUS
10
190.6815379999999891
20
-69.8682249999999954
11
190.5099139999999807
21
-69.812460999999999
0
LINE
8
BLACK
6
CONTINUOUS
10
190.5099139999999807
20
-69.812460999999999
11
190.3491269999999815
21
-69.7305360000000007
0
LINE
8
BLACK
6
CONTINUOUS
10
190.3491269999999815
20
-69.7305360000000007
11
190.2031350000000032
21
-69.6244669999999957
0
LINE
8
BLACK
6
CONTINUOUS
10
190.2031350000000032
20
-69.6244669999999957
11
190.0755329999999788
21
-69.4968649999999997
0
LINE
8
BLACK
6
CONTINUOUS
10
190.0755329999999788
20
-69.4968649999999997
11
189.9694639999999879
21
-69.3508729999999929
0
LINE
8
BLACK
6
CONTINUOUS
10
189.9694639999999879
20
-69.3508729999999929
11
189.8875390000000039
21
-69.1900859999999938
0
LINE
8
BLACK
6
CONTINUOUS
10
189.8875390000000039
20
-69.1900859999999938
11
189.8317749999999933
21
-69.0184619999999995
0
LINE
8
BLACK
6
CONTINUOUS
10
189.8317749999999933
20
-69.0184619999999995
11
189.8035449999999855
21
-68.8402279999999962
0
LINE
8
BLACK
6
CONTINUOUS
10
189.8035449999999855
20
-68.8402279999999962
11
189.8035449999999855
21
-68.6597720000000038
0
LINE
8
BLACK
6
CONTINUOUS
10
189.8035449999999855
20
-68.6597720000000038
11
189.8056339999999977
21
-68.6465839999999901
0
LINE
8
BLACK
6
CONTINUOUS
10
189.8056339999999977
20
-68.6465839999999901
11
189.8317749999999933
21
-68.4815380000000005
0
LINE
8
BLACK
6
CONTINUOUS
10
189.8317749999999933
20
-68.4815380000000005
11
189.8875390000000039
21
-68.309913999999992
0
LINE
8
BLACK
6
CONTINUOUS
10
189.8875390000000039
20
-68.309913999999992
11
189.9694639999999879
21
-68.1491269999999929
0
LINE
8
BLACK
6
CONTINUOUS
10
189.9694639999999879
20
-68.1491269999999929
11
190.0755329999999788
21
-68.0031350000000003
0
LINE
8
BLACK
6
CONTINUOUS
10
190.0755329999999788
20
-68.0031350000000003
11
190.2031350000000032
21
-67.8755329999999901
0
LINE
8
BLACK
6
CONTINUOUS
10
190.2031350000000032
20
-67.8755329999999901
11
190.3491269999999815
21
-67.7694639999999993
0
LINE
8
BLACK
6
CONTINUOUS
10
190.3491269999999815
20
-67.7694639999999993
11
190.5099139999999807
21
-67.687539000000001
0
LINE
8
BLACK
6
CONTINUOUS
10
190.5099139999999807
20
-67.687539000000001
11
190.6815379999999891
21
-67.6317749999999904
0
LINE
8
BLACK
6
CONTINUOUS
10
190.6815379999999891
20
-67.6317749999999904
11
190.8597719999999924
21
-67.6035449999999969
0
LINE
8
BLACK
6
CONTINUOUS
10
190.8597719999999924
20
-67.6035449999999969
11
191.0402279999999848
21
-67.6035449999999969
0
LINE
8
BLACK
6
CONTINUOUS
10
191.0402279999999848
20
-67.6035449999999969
11
191.2184619999999882
21
-67.6317749999999904
0
LINE
8
BLACK
6
CONTINUOUS
10
189.8999999999999773
20
-68.8534159999999957
11
189.9403499999999951
21
-69.0562740000000019
0
LINE
8
BLACK
6
CONTINUOUS
10
189.9403499999999951
20
-69.0562740000000019
11
190.0195019999999886
21
-69.2473619999999954
0
LINE
8
BLACK
6
CONTINUOUS
10
190.0195019999999886
20
-69.2473619999999954
11
190.1344110000000001
21
-69.4193360000000013
0
LINE
8
BLACK
6
CONTINUOUS
10
190.1344110000000001
20
-69.4193360000000013
11
190.2806640000000016
21
-69.5655890000000028
0
LINE
8
BLACK
6
CONTINUOUS
10
190.2806640000000016
20
-69.5655890000000028
11
190.452637999999979
21
-69.680498
0
LINE
8
BLACK
6
CONTINUOUS
10
190.452637999999979
20
-69.680498
11
190.6437259999999867
21
-69.7596499999999935
0
LINE
8
BLACK
6
CONTINUOUS
10
190.6437259999999867
20
-69.7596499999999935
11
190.8465839999999787
21
-69.7999999999999972
0
LINE
8
BLACK
6
CONTINUOUS
10
190.8465839999999787
20
-69.7999999999999972
11
191.0534159999999986
21
-69.7999999999999972
0
LINE
8
BLACK
6
CONTINUOUS
10
191.0534159999999986
20
-69.7999999999999972
11
191.2562739999999906
21
-69.7596499999999935
0
LINE
8
BLACK
6
CONTINUOUS
10
191.2562739999999906
20
-69.7596499999999935
11
191.4473619999999983
21
-69.680498
0
LINE
8
BLACK
6
CONTINUOUS
10
191.4473619999999983
20
-69.680498
11
191.6193360000000041
21
-69.5655890000000028
0
LINE
8
BLACK
6
CONTINUOUS
10
191.6193360000000041
20
-69.5655890000000028
11
191.7655889999999772
21
-69.4193360000000013
0
LINE
8
BLACK
6
CONTINUOUS
10
191.7655889999999772
20
-69.4193360000000013
11
191.8804979999999887
21
-69.2473619999999954
0
LINE
8
BLACK
6
CONTINUOUS
10
191.8804979999999887
20
-69.2473619999999954
11
191.9596499999999821
21
-69.0562740000000019
0
LINE
8
BLACK
6
CONTINUOUS
10
191.9596499999999821
20
-69.0562740000000019
11
192.
21
-68.8534159999999957
0
LINE
8
BLACK
6
CONTINUOUS
10
192.
20
-68.8534159999999957
11
192.
21
-68.6465839999999901
0
LINE
8
BLACK
6
CONTINUOUS
10
192.
20
-68.6465839999999901
11
191.9596499999999821
21
-68.4437259999999981
0
LINE
8
BLACK
6
CONTINUOUS
10
191.9596499999999821
20
-68.4437259999999981
11
191.8804979999999887
21
-68.2526379999999904
0
LINE
8
BLACK
6
CONTINUOUS
10
191.8804979999999887
20
-68.2526379999999904
11
191.7655889999999772
21
-68.0806639999999987
0
LINE
8
BLACK
6
CONTINUOUS
10
191.7655889999999772
20
-68.0806639999999987
11
191.6193360000000041
21
-67.9344109999999972
0
LINE
8
BLACK
6
CONTINUOUS
10
191.6193360000000041
20
-67.9344109999999972
11
191.4473619999999983
21
-67.819502
0
LINE
8
BLACK
6
CONTINUOUS
10
191.4473619999999983
20
-67.819502
11
191.2562739999999906
21
-67.7403499999999923
0
LINE
8
BLACK
6
CONTINUOUS
10
191.2562739999999906
20
-67.7403499999999923
11
191.0534159999999986
21
-67.7000000000000028
0
LINE
8
BLACK
6
CONTINUOUS
10
191.0534159999999986
20
-67.7000000000000028
11
190.8465839999999787
21
-67.7000000000000028
0
LINE
8
BLACK
6
CONTINUOUS
10
190.8465839999999787
20
-67.7000000000000028
11
190.6437259999999867
21
-67.7403499999999923
0
LINE
8
BLACK
6
CONTINUOUS
10
190.6437259999999867
20
-67.7403499999999923
11
190.452637999999979
21
-67.819502
0
LINE
8
BLACK
6
CONTINUOUS
10
190.452637999999979
20
-67.819502
11
190.2806640000000016
21
-67.9344109999999972
0
LINE
8
BLACK
6
CONTINUOUS
10
190.2806640000000016
20
-67.9344109999999972
11
190.1344110000000001
21
-68.0806639999999987
0
LINE
8
BLACK
6
CONTINUOUS
10
190.1344110000000001
20
-68.0806639999999987
11
190.0195019999999886
21
-68.2526379999999904
0
LINE
8
BLACK
6
CONTINUOUS
10
190.0195019999999886
20
-68.2526379999999904
11
189.9403499999999951
21
-68.4437259999999981
0
LINE
8
BLACK
6
CONTINUOUS
10
189.9403499999999951
20
-68.4437259999999981
11
189.8999999999999773
21
-68.6465839999999901
0
LINE
8
BLACK
6
CONTINUOUS
10
189.8999999999999773
20
-68.6465839999999901
11
189.8999999999999773
21
-68.8534159999999957
0
LINE
8
BLACK
6
CONTINUOUS
10
217.2184619999999882
20
-67.6317749999999904
11
217.3900859999999966
21
-67.687539000000001
0
LINE
8
BLACK
6
CONTINUOUS
10
217.3900859999999966
20
-67.687539000000001
11
217.5508729999999957
21
-67.7694639999999993
0
LINE
8
BLACK
6
CONTINUOUS
10
217.5508729999999957
20
-67.7694639999999993
11
217.6968650000000025
21
-67.8755329999999901
0
LINE
8
BLACK
6
CONTINUOUS
10
217.6968650000000025
20
-67.8755329999999901
11
217.8244669999999985
21
-68.0031350000000003
0
LINE
8
BLACK
6
CONTINUOUS
10
217.8244669999999985
20
-68.0031350000000003
11
217.9305359999999894
21
-68.1491269999999929
0
LINE
8
BLACK
6
CONTINUOUS
10
217.9305359999999894
20
-68.1491269999999929
11
218.0124610000000018
21
-68.309913999999992
0
LINE
8
BLACK
6
CONTINUOUS
10
218.0124610000000018
20
-68.309913999999992
11
218.068224999999984
21
-68.4815380000000005
0
LINE
8
BLACK
6
CONTINUOUS
10
218.068224999999984
20
-68.4815380000000005
11
218.0964549999999917
21
-68.6597720000000038
0
LINE
8
BLACK
6
CONTINUOUS
10
218.0964549999999917
20
-68.6597720000000038
11
218.0964549999999917
21
-68.8402279999999962
0
LINE
8
BLACK
6
CONTINUOUS
10
218.0964549999999917
20
-68.8402279999999962
11
218.068224999999984
21
-69.0184619999999995
0
LINE
8
BLACK
6
CONTINUOUS
10
218.068224999999984
20
-69.0184619999999995
11
218.0124610000000018
21
-69.1900859999999938
0
LINE
8
BLACK
6
CONTINUOUS
10
218.0124610000000018
20
-69.1900859999999938
11
217.9305359999999894
21
-69.3508729999999929
0
LINE
8
BLACK
6
CONTINUOUS
10
217.9305359999999894
20
-69.3508729999999929
11
217.8244669999999985
21
-69.4968649999999997
0
LINE
8
BLACK
6
CONTINUOUS
10
217.8244669999999985
20
-69.4968649999999997
11
217.6968650000000025
21
-69.6244669999999957
0
LINE
8
BLACK
6
CONTINUOUS
10
217.6968650000000025
20
-69.6244669999999957
11
217.5508729999999957
21
-69.7305360000000007
0
LINE
8
BLACK
6
CONTINUOUS
10
217.5508729999999957
20
-69.7305360000000007
11
217.3900859999999966
21
-69.812460999999999
0
LINE
8
BLACK
6
CONTINUOUS
10
217.3900859999999966
20
-69.812460999999999
11
217.2184619999999882
21
-69.8682249999999954
0
LINE
8
BLACK
6
CONTINUOUS
10
217.2184619999999882
20
-69.8682249999999954
11
217.0402279999999848
21
-69.8964550000000031
0
LINE
8
BLACK
6
CONTINUOUS
10
217.0402279999999848
20
-69.8964550000000031
11
216.8597719999999924
21
-69.8964550000000031
0
LINE
8
BLACK
6
CONTINUOUS
10
216.8597719999999924
20
-69.8964550000000031
11
216.6815379999999891
21
-69.8682249999999954
0
LINE
8
BLACK
6
CONTINUOUS
10
216.6815379999999891
20
-69.8682249999999954
11
216.5099139999999807
21
-69.812460999999999
0
LINE
8
BLACK
6
CONTINUOUS
10
216.5099139999999807
20
-69.812460999999999
11
216.3491269999999815
21
-69.7305360000000007
0
LINE
8
BLACK
6
CONTINUOUS
10
216.3491269999999815
20
-69.7305360000000007
11
216.2031350000000032
21
-69.6244669999999957
0
LINE
8
BLACK
6
CONTINUOUS
10
216.2031350000000032
20
-69.6244669999999957
11
216.0755329999999788
21
-69.4968649999999997
0
LINE
8
BLACK
6
CONTINUOUS
10
216.0755329999999788
20
-69.4968649999999997
11
215.9694639999999879
21
-69.3508729999999929
0
LINE
8
BLACK
6
CONTINUOUS
10
215.9694639999999879
20
-69.3508729999999929
11
215.8875390000000039
21
-69.1900859999999938
0
LINE
8
BLACK
6
CONTINUOUS
10
215.8875390000000039
20
-69.1900859999999938
11
215.8317749999999933
21
-69.0184619999999995
0
LINE
8
BLACK
6
CONTINUOUS
10
215.8317749999999933
20
-69.0184619999999995
11
215.8035449999999855
21
-68.8402279999999962
0
LINE
8
BLACK
6
CONTINUOUS
10
215.8035449999999855
20
-68.8402279999999962
11
215.8035449999999855
21
-68.6597720000000038
0
LINE
8
BLACK
6
CONTINUOUS
10
215.8035449999999855
20
-68.6597720000000038
11
215.8056339999999977
21
-68.6465839999999901
0
LINE
8
BLACK
6
CONTINUOUS
10
215.8056339999999977
20
-68.6465839999999901
11
215.8317749999999933
21
-68.4815380000000005
0
LINE
8
BLACK
6
CONTINUOUS
10
215.8317749999999933
20
-68.4815380000000005
11
215.8875390000000039
21
-68.309913999999992
0
LINE
8
BLACK
6
CONTINUOUS
10
215.8875390000000039
20
-68.309913999999992
11
215.9694639999999879
21
-68.1491269999999929
0
LINE
8
BLACK
6
CONTINUOUS
10
215.9694639999999879
20
-68.1491269999999929
11
216.0755329999999788
21
-68.0031350000000003
0
LINE
8
BLACK
6
CONTINUOUS
10
216.0755329999999788
20
-68.0031350000000003
11
216.2031350000000032
21
-67.8755329999999901
0
LINE
8
BLACK
6
CONTINUOUS
10
216.2031350000000032
20
-67.8755329999999901
11
216.3491269999999815
21
-67.7694639999999993
0
LINE
8
BLACK
6
CONTINUOUS
10
216.3491269999999815
20
-67.7694639999999993
11
216.5099139999999807
21
-67.687539000000001
0
LINE
8
BLACK
6
CONTINUOUS
10
216.5099139999999807
20
-67.687539000000001
11
216.6815379999999891
21
-67.6317749999999904
0
LINE
8
BLACK
6
CONTINUOUS
10
216.6815379999999891
20
-67.6317749999999904
11
216.8597719999999924
21
-67.6035449999999969
0
LINE
8
BLACK
6
CONTINUOUS
10
216.8597719999999924
20
-67.6035449999999969
11
217.0402279999999848
21
-67.6035449999999969
0
LINE
8
BLACK
6
CONTINUOUS
10
217.0402279999999848
20
-67.6035449999999969
11
217.2184619999999882
21
-67.6317749999999904
0
LINE
8
BLACK
6
CONTINUOUS
10
215.8999999999999773
20
-68.8534159999999957
11
215.9403499999999951
21
-69.0562740000000019
0
LINE
8
BLACK
6
CONTINUOUS
10
215.9403499999999951
20
-69.0562740000000019
11
216.0195019999999886
21
-69.2473619999999954
0
LINE
8
BLACK
6
CONTINUOUS
10
216.0195019999999886
20
-69.2473619999999954
11
216.1344110000000001
21
-69.4193360000000013
0
LINE
8
BLACK
6
CONTINUOUS
10
216.1344110000000001
20
-69.4193360000000013
11
216.2806640000000016
21
-69.5655890000000028
0
LINE
8
BLACK
6
CONTINUOUS
10
216.2806640000000016
20
-69.5655890000000028
11
216.452637999999979
21
-69.680498
0
LINE
8
BLACK
6
CONTINUOUS
10
216.452637999999979
20
-69.680498
11
216.6437259999999867
21
-69.7596499999999935
0
LINE
8
BLACK
6
CONTINUOUS
10
216.6437259999999867
20
-69.7596499999999935
11
216.8465839999999787
21
-69.7999999999999972
0
LINE
8
BLACK
6
CONTINUOUS
10
216.8465839999999787
20
-69.7999999999999972
11
217.0534159999999986
21
-69.7999999999999972
0
LINE
8
BLACK
6
CONTINUOUS
10
217.0534159999999986
20
-69.7999999999999972
11
217.2562739999999906
21
-69.7596499999999935
0
LINE
8
BLACK
6
CONTINUOUS
10
217.2562739999999906
20
-69.7596499999999935
11
217.4473619999999983
21
-69.680498
0
LINE
8
BLACK
6
CONTINUOUS
10
217.4473619999999983
20
-69.680498
11
217.6193360000000041
21
-69.5655890000000028
0
LINE
8
BLACK
6
CONTINUOUS
10
217.6193360000000041
20
-69.5655890000000028
11
217.7655889999999772
21
-69.4193360000000013
0
LINE
8
BLACK
6
CONTINUOUS
10
217.7655889999999772
20
-69.4193360000000013
11
217.8804979999999887
21
-69.2473619999999954
0
LINE
8
BLACK
6
CONTINUOUS
10
217.8804979999999887
20
-69.2473619999999954
11
217.9596499999999821
21
-69.0562740000000019
0
LINE
8
BLACK
6
CONTINUOUS
10
217.9596499999999821
20
-69.0562740000000019
11
218.
21
-68.8534159999999957
0
LINE
8
BLACK
6
CONTINUOUS
10
218.
20
-68.8534159999999957
11
218.
21
-68.6465839999999901
0
LINE
8
BLACK
6
CONTINUOUS
10
218.
20
-68.6465839999999901
11
217.9596499999999821
21
-68.4437259999999981
0
LINE
8
BLACK
6
CONTINUOUS
10
217.9596499999999821
20
-68.4437259999999981
11
217.8804979999999887
21
-68.2526379999999904
0
LINE
8
BLACK
6
CONTINUOUS
10
217.8804979999999887
20
-68.2526379999999904
11
217.7655889999999772
21
-68.0806639999999987
0
LINE
8
BLACK
6
CONTINUOUS
10
217.7655889999999772
20
-68.0806639999999987
11
217.6193360000000041
21
-67.9344109999999972
0
LINE
8
BLACK
6
CONTINUOUS
10
217.6193360000000041
20
-67.9344109999999972
11
217.4473619999999983
21
-67.819502
0
LINE
8
BLACK
6
CONTINUOUS
10
217.4473619999999983
20
-67.819502
11
217.2562739999999906
21
-67.7403499999999923
0
LINE
8
BLACK
6
CONTINUOUS
10
217.2562739999999906
20
-67.7403499999999923
11
217.0534159999999986
21
-67.7000000000000028
0
LINE
8
BLACK
6
CONTINUOUS
10
217.0534159999999986
20
-67.7000000000000028
11
216.8465839999999787
21
-67.7000000000000028
0
LINE
8
BLACK
6
CONTINUOUS
10
216.8465839999999787
20
-67.7000000000000028
11
216.6437259999999867
21
-67.7403499999999923
0
LINE
8
BLACK
6
CONTINUOUS
10
216.6437259999999867
20
-67.7403499999999923
11
216.452637999999979
21
-67.819502
0
LINE
8
BLACK
6
CONTINUOUS
10
216.452637999999979
20
-67.819502
11
216.2806640000000016
21
-67.9344109999999972
0
LINE
8
BLACK
6
CONTINUOUS
10
216.2806640000000016
20
-67.9344109999999972
11
216.1344110000000001
21
-68.0806639999999987
0
LINE
8
BLACK
6
CONTINUOUS
10
216.1344110000000001
20
-68.0806639999999987
11
216.0195019999999886
21
-68.2526379999999904
0
LINE
8
BLACK
6
CONTINUOUS
10
216.0195019999999886
20
-68.2526379999999904
11
215.9403499999999951
21
-68.4437259999999981
0
LINE
8
BLACK
6
CONTINUOUS
10
215.9403499999999951
20
-68.4437259999999981
11
215.8999999999999773
21
-68.6465839999999901
0
LINE
8
BLACK
6
CONTINUOUS
10
215.8999999999999773
20
-68.6465839999999901
11
215.8999999999999773
21
-68.8534159999999957
0
LINE
8
BLACK
6
CONTINUOUS
10
220.0730240000000038
20
-54.9128100000000003
11
220.3850529999999992
21
-54.9621099999999956
0
LINE
8
BLACK
6
CONTINUOUS
10
220.3850529999999992
20
-54.9621099999999956
11
220.6902389999999912
21
-55.0436809999999994
0
LINE
8
BLACK
6
CONTINUOUS
10
220.6902389999999912
20
-55.0436809999999994
11
220.9852539999999976
21
-55.1566359999999989
0
LINE
8
BLACK
6
CONTINUOUS
10
220.9852539999999976
20
-55.1566359999999989
11
221.2668809999999837
21
-55.2997399999999999
0
LINE
8
BLACK
6
CONTINUOUS
10
221.2668809999999837
20
-55.2997399999999999
11
221.5320469999999773
21
-55.4714349999999996
0
LINE
8
BLACK
6
CONTINUOUS
10
221.5320469999999773
20
-55.4714349999999996
11
221.7778629999999964
21
-55.6698459999999997
0
LINE
8
BLACK
6
CONTINUOUS
10
221.7778629999999964
20
-55.6698459999999997
11
222.0016459999999938
21
-55.8928119999999993
0
LINE
8
BLACK
6
CONTINUOUS
10
222.0016459999999938
20
-55.8928119999999993
11
222.2009559999999908
21
-56.1378999999999948
0
LINE
8
BLACK
6
CONTINUOUS
10
222.2009559999999908
20
-56.1378999999999948
11
222.3736189999999908
21
-56.4024359999999945
0
LINE
8
BLACK
6
CONTINUOUS
10
222.3736189999999908
20
-56.4024359999999945
11
222.517752999999999
21
-56.6835369999999941
0
LINE
8
BLACK
6
CONTINUOUS
10
222.517752999999999
20
-56.6835369999999941
11
222.6317859999999769
21
-56.9781369999999967
0
LINE
8
BLACK
6
CONTINUOUS
10
222.6317859999999769
20
-56.9781369999999967
11
222.7144739999999956
21
-57.2830219999999954
0
LINE
8
BLACK
6
CONTINUOUS
10
222.7144739999999956
20
-57.2830219999999954
11
222.764915000000002
21
-57.5948689999999957
0
LINE
8
BLACK
6
CONTINUOUS
10
222.764915000000002
20
-57.5948689999999957
11
222.7825599999999895
21
-57.9102749999999986
0
LINE
8
BLACK
6
CONTINUOUS
10
222.7825599999999895
20
-57.9102749999999986
11
222.7825419999999781
21
-57.9102749999999986
0
LINE
8
BLACK
6
CONTINUOUS
10
222.7825419999999781
20
-57.9102749999999986
11
222.7825599999999895
21
-57.9103679999999983
0
LINE
8
BLACK
6
CONTINUOUS
10
222.7825599999999895
20
-57.9103679999999983
11
222.7786799999999801
21
-112.6786799999999999
0
LINE
8
BLACK
6
CONTINUOUS
10
222.7786799999999801
20
-112.6786799999999999
11
222.762110999999976
21
-112.9948789999999974
0
LINE
8
BLACK
6
CONTINUOUS
10
222.762110999999976
20
-112.9948789999999974
11
222.7125800000000027
21
-113.3076140000000009
0
LINE
8
BLACK
6
CONTINUOUS
10
222.7125800000000027
20
-113.3076140000000009
11
222.6306309999999939
21
-113.6134589999999918
0
LINE
8
BLACK
6
CONTINUOUS
10
222.6306309999999939
20
-113.6134589999999918
11
222.5171609999999873
21
-113.9090619999999916
0
LINE
8
BLACK
6
CONTINUOUS
10
222.5171609999999873
20
-113.9090619999999916
11
222.3734129999999993
21
-114.1911839999999927
0
LINE
8
BLACK
6
CONTINUOUS
10
222.3734129999999993
20
-114.1911839999999927
11
222.2009630000000016
21
-114.4567349999999948
0
LINE
8
BLACK
6
CONTINUOUS
10
222.2009630000000016
20
-114.4567349999999948
11
222.0016990000000021
21
-114.7028059999999954
0
LINE
8
BLACK
6
CONTINUOUS
10
222.0016990000000021
20
-114.7028059999999954
11
221.7778059999999982
21
-114.9266989999999993
0
LINE
8
BLACK
6
CONTINUOUS
10
221.7778059999999982
20
-114.9266989999999993
11
221.5317349999999976
21
-115.1259629999999987
0
LINE
8
BLACK
6
CONTINUOUS
10
221.5317349999999976
20
-115.1259629999999987
11
221.2661839999999813
21
-115.2984129999999965
0
LINE
8
BLACK
6
CONTINUOUS
10
221.2661839999999813
20
-115.2984129999999965
11
220.9840619999999944
21
-115.4421609999999987
0
LINE
8
BLACK
6
CONTINUOUS
10
220.9840619999999944
20
-115.4421609999999987
11
220.6884589999999946
21
-115.5556309999999911
0
LINE
8
BLACK
6
CONTINUOUS
10
220.6884589999999946
20
-115.5556309999999911
11
220.3826139999999896
21
-115.6375799999999998
0
LINE
8
BLACK
6
CONTINUOUS
10
220.3826139999999896
20
-115.6375799999999998
11
220.069878999999986
21
-115.6871110000000016
0
LINE
8
BLACK
6
CONTINUOUS
10
220.069878999999986
20
-115.6871110000000016
11
219.7536800000000028
21
-115.7036799999999914
0
LINE
8
BLACK
6
CONTINUOUS
10
219.7536800000000028
20
-115.7036799999999914
11
190.5712999999999795
21
-115.7036799999999914
0
LINE
8
BLACK
6
CONTINUOUS
10
190.5712999999999795
20
-115.7036799999999914
11
190.5712859999999864
21
-115.703676999999999
0
LINE
8
BLACK
6
CONTINUOUS
10
190.5712859999999864
20
-115.703676999999999
11
190.2551210000000026
21
-115.6871099999999899
0
LINE
8
BLACK
6
CONTINUOUS
10
190.2551210000000026
20
-115.6871099999999899
11
189.9423859999999991
21
-115.6375789999999881
0
LINE
8
BLACK
6
CONTINUOUS
10
189.9423859999999991
20
-115.6375789999999881
11
189.6365419999999915
21
-115.5556299999999936
0
LINE
8
BLACK
6
CONTINUOUS
10
189.6365419999999915
20
-115.5556299999999936
11
189.3409389999999917
21
-115.4421600000000012
0
LINE
8
BLACK
6
CONTINUOUS
10
189.3409389999999917
20
-115.4421600000000012
11
189.0588159999999789
21
-115.298411999999999
0
LINE
8
BLACK
6
CONTINUOUS
10
189.0588159999999789
20
-115.298411999999999
11
188.793264999999991
21
-115.1259620000000012
0
LINE
8
BLACK
6
CONTINUOUS
10
188.793264999999991
20
-115.1259620000000012
11
188.5471949999999879
21
-114.9266980000000018
0
LINE
8
BLACK
6
CONTINUOUS
10
188.5471949999999879
20
-114.9266980000000018
11
188.323301999999984
21
-114.7028049999999979
0
LINE
8
BLACK
6
CONTINUOUS
10
188.323301999999984
20
-114.7028049999999979
11
188.1240379999999845
21
-114.4567349999999948
0
LINE
8
BLACK
6
CONTINUOUS
10
188.1240379999999845
20
-114.4567349999999948
11
187.9515879999999868
21
-114.1911839999999927
0
LINE
8
BLACK
6
CONTINUOUS
10
187.9515879999999868
20
-114.1911839999999927
11
187.8078399999999988
21
-113.9090609999999941
0
LINE
8
BLACK
6
CONTINUOUS
10
187.8078399999999988
20
-113.9090609999999941
11
187.6943699999999922
21
-113.6134579999999943
0
LINE
8
BLACK
6
CONTINUOUS
10
187.6943699999999922
20
-113.6134579999999943
11
187.6124209999999835
21
-113.3076140000000009
0
LINE
8
BLACK
6
CONTINUOUS
10
187.6124209999999835
20
-113.3076140000000009
11
187.5628899999999817
21
-112.9948789999999974
0
LINE
8
BLACK
6
CONTINUOUS
10
187.5628899999999817
20
-112.9948789999999974
11
187.5463209999999776
21
-112.678685999999999
0
LINE
8
BLACK
6
CONTINUOUS
10
187.5463209999999776
20
-112.678685999999999
11
187.5463199999999802
21
-112.6786799999999999
0
LINE
8
BLACK
6
CONTINUOUS
10
187.5463199999999802
20
-112.6786799999999999
11
187.5463199999999802
21
-57.9213199999999944
0
LINE
8
BLACK
6
CONTINUOUS
10
187.5463199999999802
20
-57.9213199999999944
11
187.5628889999999842
21
-57.6051209999999969
0
LINE
8
BLACK
6
CONTINUOUS
10
187.5628889999999842
20
-57.6051209999999969
11
187.612419999999986
21
-57.2923860000000005
0
LINE
8
BLACK
6
CONTINUOUS
10
187.612419999999986
20
-57.2923860000000005
11
187.6943689999999947
21
-56.9865409999999954
0
LINE
8
BLACK
6
CONTINUOUS
10
187.6943689999999947
20
-56.9865409999999954
11
187.8078390000000013
21
-56.6909379999999956
0
LINE
8
BLACK
6
CONTINUOUS
10
187.8078390000000013
20
-56.6909379999999956
11
187.9515869999999893
21
-56.4088159999999945
0
LINE
8
BLACK
6
CONTINUOUS
10
187.9515869999999893
20
-56.4088159999999945
11
188.1240369999999871
21
-56.1432649999999995
0
LINE
8
BLACK
6
CONTINUOUS
10
188.1240369999999871
20
-56.1432649999999995
11
188.3233009999999865
21
-55.8971939999999989
0
LINE
8
BLACK
6
CONTINUOUS
10
188.3233009999999865
20
-55.8971939999999989
11
188.5471939999999904
21
-55.673300999999995
0
LINE
8
BLACK
6
CONTINUOUS
10
188.5471939999999904
20
-55.673300999999995
11
188.793264999999991
21
-55.4740369999999956
0
LINE
8
BLACK
6
CONTINUOUS
10
188.793264999999991
20
-55.4740369999999956
11
189.0588159999999789
21
-55.3015869999999978
0
LINE
8
BLACK
6
CONTINUOUS
10
189.0588159999999789
20
-55.3015869999999978
11
189.3409379999999942
21
-55.1578389999999956
0
LINE
8
BLACK
6
CONTINUOUS
10
189.3409379999999942
20
-55.1578389999999956
11
189.636540999999994
21
-55.0443689999999961
0
LINE
8
BLACK
6
CONTINUOUS
10
189.636540999999994
20
-55.0443689999999961
11
189.9423859999999991
21
-54.9624199999999945
0
LINE
8
BLACK
6
CONTINUOUS
10
189.9423859999999991
20
-54.9624199999999945
11
190.2551210000000026
21
-54.9128889999999998
0
LINE
8
BLACK
6
CONTINUOUS
10
190.2551210000000026
20
-54.9128889999999998
11
190.5712919999999997
21
-54.8963210000000004
0
LINE
8
BLACK
6
CONTINUOUS
10
190.5712919999999997
20
-54.8963210000000004
11
190.5712999999999795
21
-54.8963199999999958
0
LINE
8
BLACK
6
CONTINUOUS
10
190.5712999999999795
20
-54.8963199999999958
11
190.5713189999999884
21
-54.8963199999999958
0
LINE
8
BLACK
6
CONTINUOUS
10
190.5713189999999884
20
-54.8963199999999958
11
190.5713199999999858
21
-54.8963199999999958
0
LINE
8
BLACK
6
CONTINUOUS
10
190.5713199999999858
20
-54.8963199999999958
11
219.757552000000004
21
-54.8963199999999958
0
LINE
8
BLACK
6
CONTINUOUS
10
219.757552000000004
20
-54.8963199999999958
11
219.7575559999999939
21
-54.8963199999999958
0
LINE
8
BLACK
6
CONTINUOUS
10
219.7575559999999939
20
-54.8963199999999958
11
220.0730240000000038
21
-54.9128100000000003
0
LINE
8
BLACK
6
CONTINUOUS
10
219.7575609999999813
20
-54.9463189999999955
11
219.7575559999999939
21
-54.9463209999999975
0
LINE
8
BLACK
6
CONTINUOUS
10
219.7575559999999939
20
-54.9463209999999975
11
190.5712999999999795
21
-54.9463200000000001
0
LINE
8
BLACK
6
CONTINUOUS
10
190.5712999999999795
20
-54.9463200000000001
11
190.571298999999982
21
-54.9463189999999955
0
LINE
8
BLACK
6
CONTINUOUS
10
190.571298999999982
20
-54.9463189999999955
11
190.4154059999999902
21
-54.9463189999999955
0
LINE
8
BLACK
6
CONTINUOUS
10
190.4154059999999902
20
-54.9463189999999955
11
190.1052880000000016
21
-54.978911999999994
0
LINE
8
BLACK
6
CONTINUOUS
10
190.1052880000000016
20
-54.978911999999994
11
189.8002749999999992
21
-55.0437429999999992
0
LINE
8
BLACK
6
CONTINUOUS
10
189.8002749999999992
20
-55.0437429999999992
11
189.5037089999999864
21
-55.1401009999999943
0
LINE
8
BLACK
6
CONTINUOUS
10
189.5037089999999864
20
-55.1401009999999943
11
189.2188409999999976
21
-55.2669319999999971
0
LINE
8
BLACK
6
CONTINUOUS
10
189.2188409999999976
20
-55.2669319999999971
11
188.9487900000000025
21
-55.4228449999999953
0
LINE
8
BLACK
6
CONTINUOUS
10
188.9487900000000025
20
-55.4228449999999953
11
188.6965170000000001
21
-55.6061319999999952
0
LINE
8
BLACK
6
CONTINUOUS
10
188.6965170000000001
20
-55.6061319999999952
11
188.4647839999999803
21
-55.814783999999996
0
LINE
8
BLACK
6
CONTINUOUS
10
188.4647839999999803
20
-55.814783999999996
11
188.2561319999999796
21
-56.0465169999999944
0
LINE
8
BLACK
6
CONTINUOUS
10
188.2561319999999796
20
-56.0465169999999944
11
188.0728450000000009
21
-56.2987899999999968
0
LINE
8
BLACK
6
CONTINUOUS
10
188.0728450000000009
20
-56.2987899999999968
11
187.9169320000000027
21
-56.568840999999999
0
LINE
8
BLACK
6
CONTINUOUS
10
187.9169320000000027
20
-56.568840999999999
11
187.7901009999999928
21
-56.8537089999999949
0
LINE
8
BLACK
6
CONTINUOUS
10
187.7901009999999928
20
-56.8537089999999949
11
187.6937429999999836
21
-57.1502750000000006
0
LINE
8
BLACK
6
CONTINUOUS
10
187.6937429999999836
20
-57.1502750000000006
11
187.6289119999999855
21
-57.4552879999999959
0
LINE
8
BLACK
6
CONTINUOUS
10
187.6289119999999855
20
-57.4552879999999959
11
187.596318999999994
21
-57.7654059999999987
0
LINE
8
BLACK
6
CONTINUOUS
10
187.596318999999994
20
-57.7654059999999987
11
187.5963199999999915
21
-57.9213199999999944
0
LINE
8
BLACK
6
CONTINUOUS
10
187.5963199999999915
20
-57.9213199999999944
11
187.5963199999999915
21
-112.6786759999999958
0
LINE
8
BLACK
6
CONTINUOUS
10
187.5963199999999915
20
-112.6786759999999958
11
187.596320999999989
21
-112.6786799999999999
0
LINE
8
BLACK
6
CONTINUOUS
10
187.596320999999989
20
-112.6786799999999999
11
187.5963199999999915
21
-112.8345939999999956
0
LINE
8
BLACK
6
CONTINUOUS
10
187.5963199999999915
20
-112.8345939999999956
11
187.628912999999983
21
-113.1447119999999984
0
LINE
8
BLACK
6
CONTINUOUS
10
187.628912999999983
20
-113.1447119999999984
11
187.693743999999981
21
-113.4497250000000008
0
LINE
8
BLACK
6
CONTINUOUS
10
187.693743999999981
20
-113.4497250000000008
11
187.7901019999999903
21
-113.7462900000000019
0
LINE
8
BLACK
6
CONTINUOUS
10
187.7901019999999903
20
-113.7462900000000019
11
187.9169330000000002
21
-114.0311589999999882
0
LINE
8
BLACK
6
CONTINUOUS
10
187.9169330000000002
20
-114.0311589999999882
11
188.0728450000000009
21
-114.3012090000000001
0
LINE
8
BLACK
6
CONTINUOUS
10
188.0728450000000009
20
-114.3012090000000001
11
188.2561319999999796
21
-114.5534819999999883
0
LINE
8
BLACK
6
CONTINUOUS
10
188.2561319999999796
20
-114.5534819999999883
11
188.4647849999999778
21
-114.7852149999999938
0
LINE
8
BLACK
6
CONTINUOUS
10
188.4647849999999778
20
-114.7852149999999938
11
188.6965179999999975
21
-114.993867999999992
0
LINE
8
BLACK
6
CONTINUOUS
10
188.6965179999999975
20
-114.993867999999992
11
188.9487909999999999
21
-115.1771549999999991
0
LINE
8
BLACK
6
CONTINUOUS
10
188.9487909999999999
20
-115.1771549999999991
11
189.2188409999999976
21
-115.3330669999999998
0
LINE
8
BLACK
6
CONTINUOUS
10
189.2188409999999976
20
-115.3330669999999998
11
189.5037099999999839
21
-115.4598979999999955
0
LINE
8
BLACK
6
CONTINUOUS
10
189.5037099999999839
20
-115.4598979999999955
11
189.8002749999999992
21
-115.5562559999999905
0
LINE
8
BLACK
6
CONTINUOUS
10
189.8002749999999992
20
-115.5562559999999905
11
190.1052880000000016
21
-115.6210869999999886
0
LINE
8
BLACK
6
CONTINUOUS
10
190.1052880000000016
20
-115.6210869999999886
11
190.4154059999999902
21
-115.6536799999999943
0
LINE
8
BLACK
6
CONTINUOUS
10
190.4154059999999902
20
-115.6536799999999943
11
190.5713199999999858
21
-115.6536789999999968
0
LINE
8
BLACK
6
CONTINUOUS
10
190.5713199999999858
20
-115.6536789999999968
11
190.5713229999999783
21
-115.6536799999999943
0
LINE
8
BLACK
6
CONTINUOUS
10
190.5713229999999783
20
-115.6536799999999943
11
219.7536800000000028
21
-115.6536799999999943
0
LINE
8
BLACK
6
CONTINUOUS
10
219.7536800000000028
20
-115.6536799999999943
11
219.9095939999999985
21
-115.6536809999999917
0
LINE
8
BLACK
6
CONTINUOUS
10
219.9095939999999985
20
-115.6536809999999917
11
220.219711999999987
21
-115.6210880000000003
0
LINE
8
BLACK
6
CONTINUOUS
10
220.219711999999987
20
-115.6210880000000003
11
220.5247249999999894
21
-115.556256999999988
0
LINE
8
BLACK
6
CONTINUOUS
10
220.5247249999999894
20
-115.556256999999988
11
220.8212910000000022
21
-115.459898999999993
0
LINE
8
BLACK
6
CONTINUOUS
10
220.8212910000000022
20
-115.459898999999993
11
221.106158999999991
21
-115.3330679999999973
0
LINE
8
BLACK
6
CONTINUOUS
10
221.106158999999991
20
-115.3330679999999973
11
221.3762099999999862
21
-115.1771549999999991
0
LINE
8
BLACK
6
CONTINUOUS
10
221.3762099999999862
20
-115.1771549999999991
11
221.6284829999999886
21
-114.993867999999992
0
LINE
8
BLACK
6
CONTINUOUS
10
221.6284829999999886
20
-114.993867999999992
11
221.8602159999999799
21
-114.7852159999999913
0
LINE
8
BLACK
6
CONTINUOUS
10
221.8602159999999799
20
-114.7852159999999913
11
222.0688679999999806
21
-114.5534829999999999
0
LINE
8
BLACK
6
CONTINUOUS
10
222.0688679999999806
20
-114.5534829999999999
11
222.2521549999999877
21
-114.3012099999999975
0
LINE
8
BLACK
6
CONTINUOUS
10
222.2521549999999877
20
-114.3012099999999975
11
222.4080679999999859
21
-114.0311589999999882
0
LINE
8
BLACK
6
CONTINUOUS
10
222.4080679999999859
20
-114.0311589999999882
11
222.5348989999999958
21
-113.7462909999999994
0
LINE
8
BLACK
6
CONTINUOUS
10
222.5348989999999958
20
-113.7462909999999994
11
222.6312569999999766
21
-113.4497250000000008
0
LINE
8
BLACK
6
CONTINUOUS
10
222.6312569999999766
20
-113.4497250000000008
11
222.6960880000000031
21
-113.1447119999999984
0
LINE
8
BLACK
6
CONTINUOUS
10
222.6960880000000031
20
-113.1447119999999984
11
222.7286809999999946
21
-112.8345939999999956
0
LINE
8
BLACK
6
CONTINUOUS
10
222.7286809999999946
20
-112.8345939999999956
11
222.7286799999999971
21
-112.6786799999999999
0
LINE
8
BLACK
6
CONTINUOUS
10
222.7286799999999971
20
-112.6786799999999999
11
222.7286799999999971
21
-112.6786789999999883
0
LINE
8
BLACK
6
CONTINUOUS
10
222.7286799999999971
20
-112.6786789999999883
11
222.7286799999999971
21
-112.6786779999999908
0
LINE
8
BLACK
6
CONTINUOUS
10
222.7286799999999971
20
-112.6786779999999908
11
222.7325589999999806
21
-57.9105289999999968
0
LINE
8
BLACK
6
CONTINUOUS
10
222.7325589999999806
20
-57.9105289999999968
11
222.7325359999999819
21
-57.9104569999999939
0
LINE
8
BLACK
6
CONTINUOUS
10
222.7325359999999819
20
-57.9104569999999939
11
222.7325599999999781
21
-57.9104569999999939
0
LINE
8
BLACK
6
CONTINUOUS
10
222.7325599999999781
20
-57.9104569999999939
11
222.7320119999999974
21
-57.7549059999999983
0
LINE
8
BLACK
6
CONTINUOUS
10
222.7320119999999974
20
-57.7549059999999983
11
222.6984410000000025
21
-57.4456179999999961
0
LINE
8
BLACK
6
CONTINUOUS
10
222.6984410000000025
20
-57.4456179999999961
11
222.6327969999999823
21
-57.1415179999999978
0
LINE
8
BLACK
6
CONTINUOUS
10
222.6327969999999823
20
-57.1415179999999978
11
222.5357970000000023
21
-56.8459229999999991
0
LINE
8
BLACK
6
CONTINUOUS
10
222.5357970000000023
20
-56.8459229999999991
11
222.4084989999999777
21
-56.5620539999999963
0
LINE
8
BLACK
6
CONTINUOUS
10
222.4084989999999777
20
-56.5620539999999963
11
222.2522919999999829
21
-56.2930099999999953
0
LINE
8
BLACK
6
CONTINUOUS
10
222.2522919999999829
20
-56.2930099999999953
11
222.0688779999999838
21
-56.0417229999999975
0
LINE
8
BLACK
6
CONTINUOUS
10
222.0688779999999838
20
-56.0417229999999975
11
221.8602579999999875
21
-55.810933999999996
0
LINE
8
BLACK
6
CONTINUOUS
10
221.8602579999999875
20
-55.810933999999996
11
221.6287069999999915
21
-55.6031599999999955
0
LINE
8
BLACK
6
CONTINUOUS
10
221.6287069999999915
20
-55.6031599999999955
11
221.376749999999987
21
-55.4206659999999971
0
LINE
8
BLACK
6
CONTINUOUS
10
221.376749999999987
20
-55.4206659999999971
11
221.107135999999997
21
-55.2654439999999951
0
LINE
8
BLACK
6
CONTINUOUS
10
221.107135999999997
20
-55.2654439999999951
11
220.8228039999999908
21
-55.1391859999999951
0
LINE
8
BLACK
6
CONTINUOUS
10
220.8228039999999908
20
-55.1391859999999951
11
220.5268549999999834
21
-55.0432689999999951
0
LINE
8
BLACK
6
CONTINUOUS
10
220.5268549999999834
20
-55.0432689999999951
11
220.2225169999999821
21
-54.9787379999999999
0
LINE
8
BLACK
6
CONTINUOUS
10
220.2225169999999821
20
-54.9787379999999999
11
219.913107999999994
21
-54.9462989999999962
0
LINE
8
BLACK
6
CONTINUOUS
10
219.913107999999994
20
-54.9462989999999962
11
219.7575609999999813
21
-54.9463189999999955
  0
ENDSEC
  0
EOF
