  0
SECTION
  2
HEADER
  9
$ANGBASE
  50
0.0
  9
$ANGDIR
  70
1
  9
$MEASUREMENT
  70
1
  0
ENDSEC
  0
SECTION
  2
TABLES
  0
TABLE
  2
LTYPE
  70
4
  0
LTYPE
  5
40F
  2
CONTINUOUS
  70
0
  3
Solid line
  72
65
  73
0
  40
0.0
  0
LTYPE
  5
410
  2
DASHDOT
 70
0
  3
Dash Dot ____ _ ____ _
 72
65
 73
4
 40
2.0
 49
1.25
 49
-0.25
 49
0.25
 49
-0.25
  0
LTYPE
  5
411
  2
DASHED
 70
0
  3
Dashed __ __ __ __ __
 72
65
 73
2
 40
0.75
 49
0.5
 49
-0.25
  0
LTYPE
  5
43B
  2
DOTTED
 70
0
  3
Dotted .  .  .  .
 72
65
 73
2
 40
0.2
 49
0.0
 49
-0.2
  0
ENDTAB
  0
TABLE
  2
STYLE
  70
4
  0
STYLE
  2
KICAD
  70
0
  40
0
  41
1
  42
1
  50
0
  71
0
  3
isocp.shx
  0
STYLE
  2
KICADB
  70
0
  40
0
  41
1
  42
1
  50
0
  71
0
  3
isocp.shx
  0
STYLE
  2
KICADI
  70
0
  40
0
  41
1
  42
1
  50
15
  71
0
  3
isocp.shx
  0
STYLE
  2
KICADBI
  70
0
  40
0
  41
1
  42
1
  50
15
  71
0
  3
isocp.shx
  0
ENDTAB
  0
TABLE
  2
LAYER
  70
1
  0
LAYER
  2
BLACK
  70
0
  62
7
  6
CONTINUOUS
  0
ENDTAB
  0
ENDSEC
  0
SECTION
  2
ENTITIES
0
LINE
8
BLACK
6
CONTINUOUS
10
185.6101510000000019
20
-97.8373009999999965
11
185.8116229999999973
21
-97.9027629999999931
0
LINE
8
BLACK
6
CONTINUOUS
10
185.8116229999999973
20
-97.9027629999999931
11
186.0003729999999962
21
-97.9989360000000005
0
LINE
8
BLACK
6
CONTINUOUS
10
186.0003729999999962
20
-97.9989360000000005
11
186.1717549999999903
21
-98.1234520000000003
0
LINE
8
BLACK
6
CONTINUOUS
10
186.1717549999999903
20
-98.1234520000000003
11
186.3215479999999786
21
-98.2732449999999886
0
LINE
8
BLACK
6
CONTINUOUS
10
186.3215479999999786
20
-98.2732449999999886
11
186.4460639999999785
21
-98.444626999999997
0
LINE
8
BLACK
6
CONTINUOUS
10
186.4460639999999785
20
-98.444626999999997
11
186.5422370000000001
21
-98.6333769999999959
0
LINE
8
BLACK
6
CONTINUOUS
10
186.5422370000000001
20
-98.6333769999999959
11
186.6076989999999967
21
-98.8348489999999913
0
LINE
8
BLACK
6
CONTINUOUS
10
186.6076989999999967
20
-98.8348489999999913
11
186.6408380000000022
21
-99.0440799999999939
0
LINE
8
BLACK
6
CONTINUOUS
10
186.6408380000000022
20
-99.0440799999999939
11
186.6408380000000022
21
-99.255919999999989
0
LINE
8
BLACK
6
CONTINUOUS
10
186.6408380000000022
20
-99.255919999999989
11
186.6076989999999967
21
-99.4651509999999917
0
LINE
8
BLACK
6
CONTINUOUS
10
186.6076989999999967
20
-99.4651509999999917
11
186.5422370000000001
21
-99.6666230000000013
0
LINE
8
BLACK
6
CONTINUOUS
10
186.5422370000000001
20
-99.6666230000000013
11
186.4460639999999785
21
-99.8553730000000002
0
LINE
8
BLACK
6
CONTINUOUS
10
186.4460639999999785
20
-99.8553730000000002
11
186.3215479999999786
21
-100.0267549999999943
0
LINE
8
BLACK
6
CONTINUOUS
10
186.3215479999999786
20
-100.0267549999999943
11
186.1717549999999903
21
-100.1765479999999968
0
LINE
8
BLACK
6
CONTINUOUS
10
186.1717549999999903
20
-100.1765479999999968
11
186.0003729999999962
21
-100.3010639999999967
0
LINE
8
BLACK
6
CONTINUOUS
10
186.0003729999999962
20
-100.3010639999999967
11
185.8116229999999973
21
-100.3972369999999898
0
LINE
8
BLACK
6
CONTINUOUS
10
185.8116229999999973
20
-100.3972369999999898
11
185.6101510000000019
21
-100.4626990000000006
0
LINE
8
BLACK
6
CONTINUOUS
10
185.6101510000000019
20
-100.4626990000000006
11
185.4009199999999851
21
-100.495837999999992
0
LINE
8
BLACK
6
CONTINUOUS
10
185.4009199999999851
20
-100.495837999999992
11
185.1890799999999899
21
-100.495837999999992
0
LINE
8
BLACK
6
CONTINUOUS
10
185.1890799999999899
20
-100.495837999999992
11
184.9798490000000015
21
-100.4626990000000006
0
LINE
8
BLACK
6
CONTINUOUS
10
184.9798490000000015
20
-100.4626990000000006
11
184.7783769999999777
21
-100.3972369999999898
0
LINE
8
BLACK
6
CONTINUOUS
10
184.7783769999999777
20
-100.3972369999999898
11
184.5896269999999788
21
-100.3010639999999967
0
LINE
8
BLACK
6
CONTINUOUS
10
184.5896269999999788
20
-100.3010639999999967
11
184.4182449999999847
21
-100.1765479999999968
0
LINE
8
BLACK
6
CONTINUOUS
10
184.4182449999999847
20
-100.1765479999999968
11
184.2684519999999964
21
-100.0267549999999943
0
LINE
8
BLACK
6
CONTINUOUS
10
184.2684519999999964
20
-100.0267549999999943
11
184.1439359999999965
21
-99.8553730000000002
0
LINE
8
BLACK
6
CONTINUOUS
10
184.1439359999999965
20
-99.8553730000000002
11
184.0477630000000033
21
-99.6666230000000013
0
LINE
8
BLACK
6
CONTINUOUS
10
184.0477630000000033
20
-99.6666230000000013
11
183.9823009999999783
21
-99.4651509999999917
0
LINE
8
BLACK
6
CONTINUOUS
10
183.9823009999999783
20
-99.4651509999999917
11
183.9491620000000012
21
-99.255919999999989
0
LINE
8
BLACK
6
CONTINUOUS
10
183.9491620000000012
20
-99.255919999999989
11
183.9491620000000012
21
-99.0516229999999922
0
LINE
8
BLACK
6
CONTINUOUS
10
183.9491620000000012
20
-99.0516229999999922
11
183.9491620000000012
21
-99.0440799999999939
0
LINE
8
BLACK
6
CONTINUOUS
10
183.9491620000000012
20
-99.0440799999999939
11
183.9823009999999783
21
-98.8348489999999913
0
LINE
8
BLACK
6
CONTINUOUS
10
183.9823009999999783
20
-98.8348489999999913
11
184.0477630000000033
21
-98.6333769999999959
0
LINE
8
BLACK
6
CONTINUOUS
10
184.0477630000000033
20
-98.6333769999999959
11
184.1439359999999965
21
-98.444626999999997
0
LINE
8
BLACK
6
CONTINUOUS
10
184.1439359999999965
20
-98.444626999999997
11
184.2684519999999964
21
-98.2732449999999886
0
LINE
8
BLACK
6
CONTINUOUS
10
184.2684519999999964
20
-98.2732449999999886
11
184.4182449999999847
21
-98.1234520000000003
0
LINE
8
BLACK
6
CONTINUOUS
10
184.4182449999999847
20
-98.1234520000000003
11
184.5896269999999788
21
-97.9989360000000005
0
LINE
8
BLACK
6
CONTINUOUS
10
184.5896269999999788
20
-97.9989360000000005
11
184.7783769999999777
21
-97.9027629999999931
0
LINE
8
BLACK
6
CONTINUOUS
10
184.7783769999999777
20
-97.9027629999999931
11
184.9798490000000015
21
-97.8373009999999965
0
LINE
8
BLACK
6
CONTINUOUS
10
184.9798490000000015
20
-97.8373009999999965
11
185.1890799999999899
21
-97.8041619999999909
0
LINE
8
BLACK
6
CONTINUOUS
10
185.1890799999999899
20
-97.8041619999999909
11
185.4009199999999851
21
-97.8041619999999909
0
LINE
8
BLACK
6
CONTINUOUS
10
185.4009199999999851
20
-97.8041619999999909
11
185.6101510000000019
21
-97.8373009999999965
0
LINE
8
BLACK
6
CONTINUOUS
10
184.0449999999999875
20
-99.2483769999999907
11
184.0757789999999829
21
-99.4427089999999936
0
LINE
8
BLACK
6
CONTINUOUS
10
184.0757789999999829
20
-99.4427089999999936
11
184.1365799999999808
21
-99.6298329999999908
0
LINE
8
BLACK
6
CONTINUOUS
10
184.1365799999999808
20
-99.6298329999999908
11
184.2259039999999857
21
-99.8051430000000011
0
LINE
8
BLACK
6
CONTINUOUS
10
184.2259039999999857
20
-99.8051430000000011
11
184.3415540000000021
21
-99.9643200000000007
0
LINE
8
BLACK
6
CONTINUOUS
10
184.3415540000000021
20
-99.9643200000000007
11
184.4806799999999782
21
-100.103445999999991
0
LINE
8
BLACK
6
CONTINUOUS
10
184.4806799999999782
20
-100.103445999999991
11
184.6398569999999779
21
-100.2190959999999933
0
LINE
8
BLACK
6
CONTINUOUS
10
184.6398569999999779
20
-100.2190959999999933
11
184.8151670000000024
21
-100.3084199999999981
0
LINE
8
BLACK
6
CONTINUOUS
10
184.8151670000000024
20
-100.3084199999999981
11
185.0022909999999854
21
-100.369220999999996
0
LINE
8
BLACK
6
CONTINUOUS
10
185.0022909999999854
20
-100.369220999999996
11
185.1966229999999882
21
-100.3999999999999915
0
LINE
8
BLACK
6
CONTINUOUS
10
185.1966229999999882
20
-100.3999999999999915
11
185.3933769999999868
21
-100.3999999999999915
0
LINE
8
BLACK
6
CONTINUOUS
10
185.3933769999999868
20
-100.3999999999999915
11
185.5877089999999896
21
-100.369220999999996
0
LINE
8
BLACK
6
CONTINUOUS
10
185.5877089999999896
20
-100.369220999999996
11
185.774833000000001
21
-100.3084199999999981
0
LINE
8
BLACK
6
CONTINUOUS
10
185.774833000000001
20
-100.3084199999999981
11
185.9501429999999971
21
-100.2190959999999933
0
LINE
8
BLACK
6
CONTINUOUS
10
185.9501429999999971
20
-100.2190959999999933
11
186.1093199999999968
21
-100.103445999999991
0
LINE
8
BLACK
6
CONTINUOUS
10
186.1093199999999968
20
-100.103445999999991
11
186.2484460000000013
21
-99.9643200000000007
0
LINE
8
BLACK
6
CONTINUOUS
10
186.2484460000000013
20
-99.9643200000000007
11
186.3640959999999893
21
-99.8051430000000011
0
LINE
8
BLACK
6
CONTINUOUS
10
186.3640959999999893
20
-99.8051430000000011
11
186.4534199999999942
21
-99.6298329999999908
0
LINE
8
BLACK
6
CONTINUOUS
10
186.4534199999999942
20
-99.6298329999999908
11
186.514220999999992
21
-99.4427089999999936
0
LINE
8
BLACK
6
CONTINUOUS
10
186.514220999999992
20
-99.4427089999999936
11
186.5449999999999875
21
-99.2483769999999907
0
LINE
8
BLACK
6
CONTINUOUS
10
186.5449999999999875
20
-99.2483769999999907
11
186.5449999999999875
21
-99.0516229999999922
0
LINE
8
BLACK
6
CONTINUOUS
10
186.5449999999999875
20
-99.0516229999999922
11
186.514220999999992
21
-98.8572909999999894
0
LINE
8
BLACK
6
CONTINUOUS
10
186.514220999999992
20
-98.8572909999999894
11
186.4534199999999942
21
-98.6701669999999922
0
LINE
8
BLACK
6
CONTINUOUS
10
186.4534199999999942
20
-98.6701669999999922
11
186.3640959999999893
21
-98.4948569999999961
0
LINE
8
BLACK
6
CONTINUOUS
10
186.3640959999999893
20
-98.4948569999999961
11
186.2484460000000013
21
-98.3356799999999964
0
LINE
8
BLACK
6
CONTINUOUS
10
186.2484460000000013
20
-98.3356799999999964
11
186.1093199999999968
21
-98.1965539999999919
0
LINE
8
BLACK
6
CONTINUOUS
10
186.1093199999999968
20
-98.1965539999999919
11
185.9501429999999971
21
-98.0809039999999897
0
LINE
8
BLACK
6
CONTINUOUS
10
185.9501429999999971
20
-98.0809039999999897
11
185.774833000000001
21
-97.991579999999999
0
LINE
8
BLACK
6
CONTINUOUS
10
185.774833000000001
20
-97.991579999999999
11
185.5877089999999896
21
-97.9307790000000011
0
LINE
8
BLACK
6
CONTINUOUS
10
185.5877089999999896
20
-97.9307790000000011
11
185.3933769999999868
21
-97.8999999999999915
0
LINE
8
BLACK
6
CONTINUOUS
10
185.3933769999999868
20
-97.8999999999999915
11
185.1966229999999882
21
-97.8999999999999915
0
LINE
8
BLACK
6
CONTINUOUS
10
185.1966229999999882
20
-97.8999999999999915
11
185.0022909999999854
21
-97.9307790000000011
0
LINE
8
BLACK
6
CONTINUOUS
10
185.0022909999999854
20
-97.9307790000000011
11
184.8151670000000024
21
-97.991579999999999
0
LINE
8
BLACK
6
CONTINUOUS
10
184.8151670000000024
20
-97.991579999999999
11
184.6398569999999779
21
-98.0809039999999897
0
LINE
8
BLACK
6
CONTINUOUS
10
184.6398569999999779
20
-98.0809039999999897
11
184.4806799999999782
21
-98.1965539999999919
0
LINE
8
BLACK
6
CONTINUOUS
10
184.4806799999999782
20
-98.1965539999999919
11
184.3415540000000021
21
-98.3356799999999964
0
LINE
8
BLACK
6
CONTINUOUS
10
184.3415540000000021
20
-98.3356799999999964
11
184.2259039999999857
21
-98.4948569999999961
0
LINE
8
BLACK
6
CONTINUOUS
10
184.2259039999999857
20
-98.4948569999999961
11
184.1365799999999808
21
-98.6701669999999922
0
LINE
8
BLACK
6
CONTINUOUS
10
184.1365799999999808
20
-98.6701669999999922
11
184.0757789999999829
21
-98.8572909999999894
0
LINE
8
BLACK
6
CONTINUOUS
10
184.0757789999999829
20
-98.8572909999999894
11
184.0449999999999875
21
-99.0516229999999922
0
LINE
8
BLACK
6
CONTINUOUS
10
184.0449999999999875
20
-99.0516229999999922
11
184.0449999999999875
21
-99.2483769999999907
0
LINE
8
BLACK
6
CONTINUOUS
10
227.6101510000000019
20
-97.8373009999999965
11
227.8116229999999973
21
-97.9027629999999931
0
LINE
8
BLACK
6
CONTINUOUS
10
227.8116229999999973
20
-97.9027629999999931
11
228.0003729999999962
21
-97.9989360000000005
0
LINE
8
BLACK
6
CONTINUOUS
10
228.0003729999999962
20
-97.9989360000000005
11
228.1717549999999903
21
-98.1234520000000003
0
LINE
8
BLACK
6
CONTINUOUS
10
228.1717549999999903
20
-98.1234520000000003
11
228.3215479999999786
21
-98.2732449999999886
0
LINE
8
BLACK
6
CONTINUOUS
10
228.3215479999999786
20
-98.2732449999999886
11
228.4460639999999785
21
-98.444626999999997
0
LINE
8
BLACK
6
CONTINUOUS
10
228.4460639999999785
20
-98.444626999999997
11
228.5422370000000001
21
-98.6333769999999959
0
LINE
8
BLACK
6
CONTINUOUS
10
228.5422370000000001
20
-98.6333769999999959
11
228.6076989999999967
21
-98.8348489999999913
0
LINE
8
BLACK
6
CONTINUOUS
10
228.6076989999999967
20
-98.8348489999999913
11
228.6408380000000022
21
-99.0440799999999939
0
LINE
8
BLACK
6
CONTINUOUS
10
228.6408380000000022
20
-99.0440799999999939
11
228.6408380000000022
21
-99.255919999999989
0
LINE
8
BLACK
6
CONTINUOUS
10
228.6408380000000022
20
-99.255919999999989
11
228.6076989999999967
21
-99.4651509999999917
0
LINE
8
BLACK
6
CONTINUOUS
10
228.6076989999999967
20
-99.4651509999999917
11
228.5422370000000001
21
-99.6666230000000013
0
LINE
8
BLACK
6
CONTINUOUS
10
228.5422370000000001
20
-99.6666230000000013
11
228.4460639999999785
21
-99.8553730000000002
0
LINE
8
BLACK
6
CONTINUOUS
10
228.4460639999999785
20
-99.8553730000000002
11
228.3215479999999786
21
-100.0267549999999943
0
LINE
8
BLACK
6
CONTINUOUS
10
228.3215479999999786
20
-100.0267549999999943
11
228.1717549999999903
21
-100.1765479999999968
0
LINE
8
BLACK
6
CONTINUOUS
10
228.1717549999999903
20
-100.1765479999999968
11
228.0003729999999962
21
-100.3010639999999967
0
LINE
8
BLACK
6
CONTINUOUS
10
228.0003729999999962
20
-100.3010639999999967
11
227.8116229999999973
21
-100.3972369999999898
0
LINE
8
BLACK
6
CONTINUOUS
10
227.8116229999999973
20
-100.3972369999999898
11
227.6101510000000019
21
-100.4626990000000006
0
LINE
8
BLACK
6
CONTINUOUS
10
227.6101510000000019
20
-100.4626990000000006
11
227.4009199999999851
21
-100.495837999999992
0
LINE
8
BLACK
6
CONTINUOUS
10
227.4009199999999851
20
-100.495837999999992
11
227.1890799999999899
21
-100.495837999999992
0
LINE
8
BLACK
6
CONTINUOUS
10
227.1890799999999899
20
-100.495837999999992
11
226.9798490000000015
21
-100.4626990000000006
0
LINE
8
BLACK
6
CONTINUOUS
10
226.9798490000000015
20
-100.4626990000000006
11
226.7783769999999777
21
-100.3972369999999898
0
LINE
8
BLACK
6
CONTINUOUS
10
226.7783769999999777
20
-100.3972369999999898
11
226.5896269999999788
21
-100.3010639999999967
0
LINE
8
BLACK
6
CONTINUOUS
10
226.5896269999999788
20
-100.3010639999999967
11
226.4182449999999847
21
-100.1765479999999968
0
LINE
8
BLACK
6
CONTINUOUS
10
226.4182449999999847
20
-100.1765479999999968
11
226.2684519999999964
21
-100.0267549999999943
0
LINE
8
BLACK
6
CONTINUOUS
10
226.2684519999999964
20
-100.0267549999999943
11
226.1439359999999965
21
-99.8553730000000002
0
LINE
8
BLACK
6
CONTINUOUS
10
226.1439359999999965
20
-99.8553730000000002
11
226.0477630000000033
21
-99.6666230000000013
0
LINE
8
BLACK
6
CONTINUOUS
10
226.0477630000000033
20
-99.6666230000000013
11
225.9823009999999783
21
-99.4651509999999917
0
LINE
8
BLACK
6
CONTINUOUS
10
225.9823009999999783
20
-99.4651509999999917
11
225.9491620000000012
21
-99.255919999999989
0
LINE
8
BLACK
6
CONTINUOUS
10
225.9491620000000012
20
-99.255919999999989
11
225.9491620000000012
21
-99.0516229999999922
0
LINE
8
BLACK
6
CONTINUOUS
10
225.9491620000000012
20
-99.0516229999999922
11
225.9491620000000012
21
-99.0440799999999939
0
LINE
8
BLACK
6
CONTINUOUS
10
225.9491620000000012
20
-99.0440799999999939
11
225.9823009999999783
21
-98.8348489999999913
0
LINE
8
BLACK
6
CONTINUOUS
10
225.9823009999999783
20
-98.8348489999999913
11
226.0477630000000033
21
-98.6333769999999959
0
LINE
8
BLACK
6
CONTINUOUS
10
226.0477630000000033
20
-98.6333769999999959
11
226.1439359999999965
21
-98.444626999999997
0
LINE
8
BLACK
6
CONTINUOUS
10
226.1439359999999965
20
-98.444626999999997
11
226.2684519999999964
21
-98.2732449999999886
0
LINE
8
BLACK
6
CONTINUOUS
10
226.2684519999999964
20
-98.2732449999999886
11
226.4182449999999847
21
-98.1234520000000003
0
LINE
8
BLACK
6
CONTINUOUS
10
226.4182449999999847
20
-98.1234520000000003
11
226.5896269999999788
21
-97.9989360000000005
0
LINE
8
BLACK
6
CONTINUOUS
10
226.5896269999999788
20
-97.9989360000000005
11
226.7783769999999777
21
-97.9027629999999931
0
LINE
8
BLACK
6
CONTINUOUS
10
226.7783769999999777
20
-97.9027629999999931
11
226.9798490000000015
21
-97.8373009999999965
0
LINE
8
BLACK
6
CONTINUOUS
10
226.9798490000000015
20
-97.8373009999999965
11
227.1890799999999899
21
-97.8041619999999909
0
LINE
8
BLACK
6
CONTINUOUS
10
227.1890799999999899
20
-97.8041619999999909
11
227.4009199999999851
21
-97.8041619999999909
0
LINE
8
BLACK
6
CONTINUOUS
10
227.4009199999999851
20
-97.8041619999999909
11
227.6101510000000019
21
-97.8373009999999965
0
LINE
8
BLACK
6
CONTINUOUS
10
226.0449999999999875
20
-99.2483769999999907
11
226.0757789999999829
21
-99.4427089999999936
0
LINE
8
BLACK
6
CONTINUOUS
10
226.0757789999999829
20
-99.4427089999999936
11
226.1365799999999808
21
-99.6298329999999908
0
LINE
8
BLACK
6
CONTINUOUS
10
226.1365799999999808
20
-99.6298329999999908
11
226.2259039999999857
21
-99.8051430000000011
0
LINE
8
BLACK
6
CONTINUOUS
10
226.2259039999999857
20
-99.8051430000000011
11
226.3415540000000021
21
-99.9643200000000007
0
LINE
8
BLACK
6
CONTINUOUS
10
226.3415540000000021
20
-99.9643200000000007
11
226.4806799999999782
21
-100.103445999999991
0
LINE
8
BLACK
6
CONTINUOUS
10
226.4806799999999782
20
-100.103445999999991
11
226.6398569999999779
21
-100.2190959999999933
0
LINE
8
BLACK
6
CONTINUOUS
10
226.6398569999999779
20
-100.2190959999999933
11
226.8151670000000024
21
-100.3084199999999981
0
LINE
8
BLACK
6
CONTINUOUS
10
226.8151670000000024
20
-100.3084199999999981
11
227.0022909999999854
21
-100.369220999999996
0
LINE
8
BLACK
6
CONTINUOUS
10
227.0022909999999854
20
-100.369220999999996
11
227.1966229999999882
21
-100.3999999999999915
0
LINE
8
BLACK
6
CONTINUOUS
10
227.1966229999999882
20
-100.3999999999999915
11
227.3933769999999868
21
-100.3999999999999915
0
LINE
8
BLACK
6
CONTINUOUS
10
227.3933769999999868
20
-100.3999999999999915
11
227.5877089999999896
21
-100.369220999999996
0
LINE
8
BLACK
6
CONTINUOUS
10
227.5877089999999896
20
-100.369220999999996
11
227.774833000000001
21
-100.3084199999999981
0
LINE
8
BLACK
6
CONTINUOUS
10
227.774833000000001
20
-100.3084199999999981
11
227.9501429999999971
21
-100.2190959999999933
0
LINE
8
BLACK
6
CONTINUOUS
10
227.9501429999999971
20
-100.2190959999999933
11
228.1093199999999968
21
-100.103445999999991
0
LINE
8
BLACK
6
CONTINUOUS
10
228.1093199999999968
20
-100.103445999999991
11
228.2484460000000013
21
-99.9643200000000007
0
LINE
8
BLACK
6
CONTINUOUS
10
228.2484460000000013
20
-99.9643200000000007
11
228.3640959999999893
21
-99.8051430000000011
0
LINE
8
BLACK
6
CONTINUOUS
10
228.3640959999999893
20
-99.8051430000000011
11
228.4534199999999942
21
-99.6298329999999908
0
LINE
8
BLACK
6
CONTINUOUS
10
228.4534199999999942
20
-99.6298329999999908
11
228.514220999999992
21
-99.4427089999999936
0
LINE
8
BLACK
6
CONTINUOUS
10
228.514220999999992
20
-99.4427089999999936
11
228.5449999999999875
21
-99.2483769999999907
0
LINE
8
BLACK
6
CONTINUOUS
10
228.5449999999999875
20
-99.2483769999999907
11
228.5449999999999875
21
-99.0516229999999922
0
LINE
8
BLACK
6
CONTINUOUS
10
228.5449999999999875
20
-99.0516229999999922
11
228.514220999999992
21
-98.8572909999999894
0
LINE
8
BLACK
6
CONTINUOUS
10
228.514220999999992
20
-98.8572909999999894
11
228.4534199999999942
21
-98.6701669999999922
0
LINE
8
BLACK
6
CONTINUOUS
10
228.4534199999999942
20
-98.6701669999999922
11
228.3640959999999893
21
-98.4948569999999961
0
LINE
8
BLACK
6
CONTINUOUS
10
228.3640959999999893
20
-98.4948569999999961
11
228.2484460000000013
21
-98.3356799999999964
0
LINE
8
BLACK
6
CONTINUOUS
10
228.2484460000000013
20
-98.3356799999999964
11
228.1093199999999968
21
-98.1965539999999919
0
LINE
8
BLACK
6
CONTINUOUS
10
228.1093199999999968
20
-98.1965539999999919
11
227.9501429999999971
21
-98.0809039999999897
0
LINE
8
BLACK
6
CONTINUOUS
10
227.9501429999999971
20
-98.0809039999999897
11
227.774833000000001
21
-97.991579999999999
0
LINE
8
BLACK
6
CONTINUOUS
10
227.774833000000001
20
-97.991579999999999
11
227.5877089999999896
21
-97.9307790000000011
0
LINE
8
BLACK
6
CONTINUOUS
10
227.5877089999999896
20
-97.9307790000000011
11
227.3933769999999868
21
-97.8999999999999915
0
LINE
8
BLACK
6
CONTINUOUS
10
227.3933769999999868
20
-97.8999999999999915
11
227.1966229999999882
21
-97.8999999999999915
0
LINE
8
BLACK
6
CONTINUOUS
10
227.1966229999999882
20
-97.8999999999999915
11
227.0022909999999854
21
-97.9307790000000011
0
LINE
8
BLACK
6
CONTINUOUS
10
227.0022909999999854
20
-97.9307790000000011
11
226.8151670000000024
21
-97.991579999999999
0
LINE
8
BLACK
6
CONTINUOUS
10
226.8151670000000024
20
-97.991579999999999
11
226.6398569999999779
21
-98.0809039999999897
0
LINE
8
BLACK
6
CONTINUOUS
10
226.6398569999999779
20
-98.0809039999999897
11
226.4806799999999782
21
-98.1965539999999919
0
LINE
8
BLACK
6
CONTINUOUS
10
226.4806799999999782
20
-98.1965539999999919
11
226.3415540000000021
21
-98.3356799999999964
0
LINE
8
BLACK
6
CONTINUOUS
10
226.3415540000000021
20
-98.3356799999999964
11
226.2259039999999857
21
-98.4948569999999961
0
LINE
8
BLACK
6
CONTINUOUS
10
226.2259039999999857
20
-98.4948569999999961
11
226.1365799999999808
21
-98.6701669999999922
0
LINE
8
BLACK
6
CONTINUOUS
10
226.1365799999999808
20
-98.6701669999999922
11
226.0757789999999829
21
-98.8572909999999894
0
LINE
8
BLACK
6
CONTINUOUS
10
226.0757789999999829
20
-98.8572909999999894
11
226.0449999999999875
21
-99.0516229999999922
0
LINE
8
BLACK
6
CONTINUOUS
10
226.0449999999999875
20
-99.0516229999999922
11
226.0449999999999875
21
-99.2483769999999907
0
LINE
8
BLACK
6
CONTINUOUS
10
185.6101510000000019
20
-71.8373009999999965
11
185.8116229999999973
21
-71.9027629999999931
0
LINE
8
BLACK
6
CONTINUOUS
10
185.8116229999999973
20
-71.9027629999999931
11
186.0003729999999962
21
-71.9989360000000005
0
LINE
8
BLACK
6
CONTINUOUS
10
186.0003729999999962
20
-71.9989360000000005
11
186.1717549999999903
21
-72.1234520000000003
0
LINE
8
BLACK
6
CONTINUOUS
10
186.1717549999999903
20
-72.1234520000000003
11
186.3215479999999786
21
-72.2732450000000028
0
LINE
8
BLACK
6
CONTINUOUS
10
186.3215479999999786
20
-72.2732450000000028
11
186.4460639999999785
21
-72.444626999999997
0
LINE
8
BLACK
6
CONTINUOUS
10
186.4460639999999785
20
-72.444626999999997
11
186.5422370000000001
21
-72.6333769999999959
0
LINE
8
BLACK
6
CONTINUOUS
10
186.5422370000000001
20
-72.6333769999999959
11
186.6076989999999967
21
-72.8348489999999913
0
LINE
8
BLACK
6
CONTINUOUS
10
186.6076989999999967
20
-72.8348489999999913
11
186.6408380000000022
21
-73.0440799999999939
0
LINE
8
BLACK
6
CONTINUOUS
10
186.6408380000000022
20
-73.0440799999999939
11
186.6408380000000022
21
-73.2559200000000033
0
LINE
8
BLACK
6
CONTINUOUS
10
186.6408380000000022
20
-73.2559200000000033
11
186.6076989999999967
21
-73.4651509999999917
0
LINE
8
BLACK
6
CONTINUOUS
10
186.6076989999999967
20
-73.4651509999999917
11
186.5422370000000001
21
-73.6666230000000013
0
LINE
8
BLACK
6
CONTINUOUS
10
186.5422370000000001
20
-73.6666230000000013
11
186.4460639999999785
21
-73.8553730000000002
0
LINE
8
BLACK
6
CONTINUOUS
10
186.4460639999999785
20
-73.8553730000000002
11
186.3215479999999786
21
-74.0267549999999943
0
LINE
8
BLACK
6
CONTINUOUS
10
186.3215479999999786
20
-74.0267549999999943
11
186.1717549999999903
21
-74.1765479999999968
0
LINE
8
BLACK
6
CONTINUOUS
10
186.1717549999999903
20
-74.1765479999999968
11
186.0003729999999962
21
-74.3010639999999967
0
LINE
8
BLACK
6
CONTINUOUS
10
186.0003729999999962
20
-74.3010639999999967
11
185.8116229999999973
21
-74.3972369999999898
0
LINE
8
BLACK
6
CONTINUOUS
10
185.8116229999999973
20
-74.3972369999999898
11
185.6101510000000019
21
-74.4626990000000006
0
LINE
8
BLACK
6
CONTINUOUS
10
185.6101510000000019
20
-74.4626990000000006
11
185.4009199999999851
21
-74.495837999999992
0
LINE
8
BLACK
6
CONTINUOUS
10
185.4009199999999851
20
-74.495837999999992
11
185.1890799999999899
21
-74.495837999999992
0
LINE
8
BLACK
6
CONTINUOUS
10
185.1890799999999899
20
-74.495837999999992
11
184.9798490000000015
21
-74.4626990000000006
0
LINE
8
BLACK
6
CONTINUOUS
10
184.9798490000000015
20
-74.4626990000000006
11
184.7783769999999777
21
-74.3972369999999898
0
LINE
8
BLACK
6
CONTINUOUS
10
184.7783769999999777
20
-74.3972369999999898
11
184.5896269999999788
21
-74.3010639999999967
0
LINE
8
BLACK
6
CONTINUOUS
10
184.5896269999999788
20
-74.3010639999999967
11
184.4182449999999847
21
-74.1765479999999968
0
LINE
8
BLACK
6
CONTINUOUS
10
184.4182449999999847
20
-74.1765479999999968
11
184.2684519999999964
21
-74.0267549999999943
0
LINE
8
BLACK
6
CONTINUOUS
10
184.2684519999999964
20
-74.0267549999999943
11
184.1439359999999965
21
-73.8553730000000002
0
LINE
8
BLACK
6
CONTINUOUS
10
184.1439359999999965
20
-73.8553730000000002
11
184.0477630000000033
21
-73.6666230000000013
0
LINE
8
BLACK
6
CONTINUOUS
10
184.0477630000000033
20
-73.6666230000000013
11
183.9823009999999783
21
-73.4651509999999917
0
LINE
8
BLACK
6
CONTINUOUS
10
183.9823009999999783
20
-73.4651509999999917
11
183.9491620000000012
21
-73.2559200000000033
0
LINE
8
BLACK
6
CONTINUOUS
10
183.9491620000000012
20
-73.2559200000000033
11
183.9491620000000012
21
-73.0516229999999922
0
LINE
8
BLACK
6
CONTINUOUS
10
183.9491620000000012
20
-73.0516229999999922
11
183.9491620000000012
21
-73.0440799999999939
0
LINE
8
BLACK
6
CONTINUOUS
10
183.9491620000000012
20
-73.0440799999999939
11
183.9823009999999783
21
-72.8348489999999913
0
LINE
8
BLACK
6
CONTINUOUS
10
183.9823009999999783
20
-72.8348489999999913
11
184.0477630000000033
21
-72.6333769999999959
0
LINE
8
BLACK
6
CONTINUOUS
10
184.0477630000000033
20
-72.6333769999999959
11
184.1439359999999965
21
-72.444626999999997
0
LINE
8
BLACK
6
CONTINUOUS
10
184.1439359999999965
20
-72.444626999999997
11
184.2684519999999964
21
-72.2732450000000028
0
LINE
8
BLACK
6
CONTINUOUS
10
184.2684519999999964
20
-72.2732450000000028
11
184.4182449999999847
21
-72.1234520000000003
0
LINE
8
BLACK
6
CONTINUOUS
10
184.4182449999999847
20
-72.1234520000000003
11
184.5896269999999788
21
-71.9989360000000005
0
LINE
8
BLACK
6
CONTINUOUS
10
184.5896269999999788
20
-71.9989360000000005
11
184.7783769999999777
21
-71.9027629999999931
0
LINE
8
BLACK
6
CONTINUOUS
10
184.7783769999999777
20
-71.9027629999999931
11
184.9798490000000015
21
-71.8373009999999965
0
LINE
8
BLACK
6
CONTINUOUS
10
184.9798490000000015
20
-71.8373009999999965
11
185.1890799999999899
21
-71.8041619999999909
0
LINE
8
BLACK
6
CONTINUOUS
10
185.1890799999999899
20
-71.8041619999999909
11
185.4009199999999851
21
-71.8041619999999909
0
LINE
8
BLACK
6
CONTINUOUS
10
185.4009199999999851
20
-71.8041619999999909
11
185.6101510000000019
21
-71.8373009999999965
0
LINE
8
BLACK
6
CONTINUOUS
10
184.0449999999999875
20
-73.2483769999999907
11
184.0757789999999829
21
-73.4427089999999936
0
LINE
8
BLACK
6
CONTINUOUS
10
184.0757789999999829
20
-73.4427089999999936
11
184.1365799999999808
21
-73.6298329999999908
0
LINE
8
BLACK
6
CONTINUOUS
10
184.1365799999999808
20
-73.6298329999999908
11
184.2259039999999857
21
-73.8051430000000011
0
LINE
8
BLACK
6
CONTINUOUS
10
184.2259039999999857
20
-73.8051430000000011
11
184.3415540000000021
21
-73.9643200000000007
0
LINE
8
BLACK
6
CONTINUOUS
10
184.3415540000000021
20
-73.9643200000000007
11
184.4806799999999782
21
-74.103445999999991
0
LINE
8
BLACK
6
CONTINUOUS
10
184.4806799999999782
20
-74.103445999999991
11
184.6398569999999779
21
-74.2190959999999933
0
LINE
8
BLACK
6
CONTINUOUS
10
184.6398569999999779
20
-74.2190959999999933
11
184.8151670000000024
21
-74.3084199999999981
0
LINE
8
BLACK
6
CONTINUOUS
10
184.8151670000000024
20
-74.3084199999999981
11
185.0022909999999854
21
-74.369220999999996
0
LINE
8
BLACK
6
CONTINUOUS
10
185.0022909999999854
20
-74.369220999999996
11
185.1966229999999882
21
-74.3999999999999915
0
LINE
8
BLACK
6
CONTINUOUS
10
185.1966229999999882
20
-74.3999999999999915
11
185.3933769999999868
21
-74.3999999999999915
0
LINE
8
BLACK
6
CONTINUOUS
10
185.3933769999999868
20
-74.3999999999999915
11
185.5877089999999896
21
-74.369220999999996
0
LINE
8
BLACK
6
CONTINUOUS
10
185.5877089999999896
20
-74.369220999999996
11
185.774833000000001
21
-74.3084199999999981
0
LINE
8
BLACK
6
CONTINUOUS
10
185.774833000000001
20
-74.3084199999999981
11
185.9501429999999971
21
-74.2190959999999933
0
LINE
8
BLACK
6
CONTINUOUS
10
185.9501429999999971
20
-74.2190959999999933
11
186.1093199999999968
21
-74.103445999999991
0
LINE
8
BLACK
6
CONTINUOUS
10
186.1093199999999968
20
-74.103445999999991
11
186.2484460000000013
21
-73.9643200000000007
0
LINE
8
BLACK
6
CONTINUOUS
10
186.2484460000000013
20
-73.9643200000000007
11
186.3640959999999893
21
-73.8051430000000011
0
LINE
8
BLACK
6
CONTINUOUS
10
186.3640959999999893
20
-73.8051430000000011
11
186.4534199999999942
21
-73.6298329999999908
0
LINE
8
BLACK
6
CONTINUOUS
10
186.4534199999999942
20
-73.6298329999999908
11
186.514220999999992
21
-73.4427089999999936
0
LINE
8
BLACK
6
CONTINUOUS
10
186.514220999999992
20
-73.4427089999999936
11
186.5449999999999875
21
-73.2483769999999907
0
LINE
8
BLACK
6
CONTINUOUS
10
186.5449999999999875
20
-73.2483769999999907
11
186.5449999999999875
21
-73.0516229999999922
0
LINE
8
BLACK
6
CONTINUOUS
10
186.5449999999999875
20
-73.0516229999999922
11
186.514220999999992
21
-72.8572910000000036
0
LINE
8
BLACK
6
CONTINUOUS
10
186.514220999999992
20
-72.8572910000000036
11
186.4534199999999942
21
-72.6701669999999922
0
LINE
8
BLACK
6
CONTINUOUS
10
186.4534199999999942
20
-72.6701669999999922
11
186.3640959999999893
21
-72.4948569999999961
0
LINE
8
BLACK
6
CONTINUOUS
10
186.3640959999999893
20
-72.4948569999999961
11
186.2484460000000013
21
-72.3356799999999964
0
LINE
8
BLACK
6
CONTINUOUS
10
186.2484460000000013
20
-72.3356799999999964
11
186.1093199999999968
21
-72.1965539999999919
0
LINE
8
BLACK
6
CONTINUOUS
10
186.1093199999999968
20
-72.1965539999999919
11
185.9501429999999971
21
-72.0809039999999897
0
LINE
8
BLACK
6
CONTINUOUS
10
185.9501429999999971
20
-72.0809039999999897
11
185.774833000000001
21
-71.991579999999999
0
LINE
8
BLACK
6
CONTINUOUS
10
185.774833000000001
20
-71.991579999999999
11
185.5877089999999896
21
-71.9307790000000011
0
LINE
8
BLACK
6
CONTINUOUS
10
185.5877089999999896
20
-71.9307790000000011
11
185.3933769999999868
21
-71.8999999999999915
0
LINE
8
BLACK
6
CONTINUOUS
10
185.3933769999999868
20
-71.8999999999999915
11
185.1966229999999882
21
-71.8999999999999915
0
LINE
8
BLACK
6
CONTINUOUS
10
185.1966229999999882
20
-71.8999999999999915
11
185.0022909999999854
21
-71.9307790000000011
0
LINE
8
BLACK
6
CONTINUOUS
10
185.0022909999999854
20
-71.9307790000000011
11
184.8151670000000024
21
-71.991579999999999
0
LINE
8
BLACK
6
CONTINUOUS
10
184.8151670000000024
20
-71.991579999999999
11
184.6398569999999779
21
-72.0809039999999897
0
LINE
8
BLACK
6
CONTINUOUS
10
184.6398569999999779
20
-72.0809039999999897
11
184.4806799999999782
21
-72.1965539999999919
0
LINE
8
BLACK
6
CONTINUOUS
10
184.4806799999999782
20
-72.1965539999999919
11
184.3415540000000021
21
-72.3356799999999964
0
LINE
8
BLACK
6
CONTINUOUS
10
184.3415540000000021
20
-72.3356799999999964
11
184.2259039999999857
21
-72.4948569999999961
0
LINE
8
BLACK
6
CONTINUOUS
10
184.2259039999999857
20
-72.4948569999999961
11
184.1365799999999808
21
-72.6701669999999922
0
LINE
8
BLACK
6
CONTINUOUS
10
184.1365799999999808
20
-72.6701669999999922
11
184.0757789999999829
21
-72.8572910000000036
0
LINE
8
BLACK
6
CONTINUOUS
10
184.0757789999999829
20
-72.8572910000000036
11
184.0449999999999875
21
-73.0516229999999922
0
LINE
8
BLACK
6
CONTINUOUS
10
184.0449999999999875
20
-73.0516229999999922
11
184.0449999999999875
21
-73.2483769999999907
0
LINE
8
BLACK
6
CONTINUOUS
10
227.6101510000000019
20
-71.8373009999999965
11
227.8116229999999973
21
-71.9027629999999931
0
LINE
8
BLACK
6
CONTINUOUS
10
227.8116229999999973
20
-71.9027629999999931
11
228.0003729999999962
21
-71.9989360000000005
0
LINE
8
BLACK
6
CONTINUOUS
10
228.0003729999999962
20
-71.9989360000000005
11
228.1717549999999903
21
-72.1234520000000003
0
LINE
8
BLACK
6
CONTINUOUS
10
228.1717549999999903
20
-72.1234520000000003
11
228.3215479999999786
21
-72.2732450000000028
0
LINE
8
BLACK
6
CONTINUOUS
10
228.3215479999999786
20
-72.2732450000000028
11
228.4460639999999785
21
-72.444626999999997
0
LINE
8
BLACK
6
CONTINUOUS
10
228.4460639999999785
20
-72.444626999999997
11
228.5422370000000001
21
-72.6333769999999959
0
LINE
8
BLACK
6
CONTINUOUS
10
228.5422370000000001
20
-72.6333769999999959
11
228.6076989999999967
21
-72.8348489999999913
0
LINE
8
BLACK
6
CONTINUOUS
10
228.6076989999999967
20
-72.8348489999999913
11
228.6408380000000022
21
-73.0440799999999939
0
LINE
8
BLACK
6
CONTINUOUS
10
228.6408380000000022
20
-73.0440799999999939
11
228.6408380000000022
21
-73.2559200000000033
0
LINE
8
BLACK
6
CONTINUOUS
10
228.6408380000000022
20
-73.2559200000000033
11
228.6076989999999967
21
-73.4651509999999917
0
LINE
8
BLACK
6
CONTINUOUS
10
228.6076989999999967
20
-73.4651509999999917
11
228.5422370000000001
21
-73.6666230000000013
0
LINE
8
BLACK
6
CONTINUOUS
10
228.5422370000000001
20
-73.6666230000000013
11
228.4460639999999785
21
-73.8553730000000002
0
LINE
8
BLACK
6
CONTINUOUS
10
228.4460639999999785
20
-73.8553730000000002
11
228.3215479999999786
21
-74.0267549999999943
0
LINE
8
BLACK
6
CONTINUOUS
10
228.3215479999999786
20
-74.0267549999999943
11
228.1717549999999903
21
-74.1765479999999968
0
LINE
8
BLACK
6
CONTINUOUS
10
228.1717549999999903
20
-74.1765479999999968
11
228.0003729999999962
21
-74.3010639999999967
0
LINE
8
BLACK
6
CONTINUOUS
10
228.0003729999999962
20
-74.3010639999999967
11
227.8116229999999973
21
-74.3972369999999898
0
LINE
8
BLACK
6
CONTINUOUS
10
227.8116229999999973
20
-74.3972369999999898
11
227.6101510000000019
21
-74.4626990000000006
0
LINE
8
BLACK
6
CONTINUOUS
10
227.6101510000000019
20
-74.4626990000000006
11
227.4009199999999851
21
-74.495837999999992
0
LINE
8
BLACK
6
CONTINUOUS
10
227.4009199999999851
20
-74.495837999999992
11
227.1890799999999899
21
-74.495837999999992
0
LINE
8
BLACK
6
CONTINUOUS
10
227.1890799999999899
20
-74.495837999999992
11
226.9798490000000015
21
-74.4626990000000006
0
LINE
8
BLACK
6
CONTINUOUS
10
226.9798490000000015
20
-74.4626990000000006
11
226.7783769999999777
21
-74.3972369999999898
0
LINE
8
BLACK
6
CONTINUOUS
10
226.7783769999999777
20
-74.3972369999999898
11
226.5896269999999788
21
-74.3010639999999967
0
LINE
8
BLACK
6
CONTINUOUS
10
226.5896269999999788
20
-74.3010639999999967
11
226.4182449999999847
21
-74.1765479999999968
0
LINE
8
BLACK
6
CONTINUOUS
10
226.4182449999999847
20
-74.1765479999999968
11
226.2684519999999964
21
-74.0267549999999943
0
LINE
8
BLACK
6
CONTINUOUS
10
226.2684519999999964
20
-74.0267549999999943
11
226.1439359999999965
21
-73.8553730000000002
0
LINE
8
BLACK
6
CONTINUOUS
10
226.1439359999999965
20
-73.8553730000000002
11
226.0477630000000033
21
-73.6666230000000013
0
LINE
8
BLACK
6
CONTINUOUS
10
226.0477630000000033
20
-73.6666230000000013
11
225.9823009999999783
21
-73.4651509999999917
0
LINE
8
BLACK
6
CONTINUOUS
10
225.9823009999999783
20
-73.4651509999999917
11
225.9491620000000012
21
-73.2559200000000033
0
LINE
8
BLACK
6
CONTINUOUS
10
225.9491620000000012
20
-73.2559200000000033
11
225.9491620000000012
21
-73.0516229999999922
0
LINE
8
BLACK
6
CONTINUOUS
10
225.9491620000000012
20
-73.0516229999999922
11
225.9491620000000012
21
-73.0440799999999939
0
LINE
8
BLACK
6
CONTINUOUS
10
225.9491620000000012
20
-73.0440799999999939
11
225.9823009999999783
21
-72.8348489999999913
0
LINE
8
BLACK
6
CONTINUOUS
10
225.9823009999999783
20
-72.8348489999999913
11
226.0477630000000033
21
-72.6333769999999959
0
LINE
8
BLACK
6
CONTINUOUS
10
226.0477630000000033
20
-72.6333769999999959
11
226.1439359999999965
21
-72.444626999999997
0
LINE
8
BLACK
6
CONTINUOUS
10
226.1439359999999965
20
-72.444626999999997
11
226.2684519999999964
21
-72.2732450000000028
0
LINE
8
BLACK
6
CONTINUOUS
10
226.2684519999999964
20
-72.2732450000000028
11
226.4182449999999847
21
-72.1234520000000003
0
LINE
8
BLACK
6
CONTINUOUS
10
226.4182449999999847
20
-72.1234520000000003
11
226.5896269999999788
21
-71.9989360000000005
0
LINE
8
BLACK
6
CONTINUOUS
10
226.5896269999999788
20
-71.9989360000000005
11
226.7783769999999777
21
-71.9027629999999931
0
LINE
8
BLACK
6
CONTINUOUS
10
226.7783769999999777
20
-71.9027629999999931
11
226.9798490000000015
21
-71.8373009999999965
0
LINE
8
BLACK
6
CONTINUOUS
10
226.9798490000000015
20
-71.8373009999999965
11
227.1890799999999899
21
-71.8041619999999909
0
LINE
8
BLACK
6
CONTINUOUS
10
227.1890799999999899
20
-71.8041619999999909
11
227.4009199999999851
21
-71.8041619999999909
0
LINE
8
BLACK
6
CONTINUOUS
10
227.4009199999999851
20
-71.8041619999999909
11
227.6101510000000019
21
-71.8373009999999965
0
LINE
8
BLACK
6
CONTINUOUS
10
226.0449999999999875
20
-73.2483769999999907
11
226.0757789999999829
21
-73.4427089999999936
0
LINE
8
BLACK
6
CONTINUOUS
10
226.0757789999999829
20
-73.4427089999999936
11
226.1365799999999808
21
-73.6298329999999908
0
LINE
8
BLACK
6
CONTINUOUS
10
226.1365799999999808
20
-73.6298329999999908
11
226.2259039999999857
21
-73.8051430000000011
0
LINE
8
BLACK
6
CONTINUOUS
10
226.2259039999999857
20
-73.8051430000000011
11
226.3415540000000021
21
-73.9643200000000007
0
LINE
8
BLACK
6
CONTINUOUS
10
226.3415540000000021
20
-73.9643200000000007
11
226.4806799999999782
21
-74.103445999999991
0
LINE
8
BLACK
6
CONTINUOUS
10
226.4806799999999782
20
-74.103445999999991
11
226.6398569999999779
21
-74.2190959999999933
0
LINE
8
BLACK
6
CONTINUOUS
10
226.6398569999999779
20
-74.2190959999999933
11
226.8151670000000024
21
-74.3084199999999981
0
LINE
8
BLACK
6
CONTINUOUS
10
226.8151670000000024
20
-74.3084199999999981
11
227.0022909999999854
21
-74.369220999999996
0
LINE
8
BLACK
6
CONTINUOUS
10
227.0022909999999854
20
-74.369220999999996
11
227.1966229999999882
21
-74.3999999999999915
0
LINE
8
BLACK
6
CONTINUOUS
10
227.1966229999999882
20
-74.3999999999999915
11
227.3933769999999868
21
-74.3999999999999915
0
LINE
8
BLACK
6
CONTINUOUS
10
227.3933769999999868
20
-74.3999999999999915
11
227.5877089999999896
21
-74.369220999999996
0
LINE
8
BLACK
6
CONTINUOUS
10
227.5877089999999896
20
-74.369220999999996
11
227.774833000000001
21
-74.3084199999999981
0
LINE
8
BLACK
6
CONTINUOUS
10
227.774833000000001
20
-74.3084199999999981
11
227.9501429999999971
21
-74.2190959999999933
0
LINE
8
BLACK
6
CONTINUOUS
10
227.9501429999999971
20
-74.2190959999999933
11
228.1093199999999968
21
-74.103445999999991
0
LINE
8
BLACK
6
CONTINUOUS
10
228.1093199999999968
20
-74.103445999999991
11
228.2484460000000013
21
-73.9643200000000007
0
LINE
8
BLACK
6
CONTINUOUS
10
228.2484460000000013
20
-73.9643200000000007
11
228.3640959999999893
21
-73.8051430000000011
0
LINE
8
BLACK
6
CONTINUOUS
10
228.3640959999999893
20
-73.8051430000000011
11
228.4534199999999942
21
-73.6298329999999908
0
LINE
8
BLACK
6
CONTINUOUS
10
228.4534199999999942
20
-73.6298329999999908
11
228.514220999999992
21
-73.4427089999999936
0
LINE
8
BLACK
6
CONTINUOUS
10
228.514220999999992
20
-73.4427089999999936
11
228.5449999999999875
21
-73.2483769999999907
0
LINE
8
BLACK
6
CONTINUOUS
10
228.5449999999999875
20
-73.2483769999999907
11
228.5449999999999875
21
-73.0516229999999922
0
LINE
8
BLACK
6
CONTINUOUS
10
228.5449999999999875
20
-73.0516229999999922
11
228.514220999999992
21
-72.8572910000000036
0
LINE
8
BLACK
6
CONTINUOUS
10
228.514220999999992
20
-72.8572910000000036
11
228.4534199999999942
21
-72.6701669999999922
0
LINE
8
BLACK
6
CONTINUOUS
10
228.4534199999999942
20
-72.6701669999999922
11
228.3640959999999893
21
-72.4948569999999961
0
LINE
8
BLACK
6
CONTINUOUS
10
228.3640959999999893
20
-72.4948569999999961
11
228.2484460000000013
21
-72.3356799999999964
0
LINE
8
BLACK
6
CONTINUOUS
10
228.2484460000000013
20
-72.3356799999999964
11
228.1093199999999968
21
-72.1965539999999919
0
LINE
8
BLACK
6
CONTINUOUS
10
228.1093199999999968
20
-72.1965539999999919
11
227.9501429999999971
21
-72.0809039999999897
0
LINE
8
BLACK
6
CONTINUOUS
10
227.9501429999999971
20
-72.0809039999999897
11
227.774833000000001
21
-71.991579999999999
0
LINE
8
BLACK
6
CONTINUOUS
10
227.774833000000001
20
-71.991579999999999
11
227.5877089999999896
21
-71.9307790000000011
0
LINE
8
BLACK
6
CONTINUOUS
10
227.5877089999999896
20
-71.9307790000000011
11
227.3933769999999868
21
-71.8999999999999915
0
LINE
8
BLACK
6
CONTINUOUS
10
227.3933769999999868
20
-71.8999999999999915
11
227.1966229999999882
21
-71.8999999999999915
0
LINE
8
BLACK
6
CONTINUOUS
10
227.1966229999999882
20
-71.8999999999999915
11
227.0022909999999854
21
-71.9307790000000011
0
LINE
8
BLACK
6
CONTINUOUS
10
227.0022909999999854
20
-71.9307790000000011
11
226.8151670000000024
21
-71.991579999999999
0
LINE
8
BLACK
6
CONTINUOUS
10
226.8151670000000024
20
-71.991579999999999
11
226.6398569999999779
21
-72.0809039999999897
0
LINE
8
BLACK
6
CONTINUOUS
10
226.6398569999999779
20
-72.0809039999999897
11
226.4806799999999782
21
-72.1965539999999919
0
LINE
8
BLACK
6
CONTINUOUS
10
226.4806799999999782
20
-72.1965539999999919
11
226.3415540000000021
21
-72.3356799999999964
0
LINE
8
BLACK
6
CONTINUOUS
10
226.3415540000000021
20
-72.3356799999999964
11
226.2259039999999857
21
-72.4948569999999961
0
LINE
8
BLACK
6
CONTINUOUS
10
226.2259039999999857
20
-72.4948569999999961
11
226.1365799999999808
21
-72.6701669999999922
0
LINE
8
BLACK
6
CONTINUOUS
10
226.1365799999999808
20
-72.6701669999999922
11
226.0757789999999829
21
-72.8572910000000036
0
LINE
8
BLACK
6
CONTINUOUS
10
226.0757789999999829
20
-72.8572910000000036
11
226.0449999999999875
21
-73.0516229999999922
0
LINE
8
BLACK
6
CONTINUOUS
10
226.0449999999999875
20
-73.0516229999999922
11
226.0449999999999875
21
-73.2483769999999907
0
LINE
8
BLACK
6
CONTINUOUS
10
236.25
20
-68.4963199999999972
11
236.5661979999999858
21
-68.5128909999999962
0
LINE
8
BLACK
6
CONTINUOUS
10
236.5661979999999858
20
-68.5128909999999962
11
236.8789309999999944
21
-68.5624239999999929
0
LINE
8
BLACK
6
CONTINUOUS
10
236.8789309999999944
20
-68.5624239999999929
11
237.184773999999976
21
-68.6443739999999991
0
LINE
8
BLACK
6
CONTINUOUS
10
237.184773999999976
20
-68.6443739999999991
11
237.4803749999999809
21
-68.7578450000000032
0
LINE
8
BLACK
6
CONTINUOUS
10
237.4803749999999809
20
-68.7578450000000032
11
237.7624959999999987
21
-68.9015940000000029
0
LINE
8
BLACK
6
CONTINUOUS
10
237.7624959999999987
20
-68.9015940000000029
11
238.0280449999999917
21
-69.0740449999999981
0
LINE
8
BLACK
6
CONTINUOUS
10
238.0280449999999917
20
-69.0740449999999981
11
238.2741139999999973
21
-69.2733080000000001
0
LINE
8
BLACK
6
CONTINUOUS
10
238.2741139999999973
20
-69.2733080000000001
11
238.4980049999999778
21
-69.4972009999999898
0
LINE
8
BLACK
6
CONTINUOUS
10
238.4980049999999778
20
-69.4972009999999898
11
238.6972669999999823
21
-69.7432709999999929
0
LINE
8
BLACK
6
CONTINUOUS
10
238.6972669999999823
20
-69.7432709999999929
11
238.8697159999999826
21
-70.008821999999995
0
LINE
8
BLACK
6
CONTINUOUS
10
238.8697159999999826
20
-70.008821999999995
11
239.0134630000000016
21
-70.2909429999999986
0
LINE
8
BLACK
6
CONTINUOUS
10
239.0134630000000016
20
-70.2909429999999986
11
239.1269319999999823
21
-70.586545000000001
0
LINE
8
BLACK
6
CONTINUOUS
10
239.1269319999999823
20
-70.586545000000001
11
239.208880999999991
21
-70.8923879999999969
0
LINE
8
BLACK
6
CONTINUOUS
10
239.208880999999991
20
-70.8923879999999969
11
239.2584109999999953
21
-71.2051220000000029
0
LINE
8
BLACK
6
CONTINUOUS
10
239.2584109999999953
20
-71.2051220000000029
11
239.2749709999999936
21
-71.5211559999999906
0
LINE
8
BLACK
6
CONTINUOUS
10
239.2749709999999936
20
-71.5211559999999906
11
239.2749999999999773
21
-71.5212999999999965
0
LINE
8
BLACK
6
CONTINUOUS
10
239.2749999999999773
20
-71.5212999999999965
11
239.2749999999999773
21
-100.8786799999999886
0
LINE
8
BLACK
6
CONTINUOUS
10
239.2749999999999773
20
-100.8786799999999886
11
239.2584310000000016
21
-101.1948799999999977
0
LINE
8
BLACK
6
CONTINUOUS
10
239.2584310000000016
20
-101.1948799999999977
11
239.2088999999999999
21
-101.5076159999999987
0
LINE
8
BLACK
6
CONTINUOUS
10
239.2088999999999999
20
-101.5076159999999987
11
239.1269509999999912
21
-101.8134609999999896
0
LINE
8
BLACK
6
CONTINUOUS
10
239.1269509999999912
20
-101.8134609999999896
11
239.0134809999999845
21
-102.1090650000000011
0
LINE
8
BLACK
6
CONTINUOUS
10
239.0134809999999845
20
-102.1090650000000011
11
238.869733999999994
21
-102.3911879999999996
0
LINE
8
BLACK
6
CONTINUOUS
10
238.869733999999994
20
-102.3911879999999996
11
238.6972839999999962
21
-102.6567409999999967
0
LINE
8
BLACK
6
CONTINUOUS
10
238.6972839999999962
20
-102.6567409999999967
11
238.4980199999999968
21
-102.9028119999999973
0
LINE
8
BLACK
6
CONTINUOUS
10
238.4980199999999968
20
-102.9028119999999973
11
238.2741269999999929
21
-103.1267069999999961
0
LINE
8
BLACK
6
CONTINUOUS
10
238.2741269999999929
20
-103.1267069999999961
11
238.0280569999999898
21
-103.325971999999993
0
LINE
8
BLACK
6
CONTINUOUS
10
238.0280569999999898
20
-103.325971999999993
11
237.7625060000000019
21
-103.4984229999999883
0
LINE
8
BLACK
6
CONTINUOUS
10
237.7625060000000019
20
-103.4984229999999883
11
237.4803829999999891
21
-103.6421729999999997
0
LINE
8
BLACK
6
CONTINUOUS
10
237.4803829999999891
20
-103.6421729999999997
11
237.1847799999999893
21
-103.7556450000000012
0
LINE
8
BLACK
6
CONTINUOUS
10
237.1847799999999893
20
-103.7556450000000012
11
236.8789349999999843
21
-103.8375959999999907
0
LINE
8
BLACK
6
CONTINUOUS
10
236.8789349999999843
20
-103.8375959999999907
11
236.5661999999999807
21
-103.8871290000000016
0
LINE
8
BLACK
6
CONTINUOUS
10
236.5661999999999807
20
-103.8871290000000016
11
236.25
21
-103.9037000000000006
0
LINE
8
BLACK
6
CONTINUOUS
10
236.25
20
-103.9037000000000006
11
236.25
21
-103.9036799999999943
0
LINE
8
BLACK
6
CONTINUOUS
10
236.25
20
-103.9036799999999943
11
176.1999999999999886
21
-103.9036799999999943
0
LINE
8
BLACK
6
CONTINUOUS
10
176.1999999999999886
20
-103.9036799999999943
11
175.8838020000000029
21
-103.8871089999999953
0
LINE
8
BLACK
6
CONTINUOUS
10
175.8838020000000029
20
-103.8871089999999953
11
175.5710689999999943
21
-103.8375759999999985
0
LINE
8
BLACK
6
CONTINUOUS
10
175.5710689999999943
20
-103.8375759999999985
11
175.2652259999999842
21
-103.7556259999999924
0
LINE
8
BLACK
6
CONTINUOUS
10
175.2652259999999842
20
-103.7556259999999924
11
174.9696249999999793
21
-103.6421549999999883
0
LINE
8
BLACK
6
CONTINUOUS
10
174.9696249999999793
20
-103.6421549999999883
11
174.6875039999999899
21
-103.4984059999999886
0
LINE
8
BLACK
6
CONTINUOUS
10
174.6875039999999899
20
-103.4984059999999886
11
174.421954999999997
21
-103.3259549999999933
0
LINE
8
BLACK
6
CONTINUOUS
10
174.421954999999997
20
-103.3259549999999933
11
174.1758859999999913
21
-103.1266919999999914
0
LINE
8
BLACK
6
CONTINUOUS
10
174.1758859999999913
20
-103.1266919999999914
11
173.9519949999999824
21
-102.9027990000000017
0
LINE
8
BLACK
6
CONTINUOUS
10
173.9519949999999824
20
-102.9027990000000017
11
173.7527330000000063
21
-102.6567289999999986
0
LINE
8
BLACK
6
CONTINUOUS
10
173.7527330000000063
20
-102.6567289999999986
11
173.580284000000006
21
-102.3911779999999965
0
LINE
8
BLACK
6
CONTINUOUS
10
173.580284000000006
20
-102.3911779999999965
11
173.4365369999999871
21
-102.1090569999999929
0
LINE
8
BLACK
6
CONTINUOUS
10
173.4365369999999871
20
-102.1090569999999929
11
173.3230680000000064
21
-101.8134549999999905
0
LINE
8
BLACK
6
CONTINUOUS
10
173.3230680000000064
20
-101.8134549999999905
11
173.2411189999999976
21
-101.5076119999999946
0
LINE
8
BLACK
6
CONTINUOUS
10
173.2411189999999976
20
-101.5076119999999946
11
173.1915889999999933
21
-101.1948779999999886
0
LINE
8
BLACK
6
CONTINUOUS
10
173.1915889999999933
20
-101.1948779999999886
11
173.175027
21
-100.8788160000000005
0
LINE
8
BLACK
6
CONTINUOUS
10
173.175027
20
-100.8788160000000005
11
173.1749999999999829
21
-100.8786799999999886
0
LINE
8
BLACK
6
CONTINUOUS
10
173.1749999999999829
20
-100.8786799999999886
11
173.1749999999999829
21
-71.5212999999999965
0
LINE
8
BLACK
6
CONTINUOUS
10
173.1749999999999829
20
-71.5212999999999965
11
173.1750009999999804
21
-71.5212920000000025
0
LINE
8
BLACK
6
CONTINUOUS
10
173.1750009999999804
20
-71.5212920000000025
11
173.1914919999999825
21
-71.205851999999993
0
LINE
8
BLACK
6
CONTINUOUS
10
173.1914919999999825
20
-71.205851999999993
11
173.240793999999994
21
-70.8938249999999925
0
LINE
8
BLACK
6
CONTINUOUS
10
173.240793999999994
20
-70.8938249999999925
11
173.3223669999999856
21
-70.5886399999999981
0
LINE
8
BLACK
6
CONTINUOUS
10
173.3223669999999856
20
-70.5886399999999981
11
173.4353219999999851
21
-70.2936270000000007
0
LINE
8
BLACK
6
CONTINUOUS
10
173.4353219999999851
20
-70.2936270000000007
11
173.5784270000000049
21
-70.0120009999999979
0
LINE
8
BLACK
6
CONTINUOUS
10
173.5784270000000049
20
-70.0120009999999979
11
173.7501220000000046
21
-69.7468360000000018
0
LINE
8
BLACK
6
CONTINUOUS
10
173.7501220000000046
20
-69.7468360000000018
11
173.9485339999999951
21
-69.5010209999999944
0
LINE
8
BLACK
6
CONTINUOUS
10
173.9485339999999951
20
-69.5010209999999944
11
174.171498999999983
21
-69.2772389999999945
0
LINE
8
BLACK
6
CONTINUOUS
10
174.171498999999983
20
-69.2772389999999945
11
174.4165859999999952
21
-69.0779299999999949
0
LINE
8
BLACK
6
CONTINUOUS
10
174.4165859999999952
20
-69.0779299999999949
11
174.6811219999999878
21
-68.9052659999999975
0
LINE
8
BLACK
6
CONTINUOUS
10
174.6811219999999878
20
-68.9052659999999975
11
174.9622209999999995
21
-68.7611320000000035
0
LINE
8
BLACK
6
CONTINUOUS
10
174.9622209999999995
20
-68.7611320000000035
11
175.2568200000000047
21
-68.6470979999999997
0
LINE
8
BLACK
6
CONTINUOUS
10
175.2568200000000047
20
-68.6470979999999997
11
175.5617039999999918
21
-68.5644089999999977
0
LINE
8
BLACK
6
CONTINUOUS
10
175.5617039999999918
20
-68.5644089999999977
11
175.873548999999997
21
-68.5139659999999964
0
LINE
8
BLACK
6
CONTINUOUS
10
175.873548999999997
20
-68.5139659999999964
11
176.1889549999999929
21
-68.4963199999999972
0
LINE
8
BLACK
6
CONTINUOUS
10
176.1889549999999929
20
-68.4963199999999972
11
176.1889549999999929
21
-68.4963379999999944
0
LINE
8
BLACK
6
CONTINUOUS
10
176.1889549999999929
20
-68.4963379999999944
11
176.1890459999999905
21
-68.4963199999999972
0
LINE
8
BLACK
6
CONTINUOUS
10
176.1890459999999905
20
-68.4963199999999972
11
236.25
21
-68.4963199999999972
0
LINE
8
BLACK
6
CONTINUOUS
10
176.1891980000000046
20
-68.5463199999999944
11
176.1891369999999881
21
-68.5463400000000007
0
LINE
8
BLACK
6
CONTINUOUS
10
176.1891369999999881
20
-68.5463400000000007
11
176.1891369999999881
21
-68.5463199999999944
0
LINE
8
BLACK
6
CONTINUOUS
10
176.1891369999999881
20
-68.5463199999999944
11
176.0335859999999855
21
-68.5468690000000009
0
LINE
8
BLACK
6
CONTINUOUS
10
176.0335859999999855
20
-68.5468690000000009
11
175.7242999999999995
21
-68.5804419999999908
0
LINE
8
BLACK
6
CONTINUOUS
10
175.7242999999999995
20
-68.5804419999999908
11
175.4202009999999916
21
-68.6460869999999943
0
LINE
8
BLACK
6
CONTINUOUS
10
175.4202009999999916
20
-68.6460869999999943
11
175.124606
21
-68.7430880000000002
0
LINE
8
BLACK
6
CONTINUOUS
10
175.124606
20
-68.7430880000000002
11
174.840738999999985
21
-68.8703859999999963
0
LINE
8
BLACK
6
CONTINUOUS
10
174.840738999999985
20
-68.8703859999999963
11
174.5716960000000029
21
-69.0265940000000029
0
LINE
8
BLACK
6
CONTINUOUS
10
174.5716960000000029
20
-69.0265940000000029
11
174.3204089999999837
21
-69.2100069999999903
0
LINE
8
BLACK
6
CONTINUOUS
10
174.3204089999999837
20
-69.2100069999999903
11
174.089620999999994
21
-69.4186270000000007
0
LINE
8
BLACK
6
CONTINUOUS
10
174.089620999999994
20
-69.4186270000000007
11
173.8818469999999934
21
-69.6501769999999993
0
LINE
8
BLACK
6
CONTINUOUS
10
173.8818469999999934
20
-69.6501769999999993
11
173.6993539999999996
21
-69.9021319999999946
0
LINE
8
BLACK
6
CONTINUOUS
10
173.6993539999999996
20
-69.9021319999999946
11
173.544130999999993
21
-70.1717450000000014
0
LINE
8
BLACK
6
CONTINUOUS
10
173.544130999999993
20
-70.1717450000000014
11
173.4178719999999885
21
-70.4560759999999959
0
LINE
8
BLACK
6
CONTINUOUS
10
173.4178719999999885
20
-70.4560759999999959
11
173.3219540000000052
21
-70.7520239999999916
0
LINE
8
BLACK
6
CONTINUOUS
10
173.3219540000000052
20
-70.7520239999999916
11
173.2574219999999912
21
-71.0563609999999954
0
LINE
8
BLACK
6
CONTINUOUS
10
173.2574219999999912
20
-71.0563609999999954
11
173.224979999999988
21
-71.3657680000000028
0
LINE
8
BLACK
6
CONTINUOUS
10
173.224979999999988
20
-71.3657680000000028
11
173.2249989999999968
21
-71.5212989999999991
0
LINE
8
BLACK
6
CONTINUOUS
10
173.2249989999999968
20
-71.5212989999999991
11
173.2249999999999943
21
-71.5212999999999965
0
LINE
8
BLACK
6
CONTINUOUS
10
173.2249999999999943
20
-71.5212999999999965
11
173.2249999999999943
21
-100.8786799999999886
0
LINE
8
BLACK
6
CONTINUOUS
10
173.2249999999999943
20
-100.8786799999999886
11
173.2250200000000007
21
-100.8786799999999886
0
LINE
8
BLACK
6
CONTINUOUS
10
173.2250200000000007
20
-100.8786799999999886
11
173.2250190000000032
21
-101.034593000000001
0
LINE
8
BLACK
6
CONTINUOUS
10
173.2250190000000032
20
-101.034593000000001
11
173.2576109999999971
21
-101.3447099999999921
0
LINE
8
BLACK
6
CONTINUOUS
10
173.2576109999999971
20
-101.3447099999999921
11
173.3224419999999952
21
-101.649721999999997
0
LINE
8
BLACK
6
CONTINUOUS
10
173.3224419999999952
20
-101.649721999999997
11
173.4188000000000045
21
-101.9462860000000006
0
LINE
8
BLACK
6
CONTINUOUS
10
173.4188000000000045
20
-101.9462860000000006
11
173.545628999999991
21
-102.2311539999999894
0
LINE
8
BLACK
6
CONTINUOUS
10
173.545628999999991
20
-102.2311539999999894
11
173.7015409999999918
21
-102.5012029999999896
0
LINE
8
BLACK
6
CONTINUOUS
10
173.7015409999999918
20
-102.5012029999999896
11
173.8848260000000039
21
-102.753475999999992
0
LINE
8
BLACK
6
CONTINUOUS
10
173.8848260000000039
20
-102.753475999999992
11
174.0934769999999787
21
-102.9852089999999976
0
LINE
8
BLACK
6
CONTINUOUS
10
174.0934769999999787
20
-102.9852089999999976
11
174.3252080000000035
21
-103.1938609999999983
0
LINE
8
BLACK
6
CONTINUOUS
10
174.3252080000000035
20
-103.1938609999999983
11
174.57747999999998
21
-103.3771479999999912
0
LINE
8
BLACK
6
CONTINUOUS
10
174.57747999999998
20
-103.3771479999999912
11
174.8475279999999827
21
-103.533062000000001
0
LINE
8
BLACK
6
CONTINUOUS
10
174.8475279999999827
20
-103.533062000000001
11
175.1323950000000025
21
-103.6598929999999967
0
LINE
8
BLACK
6
CONTINUOUS
10
175.1323950000000025
20
-103.6598929999999967
11
175.4289589999999919
21
-103.756253000000001
0
LINE
8
BLACK
6
CONTINUOUS
10
175.4289589999999919
20
-103.756253000000001
11
175.7339699999999993
21
-103.8210849999999965
0
LINE
8
BLACK
6
CONTINUOUS
10
175.7339699999999993
20
-103.8210849999999965
11
176.0440869999999904
21
-103.8536799999999971
0
LINE
8
BLACK
6
CONTINUOUS
10
176.0440869999999904
20
-103.8536799999999971
11
176.1999999999999886
21
-103.8536799999999971
0
LINE
8
BLACK
6
CONTINUOUS
10
176.1999999999999886
20
-103.8536799999999971
11
236.25
21
-103.8536799999999971
0
LINE
8
BLACK
6
CONTINUOUS
10
236.25
20
-103.8536799999999971
11
236.2501010000000008
21
-103.8536999999999892
0
LINE
8
BLACK
6
CONTINUOUS
10
236.2501010000000008
20
-103.8536999999999892
11
236.4059139999999957
21
-103.8536999999999892
0
LINE
8
BLACK
6
CONTINUOUS
10
236.4059139999999957
20
-103.8536999999999892
11
236.7160329999999817
21
-103.8211049999999886
0
LINE
8
BLACK
6
CONTINUOUS
10
236.7160329999999817
20
-103.8211049999999886
11
237.0210469999999816
21
-103.7562719999999956
0
LINE
8
BLACK
6
CONTINUOUS
10
237.0210469999999816
20
-103.7562719999999956
11
237.3176119999999969
21
-103.6599119999999914
0
LINE
8
BLACK
6
CONTINUOUS
10
237.3176119999999969
20
-103.6599119999999914
11
237.6024809999999832
21
-103.5330799999999982
0
LINE
8
BLACK
6
CONTINUOUS
10
237.6024809999999832
20
-103.5330799999999982
11
237.8725309999999808
21
-103.3771649999999909
0
LINE
8
BLACK
6
CONTINUOUS
10
237.8725309999999808
20
-103.3771649999999909
11
238.1248039999999833
21
-103.1938770000000005
0
LINE
8
BLACK
6
CONTINUOUS
10
238.1248039999999833
20
-103.1938770000000005
11
238.356537000000003
21
-102.9852229999999906
0
LINE
8
BLACK
6
CONTINUOUS
10
238.356537000000003
20
-102.9852229999999906
11
238.5651889999999753
21
-102.7534890000000019
0
LINE
8
BLACK
6
CONTINUOUS
10
238.5651889999999753
20
-102.7534890000000019
11
238.7484759999999824
21
-102.5012139999999903
0
LINE
8
BLACK
6
CONTINUOUS
10
238.7484759999999824
20
-102.5012139999999903
11
238.9043889999999806
21
-102.2311629999999951
0
LINE
8
BLACK
6
CONTINUOUS
10
238.9043889999999806
20
-102.2311629999999951
11
239.031218999999993
21
-101.9462939999999946
0
LINE
8
BLACK
6
CONTINUOUS
10
239.031218999999993
20
-101.9462939999999946
11
239.1275770000000023
21
-101.6497269999999986
0
LINE
8
BLACK
6
CONTINUOUS
10
239.1275770000000023
20
-101.6497269999999986
11
239.1924080000000004
21
-101.3447139999999962
0
LINE
8
BLACK
6
CONTINUOUS
10
239.1924080000000004
20
-101.3447139999999962
11
239.2250009999999918
21
-101.0345939999999985
0
LINE
8
BLACK
6
CONTINUOUS
10
239.2250009999999918
20
-101.0345939999999985
11
239.2249999999999943
21
-100.8786799999999886
0
LINE
8
BLACK
6
CONTINUOUS
10
239.2249999999999943
20
-100.8786799999999886
11
239.2249999999999943
21
-71.5213200000000029
0
LINE
8
BLACK
6
CONTINUOUS
10
239.2249999999999943
20
-71.5213200000000029
11
239.224979999999988
21
-71.5213200000000029
0
LINE
8
BLACK
6
CONTINUOUS
10
239.224979999999988
20
-71.5213200000000029
11
239.2249809999999854
21
-71.3654069999999905
0
LINE
8
BLACK
6
CONTINUOUS
10
239.2249809999999854
20
-71.3654069999999905
11
239.1923889999999915
21
-71.0552899999999994
0
LINE
8
BLACK
6
CONTINUOUS
10
239.1923889999999915
20
-71.0552899999999994
11
239.1275579999999934
21
-70.7502779999999944
0
LINE
8
BLACK
6
CONTINUOUS
10
239.1275579999999934
20
-70.7502779999999944
11
239.0311999999999841
21
-70.4537139999999908
0
LINE
8
BLACK
6
CONTINUOUS
10
239.0311999999999841
20
-70.4537139999999908
11
238.9043709999999976
21
-70.1688460000000021
0
LINE
8
BLACK
6
CONTINUOUS
10
238.9043709999999976
20
-70.1688460000000021
11
238.7484589999999969
21
-69.8987970000000018
0
LINE
8
BLACK
6
CONTINUOUS
10
238.7484589999999969
20
-69.8987970000000018
11
238.5651739999999847
21
-69.6465239999999994
0
LINE
8
BLACK
6
CONTINUOUS
10
238.5651739999999847
20
-69.6465239999999994
11
238.3565229999999815
21
-69.4147909999999939
0
LINE
8
BLACK
6
CONTINUOUS
10
238.3565229999999815
20
-69.4147909999999939
11
238.1247919999999851
21
-69.2061389999999932
0
LINE
8
BLACK
6
CONTINUOUS
10
238.1247919999999851
20
-69.2061389999999932
11
237.8725199999999802
21
-69.0228520000000003
0
LINE
8
BLACK
6
CONTINUOUS
10
237.8725199999999802
20
-69.0228520000000003
11
237.6024719999999775
21
-68.8669379999999904
0
LINE
8
BLACK
6
CONTINUOUS
10
237.6024719999999775
20
-68.8669379999999904
11
237.3176049999999861
21
-68.7401069999999947
0
LINE
8
BLACK
6
CONTINUOUS
10
237.3176049999999861
20
-68.7401069999999947
11
237.0210409999999968
21
-68.6437469999999905
0
LINE
8
BLACK
6
CONTINUOUS
10
237.0210409999999968
20
-68.6437469999999905
11
236.7160299999999893
21
-68.578914999999995
0
LINE
8
BLACK
6
CONTINUOUS
10
236.7160299999999893
20
-68.578914999999995
11
236.4059129999999982
21
-68.5463199999999944
0
LINE
8
BLACK
6
CONTINUOUS
10
236.4059129999999982
20
-68.5463199999999944
11
236.25
21
-68.5463199999999944
0
LINE
8
BLACK
6
CONTINUOUS
10
236.25
20
-68.5463199999999944
11
176.1891980000000046
21
-68.5463199999999944
  0
ENDSEC
  0
EOF
