%TF.GenerationSoftware,KiCad,Pcbnew,9.0.0*%
%TF.CreationDate,2025-08-20T16:33:56-07:00*%
%TF.ProjectId,flatchord,666c6174-6368-46f7-9264-2e6b69636164,rev?*%
%TF.SameCoordinates,Original*%
%TF.FileFunction,Copper,L1,Top*%
%TF.FilePolarity,Positive*%
%FSLAX46Y46*%
G04 Gerber Fmt 4.6, Leading zero omitted, Abs format (unit mm)*
G04 Created by KiCad (PCBNEW 9.0.0) date 2025-08-20 16:33:56*
%MOMM*%
%LPD*%
G01*
G04 APERTURE LIST*
G04 Aperture macros list*
%AMRoundRect*
0 Rectangle with rounded corners*
0 $1 Rounding radius*
0 $2 $3 $4 $5 $6 $7 $8 $9 X,Y pos of 4 corners*
0 Add a 4 corners polygon primitive as box body*
4,1,4,$2,$3,$4,$5,$6,$7,$8,$9,$2,$3,0*
0 Add four circle primitives for the rounded corners*
1,1,$1+$1,$2,$3*
1,1,$1+$1,$4,$5*
1,1,$1+$1,$6,$7*
1,1,$1+$1,$8,$9*
0 Add four rect primitives between the rounded corners*
20,1,$1+$1,$2,$3,$4,$5,0*
20,1,$1+$1,$4,$5,$6,$7,0*
20,1,$1+$1,$6,$7,$8,$9,0*
20,1,$1+$1,$8,$9,$2,$3,0*%
G04 Aperture macros list end*
%TA.AperFunction,SMDPad,CuDef*%
%ADD10R,1.400000X2.400000*%
%TD*%
%TA.AperFunction,SMDPad,CuDef*%
%ADD11R,2.000000X1.600000*%
%TD*%
%TA.AperFunction,SMDPad,CuDef*%
%ADD12RoundRect,0.150000X0.700000X-0.150000X0.700000X0.150000X-0.700000X0.150000X-0.700000X-0.150000X0*%
%TD*%
%TA.AperFunction,SMDPad,CuDef*%
%ADD13RoundRect,0.250000X1.100000X-0.250000X1.100000X0.250000X-1.100000X0.250000X-1.100000X-0.250000X0*%
%TD*%
%TA.AperFunction,SMDPad,CuDef*%
%ADD14R,1.000000X2.510000*%
%TD*%
%TA.AperFunction,SMDPad,CuDef*%
%ADD15R,1.550000X1.000000*%
%TD*%
%TA.AperFunction,SMDPad,CuDef*%
%ADD16RoundRect,0.240000X-1.010000X0.360000X-1.010000X-0.360000X1.010000X-0.360000X1.010000X0.360000X0*%
%TD*%
%TA.AperFunction,SMDPad,CuDef*%
%ADD17R,1.000000X1.550000*%
%TD*%
%TA.AperFunction,Conductor*%
%ADD18C,0.500000*%
%TD*%
%TA.AperFunction,Conductor*%
%ADD19C,0.300000*%
%TD*%
G04 APERTURE END LIST*
D10*
%TO.P,U1,3V3,3V3*%
%TO.N,VCC*%
X223800000Y-95370000D03*
%TO.P,U1,5V,5V*%
%TO.N,unconnected-(U1-Pad5V)*%
X228880000Y-95370000D03*
D11*
%TO.P,U1,B+,B+*%
%TO.N,/RAW*%
X228720000Y-88000000D03*
%TO.P,U1,B-,B-*%
%TO.N,GND*%
X228720000Y-84800000D03*
D10*
%TO.P,U1,GND,GND*%
X226340000Y-95370000D03*
%TO.P,U1,IO1,IO1*%
%TO.N,unconnected-(U1-PadIO1)*%
X223800000Y-77430000D03*
%TO.P,U1,IO2,IO2*%
%TO.N,/pinky*%
X221260000Y-77430000D03*
%TO.P,U1,IO3,IO3*%
%TO.N,unconnected-(U1-PadIO3)*%
X218720000Y-77430000D03*
%TO.P,U1,IO4,IO4*%
%TO.N,/ring*%
X216180000Y-77430000D03*
%TO.P,U1,IO5,IO5*%
%TO.N,/middle*%
X213640000Y-77430000D03*
%TO.P,U1,IO6,IO6*%
%TO.N,/index*%
X211100000Y-77430000D03*
%TO.P,U1,IO7,IO7*%
%TO.N,/thumb*%
X208560000Y-77430000D03*
%TO.P,U1,IO8,IO8*%
%TO.N,/SDA*%
X208560000Y-95370000D03*
%TO.P,U1,IO9,IO9*%
%TO.N,/SCL*%
X211100000Y-95370000D03*
%TO.P,U1,IO10,IO10*%
%TO.N,unconnected-(U1-PadIO10)*%
X213640000Y-95370000D03*
%TO.P,U1,IO11,IO11*%
%TO.N,unconnected-(U1-PadIO11)*%
X216180000Y-95370000D03*
%TO.P,U1,IO12,IO12*%
%TO.N,unconnected-(U1-PadIO12)*%
X218720000Y-95370000D03*
%TO.P,U1,IO13,IO13*%
%TO.N,unconnected-(U1-PadIO13)*%
X221260000Y-95370000D03*
%TO.P,U1,RX,RX*%
%TO.N,unconnected-(U1-PadRX)*%
X226340000Y-77430000D03*
%TO.P,U1,TX,TX*%
%TO.N,unconnected-(U1-PadTX)*%
X228880000Y-77430000D03*
%TD*%
D12*
%TO.P,BAT1,1,Pin_1*%
%TO.N,/B+*%
X175900000Y-87900000D03*
%TO.P,BAT1,2,Pin_2*%
%TO.N,GND*%
X175900000Y-86650000D03*
D13*
%TO.P,BAT1,3,Pin_3*%
%TO.N,/mp*%
X179100000Y-89750000D03*
%TO.P,BAT1,4,Pin_4*%
X179100000Y-84800000D03*
%TD*%
D14*
%TO.P,J1,1,Pin_1*%
%TO.N,GND*%
X205810000Y-101195000D03*
%TO.P,J1,2,Pin_2*%
%TO.N,VCC*%
X203270000Y-97885000D03*
%TO.P,J1,3,Pin_3*%
%TO.N,/SCL*%
X200730000Y-101195000D03*
%TO.P,J1,4,Pin_4*%
%TO.N,/SDA*%
X198190000Y-97885000D03*
%TD*%
D15*
%TO.P,SW3,1,A*%
%TO.N,/pinky*%
X222675000Y-69950000D03*
X227925000Y-69950000D03*
%TO.P,SW3,2,B*%
%TO.N,GND*%
X222675000Y-71650000D03*
X227925000Y-71650000D03*
%TD*%
%TO.P,SW0,1,A*%
%TO.N,/index*%
X176075000Y-69950000D03*
X181325000Y-69950000D03*
%TO.P,SW0,2,B*%
%TO.N,GND*%
X176075000Y-71650000D03*
X181325000Y-71650000D03*
%TD*%
D16*
%TO.P,SW5,1,A*%
%TO.N,/B+*%
X177050000Y-94100000D03*
%TO.P,SW5,2,B*%
%TO.N,/RAW*%
X177050000Y-96600000D03*
%TO.P,SW5,3,C*%
%TO.N,unconnected-(SW5A-C-Pad3)*%
X177050000Y-99100000D03*
%TD*%
D15*
%TO.P,SW2,1,A*%
%TO.N,/ring*%
X207625000Y-69950000D03*
X212875000Y-69950000D03*
%TO.P,SW2,2,B*%
%TO.N,GND*%
X207625000Y-71650000D03*
X212875000Y-71650000D03*
%TD*%
%TO.P,SW1,1,A*%
%TO.N,/middle*%
X191075000Y-69950000D03*
X196325000Y-69950000D03*
%TO.P,SW1,2,B*%
%TO.N,GND*%
X191075000Y-71650000D03*
X196325000Y-71650000D03*
%TD*%
D17*
%TO.P,SW4,1,A*%
%TO.N,/thumb*%
X174625000Y-81650000D03*
X174625000Y-76400000D03*
%TO.P,SW4,2,B*%
%TO.N,GND*%
X176325000Y-81650000D03*
X176325000Y-76400000D03*
%TD*%
D18*
%TO.N,/B+*%
X175900000Y-87900000D02*
X175900000Y-90500000D01*
X175900000Y-90500000D02*
X177050000Y-91650000D01*
X177050000Y-91650000D02*
X177050000Y-94100000D01*
%TO.N,/SCL*%
X211100000Y-97100000D02*
X209800000Y-98400000D01*
X200730000Y-96470000D02*
X200730000Y-101195000D01*
X207800000Y-98400000D02*
X204500000Y-95100000D01*
X209800000Y-98400000D02*
X207800000Y-98400000D01*
X202100000Y-95100000D02*
X200730000Y-96470000D01*
X211100000Y-95370000D02*
X211100000Y-97100000D01*
X204500000Y-95100000D02*
X202100000Y-95100000D01*
%TO.N,VCC*%
X215300000Y-98000000D02*
X223300000Y-98000000D01*
X213200000Y-100100000D02*
X215300000Y-98000000D01*
X207800000Y-100100000D02*
X213200000Y-100100000D01*
X223300000Y-98000000D02*
X223800000Y-97500000D01*
X205585000Y-97885000D02*
X207800000Y-100100000D01*
X203270000Y-97885000D02*
X205585000Y-97885000D01*
X223800000Y-97500000D02*
X223800000Y-95370000D01*
%TO.N,/SDA*%
X207200000Y-91400000D02*
X208560000Y-92760000D01*
X198190000Y-97885000D02*
X198190000Y-95110000D01*
X201900000Y-91400000D02*
X207200000Y-91400000D01*
X198190000Y-95110000D02*
X201900000Y-91400000D01*
X208560000Y-92760000D02*
X208560000Y-95370000D01*
%TO.N,/index*%
X183800000Y-71300000D02*
X182500000Y-70000000D01*
D19*
X176075000Y-69950000D02*
X176825000Y-70700000D01*
X176825000Y-70700000D02*
X180575000Y-70700000D01*
D18*
X181375000Y-70000000D02*
X181325000Y-69950000D01*
X209500000Y-75000000D02*
X185787500Y-75000000D01*
X182500000Y-70000000D02*
X181375000Y-70000000D01*
X183800000Y-73012500D02*
X183800000Y-71300000D01*
D19*
X180575000Y-70700000D02*
X181325000Y-69950000D01*
D18*
X211100000Y-76600000D02*
X209500000Y-75000000D01*
X185787500Y-75000000D02*
X183800000Y-73012500D01*
D19*
%TO.N,/middle*%
X195475000Y-70800000D02*
X196325000Y-69950000D01*
X191075000Y-69950000D02*
X191925000Y-70800000D01*
X191925000Y-70800000D02*
X195475000Y-70800000D01*
D18*
X213640000Y-76740000D02*
X210900000Y-74000000D01*
X210900000Y-74000000D02*
X204900000Y-74000000D01*
X204900000Y-74000000D02*
X200850000Y-69950000D01*
X200850000Y-69950000D02*
X196325000Y-69950000D01*
%TO.N,/ring*%
X214800000Y-71000000D02*
X213750000Y-69950000D01*
X213750000Y-69950000D02*
X212875000Y-69950000D01*
D19*
X207625000Y-69950000D02*
X208475000Y-70800000D01*
D18*
X216180000Y-75180000D02*
X214800000Y-73800000D01*
D19*
X208475000Y-70800000D02*
X212025000Y-70800000D01*
D18*
X216180000Y-75180000D02*
X216180000Y-77430000D01*
X214800000Y-73800000D02*
X214800000Y-71000000D01*
D19*
X212025000Y-70800000D02*
X212875000Y-69950000D01*
%TO.N,/pinky*%
X222675000Y-69950000D02*
X223325000Y-70600000D01*
D18*
X221260000Y-76060000D02*
X220200000Y-75000000D01*
D19*
X223325000Y-70600000D02*
X227275000Y-70600000D01*
D18*
X220200000Y-70600000D02*
X220850000Y-69950000D01*
D19*
X227275000Y-70600000D02*
X227925000Y-69950000D01*
D18*
X220200000Y-75000000D02*
X220200000Y-70600000D01*
X220850000Y-69950000D02*
X222675000Y-69950000D01*
D19*
%TO.N,/thumb*%
X175400000Y-80875000D02*
X175400000Y-77175000D01*
D18*
X174625000Y-82525000D02*
X174625000Y-81650000D01*
X208560000Y-77430000D02*
X184470000Y-77430000D01*
D19*
X175400000Y-77175000D02*
X174625000Y-76400000D01*
D18*
X175400000Y-83300000D02*
X174625000Y-82525000D01*
X184470000Y-77430000D02*
X178600000Y-83300000D01*
X178600000Y-83300000D02*
X175400000Y-83300000D01*
D19*
X174625000Y-81650000D02*
X175400000Y-80875000D01*
D18*
%TO.N,/RAW*%
X201500000Y-88000000D02*
X228720000Y-88000000D01*
X177050000Y-96600000D02*
X192900000Y-96600000D01*
X192900000Y-96600000D02*
X201500000Y-88000000D01*
D19*
%TO.N,/mp*%
X179100000Y-84800000D02*
X179100000Y-89750000D01*
%TD*%
%TA.AperFunction,Conductor*%
%TO.N,GND*%
G36*
X227880052Y-68621897D02*
G01*
X227889839Y-68622446D01*
X228200580Y-68639895D01*
X228206024Y-68640508D01*
X228463917Y-68684324D01*
X228491028Y-68698669D01*
X229255767Y-69493998D01*
X230720944Y-71017782D01*
X230733931Y-71043536D01*
X230759490Y-71193967D01*
X230760105Y-71199428D01*
X230765614Y-71297537D01*
X230777676Y-71512352D01*
X230778103Y-71519947D01*
X230778180Y-71522694D01*
X230778180Y-101498624D01*
X230778103Y-101501371D01*
X230760103Y-101821889D01*
X230759488Y-101827350D01*
X230738301Y-101952041D01*
X230725341Y-101977767D01*
X228471036Y-104326002D01*
X228443896Y-104340376D01*
X228206031Y-104380790D01*
X228200570Y-104381405D01*
X227888151Y-104398947D01*
X227885311Y-104399024D01*
X175620241Y-104300038D01*
X175585686Y-104285686D01*
X173369503Y-102069503D01*
X173355843Y-102043063D01*
X173353862Y-102031404D01*
X173319190Y-101827343D01*
X173318577Y-101821899D01*
X173300577Y-101501371D01*
X173300500Y-101498624D01*
X173300500Y-100248536D01*
X184829500Y-100248536D01*
X184829500Y-100248543D01*
X184829500Y-100471457D01*
X184858596Y-100692463D01*
X184858597Y-100692467D01*
X184858598Y-100692474D01*
X184916288Y-100907776D01*
X184916290Y-100907782D01*
X185001595Y-101113727D01*
X185113050Y-101306771D01*
X185113060Y-101306786D01*
X185248748Y-101483618D01*
X185248758Y-101483630D01*
X185406369Y-101641241D01*
X185406381Y-101641251D01*
X185583213Y-101776939D01*
X185583222Y-101776945D01*
X185583226Y-101776948D01*
X185776274Y-101888405D01*
X185982219Y-101973710D01*
X185982223Y-101973711D01*
X186197525Y-102031401D01*
X186197526Y-102031401D01*
X186197537Y-102031404D01*
X186418543Y-102060500D01*
X186418547Y-102060500D01*
X186641453Y-102060500D01*
X186641457Y-102060500D01*
X186862463Y-102031404D01*
X187077781Y-101973710D01*
X187283726Y-101888405D01*
X187476774Y-101776948D01*
X187653624Y-101641247D01*
X187811247Y-101483624D01*
X187946948Y-101306774D01*
X188058405Y-101113726D01*
X188143710Y-100907781D01*
X188201404Y-100692463D01*
X188230500Y-100471457D01*
X188230500Y-100248543D01*
X188201404Y-100027537D01*
X188201401Y-100027525D01*
X188175411Y-99930527D01*
X188172658Y-99920252D01*
X200029500Y-99920252D01*
X200029500Y-102469748D01*
X200041133Y-102528231D01*
X200055678Y-102549999D01*
X200085447Y-102594552D01*
X200112012Y-102612301D01*
X200151769Y-102638867D01*
X200210252Y-102650500D01*
X200210255Y-102650500D01*
X201249745Y-102650500D01*
X201249748Y-102650500D01*
X201308231Y-102638867D01*
X201374552Y-102594552D01*
X201418867Y-102528231D01*
X201430500Y-102469748D01*
X201430500Y-102459845D01*
X205210001Y-102459845D01*
X205215802Y-102489018D01*
X205215804Y-102489022D01*
X205237904Y-102522097D01*
X205270980Y-102544197D01*
X205300153Y-102549999D01*
X206310000Y-102549999D01*
X206319845Y-102549999D01*
X206319845Y-102549998D01*
X206349018Y-102544197D01*
X206349022Y-102544195D01*
X206382097Y-102522095D01*
X206404197Y-102489019D01*
X206410000Y-102459845D01*
X206410000Y-101695000D01*
X206310000Y-101695000D01*
X206310000Y-102549999D01*
X205300153Y-102549999D01*
X205310000Y-102549998D01*
X205310000Y-101695000D01*
X205210001Y-101695000D01*
X205210001Y-102459845D01*
X201430500Y-102459845D01*
X201430500Y-99930154D01*
X205210000Y-99930154D01*
X205210000Y-100695000D01*
X205310000Y-100695000D01*
X206310000Y-100695000D01*
X206409999Y-100695000D01*
X206409999Y-99930155D01*
X206409998Y-99930154D01*
X206404197Y-99900981D01*
X206404195Y-99900977D01*
X206382095Y-99867902D01*
X206349019Y-99845802D01*
X206319846Y-99840000D01*
X206310000Y-99840000D01*
X206310000Y-100695000D01*
X205310000Y-100695000D01*
X205310000Y-99839999D01*
X205300157Y-99840000D01*
X205300152Y-99840001D01*
X205270981Y-99845802D01*
X205270977Y-99845804D01*
X205237902Y-99867904D01*
X205215802Y-99900980D01*
X205210000Y-99930154D01*
X201430500Y-99930154D01*
X201430500Y-99920252D01*
X201418867Y-99861769D01*
X201385757Y-99812217D01*
X201374552Y-99795447D01*
X201331248Y-99766513D01*
X201308231Y-99751133D01*
X201249748Y-99739500D01*
X201249745Y-99739500D01*
X201229500Y-99739500D01*
X201194852Y-99725148D01*
X201180500Y-99690500D01*
X201180500Y-96676899D01*
X201194852Y-96642251D01*
X201226851Y-96610252D01*
X202569500Y-96610252D01*
X202569500Y-99159748D01*
X202581133Y-99218231D01*
X202593261Y-99236381D01*
X202625447Y-99284552D01*
X202652012Y-99302301D01*
X202691769Y-99328867D01*
X202750252Y-99340500D01*
X202750255Y-99340500D01*
X203789745Y-99340500D01*
X203789748Y-99340500D01*
X203848231Y-99328867D01*
X203914552Y-99284552D01*
X203958867Y-99218231D01*
X203970500Y-99159748D01*
X203970500Y-98384500D01*
X203984852Y-98349852D01*
X204019500Y-98335500D01*
X205378101Y-98335500D01*
X205412749Y-98349852D01*
X207523386Y-100460489D01*
X207626113Y-100519799D01*
X207650326Y-100526286D01*
X207695508Y-100538393D01*
X207740689Y-100550500D01*
X207740691Y-100550500D01*
X213259311Y-100550500D01*
X213289430Y-100542428D01*
X213349673Y-100526286D01*
X213373887Y-100519799D01*
X213476614Y-100460489D01*
X213498567Y-100438536D01*
X215598840Y-100438536D01*
X215598840Y-100438543D01*
X215598840Y-100661457D01*
X215627936Y-100882463D01*
X215627937Y-100882467D01*
X215627938Y-100882474D01*
X215685628Y-101097776D01*
X215685630Y-101097782D01*
X215770935Y-101303727D01*
X215882390Y-101496771D01*
X215882400Y-101496786D01*
X216018088Y-101673618D01*
X216018098Y-101673630D01*
X216175709Y-101831241D01*
X216175721Y-101831251D01*
X216352553Y-101966939D01*
X216352562Y-101966945D01*
X216352566Y-101966948D01*
X216545614Y-102078405D01*
X216751559Y-102163710D01*
X216751563Y-102163711D01*
X216966865Y-102221401D01*
X216966866Y-102221401D01*
X216966877Y-102221404D01*
X217187883Y-102250500D01*
X217187887Y-102250500D01*
X217410793Y-102250500D01*
X217410797Y-102250500D01*
X217631803Y-102221404D01*
X217847121Y-102163710D01*
X218053066Y-102078405D01*
X218246114Y-101966948D01*
X218422964Y-101831247D01*
X218580587Y-101673624D01*
X218713813Y-101500000D01*
X218716279Y-101496786D01*
X218716280Y-101496783D01*
X218716288Y-101496774D01*
X218827745Y-101303726D01*
X218913050Y-101097781D01*
X218970744Y-100882463D01*
X218999840Y-100661457D01*
X218999840Y-100438543D01*
X218970744Y-100217537D01*
X218966031Y-100199949D01*
X218913051Y-100002223D01*
X218913049Y-100002217D01*
X218902259Y-99976166D01*
X218827745Y-99796274D01*
X218716288Y-99603226D01*
X218716285Y-99603222D01*
X218716279Y-99603213D01*
X218580591Y-99426381D01*
X218580581Y-99426369D01*
X218422970Y-99268758D01*
X218422958Y-99268748D01*
X218246126Y-99133060D01*
X218246111Y-99133050D01*
X218053066Y-99021595D01*
X218053067Y-99021595D01*
X217847122Y-98936290D01*
X217847116Y-98936288D01*
X217631814Y-98878598D01*
X217631807Y-98878597D01*
X217631803Y-98878596D01*
X217410797Y-98849500D01*
X217187883Y-98849500D01*
X216966877Y-98878596D01*
X216966873Y-98878596D01*
X216966865Y-98878598D01*
X216751563Y-98936288D01*
X216751557Y-98936290D01*
X216545612Y-99021595D01*
X216352568Y-99133050D01*
X216352553Y-99133060D01*
X216175721Y-99268748D01*
X216175709Y-99268758D01*
X216018098Y-99426369D01*
X216018088Y-99426381D01*
X215882400Y-99603213D01*
X215882390Y-99603228D01*
X215770935Y-99796272D01*
X215685630Y-100002217D01*
X215685628Y-100002223D01*
X215627938Y-100217525D01*
X215627936Y-100217533D01*
X215627936Y-100217537D01*
X215599655Y-100432351D01*
X215599655Y-100432352D01*
X215599654Y-100432351D01*
X215598840Y-100438536D01*
X213498567Y-100438536D01*
X215472251Y-98464852D01*
X215506899Y-98450500D01*
X223359311Y-98450500D01*
X223429072Y-98431807D01*
X223454472Y-98425001D01*
X223454473Y-98425001D01*
X223458575Y-98423901D01*
X223473887Y-98419799D01*
X223576614Y-98360489D01*
X224160490Y-97776614D01*
X224219799Y-97673887D01*
X224229010Y-97639511D01*
X224250500Y-97559309D01*
X224250500Y-96819500D01*
X224264852Y-96784852D01*
X224299500Y-96770500D01*
X224519745Y-96770500D01*
X224519748Y-96770500D01*
X224578231Y-96758867D01*
X224644552Y-96714552D01*
X224688867Y-96648231D01*
X224700500Y-96589748D01*
X224700500Y-96579845D01*
X225540001Y-96579845D01*
X225545802Y-96609018D01*
X225545804Y-96609022D01*
X225567904Y-96642097D01*
X225600980Y-96664197D01*
X225630154Y-96669999D01*
X225839999Y-96669999D01*
X226840000Y-96669999D01*
X227049845Y-96669999D01*
X227049845Y-96669998D01*
X227079018Y-96664197D01*
X227079022Y-96664195D01*
X227112097Y-96642095D01*
X227134197Y-96609019D01*
X227140000Y-96579845D01*
X227140000Y-95870000D01*
X226840000Y-95870000D01*
X226840000Y-96669999D01*
X225839999Y-96669999D01*
X225840000Y-96669998D01*
X225840000Y-95870000D01*
X225540001Y-95870000D01*
X225540001Y-96579845D01*
X224700500Y-96579845D01*
X224700500Y-94160154D01*
X225540000Y-94160154D01*
X225540000Y-94870000D01*
X225840000Y-94870000D01*
X226840000Y-94870000D01*
X227139999Y-94870000D01*
X227139999Y-94160155D01*
X227139998Y-94160147D01*
X227139452Y-94157404D01*
X227139452Y-94157403D01*
X227138030Y-94150252D01*
X227979500Y-94150252D01*
X227979500Y-96589748D01*
X227991133Y-96648231D01*
X228005678Y-96669999D01*
X228035447Y-96714552D01*
X228062012Y-96732301D01*
X228101769Y-96758867D01*
X228160252Y-96770500D01*
X228160255Y-96770500D01*
X229599745Y-96770500D01*
X229599748Y-96770500D01*
X229658231Y-96758867D01*
X229724552Y-96714552D01*
X229768867Y-96648231D01*
X229780500Y-96589748D01*
X229780500Y-94150252D01*
X229768867Y-94091769D01*
X229742301Y-94052012D01*
X229724552Y-94025447D01*
X229684795Y-93998882D01*
X229658231Y-93981133D01*
X229599748Y-93969500D01*
X228160252Y-93969500D01*
X228101769Y-93981133D01*
X228035447Y-94025447D01*
X227991133Y-94091769D01*
X227979500Y-94150252D01*
X227138030Y-94150252D01*
X227134197Y-94130981D01*
X227134195Y-94130977D01*
X227112095Y-94097902D01*
X227079019Y-94075802D01*
X227049846Y-94070000D01*
X226840000Y-94070000D01*
X226840000Y-94870000D01*
X225840000Y-94870000D01*
X225840000Y-94070000D01*
X225630155Y-94070000D01*
X225630154Y-94070001D01*
X225600981Y-94075802D01*
X225600977Y-94075804D01*
X225567902Y-94097904D01*
X225545802Y-94130980D01*
X225540000Y-94160154D01*
X224700500Y-94160154D01*
X224700500Y-94150252D01*
X224688867Y-94091769D01*
X224662301Y-94052012D01*
X224644552Y-94025447D01*
X224604795Y-93998882D01*
X224578231Y-93981133D01*
X224519748Y-93969500D01*
X223080252Y-93969500D01*
X223021769Y-93981133D01*
X222955447Y-94025447D01*
X222911133Y-94091769D01*
X222899500Y-94150252D01*
X222899500Y-96589748D01*
X222911133Y-96648231D01*
X222925678Y-96669999D01*
X222955447Y-96714552D01*
X222982012Y-96732301D01*
X223021769Y-96758867D01*
X223080252Y-96770500D01*
X223300500Y-96770500D01*
X223335148Y-96784852D01*
X223349500Y-96819500D01*
X223349500Y-97293100D01*
X223335148Y-97327748D01*
X223127749Y-97535148D01*
X223093101Y-97549500D01*
X215240688Y-97549500D01*
X215126118Y-97580199D01*
X215126112Y-97580202D01*
X215082696Y-97605268D01*
X215023385Y-97639511D01*
X213027749Y-99635148D01*
X212993101Y-99649500D01*
X208006899Y-99649500D01*
X207972251Y-99635148D01*
X205861614Y-97524511D01*
X205758888Y-97465201D01*
X205758886Y-97465200D01*
X205734673Y-97458713D01*
X205704551Y-97450642D01*
X205644311Y-97434500D01*
X205644309Y-97434500D01*
X204019500Y-97434500D01*
X203984852Y-97420148D01*
X203970500Y-97385500D01*
X203970500Y-96610255D01*
X203970500Y-96610252D01*
X203958867Y-96551769D01*
X203932301Y-96512012D01*
X203914552Y-96485447D01*
X203874795Y-96458882D01*
X203848231Y-96441133D01*
X203789748Y-96429500D01*
X202750252Y-96429500D01*
X202691769Y-96441133D01*
X202625447Y-96485447D01*
X202581133Y-96551769D01*
X202569500Y-96610252D01*
X201226851Y-96610252D01*
X201263906Y-96573197D01*
X202272252Y-95564852D01*
X202306900Y-95550500D01*
X204293101Y-95550500D01*
X204327748Y-95564851D01*
X207523386Y-98760490D01*
X207523389Y-98760491D01*
X207523392Y-98760494D01*
X207546062Y-98773582D01*
X207626113Y-98819799D01*
X207650326Y-98826286D01*
X207695508Y-98838393D01*
X207740689Y-98850500D01*
X207740691Y-98850500D01*
X209859311Y-98850500D01*
X209889430Y-98842428D01*
X209949673Y-98826286D01*
X209973887Y-98819799D01*
X210076614Y-98760489D01*
X211460490Y-97376614D01*
X211519799Y-97273886D01*
X211548129Y-97168159D01*
X211550500Y-97159311D01*
X211550500Y-96819500D01*
X211564852Y-96784852D01*
X211599500Y-96770500D01*
X211819745Y-96770500D01*
X211819748Y-96770500D01*
X211878231Y-96758867D01*
X211944552Y-96714552D01*
X211988867Y-96648231D01*
X212000500Y-96589748D01*
X212000500Y-94150252D01*
X212739500Y-94150252D01*
X212739500Y-96589748D01*
X212751133Y-96648231D01*
X212765678Y-96669999D01*
X212795447Y-96714552D01*
X212822012Y-96732301D01*
X212861769Y-96758867D01*
X212920252Y-96770500D01*
X212920255Y-96770500D01*
X214359745Y-96770500D01*
X214359748Y-96770500D01*
X214418231Y-96758867D01*
X214484552Y-96714552D01*
X214528867Y-96648231D01*
X214540500Y-96589748D01*
X214540500Y-94150252D01*
X215279500Y-94150252D01*
X215279500Y-96589748D01*
X215291133Y-96648231D01*
X215305678Y-96669999D01*
X215335447Y-96714552D01*
X215362012Y-96732301D01*
X215401769Y-96758867D01*
X215460252Y-96770500D01*
X215460255Y-96770500D01*
X216899745Y-96770500D01*
X216899748Y-96770500D01*
X216958231Y-96758867D01*
X217024552Y-96714552D01*
X217068867Y-96648231D01*
X217080500Y-96589748D01*
X217080500Y-94150252D01*
X217819500Y-94150252D01*
X217819500Y-96589748D01*
X217831133Y-96648231D01*
X217845678Y-96669999D01*
X217875447Y-96714552D01*
X217902012Y-96732301D01*
X217941769Y-96758867D01*
X218000252Y-96770500D01*
X218000255Y-96770500D01*
X219439745Y-96770500D01*
X219439748Y-96770500D01*
X219498231Y-96758867D01*
X219564552Y-96714552D01*
X219608867Y-96648231D01*
X219620500Y-96589748D01*
X219620500Y-94150252D01*
X220359500Y-94150252D01*
X220359500Y-96589748D01*
X220371133Y-96648231D01*
X220385678Y-96669999D01*
X220415447Y-96714552D01*
X220442012Y-96732301D01*
X220481769Y-96758867D01*
X220540252Y-96770500D01*
X220540255Y-96770500D01*
X221979745Y-96770500D01*
X221979748Y-96770500D01*
X222038231Y-96758867D01*
X222104552Y-96714552D01*
X222148867Y-96648231D01*
X222160500Y-96589748D01*
X222160500Y-94150252D01*
X222148867Y-94091769D01*
X222122301Y-94052012D01*
X222104552Y-94025447D01*
X222064795Y-93998882D01*
X222038231Y-93981133D01*
X221979748Y-93969500D01*
X220540252Y-93969500D01*
X220481769Y-93981133D01*
X220415447Y-94025447D01*
X220371133Y-94091769D01*
X220359500Y-94150252D01*
X219620500Y-94150252D01*
X219608867Y-94091769D01*
X219582301Y-94052012D01*
X219564552Y-94025447D01*
X219524795Y-93998882D01*
X219498231Y-93981133D01*
X219439748Y-93969500D01*
X218000252Y-93969500D01*
X217941769Y-93981133D01*
X217875447Y-94025447D01*
X217831133Y-94091769D01*
X217819500Y-94150252D01*
X217080500Y-94150252D01*
X217068867Y-94091769D01*
X217042301Y-94052012D01*
X217024552Y-94025447D01*
X216984795Y-93998882D01*
X216958231Y-93981133D01*
X216899748Y-93969500D01*
X215460252Y-93969500D01*
X215401769Y-93981133D01*
X215335447Y-94025447D01*
X215291133Y-94091769D01*
X215279500Y-94150252D01*
X214540500Y-94150252D01*
X214528867Y-94091769D01*
X214502301Y-94052012D01*
X214484552Y-94025447D01*
X214444795Y-93998882D01*
X214418231Y-93981133D01*
X214359748Y-93969500D01*
X212920252Y-93969500D01*
X212861769Y-93981133D01*
X212795447Y-94025447D01*
X212751133Y-94091769D01*
X212739500Y-94150252D01*
X212000500Y-94150252D01*
X211988867Y-94091769D01*
X211962301Y-94052012D01*
X211944552Y-94025447D01*
X211904795Y-93998882D01*
X211878231Y-93981133D01*
X211819748Y-93969500D01*
X210380252Y-93969500D01*
X210321769Y-93981133D01*
X210255447Y-94025447D01*
X210211133Y-94091769D01*
X210199500Y-94150252D01*
X210199500Y-96589748D01*
X210211133Y-96648231D01*
X210225678Y-96669999D01*
X210255447Y-96714552D01*
X210282012Y-96732301D01*
X210321769Y-96758867D01*
X210380252Y-96770500D01*
X210600500Y-96770500D01*
X210635148Y-96784852D01*
X210649500Y-96819500D01*
X210649500Y-96893100D01*
X210635148Y-96927748D01*
X209627749Y-97935148D01*
X209593101Y-97949500D01*
X208006900Y-97949500D01*
X207972252Y-97935148D01*
X204776615Y-94739512D01*
X204776614Y-94739511D01*
X204673888Y-94680201D01*
X204673886Y-94680200D01*
X204628937Y-94668157D01*
X204605727Y-94661938D01*
X204559311Y-94649500D01*
X204559309Y-94649500D01*
X202040691Y-94649500D01*
X202040688Y-94649500D01*
X201926118Y-94680199D01*
X201926114Y-94680201D01*
X201823389Y-94739507D01*
X201823383Y-94739512D01*
X200369512Y-96193384D01*
X200369511Y-96193385D01*
X200310201Y-96296111D01*
X200308532Y-96302343D01*
X200308531Y-96302342D01*
X200308531Y-96302346D01*
X200279500Y-96410688D01*
X200279500Y-99690500D01*
X200265148Y-99725148D01*
X200230500Y-99739500D01*
X200210252Y-99739500D01*
X200151769Y-99751133D01*
X200085447Y-99795447D01*
X200046424Y-99853850D01*
X200041133Y-99861769D01*
X200029500Y-99920252D01*
X188172658Y-99920252D01*
X188143711Y-99812223D01*
X188143709Y-99812217D01*
X188137105Y-99796272D01*
X188058405Y-99606274D01*
X188056646Y-99603228D01*
X187946949Y-99413228D01*
X187946939Y-99413213D01*
X187811251Y-99236381D01*
X187811241Y-99236369D01*
X187653630Y-99078758D01*
X187653618Y-99078748D01*
X187476786Y-98943060D01*
X187476771Y-98943050D01*
X187283726Y-98831595D01*
X187283727Y-98831595D01*
X187077782Y-98746290D01*
X187077776Y-98746288D01*
X186862474Y-98688598D01*
X186862467Y-98688597D01*
X186862463Y-98688596D01*
X186641457Y-98659500D01*
X186418543Y-98659500D01*
X186197537Y-98688596D01*
X186197533Y-98688596D01*
X186197525Y-98688598D01*
X185982223Y-98746288D01*
X185982217Y-98746290D01*
X185776272Y-98831595D01*
X185583228Y-98943050D01*
X185583213Y-98943060D01*
X185406381Y-99078748D01*
X185406369Y-99078758D01*
X185248758Y-99236369D01*
X185248748Y-99236381D01*
X185113060Y-99413213D01*
X185113050Y-99413228D01*
X185001595Y-99606272D01*
X184916290Y-99812217D01*
X184916288Y-99812223D01*
X184858598Y-100027525D01*
X184858596Y-100027533D01*
X184858596Y-100027537D01*
X184830315Y-100242351D01*
X184830315Y-100242352D01*
X184830314Y-100242351D01*
X184829500Y-100248536D01*
X173300500Y-100248536D01*
X173300500Y-98031001D01*
X173599500Y-98031001D01*
X173599500Y-98168998D01*
X173626417Y-98304318D01*
X173626420Y-98304329D01*
X173676404Y-98425001D01*
X173679225Y-98431811D01*
X173710137Y-98478074D01*
X173755883Y-98546539D01*
X173853460Y-98644116D01*
X173899102Y-98674613D01*
X173968189Y-98720775D01*
X174095672Y-98773580D01*
X174095678Y-98773581D01*
X174095681Y-98773582D01*
X174231001Y-98800499D01*
X174231007Y-98800500D01*
X174368993Y-98800500D01*
X174504328Y-98773580D01*
X174631811Y-98720775D01*
X174682444Y-98686943D01*
X175599500Y-98686943D01*
X175599500Y-99513056D01*
X175599501Y-99513077D01*
X175602289Y-99542812D01*
X175602290Y-99542821D01*
X175613954Y-99576153D01*
X175646148Y-99668157D01*
X175646149Y-99668159D01*
X175646148Y-99668159D01*
X175725000Y-99774999D01*
X175820938Y-99845804D01*
X175831843Y-99853852D01*
X175957181Y-99897710D01*
X175986934Y-99900500D01*
X175986944Y-99900500D01*
X178113056Y-99900500D01*
X178113066Y-99900500D01*
X178142819Y-99897710D01*
X178268157Y-99853852D01*
X178374999Y-99774999D01*
X178453852Y-99668157D01*
X178497710Y-99542819D01*
X178500500Y-99513066D01*
X178500500Y-98686934D01*
X178497710Y-98657181D01*
X178453852Y-98531843D01*
X178453850Y-98531840D01*
X178453851Y-98531840D01*
X178374999Y-98425000D01*
X178268159Y-98346149D01*
X178268157Y-98346148D01*
X178230537Y-98332984D01*
X178142821Y-98302290D01*
X178142812Y-98302289D01*
X178113077Y-98299501D01*
X178113076Y-98299500D01*
X178113066Y-98299500D01*
X175986934Y-98299500D01*
X175986924Y-98299500D01*
X175986922Y-98299501D01*
X175957187Y-98302289D01*
X175957178Y-98302290D01*
X175831840Y-98346149D01*
X175725000Y-98425000D01*
X175646149Y-98531840D01*
X175602290Y-98657178D01*
X175602289Y-98657187D01*
X175599501Y-98686922D01*
X175599500Y-98686943D01*
X174682444Y-98686943D01*
X174726986Y-98657181D01*
X174745148Y-98645046D01*
X174745149Y-98645045D01*
X174745499Y-98644810D01*
X174746542Y-98644114D01*
X174844114Y-98546542D01*
X174920775Y-98431811D01*
X174973580Y-98304328D01*
X175000500Y-98168993D01*
X175000500Y-98031007D01*
X174984287Y-97949500D01*
X174973582Y-97895681D01*
X174973579Y-97895670D01*
X174920775Y-97768189D01*
X174857766Y-97673889D01*
X174844116Y-97653460D01*
X174746539Y-97555883D01*
X174678074Y-97510137D01*
X174631811Y-97479225D01*
X174631808Y-97479223D01*
X174631807Y-97479223D01*
X174504329Y-97426420D01*
X174504318Y-97426417D01*
X174368998Y-97399500D01*
X174368993Y-97399500D01*
X174231007Y-97399500D01*
X174231001Y-97399500D01*
X174095681Y-97426417D01*
X174095670Y-97426420D01*
X173968192Y-97479223D01*
X173853460Y-97555883D01*
X173755883Y-97653460D01*
X173679223Y-97768192D01*
X173626420Y-97895670D01*
X173626417Y-97895681D01*
X173599500Y-98031001D01*
X173300500Y-98031001D01*
X173300500Y-96186943D01*
X175599500Y-96186943D01*
X175599500Y-97013056D01*
X175599501Y-97013077D01*
X175602289Y-97042812D01*
X175602290Y-97042821D01*
X175632984Y-97130537D01*
X175646148Y-97168157D01*
X175646149Y-97168159D01*
X175646148Y-97168159D01*
X175725000Y-97274999D01*
X175796473Y-97327748D01*
X175831843Y-97353852D01*
X175957181Y-97397710D01*
X175986934Y-97400500D01*
X175986944Y-97400500D01*
X178113056Y-97400500D01*
X178113066Y-97400500D01*
X178142819Y-97397710D01*
X178268157Y-97353852D01*
X178374999Y-97274999D01*
X178453852Y-97168157D01*
X178483539Y-97083315D01*
X178508529Y-97055353D01*
X178529789Y-97050500D01*
X192959311Y-97050500D01*
X192989430Y-97042428D01*
X193049673Y-97026286D01*
X193073887Y-97019799D01*
X193176614Y-96960489D01*
X193526851Y-96610252D01*
X197489500Y-96610252D01*
X197489500Y-99159748D01*
X197501133Y-99218231D01*
X197513261Y-99236381D01*
X197545447Y-99284552D01*
X197572012Y-99302301D01*
X197611769Y-99328867D01*
X197670252Y-99340500D01*
X197670255Y-99340500D01*
X198709745Y-99340500D01*
X198709748Y-99340500D01*
X198768231Y-99328867D01*
X198834552Y-99284552D01*
X198878867Y-99218231D01*
X198890500Y-99159748D01*
X198890500Y-96610252D01*
X198878867Y-96551769D01*
X198852301Y-96512012D01*
X198834552Y-96485447D01*
X198794795Y-96458882D01*
X198768231Y-96441133D01*
X198709748Y-96429500D01*
X198709745Y-96429500D01*
X198689500Y-96429500D01*
X198654852Y-96415148D01*
X198640500Y-96380500D01*
X198640500Y-95316899D01*
X198654852Y-95282251D01*
X202072251Y-91864852D01*
X202106899Y-91850500D01*
X206993101Y-91850500D01*
X207027749Y-91864852D01*
X208095148Y-92932251D01*
X208109500Y-92966899D01*
X208109500Y-93920500D01*
X208095148Y-93955148D01*
X208060500Y-93969500D01*
X207840252Y-93969500D01*
X207781769Y-93981133D01*
X207715447Y-94025447D01*
X207671133Y-94091769D01*
X207659500Y-94150252D01*
X207659500Y-96589748D01*
X207671133Y-96648231D01*
X207685678Y-96669999D01*
X207715447Y-96714552D01*
X207742012Y-96732301D01*
X207781769Y-96758867D01*
X207840252Y-96770500D01*
X207840255Y-96770500D01*
X209279745Y-96770500D01*
X209279748Y-96770500D01*
X209338231Y-96758867D01*
X209404552Y-96714552D01*
X209448867Y-96648231D01*
X209460500Y-96589748D01*
X209460500Y-94150252D01*
X209448867Y-94091769D01*
X209422301Y-94052012D01*
X209404552Y-94025447D01*
X209364795Y-93998882D01*
X209338231Y-93981133D01*
X209279748Y-93969500D01*
X209279745Y-93969500D01*
X209059500Y-93969500D01*
X209024852Y-93955148D01*
X209010500Y-93920500D01*
X209010500Y-92700688D01*
X209010499Y-92700687D01*
X208979800Y-92586117D01*
X208979799Y-92586115D01*
X208979799Y-92586114D01*
X208954731Y-92542696D01*
X208920489Y-92483386D01*
X207476614Y-91039511D01*
X207373888Y-90980201D01*
X207373886Y-90980200D01*
X207349673Y-90973713D01*
X207319551Y-90965642D01*
X207259311Y-90949500D01*
X207259309Y-90949500D01*
X201840691Y-90949500D01*
X201840688Y-90949500D01*
X201726118Y-90980199D01*
X201726112Y-90980202D01*
X201682696Y-91005268D01*
X201623385Y-91039511D01*
X201623385Y-91039512D01*
X197829512Y-94833385D01*
X197829511Y-94833385D01*
X197770201Y-94936111D01*
X197768532Y-94942343D01*
X197768531Y-94942342D01*
X197768531Y-94942346D01*
X197739500Y-95050688D01*
X197739500Y-96380500D01*
X197725148Y-96415148D01*
X197690500Y-96429500D01*
X197670252Y-96429500D01*
X197611769Y-96441133D01*
X197545447Y-96485447D01*
X197501133Y-96551769D01*
X197489500Y-96610252D01*
X193526851Y-96610252D01*
X201672252Y-88464852D01*
X201706900Y-88450500D01*
X227470500Y-88450500D01*
X227505148Y-88464852D01*
X227519500Y-88499500D01*
X227519500Y-88819748D01*
X227531133Y-88878231D01*
X227548882Y-88904795D01*
X227575447Y-88944552D01*
X227602012Y-88962301D01*
X227641769Y-88988867D01*
X227700252Y-89000500D01*
X227700255Y-89000500D01*
X229739745Y-89000500D01*
X229739748Y-89000500D01*
X229798231Y-88988867D01*
X229864552Y-88944552D01*
X229908867Y-88878231D01*
X229920500Y-88819748D01*
X229920500Y-87180252D01*
X229908867Y-87121769D01*
X229882301Y-87082012D01*
X229864552Y-87055447D01*
X229824795Y-87028882D01*
X229798231Y-87011133D01*
X229739748Y-86999500D01*
X227700252Y-86999500D01*
X227641769Y-87011133D01*
X227575447Y-87055447D01*
X227531133Y-87121769D01*
X227519500Y-87180252D01*
X227519500Y-87180255D01*
X227519500Y-87500500D01*
X227505148Y-87535148D01*
X227470500Y-87549500D01*
X201440688Y-87549500D01*
X201326118Y-87580199D01*
X201326114Y-87580201D01*
X201223389Y-87639507D01*
X201223383Y-87639512D01*
X192727749Y-96135148D01*
X192693101Y-96149500D01*
X178529789Y-96149500D01*
X178495141Y-96135148D01*
X178483539Y-96116684D01*
X178453852Y-96031843D01*
X178453850Y-96031840D01*
X178374999Y-95925000D01*
X178268159Y-95846149D01*
X178268157Y-95846148D01*
X178230537Y-95832984D01*
X178142821Y-95802290D01*
X178142812Y-95802289D01*
X178113077Y-95799501D01*
X178113076Y-95799500D01*
X178113066Y-95799500D01*
X175986934Y-95799500D01*
X175986924Y-95799500D01*
X175986922Y-95799501D01*
X175957187Y-95802289D01*
X175957178Y-95802290D01*
X175831840Y-95846149D01*
X175725000Y-95925000D01*
X175646149Y-96031840D01*
X175602290Y-96157178D01*
X175602289Y-96157187D01*
X175599501Y-96186922D01*
X175599500Y-96186943D01*
X173300500Y-96186943D01*
X173300500Y-95031001D01*
X173599500Y-95031001D01*
X173599500Y-95168998D01*
X173626417Y-95304318D01*
X173626420Y-95304328D01*
X173679225Y-95431811D01*
X173710137Y-95478074D01*
X173755883Y-95546539D01*
X173853460Y-95644116D01*
X173899102Y-95674613D01*
X173968189Y-95720775D01*
X174095672Y-95773580D01*
X174095678Y-95773581D01*
X174095681Y-95773582D01*
X174231001Y-95800499D01*
X174231007Y-95800500D01*
X174368993Y-95800500D01*
X174504328Y-95773580D01*
X174631811Y-95720775D01*
X174746542Y-95644114D01*
X174844114Y-95546542D01*
X174920775Y-95431811D01*
X174973580Y-95304328D01*
X175000500Y-95168993D01*
X175000500Y-95031007D01*
X174982864Y-94942343D01*
X174973582Y-94895681D01*
X174973579Y-94895670D01*
X174962946Y-94870000D01*
X174920775Y-94768189D01*
X174861983Y-94680201D01*
X174844116Y-94653460D01*
X174746539Y-94555883D01*
X174678074Y-94510137D01*
X174631811Y-94479225D01*
X174631808Y-94479223D01*
X174631807Y-94479223D01*
X174504329Y-94426420D01*
X174504318Y-94426417D01*
X174368998Y-94399500D01*
X174368993Y-94399500D01*
X174231007Y-94399500D01*
X174231001Y-94399500D01*
X174095681Y-94426417D01*
X174095670Y-94426420D01*
X173968192Y-94479223D01*
X173853460Y-94555883D01*
X173755883Y-94653460D01*
X173679223Y-94768192D01*
X173626420Y-94895670D01*
X173626417Y-94895681D01*
X173599500Y-95031001D01*
X173300500Y-95031001D01*
X173300500Y-87716740D01*
X174849500Y-87716740D01*
X174849500Y-88083260D01*
X174859427Y-88151393D01*
X174910802Y-88256483D01*
X174993517Y-88339198D01*
X175098607Y-88390573D01*
X175146884Y-88397606D01*
X175166738Y-88400500D01*
X175166740Y-88400500D01*
X175400500Y-88400500D01*
X175435148Y-88414852D01*
X175449500Y-88449500D01*
X175449500Y-90559310D01*
X175473713Y-90649672D01*
X175473713Y-90649673D01*
X175480200Y-90673886D01*
X175480201Y-90673888D01*
X175539511Y-90776614D01*
X176585148Y-91822251D01*
X176599500Y-91856899D01*
X176599500Y-93250500D01*
X176585148Y-93285148D01*
X176550500Y-93299500D01*
X175986934Y-93299500D01*
X175986924Y-93299500D01*
X175986922Y-93299501D01*
X175957187Y-93302289D01*
X175957178Y-93302290D01*
X175831840Y-93346149D01*
X175725000Y-93425000D01*
X175646149Y-93531840D01*
X175602290Y-93657178D01*
X175602289Y-93657187D01*
X175599501Y-93686922D01*
X175599500Y-93686943D01*
X175599500Y-94513056D01*
X175599501Y-94513077D01*
X175602289Y-94542812D01*
X175602290Y-94542821D01*
X175646148Y-94668157D01*
X175646148Y-94668159D01*
X175725000Y-94774999D01*
X175831840Y-94853850D01*
X175831843Y-94853852D01*
X175957181Y-94897710D01*
X175986934Y-94900500D01*
X175986944Y-94900500D01*
X178113056Y-94900500D01*
X178113066Y-94900500D01*
X178142819Y-94897710D01*
X178268157Y-94853852D01*
X178374999Y-94774999D01*
X178401193Y-94739507D01*
X178453851Y-94668159D01*
X178453852Y-94668157D01*
X178460380Y-94649500D01*
X178497710Y-94542819D01*
X178500500Y-94513066D01*
X178500500Y-93686934D01*
X178497710Y-93657181D01*
X178453852Y-93531843D01*
X178453850Y-93531840D01*
X178453851Y-93531840D01*
X178374999Y-93425000D01*
X178268159Y-93346149D01*
X178268157Y-93346148D01*
X178230537Y-93332984D01*
X178142821Y-93302290D01*
X178142812Y-93302289D01*
X178113077Y-93299501D01*
X178113076Y-93299500D01*
X178113066Y-93299500D01*
X178113056Y-93299500D01*
X177549500Y-93299500D01*
X177514852Y-93285148D01*
X177500500Y-93250500D01*
X177500500Y-91590688D01*
X177469800Y-91476118D01*
X177469798Y-91476112D01*
X177460096Y-91459306D01*
X177460096Y-91459305D01*
X177410494Y-91373392D01*
X177410491Y-91373389D01*
X177410490Y-91373386D01*
X176364852Y-90327748D01*
X176350500Y-90293100D01*
X176350500Y-88449500D01*
X176364852Y-88414852D01*
X176399500Y-88400500D01*
X176633262Y-88400500D01*
X176650590Y-88397974D01*
X176701393Y-88390573D01*
X176806483Y-88339198D01*
X176889198Y-88256483D01*
X176940573Y-88151393D01*
X176950500Y-88083260D01*
X176950500Y-87716740D01*
X176940573Y-87648607D01*
X176889198Y-87543517D01*
X176806483Y-87460802D01*
X176753938Y-87435114D01*
X176701396Y-87409428D01*
X176701394Y-87409427D01*
X176633262Y-87399500D01*
X176633260Y-87399500D01*
X175166740Y-87399500D01*
X175166738Y-87399500D01*
X175098605Y-87409427D01*
X175098603Y-87409428D01*
X174993519Y-87460801D01*
X174993515Y-87460803D01*
X174910803Y-87543515D01*
X174910801Y-87543519D01*
X174859428Y-87648603D01*
X174859427Y-87648605D01*
X174859427Y-87648607D01*
X174849500Y-87716740D01*
X173300500Y-87716740D01*
X173300500Y-86950000D01*
X174999554Y-86950000D01*
X175019759Y-86980240D01*
X175102457Y-87035496D01*
X175175370Y-87049999D01*
X175175376Y-87050000D01*
X175600000Y-87050000D01*
X176200000Y-87050000D01*
X176624624Y-87050000D01*
X176624629Y-87049999D01*
X176697542Y-87035496D01*
X176780240Y-86980240D01*
X176800446Y-86950000D01*
X176200000Y-86950000D01*
X176200000Y-87050000D01*
X175600000Y-87050000D01*
X175600000Y-86950000D01*
X174999554Y-86950000D01*
X173300500Y-86950000D01*
X173300500Y-86350000D01*
X174999554Y-86350000D01*
X175600000Y-86350000D01*
X176200000Y-86350000D01*
X176800446Y-86350000D01*
X176780240Y-86319759D01*
X176697542Y-86264503D01*
X176624629Y-86250000D01*
X176200000Y-86250000D01*
X176200000Y-86350000D01*
X175600000Y-86350000D01*
X175600000Y-86250000D01*
X175175370Y-86250000D01*
X175102457Y-86264503D01*
X175019759Y-86319759D01*
X174999554Y-86350000D01*
X173300500Y-86350000D01*
X173300500Y-84495724D01*
X177549500Y-84495724D01*
X177549500Y-85104275D01*
X177552353Y-85134698D01*
X177552353Y-85134699D01*
X177597204Y-85262876D01*
X177597208Y-85262885D01*
X177677849Y-85372150D01*
X177787114Y-85452791D01*
X177787117Y-85452792D01*
X177787118Y-85452793D01*
X177787120Y-85452793D01*
X177787123Y-85452795D01*
X177915301Y-85497646D01*
X177945734Y-85500500D01*
X178700500Y-85500500D01*
X178735148Y-85514852D01*
X178749500Y-85549500D01*
X178749500Y-89000500D01*
X178735148Y-89035148D01*
X178700500Y-89049500D01*
X177945724Y-89049500D01*
X177915301Y-89052353D01*
X177915300Y-89052353D01*
X177787123Y-89097204D01*
X177787114Y-89097208D01*
X177677849Y-89177849D01*
X177597208Y-89287114D01*
X177597204Y-89287123D01*
X177552353Y-89415300D01*
X177552353Y-89415301D01*
X177549500Y-89445724D01*
X177549500Y-90054275D01*
X177552353Y-90084698D01*
X177552353Y-90084699D01*
X177597204Y-90212876D01*
X177597208Y-90212885D01*
X177677849Y-90322150D01*
X177787114Y-90402791D01*
X177787117Y-90402792D01*
X177787118Y-90402793D01*
X177787120Y-90402793D01*
X177787123Y-90402795D01*
X177915301Y-90447646D01*
X177945734Y-90450500D01*
X177945744Y-90450500D01*
X180254256Y-90450500D01*
X180254266Y-90450500D01*
X180284699Y-90447646D01*
X180412882Y-90402793D01*
X180522150Y-90322150D01*
X180602793Y-90212882D01*
X180647646Y-90084699D01*
X180650500Y-90054266D01*
X180650500Y-89445734D01*
X180647646Y-89415301D01*
X180602793Y-89287118D01*
X180602792Y-89287117D01*
X180602791Y-89287114D01*
X180522150Y-89177849D01*
X180412885Y-89097208D01*
X180412876Y-89097204D01*
X180284698Y-89052353D01*
X180254275Y-89049500D01*
X180254266Y-89049500D01*
X179499500Y-89049500D01*
X179464852Y-89035148D01*
X179450500Y-89000500D01*
X179450500Y-85609845D01*
X227620001Y-85609845D01*
X227625802Y-85639018D01*
X227625804Y-85639022D01*
X227647904Y-85672097D01*
X227680980Y-85694197D01*
X227710154Y-85699999D01*
X228219999Y-85699999D01*
X229220000Y-85699999D01*
X229729845Y-85699999D01*
X229729845Y-85699998D01*
X229759018Y-85694197D01*
X229759022Y-85694195D01*
X229792097Y-85672095D01*
X229814197Y-85639019D01*
X229820000Y-85609845D01*
X229820000Y-85300000D01*
X229220000Y-85300000D01*
X229220000Y-85699999D01*
X228219999Y-85699999D01*
X228220000Y-85699998D01*
X228220000Y-85300000D01*
X227620001Y-85300000D01*
X227620001Y-85609845D01*
X179450500Y-85609845D01*
X179450500Y-85549500D01*
X179464852Y-85514852D01*
X179499500Y-85500500D01*
X180254256Y-85500500D01*
X180254266Y-85500500D01*
X180284699Y-85497646D01*
X180412882Y-85452793D01*
X180522150Y-85372150D01*
X180602793Y-85262882D01*
X180602793Y-85262880D01*
X180602797Y-85262874D01*
X180647646Y-85134699D01*
X180647646Y-85134698D01*
X180650499Y-85104275D01*
X180650500Y-85104266D01*
X180650500Y-84495734D01*
X180647646Y-84465301D01*
X180602793Y-84337118D01*
X180602792Y-84337117D01*
X180602791Y-84337114D01*
X180522150Y-84227849D01*
X180412885Y-84147208D01*
X180412876Y-84147204D01*
X180284698Y-84102353D01*
X180254275Y-84099500D01*
X180254266Y-84099500D01*
X177945734Y-84099500D01*
X177945724Y-84099500D01*
X177915301Y-84102353D01*
X177915300Y-84102353D01*
X177787123Y-84147204D01*
X177787114Y-84147208D01*
X177677849Y-84227849D01*
X177597208Y-84337114D01*
X177597204Y-84337123D01*
X177552353Y-84465300D01*
X177552353Y-84465301D01*
X177549500Y-84495724D01*
X173300500Y-84495724D01*
X173300500Y-83990154D01*
X227620000Y-83990154D01*
X227620000Y-84300000D01*
X228220000Y-84300000D01*
X229220000Y-84300000D01*
X229819999Y-84300000D01*
X229819999Y-83990155D01*
X229819998Y-83990154D01*
X229814197Y-83960981D01*
X229814195Y-83960977D01*
X229792095Y-83927902D01*
X229759019Y-83905802D01*
X229729846Y-83900000D01*
X229220000Y-83900000D01*
X229220000Y-84300000D01*
X228220000Y-84300000D01*
X228220000Y-83900000D01*
X227710155Y-83900000D01*
X227710154Y-83900001D01*
X227680981Y-83905802D01*
X227680977Y-83905804D01*
X227647902Y-83927904D01*
X227625802Y-83960980D01*
X227620000Y-83990154D01*
X173300500Y-83990154D01*
X173300500Y-78956001D01*
X173399500Y-78956001D01*
X173399500Y-79093998D01*
X173426417Y-79229318D01*
X173426420Y-79229328D01*
X173479225Y-79356811D01*
X173510137Y-79403074D01*
X173555883Y-79471539D01*
X173653460Y-79569116D01*
X173699102Y-79599613D01*
X173768189Y-79645775D01*
X173895672Y-79698580D01*
X173895678Y-79698581D01*
X173895681Y-79698582D01*
X174031001Y-79725499D01*
X174031007Y-79725500D01*
X174168993Y-79725500D01*
X174304328Y-79698580D01*
X174431811Y-79645775D01*
X174546542Y-79569114D01*
X174644114Y-79471542D01*
X174720775Y-79356811D01*
X174773580Y-79229328D01*
X174800500Y-79093993D01*
X174800500Y-78956007D01*
X174773580Y-78820672D01*
X174720775Y-78693189D01*
X174674613Y-78624102D01*
X174644116Y-78578460D01*
X174546539Y-78480883D01*
X174478074Y-78435137D01*
X174431811Y-78404225D01*
X174431808Y-78404223D01*
X174431807Y-78404223D01*
X174304329Y-78351420D01*
X174304318Y-78351417D01*
X174168998Y-78324500D01*
X174168993Y-78324500D01*
X174031007Y-78324500D01*
X174031001Y-78324500D01*
X173895681Y-78351417D01*
X173895670Y-78351420D01*
X173768192Y-78404223D01*
X173653460Y-78480883D01*
X173555883Y-78578460D01*
X173479223Y-78693192D01*
X173426420Y-78820670D01*
X173426417Y-78820681D01*
X173399500Y-78956001D01*
X173300500Y-78956001D01*
X173300500Y-75605252D01*
X173924500Y-75605252D01*
X173924500Y-77194748D01*
X173936133Y-77253231D01*
X173950678Y-77274999D01*
X173980447Y-77319552D01*
X174007012Y-77337301D01*
X174046769Y-77363867D01*
X174105252Y-77375500D01*
X175000500Y-77375500D01*
X175035148Y-77389852D01*
X175049500Y-77424500D01*
X175049500Y-80625500D01*
X175035148Y-80660148D01*
X175000500Y-80674500D01*
X174105252Y-80674500D01*
X174046769Y-80686133D01*
X173980447Y-80730447D01*
X173946802Y-80780802D01*
X173936133Y-80796769D01*
X173924500Y-80855252D01*
X173924500Y-82444748D01*
X173936133Y-82503231D01*
X173950678Y-82524999D01*
X173980447Y-82569552D01*
X173989716Y-82575745D01*
X174046769Y-82613867D01*
X174105252Y-82625500D01*
X174147938Y-82625500D01*
X174159755Y-82630394D01*
X174172436Y-82632064D01*
X174176467Y-82637317D01*
X174182586Y-82639852D01*
X174195267Y-82661815D01*
X174198713Y-82674673D01*
X174205200Y-82698886D01*
X174205201Y-82698888D01*
X174264511Y-82801614D01*
X175123387Y-83660490D01*
X175123390Y-83660491D01*
X175123393Y-83660494D01*
X175226111Y-83719798D01*
X175226113Y-83719798D01*
X175226114Y-83719799D01*
X175250324Y-83726286D01*
X175340688Y-83750500D01*
X175340691Y-83750500D01*
X178659311Y-83750500D01*
X178689430Y-83742428D01*
X178749673Y-83726286D01*
X178773887Y-83719799D01*
X178876614Y-83660489D01*
X184642252Y-77894852D01*
X184676900Y-77880500D01*
X207610500Y-77880500D01*
X207645148Y-77894852D01*
X207659500Y-77929500D01*
X207659500Y-78649748D01*
X207671133Y-78708231D01*
X207688882Y-78734795D01*
X207715447Y-78774552D01*
X207742012Y-78792301D01*
X207781769Y-78818867D01*
X207840252Y-78830500D01*
X207840255Y-78830500D01*
X209279745Y-78830500D01*
X209279748Y-78830500D01*
X209338231Y-78818867D01*
X209404552Y-78774552D01*
X209448867Y-78708231D01*
X209460500Y-78649748D01*
X209460500Y-76210252D01*
X209448867Y-76151769D01*
X209422301Y-76112012D01*
X209404552Y-76085447D01*
X209364795Y-76058882D01*
X209338231Y-76041133D01*
X209279748Y-76029500D01*
X207840252Y-76029500D01*
X207793840Y-76038732D01*
X207781769Y-76041133D01*
X207715447Y-76085447D01*
X207671133Y-76151769D01*
X207659500Y-76210252D01*
X207659500Y-76210255D01*
X207659500Y-76930500D01*
X207645148Y-76965148D01*
X207610500Y-76979500D01*
X184410688Y-76979500D01*
X184296118Y-77010199D01*
X184296114Y-77010201D01*
X184193389Y-77069507D01*
X184193383Y-77069512D01*
X178427749Y-82835148D01*
X178393101Y-82849500D01*
X175606899Y-82849500D01*
X175572251Y-82835148D01*
X175312848Y-82575745D01*
X175298496Y-82541097D01*
X175306754Y-82513874D01*
X175313867Y-82503231D01*
X175325500Y-82444748D01*
X175325500Y-82434845D01*
X175725001Y-82434845D01*
X175730802Y-82464018D01*
X175730804Y-82464022D01*
X175752904Y-82497097D01*
X175785980Y-82519197D01*
X175815153Y-82524999D01*
X176825000Y-82524999D01*
X176834845Y-82524999D01*
X176834845Y-82524998D01*
X176864018Y-82519197D01*
X176864022Y-82519195D01*
X176897097Y-82497095D01*
X176919197Y-82464019D01*
X176925000Y-82434845D01*
X176925000Y-82150000D01*
X176825000Y-82150000D01*
X176825000Y-82524999D01*
X175815153Y-82524999D01*
X175825000Y-82524998D01*
X175825000Y-82150000D01*
X175725001Y-82150000D01*
X175725001Y-82434845D01*
X175325500Y-82434845D01*
X175325500Y-81465478D01*
X175339852Y-81430830D01*
X175641352Y-81129330D01*
X175676000Y-81114978D01*
X175710648Y-81129330D01*
X175715115Y-81140115D01*
X175725000Y-81150000D01*
X175825000Y-81150000D01*
X176825000Y-81150000D01*
X176924999Y-81150000D01*
X176924999Y-80865155D01*
X176924998Y-80865154D01*
X176919197Y-80835981D01*
X176919195Y-80835977D01*
X176897095Y-80802902D01*
X176864019Y-80780802D01*
X176834846Y-80775000D01*
X176825000Y-80775000D01*
X176825000Y-81150000D01*
X175825000Y-81150000D01*
X175825000Y-80789260D01*
X175783051Y-80774311D01*
X175778409Y-80770114D01*
X175772274Y-80768894D01*
X175764976Y-80757970D01*
X175755231Y-80749160D01*
X175754916Y-80742911D01*
X175751441Y-80737710D01*
X175750500Y-80728154D01*
X175750500Y-78956001D01*
X176149500Y-78956001D01*
X176149500Y-79093998D01*
X176176417Y-79229318D01*
X176176420Y-79229328D01*
X176229225Y-79356811D01*
X176260137Y-79403074D01*
X176305883Y-79471539D01*
X176403460Y-79569116D01*
X176449102Y-79599613D01*
X176518189Y-79645775D01*
X176645672Y-79698580D01*
X176645678Y-79698581D01*
X176645681Y-79698582D01*
X176781001Y-79725499D01*
X176781007Y-79725500D01*
X176918993Y-79725500D01*
X177054328Y-79698580D01*
X177181811Y-79645775D01*
X177296542Y-79569114D01*
X177394114Y-79471542D01*
X177470775Y-79356811D01*
X177523580Y-79229328D01*
X177550500Y-79093993D01*
X177550500Y-78956007D01*
X177523580Y-78820672D01*
X177470775Y-78693189D01*
X177424613Y-78624102D01*
X177394116Y-78578460D01*
X177296539Y-78480883D01*
X177228074Y-78435137D01*
X177181811Y-78404225D01*
X177181808Y-78404223D01*
X177181807Y-78404223D01*
X177054329Y-78351420D01*
X177054318Y-78351417D01*
X176918998Y-78324500D01*
X176918993Y-78324500D01*
X176781007Y-78324500D01*
X176781001Y-78324500D01*
X176645681Y-78351417D01*
X176645670Y-78351420D01*
X176518192Y-78404223D01*
X176403460Y-78480883D01*
X176305883Y-78578460D01*
X176229223Y-78693192D01*
X176176420Y-78820670D01*
X176176417Y-78820681D01*
X176149500Y-78956001D01*
X175750500Y-78956001D01*
X175750500Y-77321846D01*
X175764852Y-77287198D01*
X175799500Y-77272846D01*
X175809062Y-77273788D01*
X175815152Y-77274999D01*
X176825000Y-77274999D01*
X176834845Y-77274999D01*
X176834845Y-77274998D01*
X176864018Y-77269197D01*
X176864022Y-77269195D01*
X176897097Y-77247095D01*
X176919197Y-77214019D01*
X176925000Y-77184845D01*
X176925000Y-76900000D01*
X176825000Y-76900000D01*
X176825000Y-77274999D01*
X175815152Y-77274999D01*
X175825000Y-77274998D01*
X175825000Y-76900000D01*
X175725002Y-76900000D01*
X175715113Y-76909887D01*
X175710643Y-76920676D01*
X175675992Y-76935022D01*
X175641352Y-76920670D01*
X175339852Y-76619170D01*
X175325500Y-76584522D01*
X175325500Y-75615154D01*
X175725000Y-75615154D01*
X175725000Y-75900000D01*
X175825000Y-75900000D01*
X176825000Y-75900000D01*
X176924999Y-75900000D01*
X176924999Y-75615155D01*
X176924998Y-75615154D01*
X176919197Y-75585981D01*
X176919195Y-75585977D01*
X176897095Y-75552902D01*
X176864019Y-75530802D01*
X176834846Y-75525000D01*
X176825000Y-75525000D01*
X176825000Y-75900000D01*
X175825000Y-75900000D01*
X175825000Y-75524999D01*
X175815157Y-75525000D01*
X175815152Y-75525001D01*
X175785981Y-75530802D01*
X175785977Y-75530804D01*
X175752902Y-75552904D01*
X175730802Y-75585980D01*
X175725000Y-75615154D01*
X175325500Y-75615154D01*
X175325500Y-75605255D01*
X175325500Y-75605252D01*
X175313867Y-75546769D01*
X175287301Y-75507012D01*
X175269552Y-75480447D01*
X175224731Y-75450499D01*
X175203231Y-75436133D01*
X175144748Y-75424500D01*
X174105252Y-75424500D01*
X174046769Y-75436133D01*
X173980447Y-75480447D01*
X173936133Y-75546769D01*
X173924500Y-75605252D01*
X173300500Y-75605252D01*
X173300500Y-72159845D01*
X175200001Y-72159845D01*
X175205802Y-72189018D01*
X175205804Y-72189022D01*
X175227904Y-72222097D01*
X175260980Y-72244197D01*
X175290154Y-72249999D01*
X175574999Y-72249999D01*
X176575000Y-72249999D01*
X176859845Y-72249999D01*
X176859845Y-72249998D01*
X176889018Y-72244197D01*
X176889022Y-72244195D01*
X176922097Y-72222095D01*
X176944197Y-72189019D01*
X176950000Y-72159845D01*
X176950000Y-72150000D01*
X176575000Y-72150000D01*
X176575000Y-72249999D01*
X175574999Y-72249999D01*
X175575000Y-72249998D01*
X175575000Y-72150000D01*
X175200001Y-72150000D01*
X175200001Y-72159845D01*
X173300500Y-72159845D01*
X173300500Y-72106001D01*
X177999500Y-72106001D01*
X177999500Y-72243998D01*
X178026417Y-72379318D01*
X178026420Y-72379329D01*
X178028242Y-72383727D01*
X178079225Y-72506811D01*
X178092562Y-72526771D01*
X178155883Y-72621539D01*
X178253460Y-72719116D01*
X178299102Y-72749613D01*
X178368189Y-72795775D01*
X178495672Y-72848580D01*
X178495678Y-72848581D01*
X178495681Y-72848582D01*
X178631001Y-72875499D01*
X178631007Y-72875500D01*
X178768993Y-72875500D01*
X178904328Y-72848580D01*
X179031811Y-72795775D01*
X179146542Y-72719114D01*
X179244114Y-72621542D01*
X179320775Y-72506811D01*
X179373580Y-72379328D01*
X179400500Y-72243993D01*
X179400500Y-72159845D01*
X180450001Y-72159845D01*
X180455802Y-72189018D01*
X180455804Y-72189022D01*
X180477904Y-72222097D01*
X180510980Y-72244197D01*
X180540154Y-72249999D01*
X180824999Y-72249999D01*
X181825000Y-72249999D01*
X182109845Y-72249999D01*
X182109845Y-72249998D01*
X182139018Y-72244197D01*
X182139022Y-72244195D01*
X182172097Y-72222095D01*
X182194197Y-72189019D01*
X182200000Y-72159845D01*
X182200000Y-72150000D01*
X181825000Y-72150000D01*
X181825000Y-72249999D01*
X180824999Y-72249999D01*
X180825000Y-72249998D01*
X180825000Y-72150000D01*
X180450001Y-72150000D01*
X180450001Y-72159845D01*
X179400500Y-72159845D01*
X179400500Y-72106007D01*
X179373580Y-71970672D01*
X179320775Y-71843189D01*
X179252797Y-71741453D01*
X179244116Y-71728460D01*
X179146539Y-71630883D01*
X179078074Y-71585137D01*
X179031811Y-71554225D01*
X179031808Y-71554223D01*
X179031807Y-71554223D01*
X178904329Y-71501420D01*
X178904318Y-71501417D01*
X178768998Y-71474500D01*
X178768993Y-71474500D01*
X178631007Y-71474500D01*
X178631001Y-71474500D01*
X178495681Y-71501417D01*
X178495670Y-71501420D01*
X178368192Y-71554223D01*
X178253460Y-71630883D01*
X178155883Y-71728460D01*
X178079223Y-71843192D01*
X178026420Y-71970670D01*
X178026417Y-71970681D01*
X177999500Y-72106001D01*
X173300500Y-72106001D01*
X173300500Y-71522685D01*
X173300577Y-71519944D01*
X173300655Y-71518546D01*
X173318491Y-71200167D01*
X173319103Y-71194724D01*
X173328353Y-71140154D01*
X175200000Y-71140154D01*
X175200000Y-71150000D01*
X175575000Y-71150000D01*
X175575000Y-71050000D01*
X175290155Y-71050000D01*
X175290154Y-71050001D01*
X175260981Y-71055802D01*
X175260977Y-71055804D01*
X175227902Y-71077904D01*
X175205802Y-71110980D01*
X175200000Y-71140154D01*
X173328353Y-71140154D01*
X173372399Y-70880291D01*
X173373615Y-70874953D01*
X173381788Y-70846513D01*
X173389706Y-70818958D01*
X173402148Y-70797851D01*
X174217534Y-69982466D01*
X174769747Y-69430252D01*
X175099500Y-69430252D01*
X175099500Y-70469748D01*
X175111133Y-70528231D01*
X175119456Y-70540687D01*
X175155447Y-70594552D01*
X175177689Y-70609413D01*
X175221769Y-70638867D01*
X175280252Y-70650500D01*
X176259522Y-70650500D01*
X176294170Y-70664852D01*
X176595670Y-70966352D01*
X176610022Y-71001000D01*
X176595670Y-71035648D01*
X176584884Y-71040115D01*
X176575000Y-71050000D01*
X176575000Y-71150000D01*
X176949999Y-71150000D01*
X176949999Y-71140155D01*
X176949998Y-71140152D01*
X176943815Y-71109057D01*
X176951133Y-71072275D01*
X176982317Y-71051441D01*
X176991874Y-71050500D01*
X180408126Y-71050500D01*
X180442774Y-71064852D01*
X180457126Y-71099500D01*
X180456185Y-71109059D01*
X180450000Y-71140154D01*
X180450000Y-71150000D01*
X180825000Y-71150000D01*
X181825000Y-71150000D01*
X182199999Y-71150000D01*
X182199999Y-71140155D01*
X182199998Y-71140154D01*
X182194197Y-71110981D01*
X182194195Y-71110977D01*
X182172095Y-71077902D01*
X182139019Y-71055802D01*
X182109846Y-71050000D01*
X181825000Y-71050000D01*
X181825000Y-71150000D01*
X180825000Y-71150000D01*
X180825000Y-71052899D01*
X180807917Y-71038898D01*
X180806703Y-71036631D01*
X180804330Y-71035648D01*
X180798011Y-71020394D01*
X180790217Y-71005834D01*
X180790961Y-71003374D01*
X180789978Y-71001000D01*
X180796295Y-70985748D01*
X180801080Y-70969939D01*
X180803346Y-70968725D01*
X180804330Y-70966352D01*
X181105830Y-70664852D01*
X181140478Y-70650500D01*
X182119745Y-70650500D01*
X182119748Y-70650500D01*
X182178231Y-70638867D01*
X182244552Y-70594552D01*
X182288867Y-70528231D01*
X182288868Y-70528227D01*
X182290715Y-70523771D01*
X182293330Y-70524854D01*
X182308627Y-70501769D01*
X182345381Y-70494311D01*
X182370655Y-70507758D01*
X183335148Y-71472251D01*
X183349500Y-71506899D01*
X183349500Y-73071809D01*
X183372703Y-73158405D01*
X183373713Y-73162172D01*
X183373713Y-73162173D01*
X183380200Y-73186386D01*
X183380201Y-73186388D01*
X183413297Y-73243711D01*
X183439511Y-73289114D01*
X185510886Y-75360489D01*
X185570196Y-75394731D01*
X185613614Y-75419799D01*
X185613616Y-75419799D01*
X185613617Y-75419800D01*
X185728187Y-75450499D01*
X185728188Y-75450500D01*
X185728191Y-75450500D01*
X209293101Y-75450500D01*
X209327749Y-75464852D01*
X210185148Y-76322251D01*
X210199500Y-76356899D01*
X210199500Y-78649748D01*
X210211133Y-78708231D01*
X210228882Y-78734795D01*
X210255447Y-78774552D01*
X210282012Y-78792301D01*
X210321769Y-78818867D01*
X210380252Y-78830500D01*
X210380255Y-78830500D01*
X211819745Y-78830500D01*
X211819748Y-78830500D01*
X211878231Y-78818867D01*
X211944552Y-78774552D01*
X211988867Y-78708231D01*
X212000500Y-78649748D01*
X212000500Y-76210252D01*
X211988867Y-76151769D01*
X211962301Y-76112012D01*
X211944552Y-76085447D01*
X211904795Y-76058882D01*
X211878231Y-76041133D01*
X211819748Y-76029500D01*
X211819745Y-76029500D01*
X211186900Y-76029500D01*
X211152252Y-76015148D01*
X209776615Y-74639512D01*
X209776614Y-74639511D01*
X209673888Y-74580201D01*
X209673886Y-74580200D01*
X209649673Y-74573713D01*
X209619551Y-74565642D01*
X209559311Y-74549500D01*
X209559309Y-74549500D01*
X185994399Y-74549500D01*
X185959751Y-74535148D01*
X184264852Y-72840249D01*
X184250500Y-72805601D01*
X184250500Y-71518536D01*
X184949500Y-71518536D01*
X184949500Y-71518543D01*
X184949500Y-71741457D01*
X184978596Y-71962463D01*
X184978597Y-71962467D01*
X184978598Y-71962474D01*
X185036288Y-72177776D01*
X185036290Y-72177782D01*
X185121595Y-72383727D01*
X185233050Y-72576771D01*
X185233060Y-72576786D01*
X185368748Y-72753618D01*
X185368758Y-72753630D01*
X185526369Y-72911241D01*
X185526381Y-72911251D01*
X185703213Y-73046939D01*
X185703222Y-73046945D01*
X185703226Y-73046948D01*
X185896274Y-73158405D01*
X186102219Y-73243710D01*
X186102223Y-73243711D01*
X186317525Y-73301401D01*
X186317526Y-73301401D01*
X186317537Y-73301404D01*
X186538543Y-73330500D01*
X186538547Y-73330500D01*
X186761453Y-73330500D01*
X186761457Y-73330500D01*
X186982463Y-73301404D01*
X187197781Y-73243710D01*
X187403726Y-73158405D01*
X187596774Y-73046948D01*
X187608346Y-73038069D01*
X187703106Y-72965357D01*
X187773624Y-72911247D01*
X187931247Y-72753624D01*
X188066948Y-72576774D01*
X188178405Y-72383726D01*
X188263710Y-72177781D01*
X188268516Y-72159845D01*
X190200001Y-72159845D01*
X190205802Y-72189018D01*
X190205804Y-72189022D01*
X190227904Y-72222097D01*
X190260980Y-72244197D01*
X190290154Y-72249999D01*
X190574999Y-72249999D01*
X191575000Y-72249999D01*
X191859845Y-72249999D01*
X191859845Y-72249998D01*
X191889018Y-72244197D01*
X191889022Y-72244195D01*
X191922097Y-72222095D01*
X191944197Y-72189019D01*
X191950000Y-72159845D01*
X191950000Y-72150000D01*
X191575000Y-72150000D01*
X191575000Y-72249999D01*
X190574999Y-72249999D01*
X190575000Y-72249998D01*
X190575000Y-72150000D01*
X190200001Y-72150000D01*
X190200001Y-72159845D01*
X188268516Y-72159845D01*
X188271154Y-72150000D01*
X188279991Y-72117022D01*
X188282944Y-72106001D01*
X192999500Y-72106001D01*
X192999500Y-72243998D01*
X193026417Y-72379318D01*
X193026420Y-72379329D01*
X193028242Y-72383727D01*
X193079225Y-72506811D01*
X193092562Y-72526771D01*
X193155883Y-72621539D01*
X193253460Y-72719116D01*
X193299102Y-72749613D01*
X193368189Y-72795775D01*
X193495672Y-72848580D01*
X193495678Y-72848581D01*
X193495681Y-72848582D01*
X193631001Y-72875499D01*
X193631007Y-72875500D01*
X193768993Y-72875500D01*
X193904328Y-72848580D01*
X194031811Y-72795775D01*
X194146542Y-72719114D01*
X194244114Y-72621542D01*
X194320775Y-72506811D01*
X194373580Y-72379328D01*
X194400500Y-72243993D01*
X194400500Y-72159845D01*
X195450001Y-72159845D01*
X195455802Y-72189018D01*
X195455804Y-72189022D01*
X195477904Y-72222097D01*
X195510980Y-72244197D01*
X195540154Y-72249999D01*
X195824999Y-72249999D01*
X196825000Y-72249999D01*
X197109845Y-72249999D01*
X197109845Y-72249998D01*
X197139018Y-72244197D01*
X197139022Y-72244195D01*
X197172097Y-72222095D01*
X197194197Y-72189019D01*
X197200000Y-72159845D01*
X197200000Y-72150000D01*
X196825000Y-72150000D01*
X196825000Y-72249999D01*
X195824999Y-72249999D01*
X195825000Y-72249998D01*
X195825000Y-72150000D01*
X195450001Y-72150000D01*
X195450001Y-72159845D01*
X194400500Y-72159845D01*
X194400500Y-72106007D01*
X194373580Y-71970672D01*
X194320775Y-71843189D01*
X194252797Y-71741453D01*
X194244116Y-71728460D01*
X194146539Y-71630883D01*
X194078074Y-71585137D01*
X194031811Y-71554225D01*
X194031808Y-71554223D01*
X194031807Y-71554223D01*
X193904329Y-71501420D01*
X193904318Y-71501417D01*
X193768998Y-71474500D01*
X193768993Y-71474500D01*
X193631007Y-71474500D01*
X193631001Y-71474500D01*
X193495681Y-71501417D01*
X193495670Y-71501420D01*
X193368192Y-71554223D01*
X193253460Y-71630883D01*
X193155883Y-71728460D01*
X193079223Y-71843192D01*
X193026420Y-71970670D01*
X193026417Y-71970681D01*
X192999500Y-72106001D01*
X188282944Y-72106001D01*
X188321401Y-71962474D01*
X188321400Y-71962474D01*
X188321404Y-71962463D01*
X188350500Y-71741457D01*
X188350500Y-71518543D01*
X188321404Y-71297537D01*
X188316691Y-71279949D01*
X188281986Y-71150426D01*
X188279234Y-71140154D01*
X190200000Y-71140154D01*
X190200000Y-71150000D01*
X190575000Y-71150000D01*
X190575000Y-71050000D01*
X190290155Y-71050000D01*
X190290154Y-71050001D01*
X190260981Y-71055802D01*
X190260977Y-71055804D01*
X190227902Y-71077904D01*
X190205802Y-71110980D01*
X190200000Y-71140154D01*
X188279234Y-71140154D01*
X188263711Y-71082223D01*
X188263709Y-71082217D01*
X188262986Y-71080470D01*
X188178405Y-70876274D01*
X188066948Y-70683226D01*
X188066945Y-70683222D01*
X188066939Y-70683213D01*
X187931251Y-70506381D01*
X187931241Y-70506369D01*
X187773630Y-70348758D01*
X187773618Y-70348748D01*
X187596786Y-70213060D01*
X187596771Y-70213050D01*
X187403726Y-70101595D01*
X187403727Y-70101595D01*
X187197782Y-70016290D01*
X187197776Y-70016288D01*
X186982474Y-69958598D01*
X186982467Y-69958597D01*
X186982463Y-69958596D01*
X186761457Y-69929500D01*
X186538543Y-69929500D01*
X186317537Y-69958596D01*
X186317533Y-69958596D01*
X186317525Y-69958598D01*
X186102223Y-70016288D01*
X186102217Y-70016290D01*
X185896272Y-70101595D01*
X185703228Y-70213050D01*
X185703213Y-70213060D01*
X185526381Y-70348748D01*
X185526369Y-70348758D01*
X185368758Y-70506369D01*
X185368748Y-70506381D01*
X185233060Y-70683213D01*
X185233050Y-70683228D01*
X185121595Y-70876272D01*
X185036290Y-71082217D01*
X185036288Y-71082223D01*
X184978598Y-71297525D01*
X184978596Y-71297533D01*
X184978596Y-71297537D01*
X184950315Y-71512351D01*
X184950315Y-71512352D01*
X184950314Y-71512351D01*
X184949500Y-71518536D01*
X184250500Y-71518536D01*
X184250500Y-71240688D01*
X184219800Y-71126118D01*
X184219799Y-71126114D01*
X184165590Y-71032219D01*
X184160492Y-71023389D01*
X184160487Y-71023383D01*
X182776615Y-69639512D01*
X182776614Y-69639511D01*
X182673890Y-69580202D01*
X182673887Y-69580201D01*
X182640458Y-69571244D01*
X182613408Y-69563996D01*
X182559311Y-69549500D01*
X182559309Y-69549500D01*
X182349500Y-69549500D01*
X182314852Y-69535148D01*
X182300500Y-69500500D01*
X182300500Y-69430255D01*
X182300500Y-69430252D01*
X190099500Y-69430252D01*
X190099500Y-70469748D01*
X190111133Y-70528231D01*
X190119456Y-70540687D01*
X190155447Y-70594552D01*
X190177689Y-70609413D01*
X190221769Y-70638867D01*
X190280252Y-70650500D01*
X191259522Y-70650500D01*
X191294170Y-70664852D01*
X191595670Y-70966352D01*
X191610022Y-71001000D01*
X191595670Y-71035648D01*
X191584884Y-71040115D01*
X191575000Y-71050000D01*
X191575000Y-71150000D01*
X191871844Y-71150000D01*
X191878236Y-71150419D01*
X191878852Y-71150500D01*
X191878856Y-71150500D01*
X195521148Y-71150500D01*
X195521764Y-71150419D01*
X195528156Y-71150000D01*
X195825000Y-71150000D01*
X196825000Y-71150000D01*
X197199999Y-71150000D01*
X197199999Y-71140155D01*
X197199998Y-71140154D01*
X197194197Y-71110981D01*
X197194195Y-71110977D01*
X197172095Y-71077902D01*
X197139019Y-71055802D01*
X197109846Y-71050000D01*
X196825000Y-71050000D01*
X196825000Y-71150000D01*
X195825000Y-71150000D01*
X195825000Y-71052898D01*
X195807917Y-71038898D01*
X195806703Y-71036631D01*
X195804329Y-71035648D01*
X195798010Y-71020393D01*
X195790216Y-71005835D01*
X195790960Y-71003374D01*
X195789977Y-71001000D01*
X195796295Y-70985745D01*
X195801079Y-70969940D01*
X195803345Y-70968726D01*
X195804328Y-70966353D01*
X196105830Y-70664852D01*
X196140478Y-70650500D01*
X197119745Y-70650500D01*
X197119748Y-70650500D01*
X197178231Y-70638867D01*
X197244552Y-70594552D01*
X197288867Y-70528231D01*
X197300500Y-70469748D01*
X197300500Y-70449500D01*
X197314852Y-70414852D01*
X197349500Y-70400500D01*
X200643101Y-70400500D01*
X200677749Y-70414852D01*
X204623386Y-74360489D01*
X204726113Y-74419799D01*
X204750326Y-74426286D01*
X204795508Y-74438393D01*
X204840689Y-74450500D01*
X204840691Y-74450500D01*
X210693101Y-74450500D01*
X210727749Y-74464852D01*
X212725148Y-76462251D01*
X212739500Y-76496899D01*
X212739500Y-78649748D01*
X212751133Y-78708231D01*
X212768882Y-78734795D01*
X212795447Y-78774552D01*
X212822012Y-78792301D01*
X212861769Y-78818867D01*
X212920252Y-78830500D01*
X212920255Y-78830500D01*
X214359745Y-78830500D01*
X214359748Y-78830500D01*
X214418231Y-78818867D01*
X214484552Y-78774552D01*
X214528867Y-78708231D01*
X214540500Y-78649748D01*
X214540500Y-76210252D01*
X214528867Y-76151769D01*
X214502301Y-76112012D01*
X214484552Y-76085447D01*
X214444795Y-76058882D01*
X214418231Y-76041133D01*
X214359748Y-76029500D01*
X214359745Y-76029500D01*
X213586899Y-76029500D01*
X213552251Y-76015148D01*
X211176614Y-73639511D01*
X211073888Y-73580201D01*
X211073886Y-73580200D01*
X211049673Y-73573713D01*
X211019551Y-73565642D01*
X210959311Y-73549500D01*
X210959309Y-73549500D01*
X205106899Y-73549500D01*
X205072251Y-73535148D01*
X203696948Y-72159845D01*
X206750001Y-72159845D01*
X206755802Y-72189018D01*
X206755804Y-72189022D01*
X206777904Y-72222097D01*
X206810980Y-72244197D01*
X206840154Y-72249999D01*
X207124999Y-72249999D01*
X208125000Y-72249999D01*
X208409845Y-72249999D01*
X208409845Y-72249998D01*
X208439018Y-72244197D01*
X208439022Y-72244195D01*
X208472097Y-72222095D01*
X208494197Y-72189019D01*
X208500000Y-72159845D01*
X208500000Y-72150000D01*
X208125000Y-72150000D01*
X208125000Y-72249999D01*
X207124999Y-72249999D01*
X207125000Y-72249998D01*
X207125000Y-72150000D01*
X206750001Y-72150000D01*
X206750001Y-72159845D01*
X203696948Y-72159845D01*
X203643104Y-72106001D01*
X209549500Y-72106001D01*
X209549500Y-72243998D01*
X209576417Y-72379318D01*
X209576420Y-72379329D01*
X209578242Y-72383727D01*
X209629225Y-72506811D01*
X209642562Y-72526771D01*
X209705883Y-72621539D01*
X209803460Y-72719116D01*
X209849102Y-72749613D01*
X209918189Y-72795775D01*
X210045672Y-72848580D01*
X210045678Y-72848581D01*
X210045681Y-72848582D01*
X210181001Y-72875499D01*
X210181007Y-72875500D01*
X210318993Y-72875500D01*
X210454328Y-72848580D01*
X210581811Y-72795775D01*
X210696542Y-72719114D01*
X210794114Y-72621542D01*
X210870775Y-72506811D01*
X210923580Y-72379328D01*
X210950500Y-72243993D01*
X210950500Y-72159845D01*
X212000001Y-72159845D01*
X212005802Y-72189018D01*
X212005804Y-72189022D01*
X212027904Y-72222097D01*
X212060980Y-72244197D01*
X212090154Y-72249999D01*
X212374999Y-72249999D01*
X213375000Y-72249999D01*
X213659845Y-72249999D01*
X213659845Y-72249998D01*
X213689018Y-72244197D01*
X213689022Y-72244195D01*
X213722097Y-72222095D01*
X213744197Y-72189019D01*
X213750000Y-72159845D01*
X213750000Y-72150000D01*
X213375000Y-72150000D01*
X213375000Y-72249999D01*
X212374999Y-72249999D01*
X212375000Y-72249998D01*
X212375000Y-72150000D01*
X212000001Y-72150000D01*
X212000001Y-72159845D01*
X210950500Y-72159845D01*
X210950500Y-72106007D01*
X210923580Y-71970672D01*
X210870775Y-71843189D01*
X210802797Y-71741453D01*
X210794116Y-71728460D01*
X210696539Y-71630883D01*
X210628074Y-71585137D01*
X210581811Y-71554225D01*
X210581808Y-71554223D01*
X210581807Y-71554223D01*
X210454329Y-71501420D01*
X210454318Y-71501417D01*
X210318998Y-71474500D01*
X210318993Y-71474500D01*
X210181007Y-71474500D01*
X210181001Y-71474500D01*
X210045681Y-71501417D01*
X210045670Y-71501420D01*
X209918192Y-71554223D01*
X209803460Y-71630883D01*
X209705883Y-71728460D01*
X209629223Y-71843192D01*
X209576420Y-71970670D01*
X209576417Y-71970681D01*
X209549500Y-72106001D01*
X203643104Y-72106001D01*
X202677257Y-71140154D01*
X206750000Y-71140154D01*
X206750000Y-71150000D01*
X207125000Y-71150000D01*
X207125000Y-71050000D01*
X206840155Y-71050000D01*
X206840154Y-71050001D01*
X206810981Y-71055802D01*
X206810977Y-71055804D01*
X206777902Y-71077904D01*
X206755802Y-71110980D01*
X206750000Y-71140154D01*
X202677257Y-71140154D01*
X201126614Y-69589511D01*
X201023888Y-69530201D01*
X201023886Y-69530200D01*
X200999673Y-69523713D01*
X200950500Y-69510537D01*
X200909311Y-69499500D01*
X200909309Y-69499500D01*
X197349500Y-69499500D01*
X197314852Y-69485148D01*
X197300500Y-69450500D01*
X197300500Y-69430255D01*
X197300500Y-69430252D01*
X206649500Y-69430252D01*
X206649500Y-70469748D01*
X206661133Y-70528231D01*
X206669456Y-70540687D01*
X206705447Y-70594552D01*
X206727689Y-70609413D01*
X206771769Y-70638867D01*
X206830252Y-70650500D01*
X207809522Y-70650500D01*
X207844170Y-70664852D01*
X208145670Y-70966352D01*
X208160022Y-71001000D01*
X208145670Y-71035648D01*
X208134884Y-71040115D01*
X208125000Y-71050000D01*
X208125000Y-71150000D01*
X208421844Y-71150000D01*
X208428236Y-71150419D01*
X208428852Y-71150500D01*
X208428856Y-71150500D01*
X212071148Y-71150500D01*
X212071764Y-71150419D01*
X212078156Y-71150000D01*
X212375000Y-71150000D01*
X213375000Y-71150000D01*
X213749999Y-71150000D01*
X213749999Y-71140155D01*
X213749998Y-71140154D01*
X213744197Y-71110981D01*
X213744195Y-71110977D01*
X213722095Y-71077902D01*
X213689019Y-71055802D01*
X213659846Y-71050000D01*
X213375000Y-71050000D01*
X213375000Y-71150000D01*
X212375000Y-71150000D01*
X212375000Y-71052898D01*
X212357917Y-71038898D01*
X212356703Y-71036631D01*
X212354329Y-71035648D01*
X212348010Y-71020393D01*
X212340216Y-71005835D01*
X212340960Y-71003374D01*
X212339977Y-71001000D01*
X212346295Y-70985745D01*
X212351079Y-70969940D01*
X212353345Y-70968726D01*
X212354328Y-70966353D01*
X212655830Y-70664852D01*
X212690478Y-70650500D01*
X213669745Y-70650500D01*
X213669748Y-70650500D01*
X213728231Y-70638867D01*
X213738873Y-70631755D01*
X213775652Y-70624437D01*
X213800745Y-70637848D01*
X214335148Y-71172251D01*
X214349500Y-71206899D01*
X214349500Y-73859311D01*
X214371306Y-73940691D01*
X214380199Y-73973884D01*
X214380201Y-73973889D01*
X214439511Y-74076614D01*
X215715148Y-75352251D01*
X215729500Y-75386899D01*
X215729500Y-75980500D01*
X215715148Y-76015148D01*
X215680500Y-76029500D01*
X215460252Y-76029500D01*
X215413840Y-76038732D01*
X215401769Y-76041133D01*
X215335447Y-76085447D01*
X215291133Y-76151769D01*
X215279500Y-76210252D01*
X215279500Y-78649748D01*
X215291133Y-78708231D01*
X215308882Y-78734795D01*
X215335447Y-78774552D01*
X215362012Y-78792301D01*
X215401769Y-78818867D01*
X215460252Y-78830500D01*
X215460255Y-78830500D01*
X216899745Y-78830500D01*
X216899748Y-78830500D01*
X216958231Y-78818867D01*
X217024552Y-78774552D01*
X217068867Y-78708231D01*
X217080500Y-78649748D01*
X217080500Y-76210252D01*
X217819500Y-76210252D01*
X217819500Y-78649748D01*
X217831133Y-78708231D01*
X217848882Y-78734795D01*
X217875447Y-78774552D01*
X217902012Y-78792301D01*
X217941769Y-78818867D01*
X218000252Y-78830500D01*
X218000255Y-78830500D01*
X219439745Y-78830500D01*
X219439748Y-78830500D01*
X219498231Y-78818867D01*
X219564552Y-78774552D01*
X219608867Y-78708231D01*
X219620500Y-78649748D01*
X219620500Y-76210252D01*
X219608867Y-76151769D01*
X219582301Y-76112012D01*
X219564552Y-76085447D01*
X219524795Y-76058882D01*
X219498231Y-76041133D01*
X219439748Y-76029500D01*
X218000252Y-76029500D01*
X217953840Y-76038732D01*
X217941769Y-76041133D01*
X217875447Y-76085447D01*
X217831133Y-76151769D01*
X217819500Y-76210252D01*
X217080500Y-76210252D01*
X217068867Y-76151769D01*
X217042301Y-76112012D01*
X217024552Y-76085447D01*
X216984795Y-76058882D01*
X216958231Y-76041133D01*
X216899748Y-76029500D01*
X216899745Y-76029500D01*
X216679500Y-76029500D01*
X216644852Y-76015148D01*
X216630500Y-75980500D01*
X216630500Y-75120688D01*
X216601469Y-75012346D01*
X216601468Y-75012342D01*
X216601468Y-75012343D01*
X216599799Y-75006114D01*
X216599799Y-75006113D01*
X216599798Y-75006111D01*
X216540494Y-74903392D01*
X216540491Y-74903389D01*
X216540490Y-74903386D01*
X215264852Y-73627748D01*
X215250500Y-73593100D01*
X215250500Y-71468536D01*
X215609500Y-71468536D01*
X215609500Y-71468543D01*
X215609500Y-71691457D01*
X215638596Y-71912463D01*
X215638597Y-71912467D01*
X215638598Y-71912474D01*
X215696288Y-72127776D01*
X215696290Y-72127782D01*
X215781595Y-72333727D01*
X215893050Y-72526771D01*
X215893060Y-72526786D01*
X216028748Y-72703618D01*
X216028758Y-72703630D01*
X216186369Y-72861241D01*
X216186381Y-72861251D01*
X216363213Y-72996939D01*
X216363222Y-72996945D01*
X216363226Y-72996948D01*
X216556274Y-73108405D01*
X216762219Y-73193710D01*
X216762223Y-73193711D01*
X216977525Y-73251401D01*
X216977526Y-73251401D01*
X216977537Y-73251404D01*
X217198543Y-73280500D01*
X217198547Y-73280500D01*
X217421453Y-73280500D01*
X217421457Y-73280500D01*
X217642463Y-73251404D01*
X217857781Y-73193710D01*
X218063726Y-73108405D01*
X218256774Y-72996948D01*
X218433624Y-72861247D01*
X218591247Y-72703624D01*
X218726948Y-72526774D01*
X218838405Y-72333726D01*
X218923710Y-72127781D01*
X218981404Y-71912463D01*
X219010500Y-71691457D01*
X219010500Y-71468543D01*
X218981404Y-71247537D01*
X218976691Y-71229949D01*
X218923711Y-71032223D01*
X218923709Y-71032217D01*
X218920053Y-71023389D01*
X218838405Y-70826274D01*
X218834183Y-70818962D01*
X218730204Y-70638866D01*
X218726948Y-70633226D01*
X218676368Y-70567308D01*
X218676367Y-70567305D01*
X218655942Y-70540687D01*
X219749500Y-70540687D01*
X219749500Y-70540691D01*
X219749500Y-75059309D01*
X219765946Y-75120688D01*
X219773713Y-75149672D01*
X219773713Y-75149673D01*
X219780200Y-75173886D01*
X219780201Y-75173888D01*
X219839511Y-75276614D01*
X220518923Y-75956026D01*
X220533275Y-75990674D01*
X220518923Y-76025322D01*
X220493836Y-76038732D01*
X220481770Y-76041132D01*
X220415447Y-76085447D01*
X220371133Y-76151769D01*
X220359500Y-76210252D01*
X220359500Y-78649748D01*
X220371133Y-78708231D01*
X220388882Y-78734795D01*
X220415447Y-78774552D01*
X220442012Y-78792301D01*
X220481769Y-78818867D01*
X220540252Y-78830500D01*
X220540255Y-78830500D01*
X221979745Y-78830500D01*
X221979748Y-78830500D01*
X222038231Y-78818867D01*
X222104552Y-78774552D01*
X222148867Y-78708231D01*
X222160500Y-78649748D01*
X222160500Y-76210252D01*
X222899500Y-76210252D01*
X222899500Y-78649748D01*
X222911133Y-78708231D01*
X222928882Y-78734795D01*
X222955447Y-78774552D01*
X222982012Y-78792301D01*
X223021769Y-78818867D01*
X223080252Y-78830500D01*
X223080255Y-78830500D01*
X224519745Y-78830500D01*
X224519748Y-78830500D01*
X224578231Y-78818867D01*
X224644552Y-78774552D01*
X224688867Y-78708231D01*
X224700500Y-78649748D01*
X224700500Y-76210252D01*
X225439500Y-76210252D01*
X225439500Y-78649748D01*
X225451133Y-78708231D01*
X225468882Y-78734795D01*
X225495447Y-78774552D01*
X225522012Y-78792301D01*
X225561769Y-78818867D01*
X225620252Y-78830500D01*
X225620255Y-78830500D01*
X227059745Y-78830500D01*
X227059748Y-78830500D01*
X227118231Y-78818867D01*
X227184552Y-78774552D01*
X227228867Y-78708231D01*
X227240500Y-78649748D01*
X227240500Y-76210252D01*
X227979500Y-76210252D01*
X227979500Y-78649748D01*
X227991133Y-78708231D01*
X228008882Y-78734795D01*
X228035447Y-78774552D01*
X228062012Y-78792301D01*
X228101769Y-78818867D01*
X228160252Y-78830500D01*
X228160255Y-78830500D01*
X229599745Y-78830500D01*
X229599748Y-78830500D01*
X229658231Y-78818867D01*
X229724552Y-78774552D01*
X229768867Y-78708231D01*
X229780500Y-78649748D01*
X229780500Y-76210252D01*
X229768867Y-76151769D01*
X229742301Y-76112012D01*
X229724552Y-76085447D01*
X229684795Y-76058882D01*
X229658231Y-76041133D01*
X229599748Y-76029500D01*
X228160252Y-76029500D01*
X228113840Y-76038732D01*
X228101769Y-76041133D01*
X228035447Y-76085447D01*
X227991133Y-76151769D01*
X227979500Y-76210252D01*
X227240500Y-76210252D01*
X227228867Y-76151769D01*
X227202301Y-76112012D01*
X227184552Y-76085447D01*
X227144795Y-76058882D01*
X227118231Y-76041133D01*
X227059748Y-76029500D01*
X225620252Y-76029500D01*
X225573840Y-76038732D01*
X225561769Y-76041133D01*
X225495447Y-76085447D01*
X225451133Y-76151769D01*
X225439500Y-76210252D01*
X224700500Y-76210252D01*
X224688867Y-76151769D01*
X224662301Y-76112012D01*
X224644552Y-76085447D01*
X224604795Y-76058882D01*
X224578231Y-76041133D01*
X224519748Y-76029500D01*
X223080252Y-76029500D01*
X223033840Y-76038732D01*
X223021769Y-76041133D01*
X222955447Y-76085447D01*
X222911133Y-76151769D01*
X222899500Y-76210252D01*
X222160500Y-76210252D01*
X222148867Y-76151769D01*
X222122301Y-76112012D01*
X222104552Y-76085447D01*
X222064795Y-76058882D01*
X222038231Y-76041133D01*
X221979748Y-76029500D01*
X221979745Y-76029500D01*
X221755818Y-76029500D01*
X221721170Y-76015148D01*
X221708488Y-75993182D01*
X221679798Y-75886114D01*
X221679797Y-75886110D01*
X221620493Y-75783392D01*
X221620490Y-75783389D01*
X221620489Y-75783386D01*
X220664852Y-74827749D01*
X220650500Y-74793101D01*
X220650500Y-72159845D01*
X221800001Y-72159845D01*
X221805802Y-72189018D01*
X221805804Y-72189022D01*
X221827904Y-72222097D01*
X221860980Y-72244197D01*
X221890154Y-72249999D01*
X222174999Y-72249999D01*
X223175000Y-72249999D01*
X223459845Y-72249999D01*
X223459845Y-72249998D01*
X223489018Y-72244197D01*
X223489022Y-72244195D01*
X223522097Y-72222095D01*
X223544197Y-72189019D01*
X223550000Y-72159845D01*
X223550000Y-72150000D01*
X223175000Y-72150000D01*
X223175000Y-72249999D01*
X222174999Y-72249999D01*
X222175000Y-72249998D01*
X222175000Y-72150000D01*
X221800001Y-72150000D01*
X221800001Y-72159845D01*
X220650500Y-72159845D01*
X220650500Y-72106001D01*
X224599500Y-72106001D01*
X224599500Y-72243998D01*
X224626417Y-72379318D01*
X224626420Y-72379329D01*
X224628242Y-72383727D01*
X224679225Y-72506811D01*
X224692562Y-72526771D01*
X224755883Y-72621539D01*
X224853460Y-72719116D01*
X224899102Y-72749613D01*
X224968189Y-72795775D01*
X225095672Y-72848580D01*
X225095678Y-72848581D01*
X225095681Y-72848582D01*
X225231001Y-72875499D01*
X225231007Y-72875500D01*
X225368993Y-72875500D01*
X225504328Y-72848580D01*
X225631811Y-72795775D01*
X225746542Y-72719114D01*
X225844114Y-72621542D01*
X225920775Y-72506811D01*
X225973580Y-72379328D01*
X226000500Y-72243993D01*
X226000500Y-72159845D01*
X227050001Y-72159845D01*
X227055802Y-72189018D01*
X227055804Y-72189022D01*
X227077904Y-72222097D01*
X227110980Y-72244197D01*
X227140154Y-72249999D01*
X227424999Y-72249999D01*
X228425000Y-72249999D01*
X228709845Y-72249999D01*
X228709845Y-72249998D01*
X228739018Y-72244197D01*
X228739022Y-72244195D01*
X228772097Y-72222095D01*
X228794197Y-72189019D01*
X228800000Y-72159845D01*
X228800000Y-72150000D01*
X228425000Y-72150000D01*
X228425000Y-72249999D01*
X227424999Y-72249999D01*
X227425000Y-72249998D01*
X227425000Y-72150000D01*
X227050001Y-72150000D01*
X227050001Y-72159845D01*
X226000500Y-72159845D01*
X226000500Y-72106007D01*
X225973580Y-71970672D01*
X225920775Y-71843189D01*
X225852797Y-71741453D01*
X225844116Y-71728460D01*
X225746539Y-71630883D01*
X225678074Y-71585137D01*
X225631811Y-71554225D01*
X225631808Y-71554223D01*
X225631807Y-71554223D01*
X225504329Y-71501420D01*
X225504318Y-71501417D01*
X225368998Y-71474500D01*
X225368993Y-71474500D01*
X225231007Y-71474500D01*
X225231001Y-71474500D01*
X225095681Y-71501417D01*
X225095670Y-71501420D01*
X224968192Y-71554223D01*
X224853460Y-71630883D01*
X224755883Y-71728460D01*
X224679223Y-71843192D01*
X224626420Y-71970670D01*
X224626417Y-71970681D01*
X224599500Y-72106001D01*
X220650500Y-72106001D01*
X220650500Y-71140154D01*
X221800000Y-71140154D01*
X221800000Y-71150000D01*
X222175000Y-71150000D01*
X223175000Y-71150000D01*
X223549999Y-71150000D01*
X223549999Y-71140155D01*
X223549998Y-71140154D01*
X227050000Y-71140154D01*
X227050000Y-71150000D01*
X227425000Y-71150000D01*
X228425000Y-71150000D01*
X228799999Y-71150000D01*
X228799999Y-71140155D01*
X228799998Y-71140154D01*
X228794197Y-71110981D01*
X228794195Y-71110977D01*
X228772095Y-71077902D01*
X228739019Y-71055802D01*
X228709846Y-71050000D01*
X228425000Y-71050000D01*
X228425000Y-71150000D01*
X227425000Y-71150000D01*
X227425000Y-71050000D01*
X227140155Y-71050000D01*
X227140154Y-71050001D01*
X227110981Y-71055802D01*
X227110977Y-71055804D01*
X227077902Y-71077904D01*
X227055802Y-71110980D01*
X227050000Y-71140154D01*
X223549998Y-71140154D01*
X223549998Y-71140153D01*
X223544197Y-71110981D01*
X223544195Y-71110977D01*
X223522095Y-71077902D01*
X223489019Y-71055802D01*
X223459846Y-71050000D01*
X223175000Y-71050000D01*
X223175000Y-71150000D01*
X222175000Y-71150000D01*
X222175000Y-71050000D01*
X221890155Y-71050000D01*
X221890154Y-71050001D01*
X221860981Y-71055802D01*
X221860977Y-71055804D01*
X221827902Y-71077904D01*
X221805802Y-71110980D01*
X221800000Y-71140154D01*
X220650500Y-71140154D01*
X220650500Y-70806899D01*
X220664852Y-70772251D01*
X221022252Y-70414852D01*
X221056900Y-70400500D01*
X221650500Y-70400500D01*
X221685148Y-70414852D01*
X221699500Y-70449500D01*
X221699500Y-70469748D01*
X221711133Y-70528231D01*
X221719456Y-70540687D01*
X221755447Y-70594552D01*
X221777689Y-70609413D01*
X221821769Y-70638867D01*
X221880252Y-70650500D01*
X222859522Y-70650500D01*
X222894170Y-70664852D01*
X223109788Y-70880470D01*
X223139040Y-70897359D01*
X223189709Y-70926613D01*
X223189711Y-70926613D01*
X223189712Y-70926614D01*
X223211998Y-70932585D01*
X223278853Y-70950500D01*
X223278856Y-70950500D01*
X227321146Y-70950500D01*
X227365716Y-70938557D01*
X227410288Y-70926614D01*
X227490212Y-70880470D01*
X227705830Y-70664852D01*
X227740478Y-70650500D01*
X228719745Y-70650500D01*
X228719748Y-70650500D01*
X228778231Y-70638867D01*
X228844552Y-70594552D01*
X228888867Y-70528231D01*
X228900500Y-70469748D01*
X228900500Y-69430252D01*
X228888867Y-69371769D01*
X228858232Y-69325921D01*
X228844552Y-69305447D01*
X228804795Y-69278882D01*
X228778231Y-69261133D01*
X228719748Y-69249500D01*
X227130252Y-69249500D01*
X227071769Y-69261133D01*
X227005447Y-69305447D01*
X226971669Y-69356001D01*
X226961133Y-69371769D01*
X226949500Y-69430252D01*
X226949500Y-69430255D01*
X226949500Y-70200500D01*
X226935148Y-70235148D01*
X226900500Y-70249500D01*
X223699500Y-70249500D01*
X223664852Y-70235148D01*
X223650500Y-70200500D01*
X223650500Y-69430255D01*
X223650500Y-69430252D01*
X223638867Y-69371769D01*
X223628331Y-69356001D01*
X224599500Y-69356001D01*
X224599500Y-69493998D01*
X224626417Y-69629318D01*
X224626420Y-69629329D01*
X224679223Y-69756807D01*
X224679225Y-69756811D01*
X224710137Y-69803074D01*
X224755883Y-69871539D01*
X224853460Y-69969116D01*
X224899102Y-69999613D01*
X224968189Y-70045775D01*
X225095672Y-70098580D01*
X225095678Y-70098581D01*
X225095681Y-70098582D01*
X225231001Y-70125499D01*
X225231007Y-70125500D01*
X225368993Y-70125500D01*
X225504328Y-70098580D01*
X225631811Y-70045775D01*
X225746542Y-69969114D01*
X225844114Y-69871542D01*
X225920775Y-69756811D01*
X225973580Y-69629328D01*
X226000500Y-69493993D01*
X226000500Y-69356007D01*
X225995312Y-69329926D01*
X225973582Y-69220681D01*
X225973579Y-69220670D01*
X225920776Y-69093192D01*
X225920775Y-69093189D01*
X225874613Y-69024102D01*
X225844116Y-68978460D01*
X225746539Y-68880883D01*
X225678074Y-68835137D01*
X225631811Y-68804225D01*
X225631808Y-68804223D01*
X225631807Y-68804223D01*
X225504329Y-68751420D01*
X225504318Y-68751417D01*
X225368998Y-68724500D01*
X225368993Y-68724500D01*
X225231007Y-68724500D01*
X225231001Y-68724500D01*
X225095681Y-68751417D01*
X225095670Y-68751420D01*
X224968192Y-68804223D01*
X224853460Y-68880883D01*
X224755883Y-68978460D01*
X224679223Y-69093192D01*
X224626420Y-69220670D01*
X224626417Y-69220681D01*
X224599500Y-69356001D01*
X223628331Y-69356001D01*
X223608232Y-69325921D01*
X223594552Y-69305447D01*
X223554795Y-69278882D01*
X223528231Y-69261133D01*
X223469748Y-69249500D01*
X221880252Y-69249500D01*
X221821769Y-69261133D01*
X221755447Y-69305447D01*
X221721669Y-69356001D01*
X221711133Y-69371769D01*
X221699500Y-69430252D01*
X221699500Y-69430255D01*
X221699500Y-69450500D01*
X221685148Y-69485148D01*
X221650500Y-69499500D01*
X220790688Y-69499500D01*
X220700326Y-69523713D01*
X220676113Y-69530200D01*
X220676110Y-69530201D01*
X220573385Y-69589510D01*
X219839512Y-70323384D01*
X219839511Y-70323385D01*
X219780201Y-70426111D01*
X219780200Y-70426113D01*
X219773934Y-70449501D01*
X219749500Y-70540687D01*
X218655942Y-70540687D01*
X218591251Y-70456381D01*
X218591241Y-70456369D01*
X218433630Y-70298758D01*
X218433618Y-70298748D01*
X218256786Y-70163060D01*
X218256771Y-70163050D01*
X218063726Y-70051595D01*
X218063727Y-70051595D01*
X217857782Y-69966290D01*
X217857776Y-69966288D01*
X217642474Y-69908598D01*
X217642467Y-69908597D01*
X217642463Y-69908596D01*
X217421457Y-69879500D01*
X217198543Y-69879500D01*
X216977537Y-69908596D01*
X216977533Y-69908596D01*
X216977525Y-69908598D01*
X216762223Y-69966288D01*
X216762217Y-69966290D01*
X216556272Y-70051595D01*
X216363228Y-70163050D01*
X216363213Y-70163060D01*
X216186381Y-70298748D01*
X216186369Y-70298758D01*
X216028758Y-70456369D01*
X216028748Y-70456381D01*
X215893060Y-70633213D01*
X215893050Y-70633228D01*
X215781595Y-70826272D01*
X215696290Y-71032217D01*
X215696288Y-71032223D01*
X215638598Y-71247525D01*
X215638596Y-71247533D01*
X215638596Y-71247537D01*
X215610315Y-71462351D01*
X215610315Y-71462352D01*
X215610314Y-71462351D01*
X215609500Y-71468536D01*
X215250500Y-71468536D01*
X215250500Y-70940688D01*
X215221469Y-70832346D01*
X215221468Y-70832342D01*
X215221468Y-70832343D01*
X215219799Y-70826114D01*
X215219799Y-70826113D01*
X215160489Y-70723386D01*
X214026614Y-69589511D01*
X214026612Y-69589510D01*
X213923888Y-69530201D01*
X213923886Y-69530200D01*
X213899673Y-69523713D01*
X213886815Y-69520267D01*
X213857064Y-69497436D01*
X213850500Y-69472938D01*
X213850500Y-69430255D01*
X213850500Y-69430252D01*
X213838867Y-69371769D01*
X213808232Y-69325921D01*
X213794552Y-69305447D01*
X213754795Y-69278882D01*
X213728231Y-69261133D01*
X213669748Y-69249500D01*
X212080252Y-69249500D01*
X212021769Y-69261133D01*
X211955447Y-69305447D01*
X211921669Y-69356001D01*
X211911133Y-69371769D01*
X211899500Y-69430252D01*
X211899500Y-69430255D01*
X211899500Y-70400500D01*
X211885148Y-70435148D01*
X211850500Y-70449500D01*
X208649500Y-70449500D01*
X208614852Y-70435148D01*
X208600500Y-70400500D01*
X208600500Y-69430255D01*
X208600500Y-69430252D01*
X208588867Y-69371769D01*
X208578331Y-69356001D01*
X209549500Y-69356001D01*
X209549500Y-69493998D01*
X209576417Y-69629318D01*
X209576420Y-69629329D01*
X209629223Y-69756807D01*
X209629225Y-69756811D01*
X209660137Y-69803074D01*
X209705883Y-69871539D01*
X209803460Y-69969116D01*
X209849102Y-69999613D01*
X209918189Y-70045775D01*
X210045672Y-70098580D01*
X210045678Y-70098581D01*
X210045681Y-70098582D01*
X210181001Y-70125499D01*
X210181007Y-70125500D01*
X210318993Y-70125500D01*
X210454328Y-70098580D01*
X210581811Y-70045775D01*
X210696542Y-69969114D01*
X210794114Y-69871542D01*
X210870775Y-69756811D01*
X210923580Y-69629328D01*
X210950500Y-69493993D01*
X210950500Y-69356007D01*
X210945312Y-69329926D01*
X210923582Y-69220681D01*
X210923579Y-69220670D01*
X210870776Y-69093192D01*
X210870775Y-69093189D01*
X210824613Y-69024102D01*
X210794116Y-68978460D01*
X210696539Y-68880883D01*
X210628074Y-68835137D01*
X210581811Y-68804225D01*
X210581808Y-68804223D01*
X210581807Y-68804223D01*
X210454329Y-68751420D01*
X210454318Y-68751417D01*
X210318998Y-68724500D01*
X210318993Y-68724500D01*
X210181007Y-68724500D01*
X210181001Y-68724500D01*
X210045681Y-68751417D01*
X210045670Y-68751420D01*
X209918192Y-68804223D01*
X209803460Y-68880883D01*
X209705883Y-68978460D01*
X209629223Y-69093192D01*
X209576420Y-69220670D01*
X209576417Y-69220681D01*
X209549500Y-69356001D01*
X208578331Y-69356001D01*
X208558232Y-69325921D01*
X208544552Y-69305447D01*
X208504795Y-69278882D01*
X208478231Y-69261133D01*
X208419748Y-69249500D01*
X206830252Y-69249500D01*
X206771769Y-69261133D01*
X206705447Y-69305447D01*
X206671669Y-69356001D01*
X206661133Y-69371769D01*
X206649500Y-69430252D01*
X197300500Y-69430252D01*
X197288867Y-69371769D01*
X197258232Y-69325921D01*
X197244552Y-69305447D01*
X197204795Y-69278882D01*
X197178231Y-69261133D01*
X197119748Y-69249500D01*
X195530252Y-69249500D01*
X195471769Y-69261133D01*
X195405447Y-69305447D01*
X195371669Y-69356001D01*
X195361133Y-69371769D01*
X195349500Y-69430252D01*
X195349500Y-69430255D01*
X195349500Y-70400500D01*
X195335148Y-70435148D01*
X195300500Y-70449500D01*
X192099500Y-70449500D01*
X192064852Y-70435148D01*
X192050500Y-70400500D01*
X192050500Y-69430255D01*
X192050500Y-69430252D01*
X192038867Y-69371769D01*
X192028331Y-69356001D01*
X192999500Y-69356001D01*
X192999500Y-69493998D01*
X193026417Y-69629318D01*
X193026420Y-69629329D01*
X193079223Y-69756807D01*
X193079225Y-69756811D01*
X193110137Y-69803074D01*
X193155883Y-69871539D01*
X193253460Y-69969116D01*
X193299102Y-69999613D01*
X193368189Y-70045775D01*
X193495672Y-70098580D01*
X193495678Y-70098581D01*
X193495681Y-70098582D01*
X193631001Y-70125499D01*
X193631007Y-70125500D01*
X193768993Y-70125500D01*
X193904328Y-70098580D01*
X194031811Y-70045775D01*
X194146542Y-69969114D01*
X194244114Y-69871542D01*
X194320775Y-69756811D01*
X194373580Y-69629328D01*
X194400500Y-69493993D01*
X194400500Y-69356007D01*
X194395312Y-69329926D01*
X194373582Y-69220681D01*
X194373579Y-69220670D01*
X194320776Y-69093192D01*
X194320775Y-69093189D01*
X194274613Y-69024102D01*
X194244116Y-68978460D01*
X194146539Y-68880883D01*
X194078074Y-68835137D01*
X194031811Y-68804225D01*
X194031808Y-68804223D01*
X194031807Y-68804223D01*
X193904329Y-68751420D01*
X193904318Y-68751417D01*
X193768998Y-68724500D01*
X193768993Y-68724500D01*
X193631007Y-68724500D01*
X193631001Y-68724500D01*
X193495681Y-68751417D01*
X193495670Y-68751420D01*
X193368192Y-68804223D01*
X193253460Y-68880883D01*
X193155883Y-68978460D01*
X193079223Y-69093192D01*
X193026420Y-69220670D01*
X193026417Y-69220681D01*
X192999500Y-69356001D01*
X192028331Y-69356001D01*
X192008232Y-69325921D01*
X191994552Y-69305447D01*
X191954795Y-69278882D01*
X191928231Y-69261133D01*
X191869748Y-69249500D01*
X190280252Y-69249500D01*
X190221769Y-69261133D01*
X190155447Y-69305447D01*
X190121669Y-69356001D01*
X190111133Y-69371769D01*
X190099500Y-69430252D01*
X182300500Y-69430252D01*
X182288867Y-69371769D01*
X182258232Y-69325921D01*
X182244552Y-69305447D01*
X182204795Y-69278882D01*
X182178231Y-69261133D01*
X182119748Y-69249500D01*
X180530252Y-69249500D01*
X180471769Y-69261133D01*
X180405447Y-69305447D01*
X180371669Y-69356001D01*
X180361133Y-69371769D01*
X180349500Y-69430252D01*
X180349500Y-69430255D01*
X180349500Y-70300500D01*
X180335148Y-70335148D01*
X180300500Y-70349500D01*
X177099500Y-70349500D01*
X177064852Y-70335148D01*
X177050500Y-70300500D01*
X177050500Y-69430255D01*
X177050500Y-69430252D01*
X177038867Y-69371769D01*
X177028331Y-69356001D01*
X177999500Y-69356001D01*
X177999500Y-69493998D01*
X178026417Y-69629318D01*
X178026420Y-69629329D01*
X178079223Y-69756807D01*
X178079225Y-69756811D01*
X178110137Y-69803074D01*
X178155883Y-69871539D01*
X178253460Y-69969116D01*
X178299102Y-69999613D01*
X178368189Y-70045775D01*
X178495672Y-70098580D01*
X178495678Y-70098581D01*
X178495681Y-70098582D01*
X178631001Y-70125499D01*
X178631007Y-70125500D01*
X178768993Y-70125500D01*
X178904328Y-70098580D01*
X179031811Y-70045775D01*
X179146542Y-69969114D01*
X179244114Y-69871542D01*
X179320775Y-69756811D01*
X179373580Y-69629328D01*
X179400500Y-69493993D01*
X179400500Y-69356007D01*
X179395312Y-69329926D01*
X179373582Y-69220681D01*
X179373579Y-69220670D01*
X179320776Y-69093192D01*
X179320775Y-69093189D01*
X179274613Y-69024102D01*
X179244116Y-68978460D01*
X179146539Y-68880883D01*
X179078074Y-68835137D01*
X179031811Y-68804225D01*
X179031808Y-68804223D01*
X179031807Y-68804223D01*
X178904329Y-68751420D01*
X178904318Y-68751417D01*
X178768998Y-68724500D01*
X178768993Y-68724500D01*
X178631007Y-68724500D01*
X178631001Y-68724500D01*
X178495681Y-68751417D01*
X178495670Y-68751420D01*
X178368192Y-68804223D01*
X178253460Y-68880883D01*
X178155883Y-68978460D01*
X178079223Y-69093192D01*
X178026420Y-69220670D01*
X178026417Y-69220681D01*
X177999500Y-69356001D01*
X177028331Y-69356001D01*
X177008232Y-69325921D01*
X176994552Y-69305447D01*
X176954795Y-69278882D01*
X176928231Y-69261133D01*
X176869748Y-69249500D01*
X175280252Y-69249500D01*
X175221769Y-69261133D01*
X175155447Y-69305447D01*
X175121669Y-69356001D01*
X175111133Y-69371769D01*
X175099500Y-69430252D01*
X174769747Y-69430252D01*
X175477124Y-68722874D01*
X175498056Y-68710484D01*
X175543333Y-68697293D01*
X175548637Y-68696065D01*
X175862892Y-68641616D01*
X175868326Y-68640985D01*
X176187693Y-68621921D01*
X176190415Y-68621835D01*
X176194493Y-68621820D01*
X176194637Y-68621820D01*
X227851752Y-68621820D01*
X227877305Y-68621820D01*
X227880052Y-68621897D01*
G37*
%TD.AperFunction*%
%TD*%
M02*
