%TF.GenerationSoftware,KiCad,Pcbnew,9.0.0*%
%TF.CreationDate,2025-09-08T11:53:22-07:00*%
%TF.ProjectId,grippy,67726970-7079-42e6-9b69-6361645f7063,rev?*%
%TF.SameCoordinates,Original*%
%TF.FileFunction,Legend,Top*%
%TF.FilePolarity,Positive*%
%FSLAX46Y46*%
G04 Gerber Fmt 4.6, Leading zero omitted, Abs format (unit mm)*
G04 Created by KiCad (PCBNEW 9.0.0) date 2025-09-08 11:53:22*
%MOMM*%
%LPD*%
G01*
G04 APERTURE LIST*
%ADD10C,0.300000*%
%ADD11C,0.120000*%
%ADD12C,0.150000*%
%ADD13C,0.100000*%
G04 APERTURE END LIST*
D10*
G36*
X191732998Y-80629941D02*
G01*
X191720529Y-80875097D01*
X191688119Y-81051382D01*
X191626353Y-81201678D01*
X191537665Y-81311684D01*
X191418347Y-81391347D01*
X191253428Y-81447605D01*
X190808906Y-81487356D01*
X187772906Y-81487356D01*
X187269399Y-81447605D01*
X187087061Y-81389728D01*
X186960371Y-81306555D01*
X186868230Y-81189365D01*
X186804788Y-81025309D01*
X186772767Y-80831918D01*
X186760336Y-80558134D01*
X186760336Y-75764563D01*
X186786811Y-75436698D01*
X186854132Y-75219464D01*
X186950540Y-75081110D01*
X187091588Y-74987496D01*
X187318012Y-74921108D01*
X187665195Y-74894753D01*
X190799075Y-74894753D01*
X191267960Y-74934931D01*
X191437157Y-74992793D01*
X191557754Y-75076836D01*
X191644433Y-75194431D01*
X191703079Y-75363638D01*
X191742829Y-75826967D01*
X191742829Y-76320643D01*
X191708491Y-76625860D01*
X191622732Y-76809146D01*
X191496355Y-76910847D01*
X191317969Y-76946393D01*
X191127882Y-76911945D01*
X191004239Y-76817738D01*
X190930285Y-76664166D01*
X190893108Y-76395869D01*
X190858914Y-76061623D01*
X190821645Y-75946224D01*
X190764881Y-75868427D01*
X190682586Y-75814637D01*
X190555015Y-75777385D01*
X190181446Y-75752595D01*
X189877974Y-75742764D01*
X188370446Y-75742764D01*
X187958836Y-75771829D01*
X187826343Y-75821152D01*
X187734438Y-75905613D01*
X187675627Y-76025395D01*
X187639122Y-76210794D01*
X187619888Y-76765164D01*
X187629291Y-77049402D01*
X187672034Y-77222509D01*
X187766922Y-77331930D01*
X187935327Y-77423826D01*
X188158871Y-77549062D01*
X188255469Y-77677289D01*
X188306313Y-77818745D01*
X188325139Y-78008544D01*
X188325139Y-78442808D01*
X188325139Y-79834076D01*
X188342906Y-80204226D01*
X188381987Y-80384599D01*
X188467292Y-80505772D01*
X188618353Y-80580787D01*
X188822234Y-80609852D01*
X189242393Y-80629514D01*
X189486880Y-80629514D01*
X189712133Y-80639345D01*
X190172042Y-80639345D01*
X190568265Y-80610707D01*
X190693676Y-80557611D01*
X190782405Y-80457261D01*
X190836064Y-80313994D01*
X190868318Y-80072579D01*
X190883278Y-79348094D01*
X190868745Y-78811675D01*
X190840915Y-78624931D01*
X190797365Y-78510768D01*
X190728187Y-78425614D01*
X190635799Y-78372282D01*
X190357545Y-78323983D01*
X190230172Y-78314153D01*
X189966390Y-78270739D01*
X189819844Y-78199603D01*
X189731051Y-78082218D01*
X189698028Y-77894849D01*
X189733030Y-77712948D01*
X189832172Y-77585527D01*
X190008526Y-77500103D01*
X190299415Y-77466141D01*
X190906786Y-77466141D01*
X191219621Y-77492576D01*
X191426377Y-77559870D01*
X191557754Y-77656773D01*
X191645326Y-77797037D01*
X191708013Y-78023723D01*
X191732998Y-78372710D01*
X191732998Y-80629941D01*
G37*
G36*
X193954754Y-80610707D02*
G01*
X193929963Y-81031721D01*
X193890360Y-81184364D01*
X193829091Y-81292877D01*
X193740942Y-81373366D01*
X193622644Y-81424952D01*
X193284979Y-81460001D01*
X193000613Y-81443309D01*
X192843021Y-81404435D01*
X192723790Y-81325252D01*
X192626317Y-81187303D01*
X192575881Y-80991970D01*
X192566050Y-80611989D01*
X192566050Y-77598643D01*
X192590840Y-77187460D01*
X192633144Y-77045981D01*
X192702398Y-76946393D01*
X192801637Y-76876616D01*
X192938337Y-76834835D01*
X193334132Y-76809617D01*
X194577939Y-76809617D01*
X194896271Y-76834323D01*
X195061357Y-76890827D01*
X195161938Y-76997383D01*
X195198560Y-77174210D01*
X195160744Y-77367054D01*
X195060929Y-77472553D01*
X194896323Y-77525120D01*
X194577939Y-77548207D01*
X193813703Y-77548207D01*
X193520018Y-77576685D01*
X193397391Y-77637539D01*
X193336850Y-77760617D01*
X193308487Y-78055561D01*
X193308487Y-78104714D01*
X193325899Y-78315903D01*
X193364480Y-78416307D01*
X193443994Y-78481248D01*
X193621362Y-78543252D01*
X193806021Y-78621126D01*
X193893632Y-78706101D01*
X193935546Y-78833842D01*
X193954754Y-79107026D01*
X193954754Y-80610707D01*
G37*
G36*
X197080085Y-75500414D02*
G01*
X197037767Y-75816498D01*
X196933906Y-75988961D01*
X196749979Y-76084873D01*
X196390648Y-76125737D01*
X196012927Y-76088512D01*
X195828157Y-76003921D01*
X195724600Y-75844959D01*
X195681978Y-75539737D01*
X195703097Y-75303648D01*
X195757702Y-75142911D01*
X195837988Y-75036658D01*
X195952383Y-74965414D01*
X196134108Y-74914804D01*
X196410310Y-74894753D01*
X196753046Y-74932469D01*
X196933906Y-75021698D01*
X197037339Y-75185711D01*
X197080085Y-75500414D01*
G37*
G36*
X197080085Y-80615409D02*
G01*
X197055294Y-81034285D01*
X197015726Y-81185740D01*
X196954422Y-81293732D01*
X196866299Y-81373782D01*
X196747976Y-81424952D01*
X196410310Y-81460001D01*
X196125925Y-81443435D01*
X195968353Y-81404863D01*
X195849060Y-81325821D01*
X195751648Y-81188586D01*
X195701212Y-80994107D01*
X195691381Y-80615409D01*
X195691381Y-77419552D01*
X195716247Y-77102310D01*
X195772592Y-76941691D01*
X195880746Y-76845591D01*
X196067515Y-76809617D01*
X196245691Y-76845152D01*
X196352180Y-76941691D01*
X196408829Y-77102346D01*
X196433818Y-77419552D01*
X196433818Y-78123094D01*
X196451224Y-78333086D01*
X196489811Y-78432977D01*
X196569270Y-78497590D01*
X196746693Y-78559495D01*
X196931398Y-78636935D01*
X197018963Y-78721489D01*
X197060887Y-78848661D01*
X197080085Y-79120276D01*
X197080085Y-80615409D01*
G37*
G36*
X201663363Y-74919971D02*
G01*
X201817343Y-74959977D01*
X201937342Y-75025117D01*
X202077538Y-75145651D01*
X202157894Y-75302089D01*
X202198072Y-75541019D01*
X202207903Y-75901339D01*
X202207903Y-77386213D01*
X202167725Y-77857663D01*
X202108008Y-78025661D01*
X202017271Y-78143610D01*
X201890533Y-78225406D01*
X201708243Y-78279531D01*
X201195333Y-78314153D01*
X200127625Y-78314153D01*
X199730120Y-78338516D01*
X199599779Y-78379611D01*
X199510851Y-78447937D01*
X199452243Y-78546748D01*
X199416390Y-78697980D01*
X199397156Y-79157890D01*
X199397156Y-80537617D01*
X199373122Y-80909845D01*
X199313454Y-81147639D01*
X199231742Y-81291168D01*
X199105822Y-81391100D01*
X198905590Y-81460190D01*
X198600008Y-81487356D01*
X198336110Y-81461822D01*
X198138969Y-81392863D01*
X197992637Y-81286466D01*
X197910079Y-81173983D01*
X197861845Y-81034713D01*
X197832353Y-80558134D01*
X197832353Y-76594622D01*
X198682074Y-76594622D01*
X198706010Y-77054104D01*
X198744593Y-77212348D01*
X198801325Y-77316543D01*
X198885067Y-77391139D01*
X199001360Y-77437077D01*
X199353986Y-77466141D01*
X200637116Y-77466141D01*
X201024363Y-77437077D01*
X201153073Y-77390389D01*
X201238503Y-77316970D01*
X201293738Y-77211475D01*
X201328689Y-77044273D01*
X201347923Y-76544613D01*
X201323988Y-76120608D01*
X201286106Y-75975857D01*
X201229099Y-75877403D01*
X201144640Y-75808352D01*
X201019661Y-75767127D01*
X200637116Y-75742764D01*
X199383478Y-75742764D01*
X199015893Y-75772256D01*
X198894669Y-75818001D01*
X198806027Y-75892790D01*
X198745523Y-75996859D01*
X198706010Y-76150527D01*
X198682074Y-76594622D01*
X197832353Y-76594622D01*
X197832353Y-75774821D01*
X197872103Y-75337138D01*
X197932123Y-75182061D01*
X198027686Y-75065723D01*
X198158754Y-74983454D01*
X198341844Y-74929802D01*
X198854754Y-74894753D01*
X201156010Y-74894753D01*
X201663363Y-74919971D01*
G37*
G36*
X206737752Y-74919971D02*
G01*
X206891732Y-74959977D01*
X207011732Y-75025117D01*
X207151927Y-75145651D01*
X207232283Y-75302089D01*
X207272461Y-75541019D01*
X207282292Y-75901339D01*
X207282292Y-77386213D01*
X207242114Y-77857663D01*
X207182397Y-78025661D01*
X207091660Y-78143610D01*
X206964923Y-78225406D01*
X206782632Y-78279531D01*
X206269722Y-78314153D01*
X205202015Y-78314153D01*
X204804509Y-78338516D01*
X204674169Y-78379611D01*
X204585240Y-78447937D01*
X204526632Y-78546748D01*
X204490779Y-78697980D01*
X204471545Y-79157890D01*
X204471545Y-80537617D01*
X204447511Y-80909845D01*
X204387843Y-81147639D01*
X204306132Y-81291168D01*
X204180211Y-81391100D01*
X203979980Y-81460190D01*
X203674398Y-81487356D01*
X203410500Y-81461822D01*
X203213359Y-81392863D01*
X203067027Y-81286466D01*
X202984469Y-81173983D01*
X202936235Y-81034713D01*
X202906742Y-80558134D01*
X202906742Y-76594622D01*
X203756463Y-76594622D01*
X203780399Y-77054104D01*
X203818982Y-77212348D01*
X203875715Y-77316543D01*
X203959456Y-77391139D01*
X204075750Y-77437077D01*
X204428375Y-77466141D01*
X205711505Y-77466141D01*
X206098752Y-77437077D01*
X206227462Y-77390389D01*
X206312892Y-77316970D01*
X206368128Y-77211475D01*
X206403079Y-77044273D01*
X206422313Y-76544613D01*
X206398377Y-76120608D01*
X206360496Y-75975857D01*
X206303489Y-75877403D01*
X206219030Y-75808352D01*
X206094050Y-75767127D01*
X205711505Y-75742764D01*
X204457868Y-75742764D01*
X204090282Y-75772256D01*
X203969058Y-75818001D01*
X203880416Y-75892790D01*
X203819912Y-75996859D01*
X203780399Y-76150527D01*
X203756463Y-76594622D01*
X202906742Y-76594622D01*
X202906742Y-75774821D01*
X202946493Y-75337138D01*
X203006512Y-75182061D01*
X203102076Y-75065723D01*
X203233143Y-74983454D01*
X203416233Y-74929802D01*
X203929143Y-74894753D01*
X206230399Y-74894753D01*
X206737752Y-74919971D01*
G37*
G36*
X211533888Y-82399053D02*
G01*
X211503968Y-82784591D01*
X211458046Y-82920812D01*
X211387709Y-83015400D01*
X211288716Y-83081659D01*
X211147069Y-83126103D01*
X210746571Y-83156023D01*
X208533365Y-83156023D01*
X208214898Y-83132652D01*
X208054221Y-83079941D01*
X207958320Y-82976646D01*
X207922147Y-82791429D01*
X207959206Y-82606396D01*
X208059351Y-82498216D01*
X208224452Y-82442022D01*
X208543196Y-82417432D01*
X210286235Y-82417432D01*
X210573649Y-82390755D01*
X210702974Y-82332375D01*
X210771598Y-82217298D01*
X210801709Y-81968209D01*
X210773232Y-81672869D01*
X210712377Y-81549332D01*
X210589751Y-81488478D01*
X210296065Y-81460001D01*
X208680399Y-81460001D01*
X208289305Y-81435210D01*
X208149017Y-81393046D01*
X208053367Y-81324079D01*
X207986764Y-81225771D01*
X207942236Y-81088568D01*
X207912316Y-80693628D01*
X207912316Y-77654208D01*
X207927276Y-77241316D01*
X207992672Y-77031878D01*
X208096151Y-76918933D01*
X208279613Y-76840963D01*
X208582519Y-76809617D01*
X208857789Y-76824804D01*
X209009516Y-76860053D01*
X209125331Y-76932751D01*
X209221092Y-77060943D01*
X209286060Y-77270381D01*
X209301020Y-77654636D01*
X209301020Y-79141220D01*
X209281986Y-79413531D01*
X209239898Y-79545137D01*
X209151578Y-79631415D01*
X208967629Y-79702002D01*
X208789512Y-79770842D01*
X208710746Y-79834076D01*
X208672502Y-79930665D01*
X208654754Y-80148233D01*
X208654754Y-80216621D01*
X208668859Y-80491883D01*
X208693864Y-80582903D01*
X208733827Y-80642337D01*
X208794210Y-80682111D01*
X208889410Y-80707305D01*
X209169801Y-80721410D01*
X210276404Y-80721410D01*
X210551666Y-80702176D01*
X210702547Y-80632506D01*
X210772644Y-80481625D01*
X210791878Y-80216621D01*
X210791878Y-77419980D01*
X210816751Y-77102359D01*
X210873089Y-76941691D01*
X210980900Y-76845607D01*
X211167585Y-76809617D01*
X211353627Y-76845814D01*
X211457379Y-76941691D01*
X211510385Y-77101981D01*
X211533888Y-77419980D01*
X211533888Y-82399053D01*
G37*
G36*
X189565177Y-98714836D02*
G01*
X189556866Y-98878975D01*
X189536601Y-98980816D01*
X189497707Y-99064046D01*
X189439148Y-99129316D01*
X189370762Y-99171823D01*
X189287962Y-99197948D01*
X189003419Y-99215045D01*
X188135868Y-99215045D01*
X187875261Y-99228722D01*
X187791513Y-99254389D01*
X187736043Y-99299309D01*
X187700562Y-99365185D01*
X187679134Y-99469302D01*
X187668143Y-99783642D01*
X187687194Y-100007369D01*
X187716590Y-100073777D01*
X187766085Y-100124605D01*
X187814445Y-100157090D01*
X187887962Y-100173210D01*
X188010327Y-100181514D01*
X188203035Y-100184200D01*
X189109665Y-100184200D01*
X189331437Y-100187131D01*
X189436706Y-100207159D01*
X189494522Y-100234803D01*
X189543928Y-100285561D01*
X189576132Y-100351439D01*
X189587404Y-100432840D01*
X189565309Y-100549589D01*
X189506315Y-100617976D01*
X189408510Y-100654262D01*
X189221528Y-100670000D01*
X187296406Y-100670000D01*
X187031158Y-100650216D01*
X186937748Y-100618908D01*
X186871179Y-100569616D01*
X186824300Y-100500164D01*
X186793510Y-100401332D01*
X186773726Y-100119476D01*
X186773726Y-99268778D01*
X186787892Y-99006706D01*
X186810391Y-98928377D01*
X186847976Y-98861137D01*
X186918923Y-98793136D01*
X187002581Y-98752205D01*
X187106486Y-98732111D01*
X187285415Y-98723628D01*
X188572330Y-98723628D01*
X188734752Y-98723628D01*
X188919399Y-98704577D01*
X188980643Y-98677039D01*
X189025157Y-98634480D01*
X189054535Y-98575280D01*
X189073761Y-98480851D01*
X189084996Y-98211207D01*
X189084996Y-97903217D01*
X189071318Y-97631130D01*
X189047420Y-97540566D01*
X189008792Y-97480676D01*
X188951620Y-97440029D01*
X188866643Y-97415708D01*
X188611653Y-97401786D01*
X187710642Y-97401786D01*
X187485938Y-97415708D01*
X187406724Y-97436583D01*
X187351849Y-97467243D01*
X187310899Y-97510934D01*
X187284193Y-97567871D01*
X187265143Y-97735666D01*
X187259525Y-97858764D01*
X187239977Y-98040192D01*
X187204570Y-98132316D01*
X187139157Y-98186850D01*
X187022365Y-98207787D01*
X186891311Y-98184850D01*
X186823063Y-98126699D01*
X186789211Y-98025026D01*
X186773726Y-97808206D01*
X186773726Y-97466755D01*
X186793510Y-97184654D01*
X186825691Y-97086637D01*
X186876796Y-97019057D01*
X186949771Y-96972483D01*
X187056315Y-96941632D01*
X187363572Y-96921849D01*
X188958478Y-96921849D01*
X189259874Y-96938946D01*
X189357564Y-96964271D01*
X189427669Y-97001472D01*
X189496057Y-97061800D01*
X189539532Y-97145087D01*
X189559560Y-97272826D01*
X189565177Y-97466755D01*
X189565177Y-98714836D01*
G37*
G36*
X192656071Y-96941632D02*
G01*
X192754801Y-96972910D01*
X192824354Y-97021988D01*
X192873289Y-97091931D01*
X192904710Y-97193203D01*
X192924494Y-97477990D01*
X192924494Y-100158555D01*
X192904466Y-100415498D01*
X192873508Y-100506420D01*
X192824110Y-100572791D01*
X192755213Y-100619733D01*
X192658757Y-100650216D01*
X192385205Y-100670000D01*
X190588799Y-100670000D01*
X190295464Y-100650216D01*
X190192344Y-100617431D01*
X190121318Y-100564242D01*
X190072419Y-100489129D01*
X190041207Y-100384724D01*
X190021423Y-100085771D01*
X190021423Y-97920069D01*
X190506978Y-97920069D01*
X190506978Y-99632456D01*
X190517969Y-99933119D01*
X190536860Y-100035705D01*
X190564131Y-100097739D01*
X190608043Y-100140603D01*
X190675505Y-100165150D01*
X190885310Y-100178583D01*
X191472958Y-100178583D01*
X191787299Y-100167592D01*
X191890834Y-100146638D01*
X191951674Y-100113614D01*
X191992233Y-100061282D01*
X192016643Y-99980013D01*
X192030321Y-99727711D01*
X192030321Y-98966650D01*
X192035938Y-98776385D01*
X192041556Y-98604438D01*
X192070621Y-98495505D01*
X192136810Y-98423210D01*
X192253558Y-98366057D01*
X192359042Y-98310127D01*
X192406454Y-98260300D01*
X192428873Y-98190636D01*
X192438939Y-98048785D01*
X192444556Y-97819441D01*
X192427948Y-97609148D01*
X192403140Y-97533670D01*
X192365666Y-97480921D01*
X192312363Y-97443513D01*
X192234508Y-97418394D01*
X192015910Y-97401786D01*
X190986182Y-97401786D01*
X190717027Y-97415708D01*
X190630185Y-97440277D01*
X190574877Y-97480676D01*
X190539355Y-97540440D01*
X190517969Y-97633817D01*
X190506978Y-97920069D01*
X190021423Y-97920069D01*
X190021423Y-97477990D01*
X190041207Y-97181967D01*
X190071396Y-97095439D01*
X190118632Y-97030293D01*
X190189158Y-96977912D01*
X190278367Y-96944563D01*
X190388996Y-96928633D01*
X190583182Y-96921849D01*
X192373970Y-96921849D01*
X192656071Y-96941632D01*
G37*
G36*
X196189043Y-98714836D02*
G01*
X196180732Y-98878975D01*
X196160467Y-98980816D01*
X196121573Y-99064046D01*
X196063014Y-99129316D01*
X195994628Y-99171823D01*
X195911828Y-99197948D01*
X195627285Y-99215045D01*
X194759734Y-99215045D01*
X194499127Y-99228722D01*
X194415379Y-99254389D01*
X194359909Y-99299309D01*
X194324428Y-99365185D01*
X194303000Y-99469302D01*
X194292009Y-99783642D01*
X194311060Y-100007369D01*
X194340456Y-100073777D01*
X194389951Y-100124605D01*
X194438311Y-100157090D01*
X194511828Y-100173210D01*
X194634193Y-100181514D01*
X194826901Y-100184200D01*
X195733531Y-100184200D01*
X195955303Y-100187131D01*
X196060572Y-100207159D01*
X196118388Y-100234803D01*
X196167794Y-100285561D01*
X196199998Y-100351439D01*
X196211270Y-100432840D01*
X196189175Y-100549589D01*
X196130181Y-100617976D01*
X196032376Y-100654262D01*
X195845394Y-100670000D01*
X193920272Y-100670000D01*
X193655024Y-100650216D01*
X193561614Y-100618908D01*
X193495045Y-100569616D01*
X193448166Y-100500164D01*
X193417376Y-100401332D01*
X193397592Y-100119476D01*
X193397592Y-99268778D01*
X193411758Y-99006706D01*
X193434257Y-98928377D01*
X193471842Y-98861137D01*
X193542789Y-98793136D01*
X193626448Y-98752205D01*
X193730352Y-98732111D01*
X193909281Y-98723628D01*
X195196196Y-98723628D01*
X195358618Y-98723628D01*
X195543265Y-98704577D01*
X195604509Y-98677039D01*
X195649023Y-98634480D01*
X195678401Y-98575280D01*
X195697627Y-98480851D01*
X195708862Y-98211207D01*
X195708862Y-97903217D01*
X195695184Y-97631130D01*
X195671286Y-97540566D01*
X195632658Y-97480676D01*
X195575486Y-97440029D01*
X195490509Y-97415708D01*
X195235519Y-97401786D01*
X194334508Y-97401786D01*
X194109804Y-97415708D01*
X194030590Y-97436583D01*
X193975715Y-97467243D01*
X193934765Y-97510934D01*
X193908060Y-97567871D01*
X193889009Y-97735666D01*
X193883391Y-97858764D01*
X193863843Y-98040192D01*
X193828436Y-98132316D01*
X193763023Y-98186850D01*
X193646231Y-98207787D01*
X193515177Y-98184850D01*
X193446929Y-98126699D01*
X193413077Y-98025026D01*
X193397592Y-97808206D01*
X193397592Y-97466755D01*
X193417376Y-97184654D01*
X193449557Y-97086637D01*
X193500662Y-97019057D01*
X193573637Y-96972483D01*
X193680181Y-96941632D01*
X193987438Y-96921849D01*
X195582344Y-96921849D01*
X195883740Y-96938946D01*
X195981430Y-96964271D01*
X196051535Y-97001472D01*
X196119923Y-97061800D01*
X196163398Y-97145087D01*
X196183426Y-97272826D01*
X196189043Y-97466755D01*
X196189043Y-98714836D01*
G37*
G36*
X199397418Y-100063300D02*
G01*
X199377390Y-100379106D01*
X199345862Y-100488374D01*
X199297034Y-100564242D01*
X199226977Y-100617706D01*
X199128750Y-100650216D01*
X198841032Y-100670000D01*
X197190195Y-100670000D01*
X196888555Y-100650216D01*
X196782287Y-100618699D01*
X196709036Y-100569860D01*
X196657785Y-100499900D01*
X196625750Y-100401577D01*
X196605966Y-100113859D01*
X196605966Y-99794877D01*
X196614515Y-99574815D01*
X196658234Y-99471011D01*
X196739667Y-99406285D01*
X196848988Y-99384061D01*
X196966629Y-99404774D01*
X197036566Y-99459532D01*
X197075398Y-99550274D01*
X197091765Y-99716475D01*
X197105443Y-99963649D01*
X197127307Y-100047345D01*
X197159665Y-100103112D01*
X197207586Y-100142579D01*
X197276657Y-100167836D01*
X197481332Y-100184200D01*
X198035275Y-100184200D01*
X198285136Y-100170523D01*
X198370591Y-100147412D01*
X198427041Y-100110928D01*
X198465760Y-100057002D01*
X198489323Y-99977327D01*
X198503244Y-99744319D01*
X198503244Y-99341563D01*
X198489323Y-99080711D01*
X198464393Y-98996032D01*
X198421667Y-98938806D01*
X198358105Y-98901310D01*
X198257048Y-98879211D01*
X197956873Y-98867976D01*
X197167969Y-98867976D01*
X196880251Y-98848192D01*
X196780972Y-98817716D01*
X196709281Y-98770767D01*
X196658025Y-98703588D01*
X196625994Y-98608101D01*
X196605966Y-98334305D01*
X196605966Y-97382979D01*
X196628681Y-97159253D01*
X196661582Y-97078237D01*
X196711967Y-97016127D01*
X196780418Y-96971306D01*
X196874633Y-96941632D01*
X197128646Y-96921849D01*
X198818806Y-96921849D01*
X199030944Y-96938724D01*
X199137055Y-96976803D01*
X199200434Y-97048557D01*
X199224005Y-97170244D01*
X199203302Y-97287930D01*
X199148534Y-97358066D01*
X199057170Y-97396598D01*
X198885973Y-97413021D01*
X197537264Y-97413021D01*
X197287648Y-97429630D01*
X197207998Y-97453291D01*
X197162351Y-97483363D01*
X197131978Y-97535905D01*
X197105443Y-97634061D01*
X197086147Y-97931304D01*
X197102512Y-98169685D01*
X197128936Y-98249150D01*
X197170411Y-98303286D01*
X197229465Y-98340570D01*
X197315491Y-98365812D01*
X197570725Y-98382421D01*
X198813189Y-98382421D01*
X199111898Y-98402205D01*
X199216241Y-98433483D01*
X199291172Y-98482561D01*
X199344831Y-98552240D01*
X199377390Y-98648157D01*
X199397418Y-98927327D01*
X199397418Y-100063300D01*
G37*
G36*
X202468771Y-96941632D02*
G01*
X202567502Y-96972910D01*
X202637055Y-97021988D01*
X202685990Y-97091931D01*
X202717411Y-97193203D01*
X202737194Y-97477990D01*
X202737194Y-100158555D01*
X202717166Y-100415498D01*
X202686208Y-100506420D01*
X202636810Y-100572791D01*
X202567913Y-100619733D01*
X202471458Y-100650216D01*
X202197906Y-100670000D01*
X200401500Y-100670000D01*
X200108164Y-100650216D01*
X200005045Y-100617431D01*
X199934019Y-100564242D01*
X199885120Y-100489129D01*
X199853907Y-100384724D01*
X199834124Y-100085771D01*
X199834124Y-97920069D01*
X200319678Y-97920069D01*
X200319678Y-99632456D01*
X200330669Y-99933119D01*
X200349561Y-100035705D01*
X200376831Y-100097739D01*
X200420743Y-100140603D01*
X200488206Y-100165150D01*
X200698011Y-100178583D01*
X201285659Y-100178583D01*
X201600000Y-100167592D01*
X201703535Y-100146638D01*
X201764375Y-100113614D01*
X201804933Y-100061282D01*
X201829344Y-99980013D01*
X201843021Y-99727711D01*
X201843021Y-98966650D01*
X201848639Y-98776385D01*
X201854256Y-98604438D01*
X201883321Y-98495505D01*
X201949511Y-98423210D01*
X202066259Y-98366057D01*
X202171743Y-98310127D01*
X202219155Y-98260300D01*
X202241574Y-98190636D01*
X202251639Y-98048785D01*
X202257257Y-97819441D01*
X202240648Y-97609148D01*
X202215841Y-97533670D01*
X202178367Y-97480921D01*
X202125063Y-97443513D01*
X202047208Y-97418394D01*
X201828611Y-97401786D01*
X200798883Y-97401786D01*
X200529727Y-97415708D01*
X200442885Y-97440277D01*
X200387578Y-97480676D01*
X200352055Y-97540440D01*
X200330669Y-97633817D01*
X200319678Y-97920069D01*
X199834124Y-97920069D01*
X199834124Y-97477990D01*
X199853907Y-97181967D01*
X199884097Y-97095439D01*
X199931332Y-97030293D01*
X200001859Y-96977912D01*
X200091067Y-96944563D01*
X200201696Y-96928633D01*
X200395882Y-96921849D01*
X202186671Y-96921849D01*
X202468771Y-96941632D01*
G37*
G36*
X205617794Y-96955554D02*
G01*
X205715379Y-96976584D01*
X205785589Y-97012707D01*
X205857810Y-97081049D01*
X205903070Y-97172686D01*
X205925131Y-97290609D01*
X205934577Y-97500460D01*
X205934577Y-100113859D01*
X205923098Y-100386922D01*
X205904334Y-100459633D01*
X205871807Y-100521011D01*
X205793652Y-100598167D01*
X205669266Y-100649879D01*
X205479064Y-100670000D01*
X205355236Y-100662881D01*
X205266329Y-100644354D01*
X205190511Y-100610153D01*
X205131751Y-100561067D01*
X205083147Y-100492435D01*
X205051639Y-100406706D01*
X205037473Y-100285073D01*
X205034787Y-100108241D01*
X205034787Y-99727711D01*
X205023551Y-99452693D01*
X205002235Y-99359758D01*
X204966887Y-99302240D01*
X204912399Y-99263807D01*
X204827669Y-99239958D01*
X204566817Y-99226280D01*
X203649197Y-99226280D01*
X203386392Y-99206252D01*
X203295797Y-99175002D01*
X203232030Y-99125896D01*
X203187210Y-99057446D01*
X203157536Y-98963230D01*
X203137752Y-98692365D01*
X203137752Y-97841667D01*
X203623307Y-97841667D01*
X203623307Y-98317452D01*
X203636985Y-98539225D01*
X203659220Y-98614761D01*
X203693893Y-98667452D01*
X203744052Y-98704152D01*
X203816503Y-98726803D01*
X204024110Y-98740481D01*
X205064829Y-98740481D01*
X205263886Y-98726803D01*
X205333326Y-98704178D01*
X205380879Y-98667452D01*
X205413723Y-98615533D01*
X205435101Y-98542156D01*
X205448778Y-98328688D01*
X205448778Y-97841667D01*
X205432414Y-97623314D01*
X205405929Y-97551733D01*
X205362072Y-97500704D01*
X205300774Y-97466156D01*
X205211374Y-97443796D01*
X204952965Y-97429874D01*
X204068806Y-97429874D01*
X203835799Y-97443796D01*
X203755370Y-97466096D01*
X203701953Y-97500460D01*
X203664730Y-97550930D01*
X203639672Y-97625757D01*
X203623307Y-97841667D01*
X203137752Y-97841667D01*
X203137752Y-97472372D01*
X203160467Y-97212742D01*
X203193033Y-97118534D01*
X203240579Y-97050076D01*
X203306470Y-97000225D01*
X203397383Y-96967034D01*
X203649197Y-96944075D01*
X205271946Y-96944075D01*
X205617794Y-96955554D01*
G37*
G36*
X209073098Y-96941632D02*
G01*
X209171828Y-96972910D01*
X209241381Y-97021988D01*
X209290316Y-97091931D01*
X209321737Y-97193203D01*
X209341521Y-97477990D01*
X209341521Y-100158555D01*
X209321493Y-100415498D01*
X209290535Y-100506420D01*
X209241137Y-100572791D01*
X209172240Y-100619733D01*
X209075785Y-100650216D01*
X208802233Y-100670000D01*
X207005826Y-100670000D01*
X206712491Y-100650216D01*
X206609371Y-100617431D01*
X206538346Y-100564242D01*
X206489446Y-100489129D01*
X206458234Y-100384724D01*
X206438450Y-100085771D01*
X206438450Y-97920069D01*
X206924005Y-97920069D01*
X206924005Y-99632456D01*
X206934996Y-99933119D01*
X206953887Y-100035705D01*
X206981158Y-100097739D01*
X207025070Y-100140603D01*
X207092533Y-100165150D01*
X207302337Y-100178583D01*
X207889986Y-100178583D01*
X208204326Y-100167592D01*
X208307861Y-100146638D01*
X208368702Y-100113614D01*
X208409260Y-100061282D01*
X208433670Y-99980013D01*
X208447348Y-99727711D01*
X208447348Y-98966650D01*
X208452965Y-98776385D01*
X208458583Y-98604438D01*
X208487648Y-98495505D01*
X208553838Y-98423210D01*
X208670586Y-98366057D01*
X208776070Y-98310127D01*
X208823482Y-98260300D01*
X208845900Y-98190636D01*
X208855966Y-98048785D01*
X208861584Y-97819441D01*
X208844975Y-97609148D01*
X208820167Y-97533670D01*
X208782693Y-97480921D01*
X208729390Y-97443513D01*
X208651535Y-97418394D01*
X208432937Y-97401786D01*
X207403210Y-97401786D01*
X207134054Y-97415708D01*
X207047212Y-97440277D01*
X206991905Y-97480676D01*
X206956382Y-97540440D01*
X206934996Y-97633817D01*
X206924005Y-97920069D01*
X206438450Y-97920069D01*
X206438450Y-97477990D01*
X206458234Y-97181967D01*
X206488423Y-97095439D01*
X206535659Y-97030293D01*
X206606186Y-96977912D01*
X206695394Y-96944563D01*
X206806023Y-96928633D01*
X207000209Y-96921849D01*
X208790997Y-96921849D01*
X209073098Y-96941632D01*
G37*
G36*
X212606071Y-100063300D02*
G01*
X212586043Y-100379106D01*
X212554515Y-100488374D01*
X212505687Y-100564242D01*
X212435630Y-100617706D01*
X212337404Y-100650216D01*
X212049685Y-100670000D01*
X210398848Y-100670000D01*
X210097208Y-100650216D01*
X209990940Y-100618699D01*
X209917690Y-100569860D01*
X209866439Y-100499900D01*
X209834403Y-100401577D01*
X209814619Y-100113859D01*
X209814619Y-99794877D01*
X209823168Y-99574815D01*
X209866887Y-99471011D01*
X209948321Y-99406285D01*
X210057641Y-99384061D01*
X210175282Y-99404774D01*
X210245219Y-99459532D01*
X210284052Y-99550274D01*
X210300418Y-99716475D01*
X210314096Y-99963649D01*
X210335960Y-100047345D01*
X210368318Y-100103112D01*
X210416239Y-100142579D01*
X210485310Y-100167836D01*
X210689986Y-100184200D01*
X211243928Y-100184200D01*
X211493789Y-100170523D01*
X211579244Y-100147412D01*
X211635694Y-100110928D01*
X211674414Y-100057002D01*
X211697976Y-99977327D01*
X211711898Y-99744319D01*
X211711898Y-99341563D01*
X211697976Y-99080711D01*
X211673046Y-98996032D01*
X211630321Y-98938806D01*
X211566758Y-98901310D01*
X211465701Y-98879211D01*
X211165526Y-98867976D01*
X210376622Y-98867976D01*
X210088904Y-98848192D01*
X209989625Y-98817716D01*
X209917934Y-98770767D01*
X209866678Y-98703588D01*
X209834647Y-98608101D01*
X209814619Y-98334305D01*
X209814619Y-97382979D01*
X209837334Y-97159253D01*
X209870235Y-97078237D01*
X209920621Y-97016127D01*
X209989071Y-96971306D01*
X210083286Y-96941632D01*
X210337299Y-96921849D01*
X212027459Y-96921849D01*
X212239597Y-96938724D01*
X212345708Y-96976803D01*
X212409087Y-97048557D01*
X212432658Y-97170244D01*
X212411955Y-97287930D01*
X212357187Y-97358066D01*
X212265823Y-97396598D01*
X212094626Y-97413021D01*
X210745917Y-97413021D01*
X210496301Y-97429630D01*
X210416651Y-97453291D01*
X210371004Y-97483363D01*
X210340631Y-97535905D01*
X210314096Y-97634061D01*
X210294801Y-97931304D01*
X210311165Y-98169685D01*
X210337589Y-98249150D01*
X210379064Y-98303286D01*
X210438118Y-98340570D01*
X210524145Y-98365812D01*
X210779378Y-98382421D01*
X212021842Y-98382421D01*
X212320551Y-98402205D01*
X212424894Y-98433483D01*
X212499825Y-98482561D01*
X212553484Y-98552240D01*
X212586043Y-98648157D01*
X212606071Y-98927327D01*
X212606071Y-100063300D01*
G37*
D11*
X227103855Y-98450951D02*
X226303855Y-98450951D01*
X226303855Y-97917618D02*
X226303855Y-97765237D01*
X226303855Y-97765237D02*
X226341950Y-97689047D01*
X226341950Y-97689047D02*
X226418140Y-97612856D01*
X226418140Y-97612856D02*
X226570521Y-97574761D01*
X226570521Y-97574761D02*
X226837188Y-97574761D01*
X226837188Y-97574761D02*
X226989569Y-97612856D01*
X226989569Y-97612856D02*
X227065760Y-97689047D01*
X227065760Y-97689047D02*
X227103855Y-97765237D01*
X227103855Y-97765237D02*
X227103855Y-97917618D01*
X227103855Y-97917618D02*
X227065760Y-97993809D01*
X227065760Y-97993809D02*
X226989569Y-98069999D01*
X226989569Y-98069999D02*
X226837188Y-98108095D01*
X226837188Y-98108095D02*
X226570521Y-98108095D01*
X226570521Y-98108095D02*
X226418140Y-98069999D01*
X226418140Y-98069999D02*
X226341950Y-97993809D01*
X226341950Y-97993809D02*
X226303855Y-97917618D01*
X227103855Y-96812857D02*
X227103855Y-97270000D01*
X227103855Y-97041428D02*
X226303855Y-97041428D01*
X226303855Y-97041428D02*
X226418140Y-97117619D01*
X226418140Y-97117619D02*
X226494331Y-97193809D01*
X226494331Y-97193809D02*
X226532426Y-97270000D01*
X226303855Y-96546190D02*
X226303855Y-96050952D01*
X226303855Y-96050952D02*
X226608617Y-96317618D01*
X226608617Y-96317618D02*
X226608617Y-96203333D01*
X226608617Y-96203333D02*
X226646712Y-96127142D01*
X226646712Y-96127142D02*
X226684807Y-96089047D01*
X226684807Y-96089047D02*
X226760998Y-96050952D01*
X226760998Y-96050952D02*
X226951474Y-96050952D01*
X226951474Y-96050952D02*
X227027664Y-96089047D01*
X227027664Y-96089047D02*
X227065760Y-96127142D01*
X227065760Y-96127142D02*
X227103855Y-96203333D01*
X227103855Y-96203333D02*
X227103855Y-96431904D01*
X227103855Y-96431904D02*
X227065760Y-96508095D01*
X227065760Y-96508095D02*
X227027664Y-96546190D01*
X216943855Y-74369999D02*
X216143855Y-74369999D01*
X216143855Y-73836666D02*
X216143855Y-73684285D01*
X216143855Y-73684285D02*
X216181950Y-73608095D01*
X216181950Y-73608095D02*
X216258140Y-73531904D01*
X216258140Y-73531904D02*
X216410521Y-73493809D01*
X216410521Y-73493809D02*
X216677188Y-73493809D01*
X216677188Y-73493809D02*
X216829569Y-73531904D01*
X216829569Y-73531904D02*
X216905760Y-73608095D01*
X216905760Y-73608095D02*
X216943855Y-73684285D01*
X216943855Y-73684285D02*
X216943855Y-73836666D01*
X216943855Y-73836666D02*
X216905760Y-73912857D01*
X216905760Y-73912857D02*
X216829569Y-73989047D01*
X216829569Y-73989047D02*
X216677188Y-74027143D01*
X216677188Y-74027143D02*
X216410521Y-74027143D01*
X216410521Y-74027143D02*
X216258140Y-73989047D01*
X216258140Y-73989047D02*
X216181950Y-73912857D01*
X216181950Y-73912857D02*
X216143855Y-73836666D01*
X216143855Y-72808095D02*
X216143855Y-72960476D01*
X216143855Y-72960476D02*
X216181950Y-73036667D01*
X216181950Y-73036667D02*
X216220045Y-73074762D01*
X216220045Y-73074762D02*
X216334331Y-73150952D01*
X216334331Y-73150952D02*
X216486712Y-73189048D01*
X216486712Y-73189048D02*
X216791474Y-73189048D01*
X216791474Y-73189048D02*
X216867664Y-73150952D01*
X216867664Y-73150952D02*
X216905760Y-73112857D01*
X216905760Y-73112857D02*
X216943855Y-73036667D01*
X216943855Y-73036667D02*
X216943855Y-72884286D01*
X216943855Y-72884286D02*
X216905760Y-72808095D01*
X216905760Y-72808095D02*
X216867664Y-72770000D01*
X216867664Y-72770000D02*
X216791474Y-72731905D01*
X216791474Y-72731905D02*
X216600998Y-72731905D01*
X216600998Y-72731905D02*
X216524807Y-72770000D01*
X216524807Y-72770000D02*
X216486712Y-72808095D01*
X216486712Y-72808095D02*
X216448617Y-72884286D01*
X216448617Y-72884286D02*
X216448617Y-73036667D01*
X216448617Y-73036667D02*
X216486712Y-73112857D01*
X216486712Y-73112857D02*
X216524807Y-73150952D01*
X216524807Y-73150952D02*
X216600998Y-73189048D01*
X214403855Y-98069999D02*
X213603855Y-98069999D01*
X213603855Y-97536666D02*
X213603855Y-97384285D01*
X213603855Y-97384285D02*
X213641950Y-97308095D01*
X213641950Y-97308095D02*
X213718140Y-97231904D01*
X213718140Y-97231904D02*
X213870521Y-97193809D01*
X213870521Y-97193809D02*
X214137188Y-97193809D01*
X214137188Y-97193809D02*
X214289569Y-97231904D01*
X214289569Y-97231904D02*
X214365760Y-97308095D01*
X214365760Y-97308095D02*
X214403855Y-97384285D01*
X214403855Y-97384285D02*
X214403855Y-97536666D01*
X214403855Y-97536666D02*
X214365760Y-97612857D01*
X214365760Y-97612857D02*
X214289569Y-97689047D01*
X214289569Y-97689047D02*
X214137188Y-97727143D01*
X214137188Y-97727143D02*
X213870521Y-97727143D01*
X213870521Y-97727143D02*
X213718140Y-97689047D01*
X213718140Y-97689047D02*
X213641950Y-97612857D01*
X213641950Y-97612857D02*
X213603855Y-97536666D01*
X213946712Y-96736667D02*
X213908617Y-96812857D01*
X213908617Y-96812857D02*
X213870521Y-96850952D01*
X213870521Y-96850952D02*
X213794331Y-96889048D01*
X213794331Y-96889048D02*
X213756236Y-96889048D01*
X213756236Y-96889048D02*
X213680045Y-96850952D01*
X213680045Y-96850952D02*
X213641950Y-96812857D01*
X213641950Y-96812857D02*
X213603855Y-96736667D01*
X213603855Y-96736667D02*
X213603855Y-96584286D01*
X213603855Y-96584286D02*
X213641950Y-96508095D01*
X213641950Y-96508095D02*
X213680045Y-96470000D01*
X213680045Y-96470000D02*
X213756236Y-96431905D01*
X213756236Y-96431905D02*
X213794331Y-96431905D01*
X213794331Y-96431905D02*
X213870521Y-96470000D01*
X213870521Y-96470000D02*
X213908617Y-96508095D01*
X213908617Y-96508095D02*
X213946712Y-96584286D01*
X213946712Y-96584286D02*
X213946712Y-96736667D01*
X213946712Y-96736667D02*
X213984807Y-96812857D01*
X213984807Y-96812857D02*
X214022902Y-96850952D01*
X214022902Y-96850952D02*
X214099093Y-96889048D01*
X214099093Y-96889048D02*
X214251474Y-96889048D01*
X214251474Y-96889048D02*
X214327664Y-96850952D01*
X214327664Y-96850952D02*
X214365760Y-96812857D01*
X214365760Y-96812857D02*
X214403855Y-96736667D01*
X214403855Y-96736667D02*
X214403855Y-96584286D01*
X214403855Y-96584286D02*
X214365760Y-96508095D01*
X214365760Y-96508095D02*
X214327664Y-96470000D01*
X214327664Y-96470000D02*
X214251474Y-96431905D01*
X214251474Y-96431905D02*
X214099093Y-96431905D01*
X214099093Y-96431905D02*
X214022902Y-96470000D01*
X214022902Y-96470000D02*
X213984807Y-96508095D01*
X213984807Y-96508095D02*
X213946712Y-96584286D01*
X227103855Y-74369999D02*
X226303855Y-74369999D01*
X226303855Y-73836666D02*
X226303855Y-73684285D01*
X226303855Y-73684285D02*
X226341950Y-73608095D01*
X226341950Y-73608095D02*
X226418140Y-73531904D01*
X226418140Y-73531904D02*
X226570521Y-73493809D01*
X226570521Y-73493809D02*
X226837188Y-73493809D01*
X226837188Y-73493809D02*
X226989569Y-73531904D01*
X226989569Y-73531904D02*
X227065760Y-73608095D01*
X227065760Y-73608095D02*
X227103855Y-73684285D01*
X227103855Y-73684285D02*
X227103855Y-73836666D01*
X227103855Y-73836666D02*
X227065760Y-73912857D01*
X227065760Y-73912857D02*
X226989569Y-73989047D01*
X226989569Y-73989047D02*
X226837188Y-74027143D01*
X226837188Y-74027143D02*
X226570521Y-74027143D01*
X226570521Y-74027143D02*
X226418140Y-73989047D01*
X226418140Y-73989047D02*
X226341950Y-73912857D01*
X226341950Y-73912857D02*
X226303855Y-73836666D01*
X226380045Y-73189048D02*
X226341950Y-73150952D01*
X226341950Y-73150952D02*
X226303855Y-73074762D01*
X226303855Y-73074762D02*
X226303855Y-72884286D01*
X226303855Y-72884286D02*
X226341950Y-72808095D01*
X226341950Y-72808095D02*
X226380045Y-72770000D01*
X226380045Y-72770000D02*
X226456236Y-72731905D01*
X226456236Y-72731905D02*
X226532426Y-72731905D01*
X226532426Y-72731905D02*
X226646712Y-72770000D01*
X226646712Y-72770000D02*
X227103855Y-73227143D01*
X227103855Y-73227143D02*
X227103855Y-72731905D01*
X233923855Y-97422380D02*
X233923855Y-97803332D01*
X233923855Y-97803332D02*
X234304807Y-97841428D01*
X234304807Y-97841428D02*
X234266712Y-97803332D01*
X234266712Y-97803332D02*
X234228617Y-97727142D01*
X234228617Y-97727142D02*
X234228617Y-97536666D01*
X234228617Y-97536666D02*
X234266712Y-97460475D01*
X234266712Y-97460475D02*
X234304807Y-97422380D01*
X234304807Y-97422380D02*
X234380998Y-97384285D01*
X234380998Y-97384285D02*
X234571474Y-97384285D01*
X234571474Y-97384285D02*
X234647664Y-97422380D01*
X234647664Y-97422380D02*
X234685760Y-97460475D01*
X234685760Y-97460475D02*
X234723855Y-97536666D01*
X234723855Y-97536666D02*
X234723855Y-97727142D01*
X234723855Y-97727142D02*
X234685760Y-97803332D01*
X234685760Y-97803332D02*
X234647664Y-97841428D01*
X233923855Y-97155713D02*
X234723855Y-96889046D01*
X234723855Y-96889046D02*
X233923855Y-96622380D01*
X233923855Y-74179523D02*
X233923855Y-73722380D01*
X234723855Y-73950952D02*
X233923855Y-73950952D01*
X233923855Y-73531904D02*
X234723855Y-72998570D01*
X233923855Y-72998570D02*
X234723855Y-73531904D01*
X232183855Y-73703332D02*
X231802902Y-73969999D01*
X232183855Y-74160475D02*
X231383855Y-74160475D01*
X231383855Y-74160475D02*
X231383855Y-73855713D01*
X231383855Y-73855713D02*
X231421950Y-73779523D01*
X231421950Y-73779523D02*
X231460045Y-73741428D01*
X231460045Y-73741428D02*
X231536236Y-73703332D01*
X231536236Y-73703332D02*
X231650521Y-73703332D01*
X231650521Y-73703332D02*
X231726712Y-73741428D01*
X231726712Y-73741428D02*
X231764807Y-73779523D01*
X231764807Y-73779523D02*
X231802902Y-73855713D01*
X231802902Y-73855713D02*
X231802902Y-74160475D01*
X231383855Y-73436666D02*
X232183855Y-72903332D01*
X231383855Y-72903332D02*
X232183855Y-73436666D01*
X219483855Y-74369999D02*
X218683855Y-74369999D01*
X218683855Y-73836666D02*
X218683855Y-73684285D01*
X218683855Y-73684285D02*
X218721950Y-73608095D01*
X218721950Y-73608095D02*
X218798140Y-73531904D01*
X218798140Y-73531904D02*
X218950521Y-73493809D01*
X218950521Y-73493809D02*
X219217188Y-73493809D01*
X219217188Y-73493809D02*
X219369569Y-73531904D01*
X219369569Y-73531904D02*
X219445760Y-73608095D01*
X219445760Y-73608095D02*
X219483855Y-73684285D01*
X219483855Y-73684285D02*
X219483855Y-73836666D01*
X219483855Y-73836666D02*
X219445760Y-73912857D01*
X219445760Y-73912857D02*
X219369569Y-73989047D01*
X219369569Y-73989047D02*
X219217188Y-74027143D01*
X219217188Y-74027143D02*
X218950521Y-74027143D01*
X218950521Y-74027143D02*
X218798140Y-73989047D01*
X218798140Y-73989047D02*
X218721950Y-73912857D01*
X218721950Y-73912857D02*
X218683855Y-73836666D01*
X218683855Y-72770000D02*
X218683855Y-73150952D01*
X218683855Y-73150952D02*
X219064807Y-73189048D01*
X219064807Y-73189048D02*
X219026712Y-73150952D01*
X219026712Y-73150952D02*
X218988617Y-73074762D01*
X218988617Y-73074762D02*
X218988617Y-72884286D01*
X218988617Y-72884286D02*
X219026712Y-72808095D01*
X219026712Y-72808095D02*
X219064807Y-72770000D01*
X219064807Y-72770000D02*
X219140998Y-72731905D01*
X219140998Y-72731905D02*
X219331474Y-72731905D01*
X219331474Y-72731905D02*
X219407664Y-72770000D01*
X219407664Y-72770000D02*
X219445760Y-72808095D01*
X219445760Y-72808095D02*
X219483855Y-72884286D01*
X219483855Y-72884286D02*
X219483855Y-73074762D01*
X219483855Y-73074762D02*
X219445760Y-73150952D01*
X219445760Y-73150952D02*
X219407664Y-73189048D01*
X222023855Y-98450951D02*
X221223855Y-98450951D01*
X221223855Y-97917618D02*
X221223855Y-97765237D01*
X221223855Y-97765237D02*
X221261950Y-97689047D01*
X221261950Y-97689047D02*
X221338140Y-97612856D01*
X221338140Y-97612856D02*
X221490521Y-97574761D01*
X221490521Y-97574761D02*
X221757188Y-97574761D01*
X221757188Y-97574761D02*
X221909569Y-97612856D01*
X221909569Y-97612856D02*
X221985760Y-97689047D01*
X221985760Y-97689047D02*
X222023855Y-97765237D01*
X222023855Y-97765237D02*
X222023855Y-97917618D01*
X222023855Y-97917618D02*
X221985760Y-97993809D01*
X221985760Y-97993809D02*
X221909569Y-98069999D01*
X221909569Y-98069999D02*
X221757188Y-98108095D01*
X221757188Y-98108095D02*
X221490521Y-98108095D01*
X221490521Y-98108095D02*
X221338140Y-98069999D01*
X221338140Y-98069999D02*
X221261950Y-97993809D01*
X221261950Y-97993809D02*
X221223855Y-97917618D01*
X222023855Y-96812857D02*
X222023855Y-97270000D01*
X222023855Y-97041428D02*
X221223855Y-97041428D01*
X221223855Y-97041428D02*
X221338140Y-97117619D01*
X221338140Y-97117619D02*
X221414331Y-97193809D01*
X221414331Y-97193809D02*
X221452426Y-97270000D01*
X222023855Y-96050952D02*
X222023855Y-96508095D01*
X222023855Y-96279523D02*
X221223855Y-96279523D01*
X221223855Y-96279523D02*
X221338140Y-96355714D01*
X221338140Y-96355714D02*
X221414331Y-96431904D01*
X221414331Y-96431904D02*
X221452426Y-96508095D01*
X216943855Y-98069999D02*
X216143855Y-98069999D01*
X216143855Y-97536666D02*
X216143855Y-97384285D01*
X216143855Y-97384285D02*
X216181950Y-97308095D01*
X216181950Y-97308095D02*
X216258140Y-97231904D01*
X216258140Y-97231904D02*
X216410521Y-97193809D01*
X216410521Y-97193809D02*
X216677188Y-97193809D01*
X216677188Y-97193809D02*
X216829569Y-97231904D01*
X216829569Y-97231904D02*
X216905760Y-97308095D01*
X216905760Y-97308095D02*
X216943855Y-97384285D01*
X216943855Y-97384285D02*
X216943855Y-97536666D01*
X216943855Y-97536666D02*
X216905760Y-97612857D01*
X216905760Y-97612857D02*
X216829569Y-97689047D01*
X216829569Y-97689047D02*
X216677188Y-97727143D01*
X216677188Y-97727143D02*
X216410521Y-97727143D01*
X216410521Y-97727143D02*
X216258140Y-97689047D01*
X216258140Y-97689047D02*
X216181950Y-97612857D01*
X216181950Y-97612857D02*
X216143855Y-97536666D01*
X216943855Y-96812857D02*
X216943855Y-96660476D01*
X216943855Y-96660476D02*
X216905760Y-96584286D01*
X216905760Y-96584286D02*
X216867664Y-96546190D01*
X216867664Y-96546190D02*
X216753379Y-96470000D01*
X216753379Y-96470000D02*
X216600998Y-96431905D01*
X216600998Y-96431905D02*
X216296236Y-96431905D01*
X216296236Y-96431905D02*
X216220045Y-96470000D01*
X216220045Y-96470000D02*
X216181950Y-96508095D01*
X216181950Y-96508095D02*
X216143855Y-96584286D01*
X216143855Y-96584286D02*
X216143855Y-96736667D01*
X216143855Y-96736667D02*
X216181950Y-96812857D01*
X216181950Y-96812857D02*
X216220045Y-96850952D01*
X216220045Y-96850952D02*
X216296236Y-96889048D01*
X216296236Y-96889048D02*
X216486712Y-96889048D01*
X216486712Y-96889048D02*
X216562902Y-96850952D01*
X216562902Y-96850952D02*
X216600998Y-96812857D01*
X216600998Y-96812857D02*
X216639093Y-96736667D01*
X216639093Y-96736667D02*
X216639093Y-96584286D01*
X216639093Y-96584286D02*
X216600998Y-96508095D01*
X216600998Y-96508095D02*
X216562902Y-96470000D01*
X216562902Y-96470000D02*
X216486712Y-96431905D01*
X231421950Y-97879523D02*
X231383855Y-97955713D01*
X231383855Y-97955713D02*
X231383855Y-98069999D01*
X231383855Y-98069999D02*
X231421950Y-98184285D01*
X231421950Y-98184285D02*
X231498140Y-98260475D01*
X231498140Y-98260475D02*
X231574331Y-98298570D01*
X231574331Y-98298570D02*
X231726712Y-98336666D01*
X231726712Y-98336666D02*
X231840998Y-98336666D01*
X231840998Y-98336666D02*
X231993379Y-98298570D01*
X231993379Y-98298570D02*
X232069569Y-98260475D01*
X232069569Y-98260475D02*
X232145760Y-98184285D01*
X232145760Y-98184285D02*
X232183855Y-98069999D01*
X232183855Y-98069999D02*
X232183855Y-97993808D01*
X232183855Y-97993808D02*
X232145760Y-97879523D01*
X232145760Y-97879523D02*
X232107664Y-97841427D01*
X232107664Y-97841427D02*
X231840998Y-97841427D01*
X231840998Y-97841427D02*
X231840998Y-97993808D01*
X232183855Y-97498570D02*
X231383855Y-97498570D01*
X231383855Y-97498570D02*
X232183855Y-97041427D01*
X232183855Y-97041427D02*
X231383855Y-97041427D01*
X232183855Y-96660475D02*
X231383855Y-96660475D01*
X231383855Y-96660475D02*
X231383855Y-96469999D01*
X231383855Y-96469999D02*
X231421950Y-96355713D01*
X231421950Y-96355713D02*
X231498140Y-96279523D01*
X231498140Y-96279523D02*
X231574331Y-96241428D01*
X231574331Y-96241428D02*
X231726712Y-96203332D01*
X231726712Y-96203332D02*
X231840998Y-96203332D01*
X231840998Y-96203332D02*
X231993379Y-96241428D01*
X231993379Y-96241428D02*
X232069569Y-96279523D01*
X232069569Y-96279523D02*
X232145760Y-96355713D01*
X232145760Y-96355713D02*
X232183855Y-96469999D01*
X232183855Y-96469999D02*
X232183855Y-96660475D01*
X219483855Y-98450951D02*
X218683855Y-98450951D01*
X218683855Y-97917618D02*
X218683855Y-97765237D01*
X218683855Y-97765237D02*
X218721950Y-97689047D01*
X218721950Y-97689047D02*
X218798140Y-97612856D01*
X218798140Y-97612856D02*
X218950521Y-97574761D01*
X218950521Y-97574761D02*
X219217188Y-97574761D01*
X219217188Y-97574761D02*
X219369569Y-97612856D01*
X219369569Y-97612856D02*
X219445760Y-97689047D01*
X219445760Y-97689047D02*
X219483855Y-97765237D01*
X219483855Y-97765237D02*
X219483855Y-97917618D01*
X219483855Y-97917618D02*
X219445760Y-97993809D01*
X219445760Y-97993809D02*
X219369569Y-98069999D01*
X219369569Y-98069999D02*
X219217188Y-98108095D01*
X219217188Y-98108095D02*
X218950521Y-98108095D01*
X218950521Y-98108095D02*
X218798140Y-98069999D01*
X218798140Y-98069999D02*
X218721950Y-97993809D01*
X218721950Y-97993809D02*
X218683855Y-97917618D01*
X219483855Y-96812857D02*
X219483855Y-97270000D01*
X219483855Y-97041428D02*
X218683855Y-97041428D01*
X218683855Y-97041428D02*
X218798140Y-97117619D01*
X218798140Y-97117619D02*
X218874331Y-97193809D01*
X218874331Y-97193809D02*
X218912426Y-97270000D01*
X218683855Y-96317618D02*
X218683855Y-96241428D01*
X218683855Y-96241428D02*
X218721950Y-96165237D01*
X218721950Y-96165237D02*
X218760045Y-96127142D01*
X218760045Y-96127142D02*
X218836236Y-96089047D01*
X218836236Y-96089047D02*
X218988617Y-96050952D01*
X218988617Y-96050952D02*
X219179093Y-96050952D01*
X219179093Y-96050952D02*
X219331474Y-96089047D01*
X219331474Y-96089047D02*
X219407664Y-96127142D01*
X219407664Y-96127142D02*
X219445760Y-96165237D01*
X219445760Y-96165237D02*
X219483855Y-96241428D01*
X219483855Y-96241428D02*
X219483855Y-96317618D01*
X219483855Y-96317618D02*
X219445760Y-96393809D01*
X219445760Y-96393809D02*
X219407664Y-96431904D01*
X219407664Y-96431904D02*
X219331474Y-96469999D01*
X219331474Y-96469999D02*
X219179093Y-96508095D01*
X219179093Y-96508095D02*
X218988617Y-96508095D01*
X218988617Y-96508095D02*
X218836236Y-96469999D01*
X218836236Y-96469999D02*
X218760045Y-96431904D01*
X218760045Y-96431904D02*
X218721950Y-96393809D01*
X218721950Y-96393809D02*
X218683855Y-96317618D01*
X229643855Y-74369999D02*
X228843855Y-74369999D01*
X228843855Y-73836666D02*
X228843855Y-73684285D01*
X228843855Y-73684285D02*
X228881950Y-73608095D01*
X228881950Y-73608095D02*
X228958140Y-73531904D01*
X228958140Y-73531904D02*
X229110521Y-73493809D01*
X229110521Y-73493809D02*
X229377188Y-73493809D01*
X229377188Y-73493809D02*
X229529569Y-73531904D01*
X229529569Y-73531904D02*
X229605760Y-73608095D01*
X229605760Y-73608095D02*
X229643855Y-73684285D01*
X229643855Y-73684285D02*
X229643855Y-73836666D01*
X229643855Y-73836666D02*
X229605760Y-73912857D01*
X229605760Y-73912857D02*
X229529569Y-73989047D01*
X229529569Y-73989047D02*
X229377188Y-74027143D01*
X229377188Y-74027143D02*
X229110521Y-74027143D01*
X229110521Y-74027143D02*
X228958140Y-73989047D01*
X228958140Y-73989047D02*
X228881950Y-73912857D01*
X228881950Y-73912857D02*
X228843855Y-73836666D01*
X229643855Y-72731905D02*
X229643855Y-73189048D01*
X229643855Y-72960476D02*
X228843855Y-72960476D01*
X228843855Y-72960476D02*
X228958140Y-73036667D01*
X228958140Y-73036667D02*
X229034331Y-73112857D01*
X229034331Y-73112857D02*
X229072426Y-73189048D01*
X214403855Y-74369999D02*
X213603855Y-74369999D01*
X213603855Y-73836666D02*
X213603855Y-73684285D01*
X213603855Y-73684285D02*
X213641950Y-73608095D01*
X213641950Y-73608095D02*
X213718140Y-73531904D01*
X213718140Y-73531904D02*
X213870521Y-73493809D01*
X213870521Y-73493809D02*
X214137188Y-73493809D01*
X214137188Y-73493809D02*
X214289569Y-73531904D01*
X214289569Y-73531904D02*
X214365760Y-73608095D01*
X214365760Y-73608095D02*
X214403855Y-73684285D01*
X214403855Y-73684285D02*
X214403855Y-73836666D01*
X214403855Y-73836666D02*
X214365760Y-73912857D01*
X214365760Y-73912857D02*
X214289569Y-73989047D01*
X214289569Y-73989047D02*
X214137188Y-74027143D01*
X214137188Y-74027143D02*
X213870521Y-74027143D01*
X213870521Y-74027143D02*
X213718140Y-73989047D01*
X213718140Y-73989047D02*
X213641950Y-73912857D01*
X213641950Y-73912857D02*
X213603855Y-73836666D01*
X213603855Y-73227143D02*
X213603855Y-72693809D01*
X213603855Y-72693809D02*
X214403855Y-73036667D01*
X224563855Y-98450951D02*
X223763855Y-98450951D01*
X223763855Y-97917618D02*
X223763855Y-97765237D01*
X223763855Y-97765237D02*
X223801950Y-97689047D01*
X223801950Y-97689047D02*
X223878140Y-97612856D01*
X223878140Y-97612856D02*
X224030521Y-97574761D01*
X224030521Y-97574761D02*
X224297188Y-97574761D01*
X224297188Y-97574761D02*
X224449569Y-97612856D01*
X224449569Y-97612856D02*
X224525760Y-97689047D01*
X224525760Y-97689047D02*
X224563855Y-97765237D01*
X224563855Y-97765237D02*
X224563855Y-97917618D01*
X224563855Y-97917618D02*
X224525760Y-97993809D01*
X224525760Y-97993809D02*
X224449569Y-98069999D01*
X224449569Y-98069999D02*
X224297188Y-98108095D01*
X224297188Y-98108095D02*
X224030521Y-98108095D01*
X224030521Y-98108095D02*
X223878140Y-98069999D01*
X223878140Y-98069999D02*
X223801950Y-97993809D01*
X223801950Y-97993809D02*
X223763855Y-97917618D01*
X224563855Y-96812857D02*
X224563855Y-97270000D01*
X224563855Y-97041428D02*
X223763855Y-97041428D01*
X223763855Y-97041428D02*
X223878140Y-97117619D01*
X223878140Y-97117619D02*
X223954331Y-97193809D01*
X223954331Y-97193809D02*
X223992426Y-97270000D01*
X223840045Y-96508095D02*
X223801950Y-96469999D01*
X223801950Y-96469999D02*
X223763855Y-96393809D01*
X223763855Y-96393809D02*
X223763855Y-96203333D01*
X223763855Y-96203333D02*
X223801950Y-96127142D01*
X223801950Y-96127142D02*
X223840045Y-96089047D01*
X223840045Y-96089047D02*
X223916236Y-96050952D01*
X223916236Y-96050952D02*
X223992426Y-96050952D01*
X223992426Y-96050952D02*
X224106712Y-96089047D01*
X224106712Y-96089047D02*
X224563855Y-96546190D01*
X224563855Y-96546190D02*
X224563855Y-96050952D01*
X224563855Y-74369999D02*
X223763855Y-74369999D01*
X223763855Y-73836666D02*
X223763855Y-73684285D01*
X223763855Y-73684285D02*
X223801950Y-73608095D01*
X223801950Y-73608095D02*
X223878140Y-73531904D01*
X223878140Y-73531904D02*
X224030521Y-73493809D01*
X224030521Y-73493809D02*
X224297188Y-73493809D01*
X224297188Y-73493809D02*
X224449569Y-73531904D01*
X224449569Y-73531904D02*
X224525760Y-73608095D01*
X224525760Y-73608095D02*
X224563855Y-73684285D01*
X224563855Y-73684285D02*
X224563855Y-73836666D01*
X224563855Y-73836666D02*
X224525760Y-73912857D01*
X224525760Y-73912857D02*
X224449569Y-73989047D01*
X224449569Y-73989047D02*
X224297188Y-74027143D01*
X224297188Y-74027143D02*
X224030521Y-74027143D01*
X224030521Y-74027143D02*
X223878140Y-73989047D01*
X223878140Y-73989047D02*
X223801950Y-73912857D01*
X223801950Y-73912857D02*
X223763855Y-73836666D01*
X223763855Y-73227143D02*
X223763855Y-72731905D01*
X223763855Y-72731905D02*
X224068617Y-72998571D01*
X224068617Y-72998571D02*
X224068617Y-72884286D01*
X224068617Y-72884286D02*
X224106712Y-72808095D01*
X224106712Y-72808095D02*
X224144807Y-72770000D01*
X224144807Y-72770000D02*
X224220998Y-72731905D01*
X224220998Y-72731905D02*
X224411474Y-72731905D01*
X224411474Y-72731905D02*
X224487664Y-72770000D01*
X224487664Y-72770000D02*
X224525760Y-72808095D01*
X224525760Y-72808095D02*
X224563855Y-72884286D01*
X224563855Y-72884286D02*
X224563855Y-73112857D01*
X224563855Y-73112857D02*
X224525760Y-73189048D01*
X224525760Y-73189048D02*
X224487664Y-73227143D01*
X222023855Y-74369999D02*
X221223855Y-74369999D01*
X221223855Y-73836666D02*
X221223855Y-73684285D01*
X221223855Y-73684285D02*
X221261950Y-73608095D01*
X221261950Y-73608095D02*
X221338140Y-73531904D01*
X221338140Y-73531904D02*
X221490521Y-73493809D01*
X221490521Y-73493809D02*
X221757188Y-73493809D01*
X221757188Y-73493809D02*
X221909569Y-73531904D01*
X221909569Y-73531904D02*
X221985760Y-73608095D01*
X221985760Y-73608095D02*
X222023855Y-73684285D01*
X222023855Y-73684285D02*
X222023855Y-73836666D01*
X222023855Y-73836666D02*
X221985760Y-73912857D01*
X221985760Y-73912857D02*
X221909569Y-73989047D01*
X221909569Y-73989047D02*
X221757188Y-74027143D01*
X221757188Y-74027143D02*
X221490521Y-74027143D01*
X221490521Y-74027143D02*
X221338140Y-73989047D01*
X221338140Y-73989047D02*
X221261950Y-73912857D01*
X221261950Y-73912857D02*
X221223855Y-73836666D01*
X221490521Y-72808095D02*
X222023855Y-72808095D01*
X221185760Y-72998571D02*
X221757188Y-73189048D01*
X221757188Y-73189048D02*
X221757188Y-72693809D01*
X228843855Y-98260476D02*
X228843855Y-97765238D01*
X228843855Y-97765238D02*
X229148617Y-98031904D01*
X229148617Y-98031904D02*
X229148617Y-97917619D01*
X229148617Y-97917619D02*
X229186712Y-97841428D01*
X229186712Y-97841428D02*
X229224807Y-97803333D01*
X229224807Y-97803333D02*
X229300998Y-97765238D01*
X229300998Y-97765238D02*
X229491474Y-97765238D01*
X229491474Y-97765238D02*
X229567664Y-97803333D01*
X229567664Y-97803333D02*
X229605760Y-97841428D01*
X229605760Y-97841428D02*
X229643855Y-97917619D01*
X229643855Y-97917619D02*
X229643855Y-98146190D01*
X229643855Y-98146190D02*
X229605760Y-98222381D01*
X229605760Y-98222381D02*
X229567664Y-98260476D01*
X228843855Y-97536666D02*
X229643855Y-97269999D01*
X229643855Y-97269999D02*
X228843855Y-97003333D01*
X228843855Y-96812857D02*
X228843855Y-96317619D01*
X228843855Y-96317619D02*
X229148617Y-96584285D01*
X229148617Y-96584285D02*
X229148617Y-96470000D01*
X229148617Y-96470000D02*
X229186712Y-96393809D01*
X229186712Y-96393809D02*
X229224807Y-96355714D01*
X229224807Y-96355714D02*
X229300998Y-96317619D01*
X229300998Y-96317619D02*
X229491474Y-96317619D01*
X229491474Y-96317619D02*
X229567664Y-96355714D01*
X229567664Y-96355714D02*
X229605760Y-96393809D01*
X229605760Y-96393809D02*
X229643855Y-96470000D01*
X229643855Y-96470000D02*
X229643855Y-96698571D01*
X229643855Y-96698571D02*
X229605760Y-96774762D01*
X229605760Y-96774762D02*
X229567664Y-96812857D01*
D12*
X204831009Y-98464285D02*
X204878628Y-98321428D01*
X204878628Y-98321428D02*
X204926247Y-98273809D01*
X204926247Y-98273809D02*
X205021485Y-98226190D01*
X205021485Y-98226190D02*
X205164342Y-98226190D01*
X205164342Y-98226190D02*
X205259580Y-98273809D01*
X205259580Y-98273809D02*
X205307200Y-98321428D01*
X205307200Y-98321428D02*
X205354819Y-98416666D01*
X205354819Y-98416666D02*
X205354819Y-98797618D01*
X205354819Y-98797618D02*
X204354819Y-98797618D01*
X204354819Y-98797618D02*
X204354819Y-98464285D01*
X204354819Y-98464285D02*
X204402438Y-98369047D01*
X204402438Y-98369047D02*
X204450057Y-98321428D01*
X204450057Y-98321428D02*
X204545295Y-98273809D01*
X204545295Y-98273809D02*
X204640533Y-98273809D01*
X204640533Y-98273809D02*
X204735771Y-98321428D01*
X204735771Y-98321428D02*
X204783390Y-98369047D01*
X204783390Y-98369047D02*
X204831009Y-98464285D01*
X204831009Y-98464285D02*
X204831009Y-98797618D01*
X205069104Y-97845237D02*
X205069104Y-97369047D01*
X205354819Y-97940475D02*
X204354819Y-97607142D01*
X204354819Y-97607142D02*
X205354819Y-97273809D01*
X204354819Y-97083332D02*
X204354819Y-96511904D01*
X205354819Y-96797618D02*
X204354819Y-96797618D01*
X205354819Y-95654761D02*
X205354819Y-96226189D01*
X205354819Y-95940475D02*
X204354819Y-95940475D01*
X204354819Y-95940475D02*
X204497676Y-96035713D01*
X204497676Y-96035713D02*
X204592914Y-96130951D01*
X204592914Y-96130951D02*
X204640533Y-96226189D01*
X231091667Y-74207200D02*
X231234524Y-74254819D01*
X231234524Y-74254819D02*
X231472619Y-74254819D01*
X231472619Y-74254819D02*
X231567857Y-74207200D01*
X231567857Y-74207200D02*
X231615476Y-74159580D01*
X231615476Y-74159580D02*
X231663095Y-74064342D01*
X231663095Y-74064342D02*
X231663095Y-73969104D01*
X231663095Y-73969104D02*
X231615476Y-73873866D01*
X231615476Y-73873866D02*
X231567857Y-73826247D01*
X231567857Y-73826247D02*
X231472619Y-73778628D01*
X231472619Y-73778628D02*
X231282143Y-73731009D01*
X231282143Y-73731009D02*
X231186905Y-73683390D01*
X231186905Y-73683390D02*
X231139286Y-73635771D01*
X231139286Y-73635771D02*
X231091667Y-73540533D01*
X231091667Y-73540533D02*
X231091667Y-73445295D01*
X231091667Y-73445295D02*
X231139286Y-73350057D01*
X231139286Y-73350057D02*
X231186905Y-73302438D01*
X231186905Y-73302438D02*
X231282143Y-73254819D01*
X231282143Y-73254819D02*
X231520238Y-73254819D01*
X231520238Y-73254819D02*
X231663095Y-73302438D01*
X231996429Y-73254819D02*
X232234524Y-74254819D01*
X232234524Y-74254819D02*
X232425000Y-73540533D01*
X232425000Y-73540533D02*
X232615476Y-74254819D01*
X232615476Y-74254819D02*
X232853572Y-73254819D01*
X233139286Y-73254819D02*
X233758333Y-73254819D01*
X233758333Y-73254819D02*
X233425000Y-73635771D01*
X233425000Y-73635771D02*
X233567857Y-73635771D01*
X233567857Y-73635771D02*
X233663095Y-73683390D01*
X233663095Y-73683390D02*
X233710714Y-73731009D01*
X233710714Y-73731009D02*
X233758333Y-73826247D01*
X233758333Y-73826247D02*
X233758333Y-74064342D01*
X233758333Y-74064342D02*
X233710714Y-74159580D01*
X233710714Y-74159580D02*
X233663095Y-74207200D01*
X233663095Y-74207200D02*
X233567857Y-74254819D01*
X233567857Y-74254819D02*
X233282143Y-74254819D01*
X233282143Y-74254819D02*
X233186905Y-74207200D01*
X233186905Y-74207200D02*
X233139286Y-74159580D01*
X177791667Y-74207200D02*
X177934524Y-74254819D01*
X177934524Y-74254819D02*
X178172619Y-74254819D01*
X178172619Y-74254819D02*
X178267857Y-74207200D01*
X178267857Y-74207200D02*
X178315476Y-74159580D01*
X178315476Y-74159580D02*
X178363095Y-74064342D01*
X178363095Y-74064342D02*
X178363095Y-73969104D01*
X178363095Y-73969104D02*
X178315476Y-73873866D01*
X178315476Y-73873866D02*
X178267857Y-73826247D01*
X178267857Y-73826247D02*
X178172619Y-73778628D01*
X178172619Y-73778628D02*
X177982143Y-73731009D01*
X177982143Y-73731009D02*
X177886905Y-73683390D01*
X177886905Y-73683390D02*
X177839286Y-73635771D01*
X177839286Y-73635771D02*
X177791667Y-73540533D01*
X177791667Y-73540533D02*
X177791667Y-73445295D01*
X177791667Y-73445295D02*
X177839286Y-73350057D01*
X177839286Y-73350057D02*
X177886905Y-73302438D01*
X177886905Y-73302438D02*
X177982143Y-73254819D01*
X177982143Y-73254819D02*
X178220238Y-73254819D01*
X178220238Y-73254819D02*
X178363095Y-73302438D01*
X178696429Y-73254819D02*
X178934524Y-74254819D01*
X178934524Y-74254819D02*
X179125000Y-73540533D01*
X179125000Y-73540533D02*
X179315476Y-74254819D01*
X179315476Y-74254819D02*
X179553572Y-73254819D01*
X180125000Y-73254819D02*
X180220238Y-73254819D01*
X180220238Y-73254819D02*
X180315476Y-73302438D01*
X180315476Y-73302438D02*
X180363095Y-73350057D01*
X180363095Y-73350057D02*
X180410714Y-73445295D01*
X180410714Y-73445295D02*
X180458333Y-73635771D01*
X180458333Y-73635771D02*
X180458333Y-73873866D01*
X180458333Y-73873866D02*
X180410714Y-74064342D01*
X180410714Y-74064342D02*
X180363095Y-74159580D01*
X180363095Y-74159580D02*
X180315476Y-74207200D01*
X180315476Y-74207200D02*
X180220238Y-74254819D01*
X180220238Y-74254819D02*
X180125000Y-74254819D01*
X180125000Y-74254819D02*
X180029762Y-74207200D01*
X180029762Y-74207200D02*
X179982143Y-74159580D01*
X179982143Y-74159580D02*
X179934524Y-74064342D01*
X179934524Y-74064342D02*
X179886905Y-73873866D01*
X179886905Y-73873866D02*
X179886905Y-73635771D01*
X179886905Y-73635771D02*
X179934524Y-73445295D01*
X179934524Y-73445295D02*
X179982143Y-73350057D01*
X179982143Y-73350057D02*
X180029762Y-73302438D01*
X180029762Y-73302438D02*
X180125000Y-73254819D01*
X205001666Y-81644819D02*
X205001666Y-82359104D01*
X205001666Y-82359104D02*
X204954047Y-82501961D01*
X204954047Y-82501961D02*
X204858809Y-82597200D01*
X204858809Y-82597200D02*
X204715952Y-82644819D01*
X204715952Y-82644819D02*
X204620714Y-82644819D01*
X206001666Y-82644819D02*
X205430238Y-82644819D01*
X205715952Y-82644819D02*
X205715952Y-81644819D01*
X205715952Y-81644819D02*
X205620714Y-81787676D01*
X205620714Y-81787676D02*
X205525476Y-81882914D01*
X205525476Y-81882914D02*
X205430238Y-81930533D01*
X214091667Y-74207200D02*
X214234524Y-74254819D01*
X214234524Y-74254819D02*
X214472619Y-74254819D01*
X214472619Y-74254819D02*
X214567857Y-74207200D01*
X214567857Y-74207200D02*
X214615476Y-74159580D01*
X214615476Y-74159580D02*
X214663095Y-74064342D01*
X214663095Y-74064342D02*
X214663095Y-73969104D01*
X214663095Y-73969104D02*
X214615476Y-73873866D01*
X214615476Y-73873866D02*
X214567857Y-73826247D01*
X214567857Y-73826247D02*
X214472619Y-73778628D01*
X214472619Y-73778628D02*
X214282143Y-73731009D01*
X214282143Y-73731009D02*
X214186905Y-73683390D01*
X214186905Y-73683390D02*
X214139286Y-73635771D01*
X214139286Y-73635771D02*
X214091667Y-73540533D01*
X214091667Y-73540533D02*
X214091667Y-73445295D01*
X214091667Y-73445295D02*
X214139286Y-73350057D01*
X214139286Y-73350057D02*
X214186905Y-73302438D01*
X214186905Y-73302438D02*
X214282143Y-73254819D01*
X214282143Y-73254819D02*
X214520238Y-73254819D01*
X214520238Y-73254819D02*
X214663095Y-73302438D01*
X214996429Y-73254819D02*
X215234524Y-74254819D01*
X215234524Y-74254819D02*
X215425000Y-73540533D01*
X215425000Y-73540533D02*
X215615476Y-74254819D01*
X215615476Y-74254819D02*
X215853572Y-73254819D01*
X216186905Y-73350057D02*
X216234524Y-73302438D01*
X216234524Y-73302438D02*
X216329762Y-73254819D01*
X216329762Y-73254819D02*
X216567857Y-73254819D01*
X216567857Y-73254819D02*
X216663095Y-73302438D01*
X216663095Y-73302438D02*
X216710714Y-73350057D01*
X216710714Y-73350057D02*
X216758333Y-73445295D01*
X216758333Y-73445295D02*
X216758333Y-73540533D01*
X216758333Y-73540533D02*
X216710714Y-73683390D01*
X216710714Y-73683390D02*
X216139286Y-74254819D01*
X216139286Y-74254819D02*
X216758333Y-74254819D01*
X194816667Y-74207200D02*
X194959524Y-74254819D01*
X194959524Y-74254819D02*
X195197619Y-74254819D01*
X195197619Y-74254819D02*
X195292857Y-74207200D01*
X195292857Y-74207200D02*
X195340476Y-74159580D01*
X195340476Y-74159580D02*
X195388095Y-74064342D01*
X195388095Y-74064342D02*
X195388095Y-73969104D01*
X195388095Y-73969104D02*
X195340476Y-73873866D01*
X195340476Y-73873866D02*
X195292857Y-73826247D01*
X195292857Y-73826247D02*
X195197619Y-73778628D01*
X195197619Y-73778628D02*
X195007143Y-73731009D01*
X195007143Y-73731009D02*
X194911905Y-73683390D01*
X194911905Y-73683390D02*
X194864286Y-73635771D01*
X194864286Y-73635771D02*
X194816667Y-73540533D01*
X194816667Y-73540533D02*
X194816667Y-73445295D01*
X194816667Y-73445295D02*
X194864286Y-73350057D01*
X194864286Y-73350057D02*
X194911905Y-73302438D01*
X194911905Y-73302438D02*
X195007143Y-73254819D01*
X195007143Y-73254819D02*
X195245238Y-73254819D01*
X195245238Y-73254819D02*
X195388095Y-73302438D01*
X195721429Y-73254819D02*
X195959524Y-74254819D01*
X195959524Y-74254819D02*
X196150000Y-73540533D01*
X196150000Y-73540533D02*
X196340476Y-74254819D01*
X196340476Y-74254819D02*
X196578572Y-73254819D01*
X197483333Y-74254819D02*
X196911905Y-74254819D01*
X197197619Y-74254819D02*
X197197619Y-73254819D01*
X197197619Y-73254819D02*
X197102381Y-73397676D01*
X197102381Y-73397676D02*
X197007143Y-73492914D01*
X197007143Y-73492914D02*
X196911905Y-73540533D01*
X178882200Y-80358332D02*
X178929819Y-80215475D01*
X178929819Y-80215475D02*
X178929819Y-79977380D01*
X178929819Y-79977380D02*
X178882200Y-79882142D01*
X178882200Y-79882142D02*
X178834580Y-79834523D01*
X178834580Y-79834523D02*
X178739342Y-79786904D01*
X178739342Y-79786904D02*
X178644104Y-79786904D01*
X178644104Y-79786904D02*
X178548866Y-79834523D01*
X178548866Y-79834523D02*
X178501247Y-79882142D01*
X178501247Y-79882142D02*
X178453628Y-79977380D01*
X178453628Y-79977380D02*
X178406009Y-80167856D01*
X178406009Y-80167856D02*
X178358390Y-80263094D01*
X178358390Y-80263094D02*
X178310771Y-80310713D01*
X178310771Y-80310713D02*
X178215533Y-80358332D01*
X178215533Y-80358332D02*
X178120295Y-80358332D01*
X178120295Y-80358332D02*
X178025057Y-80310713D01*
X178025057Y-80310713D02*
X177977438Y-80263094D01*
X177977438Y-80263094D02*
X177929819Y-80167856D01*
X177929819Y-80167856D02*
X177929819Y-79929761D01*
X177929819Y-79929761D02*
X177977438Y-79786904D01*
X177929819Y-79453570D02*
X178929819Y-79215475D01*
X178929819Y-79215475D02*
X178215533Y-79024999D01*
X178215533Y-79024999D02*
X178929819Y-78834523D01*
X178929819Y-78834523D02*
X177929819Y-78596428D01*
X178263152Y-77786904D02*
X178929819Y-77786904D01*
X177882200Y-78024999D02*
X178596485Y-78263094D01*
X178596485Y-78263094D02*
X178596485Y-77644047D01*
D11*
%TO.C,U1*%
X212200000Y-76420000D02*
X236200000Y-76420000D01*
X212200000Y-94420000D02*
X212200000Y-76420000D01*
X236200000Y-76420000D02*
X236200000Y-94420000D01*
X236200000Y-94420000D02*
X212200000Y-94420000D01*
%TO.C,BAT1*%
X204840001Y-95535000D02*
X204840001Y-98965000D01*
X207660000Y-94265000D02*
X209110000Y-94265000D01*
X207660000Y-100235000D02*
X209110000Y-100235000D01*
X209110000Y-94265000D02*
X209110000Y-96065000D01*
X209110000Y-96065000D02*
X210100000Y-96065000D01*
X209110000Y-100235000D02*
X209110000Y-98435000D01*
%TO.C,SW3*%
X229975000Y-71075000D02*
X229975000Y-70525000D01*
X231000000Y-68950000D02*
X230075000Y-68950000D01*
X234775000Y-68950000D02*
X233850000Y-68950000D01*
X234775000Y-72650000D02*
X230075000Y-72650000D01*
X234875000Y-71075000D02*
X234875000Y-70525000D01*
%TO.C,SW0*%
X176675000Y-71075000D02*
X176675000Y-70525000D01*
X177700000Y-68950000D02*
X176775000Y-68950000D01*
X181475000Y-68950000D02*
X180550000Y-68950000D01*
X181475000Y-72650000D02*
X176775000Y-72650000D01*
X181575000Y-71075000D02*
X181575000Y-70525000D01*
%TO.C,SW5*%
X172150000Y-87110000D02*
X172150000Y-94910000D01*
X172150000Y-87110000D02*
X176250000Y-87110000D01*
X176200000Y-90110000D02*
X176200000Y-89410000D01*
X176200000Y-92610000D02*
X176200000Y-91910000D01*
X176200000Y-94910000D02*
X172150000Y-94910000D01*
D13*
X176250000Y-87910000D02*
X176250000Y-87110000D01*
X176250000Y-94010000D02*
X176250000Y-94910000D01*
D11*
%TO.C,J1*%
X180765000Y-78395000D02*
X180765000Y-75285000D01*
X180765000Y-83475000D02*
X180765000Y-79915000D01*
X180765000Y-88555000D02*
X180765000Y-84995000D01*
X180765000Y-93635000D02*
X180765000Y-90075000D01*
X180765000Y-95155000D02*
X179245000Y-95155000D01*
X180765000Y-95725000D02*
X180765000Y-95155000D01*
X181435000Y-70000000D02*
X229435000Y-70000000D01*
X181435000Y-101000000D02*
X181435000Y-70000000D01*
X183425000Y-75285000D02*
X180765000Y-75285000D01*
X183425000Y-75855000D02*
X183425000Y-75285000D01*
X183425000Y-80935000D02*
X183425000Y-77375000D01*
X183425000Y-86015000D02*
X183425000Y-82455000D01*
X183425000Y-91095000D02*
X183425000Y-87535000D01*
X183425000Y-95725000D02*
X180765000Y-95725000D01*
X183425000Y-95725000D02*
X183425000Y-92615000D01*
X229435000Y-70000000D02*
X229435000Y-101000000D01*
X229435000Y-101000000D02*
X181435000Y-101000000D01*
%TO.C,SW2*%
X212975000Y-71075000D02*
X212975000Y-70525000D01*
X214000000Y-68950000D02*
X213075000Y-68950000D01*
X217775000Y-68950000D02*
X216850000Y-68950000D01*
X217775000Y-72650000D02*
X213075000Y-72650000D01*
X217875000Y-71075000D02*
X217875000Y-70525000D01*
%TO.C,SW1*%
X193700000Y-71075000D02*
X193700000Y-70525000D01*
X194725000Y-68950000D02*
X193800000Y-68950000D01*
X198500000Y-68950000D02*
X197575000Y-68950000D01*
X198500000Y-72650000D02*
X193800000Y-72650000D01*
X198600000Y-71075000D02*
X198600000Y-70525000D01*
%TO.C,SW4*%
X173625000Y-76675000D02*
X173625000Y-77600000D01*
X173625000Y-80450000D02*
X173625000Y-81375000D01*
X175750000Y-76575000D02*
X175200000Y-76575000D01*
X175750000Y-81475000D02*
X175200000Y-81475000D01*
X177325000Y-76675000D02*
X177325000Y-81375000D01*
%TD*%
M02*
