  0
SECTION
  2
HEADER
  9
$ANGBASE
  50
0.0
  9
$ANGDIR
  70
1
  9
$MEASUREMENT
  70
1
  0
ENDSEC
  0
SECTION
  2
TABLES
  0
TABLE
  2
LTYPE
  70
4
  0
LTYPE
  5
40F
  2
CONTINUOUS
  70
0
  3
Solid line
  72
65
  73
0
  40
0.0
  0
LTYPE
  5
410
  2
DASHDOT
 70
0
  3
Dash Dot ____ _ ____ _
 72
65
 73
4
 40
2.0
 49
1.25
 49
-0.25
 49
0.25
 49
-0.25
  0
LTYPE
  5
411
  2
DASHED
 70
0
  3
Dashed __ __ __ __ __
 72
65
 73
2
 40
0.75
 49
0.5
 49
-0.25
  0
LTYPE
  5
43B
  2
DOTTED
 70
0
  3
Dotted .  .  .  .
 72
65
 73
2
 40
0.2
 49
0.0
 49
-0.2
  0
ENDTAB
  0
TABLE
  2
STYLE
  70
4
  0
STYLE
  2
KICAD
  70
0
  40
0
  41
1
  42
1
  50
0
  71
0
  3
isocp.shx
  0
STYLE
  2
KICADB
  70
0
  40
0
  41
1
  42
1
  50
0
  71
0
  3
isocp.shx
  0
STYLE
  2
KICADI
  70
0
  40
0
  41
1
  42
1
  50
15
  71
0
  3
isocp.shx
  0
STYLE
  2
KICADBI
  70
0
  40
0
  41
1
  42
1
  50
15
  71
0
  3
isocp.shx
  0
ENDTAB
  0
TABLE
  2
LAYER
  70
1
  0
LAYER
  2
BLACK
  70
0
  62
7
  6
CONTINUOUS
  0
ENDTAB
  0
ENDSEC
  0
SECTION
  2
ENTITIES
0
LINE
8
BLACK
6
CONTINUOUS
10
183.1956710000000044
20
-99.8690299999999951
11
183.2767769999999814
21
-99.923222999999993
0
LINE
8
BLACK
6
CONTINUOUS
10
183.2767769999999814
20
-99.923222999999993
11
183.3309699999999793
21
-100.0043289999999985
0
LINE
8
BLACK
6
CONTINUOUS
10
183.3309699999999793
20
-100.0043289999999985
11
183.3499999999999943
21
-100.0999999999999943
0
LINE
8
BLACK
6
CONTINUOUS
10
183.3499999999999943
20
-100.0999999999999943
11
183.3499999999999943
21
-100.5999999999999943
0
LINE
8
BLACK
6
CONTINUOUS
10
183.3499999999999943
20
-100.5999999999999943
11
183.3309699999999793
21
-100.6956709999999902
0
LINE
8
BLACK
6
CONTINUOUS
10
183.3309699999999793
20
-100.6956709999999902
11
183.2767769999999814
21
-100.7767769999999956
0
LINE
8
BLACK
6
CONTINUOUS
10
183.2767769999999814
20
-100.7767769999999956
11
183.1956710000000044
21
-100.8309699999999935
0
LINE
8
BLACK
6
CONTINUOUS
10
183.1956710000000044
20
-100.8309699999999935
11
183.0999999999999943
21
-100.8499999999999943
0
LINE
8
BLACK
6
CONTINUOUS
10
183.0999999999999943
20
-100.8499999999999943
11
180.9000000000000057
21
-100.8499999999999943
0
LINE
8
BLACK
6
CONTINUOUS
10
180.9000000000000057
20
-100.8499999999999943
11
180.8043289999999956
21
-100.8309699999999935
0
LINE
8
BLACK
6
CONTINUOUS
10
180.8043289999999956
20
-100.8309699999999935
11
180.7232229999999902
21
-100.7767769999999956
0
LINE
8
BLACK
6
CONTINUOUS
10
180.7232229999999902
20
-100.7767769999999956
11
180.6690299999999922
21
-100.6956709999999902
0
LINE
8
BLACK
6
CONTINUOUS
10
180.6690299999999922
20
-100.6956709999999902
11
180.6500000000000057
21
-100.5999999999999943
0
LINE
8
BLACK
6
CONTINUOUS
10
180.6500000000000057
20
-100.5999999999999943
11
180.6500000000000057
21
-100.0999999999999943
0
LINE
8
BLACK
6
CONTINUOUS
10
180.6500000000000057
20
-100.0999999999999943
11
180.6690299999999922
21
-100.0043289999999985
0
LINE
8
BLACK
6
CONTINUOUS
10
180.6690299999999922
20
-100.0043289999999985
11
180.7232229999999902
21
-99.923222999999993
0
LINE
8
BLACK
6
CONTINUOUS
10
180.7232229999999902
20
-99.923222999999993
11
180.8043289999999956
21
-99.8690299999999951
0
LINE
8
BLACK
6
CONTINUOUS
10
180.8043289999999956
20
-99.8690299999999951
11
180.9000000000000057
21
-99.8499999999999943
0
LINE
8
BLACK
6
CONTINUOUS
10
180.9000000000000057
20
-99.8499999999999943
11
183.0999999999999943
21
-99.8499999999999943
0
LINE
8
BLACK
6
CONTINUOUS
10
183.0999999999999943
20
-99.8499999999999943
11
183.1956710000000044
21
-99.8690299999999951
0
LINE
8
BLACK
6
CONTINUOUS
10
179.5574029999999937
20
-98.2114179999999948
11
179.6060659999999984
21
-98.2439339999999959
0
LINE
8
BLACK
6
CONTINUOUS
10
179.6060659999999984
20
-98.2439339999999959
11
179.6385819999999853
21
-98.2925970000000007
0
LINE
8
BLACK
6
CONTINUOUS
10
179.6385819999999853
20
-98.2925970000000007
11
179.6500000000000057
21
-98.3499999999999943
0
LINE
8
BLACK
6
CONTINUOUS
10
179.6500000000000057
20
-98.3499999999999943
11
179.6500000000000057
21
-98.6499999999999915
0
LINE
8
BLACK
6
CONTINUOUS
10
179.6500000000000057
20
-98.6499999999999915
11
179.6385819999999853
21
-98.7074029999999993
0
LINE
8
BLACK
6
CONTINUOUS
10
179.6385819999999853
20
-98.7074029999999993
11
179.6060659999999984
21
-98.7560659999999899
0
LINE
8
BLACK
6
CONTINUOUS
10
179.6060659999999984
20
-98.7560659999999899
11
179.5574029999999937
21
-98.788581999999991
0
LINE
8
BLACK
6
CONTINUOUS
10
179.5574029999999937
20
-98.788581999999991
11
179.5
21
-98.7999999999999972
0
LINE
8
BLACK
6
CONTINUOUS
10
179.5
20
-98.7999999999999972
11
178.0999999999999943
21
-98.7999999999999972
0
LINE
8
BLACK
6
CONTINUOUS
10
178.0999999999999943
20
-98.7999999999999972
11
178.0425970000000007
21
-98.788581999999991
0
LINE
8
BLACK
6
CONTINUOUS
10
178.0425970000000007
20
-98.788581999999991
11
177.9939339999999959
21
-98.7560659999999899
0
LINE
8
BLACK
6
CONTINUOUS
10
177.9939339999999959
20
-98.7560659999999899
11
177.9614179999999806
21
-98.7074029999999993
0
LINE
8
BLACK
6
CONTINUOUS
10
177.9614179999999806
20
-98.7074029999999993
11
177.9499999999999886
21
-98.6499999999999915
0
LINE
8
BLACK
6
CONTINUOUS
10
177.9499999999999886
20
-98.6499999999999915
11
177.9499999999999886
21
-98.3499999999999943
0
LINE
8
BLACK
6
CONTINUOUS
10
177.9499999999999886
20
-98.3499999999999943
11
177.9614179999999806
21
-98.2925970000000007
0
LINE
8
BLACK
6
CONTINUOUS
10
177.9614179999999806
20
-98.2925970000000007
11
177.9939339999999959
21
-98.2439339999999959
0
LINE
8
BLACK
6
CONTINUOUS
10
177.9939339999999959
20
-98.2439339999999959
11
178.0425970000000007
21
-98.2114179999999948
0
LINE
8
BLACK
6
CONTINUOUS
10
178.0425970000000007
20
-98.2114179999999948
11
178.0999999999999943
21
-98.1999999999999886
0
LINE
8
BLACK
6
CONTINUOUS
10
178.0999999999999943
20
-98.1999999999999886
11
179.5
21
-98.1999999999999886
0
LINE
8
BLACK
6
CONTINUOUS
10
179.5
20
-98.1999999999999886
11
179.5574029999999937
21
-98.2114179999999948
0
LINE
8
BLACK
6
CONTINUOUS
10
179.5574029999999937
20
-96.9614179999999948
11
179.6060659999999984
21
-96.9939339999999959
0
LINE
8
BLACK
6
CONTINUOUS
10
179.6060659999999984
20
-96.9939339999999959
11
179.6385819999999853
21
-97.0425970000000007
0
LINE
8
BLACK
6
CONTINUOUS
10
179.6385819999999853
20
-97.0425970000000007
11
179.6500000000000057
21
-97.0999999999999943
0
LINE
8
BLACK
6
CONTINUOUS
10
179.6500000000000057
20
-97.0999999999999943
11
179.6500000000000057
21
-97.3999999999999915
0
LINE
8
BLACK
6
CONTINUOUS
10
179.6500000000000057
20
-97.3999999999999915
11
179.6385819999999853
21
-97.4574029999999993
0
LINE
8
BLACK
6
CONTINUOUS
10
179.6385819999999853
20
-97.4574029999999993
11
179.6060659999999984
21
-97.5060659999999899
0
LINE
8
BLACK
6
CONTINUOUS
10
179.6060659999999984
20
-97.5060659999999899
11
179.5574029999999937
21
-97.538581999999991
0
LINE
8
BLACK
6
CONTINUOUS
10
179.5574029999999937
20
-97.538581999999991
11
179.5
21
-97.5499999999999972
0
LINE
8
BLACK
6
CONTINUOUS
10
179.5
20
-97.5499999999999972
11
178.0999999999999943
21
-97.5499999999999972
0
LINE
8
BLACK
6
CONTINUOUS
10
178.0999999999999943
20
-97.5499999999999972
11
178.0425970000000007
21
-97.538581999999991
0
LINE
8
BLACK
6
CONTINUOUS
10
178.0425970000000007
20
-97.538581999999991
11
177.9939339999999959
21
-97.5060659999999899
0
LINE
8
BLACK
6
CONTINUOUS
10
177.9939339999999959
20
-97.5060659999999899
11
177.9614179999999806
21
-97.4574029999999993
0
LINE
8
BLACK
6
CONTINUOUS
10
177.9614179999999806
20
-97.4574029999999993
11
177.9499999999999886
21
-97.3999999999999915
0
LINE
8
BLACK
6
CONTINUOUS
10
177.9499999999999886
20
-97.3999999999999915
11
177.9499999999999886
21
-97.0999999999999943
0
LINE
8
BLACK
6
CONTINUOUS
10
177.9499999999999886
20
-97.0999999999999943
11
177.9614179999999806
21
-97.0425970000000007
0
LINE
8
BLACK
6
CONTINUOUS
10
177.9614179999999806
20
-97.0425970000000007
11
177.9939339999999959
21
-96.9939339999999959
0
LINE
8
BLACK
6
CONTINUOUS
10
177.9939339999999959
20
-96.9939339999999959
11
178.0425970000000007
21
-96.9614179999999948
0
LINE
8
BLACK
6
CONTINUOUS
10
178.0425970000000007
20
-96.9614179999999948
11
178.0999999999999943
21
-96.9499999999999886
0
LINE
8
BLACK
6
CONTINUOUS
10
178.0999999999999943
20
-96.9499999999999886
11
179.5
21
-96.9499999999999886
0
LINE
8
BLACK
6
CONTINUOUS
10
179.5
20
-96.9499999999999886
11
179.5574029999999937
21
-96.9614179999999948
0
LINE
8
BLACK
6
CONTINUOUS
10
183.1956710000000044
20
-94.9190299999999922
11
183.2767769999999814
21
-94.9732229999999902
0
LINE
8
BLACK
6
CONTINUOUS
10
183.2767769999999814
20
-94.9732229999999902
11
183.3309699999999793
21
-95.0543289999999956
0
LINE
8
BLACK
6
CONTINUOUS
10
183.3309699999999793
20
-95.0543289999999956
11
183.3499999999999943
21
-95.1499999999999915
0
LINE
8
BLACK
6
CONTINUOUS
10
183.3499999999999943
20
-95.1499999999999915
11
183.3499999999999943
21
-95.6499999999999915
0
LINE
8
BLACK
6
CONTINUOUS
10
183.3499999999999943
20
-95.6499999999999915
11
183.3309699999999793
21
-95.7456710000000015
0
LINE
8
BLACK
6
CONTINUOUS
10
183.3309699999999793
20
-95.7456710000000015
11
183.2767769999999814
21
-95.8267769999999928
0
LINE
8
BLACK
6
CONTINUOUS
10
183.2767769999999814
20
-95.8267769999999928
11
183.1956710000000044
21
-95.8809699999999907
0
LINE
8
BLACK
6
CONTINUOUS
10
183.1956710000000044
20
-95.8809699999999907
11
183.0999999999999943
21
-95.8999999999999915
0
LINE
8
BLACK
6
CONTINUOUS
10
183.0999999999999943
20
-95.8999999999999915
11
180.9000000000000057
21
-95.8999999999999915
0
LINE
8
BLACK
6
CONTINUOUS
10
180.9000000000000057
20
-95.8999999999999915
11
180.8043289999999956
21
-95.8809699999999907
0
LINE
8
BLACK
6
CONTINUOUS
10
180.8043289999999956
20
-95.8809699999999907
11
180.7232229999999902
21
-95.8267769999999928
0
LINE
8
BLACK
6
CONTINUOUS
10
180.7232229999999902
20
-95.8267769999999928
11
180.6690299999999922
21
-95.7456710000000015
0
LINE
8
BLACK
6
CONTINUOUS
10
180.6690299999999922
20
-95.7456710000000015
11
180.6500000000000057
21
-95.6499999999999915
0
LINE
8
BLACK
6
CONTINUOUS
10
180.6500000000000057
20
-95.6499999999999915
11
180.6500000000000057
21
-95.1499999999999915
0
LINE
8
BLACK
6
CONTINUOUS
10
180.6500000000000057
20
-95.1499999999999915
11
180.6690299999999922
21
-95.0543289999999956
0
LINE
8
BLACK
6
CONTINUOUS
10
180.6690299999999922
20
-95.0543289999999956
11
180.7232229999999902
21
-94.9732229999999902
0
LINE
8
BLACK
6
CONTINUOUS
10
180.7232229999999902
20
-94.9732229999999902
11
180.8043289999999956
21
-94.9190299999999922
0
LINE
8
BLACK
6
CONTINUOUS
10
180.8043289999999956
20
-94.9190299999999922
11
180.9000000000000057
21
-94.8999999999999915
0
LINE
8
BLACK
6
CONTINUOUS
10
180.9000000000000057
20
-94.8999999999999915
11
183.0999999999999943
21
-94.8999999999999915
0
LINE
8
BLACK
6
CONTINUOUS
10
183.0999999999999943
20
-94.8999999999999915
11
183.1956710000000044
21
-94.9190299999999922
0
LINE
8
BLACK
6
CONTINUOUS
10
214.7399999999999807
20
-95.5899999999999892
11
213.3400000000000034
21
-95.5899999999999892
0
LINE
8
BLACK
6
CONTINUOUS
10
213.3400000000000034
20
-95.5899999999999892
11
213.3400000000000034
21
-93.1899999999999977
0
LINE
8
BLACK
6
CONTINUOUS
10
213.3400000000000034
20
-93.1899999999999977
11
214.7399999999999807
21
-93.1899999999999977
0
LINE
8
BLACK
6
CONTINUOUS
10
214.7399999999999807
20
-93.1899999999999977
11
214.7399999999999807
21
-95.5899999999999892
0
LINE
8
BLACK
6
CONTINUOUS
10
217.2800000000000011
20
-95.5899999999999892
11
215.8799999999999955
21
-95.5899999999999892
0
LINE
8
BLACK
6
CONTINUOUS
10
215.8799999999999955
20
-95.5899999999999892
11
215.8799999999999955
21
-93.1899999999999977
0
LINE
8
BLACK
6
CONTINUOUS
10
215.8799999999999955
20
-93.1899999999999977
11
217.2800000000000011
21
-93.1899999999999977
0
LINE
8
BLACK
6
CONTINUOUS
10
217.2800000000000011
20
-93.1899999999999977
11
217.2800000000000011
21
-95.5899999999999892
0
LINE
8
BLACK
6
CONTINUOUS
10
219.8199999999999932
20
-95.5899999999999892
11
218.4199999999999875
21
-95.5899999999999892
0
LINE
8
BLACK
6
CONTINUOUS
10
218.4199999999999875
20
-95.5899999999999892
11
218.4199999999999875
21
-93.1899999999999977
0
LINE
8
BLACK
6
CONTINUOUS
10
218.4199999999999875
20
-93.1899999999999977
11
219.8199999999999932
21
-93.1899999999999977
0
LINE
8
BLACK
6
CONTINUOUS
10
219.8199999999999932
20
-93.1899999999999977
11
219.8199999999999932
21
-95.5899999999999892
0
LINE
8
BLACK
6
CONTINUOUS
10
222.3599999999999852
20
-95.5899999999999892
11
220.9599999999999795
21
-95.5899999999999892
0
LINE
8
BLACK
6
CONTINUOUS
10
220.9599999999999795
20
-95.5899999999999892
11
220.9599999999999795
21
-93.1899999999999977
0
LINE
8
BLACK
6
CONTINUOUS
10
220.9599999999999795
20
-93.1899999999999977
11
222.3599999999999852
21
-93.1899999999999977
0
LINE
8
BLACK
6
CONTINUOUS
10
222.3599999999999852
20
-93.1899999999999977
11
222.3599999999999852
21
-95.5899999999999892
0
LINE
8
BLACK
6
CONTINUOUS
10
224.8999999999999773
20
-95.5899999999999892
11
223.5
21
-95.5899999999999892
0
LINE
8
BLACK
6
CONTINUOUS
10
223.5
20
-95.5899999999999892
11
223.5
21
-93.1899999999999977
0
LINE
8
BLACK
6
CONTINUOUS
10
223.5
20
-93.1899999999999977
11
224.8999999999999773
21
-93.1899999999999977
0
LINE
8
BLACK
6
CONTINUOUS
10
224.8999999999999773
20
-93.1899999999999977
11
224.8999999999999773
21
-95.5899999999999892
0
LINE
8
BLACK
6
CONTINUOUS
10
227.4399999999999977
20
-95.5899999999999892
11
226.039999999999992
21
-95.5899999999999892
0
LINE
8
BLACK
6
CONTINUOUS
10
226.039999999999992
20
-95.5899999999999892
11
226.039999999999992
21
-93.1899999999999977
0
LINE
8
BLACK
6
CONTINUOUS
10
226.039999999999992
20
-93.1899999999999977
11
227.4399999999999977
21
-93.1899999999999977
0
LINE
8
BLACK
6
CONTINUOUS
10
227.4399999999999977
20
-93.1899999999999977
11
227.4399999999999977
21
-95.5899999999999892
0
LINE
8
BLACK
6
CONTINUOUS
10
229.9799999999999898
20
-95.5899999999999892
11
228.5799999999999841
21
-95.5899999999999892
0
LINE
8
BLACK
6
CONTINUOUS
10
228.5799999999999841
20
-95.5899999999999892
11
228.5799999999999841
21
-93.1899999999999977
0
LINE
8
BLACK
6
CONTINUOUS
10
228.5799999999999841
20
-93.1899999999999977
11
229.9799999999999898
21
-93.1899999999999977
0
LINE
8
BLACK
6
CONTINUOUS
10
229.9799999999999898
20
-93.1899999999999977
11
229.9799999999999898
21
-95.5899999999999892
0
LINE
8
BLACK
6
CONTINUOUS
10
232.5199999999999818
20
-95.5899999999999892
11
231.1199999999999761
21
-95.5899999999999892
0
LINE
8
BLACK
6
CONTINUOUS
10
231.1199999999999761
20
-95.5899999999999892
11
231.1199999999999761
21
-93.1899999999999977
0
LINE
8
BLACK
6
CONTINUOUS
10
231.1199999999999761
20
-93.1899999999999977
11
232.5199999999999818
21
-93.1899999999999977
0
LINE
8
BLACK
6
CONTINUOUS
10
232.5199999999999818
20
-93.1899999999999977
11
232.5199999999999818
21
-95.5899999999999892
0
LINE
8
BLACK
6
CONTINUOUS
10
235.0600000000000023
20
-95.5899999999999892
11
233.6599999999999966
21
-95.5899999999999892
0
LINE
8
BLACK
6
CONTINUOUS
10
233.6599999999999966
20
-95.5899999999999892
11
233.6599999999999966
21
-93.1899999999999977
0
LINE
8
BLACK
6
CONTINUOUS
10
233.6599999999999966
20
-93.1899999999999977
11
235.0600000000000023
21
-93.1899999999999977
0
LINE
8
BLACK
6
CONTINUOUS
10
235.0600000000000023
20
-93.1899999999999977
11
235.0600000000000023
21
-95.5899999999999892
0
LINE
8
BLACK
6
CONTINUOUS
10
187.8700000000000045
20
-94.894999999999996
11
185.3599999999999852
21
-94.894999999999996
0
LINE
8
BLACK
6
CONTINUOUS
10
185.3599999999999852
20
-94.894999999999996
11
185.3599999999999852
21
-93.894999999999996
0
LINE
8
BLACK
6
CONTINUOUS
10
185.3599999999999852
20
-93.894999999999996
11
187.8700000000000045
21
-93.894999999999996
0
LINE
8
BLACK
6
CONTINUOUS
10
187.8700000000000045
20
-93.894999999999996
11
187.8700000000000045
21
-94.894999999999996
0
LINE
8
BLACK
6
CONTINUOUS
10
191.1799999999999784
20
-92.3549999999999898
11
188.6699999999999875
21
-92.3549999999999898
0
LINE
8
BLACK
6
CONTINUOUS
10
188.6699999999999875
20
-92.3549999999999898
11
188.6699999999999875
21
-91.3549999999999898
0
LINE
8
BLACK
6
CONTINUOUS
10
188.6699999999999875
20
-91.3549999999999898
11
191.1799999999999784
21
-91.3549999999999898
0
LINE
8
BLACK
6
CONTINUOUS
10
191.1799999999999784
20
-91.3549999999999898
11
191.1799999999999784
21
-92.3549999999999898
0
LINE
8
BLACK
6
CONTINUOUS
10
181.8518439999999998
20
-89.4182689999999951
11
181.9297059999999817
21
-89.4702939999999955
0
LINE
8
BLACK
6
CONTINUOUS
10
181.9297059999999817
20
-89.4702939999999955
11
181.9817309999999964
21
-89.5481559999999916
0
LINE
8
BLACK
6
CONTINUOUS
10
181.9817309999999964
20
-89.5481559999999916
11
182.
21
-89.6400000000000006
0
LINE
8
BLACK
6
CONTINUOUS
10
182.
20
-89.6400000000000006
11
182.
21
-90.3599999999999994
0
LINE
8
BLACK
6
CONTINUOUS
10
182.
20
-90.3599999999999994
11
181.9817309999999964
21
-90.4518439999999941
0
LINE
8
BLACK
6
CONTINUOUS
10
181.9817309999999964
20
-90.4518439999999941
11
181.9297059999999817
21
-90.5297059999999902
0
LINE
8
BLACK
6
CONTINUOUS
10
181.9297059999999817
20
-90.5297059999999902
11
181.8518439999999998
21
-90.5817309999999907
0
LINE
8
BLACK
6
CONTINUOUS
10
181.8518439999999998
20
-90.5817309999999907
11
181.7599999999999909
21
-90.5999999999999943
0
LINE
8
BLACK
6
CONTINUOUS
10
181.7599999999999909
20
-90.5999999999999943
11
179.7399999999999807
21
-90.5999999999999943
0
LINE
8
BLACK
6
CONTINUOUS
10
179.7399999999999807
20
-90.5999999999999943
11
179.6481560000000002
21
-90.5817309999999907
0
LINE
8
BLACK
6
CONTINUOUS
10
179.6481560000000002
20
-90.5817309999999907
11
179.5702939999999899
21
-90.5297059999999902
0
LINE
8
BLACK
6
CONTINUOUS
10
179.5702939999999899
20
-90.5297059999999902
11
179.5182690000000036
21
-90.4518439999999941
0
LINE
8
BLACK
6
CONTINUOUS
10
179.5182690000000036
20
-90.4518439999999941
11
179.5
21
-90.3599999999999994
0
LINE
8
BLACK
6
CONTINUOUS
10
179.5
20
-90.3599999999999994
11
179.5
21
-89.6400000000000006
0
LINE
8
BLACK
6
CONTINUOUS
10
179.5
20
-89.6400000000000006
11
179.5182690000000036
21
-89.5481559999999916
0
LINE
8
BLACK
6
CONTINUOUS
10
179.5182690000000036
20
-89.5481559999999916
11
179.5702939999999899
21
-89.4702939999999955
0
LINE
8
BLACK
6
CONTINUOUS
10
179.5702939999999899
20
-89.4702939999999955
11
179.6481560000000002
21
-89.4182689999999951
0
LINE
8
BLACK
6
CONTINUOUS
10
179.6481560000000002
20
-89.4182689999999951
11
179.7399999999999807
21
-89.3999999999999915
0
LINE
8
BLACK
6
CONTINUOUS
10
179.7399999999999807
20
-89.3999999999999915
11
181.7599999999999909
21
-89.3999999999999915
0
LINE
8
BLACK
6
CONTINUOUS
10
181.7599999999999909
20
-89.3999999999999915
11
181.8518439999999998
21
-89.4182689999999951
0
LINE
8
BLACK
6
CONTINUOUS
10
187.8700000000000045
20
-89.8149999999999977
11
185.3599999999999852
21
-89.8149999999999977
0
LINE
8
BLACK
6
CONTINUOUS
10
185.3599999999999852
20
-89.8149999999999977
11
185.3599999999999852
21
-88.8149999999999977
0
LINE
8
BLACK
6
CONTINUOUS
10
185.3599999999999852
20
-88.8149999999999977
11
187.8700000000000045
21
-88.8149999999999977
0
LINE
8
BLACK
6
CONTINUOUS
10
187.8700000000000045
20
-88.8149999999999977
11
187.8700000000000045
21
-89.8149999999999977
0
LINE
8
BLACK
6
CONTINUOUS
10
181.8518439999999998
20
-86.9182689999999951
11
181.9297059999999817
21
-86.9702939999999955
0
LINE
8
BLACK
6
CONTINUOUS
10
181.9297059999999817
20
-86.9702939999999955
11
181.9817309999999964
21
-87.0481559999999916
0
LINE
8
BLACK
6
CONTINUOUS
10
181.9817309999999964
20
-87.0481559999999916
11
182.
21
-87.1400000000000006
0
LINE
8
BLACK
6
CONTINUOUS
10
182.
20
-87.1400000000000006
11
182.
21
-87.8599999999999994
0
LINE
8
BLACK
6
CONTINUOUS
10
182.
20
-87.8599999999999994
11
181.9817309999999964
21
-87.9518439999999941
0
LINE
8
BLACK
6
CONTINUOUS
10
181.9817309999999964
20
-87.9518439999999941
11
181.9297059999999817
21
-88.0297059999999902
0
LINE
8
BLACK
6
CONTINUOUS
10
181.9297059999999817
20
-88.0297059999999902
11
181.8518439999999998
21
-88.0817309999999907
0
LINE
8
BLACK
6
CONTINUOUS
10
181.8518439999999998
20
-88.0817309999999907
11
181.7599999999999909
21
-88.0999999999999943
0
LINE
8
BLACK
6
CONTINUOUS
10
181.7599999999999909
20
-88.0999999999999943
11
179.7399999999999807
21
-88.0999999999999943
0
LINE
8
BLACK
6
CONTINUOUS
10
179.7399999999999807
20
-88.0999999999999943
11
179.6481560000000002
21
-88.0817309999999907
0
LINE
8
BLACK
6
CONTINUOUS
10
179.6481560000000002
20
-88.0817309999999907
11
179.5702939999999899
21
-88.0297059999999902
0
LINE
8
BLACK
6
CONTINUOUS
10
179.5702939999999899
20
-88.0297059999999902
11
179.5182690000000036
21
-87.9518439999999941
0
LINE
8
BLACK
6
CONTINUOUS
10
179.5182690000000036
20
-87.9518439999999941
11
179.5
21
-87.8599999999999994
0
LINE
8
BLACK
6
CONTINUOUS
10
179.5
20
-87.8599999999999994
11
179.5
21
-87.1400000000000006
0
LINE
8
BLACK
6
CONTINUOUS
10
179.5
20
-87.1400000000000006
11
179.5182690000000036
21
-87.0481559999999916
0
LINE
8
BLACK
6
CONTINUOUS
10
179.5182690000000036
20
-87.0481559999999916
11
179.5702939999999899
21
-86.9702939999999955
0
LINE
8
BLACK
6
CONTINUOUS
10
179.5702939999999899
20
-86.9702939999999955
11
179.6481560000000002
21
-86.9182689999999951
0
LINE
8
BLACK
6
CONTINUOUS
10
179.6481560000000002
20
-86.9182689999999951
11
179.7399999999999807
21
-86.8999999999999915
0
LINE
8
BLACK
6
CONTINUOUS
10
179.7399999999999807
20
-86.8999999999999915
11
181.7599999999999909
21
-86.8999999999999915
0
LINE
8
BLACK
6
CONTINUOUS
10
181.7599999999999909
20
-86.8999999999999915
11
181.8518439999999998
21
-86.9182689999999951
0
LINE
8
BLACK
6
CONTINUOUS
10
235.1999999999999886
20
-87.8199999999999932
11
233.1999999999999886
21
-87.8199999999999932
0
LINE
8
BLACK
6
CONTINUOUS
10
233.1999999999999886
20
-87.8199999999999932
11
233.1999999999999886
21
-86.2199999999999989
0
LINE
8
BLACK
6
CONTINUOUS
10
233.1999999999999886
20
-86.2199999999999989
11
235.1999999999999886
21
-86.2199999999999989
0
LINE
8
BLACK
6
CONTINUOUS
10
235.1999999999999886
20
-86.2199999999999989
11
235.1999999999999886
21
-87.8199999999999932
0
LINE
8
BLACK
6
CONTINUOUS
10
191.1799999999999784
20
-87.2749999999999915
11
188.6699999999999875
21
-87.2749999999999915
0
LINE
8
BLACK
6
CONTINUOUS
10
188.6699999999999875
20
-87.2749999999999915
11
188.6699999999999875
21
-86.2749999999999915
0
LINE
8
BLACK
6
CONTINUOUS
10
188.6699999999999875
20
-86.2749999999999915
11
191.1799999999999784
21
-86.2749999999999915
0
LINE
8
BLACK
6
CONTINUOUS
10
191.1799999999999784
20
-86.2749999999999915
11
191.1799999999999784
21
-87.2749999999999915
0
LINE
8
BLACK
6
CONTINUOUS
10
181.8518439999999998
20
-84.4182689999999951
11
181.9297059999999817
21
-84.4702939999999955
0
LINE
8
BLACK
6
CONTINUOUS
10
181.9297059999999817
20
-84.4702939999999955
11
181.9817309999999964
21
-84.5481559999999916
0
LINE
8
BLACK
6
CONTINUOUS
10
181.9817309999999964
20
-84.5481559999999916
11
182.
21
-84.6400000000000006
0
LINE
8
BLACK
6
CONTINUOUS
10
182.
20
-84.6400000000000006
11
182.
21
-85.3599999999999994
0
LINE
8
BLACK
6
CONTINUOUS
10
182.
20
-85.3599999999999994
11
181.9817309999999964
21
-85.4518439999999941
0
LINE
8
BLACK
6
CONTINUOUS
10
181.9817309999999964
20
-85.4518439999999941
11
181.9297059999999817
21
-85.5297059999999902
0
LINE
8
BLACK
6
CONTINUOUS
10
181.9297059999999817
20
-85.5297059999999902
11
181.8518439999999998
21
-85.5817309999999907
0
LINE
8
BLACK
6
CONTINUOUS
10
181.8518439999999998
20
-85.5817309999999907
11
181.7599999999999909
21
-85.5999999999999943
0
LINE
8
BLACK
6
CONTINUOUS
10
181.7599999999999909
20
-85.5999999999999943
11
179.7399999999999807
21
-85.5999999999999943
0
LINE
8
BLACK
6
CONTINUOUS
10
179.7399999999999807
20
-85.5999999999999943
11
179.6481560000000002
21
-85.5817309999999907
0
LINE
8
BLACK
6
CONTINUOUS
10
179.6481560000000002
20
-85.5817309999999907
11
179.5702939999999899
21
-85.5297059999999902
0
LINE
8
BLACK
6
CONTINUOUS
10
179.5702939999999899
20
-85.5297059999999902
11
179.5182690000000036
21
-85.4518439999999941
0
LINE
8
BLACK
6
CONTINUOUS
10
179.5182690000000036
20
-85.4518439999999941
11
179.5
21
-85.3599999999999994
0
LINE
8
BLACK
6
CONTINUOUS
10
179.5
20
-85.3599999999999994
11
179.5
21
-84.6400000000000006
0
LINE
8
BLACK
6
CONTINUOUS
10
179.5
20
-84.6400000000000006
11
179.5182690000000036
21
-84.5481559999999916
0
LINE
8
BLACK
6
CONTINUOUS
10
179.5182690000000036
20
-84.5481559999999916
11
179.5702939999999899
21
-84.4702939999999955
0
LINE
8
BLACK
6
CONTINUOUS
10
179.5702939999999899
20
-84.4702939999999955
11
179.6481560000000002
21
-84.4182689999999951
0
LINE
8
BLACK
6
CONTINUOUS
10
179.6481560000000002
20
-84.4182689999999951
11
179.7399999999999807
21
-84.3999999999999915
0
LINE
8
BLACK
6
CONTINUOUS
10
179.7399999999999807
20
-84.3999999999999915
11
181.7599999999999909
21
-84.3999999999999915
0
LINE
8
BLACK
6
CONTINUOUS
10
181.7599999999999909
20
-84.3999999999999915
11
181.8518439999999998
21
-84.4182689999999951
0
LINE
8
BLACK
6
CONTINUOUS
10
187.8700000000000045
20
-84.7349999999999994
11
185.3599999999999852
21
-84.7349999999999994
0
LINE
8
BLACK
6
CONTINUOUS
10
185.3599999999999852
20
-84.7349999999999994
11
185.3599999999999852
21
-83.7349999999999994
0
LINE
8
BLACK
6
CONTINUOUS
10
185.3599999999999852
20
-83.7349999999999994
11
187.8700000000000045
21
-83.7349999999999994
0
LINE
8
BLACK
6
CONTINUOUS
10
187.8700000000000045
20
-83.7349999999999994
11
187.8700000000000045
21
-84.7349999999999994
0
LINE
8
BLACK
6
CONTINUOUS
10
235.1999999999999886
20
-84.6199999999999903
11
233.1999999999999886
21
-84.6199999999999903
0
LINE
8
BLACK
6
CONTINUOUS
10
233.1999999999999886
20
-84.6199999999999903
11
233.1999999999999886
21
-83.019999999999996
0
LINE
8
BLACK
6
CONTINUOUS
10
233.1999999999999886
20
-83.019999999999996
11
235.1999999999999886
21
-83.019999999999996
0
LINE
8
BLACK
6
CONTINUOUS
10
235.1999999999999886
20
-83.019999999999996
11
235.1999999999999886
21
-84.6199999999999903
0
LINE
8
BLACK
6
CONTINUOUS
10
191.1799999999999784
20
-82.1949999999999932
11
188.6699999999999875
21
-82.1949999999999932
0
LINE
8
BLACK
6
CONTINUOUS
10
188.6699999999999875
20
-82.1949999999999932
11
188.6699999999999875
21
-81.1949999999999932
0
LINE
8
BLACK
6
CONTINUOUS
10
188.6699999999999875
20
-81.1949999999999932
11
191.1799999999999784
21
-81.1949999999999932
0
LINE
8
BLACK
6
CONTINUOUS
10
191.1799999999999784
20
-81.1949999999999932
11
191.1799999999999784
21
-82.1949999999999932
0
LINE
8
BLACK
6
CONTINUOUS
10
178.8249999999999886
20
-80.5249999999999915
11
177.8249999999999886
21
-80.5249999999999915
0
LINE
8
BLACK
6
CONTINUOUS
10
177.8249999999999886
20
-80.5249999999999915
11
177.8249999999999886
21
-78.9749999999999943
0
LINE
8
BLACK
6
CONTINUOUS
10
177.8249999999999886
20
-78.9749999999999943
11
178.8249999999999886
21
-78.9749999999999943
0
LINE
8
BLACK
6
CONTINUOUS
10
178.8249999999999886
20
-78.9749999999999943
11
178.8249999999999886
21
-80.5249999999999915
0
LINE
8
BLACK
6
CONTINUOUS
10
180.5250000000000057
20
-80.5249999999999915
11
179.5250000000000057
21
-80.5249999999999915
0
LINE
8
BLACK
6
CONTINUOUS
10
179.5250000000000057
20
-80.5249999999999915
11
179.5250000000000057
21
-78.9749999999999943
0
LINE
8
BLACK
6
CONTINUOUS
10
179.5250000000000057
20
-78.9749999999999943
11
180.5250000000000057
21
-78.9749999999999943
0
LINE
8
BLACK
6
CONTINUOUS
10
180.5250000000000057
20
-78.9749999999999943
11
180.5250000000000057
21
-80.5249999999999915
0
LINE
8
BLACK
6
CONTINUOUS
10
187.8700000000000045
20
-79.6550000000000011
11
185.3599999999999852
21
-79.6550000000000011
0
LINE
8
BLACK
6
CONTINUOUS
10
185.3599999999999852
20
-79.6550000000000011
11
185.3599999999999852
21
-78.6550000000000011
0
LINE
8
BLACK
6
CONTINUOUS
10
185.3599999999999852
20
-78.6550000000000011
11
187.8700000000000045
21
-78.6550000000000011
0
LINE
8
BLACK
6
CONTINUOUS
10
187.8700000000000045
20
-78.6550000000000011
11
187.8700000000000045
21
-79.6550000000000011
0
LINE
8
BLACK
6
CONTINUOUS
10
214.7399999999999807
20
-77.6499999999999915
11
213.3400000000000034
21
-77.6499999999999915
0
LINE
8
BLACK
6
CONTINUOUS
10
213.3400000000000034
20
-77.6499999999999915
11
213.3400000000000034
21
-75.25
0
LINE
8
BLACK
6
CONTINUOUS
10
213.3400000000000034
20
-75.25
11
214.7399999999999807
21
-75.25
0
LINE
8
BLACK
6
CONTINUOUS
10
214.7399999999999807
20
-75.25
11
214.7399999999999807
21
-77.6499999999999915
0
LINE
8
BLACK
6
CONTINUOUS
10
217.2800000000000011
20
-77.6499999999999915
11
215.8799999999999955
21
-77.6499999999999915
0
LINE
8
BLACK
6
CONTINUOUS
10
215.8799999999999955
20
-77.6499999999999915
11
215.8799999999999955
21
-75.25
0
LINE
8
BLACK
6
CONTINUOUS
10
215.8799999999999955
20
-75.25
11
217.2800000000000011
21
-75.25
0
LINE
8
BLACK
6
CONTINUOUS
10
217.2800000000000011
20
-75.25
11
217.2800000000000011
21
-77.6499999999999915
0
LINE
8
BLACK
6
CONTINUOUS
10
219.8199999999999932
20
-77.6499999999999915
11
218.4199999999999875
21
-77.6499999999999915
0
LINE
8
BLACK
6
CONTINUOUS
10
218.4199999999999875
20
-77.6499999999999915
11
218.4199999999999875
21
-75.25
0
LINE
8
BLACK
6
CONTINUOUS
10
218.4199999999999875
20
-75.25
11
219.8199999999999932
21
-75.25
0
LINE
8
BLACK
6
CONTINUOUS
10
219.8199999999999932
20
-75.25
11
219.8199999999999932
21
-77.6499999999999915
0
LINE
8
BLACK
6
CONTINUOUS
10
222.3599999999999852
20
-77.6499999999999915
11
220.9599999999999795
21
-77.6499999999999915
0
LINE
8
BLACK
6
CONTINUOUS
10
220.9599999999999795
20
-77.6499999999999915
11
220.9599999999999795
21
-75.25
0
LINE
8
BLACK
6
CONTINUOUS
10
220.9599999999999795
20
-75.25
11
222.3599999999999852
21
-75.25
0
LINE
8
BLACK
6
CONTINUOUS
10
222.3599999999999852
20
-75.25
11
222.3599999999999852
21
-77.6499999999999915
0
LINE
8
BLACK
6
CONTINUOUS
10
224.8999999999999773
20
-77.6499999999999915
11
223.5
21
-77.6499999999999915
0
LINE
8
BLACK
6
CONTINUOUS
10
223.5
20
-77.6499999999999915
11
223.5
21
-75.25
0
LINE
8
BLACK
6
CONTINUOUS
10
223.5
20
-75.25
11
224.8999999999999773
21
-75.25
0
LINE
8
BLACK
6
CONTINUOUS
10
224.8999999999999773
20
-75.25
11
224.8999999999999773
21
-77.6499999999999915
0
LINE
8
BLACK
6
CONTINUOUS
10
227.4399999999999977
20
-77.6499999999999915
11
226.039999999999992
21
-77.6499999999999915
0
LINE
8
BLACK
6
CONTINUOUS
10
226.039999999999992
20
-77.6499999999999915
11
226.039999999999992
21
-75.25
0
LINE
8
BLACK
6
CONTINUOUS
10
226.039999999999992
20
-75.25
11
227.4399999999999977
21
-75.25
0
LINE
8
BLACK
6
CONTINUOUS
10
227.4399999999999977
20
-75.25
11
227.4399999999999977
21
-77.6499999999999915
0
LINE
8
BLACK
6
CONTINUOUS
10
229.9799999999999898
20
-77.6499999999999915
11
228.5799999999999841
21
-77.6499999999999915
0
LINE
8
BLACK
6
CONTINUOUS
10
228.5799999999999841
20
-77.6499999999999915
11
228.5799999999999841
21
-75.25
0
LINE
8
BLACK
6
CONTINUOUS
10
228.5799999999999841
20
-75.25
11
229.9799999999999898
21
-75.25
0
LINE
8
BLACK
6
CONTINUOUS
10
229.9799999999999898
20
-75.25
11
229.9799999999999898
21
-77.6499999999999915
0
LINE
8
BLACK
6
CONTINUOUS
10
232.5199999999999818
20
-77.6499999999999915
11
231.1199999999999761
21
-77.6499999999999915
0
LINE
8
BLACK
6
CONTINUOUS
10
231.1199999999999761
20
-77.6499999999999915
11
231.1199999999999761
21
-75.25
0
LINE
8
BLACK
6
CONTINUOUS
10
231.1199999999999761
20
-75.25
11
232.5199999999999818
21
-75.25
0
LINE
8
BLACK
6
CONTINUOUS
10
232.5199999999999818
20
-75.25
11
232.5199999999999818
21
-77.6499999999999915
0
LINE
8
BLACK
6
CONTINUOUS
10
235.0600000000000023
20
-77.6499999999999915
11
233.6599999999999966
21
-77.6499999999999915
0
LINE
8
BLACK
6
CONTINUOUS
10
233.6599999999999966
20
-77.6499999999999915
11
233.6599999999999966
21
-75.25
0
LINE
8
BLACK
6
CONTINUOUS
10
233.6599999999999966
20
-75.25
11
235.0600000000000023
21
-75.25
0
LINE
8
BLACK
6
CONTINUOUS
10
235.0600000000000023
20
-75.25
11
235.0600000000000023
21
-77.6499999999999915
0
LINE
8
BLACK
6
CONTINUOUS
10
191.1799999999999784
20
-77.1149999999999949
11
188.6699999999999875
21
-77.1149999999999949
0
LINE
8
BLACK
6
CONTINUOUS
10
188.6699999999999875
20
-77.1149999999999949
11
188.6699999999999875
21
-76.1149999999999949
0
LINE
8
BLACK
6
CONTINUOUS
10
188.6699999999999875
20
-76.1149999999999949
11
191.1799999999999784
21
-76.1149999999999949
0
LINE
8
BLACK
6
CONTINUOUS
10
191.1799999999999784
20
-76.1149999999999949
11
191.1799999999999784
21
-77.1149999999999949
0
LINE
8
BLACK
6
CONTINUOUS
10
178.8249999999999886
20
-75.2749999999999915
11
177.8249999999999886
21
-75.2749999999999915
0
LINE
8
BLACK
6
CONTINUOUS
10
177.8249999999999886
20
-75.2749999999999915
11
177.8249999999999886
21
-73.7249999999999943
0
LINE
8
BLACK
6
CONTINUOUS
10
177.8249999999999886
20
-73.7249999999999943
11
178.8249999999999886
21
-73.7249999999999943
0
LINE
8
BLACK
6
CONTINUOUS
10
178.8249999999999886
20
-73.7249999999999943
11
178.8249999999999886
21
-75.2749999999999915
0
LINE
8
BLACK
6
CONTINUOUS
10
180.5250000000000057
20
-75.2749999999999915
11
179.5250000000000057
21
-75.2749999999999915
0
LINE
8
BLACK
6
CONTINUOUS
10
179.5250000000000057
20
-75.2749999999999915
11
179.5250000000000057
21
-73.7249999999999943
0
LINE
8
BLACK
6
CONTINUOUS
10
179.5250000000000057
20
-73.7249999999999943
11
180.5250000000000057
21
-73.7249999999999943
0
LINE
8
BLACK
6
CONTINUOUS
10
180.5250000000000057
20
-73.7249999999999943
11
180.5250000000000057
21
-75.2749999999999915
0
LINE
8
BLACK
6
CONTINUOUS
10
180.3499999999999943
20
-70.3499999999999943
11
178.7999999999999829
21
-70.3499999999999943
0
LINE
8
BLACK
6
CONTINUOUS
10
178.7999999999999829
20
-70.3499999999999943
11
178.7999999999999829
21
-69.3499999999999943
0
LINE
8
BLACK
6
CONTINUOUS
10
178.7999999999999829
20
-69.3499999999999943
11
180.3499999999999943
21
-69.3499999999999943
0
LINE
8
BLACK
6
CONTINUOUS
10
180.3499999999999943
20
-69.3499999999999943
11
180.3499999999999943
21
-70.3499999999999943
0
LINE
8
BLACK
6
CONTINUOUS
10
185.5999999999999943
20
-70.3499999999999943
11
184.0499999999999829
21
-70.3499999999999943
0
LINE
8
BLACK
6
CONTINUOUS
10
184.0499999999999829
20
-70.3499999999999943
11
184.0499999999999829
21
-69.3499999999999943
0
LINE
8
BLACK
6
CONTINUOUS
10
184.0499999999999829
20
-69.3499999999999943
11
185.5999999999999943
21
-69.3499999999999943
0
LINE
8
BLACK
6
CONTINUOUS
10
185.5999999999999943
20
-69.3499999999999943
11
185.5999999999999943
21
-70.3499999999999943
0
LINE
8
BLACK
6
CONTINUOUS
10
196.3499999999999943
20
-70.3499999999999943
11
194.7999999999999829
21
-70.3499999999999943
0
LINE
8
BLACK
6
CONTINUOUS
10
194.7999999999999829
20
-70.3499999999999943
11
194.7999999999999829
21
-69.3499999999999943
0
LINE
8
BLACK
6
CONTINUOUS
10
194.7999999999999829
20
-69.3499999999999943
11
196.3499999999999943
21
-69.3499999999999943
0
LINE
8
BLACK
6
CONTINUOUS
10
196.3499999999999943
20
-69.3499999999999943
11
196.3499999999999943
21
-70.3499999999999943
0
LINE
8
BLACK
6
CONTINUOUS
10
201.5999999999999943
20
-70.3499999999999943
11
200.0499999999999829
21
-70.3499999999999943
0
LINE
8
BLACK
6
CONTINUOUS
10
200.0499999999999829
20
-70.3499999999999943
11
200.0499999999999829
21
-69.3499999999999943
0
LINE
8
BLACK
6
CONTINUOUS
10
200.0499999999999829
20
-69.3499999999999943
11
201.5999999999999943
21
-69.3499999999999943
0
LINE
8
BLACK
6
CONTINUOUS
10
201.5999999999999943
20
-69.3499999999999943
11
201.5999999999999943
21
-70.3499999999999943
0
LINE
8
BLACK
6
CONTINUOUS
10
213.3499999999999943
20
-70.3499999999999943
11
211.7999999999999829
21
-70.3499999999999943
0
LINE
8
BLACK
6
CONTINUOUS
10
211.7999999999999829
20
-70.3499999999999943
11
211.7999999999999829
21
-69.3499999999999943
0
LINE
8
BLACK
6
CONTINUOUS
10
211.7999999999999829
20
-69.3499999999999943
11
213.3499999999999943
21
-69.3499999999999943
0
LINE
8
BLACK
6
CONTINUOUS
10
213.3499999999999943
20
-69.3499999999999943
11
213.3499999999999943
21
-70.3499999999999943
0
LINE
8
BLACK
6
CONTINUOUS
10
218.5999999999999943
20
-70.3499999999999943
11
217.0499999999999829
21
-70.3499999999999943
0
LINE
8
BLACK
6
CONTINUOUS
10
217.0499999999999829
20
-70.3499999999999943
11
217.0499999999999829
21
-69.3499999999999943
0
LINE
8
BLACK
6
CONTINUOUS
10
217.0499999999999829
20
-69.3499999999999943
11
218.5999999999999943
21
-69.3499999999999943
0
LINE
8
BLACK
6
CONTINUOUS
10
218.5999999999999943
20
-69.3499999999999943
11
218.5999999999999943
21
-70.3499999999999943
0
LINE
8
BLACK
6
CONTINUOUS
10
229.3499999999999943
20
-70.3499999999999943
11
227.7999999999999829
21
-70.3499999999999943
0
LINE
8
BLACK
6
CONTINUOUS
10
227.7999999999999829
20
-70.3499999999999943
11
227.7999999999999829
21
-69.3499999999999943
0
LINE
8
BLACK
6
CONTINUOUS
10
227.7999999999999829
20
-69.3499999999999943
11
229.3499999999999943
21
-69.3499999999999943
0
LINE
8
BLACK
6
CONTINUOUS
10
229.3499999999999943
20
-69.3499999999999943
11
229.3499999999999943
21
-70.3499999999999943
0
LINE
8
BLACK
6
CONTINUOUS
10
234.5999999999999943
20
-70.3499999999999943
11
233.0499999999999829
21
-70.3499999999999943
0
LINE
8
BLACK
6
CONTINUOUS
10
233.0499999999999829
20
-70.3499999999999943
11
233.0499999999999829
21
-69.3499999999999943
0
LINE
8
BLACK
6
CONTINUOUS
10
233.0499999999999829
20
-69.3499999999999943
11
234.5999999999999943
21
-69.3499999999999943
0
LINE
8
BLACK
6
CONTINUOUS
10
234.5999999999999943
20
-69.3499999999999943
11
234.5999999999999943
21
-70.3499999999999943
0
LINE
8
BLACK
6
CONTINUOUS
10
180.3499999999999943
20
-68.6499999999999915
11
178.7999999999999829
21
-68.6499999999999915
0
LINE
8
BLACK
6
CONTINUOUS
10
178.7999999999999829
20
-68.6499999999999915
11
178.7999999999999829
21
-67.6499999999999915
0
LINE
8
BLACK
6
CONTINUOUS
10
178.7999999999999829
20
-67.6499999999999915
11
180.3499999999999943
21
-67.6499999999999915
0
LINE
8
BLACK
6
CONTINUOUS
10
180.3499999999999943
20
-67.6499999999999915
11
180.3499999999999943
21
-68.6499999999999915
0
LINE
8
BLACK
6
CONTINUOUS
10
185.5999999999999943
20
-68.6499999999999915
11
184.0499999999999829
21
-68.6499999999999915
0
LINE
8
BLACK
6
CONTINUOUS
10
184.0499999999999829
20
-68.6499999999999915
11
184.0499999999999829
21
-67.6499999999999915
0
LINE
8
BLACK
6
CONTINUOUS
10
184.0499999999999829
20
-67.6499999999999915
11
185.5999999999999943
21
-67.6499999999999915
0
LINE
8
BLACK
6
CONTINUOUS
10
185.5999999999999943
20
-67.6499999999999915
11
185.5999999999999943
21
-68.6499999999999915
0
LINE
8
BLACK
6
CONTINUOUS
10
196.3499999999999943
20
-68.6499999999999915
11
194.7999999999999829
21
-68.6499999999999915
0
LINE
8
BLACK
6
CONTINUOUS
10
194.7999999999999829
20
-68.6499999999999915
11
194.7999999999999829
21
-67.6499999999999915
0
LINE
8
BLACK
6
CONTINUOUS
10
194.7999999999999829
20
-67.6499999999999915
11
196.3499999999999943
21
-67.6499999999999915
0
LINE
8
BLACK
6
CONTINUOUS
10
196.3499999999999943
20
-67.6499999999999915
11
196.3499999999999943
21
-68.6499999999999915
0
LINE
8
BLACK
6
CONTINUOUS
10
201.5999999999999943
20
-68.6499999999999915
11
200.0499999999999829
21
-68.6499999999999915
0
LINE
8
BLACK
6
CONTINUOUS
10
200.0499999999999829
20
-68.6499999999999915
11
200.0499999999999829
21
-67.6499999999999915
0
LINE
8
BLACK
6
CONTINUOUS
10
200.0499999999999829
20
-67.6499999999999915
11
201.5999999999999943
21
-67.6499999999999915
0
LINE
8
BLACK
6
CONTINUOUS
10
201.5999999999999943
20
-67.6499999999999915
11
201.5999999999999943
21
-68.6499999999999915
0
LINE
8
BLACK
6
CONTINUOUS
10
213.3499999999999943
20
-68.6499999999999915
11
211.7999999999999829
21
-68.6499999999999915
0
LINE
8
BLACK
6
CONTINUOUS
10
211.7999999999999829
20
-68.6499999999999915
11
211.7999999999999829
21
-67.6499999999999915
0
LINE
8
BLACK
6
CONTINUOUS
10
211.7999999999999829
20
-67.6499999999999915
11
213.3499999999999943
21
-67.6499999999999915
0
LINE
8
BLACK
6
CONTINUOUS
10
213.3499999999999943
20
-67.6499999999999915
11
213.3499999999999943
21
-68.6499999999999915
0
LINE
8
BLACK
6
CONTINUOUS
10
218.5999999999999943
20
-68.6499999999999915
11
217.0499999999999829
21
-68.6499999999999915
0
LINE
8
BLACK
6
CONTINUOUS
10
217.0499999999999829
20
-68.6499999999999915
11
217.0499999999999829
21
-67.6499999999999915
0
LINE
8
BLACK
6
CONTINUOUS
10
217.0499999999999829
20
-67.6499999999999915
11
218.5999999999999943
21
-67.6499999999999915
0
LINE
8
BLACK
6
CONTINUOUS
10
218.5999999999999943
20
-67.6499999999999915
11
218.5999999999999943
21
-68.6499999999999915
0
LINE
8
BLACK
6
CONTINUOUS
10
229.3499999999999943
20
-68.6499999999999915
11
227.7999999999999829
21
-68.6499999999999915
0
LINE
8
BLACK
6
CONTINUOUS
10
227.7999999999999829
20
-68.6499999999999915
11
227.7999999999999829
21
-67.6499999999999915
0
LINE
8
BLACK
6
CONTINUOUS
10
227.7999999999999829
20
-67.6499999999999915
11
229.3499999999999943
21
-67.6499999999999915
0
LINE
8
BLACK
6
CONTINUOUS
10
229.3499999999999943
20
-67.6499999999999915
11
229.3499999999999943
21
-68.6499999999999915
0
LINE
8
BLACK
6
CONTINUOUS
10
234.5999999999999943
20
-68.6499999999999915
11
233.0499999999999829
21
-68.6499999999999915
0
LINE
8
BLACK
6
CONTINUOUS
10
233.0499999999999829
20
-68.6499999999999915
11
233.0499999999999829
21
-67.6499999999999915
0
LINE
8
BLACK
6
CONTINUOUS
10
233.0499999999999829
20
-67.6499999999999915
11
234.5999999999999943
21
-67.6499999999999915
0
LINE
8
BLACK
6
CONTINUOUS
10
234.5999999999999943
20
-67.6499999999999915
11
234.5999999999999943
21
-68.6499999999999915
  0
ENDSEC
  0
EOF
