  0
SECTION
  2
HEADER
  9
$ANGBASE
  50
0.0
  9
$ANGDIR
  70
1
  9
$MEASUREMENT
  70
1
  0
ENDSEC
  0
SECTION
  2
TABLES
  0
TABLE
  2
LTYPE
  70
4
  0
LTYPE
  5
40F
  2
CONTINUOUS
  70
0
  3
Solid line
  72
65
  73
0
  40
0.0
  0
LTYPE
  5
410
  2
DASHDOT
 70
0
  3
Dash Dot ____ _ ____ _
 72
65
 73
4
 40
2.0
 49
1.25
 49
-0.25
 49
0.25
 49
-0.25
  0
LTYPE
  5
411
  2
DASHED
 70
0
  3
Dashed __ __ __ __ __
 72
65
 73
2
 40
0.75
 49
0.5
 49
-0.25
  0
LTYPE
  5
43B
  2
DOTTED
 70
0
  3
Dotted .  .  .  .
 72
65
 73
2
 40
0.2
 49
0.0
 49
-0.2
  0
ENDTAB
  0
TABLE
  2
STYLE
  70
4
  0
STYLE
  2
KICAD
  70
0
  40
0
  41
1
  42
1
  50
0
  71
0
  3
isocp.shx
  0
STYLE
  2
KICADB
  70
0
  40
0
  41
1
  42
1
  50
0
  71
0
  3
isocp.shx
  0
STYLE
  2
KICADI
  70
0
  40
0
  41
1
  42
1
  50
15
  71
0
  3
isocp.shx
  0
STYLE
  2
KICADBI
  70
0
  40
0
  41
1
  42
1
  50
15
  71
0
  3
isocp.shx
  0
ENDTAB
  0
TABLE
  2
LAYER
  70
1
  0
LAYER
  2
BLACK
  70
0
  62
7
  6
CONTINUOUS
  0
ENDTAB
  0
ENDSEC
  0
SECTION
  2
ENTITIES
0
LINE
8
BLACK
6
CONTINUOUS
10
184.4034619999999904
20
-97.3817749999999904
11
184.5750859999999989
21
-97.437539000000001
0
LINE
8
BLACK
6
CONTINUOUS
10
184.5750859999999989
20
-97.437539000000001
11
184.735872999999998
21
-97.5194639999999993
0
LINE
8
BLACK
6
CONTINUOUS
10
184.735872999999998
20
-97.5194639999999993
11
184.8818650000000048
21
-97.6255329999999901
0
LINE
8
BLACK
6
CONTINUOUS
10
184.8818650000000048
20
-97.6255329999999901
11
185.0094670000000008
21
-97.7531350000000003
0
LINE
8
BLACK
6
CONTINUOUS
10
185.0094670000000008
20
-97.7531350000000003
11
185.1155359999999916
21
-97.8991269999999929
0
LINE
8
BLACK
6
CONTINUOUS
10
185.1155359999999916
20
-97.8991269999999929
11
185.1974610000000041
21
-98.059913999999992
0
LINE
8
BLACK
6
CONTINUOUS
10
185.1974610000000041
20
-98.059913999999992
11
185.2532249999999863
21
-98.2315380000000005
0
LINE
8
BLACK
6
CONTINUOUS
10
185.2532249999999863
20
-98.2315380000000005
11
185.281454999999994
21
-98.4097719999999896
0
LINE
8
BLACK
6
CONTINUOUS
10
185.281454999999994
20
-98.4097719999999896
11
185.281454999999994
21
-98.5902279999999962
0
LINE
8
BLACK
6
CONTINUOUS
10
185.281454999999994
20
-98.5902279999999962
11
185.2532249999999863
21
-98.7684619999999995
0
LINE
8
BLACK
6
CONTINUOUS
10
185.2532249999999863
20
-98.7684619999999995
11
185.1974610000000041
21
-98.9400859999999938
0
LINE
8
BLACK
6
CONTINUOUS
10
185.1974610000000041
20
-98.9400859999999938
11
185.1155359999999916
21
-99.1008729999999929
0
LINE
8
BLACK
6
CONTINUOUS
10
185.1155359999999916
20
-99.1008729999999929
11
185.0094670000000008
21
-99.2468649999999997
0
LINE
8
BLACK
6
CONTINUOUS
10
185.0094670000000008
20
-99.2468649999999997
11
184.8818650000000048
21
-99.3744669999999957
0
LINE
8
BLACK
6
CONTINUOUS
10
184.8818650000000048
20
-99.3744669999999957
11
184.735872999999998
21
-99.4805360000000007
0
LINE
8
BLACK
6
CONTINUOUS
10
184.735872999999998
20
-99.4805360000000007
11
184.5750859999999989
21
-99.562460999999999
0
LINE
8
BLACK
6
CONTINUOUS
10
184.5750859999999989
20
-99.562460999999999
11
184.4034619999999904
21
-99.6182249999999954
0
LINE
8
BLACK
6
CONTINUOUS
10
184.4034619999999904
20
-99.6182249999999954
11
184.2252279999999871
21
-99.6464549999999889
0
LINE
8
BLACK
6
CONTINUOUS
10
184.2252279999999871
20
-99.6464549999999889
11
184.0447719999999947
21
-99.6464549999999889
0
LINE
8
BLACK
6
CONTINUOUS
10
184.0447719999999947
20
-99.6464549999999889
11
183.8665379999999914
21
-99.6182249999999954
0
LINE
8
BLACK
6
CONTINUOUS
10
183.8665379999999914
20
-99.6182249999999954
11
183.6949139999999829
21
-99.562460999999999
0
LINE
8
BLACK
6
CONTINUOUS
10
183.6949139999999829
20
-99.562460999999999
11
183.5341269999999838
21
-99.4805360000000007
0
LINE
8
BLACK
6
CONTINUOUS
10
183.5341269999999838
20
-99.4805360000000007
11
183.3881350000000054
21
-99.3744669999999957
0
LINE
8
BLACK
6
CONTINUOUS
10
183.3881350000000054
20
-99.3744669999999957
11
183.260532999999981
21
-99.2468649999999997
0
LINE
8
BLACK
6
CONTINUOUS
10
183.260532999999981
20
-99.2468649999999997
11
183.1544639999999902
21
-99.1008729999999929
0
LINE
8
BLACK
6
CONTINUOUS
10
183.1544639999999902
20
-99.1008729999999929
11
183.0725389999999777
21
-98.9400859999999938
0
LINE
8
BLACK
6
CONTINUOUS
10
183.0725389999999777
20
-98.9400859999999938
11
183.0167749999999955
21
-98.7684619999999995
0
LINE
8
BLACK
6
CONTINUOUS
10
183.0167749999999955
20
-98.7684619999999995
11
182.9885449999999878
21
-98.5902279999999962
0
LINE
8
BLACK
6
CONTINUOUS
10
182.9885449999999878
20
-98.5902279999999962
11
182.9885449999999878
21
-98.4097719999999896
0
LINE
8
BLACK
6
CONTINUOUS
10
182.9885449999999878
20
-98.4097719999999896
11
182.990634
21
-98.3965839999999901
0
LINE
8
BLACK
6
CONTINUOUS
10
182.990634
20
-98.3965839999999901
11
183.0167749999999955
21
-98.2315380000000005
0
LINE
8
BLACK
6
CONTINUOUS
10
183.0167749999999955
20
-98.2315380000000005
11
183.0725389999999777
21
-98.059913999999992
0
LINE
8
BLACK
6
CONTINUOUS
10
183.0725389999999777
20
-98.059913999999992
11
183.1544639999999902
21
-97.8991269999999929
0
LINE
8
BLACK
6
CONTINUOUS
10
183.1544639999999902
20
-97.8991269999999929
11
183.260532999999981
21
-97.7531350000000003
0
LINE
8
BLACK
6
CONTINUOUS
10
183.260532999999981
20
-97.7531350000000003
11
183.3881350000000054
21
-97.6255329999999901
0
LINE
8
BLACK
6
CONTINUOUS
10
183.3881350000000054
20
-97.6255329999999901
11
183.5341269999999838
21
-97.5194639999999993
0
LINE
8
BLACK
6
CONTINUOUS
10
183.5341269999999838
20
-97.5194639999999993
11
183.6949139999999829
21
-97.437539000000001
0
LINE
8
BLACK
6
CONTINUOUS
10
183.6949139999999829
20
-97.437539000000001
11
183.8665379999999914
21
-97.3817749999999904
0
LINE
8
BLACK
6
CONTINUOUS
10
183.8665379999999914
20
-97.3817749999999904
11
184.0447719999999947
21
-97.3535449999999969
0
LINE
8
BLACK
6
CONTINUOUS
10
184.0447719999999947
20
-97.3535449999999969
11
184.2252279999999871
21
-97.3535449999999969
0
LINE
8
BLACK
6
CONTINUOUS
10
184.2252279999999871
20
-97.3535449999999969
11
184.4034619999999904
21
-97.3817749999999904
0
LINE
8
BLACK
6
CONTINUOUS
10
183.0849999999999795
20
-98.6034159999999957
11
183.1253499999999974
21
-98.8062740000000019
0
LINE
8
BLACK
6
CONTINUOUS
10
183.1253499999999974
20
-98.8062740000000019
11
183.2045019999999909
21
-98.9973619999999954
0
LINE
8
BLACK
6
CONTINUOUS
10
183.2045019999999909
20
-98.9973619999999954
11
183.3194110000000023
21
-99.1693360000000013
0
LINE
8
BLACK
6
CONTINUOUS
10
183.3194110000000023
20
-99.1693360000000013
11
183.4656640000000039
21
-99.3155889999999886
0
LINE
8
BLACK
6
CONTINUOUS
10
183.4656640000000039
20
-99.3155889999999886
11
183.6376379999999813
21
-99.430498
0
LINE
8
BLACK
6
CONTINUOUS
10
183.6376379999999813
20
-99.430498
11
183.828725999999989
21
-99.5096499999999935
0
LINE
8
BLACK
6
CONTINUOUS
10
183.828725999999989
20
-99.5096499999999935
11
184.031583999999981
21
-99.5499999999999972
0
LINE
8
BLACK
6
CONTINUOUS
10
184.031583999999981
20
-99.5499999999999972
11
184.2384160000000008
21
-99.5499999999999972
0
LINE
8
BLACK
6
CONTINUOUS
10
184.2384160000000008
20
-99.5499999999999972
11
184.4412739999999928
21
-99.5096499999999935
0
LINE
8
BLACK
6
CONTINUOUS
10
184.4412739999999928
20
-99.5096499999999935
11
184.6323620000000005
21
-99.430498
0
LINE
8
BLACK
6
CONTINUOUS
10
184.6323620000000005
20
-99.430498
11
184.804335999999978
21
-99.3155889999999886
0
LINE
8
BLACK
6
CONTINUOUS
10
184.804335999999978
20
-99.3155889999999886
11
184.9505889999999795
21
-99.1693360000000013
0
LINE
8
BLACK
6
CONTINUOUS
10
184.9505889999999795
20
-99.1693360000000013
11
185.065497999999991
21
-98.9973619999999954
0
LINE
8
BLACK
6
CONTINUOUS
10
185.065497999999991
20
-98.9973619999999954
11
185.1446499999999844
21
-98.8062740000000019
0
LINE
8
BLACK
6
CONTINUOUS
10
185.1446499999999844
20
-98.8062740000000019
11
185.1850000000000023
21
-98.6034159999999957
0
LINE
8
BLACK
6
CONTINUOUS
10
185.1850000000000023
20
-98.6034159999999957
11
185.1850000000000023
21
-98.3965839999999901
0
LINE
8
BLACK
6
CONTINUOUS
10
185.1850000000000023
20
-98.3965839999999901
11
185.1446499999999844
21
-98.1937259999999981
0
LINE
8
BLACK
6
CONTINUOUS
10
185.1446499999999844
20
-98.1937259999999981
11
185.065497999999991
21
-98.0026379999999904
0
LINE
8
BLACK
6
CONTINUOUS
10
185.065497999999991
20
-98.0026379999999904
11
184.9505889999999795
21
-97.8306639999999987
0
LINE
8
BLACK
6
CONTINUOUS
10
184.9505889999999795
20
-97.8306639999999987
11
184.804335999999978
21
-97.6844109999999972
0
LINE
8
BLACK
6
CONTINUOUS
10
184.804335999999978
20
-97.6844109999999972
11
184.6323620000000005
21
-97.569502
0
LINE
8
BLACK
6
CONTINUOUS
10
184.6323620000000005
20
-97.569502
11
184.4412739999999928
21
-97.4903499999999923
0
LINE
8
BLACK
6
CONTINUOUS
10
184.4412739999999928
20
-97.4903499999999923
11
184.2384160000000008
21
-97.4499999999999886
0
LINE
8
BLACK
6
CONTINUOUS
10
184.2384160000000008
20
-97.4499999999999886
11
184.031583999999981
21
-97.4499999999999886
0
LINE
8
BLACK
6
CONTINUOUS
10
184.031583999999981
20
-97.4499999999999886
11
183.828725999999989
21
-97.4903499999999923
0
LINE
8
BLACK
6
CONTINUOUS
10
183.828725999999989
20
-97.4903499999999923
11
183.6376379999999813
21
-97.569502
0
LINE
8
BLACK
6
CONTINUOUS
10
183.6376379999999813
20
-97.569502
11
183.4656640000000039
21
-97.6844109999999972
0
LINE
8
BLACK
6
CONTINUOUS
10
183.4656640000000039
20
-97.6844109999999972
11
183.3194110000000023
21
-97.8306639999999987
0
LINE
8
BLACK
6
CONTINUOUS
10
183.3194110000000023
20
-97.8306639999999987
11
183.2045019999999909
21
-98.0026379999999904
0
LINE
8
BLACK
6
CONTINUOUS
10
183.2045019999999909
20
-98.0026379999999904
11
183.1253499999999974
21
-98.1937259999999981
0
LINE
8
BLACK
6
CONTINUOUS
10
183.1253499999999974
20
-98.1937259999999981
11
183.0849999999999795
21
-98.3965839999999901
0
LINE
8
BLACK
6
CONTINUOUS
10
183.0849999999999795
20
-98.3965839999999901
11
183.0849999999999795
21
-98.6034159999999957
0
LINE
8
BLACK
6
CONTINUOUS
10
227.4034619999999904
20
-97.3817749999999904
11
227.5750859999999989
21
-97.437539000000001
0
LINE
8
BLACK
6
CONTINUOUS
10
227.5750859999999989
20
-97.437539000000001
11
227.735872999999998
21
-97.5194639999999993
0
LINE
8
BLACK
6
CONTINUOUS
10
227.735872999999998
20
-97.5194639999999993
11
227.8818649999999764
21
-97.6255329999999901
0
LINE
8
BLACK
6
CONTINUOUS
10
227.8818649999999764
20
-97.6255329999999901
11
228.0094670000000008
21
-97.7531350000000003
0
LINE
8
BLACK
6
CONTINUOUS
10
228.0094670000000008
20
-97.7531350000000003
11
228.1155359999999916
21
-97.8991269999999929
0
LINE
8
BLACK
6
CONTINUOUS
10
228.1155359999999916
20
-97.8991269999999929
11
228.1974609999999757
21
-98.059913999999992
0
LINE
8
BLACK
6
CONTINUOUS
10
228.1974609999999757
20
-98.059913999999992
11
228.2532249999999863
21
-98.2315380000000005
0
LINE
8
BLACK
6
CONTINUOUS
10
228.2532249999999863
20
-98.2315380000000005
11
228.281454999999994
21
-98.4097719999999896
0
LINE
8
BLACK
6
CONTINUOUS
10
228.281454999999994
20
-98.4097719999999896
11
228.281454999999994
21
-98.5902279999999962
0
LINE
8
BLACK
6
CONTINUOUS
10
228.281454999999994
20
-98.5902279999999962
11
228.2532249999999863
21
-98.7684619999999995
0
LINE
8
BLACK
6
CONTINUOUS
10
228.2532249999999863
20
-98.7684619999999995
11
228.1974609999999757
21
-98.9400859999999938
0
LINE
8
BLACK
6
CONTINUOUS
10
228.1974609999999757
20
-98.9400859999999938
11
228.1155359999999916
21
-99.1008729999999929
0
LINE
8
BLACK
6
CONTINUOUS
10
228.1155359999999916
20
-99.1008729999999929
11
228.0094670000000008
21
-99.2468649999999997
0
LINE
8
BLACK
6
CONTINUOUS
10
228.0094670000000008
20
-99.2468649999999997
11
227.8818649999999764
21
-99.3744669999999957
0
LINE
8
BLACK
6
CONTINUOUS
10
227.8818649999999764
20
-99.3744669999999957
11
227.735872999999998
21
-99.4805360000000007
0
LINE
8
BLACK
6
CONTINUOUS
10
227.735872999999998
20
-99.4805360000000007
11
227.5750859999999989
21
-99.562460999999999
0
LINE
8
BLACK
6
CONTINUOUS
10
227.5750859999999989
20
-99.562460999999999
11
227.4034619999999904
21
-99.6182249999999954
0
LINE
8
BLACK
6
CONTINUOUS
10
227.4034619999999904
20
-99.6182249999999954
11
227.2252279999999871
21
-99.6464549999999889
0
LINE
8
BLACK
6
CONTINUOUS
10
227.2252279999999871
20
-99.6464549999999889
11
227.0447719999999947
21
-99.6464549999999889
0
LINE
8
BLACK
6
CONTINUOUS
10
227.0447719999999947
20
-99.6464549999999889
11
226.8665379999999914
21
-99.6182249999999954
0
LINE
8
BLACK
6
CONTINUOUS
10
226.8665379999999914
20
-99.6182249999999954
11
226.6949139999999829
21
-99.562460999999999
0
LINE
8
BLACK
6
CONTINUOUS
10
226.6949139999999829
20
-99.562460999999999
11
226.5341269999999838
21
-99.4805360000000007
0
LINE
8
BLACK
6
CONTINUOUS
10
226.5341269999999838
20
-99.4805360000000007
11
226.388134999999977
21
-99.3744669999999957
0
LINE
8
BLACK
6
CONTINUOUS
10
226.388134999999977
20
-99.3744669999999957
11
226.260532999999981
21
-99.2468649999999997
0
LINE
8
BLACK
6
CONTINUOUS
10
226.260532999999981
20
-99.2468649999999997
11
226.1544639999999902
21
-99.1008729999999929
0
LINE
8
BLACK
6
CONTINUOUS
10
226.1544639999999902
20
-99.1008729999999929
11
226.0725389999999777
21
-98.9400859999999938
0
LINE
8
BLACK
6
CONTINUOUS
10
226.0725389999999777
20
-98.9400859999999938
11
226.0167749999999955
21
-98.7684619999999995
0
LINE
8
BLACK
6
CONTINUOUS
10
226.0167749999999955
20
-98.7684619999999995
11
225.9885449999999878
21
-98.5902279999999962
0
LINE
8
BLACK
6
CONTINUOUS
10
225.9885449999999878
20
-98.5902279999999962
11
225.9885449999999878
21
-98.4097719999999896
0
LINE
8
BLACK
6
CONTINUOUS
10
225.9885449999999878
20
-98.4097719999999896
11
225.990634
21
-98.3965839999999901
0
LINE
8
BLACK
6
CONTINUOUS
10
225.990634
20
-98.3965839999999901
11
226.0167749999999955
21
-98.2315380000000005
0
LINE
8
BLACK
6
CONTINUOUS
10
226.0167749999999955
20
-98.2315380000000005
11
226.0725389999999777
21
-98.059913999999992
0
LINE
8
BLACK
6
CONTINUOUS
10
226.0725389999999777
20
-98.059913999999992
11
226.1544639999999902
21
-97.8991269999999929
0
LINE
8
BLACK
6
CONTINUOUS
10
226.1544639999999902
20
-97.8991269999999929
11
226.260532999999981
21
-97.7531350000000003
0
LINE
8
BLACK
6
CONTINUOUS
10
226.260532999999981
20
-97.7531350000000003
11
226.388134999999977
21
-97.6255329999999901
0
LINE
8
BLACK
6
CONTINUOUS
10
226.388134999999977
20
-97.6255329999999901
11
226.5341269999999838
21
-97.5194639999999993
0
LINE
8
BLACK
6
CONTINUOUS
10
226.5341269999999838
20
-97.5194639999999993
11
226.6949139999999829
21
-97.437539000000001
0
LINE
8
BLACK
6
CONTINUOUS
10
226.6949139999999829
20
-97.437539000000001
11
226.8665379999999914
21
-97.3817749999999904
0
LINE
8
BLACK
6
CONTINUOUS
10
226.8665379999999914
20
-97.3817749999999904
11
227.0447719999999947
21
-97.3535449999999969
0
LINE
8
BLACK
6
CONTINUOUS
10
227.0447719999999947
20
-97.3535449999999969
11
227.2252279999999871
21
-97.3535449999999969
0
LINE
8
BLACK
6
CONTINUOUS
10
227.2252279999999871
20
-97.3535449999999969
11
227.4034619999999904
21
-97.3817749999999904
0
LINE
8
BLACK
6
CONTINUOUS
10
226.0849999999999795
20
-98.6034159999999957
11
226.1253499999999974
21
-98.8062740000000019
0
LINE
8
BLACK
6
CONTINUOUS
10
226.1253499999999974
20
-98.8062740000000019
11
226.2045019999999909
21
-98.9973619999999954
0
LINE
8
BLACK
6
CONTINUOUS
10
226.2045019999999909
20
-98.9973619999999954
11
226.3194110000000023
21
-99.1693360000000013
0
LINE
8
BLACK
6
CONTINUOUS
10
226.3194110000000023
20
-99.1693360000000013
11
226.4656640000000039
21
-99.3155889999999886
0
LINE
8
BLACK
6
CONTINUOUS
10
226.4656640000000039
20
-99.3155889999999886
11
226.6376379999999813
21
-99.430498
0
LINE
8
BLACK
6
CONTINUOUS
10
226.6376379999999813
20
-99.430498
11
226.828725999999989
21
-99.5096499999999935
0
LINE
8
BLACK
6
CONTINUOUS
10
226.828725999999989
20
-99.5096499999999935
11
227.031583999999981
21
-99.5499999999999972
0
LINE
8
BLACK
6
CONTINUOUS
10
227.031583999999981
20
-99.5499999999999972
11
227.2384160000000008
21
-99.5499999999999972
0
LINE
8
BLACK
6
CONTINUOUS
10
227.2384160000000008
20
-99.5499999999999972
11
227.4412739999999928
21
-99.5096499999999935
0
LINE
8
BLACK
6
CONTINUOUS
10
227.4412739999999928
20
-99.5096499999999935
11
227.6323620000000005
21
-99.430498
0
LINE
8
BLACK
6
CONTINUOUS
10
227.6323620000000005
20
-99.430498
11
227.804335999999978
21
-99.3155889999999886
0
LINE
8
BLACK
6
CONTINUOUS
10
227.804335999999978
20
-99.3155889999999886
11
227.9505889999999795
21
-99.1693360000000013
0
LINE
8
BLACK
6
CONTINUOUS
10
227.9505889999999795
20
-99.1693360000000013
11
228.065497999999991
21
-98.9973619999999954
0
LINE
8
BLACK
6
CONTINUOUS
10
228.065497999999991
20
-98.9973619999999954
11
228.1446499999999844
21
-98.8062740000000019
0
LINE
8
BLACK
6
CONTINUOUS
10
228.1446499999999844
20
-98.8062740000000019
11
228.1850000000000023
21
-98.6034159999999957
0
LINE
8
BLACK
6
CONTINUOUS
10
228.1850000000000023
20
-98.6034159999999957
11
228.1850000000000023
21
-98.3965839999999901
0
LINE
8
BLACK
6
CONTINUOUS
10
228.1850000000000023
20
-98.3965839999999901
11
228.1446499999999844
21
-98.1937259999999981
0
LINE
8
BLACK
6
CONTINUOUS
10
228.1446499999999844
20
-98.1937259999999981
11
228.065497999999991
21
-98.0026379999999904
0
LINE
8
BLACK
6
CONTINUOUS
10
228.065497999999991
20
-98.0026379999999904
11
227.9505889999999795
21
-97.8306639999999987
0
LINE
8
BLACK
6
CONTINUOUS
10
227.9505889999999795
20
-97.8306639999999987
11
227.804335999999978
21
-97.6844109999999972
0
LINE
8
BLACK
6
CONTINUOUS
10
227.804335999999978
20
-97.6844109999999972
11
227.6323620000000005
21
-97.569502
0
LINE
8
BLACK
6
CONTINUOUS
10
227.6323620000000005
20
-97.569502
11
227.4412739999999928
21
-97.4903499999999923
0
LINE
8
BLACK
6
CONTINUOUS
10
227.4412739999999928
20
-97.4903499999999923
11
227.2384160000000008
21
-97.4499999999999886
0
LINE
8
BLACK
6
CONTINUOUS
10
227.2384160000000008
20
-97.4499999999999886
11
227.031583999999981
21
-97.4499999999999886
0
LINE
8
BLACK
6
CONTINUOUS
10
227.031583999999981
20
-97.4499999999999886
11
226.828725999999989
21
-97.4903499999999923
0
LINE
8
BLACK
6
CONTINUOUS
10
226.828725999999989
20
-97.4903499999999923
11
226.6376379999999813
21
-97.569502
0
LINE
8
BLACK
6
CONTINUOUS
10
226.6376379999999813
20
-97.569502
11
226.4656640000000039
21
-97.6844109999999972
0
LINE
8
BLACK
6
CONTINUOUS
10
226.4656640000000039
20
-97.6844109999999972
11
226.3194110000000023
21
-97.8306639999999987
0
LINE
8
BLACK
6
CONTINUOUS
10
226.3194110000000023
20
-97.8306639999999987
11
226.2045019999999909
21
-98.0026379999999904
0
LINE
8
BLACK
6
CONTINUOUS
10
226.2045019999999909
20
-98.0026379999999904
11
226.1253499999999974
21
-98.1937259999999981
0
LINE
8
BLACK
6
CONTINUOUS
10
226.1253499999999974
20
-98.1937259999999981
11
226.0849999999999795
21
-98.3965839999999901
0
LINE
8
BLACK
6
CONTINUOUS
10
226.0849999999999795
20
-98.3965839999999901
11
226.0849999999999795
21
-98.6034159999999957
0
LINE
8
BLACK
6
CONTINUOUS
10
184.4034619999999904
20
-71.3817749999999904
11
184.5750859999999989
21
-71.437539000000001
0
LINE
8
BLACK
6
CONTINUOUS
10
184.5750859999999989
20
-71.437539000000001
11
184.735872999999998
21
-71.5194639999999993
0
LINE
8
BLACK
6
CONTINUOUS
10
184.735872999999998
20
-71.5194639999999993
11
184.8818650000000048
21
-71.6255329999999901
0
LINE
8
BLACK
6
CONTINUOUS
10
184.8818650000000048
20
-71.6255329999999901
11
185.0094670000000008
21
-71.7531350000000003
0
LINE
8
BLACK
6
CONTINUOUS
10
185.0094670000000008
20
-71.7531350000000003
11
185.1155359999999916
21
-71.8991269999999929
0
LINE
8
BLACK
6
CONTINUOUS
10
185.1155359999999916
20
-71.8991269999999929
11
185.1974610000000041
21
-72.059913999999992
0
LINE
8
BLACK
6
CONTINUOUS
10
185.1974610000000041
20
-72.059913999999992
11
185.2532249999999863
21
-72.2315380000000005
0
LINE
8
BLACK
6
CONTINUOUS
10
185.2532249999999863
20
-72.2315380000000005
11
185.281454999999994
21
-72.4097720000000038
0
LINE
8
BLACK
6
CONTINUOUS
10
185.281454999999994
20
-72.4097720000000038
11
185.281454999999994
21
-72.5902279999999962
0
LINE
8
BLACK
6
CONTINUOUS
10
185.281454999999994
20
-72.5902279999999962
11
185.2532249999999863
21
-72.7684619999999995
0
LINE
8
BLACK
6
CONTINUOUS
10
185.2532249999999863
20
-72.7684619999999995
11
185.1974610000000041
21
-72.9400859999999938
0
LINE
8
BLACK
6
CONTINUOUS
10
185.1974610000000041
20
-72.9400859999999938
11
185.1155359999999916
21
-73.1008729999999929
0
LINE
8
BLACK
6
CONTINUOUS
10
185.1155359999999916
20
-73.1008729999999929
11
185.0094670000000008
21
-73.2468649999999997
0
LINE
8
BLACK
6
CONTINUOUS
10
185.0094670000000008
20
-73.2468649999999997
11
184.8818650000000048
21
-73.3744669999999957
0
LINE
8
BLACK
6
CONTINUOUS
10
184.8818650000000048
20
-73.3744669999999957
11
184.735872999999998
21
-73.4805360000000007
0
LINE
8
BLACK
6
CONTINUOUS
10
184.735872999999998
20
-73.4805360000000007
11
184.5750859999999989
21
-73.562460999999999
0
LINE
8
BLACK
6
CONTINUOUS
10
184.5750859999999989
20
-73.562460999999999
11
184.4034619999999904
21
-73.6182249999999954
0
LINE
8
BLACK
6
CONTINUOUS
10
184.4034619999999904
20
-73.6182249999999954
11
184.2252279999999871
21
-73.6464550000000031
0
LINE
8
BLACK
6
CONTINUOUS
10
184.2252279999999871
20
-73.6464550000000031
11
184.0447719999999947
21
-73.6464550000000031
0
LINE
8
BLACK
6
CONTINUOUS
10
184.0447719999999947
20
-73.6464550000000031
11
183.8665379999999914
21
-73.6182249999999954
0
LINE
8
BLACK
6
CONTINUOUS
10
183.8665379999999914
20
-73.6182249999999954
11
183.6949139999999829
21
-73.562460999999999
0
LINE
8
BLACK
6
CONTINUOUS
10
183.6949139999999829
20
-73.562460999999999
11
183.5341269999999838
21
-73.4805360000000007
0
LINE
8
BLACK
6
CONTINUOUS
10
183.5341269999999838
20
-73.4805360000000007
11
183.3881350000000054
21
-73.3744669999999957
0
LINE
8
BLACK
6
CONTINUOUS
10
183.3881350000000054
20
-73.3744669999999957
11
183.260532999999981
21
-73.2468649999999997
0
LINE
8
BLACK
6
CONTINUOUS
10
183.260532999999981
20
-73.2468649999999997
11
183.1544639999999902
21
-73.1008729999999929
0
LINE
8
BLACK
6
CONTINUOUS
10
183.1544639999999902
20
-73.1008729999999929
11
183.0725389999999777
21
-72.9400859999999938
0
LINE
8
BLACK
6
CONTINUOUS
10
183.0725389999999777
20
-72.9400859999999938
11
183.0167749999999955
21
-72.7684619999999995
0
LINE
8
BLACK
6
CONTINUOUS
10
183.0167749999999955
20
-72.7684619999999995
11
182.9885449999999878
21
-72.5902279999999962
0
LINE
8
BLACK
6
CONTINUOUS
10
182.9885449999999878
20
-72.5902279999999962
11
182.9885449999999878
21
-72.4097720000000038
0
LINE
8
BLACK
6
CONTINUOUS
10
182.9885449999999878
20
-72.4097720000000038
11
182.990634
21
-72.3965839999999901
0
LINE
8
BLACK
6
CONTINUOUS
10
182.990634
20
-72.3965839999999901
11
183.0167749999999955
21
-72.2315380000000005
0
LINE
8
BLACK
6
CONTINUOUS
10
183.0167749999999955
20
-72.2315380000000005
11
183.0725389999999777
21
-72.059913999999992
0
LINE
8
BLACK
6
CONTINUOUS
10
183.0725389999999777
20
-72.059913999999992
11
183.1544639999999902
21
-71.8991269999999929
0
LINE
8
BLACK
6
CONTINUOUS
10
183.1544639999999902
20
-71.8991269999999929
11
183.260532999999981
21
-71.7531350000000003
0
LINE
8
BLACK
6
CONTINUOUS
10
183.260532999999981
20
-71.7531350000000003
11
183.3881350000000054
21
-71.6255329999999901
0
LINE
8
BLACK
6
CONTINUOUS
10
183.3881350000000054
20
-71.6255329999999901
11
183.5341269999999838
21
-71.5194639999999993
0
LINE
8
BLACK
6
CONTINUOUS
10
183.5341269999999838
20
-71.5194639999999993
11
183.6949139999999829
21
-71.437539000000001
0
LINE
8
BLACK
6
CONTINUOUS
10
183.6949139999999829
20
-71.437539000000001
11
183.8665379999999914
21
-71.3817749999999904
0
LINE
8
BLACK
6
CONTINUOUS
10
183.8665379999999914
20
-71.3817749999999904
11
184.0447719999999947
21
-71.3535449999999969
0
LINE
8
BLACK
6
CONTINUOUS
10
184.0447719999999947
20
-71.3535449999999969
11
184.2252279999999871
21
-71.3535449999999969
0
LINE
8
BLACK
6
CONTINUOUS
10
184.2252279999999871
20
-71.3535449999999969
11
184.4034619999999904
21
-71.3817749999999904
0
LINE
8
BLACK
6
CONTINUOUS
10
183.0849999999999795
20
-72.6034159999999957
11
183.1253499999999974
21
-72.8062740000000019
0
LINE
8
BLACK
6
CONTINUOUS
10
183.1253499999999974
20
-72.8062740000000019
11
183.2045019999999909
21
-72.9973619999999954
0
LINE
8
BLACK
6
CONTINUOUS
10
183.2045019999999909
20
-72.9973619999999954
11
183.3194110000000023
21
-73.1693360000000013
0
LINE
8
BLACK
6
CONTINUOUS
10
183.3194110000000023
20
-73.1693360000000013
11
183.4656640000000039
21
-73.3155890000000028
0
LINE
8
BLACK
6
CONTINUOUS
10
183.4656640000000039
20
-73.3155890000000028
11
183.6376379999999813
21
-73.430498
0
LINE
8
BLACK
6
CONTINUOUS
10
183.6376379999999813
20
-73.430498
11
183.828725999999989
21
-73.5096499999999935
0
LINE
8
BLACK
6
CONTINUOUS
10
183.828725999999989
20
-73.5096499999999935
11
184.031583999999981
21
-73.5499999999999972
0
LINE
8
BLACK
6
CONTINUOUS
10
184.031583999999981
20
-73.5499999999999972
11
184.2384160000000008
21
-73.5499999999999972
0
LINE
8
BLACK
6
CONTINUOUS
10
184.2384160000000008
20
-73.5499999999999972
11
184.4412739999999928
21
-73.5096499999999935
0
LINE
8
BLACK
6
CONTINUOUS
10
184.4412739999999928
20
-73.5096499999999935
11
184.6323620000000005
21
-73.430498
0
LINE
8
BLACK
6
CONTINUOUS
10
184.6323620000000005
20
-73.430498
11
184.804335999999978
21
-73.3155890000000028
0
LINE
8
BLACK
6
CONTINUOUS
10
184.804335999999978
20
-73.3155890000000028
11
184.9505889999999795
21
-73.1693360000000013
0
LINE
8
BLACK
6
CONTINUOUS
10
184.9505889999999795
20
-73.1693360000000013
11
185.065497999999991
21
-72.9973619999999954
0
LINE
8
BLACK
6
CONTINUOUS
10
185.065497999999991
20
-72.9973619999999954
11
185.1446499999999844
21
-72.8062740000000019
0
LINE
8
BLACK
6
CONTINUOUS
10
185.1446499999999844
20
-72.8062740000000019
11
185.1850000000000023
21
-72.6034159999999957
0
LINE
8
BLACK
6
CONTINUOUS
10
185.1850000000000023
20
-72.6034159999999957
11
185.1850000000000023
21
-72.3965839999999901
0
LINE
8
BLACK
6
CONTINUOUS
10
185.1850000000000023
20
-72.3965839999999901
11
185.1446499999999844
21
-72.1937259999999981
0
LINE
8
BLACK
6
CONTINUOUS
10
185.1446499999999844
20
-72.1937259999999981
11
185.065497999999991
21
-72.0026379999999904
0
LINE
8
BLACK
6
CONTINUOUS
10
185.065497999999991
20
-72.0026379999999904
11
184.9505889999999795
21
-71.8306639999999987
0
LINE
8
BLACK
6
CONTINUOUS
10
184.9505889999999795
20
-71.8306639999999987
11
184.804335999999978
21
-71.6844109999999972
0
LINE
8
BLACK
6
CONTINUOUS
10
184.804335999999978
20
-71.6844109999999972
11
184.6323620000000005
21
-71.569502
0
LINE
8
BLACK
6
CONTINUOUS
10
184.6323620000000005
20
-71.569502
11
184.4412739999999928
21
-71.4903499999999923
0
LINE
8
BLACK
6
CONTINUOUS
10
184.4412739999999928
20
-71.4903499999999923
11
184.2384160000000008
21
-71.4500000000000028
0
LINE
8
BLACK
6
CONTINUOUS
10
184.2384160000000008
20
-71.4500000000000028
11
184.031583999999981
21
-71.4500000000000028
0
LINE
8
BLACK
6
CONTINUOUS
10
184.031583999999981
20
-71.4500000000000028
11
183.828725999999989
21
-71.4903499999999923
0
LINE
8
BLACK
6
CONTINUOUS
10
183.828725999999989
20
-71.4903499999999923
11
183.6376379999999813
21
-71.569502
0
LINE
8
BLACK
6
CONTINUOUS
10
183.6376379999999813
20
-71.569502
11
183.4656640000000039
21
-71.6844109999999972
0
LINE
8
BLACK
6
CONTINUOUS
10
183.4656640000000039
20
-71.6844109999999972
11
183.3194110000000023
21
-71.8306639999999987
0
LINE
8
BLACK
6
CONTINUOUS
10
183.3194110000000023
20
-71.8306639999999987
11
183.2045019999999909
21
-72.0026379999999904
0
LINE
8
BLACK
6
CONTINUOUS
10
183.2045019999999909
20
-72.0026379999999904
11
183.1253499999999974
21
-72.1937259999999981
0
LINE
8
BLACK
6
CONTINUOUS
10
183.1253499999999974
20
-72.1937259999999981
11
183.0849999999999795
21
-72.3965839999999901
0
LINE
8
BLACK
6
CONTINUOUS
10
183.0849999999999795
20
-72.3965839999999901
11
183.0849999999999795
21
-72.6034159999999957
0
LINE
8
BLACK
6
CONTINUOUS
10
227.4034619999999904
20
-71.3817749999999904
11
227.5750859999999989
21
-71.437539000000001
0
LINE
8
BLACK
6
CONTINUOUS
10
227.5750859999999989
20
-71.437539000000001
11
227.735872999999998
21
-71.5194639999999993
0
LINE
8
BLACK
6
CONTINUOUS
10
227.735872999999998
20
-71.5194639999999993
11
227.8818649999999764
21
-71.6255329999999901
0
LINE
8
BLACK
6
CONTINUOUS
10
227.8818649999999764
20
-71.6255329999999901
11
228.0094670000000008
21
-71.7531350000000003
0
LINE
8
BLACK
6
CONTINUOUS
10
228.0094670000000008
20
-71.7531350000000003
11
228.1155359999999916
21
-71.8991269999999929
0
LINE
8
BLACK
6
CONTINUOUS
10
228.1155359999999916
20
-71.8991269999999929
11
228.1974609999999757
21
-72.059913999999992
0
LINE
8
BLACK
6
CONTINUOUS
10
228.1974609999999757
20
-72.059913999999992
11
228.2532249999999863
21
-72.2315380000000005
0
LINE
8
BLACK
6
CONTINUOUS
10
228.2532249999999863
20
-72.2315380000000005
11
228.281454999999994
21
-72.4097720000000038
0
LINE
8
BLACK
6
CONTINUOUS
10
228.281454999999994
20
-72.4097720000000038
11
228.281454999999994
21
-72.5902279999999962
0
LINE
8
BLACK
6
CONTINUOUS
10
228.281454999999994
20
-72.5902279999999962
11
228.2532249999999863
21
-72.7684619999999995
0
LINE
8
BLACK
6
CONTINUOUS
10
228.2532249999999863
20
-72.7684619999999995
11
228.1974609999999757
21
-72.9400859999999938
0
LINE
8
BLACK
6
CONTINUOUS
10
228.1974609999999757
20
-72.9400859999999938
11
228.1155359999999916
21
-73.1008729999999929
0
LINE
8
BLACK
6
CONTINUOUS
10
228.1155359999999916
20
-73.1008729999999929
11
228.0094670000000008
21
-73.2468649999999997
0
LINE
8
BLACK
6
CONTINUOUS
10
228.0094670000000008
20
-73.2468649999999997
11
227.8818649999999764
21
-73.3744669999999957
0
LINE
8
BLACK
6
CONTINUOUS
10
227.8818649999999764
20
-73.3744669999999957
11
227.735872999999998
21
-73.4805360000000007
0
LINE
8
BLACK
6
CONTINUOUS
10
227.735872999999998
20
-73.4805360000000007
11
227.5750859999999989
21
-73.562460999999999
0
LINE
8
BLACK
6
CONTINUOUS
10
227.5750859999999989
20
-73.562460999999999
11
227.4034619999999904
21
-73.6182249999999954
0
LINE
8
BLACK
6
CONTINUOUS
10
227.4034619999999904
20
-73.6182249999999954
11
227.2252279999999871
21
-73.6464550000000031
0
LINE
8
BLACK
6
CONTINUOUS
10
227.2252279999999871
20
-73.6464550000000031
11
227.0447719999999947
21
-73.6464550000000031
0
LINE
8
BLACK
6
CONTINUOUS
10
227.0447719999999947
20
-73.6464550000000031
11
226.8665379999999914
21
-73.6182249999999954
0
LINE
8
BLACK
6
CONTINUOUS
10
226.8665379999999914
20
-73.6182249999999954
11
226.6949139999999829
21
-73.562460999999999
0
LINE
8
BLACK
6
CONTINUOUS
10
226.6949139999999829
20
-73.562460999999999
11
226.5341269999999838
21
-73.4805360000000007
0
LINE
8
BLACK
6
CONTINUOUS
10
226.5341269999999838
20
-73.4805360000000007
11
226.388134999999977
21
-73.3744669999999957
0
LINE
8
BLACK
6
CONTINUOUS
10
226.388134999999977
20
-73.3744669999999957
11
226.260532999999981
21
-73.2468649999999997
0
LINE
8
BLACK
6
CONTINUOUS
10
226.260532999999981
20
-73.2468649999999997
11
226.1544639999999902
21
-73.1008729999999929
0
LINE
8
BLACK
6
CONTINUOUS
10
226.1544639999999902
20
-73.1008729999999929
11
226.0725389999999777
21
-72.9400859999999938
0
LINE
8
BLACK
6
CONTINUOUS
10
226.0725389999999777
20
-72.9400859999999938
11
226.0167749999999955
21
-72.7684619999999995
0
LINE
8
BLACK
6
CONTINUOUS
10
226.0167749999999955
20
-72.7684619999999995
11
225.9885449999999878
21
-72.5902279999999962
0
LINE
8
BLACK
6
CONTINUOUS
10
225.9885449999999878
20
-72.5902279999999962
11
225.9885449999999878
21
-72.4097720000000038
0
LINE
8
BLACK
6
CONTINUOUS
10
225.9885449999999878
20
-72.4097720000000038
11
225.990634
21
-72.3965839999999901
0
LINE
8
BLACK
6
CONTINUOUS
10
225.990634
20
-72.3965839999999901
11
226.0167749999999955
21
-72.2315380000000005
0
LINE
8
BLACK
6
CONTINUOUS
10
226.0167749999999955
20
-72.2315380000000005
11
226.0725389999999777
21
-72.059913999999992
0
LINE
8
BLACK
6
CONTINUOUS
10
226.0725389999999777
20
-72.059913999999992
11
226.1544639999999902
21
-71.8991269999999929
0
LINE
8
BLACK
6
CONTINUOUS
10
226.1544639999999902
20
-71.8991269999999929
11
226.260532999999981
21
-71.7531350000000003
0
LINE
8
BLACK
6
CONTINUOUS
10
226.260532999999981
20
-71.7531350000000003
11
226.388134999999977
21
-71.6255329999999901
0
LINE
8
BLACK
6
CONTINUOUS
10
226.388134999999977
20
-71.6255329999999901
11
226.5341269999999838
21
-71.5194639999999993
0
LINE
8
BLACK
6
CONTINUOUS
10
226.5341269999999838
20
-71.5194639999999993
11
226.6949139999999829
21
-71.437539000000001
0
LINE
8
BLACK
6
CONTINUOUS
10
226.6949139999999829
20
-71.437539000000001
11
226.8665379999999914
21
-71.3817749999999904
0
LINE
8
BLACK
6
CONTINUOUS
10
226.8665379999999914
20
-71.3817749999999904
11
227.0447719999999947
21
-71.3535449999999969
0
LINE
8
BLACK
6
CONTINUOUS
10
227.0447719999999947
20
-71.3535449999999969
11
227.2252279999999871
21
-71.3535449999999969
0
LINE
8
BLACK
6
CONTINUOUS
10
227.2252279999999871
20
-71.3535449999999969
11
227.4034619999999904
21
-71.3817749999999904
0
LINE
8
BLACK
6
CONTINUOUS
10
226.0849999999999795
20
-72.6034159999999957
11
226.1253499999999974
21
-72.8062740000000019
0
LINE
8
BLACK
6
CONTINUOUS
10
226.1253499999999974
20
-72.8062740000000019
11
226.2045019999999909
21
-72.9973619999999954
0
LINE
8
BLACK
6
CONTINUOUS
10
226.2045019999999909
20
-72.9973619999999954
11
226.3194110000000023
21
-73.1693360000000013
0
LINE
8
BLACK
6
CONTINUOUS
10
226.3194110000000023
20
-73.1693360000000013
11
226.4656640000000039
21
-73.3155890000000028
0
LINE
8
BLACK
6
CONTINUOUS
10
226.4656640000000039
20
-73.3155890000000028
11
226.6376379999999813
21
-73.430498
0
LINE
8
BLACK
6
CONTINUOUS
10
226.6376379999999813
20
-73.430498
11
226.828725999999989
21
-73.5096499999999935
0
LINE
8
BLACK
6
CONTINUOUS
10
226.828725999999989
20
-73.5096499999999935
11
227.031583999999981
21
-73.5499999999999972
0
LINE
8
BLACK
6
CONTINUOUS
10
227.031583999999981
20
-73.5499999999999972
11
227.2384160000000008
21
-73.5499999999999972
0
LINE
8
BLACK
6
CONTINUOUS
10
227.2384160000000008
20
-73.5499999999999972
11
227.4412739999999928
21
-73.5096499999999935
0
LINE
8
BLACK
6
CONTINUOUS
10
227.4412739999999928
20
-73.5096499999999935
11
227.6323620000000005
21
-73.430498
0
LINE
8
BLACK
6
CONTINUOUS
10
227.6323620000000005
20
-73.430498
11
227.804335999999978
21
-73.3155890000000028
0
LINE
8
BLACK
6
CONTINUOUS
10
227.804335999999978
20
-73.3155890000000028
11
227.9505889999999795
21
-73.1693360000000013
0
LINE
8
BLACK
6
CONTINUOUS
10
227.9505889999999795
20
-73.1693360000000013
11
228.065497999999991
21
-72.9973619999999954
0
LINE
8
BLACK
6
CONTINUOUS
10
228.065497999999991
20
-72.9973619999999954
11
228.1446499999999844
21
-72.8062740000000019
0
LINE
8
BLACK
6
CONTINUOUS
10
228.1446499999999844
20
-72.8062740000000019
11
228.1850000000000023
21
-72.6034159999999957
0
LINE
8
BLACK
6
CONTINUOUS
10
228.1850000000000023
20
-72.6034159999999957
11
228.1850000000000023
21
-72.3965839999999901
0
LINE
8
BLACK
6
CONTINUOUS
10
228.1850000000000023
20
-72.3965839999999901
11
228.1446499999999844
21
-72.1937259999999981
0
LINE
8
BLACK
6
CONTINUOUS
10
228.1446499999999844
20
-72.1937259999999981
11
228.065497999999991
21
-72.0026379999999904
0
LINE
8
BLACK
6
CONTINUOUS
10
228.065497999999991
20
-72.0026379999999904
11
227.9505889999999795
21
-71.8306639999999987
0
LINE
8
BLACK
6
CONTINUOUS
10
227.9505889999999795
20
-71.8306639999999987
11
227.804335999999978
21
-71.6844109999999972
0
LINE
8
BLACK
6
CONTINUOUS
10
227.804335999999978
20
-71.6844109999999972
11
227.6323620000000005
21
-71.569502
0
LINE
8
BLACK
6
CONTINUOUS
10
227.6323620000000005
20
-71.569502
11
227.4412739999999928
21
-71.4903499999999923
0
LINE
8
BLACK
6
CONTINUOUS
10
227.4412739999999928
20
-71.4903499999999923
11
227.2384160000000008
21
-71.4500000000000028
0
LINE
8
BLACK
6
CONTINUOUS
10
227.2384160000000008
20
-71.4500000000000028
11
227.031583999999981
21
-71.4500000000000028
0
LINE
8
BLACK
6
CONTINUOUS
10
227.031583999999981
20
-71.4500000000000028
11
226.828725999999989
21
-71.4903499999999923
0
LINE
8
BLACK
6
CONTINUOUS
10
226.828725999999989
20
-71.4903499999999923
11
226.6376379999999813
21
-71.569502
0
LINE
8
BLACK
6
CONTINUOUS
10
226.6376379999999813
20
-71.569502
11
226.4656640000000039
21
-71.6844109999999972
0
LINE
8
BLACK
6
CONTINUOUS
10
226.4656640000000039
20
-71.6844109999999972
11
226.3194110000000023
21
-71.8306639999999987
0
LINE
8
BLACK
6
CONTINUOUS
10
226.3194110000000023
20
-71.8306639999999987
11
226.2045019999999909
21
-72.0026379999999904
0
LINE
8
BLACK
6
CONTINUOUS
10
226.2045019999999909
20
-72.0026379999999904
11
226.1253499999999974
21
-72.1937259999999981
0
LINE
8
BLACK
6
CONTINUOUS
10
226.1253499999999974
20
-72.1937259999999981
11
226.0849999999999795
21
-72.3965839999999901
0
LINE
8
BLACK
6
CONTINUOUS
10
226.0849999999999795
20
-72.3965839999999901
11
226.0849999999999795
21
-72.6034159999999957
0
LINE
8
BLACK
6
CONTINUOUS
10
234.2587069999999869
20
-68.4963209999999947
11
234.5748789999999815
21
-68.5128890000000013
0
LINE
8
BLACK
6
CONTINUOUS
10
234.5748789999999815
20
-68.5128890000000013
11
234.887613999999985
21
-68.562420000000003
0
LINE
8
BLACK
6
CONTINUOUS
10
234.887613999999985
20
-68.562420000000003
11
235.1934589999999901
21
-68.6443689999999975
0
LINE
8
BLACK
6
CONTINUOUS
10
235.1934589999999901
20
-68.6443689999999975
11
235.4890619999999899
21
-68.7578389999999899
0
LINE
8
BLACK
6
CONTINUOUS
10
235.4890619999999899
20
-68.7578389999999899
11
235.7711839999999768
21
-68.9015869999999921
0
LINE
8
BLACK
6
CONTINUOUS
10
235.7711839999999768
20
-68.9015869999999921
11
236.0367349999999931
21
-69.0740369999999899
0
LINE
8
BLACK
6
CONTINUOUS
10
236.0367349999999931
20
-69.0740369999999899
11
236.2828059999999937
21
-69.2733010000000036
0
LINE
8
BLACK
6
CONTINUOUS
10
236.2828059999999937
20
-69.2733010000000036
11
236.5066989999999976
21
-69.4971939999999933
0
LINE
8
BLACK
6
CONTINUOUS
10
236.5066989999999976
20
-69.4971939999999933
11
236.705962999999997
21
-69.7432649999999938
0
LINE
8
BLACK
6
CONTINUOUS
10
236.705962999999997
20
-69.7432649999999938
11
236.8784129999999948
21
-70.0088159999999959
0
LINE
8
BLACK
6
CONTINUOUS
10
236.8784129999999948
20
-70.0088159999999959
11
237.0221609999999828
21
-70.290937999999997
0
LINE
8
BLACK
6
CONTINUOUS
10
237.0221609999999828
20
-70.290937999999997
11
237.1356309999999894
21
-70.5865409999999969
0
LINE
8
BLACK
6
CONTINUOUS
10
237.1356309999999894
20
-70.5865409999999969
11
237.2175799999999981
21
-70.8923860000000019
0
LINE
8
BLACK
6
CONTINUOUS
10
237.2175799999999981
20
-70.8923860000000019
11
237.2671109999999999
21
-71.2051209999999912
0
LINE
8
BLACK
6
CONTINUOUS
10
237.2671109999999999
20
-71.2051209999999912
11
237.2836779999999806
21
-71.5212920000000025
0
LINE
8
BLACK
6
CONTINUOUS
10
237.2836779999999806
20
-71.5212920000000025
11
237.2836799999999755
21
-71.5212999999999965
0
LINE
8
BLACK
6
CONTINUOUS
10
237.2836799999999755
20
-71.5212999999999965
11
237.2836799999999755
21
-98.5499999999999972
0
LINE
8
BLACK
6
CONTINUOUS
10
237.2836799999999755
20
-98.5499999999999972
11
237.2671089999999765
21
-98.8661979999999971
0
LINE
8
BLACK
6
CONTINUOUS
10
237.2671089999999765
20
-98.8661979999999971
11
237.2175759999999798
21
-99.1789309999999915
0
LINE
8
BLACK
6
CONTINUOUS
10
237.2175759999999798
20
-99.1789309999999915
11
237.135626000000002
21
-99.4847740000000016
0
LINE
8
BLACK
6
CONTINUOUS
10
237.135626000000002
20
-99.4847740000000016
11
237.0221549999999979
21
-99.7803749999999923
0
LINE
8
BLACK
6
CONTINUOUS
10
237.0221549999999979
20
-99.7803749999999923
11
236.878405999999984
21
-100.0624959999999959
0
LINE
8
BLACK
6
CONTINUOUS
10
236.878405999999984
20
-100.0624959999999959
11
236.7059549999999888
21
-100.3280449999999888
0
LINE
8
BLACK
6
CONTINUOUS
10
236.7059549999999888
20
-100.3280449999999888
11
236.5066919999999868
21
-100.5741139999999945
0
LINE
8
BLACK
6
CONTINUOUS
10
236.5066919999999868
20
-100.5741139999999945
11
236.2827989999999829
21
-100.7980049999999892
0
LINE
8
BLACK
6
CONTINUOUS
10
236.2827989999999829
20
-100.7980049999999892
11
236.0367289999999798
21
-100.9972669999999937
0
LINE
8
BLACK
6
CONTINUOUS
10
236.0367289999999798
20
-100.9972669999999937
11
235.7711779999999919
21
-101.169715999999994
0
LINE
8
BLACK
6
CONTINUOUS
10
235.7711779999999919
20
-101.169715999999994
11
235.4890570000000025
21
-101.3134629999999987
0
LINE
8
BLACK
6
CONTINUOUS
10
235.4890570000000025
20
-101.3134629999999987
11
235.1934550000000002
21
-101.4269319999999936
0
LINE
8
BLACK
6
CONTINUOUS
10
235.1934550000000002
20
-101.4269319999999936
11
234.8876119999999901
21
-101.5088810000000024
0
LINE
8
BLACK
6
CONTINUOUS
10
234.8876119999999901
20
-101.5088810000000024
11
234.574877999999984
21
-101.5584109999999924
0
LINE
8
BLACK
6
CONTINUOUS
10
234.574877999999984
20
-101.5584109999999924
11
234.2588159999999959
21
-101.5749720000000025
0
LINE
8
BLACK
6
CONTINUOUS
10
234.2588159999999959
20
-101.5749720000000025
11
234.2586799999999982
21
-101.5749999999999886
0
LINE
8
BLACK
6
CONTINUOUS
10
234.2586799999999982
20
-101.5749999999999886
11
176.1999999999999886
21
-101.5749999999999886
0
LINE
8
BLACK
6
CONTINUOUS
10
176.1999999999999886
20
-101.5749999999999886
11
175.8838010000000054
21
-101.5584289999999896
0
LINE
8
BLACK
6
CONTINUOUS
10
175.8838010000000054
20
-101.5584289999999896
11
175.5710669999999993
21
-101.5088959999999929
0
LINE
8
BLACK
6
CONTINUOUS
10
175.5710669999999993
20
-101.5088959999999929
11
175.2652239999999892
21
-101.4269460000000009
0
LINE
8
BLACK
6
CONTINUOUS
10
175.2652239999999892
20
-101.4269460000000009
11
174.9696219999999869
21
-101.3134749999999968
0
LINE
8
BLACK
6
CONTINUOUS
10
174.9696219999999869
20
-101.3134749999999968
11
174.6875
21
-101.1697269999999946
0
LINE
8
BLACK
6
CONTINUOUS
10
174.6875
20
-101.1697269999999946
11
174.4219499999999812
21
-100.9972759999999994
0
LINE
8
BLACK
6
CONTINUOUS
10
174.4219499999999812
20
-100.9972759999999994
11
174.1758799999999781
21
-100.7980129999999974
0
LINE
8
BLACK
6
CONTINUOUS
10
174.1758799999999781
20
-100.7980129999999974
11
173.9519870000000026
21
-100.5741199999999935
0
LINE
8
BLACK
6
CONTINUOUS
10
173.9519870000000026
20
-100.5741199999999935
11
173.7527240000000006
21
-100.3280499999999904
0
LINE
8
BLACK
6
CONTINUOUS
10
173.7527240000000006
20
-100.3280499999999904
11
173.5802730000000054
21
-100.0625
0
LINE
8
BLACK
6
CONTINUOUS
10
173.5802730000000054
20
-100.0625
11
173.4365249999999889
21
-99.7803779999999989
0
LINE
8
BLACK
6
CONTINUOUS
10
173.4365249999999889
20
-99.7803779999999989
11
173.3230539999999849
21
-99.4847759999999965
0
LINE
8
BLACK
6
CONTINUOUS
10
173.3230539999999849
20
-99.4847759999999965
11
173.2411039999999787
21
-99.1789330000000007
0
LINE
8
BLACK
6
CONTINUOUS
10
173.2411039999999787
20
-99.1789330000000007
11
173.191570999999982
21
-98.8661989999999946
0
LINE
8
BLACK
6
CONTINUOUS
10
173.191570999999982
20
-98.8661989999999946
11
173.1749999999999829
21
-98.5499999999999972
0
LINE
8
BLACK
6
CONTINUOUS
10
173.1749999999999829
20
-98.5499999999999972
11
173.1749999999999829
21
-71.5212999999999965
0
LINE
8
BLACK
6
CONTINUOUS
10
173.1749999999999829
20
-71.5212999999999965
11
173.1750009999999804
21
-71.5212920000000025
0
LINE
8
BLACK
6
CONTINUOUS
10
173.1750009999999804
20
-71.5212920000000025
11
173.1914919999999825
21
-71.205851999999993
0
LINE
8
BLACK
6
CONTINUOUS
10
173.1914919999999825
20
-71.205851999999993
11
173.240793999999994
21
-70.8938249999999925
0
LINE
8
BLACK
6
CONTINUOUS
10
173.240793999999994
20
-70.8938249999999925
11
173.3223669999999856
21
-70.5886399999999981
0
LINE
8
BLACK
6
CONTINUOUS
10
173.3223669999999856
20
-70.5886399999999981
11
173.4353219999999851
21
-70.2936270000000007
0
LINE
8
BLACK
6
CONTINUOUS
10
173.4353219999999851
20
-70.2936270000000007
11
173.5784270000000049
21
-70.0120009999999979
0
LINE
8
BLACK
6
CONTINUOUS
10
173.5784270000000049
20
-70.0120009999999979
11
173.7501220000000046
21
-69.7468360000000018
0
LINE
8
BLACK
6
CONTINUOUS
10
173.7501220000000046
20
-69.7468360000000018
11
173.9485339999999951
21
-69.5010209999999944
0
LINE
8
BLACK
6
CONTINUOUS
10
173.9485339999999951
20
-69.5010209999999944
11
174.171498999999983
21
-69.2772389999999945
0
LINE
8
BLACK
6
CONTINUOUS
10
174.171498999999983
20
-69.2772389999999945
11
174.4165859999999952
21
-69.0779299999999949
0
LINE
8
BLACK
6
CONTINUOUS
10
174.4165859999999952
20
-69.0779299999999949
11
174.6811219999999878
21
-68.9052659999999975
0
LINE
8
BLACK
6
CONTINUOUS
10
174.6811219999999878
20
-68.9052659999999975
11
174.9622209999999995
21
-68.7611320000000035
0
LINE
8
BLACK
6
CONTINUOUS
10
174.9622209999999995
20
-68.7611320000000035
11
175.2568200000000047
21
-68.6470979999999997
0
LINE
8
BLACK
6
CONTINUOUS
10
175.2568200000000047
20
-68.6470979999999997
11
175.5617039999999918
21
-68.5644089999999977
0
LINE
8
BLACK
6
CONTINUOUS
10
175.5617039999999918
20
-68.5644089999999977
11
175.873548999999997
21
-68.5139659999999964
0
LINE
8
BLACK
6
CONTINUOUS
10
175.873548999999997
20
-68.5139659999999964
11
176.1889549999999929
21
-68.4963199999999972
0
LINE
8
BLACK
6
CONTINUOUS
10
176.1889549999999929
20
-68.4963199999999972
11
176.1889549999999929
21
-68.4963379999999944
0
LINE
8
BLACK
6
CONTINUOUS
10
176.1889549999999929
20
-68.4963379999999944
11
176.1890459999999905
21
-68.4963199999999972
0
LINE
8
BLACK
6
CONTINUOUS
10
176.1890459999999905
20
-68.4963199999999972
11
234.2586999999999762
21
-68.4963199999999972
0
LINE
8
BLACK
6
CONTINUOUS
10
234.2586999999999762
20
-68.4963199999999972
11
234.2587069999999869
21
-68.4963209999999947
0
LINE
8
BLACK
6
CONTINUOUS
10
234.2586999999999762
20
-68.5463189999999969
11
234.2586999999999762
21
-68.5463199999999944
0
LINE
8
BLACK
6
CONTINUOUS
10
234.2586999999999762
20
-68.5463199999999944
11
234.2586799999999982
21
-68.5463199999999944
0
LINE
8
BLACK
6
CONTINUOUS
10
234.2586799999999982
20
-68.5463199999999944
11
176.1891980000000046
21
-68.5463199999999944
0
LINE
8
BLACK
6
CONTINUOUS
10
176.1891980000000046
20
-68.5463199999999944
11
176.1891369999999881
21
-68.5463400000000007
0
LINE
8
BLACK
6
CONTINUOUS
10
176.1891369999999881
20
-68.5463400000000007
11
176.1891369999999881
21
-68.5463199999999944
0
LINE
8
BLACK
6
CONTINUOUS
10
176.1891369999999881
20
-68.5463199999999944
11
176.0335859999999855
21
-68.5468690000000009
0
LINE
8
BLACK
6
CONTINUOUS
10
176.0335859999999855
20
-68.5468690000000009
11
175.7242999999999995
21
-68.5804419999999908
0
LINE
8
BLACK
6
CONTINUOUS
10
175.7242999999999995
20
-68.5804419999999908
11
175.4202009999999916
21
-68.6460869999999943
0
LINE
8
BLACK
6
CONTINUOUS
10
175.4202009999999916
20
-68.6460869999999943
11
175.124606
21
-68.7430880000000002
0
LINE
8
BLACK
6
CONTINUOUS
10
175.124606
20
-68.7430880000000002
11
174.840738999999985
21
-68.8703859999999963
0
LINE
8
BLACK
6
CONTINUOUS
10
174.840738999999985
20
-68.8703859999999963
11
174.5716960000000029
21
-69.0265940000000029
0
LINE
8
BLACK
6
CONTINUOUS
10
174.5716960000000029
20
-69.0265940000000029
11
174.3204089999999837
21
-69.2100069999999903
0
LINE
8
BLACK
6
CONTINUOUS
10
174.3204089999999837
20
-69.2100069999999903
11
174.089620999999994
21
-69.4186270000000007
0
LINE
8
BLACK
6
CONTINUOUS
10
174.089620999999994
20
-69.4186270000000007
11
173.8818469999999934
21
-69.6501769999999993
0
LINE
8
BLACK
6
CONTINUOUS
10
173.8818469999999934
20
-69.6501769999999993
11
173.6993539999999996
21
-69.9021319999999946
0
LINE
8
BLACK
6
CONTINUOUS
10
173.6993539999999996
20
-69.9021319999999946
11
173.544130999999993
21
-70.1717450000000014
0
LINE
8
BLACK
6
CONTINUOUS
10
173.544130999999993
20
-70.1717450000000014
11
173.4178719999999885
21
-70.4560759999999959
0
LINE
8
BLACK
6
CONTINUOUS
10
173.4178719999999885
20
-70.4560759999999959
11
173.3219540000000052
21
-70.7520239999999916
0
LINE
8
BLACK
6
CONTINUOUS
10
173.3219540000000052
20
-70.7520239999999916
11
173.2574219999999912
21
-71.0563609999999954
0
LINE
8
BLACK
6
CONTINUOUS
10
173.2574219999999912
20
-71.0563609999999954
11
173.224979999999988
21
-71.3657680000000028
0
LINE
8
BLACK
6
CONTINUOUS
10
173.224979999999988
20
-71.3657680000000028
11
173.2249989999999968
21
-71.5212989999999991
0
LINE
8
BLACK
6
CONTINUOUS
10
173.2249989999999968
20
-71.5212989999999991
11
173.2249999999999943
21
-71.5212999999999965
0
LINE
8
BLACK
6
CONTINUOUS
10
173.2249999999999943
20
-71.5212999999999965
11
173.2249999999999943
21
-98.5499999999999972
0
LINE
8
BLACK
6
CONTINUOUS
10
173.2249999999999943
20
-98.5499999999999972
11
173.2249999999999943
21
-98.7059129999999953
0
LINE
8
BLACK
6
CONTINUOUS
10
173.2249999999999943
20
-98.7059129999999953
11
173.2575939999999832
21
-99.0160309999999981
0
LINE
8
BLACK
6
CONTINUOUS
10
173.2575939999999832
20
-99.0160309999999981
11
173.3224270000000047
21
-99.3210429999999889
0
LINE
8
BLACK
6
CONTINUOUS
10
173.3224270000000047
20
-99.3210429999999889
11
173.418785999999983
21
-99.6176079999999899
0
LINE
8
BLACK
6
CONTINUOUS
10
173.418785999999983
20
-99.6176079999999899
11
173.5456179999999904
21
-99.9024749999999955
0
LINE
8
BLACK
6
CONTINUOUS
10
173.5456179999999904
20
-99.9024749999999955
11
173.7015309999999886
21
-100.1725249999999932
0
LINE
8
BLACK
6
CONTINUOUS
10
173.7015309999999886
20
-100.1725249999999932
11
173.8848179999999957
21
-100.4247979999999956
0
LINE
8
BLACK
6
CONTINUOUS
10
173.8848179999999957
20
-100.4247979999999956
11
174.0934699999999964
21
-100.6565299999999894
0
LINE
8
BLACK
6
CONTINUOUS
10
174.0934699999999964
20
-100.6565299999999894
11
174.3252019999999902
21
-100.8651819999999901
0
LINE
8
BLACK
6
CONTINUOUS
10
174.3252019999999902
20
-100.8651819999999901
11
174.5774749999999926
21
-101.0484689999999972
0
LINE
8
BLACK
6
CONTINUOUS
10
174.5774749999999926
20
-101.0484689999999972
11
174.8475249999999903
21
-101.2043819999999954
0
LINE
8
BLACK
6
CONTINUOUS
10
174.8475249999999903
20
-101.2043819999999954
11
175.1323919999999816
21
-101.3312139999999886
0
LINE
8
BLACK
6
CONTINUOUS
10
175.1323919999999816
20
-101.3312139999999886
11
175.4289569999999969
21
-101.4275729999999953
0
LINE
8
BLACK
6
CONTINUOUS
10
175.4289569999999969
20
-101.4275729999999953
11
175.7339690000000019
21
-101.4924059999999884
0
LINE
8
BLACK
6
CONTINUOUS
10
175.7339690000000019
20
-101.4924059999999884
11
176.0440869999999904
21
-101.5249999999999915
0
LINE
8
BLACK
6
CONTINUOUS
10
176.0440869999999904
20
-101.5249999999999915
11
176.1999999999999886
21
-101.5249999999999915
0
LINE
8
BLACK
6
CONTINUOUS
10
176.1999999999999886
20
-101.5249999999999915
11
234.2586799999999982
21
-101.5249999999999915
0
LINE
8
BLACK
6
CONTINUOUS
10
234.2586799999999982
20
-101.5249999999999915
11
234.2586799999999982
21
-101.5249799999999993
0
LINE
8
BLACK
6
CONTINUOUS
10
234.2586799999999982
20
-101.5249799999999993
11
234.4145929999999964
21
-101.5249809999999968
0
LINE
8
BLACK
6
CONTINUOUS
10
234.4145929999999964
20
-101.5249809999999968
11
234.7247099999999875
21
-101.4923889999999886
0
LINE
8
BLACK
6
CONTINUOUS
10
234.7247099999999875
20
-101.4923889999999886
11
235.0297219999999925
21
-101.4275579999999906
0
LINE
8
BLACK
6
CONTINUOUS
10
235.0297219999999925
20
-101.4275579999999906
11
235.3262859999999819
21
-101.3311999999999955
0
LINE
8
BLACK
6
CONTINUOUS
10
235.3262859999999819
20
-101.3311999999999955
11
235.6111539999999991
21
-101.2043709999999948
0
LINE
8
BLACK
6
CONTINUOUS
10
235.6111539999999991
20
-101.2043709999999948
11
235.8812029999999993
21
-101.048458999999994
0
LINE
8
BLACK
6
CONTINUOUS
10
235.8812029999999993
20
-101.048458999999994
11
236.1334760000000017
21
-100.8651739999999961
0
LINE
8
BLACK
6
CONTINUOUS
10
236.1334760000000017
20
-100.8651739999999961
11
236.365208999999993
21
-100.6565229999999929
0
LINE
8
BLACK
6
CONTINUOUS
10
236.365208999999993
20
-100.6565229999999929
11
236.5738609999999937
21
-100.4247919999999965
0
LINE
8
BLACK
6
CONTINUOUS
10
236.5738609999999937
20
-100.4247919999999965
11
236.7571480000000008
21
-100.1725199999999916
0
LINE
8
BLACK
6
CONTINUOUS
10
236.7571480000000008
20
-100.1725199999999916
11
236.9130619999999965
21
-99.9024719999999888
0
LINE
8
BLACK
6
CONTINUOUS
10
236.9130619999999965
20
-99.9024719999999888
11
237.039892999999978
21
-99.6176049999999975
0
LINE
8
BLACK
6
CONTINUOUS
10
237.039892999999978
20
-99.6176049999999975
11
237.1362529999999822
21
-99.3210409999999939
0
LINE
8
BLACK
6
CONTINUOUS
10
237.1362529999999822
20
-99.3210409999999939
11
237.2010849999999778
21
-99.0160300000000007
0
LINE
8
BLACK
6
CONTINUOUS
10
237.2010849999999778
20
-99.0160300000000007
11
237.2336799999999926
21
-98.7059129999999953
0
LINE
8
BLACK
6
CONTINUOUS
10
237.2336799999999926
20
-98.7059129999999953
11
237.2336799999999926
21
-98.5499999999999972
0
LINE
8
BLACK
6
CONTINUOUS
10
237.2336799999999926
20
-98.5499999999999972
11
237.2336799999999926
21
-71.5212999999999965
0
LINE
8
BLACK
6
CONTINUOUS
10
237.2336799999999926
20
-71.5212999999999965
11
237.2336799999999926
21
-71.5212989999999991
0
LINE
8
BLACK
6
CONTINUOUS
10
237.2336799999999926
20
-71.5212989999999991
11
237.23368099999999
21
-71.365405999999993
0
LINE
8
BLACK
6
CONTINUOUS
10
237.23368099999999
20
-71.365405999999993
11
237.2010879999999986
21
-71.0552879999999902
0
LINE
8
BLACK
6
CONTINUOUS
10
237.2010879999999986
20
-71.0552879999999902
11
237.1362570000000005
21
-70.750275000000002
0
LINE
8
BLACK
6
CONTINUOUS
10
237.1362570000000005
20
-70.750275000000002
11
237.0398989999999912
21
-70.4537090000000035
0
LINE
8
BLACK
6
CONTINUOUS
10
237.0398989999999912
20
-70.4537090000000035
11
236.9130679999999813
21
-70.1688410000000005
0
LINE
8
BLACK
6
CONTINUOUS
10
236.9130679999999813
20
-70.1688410000000005
11
236.7571549999999831
21
-69.8987899999999911
0
LINE
8
BLACK
6
CONTINUOUS
10
236.7571549999999831
20
-69.8987899999999911
11
236.5738679999999761
21
-69.6465170000000029
0
LINE
8
BLACK
6
CONTINUOUS
10
236.5738679999999761
20
-69.6465170000000029
11
236.3652159999999753
21
-69.4147839999999974
0
LINE
8
BLACK
6
CONTINUOUS
10
236.3652159999999753
20
-69.4147839999999974
11
236.133482999999984
21
-69.2061319999999967
0
LINE
8
BLACK
6
CONTINUOUS
10
236.133482999999984
20
-69.2061319999999967
11
235.8812099999999816
21
-69.0228450000000038
0
LINE
8
BLACK
6
CONTINUOUS
10
235.8812099999999816
20
-69.0228450000000038
11
235.6111589999999865
21
-68.8669319999999914
0
LINE
8
BLACK
6
CONTINUOUS
10
235.6111589999999865
20
-68.8669319999999914
11
235.3262909999999977
21
-68.7401009999999957
0
LINE
8
BLACK
6
CONTINUOUS
10
235.3262909999999977
20
-68.7401009999999957
11
235.0297249999999849
21
-68.6437430000000006
0
LINE
8
BLACK
6
CONTINUOUS
10
235.0297249999999849
20
-68.6437430000000006
11
234.7247119999999825
21
-68.5789120000000025
0
LINE
8
BLACK
6
CONTINUOUS
10
234.7247119999999825
20
-68.5789120000000025
11
234.4145939999999939
21
-68.5463189999999969
0
LINE
8
BLACK
6
CONTINUOUS
10
234.4145939999999939
20
-68.5463189999999969
11
234.2586999999999762
21
-68.5463189999999969
  0
ENDSEC
  0
EOF
