%TF.GenerationSoftware,KiCad,Pcbnew,9.0.0*%
%TF.CreationDate,2025-08-20T16:33:56-07:00*%
%TF.ProjectId,flatchord,666c6174-6368-46f7-9264-2e6b69636164,rev?*%
%TF.SameCoordinates,Original*%
%TF.FileFunction,Legend,Top*%
%TF.FilePolarity,Positive*%
%FSLAX46Y46*%
G04 Gerber Fmt 4.6, Leading zero omitted, Abs format (unit mm)*
G04 Created by KiCad (PCBNEW 9.0.0) date 2025-08-20 16:33:56*
%MOMM*%
%LPD*%
G01*
G04 APERTURE LIST*
%ADD10C,0.300000*%
%ADD11C,0.120000*%
%ADD12C,0.150000*%
%ADD13C,0.100000*%
G04 APERTURE END LIST*
D10*
G36*
X193151605Y-84475966D02*
G01*
X193138833Y-84646116D01*
X193106261Y-84760465D01*
X193059769Y-84834515D01*
X192991043Y-84886376D01*
X192885807Y-84921848D01*
X192729797Y-84935631D01*
X192553944Y-84921947D01*
X192437389Y-84887202D01*
X192363189Y-84837690D01*
X192312610Y-84764711D01*
X192277082Y-84648784D01*
X192263049Y-84472302D01*
X192263049Y-81654228D01*
X192285764Y-81421221D01*
X192318522Y-81336971D01*
X192368806Y-81271988D01*
X192436907Y-81223912D01*
X192528541Y-81191388D01*
X192780111Y-81168429D01*
X194229448Y-81168429D01*
X194388670Y-81187822D01*
X194486277Y-81237013D01*
X194541975Y-81311426D01*
X194561863Y-81419023D01*
X194541443Y-81530206D01*
X194486392Y-81598785D01*
X194397039Y-81637163D01*
X194240683Y-81653007D01*
X193138171Y-81653007D01*
X192933984Y-81672302D01*
X192865422Y-81701146D01*
X192816992Y-81746308D01*
X192784665Y-81808563D01*
X192762526Y-81904089D01*
X192748604Y-82176420D01*
X192762281Y-82426036D01*
X192785542Y-82509442D01*
X192821877Y-82563789D01*
X192875597Y-82600658D01*
X192955722Y-82623872D01*
X193199720Y-82637794D01*
X194212595Y-82637794D01*
X194389582Y-82654137D01*
X194486392Y-82692749D01*
X194545487Y-82763077D01*
X194567480Y-82880083D01*
X194546100Y-82997416D01*
X194489078Y-83067662D01*
X194396091Y-83106235D01*
X194229448Y-83122372D01*
X193569016Y-83122372D01*
X193342114Y-83136294D01*
X193268146Y-83161173D01*
X193216817Y-83204682D01*
X193183241Y-83267001D01*
X193162595Y-83362219D01*
X193151605Y-83639923D01*
X193151605Y-84475966D01*
G37*
G36*
X195721528Y-84435422D02*
G01*
X195707362Y-84675757D01*
X195684742Y-84762768D01*
X195649720Y-84824745D01*
X195599370Y-84870543D01*
X195531751Y-84899972D01*
X195338799Y-84920000D01*
X195176305Y-84910461D01*
X195086252Y-84888248D01*
X195018120Y-84843001D01*
X194962421Y-84764173D01*
X194933600Y-84652554D01*
X194927983Y-84435422D01*
X194927983Y-81502798D01*
X194942200Y-81320619D01*
X194974389Y-81228513D01*
X195036217Y-81173409D01*
X195142916Y-81152798D01*
X195244706Y-81173157D01*
X195305582Y-81228513D01*
X195337949Y-81320611D01*
X195352233Y-81502554D01*
X195352233Y-81996168D01*
X195362187Y-82116596D01*
X195384228Y-82173733D01*
X195429662Y-82210889D01*
X195531018Y-82246517D01*
X195636538Y-82291017D01*
X195686601Y-82339574D01*
X195710547Y-82412329D01*
X195721528Y-82568185D01*
X195721528Y-84435422D01*
G37*
G36*
X198013747Y-82277048D02*
G01*
X198091519Y-82301075D01*
X198145638Y-82340795D01*
X198183074Y-82397461D01*
X198206454Y-82478548D01*
X198220621Y-82713510D01*
X198220621Y-84480362D01*
X198203524Y-84707020D01*
X198178213Y-84785648D01*
X198140020Y-84842086D01*
X198085927Y-84881671D01*
X198008129Y-84905833D01*
X197781960Y-84920000D01*
X196590055Y-84920000D01*
X196366573Y-84902903D01*
X196286107Y-84877133D01*
X196231751Y-84839155D01*
X196193975Y-84784791D01*
X196168248Y-84704089D01*
X196151151Y-84479874D01*
X196151151Y-84024361D01*
X196939078Y-84024361D01*
X196939078Y-84205589D01*
X196947138Y-84364836D01*
X196962025Y-84417136D01*
X196986950Y-84452030D01*
X197075854Y-84489644D01*
X197233635Y-84497948D01*
X197507676Y-84497948D01*
X197659351Y-84486957D01*
X197745568Y-84446413D01*
X197785624Y-84361905D01*
X197796615Y-84211207D01*
X197796615Y-84041458D01*
X197788311Y-83873419D01*
X197774141Y-83817704D01*
X197751186Y-83780607D01*
X197716712Y-83755301D01*
X197664968Y-83740307D01*
X197507676Y-83732002D01*
X197228018Y-83732002D01*
X197060218Y-83748405D01*
X196989881Y-83783538D01*
X196955295Y-83854444D01*
X196939078Y-84024361D01*
X196151151Y-84024361D01*
X196151151Y-83761311D01*
X196165317Y-83526106D01*
X196189479Y-83445218D01*
X196229064Y-83388108D01*
X196285772Y-83348236D01*
X196363886Y-83324361D01*
X196590055Y-83309951D01*
X197507676Y-83309951D01*
X197659351Y-83298960D01*
X197745568Y-83258904D01*
X197785624Y-83172198D01*
X197796615Y-83019790D01*
X197796615Y-82969232D01*
X197788311Y-82816824D01*
X197774145Y-82764372D01*
X197751186Y-82730118D01*
X197717197Y-82707148D01*
X197665212Y-82692993D01*
X197507676Y-82684689D01*
X196836252Y-82684689D01*
X196709540Y-82693119D01*
X196647697Y-82711800D01*
X196609389Y-82751349D01*
X196586636Y-82831723D01*
X196575401Y-82911835D01*
X196537089Y-83023532D01*
X196469744Y-83084939D01*
X196366085Y-83106741D01*
X196259021Y-83087345D01*
X196197801Y-83036399D01*
X196165345Y-82950726D01*
X196151151Y-82783363D01*
X196151151Y-82715708D01*
X196165317Y-82479769D01*
X196189492Y-82398417D01*
X196229064Y-82341039D01*
X196285793Y-82300976D01*
X196363886Y-82277048D01*
X196590055Y-82262637D01*
X197787578Y-82262637D01*
X198013747Y-82277048D01*
G37*
G36*
X198842463Y-81664731D02*
G01*
X198856593Y-81482180D01*
X198888869Y-81387759D01*
X198951007Y-81330369D01*
X199057397Y-81309113D01*
X199163996Y-81329841D01*
X199225680Y-81385317D01*
X199258042Y-81477977D01*
X199272330Y-81661067D01*
X199272330Y-82061625D01*
X199280118Y-82181559D01*
X199295533Y-82226001D01*
X199330779Y-82248257D01*
X199421563Y-82262637D01*
X199547557Y-82280962D01*
X199625488Y-82322647D01*
X199670295Y-82384681D01*
X199686322Y-82473663D01*
X199671016Y-82564257D01*
X199628925Y-82626232D01*
X199557382Y-82666987D01*
X199443789Y-82684689D01*
X199336945Y-82699285D01*
X199295289Y-82721570D01*
X199276176Y-82766251D01*
X199266713Y-82884724D01*
X199266713Y-83002693D01*
X199276662Y-83123372D01*
X199298709Y-83180746D01*
X199344145Y-83217855D01*
X199445498Y-83253286D01*
X199551018Y-83297786D01*
X199601081Y-83346343D01*
X199625032Y-83419338D01*
X199636008Y-83575443D01*
X199636008Y-84434689D01*
X199621842Y-84675268D01*
X199599211Y-84762493D01*
X199564200Y-84824501D01*
X199513830Y-84870494D01*
X199446231Y-84899972D01*
X199253279Y-84920000D01*
X199090408Y-84910532D01*
X198997801Y-84888248D01*
X198928481Y-84842521D01*
X198876901Y-84763928D01*
X198848080Y-84652309D01*
X198842463Y-84434689D01*
X198842463Y-82918674D01*
X198837090Y-82823175D01*
X198829895Y-82755136D01*
X198813886Y-82724256D01*
X198720830Y-82690307D01*
X198648534Y-82684689D01*
X198521039Y-82651165D01*
X198452639Y-82583978D01*
X198428471Y-82476350D01*
X198444118Y-82381613D01*
X198486652Y-82318325D01*
X198558185Y-82278107D01*
X198671249Y-82262637D01*
X198766015Y-82254822D01*
X198816085Y-82218185D01*
X198837090Y-82131723D01*
X198842463Y-81973210D01*
X198842463Y-81664731D01*
G37*
G36*
X202897871Y-84482561D02*
G01*
X202879787Y-84655907D01*
X202832382Y-84775170D01*
X202760607Y-84855275D01*
X202692806Y-84893763D01*
X202612107Y-84918534D01*
X202324877Y-84935631D01*
X200685275Y-84935631D01*
X200394870Y-84915847D01*
X200293287Y-84884341D01*
X200220725Y-84835003D01*
X200169408Y-84765139D01*
X200137683Y-84668674D01*
X200117899Y-84387794D01*
X200117899Y-81682561D01*
X200140614Y-81429769D01*
X200173171Y-81338092D01*
X200220725Y-81271988D01*
X200286969Y-81224177D01*
X200380460Y-81191388D01*
X200634961Y-81168429D01*
X202364200Y-81168429D01*
X202640683Y-81191388D01*
X202739200Y-81225579D01*
X202808967Y-81277606D01*
X202857246Y-81350612D01*
X202886392Y-81454926D01*
X202903489Y-81754612D01*
X202897871Y-82013021D01*
X202881141Y-82170094D01*
X202839986Y-82262393D01*
X202768859Y-82320019D01*
X202660711Y-82340795D01*
X202543309Y-82320541D01*
X202475819Y-82267766D01*
X202437951Y-82179864D01*
X202417934Y-82017418D01*
X202395708Y-81822756D01*
X202370048Y-81758613D01*
X202328297Y-81713335D01*
X202269576Y-81683508D01*
X202177599Y-81664242D01*
X201910886Y-81653007D01*
X201048953Y-81653007D01*
X200808129Y-81669616D01*
X200726391Y-81696681D01*
X200671353Y-81740446D01*
X200634980Y-81803165D01*
X200611758Y-81897739D01*
X200598080Y-82174221D01*
X200603454Y-82364731D01*
X200625191Y-82480746D01*
X200673796Y-82554263D01*
X200761235Y-82606043D01*
X200902896Y-82680048D01*
X200947702Y-82714432D01*
X200977634Y-82758450D01*
X201003524Y-82890586D01*
X201006454Y-83125303D01*
X201006454Y-83828722D01*
X201009141Y-84011416D01*
X201017690Y-84171395D01*
X201034036Y-84275288D01*
X201070879Y-84346420D01*
X201126622Y-84393656D01*
X201254817Y-84433068D01*
X201524738Y-84451053D01*
X201910886Y-84451053D01*
X202191277Y-84437376D01*
X202282876Y-84411205D01*
X202341486Y-84366545D01*
X202378993Y-84299902D01*
X202401081Y-84195331D01*
X202412316Y-83878792D01*
X202428398Y-83716209D01*
X202467271Y-83623314D01*
X202537600Y-83565925D01*
X202655094Y-83544424D01*
X202772588Y-83565925D01*
X202842916Y-83623314D01*
X202881652Y-83716911D01*
X202897871Y-83884898D01*
X202897871Y-84482561D01*
G37*
G36*
X205368143Y-84564382D02*
G01*
X205354021Y-84746967D01*
X205321737Y-84841598D01*
X205259788Y-84898777D01*
X205153210Y-84920000D01*
X205046900Y-84899316D01*
X204987613Y-84844528D01*
X204957496Y-84752685D01*
X204944138Y-84570488D01*
X204944138Y-82973872D01*
X204927860Y-82805836D01*
X204893091Y-82735736D01*
X204823019Y-82700962D01*
X204655198Y-82684689D01*
X204017236Y-82684689D01*
X203849416Y-82700962D01*
X203779344Y-82735736D01*
X203744749Y-82805806D01*
X203728541Y-82973872D01*
X203728541Y-83130676D01*
X203738491Y-83250888D01*
X203760537Y-83307997D01*
X203805970Y-83345153D01*
X203907327Y-83380781D01*
X204012877Y-83425229D01*
X204062909Y-83473593D01*
X204086856Y-83546349D01*
X204097836Y-83702205D01*
X204097836Y-84435910D01*
X204083670Y-84676001D01*
X204061039Y-84762974D01*
X204026029Y-84824745D01*
X203975679Y-84870543D01*
X203908060Y-84899972D01*
X203715108Y-84920000D01*
X203547669Y-84910395D01*
X203456943Y-84888248D01*
X203388811Y-84843001D01*
X203333112Y-84764173D01*
X203304291Y-84652554D01*
X203298674Y-84435422D01*
X203298674Y-81502798D01*
X203312891Y-81320619D01*
X203345080Y-81228513D01*
X203406908Y-81173409D01*
X203513607Y-81152798D01*
X203619728Y-81173516D01*
X203679204Y-81228513D01*
X203709493Y-81320375D01*
X203722923Y-81502554D01*
X203722923Y-82012533D01*
X203738240Y-82146036D01*
X203773726Y-82211835D01*
X203839941Y-82247174D01*
X203978157Y-82262637D01*
X204929483Y-82262637D01*
X205155408Y-82277048D01*
X205233691Y-82300945D01*
X205290230Y-82340795D01*
X205329938Y-82397728D01*
X205353977Y-82478548D01*
X205368143Y-82713510D01*
X205368143Y-84564382D01*
G37*
G36*
X207659385Y-82277048D02*
G01*
X207739696Y-82301219D01*
X207794207Y-82340795D01*
X207831644Y-82397461D01*
X207855024Y-82478548D01*
X207869190Y-82713510D01*
X207869190Y-84480362D01*
X207852093Y-84707020D01*
X207826783Y-84785648D01*
X207788590Y-84842086D01*
X207734497Y-84881671D01*
X207656699Y-84905833D01*
X207430530Y-84920000D01*
X206238625Y-84920000D01*
X206015143Y-84905833D01*
X205934975Y-84881551D01*
X205880321Y-84842086D01*
X205842262Y-84785675D01*
X205816817Y-84707020D01*
X205799720Y-84480362D01*
X205799720Y-82974117D01*
X206223970Y-82974117D01*
X206223970Y-83131409D01*
X206233924Y-83251837D01*
X206255966Y-83308974D01*
X206301400Y-83346130D01*
X206402756Y-83381758D01*
X206508275Y-83426258D01*
X206558339Y-83474815D01*
X206582285Y-83547570D01*
X206593265Y-83703426D01*
X206593265Y-84208520D01*
X206601325Y-84366057D01*
X206616200Y-84417891D01*
X206641137Y-84452519D01*
X206730041Y-84489888D01*
X206887578Y-84497948D01*
X207156245Y-84497948D01*
X207307920Y-84486957D01*
X207394138Y-84446901D01*
X207434193Y-84360439D01*
X207445184Y-84208520D01*
X207445184Y-82974117D01*
X207429678Y-82805539D01*
X207396824Y-82735736D01*
X207329025Y-82701068D01*
X207161863Y-82684689D01*
X206512665Y-82684689D01*
X206344845Y-82700962D01*
X206274773Y-82735736D01*
X206240183Y-82805834D01*
X206223970Y-82974117D01*
X205799720Y-82974117D01*
X205799720Y-82713510D01*
X205813886Y-82478548D01*
X205838060Y-82397703D01*
X205877634Y-82340795D01*
X205934342Y-82300922D01*
X206012456Y-82277048D01*
X206238625Y-82262637D01*
X207430530Y-82262637D01*
X207659385Y-82277048D01*
G37*
G36*
X209094312Y-84434689D02*
G01*
X209080146Y-84675268D01*
X209057516Y-84762493D01*
X209022505Y-84824501D01*
X208972134Y-84870494D01*
X208904535Y-84899972D01*
X208711584Y-84920000D01*
X208549089Y-84910461D01*
X208459036Y-84888248D01*
X208390904Y-84843001D01*
X208335205Y-84764173D01*
X208306385Y-84652554D01*
X208300767Y-84435422D01*
X208300767Y-82713510D01*
X208314933Y-82478548D01*
X208339107Y-82397703D01*
X208378681Y-82340795D01*
X208435388Y-82300922D01*
X208513503Y-82277048D01*
X208739672Y-82262637D01*
X209450418Y-82262637D01*
X209632322Y-82276755D01*
X209726657Y-82309043D01*
X209784132Y-82369932D01*
X209805059Y-82470976D01*
X209783450Y-82581173D01*
X209726413Y-82641458D01*
X209632352Y-82671497D01*
X209450418Y-82684689D01*
X209013712Y-82684689D01*
X208845892Y-82700962D01*
X208775819Y-82735736D01*
X208741224Y-82806066D01*
X208725017Y-82974605D01*
X208725017Y-83002693D01*
X208734967Y-83123372D01*
X208757013Y-83180746D01*
X208802450Y-83217855D01*
X208903803Y-83253286D01*
X209009322Y-83297786D01*
X209059385Y-83346343D01*
X209083336Y-83419338D01*
X209094312Y-83575443D01*
X209094312Y-84434689D01*
G37*
G36*
X212052577Y-81173800D02*
G01*
X212112665Y-81228513D01*
X212142778Y-81320385D01*
X212156140Y-81502798D01*
X212156140Y-84480362D01*
X212139043Y-84695785D01*
X212112926Y-84774348D01*
X212072609Y-84830851D01*
X212016826Y-84871791D01*
X211940963Y-84899972D01*
X211728715Y-84920000D01*
X210525575Y-84920000D01*
X210302093Y-84905833D01*
X210221925Y-84881551D01*
X210167271Y-84842086D01*
X210129213Y-84785675D01*
X210103768Y-84707020D01*
X210086671Y-84480362D01*
X210086671Y-82974117D01*
X210510921Y-82974117D01*
X210510921Y-83131409D01*
X210520875Y-83251837D01*
X210542916Y-83308974D01*
X210588350Y-83346130D01*
X210689706Y-83381758D01*
X210795226Y-83426258D01*
X210845289Y-83474815D01*
X210869235Y-83547570D01*
X210880216Y-83703426D01*
X210880216Y-84208520D01*
X210888276Y-84366057D01*
X210903150Y-84417891D01*
X210928087Y-84452519D01*
X211016992Y-84489888D01*
X211174528Y-84497948D01*
X211443196Y-84497948D01*
X211594870Y-84486957D01*
X211684019Y-84446901D01*
X211709885Y-84412260D01*
X211726762Y-84360439D01*
X211737752Y-84208520D01*
X211737752Y-82974117D01*
X211721470Y-82805864D01*
X211686706Y-82735736D01*
X211616633Y-82700962D01*
X211448813Y-82684689D01*
X210799616Y-82684689D01*
X210631796Y-82700962D01*
X210561723Y-82735736D01*
X210527133Y-82805834D01*
X210510921Y-82974117D01*
X210086671Y-82974117D01*
X210086671Y-82707892D01*
X210100837Y-82478548D01*
X210125010Y-82397703D01*
X210164584Y-82340795D01*
X210221292Y-82300922D01*
X210299406Y-82277048D01*
X210525575Y-82262637D01*
X211482519Y-82262637D01*
X211619856Y-82247077D01*
X211683775Y-82211835D01*
X211717474Y-82146323D01*
X211732135Y-82012533D01*
X211732135Y-81502554D01*
X211746348Y-81320591D01*
X211778541Y-81228513D01*
X211839417Y-81173157D01*
X211941207Y-81152798D01*
X212052577Y-81173800D01*
G37*
G36*
X193115177Y-90664836D02*
G01*
X193106866Y-90828975D01*
X193086601Y-90930816D01*
X193047707Y-91014046D01*
X192989148Y-91079316D01*
X192920762Y-91121823D01*
X192837962Y-91147948D01*
X192553419Y-91165045D01*
X191685868Y-91165045D01*
X191425261Y-91178722D01*
X191341513Y-91204389D01*
X191286043Y-91249309D01*
X191250562Y-91315185D01*
X191229134Y-91419302D01*
X191218143Y-91733642D01*
X191237194Y-91957369D01*
X191266590Y-92023777D01*
X191316085Y-92074605D01*
X191364445Y-92107090D01*
X191437962Y-92123210D01*
X191560327Y-92131514D01*
X191753035Y-92134200D01*
X192659665Y-92134200D01*
X192881437Y-92137131D01*
X192986706Y-92157159D01*
X193044522Y-92184803D01*
X193093928Y-92235561D01*
X193126132Y-92301439D01*
X193137404Y-92382840D01*
X193115309Y-92499589D01*
X193056315Y-92567976D01*
X192958510Y-92604262D01*
X192771528Y-92620000D01*
X190846406Y-92620000D01*
X190581158Y-92600216D01*
X190487748Y-92568908D01*
X190421179Y-92519616D01*
X190374300Y-92450164D01*
X190343510Y-92351332D01*
X190323726Y-92069476D01*
X190323726Y-91218778D01*
X190337892Y-90956706D01*
X190360391Y-90878377D01*
X190397976Y-90811137D01*
X190468923Y-90743136D01*
X190552581Y-90702205D01*
X190656486Y-90682111D01*
X190835415Y-90673628D01*
X192122330Y-90673628D01*
X192284752Y-90673628D01*
X192469399Y-90654577D01*
X192530643Y-90627039D01*
X192575157Y-90584480D01*
X192604535Y-90525280D01*
X192623761Y-90430851D01*
X192634996Y-90161207D01*
X192634996Y-89853217D01*
X192621318Y-89581130D01*
X192597420Y-89490566D01*
X192558792Y-89430676D01*
X192501620Y-89390029D01*
X192416643Y-89365708D01*
X192161653Y-89351786D01*
X191260642Y-89351786D01*
X191035938Y-89365708D01*
X190956724Y-89386583D01*
X190901849Y-89417243D01*
X190860899Y-89460934D01*
X190834193Y-89517871D01*
X190815143Y-89685666D01*
X190809525Y-89808764D01*
X190789977Y-89990192D01*
X190754570Y-90082316D01*
X190689157Y-90136850D01*
X190572365Y-90157787D01*
X190441311Y-90134850D01*
X190373063Y-90076699D01*
X190339211Y-89975026D01*
X190323726Y-89758206D01*
X190323726Y-89416755D01*
X190343510Y-89134654D01*
X190375691Y-89036637D01*
X190426796Y-88969057D01*
X190499771Y-88922483D01*
X190606315Y-88891632D01*
X190913572Y-88871849D01*
X192508478Y-88871849D01*
X192809874Y-88888946D01*
X192907564Y-88914271D01*
X192977669Y-88951472D01*
X193046057Y-89011800D01*
X193089532Y-89095087D01*
X193109560Y-89222826D01*
X193115177Y-89416755D01*
X193115177Y-90664836D01*
G37*
G36*
X196206071Y-88891632D02*
G01*
X196304801Y-88922910D01*
X196374354Y-88971988D01*
X196423289Y-89041931D01*
X196454710Y-89143203D01*
X196474494Y-89427990D01*
X196474494Y-92108555D01*
X196454466Y-92365498D01*
X196423508Y-92456420D01*
X196374110Y-92522791D01*
X196305213Y-92569733D01*
X196208757Y-92600216D01*
X195935205Y-92620000D01*
X194138799Y-92620000D01*
X193845464Y-92600216D01*
X193742344Y-92567431D01*
X193671318Y-92514242D01*
X193622419Y-92439129D01*
X193591207Y-92334724D01*
X193571423Y-92035771D01*
X193571423Y-89870069D01*
X194056978Y-89870069D01*
X194056978Y-91582456D01*
X194067969Y-91883119D01*
X194086860Y-91985705D01*
X194114131Y-92047739D01*
X194158043Y-92090603D01*
X194225505Y-92115150D01*
X194435310Y-92128583D01*
X195022958Y-92128583D01*
X195337299Y-92117592D01*
X195440834Y-92096638D01*
X195501674Y-92063614D01*
X195542233Y-92011282D01*
X195566643Y-91930013D01*
X195580321Y-91677711D01*
X195580321Y-90916650D01*
X195585938Y-90726385D01*
X195591556Y-90554438D01*
X195620621Y-90445505D01*
X195686810Y-90373210D01*
X195803558Y-90316057D01*
X195909042Y-90260127D01*
X195956454Y-90210300D01*
X195978873Y-90140636D01*
X195988939Y-89998785D01*
X195994556Y-89769441D01*
X195977948Y-89559148D01*
X195953140Y-89483670D01*
X195915666Y-89430921D01*
X195862363Y-89393513D01*
X195784508Y-89368394D01*
X195565910Y-89351786D01*
X194536182Y-89351786D01*
X194267027Y-89365708D01*
X194180185Y-89390277D01*
X194124877Y-89430676D01*
X194089355Y-89490440D01*
X194067969Y-89583817D01*
X194056978Y-89870069D01*
X193571423Y-89870069D01*
X193571423Y-89427990D01*
X193591207Y-89131967D01*
X193621396Y-89045439D01*
X193668632Y-88980293D01*
X193739158Y-88927912D01*
X193828367Y-88894563D01*
X193938996Y-88878633D01*
X194133182Y-88871849D01*
X195923970Y-88871849D01*
X196206071Y-88891632D01*
G37*
G36*
X199739043Y-90664836D02*
G01*
X199730732Y-90828975D01*
X199710467Y-90930816D01*
X199671573Y-91014046D01*
X199613014Y-91079316D01*
X199544628Y-91121823D01*
X199461828Y-91147948D01*
X199177285Y-91165045D01*
X198309734Y-91165045D01*
X198049127Y-91178722D01*
X197965379Y-91204389D01*
X197909909Y-91249309D01*
X197874428Y-91315185D01*
X197853000Y-91419302D01*
X197842009Y-91733642D01*
X197861060Y-91957369D01*
X197890456Y-92023777D01*
X197939951Y-92074605D01*
X197988311Y-92107090D01*
X198061828Y-92123210D01*
X198184193Y-92131514D01*
X198376901Y-92134200D01*
X199283531Y-92134200D01*
X199505303Y-92137131D01*
X199610572Y-92157159D01*
X199668388Y-92184803D01*
X199717794Y-92235561D01*
X199749998Y-92301439D01*
X199761270Y-92382840D01*
X199739175Y-92499589D01*
X199680181Y-92567976D01*
X199582376Y-92604262D01*
X199395394Y-92620000D01*
X197470272Y-92620000D01*
X197205024Y-92600216D01*
X197111614Y-92568908D01*
X197045045Y-92519616D01*
X196998166Y-92450164D01*
X196967376Y-92351332D01*
X196947592Y-92069476D01*
X196947592Y-91218778D01*
X196961758Y-90956706D01*
X196984257Y-90878377D01*
X197021842Y-90811137D01*
X197092789Y-90743136D01*
X197176448Y-90702205D01*
X197280352Y-90682111D01*
X197459281Y-90673628D01*
X198746196Y-90673628D01*
X198908618Y-90673628D01*
X199093265Y-90654577D01*
X199154509Y-90627039D01*
X199199023Y-90584480D01*
X199228401Y-90525280D01*
X199247627Y-90430851D01*
X199258862Y-90161207D01*
X199258862Y-89853217D01*
X199245184Y-89581130D01*
X199221286Y-89490566D01*
X199182658Y-89430676D01*
X199125486Y-89390029D01*
X199040509Y-89365708D01*
X198785519Y-89351786D01*
X197884508Y-89351786D01*
X197659804Y-89365708D01*
X197580590Y-89386583D01*
X197525715Y-89417243D01*
X197484765Y-89460934D01*
X197458060Y-89517871D01*
X197439009Y-89685666D01*
X197433391Y-89808764D01*
X197413843Y-89990192D01*
X197378436Y-90082316D01*
X197313023Y-90136850D01*
X197196231Y-90157787D01*
X197065177Y-90134850D01*
X196996929Y-90076699D01*
X196963077Y-89975026D01*
X196947592Y-89758206D01*
X196947592Y-89416755D01*
X196967376Y-89134654D01*
X196999557Y-89036637D01*
X197050662Y-88969057D01*
X197123637Y-88922483D01*
X197230181Y-88891632D01*
X197537438Y-88871849D01*
X199132344Y-88871849D01*
X199433740Y-88888946D01*
X199531430Y-88914271D01*
X199601535Y-88951472D01*
X199669923Y-89011800D01*
X199713398Y-89095087D01*
X199733426Y-89222826D01*
X199739043Y-89416755D01*
X199739043Y-90664836D01*
G37*
G36*
X202947418Y-92013300D02*
G01*
X202927390Y-92329106D01*
X202895862Y-92438374D01*
X202847034Y-92514242D01*
X202776977Y-92567706D01*
X202678750Y-92600216D01*
X202391032Y-92620000D01*
X200740195Y-92620000D01*
X200438555Y-92600216D01*
X200332287Y-92568699D01*
X200259036Y-92519860D01*
X200207785Y-92449900D01*
X200175750Y-92351577D01*
X200155966Y-92063859D01*
X200155966Y-91744877D01*
X200164515Y-91524815D01*
X200208234Y-91421011D01*
X200289667Y-91356285D01*
X200398988Y-91334061D01*
X200516629Y-91354774D01*
X200586566Y-91409532D01*
X200625398Y-91500274D01*
X200641765Y-91666475D01*
X200655443Y-91913649D01*
X200677307Y-91997345D01*
X200709665Y-92053112D01*
X200757586Y-92092579D01*
X200826657Y-92117836D01*
X201031332Y-92134200D01*
X201585275Y-92134200D01*
X201835136Y-92120523D01*
X201920591Y-92097412D01*
X201977041Y-92060928D01*
X202015760Y-92007002D01*
X202039323Y-91927327D01*
X202053244Y-91694319D01*
X202053244Y-91291563D01*
X202039323Y-91030711D01*
X202014393Y-90946032D01*
X201971667Y-90888806D01*
X201908105Y-90851310D01*
X201807048Y-90829211D01*
X201506873Y-90817976D01*
X200717969Y-90817976D01*
X200430251Y-90798192D01*
X200330972Y-90767716D01*
X200259281Y-90720767D01*
X200208025Y-90653588D01*
X200175994Y-90558101D01*
X200155966Y-90284305D01*
X200155966Y-89332979D01*
X200178681Y-89109253D01*
X200211582Y-89028237D01*
X200261967Y-88966127D01*
X200330418Y-88921306D01*
X200424633Y-88891632D01*
X200678646Y-88871849D01*
X202368806Y-88871849D01*
X202580944Y-88888724D01*
X202687055Y-88926803D01*
X202750434Y-88998557D01*
X202774005Y-89120244D01*
X202753302Y-89237930D01*
X202698534Y-89308066D01*
X202607170Y-89346598D01*
X202435973Y-89363021D01*
X201087264Y-89363021D01*
X200837648Y-89379630D01*
X200757998Y-89403291D01*
X200712351Y-89433363D01*
X200681978Y-89485905D01*
X200655443Y-89584061D01*
X200636147Y-89881304D01*
X200652512Y-90119685D01*
X200678936Y-90199150D01*
X200720411Y-90253286D01*
X200779465Y-90290570D01*
X200865491Y-90315812D01*
X201120725Y-90332421D01*
X202363189Y-90332421D01*
X202661898Y-90352205D01*
X202766241Y-90383483D01*
X202841172Y-90432561D01*
X202894831Y-90502240D01*
X202927390Y-90598157D01*
X202947418Y-90877327D01*
X202947418Y-92013300D01*
G37*
G36*
X206018771Y-88891632D02*
G01*
X206117502Y-88922910D01*
X206187055Y-88971988D01*
X206235990Y-89041931D01*
X206267411Y-89143203D01*
X206287194Y-89427990D01*
X206287194Y-92108555D01*
X206267166Y-92365498D01*
X206236208Y-92456420D01*
X206186810Y-92522791D01*
X206117913Y-92569733D01*
X206021458Y-92600216D01*
X205747906Y-92620000D01*
X203951500Y-92620000D01*
X203658164Y-92600216D01*
X203555045Y-92567431D01*
X203484019Y-92514242D01*
X203435120Y-92439129D01*
X203403907Y-92334724D01*
X203384124Y-92035771D01*
X203384124Y-89870069D01*
X203869678Y-89870069D01*
X203869678Y-91582456D01*
X203880669Y-91883119D01*
X203899561Y-91985705D01*
X203926831Y-92047739D01*
X203970743Y-92090603D01*
X204038206Y-92115150D01*
X204248011Y-92128583D01*
X204835659Y-92128583D01*
X205150000Y-92117592D01*
X205253535Y-92096638D01*
X205314375Y-92063614D01*
X205354933Y-92011282D01*
X205379344Y-91930013D01*
X205393021Y-91677711D01*
X205393021Y-90916650D01*
X205398639Y-90726385D01*
X205404256Y-90554438D01*
X205433321Y-90445505D01*
X205499511Y-90373210D01*
X205616259Y-90316057D01*
X205721743Y-90260127D01*
X205769155Y-90210300D01*
X205791574Y-90140636D01*
X205801639Y-89998785D01*
X205807257Y-89769441D01*
X205790648Y-89559148D01*
X205765841Y-89483670D01*
X205728367Y-89430921D01*
X205675063Y-89393513D01*
X205597208Y-89368394D01*
X205378611Y-89351786D01*
X204348883Y-89351786D01*
X204079727Y-89365708D01*
X203992885Y-89390277D01*
X203937578Y-89430676D01*
X203902055Y-89490440D01*
X203880669Y-89583817D01*
X203869678Y-89870069D01*
X203384124Y-89870069D01*
X203384124Y-89427990D01*
X203403907Y-89131967D01*
X203434097Y-89045439D01*
X203481332Y-88980293D01*
X203551859Y-88927912D01*
X203641067Y-88894563D01*
X203751696Y-88878633D01*
X203945882Y-88871849D01*
X205736671Y-88871849D01*
X206018771Y-88891632D01*
G37*
G36*
X208961653Y-88894563D02*
G01*
X209052545Y-88927807D01*
X209118457Y-88977850D01*
X209165914Y-89047080D01*
X209198813Y-89146133D01*
X209221528Y-89416755D01*
X209221528Y-89870069D01*
X209227145Y-90051053D01*
X209248883Y-90163893D01*
X209292358Y-90237166D01*
X209363189Y-90294075D01*
X209435729Y-90333398D01*
X209535380Y-90404717D01*
X209595708Y-90502170D01*
X209624528Y-90658241D01*
X209630146Y-90905415D01*
X209630146Y-92164487D01*
X209615661Y-92339933D01*
X209579051Y-92454237D01*
X209526831Y-92525478D01*
X209450932Y-92572577D01*
X209327144Y-92606452D01*
X209135310Y-92620000D01*
X207266364Y-92620000D01*
X206995498Y-92597285D01*
X206896593Y-92564464D01*
X206827215Y-92517173D01*
X206777161Y-92451060D01*
X206743928Y-92360125D01*
X206721214Y-92102937D01*
X206721214Y-91224396D01*
X207212630Y-91224396D01*
X207212630Y-91744877D01*
X207234618Y-91963561D01*
X207282972Y-92061172D01*
X207376731Y-92111743D01*
X207579727Y-92134200D01*
X208206454Y-92134200D01*
X208492707Y-92123210D01*
X208586704Y-92102066D01*
X208648778Y-92066301D01*
X208691690Y-92011874D01*
X208716434Y-91932700D01*
X208730355Y-91683328D01*
X208730355Y-91224396D01*
X208716434Y-91002868D01*
X208693596Y-90928111D01*
X208656838Y-90877571D01*
X208603945Y-90842909D01*
X208525924Y-90820662D01*
X208301465Y-90806985D01*
X207596336Y-90806985D01*
X207400209Y-90823349D01*
X207333228Y-90847940D01*
X207285903Y-90885631D01*
X207252731Y-90937849D01*
X207228995Y-91013859D01*
X207212630Y-91224396D01*
X206721214Y-91224396D01*
X206721214Y-90754228D01*
X206734704Y-90581195D01*
X206766887Y-90481898D01*
X206828786Y-90402701D01*
X206943475Y-90316789D01*
X207048255Y-90250600D01*
X207102233Y-90180258D01*
X207124214Y-90064975D01*
X207129832Y-89875687D01*
X207129832Y-89842226D01*
X207615387Y-89842226D01*
X207626378Y-90100635D01*
X207646378Y-90189186D01*
X207677913Y-90245471D01*
X207725029Y-90285305D01*
X207789288Y-90310439D01*
X207988101Y-90326803D01*
X208363014Y-90326803D01*
X208558897Y-90310439D01*
X208625330Y-90284995D01*
X208670516Y-90245471D01*
X208699968Y-90189451D01*
X208719120Y-90100635D01*
X208730355Y-89842226D01*
X208719120Y-89583817D01*
X208699959Y-89494785D01*
X208670516Y-89438736D01*
X208625325Y-89399267D01*
X208558897Y-89374012D01*
X208363014Y-89357404D01*
X207988101Y-89357404D01*
X207789288Y-89374012D01*
X207725034Y-89398958D01*
X207677913Y-89438736D01*
X207646387Y-89495050D01*
X207626378Y-89583817D01*
X207615387Y-89842226D01*
X207129832Y-89842226D01*
X207129832Y-89422372D01*
X207149616Y-89146133D01*
X207178885Y-89046764D01*
X207221179Y-88977850D01*
X207281730Y-88927775D01*
X207366992Y-88894563D01*
X207607571Y-88871849D01*
X208710083Y-88871849D01*
X208961653Y-88894563D01*
G37*
G36*
X212814829Y-90664836D02*
G01*
X212806517Y-90828975D01*
X212786252Y-90930816D01*
X212747358Y-91014046D01*
X212688799Y-91079316D01*
X212620413Y-91121823D01*
X212537613Y-91147948D01*
X212253070Y-91165045D01*
X211385519Y-91165045D01*
X211124912Y-91178722D01*
X211041164Y-91204389D01*
X210985694Y-91249309D01*
X210950213Y-91315185D01*
X210928785Y-91419302D01*
X210917794Y-91733642D01*
X210936845Y-91957369D01*
X210966241Y-92023777D01*
X211015736Y-92074605D01*
X211064096Y-92107090D01*
X211137613Y-92123210D01*
X211259979Y-92131514D01*
X211452686Y-92134200D01*
X212359316Y-92134200D01*
X212581088Y-92137131D01*
X212686357Y-92157159D01*
X212744173Y-92184803D01*
X212793579Y-92235561D01*
X212825783Y-92301439D01*
X212837055Y-92382840D01*
X212814960Y-92499589D01*
X212755966Y-92567976D01*
X212658161Y-92604262D01*
X212471179Y-92620000D01*
X210546057Y-92620000D01*
X210280809Y-92600216D01*
X210187399Y-92568908D01*
X210120830Y-92519616D01*
X210073951Y-92450164D01*
X210043161Y-92351332D01*
X210023377Y-92069476D01*
X210023377Y-91218778D01*
X210037543Y-90956706D01*
X210060042Y-90878377D01*
X210097627Y-90811137D01*
X210168574Y-90743136D01*
X210252233Y-90702205D01*
X210356137Y-90682111D01*
X210535066Y-90673628D01*
X211821981Y-90673628D01*
X211984403Y-90673628D01*
X212169050Y-90654577D01*
X212230294Y-90627039D01*
X212274808Y-90584480D01*
X212304187Y-90525280D01*
X212323412Y-90430851D01*
X212334647Y-90161207D01*
X212334647Y-89853217D01*
X212320969Y-89581130D01*
X212297071Y-89490566D01*
X212258443Y-89430676D01*
X212201271Y-89390029D01*
X212116294Y-89365708D01*
X211861304Y-89351786D01*
X210960293Y-89351786D01*
X210735589Y-89365708D01*
X210656376Y-89386583D01*
X210601500Y-89417243D01*
X210560550Y-89460934D01*
X210533845Y-89517871D01*
X210514794Y-89685666D01*
X210509176Y-89808764D01*
X210489628Y-89990192D01*
X210454221Y-90082316D01*
X210388808Y-90136850D01*
X210272016Y-90157787D01*
X210140962Y-90134850D01*
X210072714Y-90076699D01*
X210038862Y-89975026D01*
X210023377Y-89758206D01*
X210023377Y-89416755D01*
X210043161Y-89134654D01*
X210075342Y-89036637D01*
X210126448Y-88969057D01*
X210199422Y-88922483D01*
X210305966Y-88891632D01*
X210613224Y-88871849D01*
X212208129Y-88871849D01*
X212509525Y-88888946D01*
X212607216Y-88914271D01*
X212677320Y-88951472D01*
X212745708Y-89011800D01*
X212789183Y-89095087D01*
X212809211Y-89222826D01*
X212814829Y-89416755D01*
X212814829Y-90664836D01*
G37*
G36*
X215905722Y-88891632D02*
G01*
X216004452Y-88922910D01*
X216074005Y-88971988D01*
X216122940Y-89041931D01*
X216154361Y-89143203D01*
X216174145Y-89427990D01*
X216174145Y-92108555D01*
X216154117Y-92365498D01*
X216123159Y-92456420D01*
X216073761Y-92522791D01*
X216004864Y-92569733D01*
X215908408Y-92600216D01*
X215634856Y-92620000D01*
X213838450Y-92620000D01*
X213545115Y-92600216D01*
X213441995Y-92567431D01*
X213370969Y-92514242D01*
X213322070Y-92439129D01*
X213290858Y-92334724D01*
X213271074Y-92035771D01*
X213271074Y-89870069D01*
X213756629Y-89870069D01*
X213756629Y-91582456D01*
X213767620Y-91883119D01*
X213786511Y-91985705D01*
X213813782Y-92047739D01*
X213857694Y-92090603D01*
X213925157Y-92115150D01*
X214134961Y-92128583D01*
X214722609Y-92128583D01*
X215036950Y-92117592D01*
X215140485Y-92096638D01*
X215201325Y-92063614D01*
X215241884Y-92011282D01*
X215266294Y-91930013D01*
X215279972Y-91677711D01*
X215279972Y-90916650D01*
X215285589Y-90726385D01*
X215291207Y-90554438D01*
X215320272Y-90445505D01*
X215386461Y-90373210D01*
X215503210Y-90316057D01*
X215608694Y-90260127D01*
X215656106Y-90210300D01*
X215678524Y-90140636D01*
X215688590Y-89998785D01*
X215694207Y-89769441D01*
X215677599Y-89559148D01*
X215652791Y-89483670D01*
X215615317Y-89430921D01*
X215562014Y-89393513D01*
X215484159Y-89368394D01*
X215265561Y-89351786D01*
X214235833Y-89351786D01*
X213966678Y-89365708D01*
X213879836Y-89390277D01*
X213824528Y-89430676D01*
X213789006Y-89490440D01*
X213767620Y-89583817D01*
X213756629Y-89870069D01*
X213271074Y-89870069D01*
X213271074Y-89427990D01*
X213290858Y-89131967D01*
X213321047Y-89045439D01*
X213368283Y-88980293D01*
X213438809Y-88927912D01*
X213528018Y-88894563D01*
X213638647Y-88878633D01*
X213832833Y-88871849D01*
X215623621Y-88871849D01*
X215905722Y-88891632D01*
G37*
D11*
X221623855Y-99430951D02*
X220823855Y-99430951D01*
X220823855Y-98897618D02*
X220823855Y-98745237D01*
X220823855Y-98745237D02*
X220861950Y-98669047D01*
X220861950Y-98669047D02*
X220938140Y-98592856D01*
X220938140Y-98592856D02*
X221090521Y-98554761D01*
X221090521Y-98554761D02*
X221357188Y-98554761D01*
X221357188Y-98554761D02*
X221509569Y-98592856D01*
X221509569Y-98592856D02*
X221585760Y-98669047D01*
X221585760Y-98669047D02*
X221623855Y-98745237D01*
X221623855Y-98745237D02*
X221623855Y-98897618D01*
X221623855Y-98897618D02*
X221585760Y-98973809D01*
X221585760Y-98973809D02*
X221509569Y-99049999D01*
X221509569Y-99049999D02*
X221357188Y-99088095D01*
X221357188Y-99088095D02*
X221090521Y-99088095D01*
X221090521Y-99088095D02*
X220938140Y-99049999D01*
X220938140Y-99049999D02*
X220861950Y-98973809D01*
X220861950Y-98973809D02*
X220823855Y-98897618D01*
X221623855Y-97792857D02*
X221623855Y-98250000D01*
X221623855Y-98021428D02*
X220823855Y-98021428D01*
X220823855Y-98021428D02*
X220938140Y-98097619D01*
X220938140Y-98097619D02*
X221014331Y-98173809D01*
X221014331Y-98173809D02*
X221052426Y-98250000D01*
X220823855Y-97526190D02*
X220823855Y-97030952D01*
X220823855Y-97030952D02*
X221128617Y-97297618D01*
X221128617Y-97297618D02*
X221128617Y-97183333D01*
X221128617Y-97183333D02*
X221166712Y-97107142D01*
X221166712Y-97107142D02*
X221204807Y-97069047D01*
X221204807Y-97069047D02*
X221280998Y-97030952D01*
X221280998Y-97030952D02*
X221471474Y-97030952D01*
X221471474Y-97030952D02*
X221547664Y-97069047D01*
X221547664Y-97069047D02*
X221585760Y-97107142D01*
X221585760Y-97107142D02*
X221623855Y-97183333D01*
X221623855Y-97183333D02*
X221623855Y-97411904D01*
X221623855Y-97411904D02*
X221585760Y-97488095D01*
X221585760Y-97488095D02*
X221547664Y-97526190D01*
X211463855Y-75349999D02*
X210663855Y-75349999D01*
X210663855Y-74816666D02*
X210663855Y-74664285D01*
X210663855Y-74664285D02*
X210701950Y-74588095D01*
X210701950Y-74588095D02*
X210778140Y-74511904D01*
X210778140Y-74511904D02*
X210930521Y-74473809D01*
X210930521Y-74473809D02*
X211197188Y-74473809D01*
X211197188Y-74473809D02*
X211349569Y-74511904D01*
X211349569Y-74511904D02*
X211425760Y-74588095D01*
X211425760Y-74588095D02*
X211463855Y-74664285D01*
X211463855Y-74664285D02*
X211463855Y-74816666D01*
X211463855Y-74816666D02*
X211425760Y-74892857D01*
X211425760Y-74892857D02*
X211349569Y-74969047D01*
X211349569Y-74969047D02*
X211197188Y-75007143D01*
X211197188Y-75007143D02*
X210930521Y-75007143D01*
X210930521Y-75007143D02*
X210778140Y-74969047D01*
X210778140Y-74969047D02*
X210701950Y-74892857D01*
X210701950Y-74892857D02*
X210663855Y-74816666D01*
X210663855Y-73788095D02*
X210663855Y-73940476D01*
X210663855Y-73940476D02*
X210701950Y-74016667D01*
X210701950Y-74016667D02*
X210740045Y-74054762D01*
X210740045Y-74054762D02*
X210854331Y-74130952D01*
X210854331Y-74130952D02*
X211006712Y-74169048D01*
X211006712Y-74169048D02*
X211311474Y-74169048D01*
X211311474Y-74169048D02*
X211387664Y-74130952D01*
X211387664Y-74130952D02*
X211425760Y-74092857D01*
X211425760Y-74092857D02*
X211463855Y-74016667D01*
X211463855Y-74016667D02*
X211463855Y-73864286D01*
X211463855Y-73864286D02*
X211425760Y-73788095D01*
X211425760Y-73788095D02*
X211387664Y-73750000D01*
X211387664Y-73750000D02*
X211311474Y-73711905D01*
X211311474Y-73711905D02*
X211120998Y-73711905D01*
X211120998Y-73711905D02*
X211044807Y-73750000D01*
X211044807Y-73750000D02*
X211006712Y-73788095D01*
X211006712Y-73788095D02*
X210968617Y-73864286D01*
X210968617Y-73864286D02*
X210968617Y-74016667D01*
X210968617Y-74016667D02*
X211006712Y-74092857D01*
X211006712Y-74092857D02*
X211044807Y-74130952D01*
X211044807Y-74130952D02*
X211120998Y-74169048D01*
X208923855Y-99049999D02*
X208123855Y-99049999D01*
X208123855Y-98516666D02*
X208123855Y-98364285D01*
X208123855Y-98364285D02*
X208161950Y-98288095D01*
X208161950Y-98288095D02*
X208238140Y-98211904D01*
X208238140Y-98211904D02*
X208390521Y-98173809D01*
X208390521Y-98173809D02*
X208657188Y-98173809D01*
X208657188Y-98173809D02*
X208809569Y-98211904D01*
X208809569Y-98211904D02*
X208885760Y-98288095D01*
X208885760Y-98288095D02*
X208923855Y-98364285D01*
X208923855Y-98364285D02*
X208923855Y-98516666D01*
X208923855Y-98516666D02*
X208885760Y-98592857D01*
X208885760Y-98592857D02*
X208809569Y-98669047D01*
X208809569Y-98669047D02*
X208657188Y-98707143D01*
X208657188Y-98707143D02*
X208390521Y-98707143D01*
X208390521Y-98707143D02*
X208238140Y-98669047D01*
X208238140Y-98669047D02*
X208161950Y-98592857D01*
X208161950Y-98592857D02*
X208123855Y-98516666D01*
X208466712Y-97716667D02*
X208428617Y-97792857D01*
X208428617Y-97792857D02*
X208390521Y-97830952D01*
X208390521Y-97830952D02*
X208314331Y-97869048D01*
X208314331Y-97869048D02*
X208276236Y-97869048D01*
X208276236Y-97869048D02*
X208200045Y-97830952D01*
X208200045Y-97830952D02*
X208161950Y-97792857D01*
X208161950Y-97792857D02*
X208123855Y-97716667D01*
X208123855Y-97716667D02*
X208123855Y-97564286D01*
X208123855Y-97564286D02*
X208161950Y-97488095D01*
X208161950Y-97488095D02*
X208200045Y-97450000D01*
X208200045Y-97450000D02*
X208276236Y-97411905D01*
X208276236Y-97411905D02*
X208314331Y-97411905D01*
X208314331Y-97411905D02*
X208390521Y-97450000D01*
X208390521Y-97450000D02*
X208428617Y-97488095D01*
X208428617Y-97488095D02*
X208466712Y-97564286D01*
X208466712Y-97564286D02*
X208466712Y-97716667D01*
X208466712Y-97716667D02*
X208504807Y-97792857D01*
X208504807Y-97792857D02*
X208542902Y-97830952D01*
X208542902Y-97830952D02*
X208619093Y-97869048D01*
X208619093Y-97869048D02*
X208771474Y-97869048D01*
X208771474Y-97869048D02*
X208847664Y-97830952D01*
X208847664Y-97830952D02*
X208885760Y-97792857D01*
X208885760Y-97792857D02*
X208923855Y-97716667D01*
X208923855Y-97716667D02*
X208923855Y-97564286D01*
X208923855Y-97564286D02*
X208885760Y-97488095D01*
X208885760Y-97488095D02*
X208847664Y-97450000D01*
X208847664Y-97450000D02*
X208771474Y-97411905D01*
X208771474Y-97411905D02*
X208619093Y-97411905D01*
X208619093Y-97411905D02*
X208542902Y-97450000D01*
X208542902Y-97450000D02*
X208504807Y-97488095D01*
X208504807Y-97488095D02*
X208466712Y-97564286D01*
X221623855Y-75349999D02*
X220823855Y-75349999D01*
X220823855Y-74816666D02*
X220823855Y-74664285D01*
X220823855Y-74664285D02*
X220861950Y-74588095D01*
X220861950Y-74588095D02*
X220938140Y-74511904D01*
X220938140Y-74511904D02*
X221090521Y-74473809D01*
X221090521Y-74473809D02*
X221357188Y-74473809D01*
X221357188Y-74473809D02*
X221509569Y-74511904D01*
X221509569Y-74511904D02*
X221585760Y-74588095D01*
X221585760Y-74588095D02*
X221623855Y-74664285D01*
X221623855Y-74664285D02*
X221623855Y-74816666D01*
X221623855Y-74816666D02*
X221585760Y-74892857D01*
X221585760Y-74892857D02*
X221509569Y-74969047D01*
X221509569Y-74969047D02*
X221357188Y-75007143D01*
X221357188Y-75007143D02*
X221090521Y-75007143D01*
X221090521Y-75007143D02*
X220938140Y-74969047D01*
X220938140Y-74969047D02*
X220861950Y-74892857D01*
X220861950Y-74892857D02*
X220823855Y-74816666D01*
X220900045Y-74169048D02*
X220861950Y-74130952D01*
X220861950Y-74130952D02*
X220823855Y-74054762D01*
X220823855Y-74054762D02*
X220823855Y-73864286D01*
X220823855Y-73864286D02*
X220861950Y-73788095D01*
X220861950Y-73788095D02*
X220900045Y-73750000D01*
X220900045Y-73750000D02*
X220976236Y-73711905D01*
X220976236Y-73711905D02*
X221052426Y-73711905D01*
X221052426Y-73711905D02*
X221166712Y-73750000D01*
X221166712Y-73750000D02*
X221623855Y-74207143D01*
X221623855Y-74207143D02*
X221623855Y-73711905D01*
X228443855Y-98402380D02*
X228443855Y-98783332D01*
X228443855Y-98783332D02*
X228824807Y-98821428D01*
X228824807Y-98821428D02*
X228786712Y-98783332D01*
X228786712Y-98783332D02*
X228748617Y-98707142D01*
X228748617Y-98707142D02*
X228748617Y-98516666D01*
X228748617Y-98516666D02*
X228786712Y-98440475D01*
X228786712Y-98440475D02*
X228824807Y-98402380D01*
X228824807Y-98402380D02*
X228900998Y-98364285D01*
X228900998Y-98364285D02*
X229091474Y-98364285D01*
X229091474Y-98364285D02*
X229167664Y-98402380D01*
X229167664Y-98402380D02*
X229205760Y-98440475D01*
X229205760Y-98440475D02*
X229243855Y-98516666D01*
X229243855Y-98516666D02*
X229243855Y-98707142D01*
X229243855Y-98707142D02*
X229205760Y-98783332D01*
X229205760Y-98783332D02*
X229167664Y-98821428D01*
X228443855Y-98135713D02*
X229243855Y-97869046D01*
X229243855Y-97869046D02*
X228443855Y-97602380D01*
X228443855Y-75159523D02*
X228443855Y-74702380D01*
X229243855Y-74930952D02*
X228443855Y-74930952D01*
X228443855Y-74511904D02*
X229243855Y-73978570D01*
X228443855Y-73978570D02*
X229243855Y-74511904D01*
X226703855Y-74683332D02*
X226322902Y-74949999D01*
X226703855Y-75140475D02*
X225903855Y-75140475D01*
X225903855Y-75140475D02*
X225903855Y-74835713D01*
X225903855Y-74835713D02*
X225941950Y-74759523D01*
X225941950Y-74759523D02*
X225980045Y-74721428D01*
X225980045Y-74721428D02*
X226056236Y-74683332D01*
X226056236Y-74683332D02*
X226170521Y-74683332D01*
X226170521Y-74683332D02*
X226246712Y-74721428D01*
X226246712Y-74721428D02*
X226284807Y-74759523D01*
X226284807Y-74759523D02*
X226322902Y-74835713D01*
X226322902Y-74835713D02*
X226322902Y-75140475D01*
X225903855Y-74416666D02*
X226703855Y-73883332D01*
X225903855Y-73883332D02*
X226703855Y-74416666D01*
X214003855Y-75349999D02*
X213203855Y-75349999D01*
X213203855Y-74816666D02*
X213203855Y-74664285D01*
X213203855Y-74664285D02*
X213241950Y-74588095D01*
X213241950Y-74588095D02*
X213318140Y-74511904D01*
X213318140Y-74511904D02*
X213470521Y-74473809D01*
X213470521Y-74473809D02*
X213737188Y-74473809D01*
X213737188Y-74473809D02*
X213889569Y-74511904D01*
X213889569Y-74511904D02*
X213965760Y-74588095D01*
X213965760Y-74588095D02*
X214003855Y-74664285D01*
X214003855Y-74664285D02*
X214003855Y-74816666D01*
X214003855Y-74816666D02*
X213965760Y-74892857D01*
X213965760Y-74892857D02*
X213889569Y-74969047D01*
X213889569Y-74969047D02*
X213737188Y-75007143D01*
X213737188Y-75007143D02*
X213470521Y-75007143D01*
X213470521Y-75007143D02*
X213318140Y-74969047D01*
X213318140Y-74969047D02*
X213241950Y-74892857D01*
X213241950Y-74892857D02*
X213203855Y-74816666D01*
X213203855Y-73750000D02*
X213203855Y-74130952D01*
X213203855Y-74130952D02*
X213584807Y-74169048D01*
X213584807Y-74169048D02*
X213546712Y-74130952D01*
X213546712Y-74130952D02*
X213508617Y-74054762D01*
X213508617Y-74054762D02*
X213508617Y-73864286D01*
X213508617Y-73864286D02*
X213546712Y-73788095D01*
X213546712Y-73788095D02*
X213584807Y-73750000D01*
X213584807Y-73750000D02*
X213660998Y-73711905D01*
X213660998Y-73711905D02*
X213851474Y-73711905D01*
X213851474Y-73711905D02*
X213927664Y-73750000D01*
X213927664Y-73750000D02*
X213965760Y-73788095D01*
X213965760Y-73788095D02*
X214003855Y-73864286D01*
X214003855Y-73864286D02*
X214003855Y-74054762D01*
X214003855Y-74054762D02*
X213965760Y-74130952D01*
X213965760Y-74130952D02*
X213927664Y-74169048D01*
X216543855Y-99430951D02*
X215743855Y-99430951D01*
X215743855Y-98897618D02*
X215743855Y-98745237D01*
X215743855Y-98745237D02*
X215781950Y-98669047D01*
X215781950Y-98669047D02*
X215858140Y-98592856D01*
X215858140Y-98592856D02*
X216010521Y-98554761D01*
X216010521Y-98554761D02*
X216277188Y-98554761D01*
X216277188Y-98554761D02*
X216429569Y-98592856D01*
X216429569Y-98592856D02*
X216505760Y-98669047D01*
X216505760Y-98669047D02*
X216543855Y-98745237D01*
X216543855Y-98745237D02*
X216543855Y-98897618D01*
X216543855Y-98897618D02*
X216505760Y-98973809D01*
X216505760Y-98973809D02*
X216429569Y-99049999D01*
X216429569Y-99049999D02*
X216277188Y-99088095D01*
X216277188Y-99088095D02*
X216010521Y-99088095D01*
X216010521Y-99088095D02*
X215858140Y-99049999D01*
X215858140Y-99049999D02*
X215781950Y-98973809D01*
X215781950Y-98973809D02*
X215743855Y-98897618D01*
X216543855Y-97792857D02*
X216543855Y-98250000D01*
X216543855Y-98021428D02*
X215743855Y-98021428D01*
X215743855Y-98021428D02*
X215858140Y-98097619D01*
X215858140Y-98097619D02*
X215934331Y-98173809D01*
X215934331Y-98173809D02*
X215972426Y-98250000D01*
X216543855Y-97030952D02*
X216543855Y-97488095D01*
X216543855Y-97259523D02*
X215743855Y-97259523D01*
X215743855Y-97259523D02*
X215858140Y-97335714D01*
X215858140Y-97335714D02*
X215934331Y-97411904D01*
X215934331Y-97411904D02*
X215972426Y-97488095D01*
X211463855Y-99049999D02*
X210663855Y-99049999D01*
X210663855Y-98516666D02*
X210663855Y-98364285D01*
X210663855Y-98364285D02*
X210701950Y-98288095D01*
X210701950Y-98288095D02*
X210778140Y-98211904D01*
X210778140Y-98211904D02*
X210930521Y-98173809D01*
X210930521Y-98173809D02*
X211197188Y-98173809D01*
X211197188Y-98173809D02*
X211349569Y-98211904D01*
X211349569Y-98211904D02*
X211425760Y-98288095D01*
X211425760Y-98288095D02*
X211463855Y-98364285D01*
X211463855Y-98364285D02*
X211463855Y-98516666D01*
X211463855Y-98516666D02*
X211425760Y-98592857D01*
X211425760Y-98592857D02*
X211349569Y-98669047D01*
X211349569Y-98669047D02*
X211197188Y-98707143D01*
X211197188Y-98707143D02*
X210930521Y-98707143D01*
X210930521Y-98707143D02*
X210778140Y-98669047D01*
X210778140Y-98669047D02*
X210701950Y-98592857D01*
X210701950Y-98592857D02*
X210663855Y-98516666D01*
X211463855Y-97792857D02*
X211463855Y-97640476D01*
X211463855Y-97640476D02*
X211425760Y-97564286D01*
X211425760Y-97564286D02*
X211387664Y-97526190D01*
X211387664Y-97526190D02*
X211273379Y-97450000D01*
X211273379Y-97450000D02*
X211120998Y-97411905D01*
X211120998Y-97411905D02*
X210816236Y-97411905D01*
X210816236Y-97411905D02*
X210740045Y-97450000D01*
X210740045Y-97450000D02*
X210701950Y-97488095D01*
X210701950Y-97488095D02*
X210663855Y-97564286D01*
X210663855Y-97564286D02*
X210663855Y-97716667D01*
X210663855Y-97716667D02*
X210701950Y-97792857D01*
X210701950Y-97792857D02*
X210740045Y-97830952D01*
X210740045Y-97830952D02*
X210816236Y-97869048D01*
X210816236Y-97869048D02*
X211006712Y-97869048D01*
X211006712Y-97869048D02*
X211082902Y-97830952D01*
X211082902Y-97830952D02*
X211120998Y-97792857D01*
X211120998Y-97792857D02*
X211159093Y-97716667D01*
X211159093Y-97716667D02*
X211159093Y-97564286D01*
X211159093Y-97564286D02*
X211120998Y-97488095D01*
X211120998Y-97488095D02*
X211082902Y-97450000D01*
X211082902Y-97450000D02*
X211006712Y-97411905D01*
X225941950Y-98859523D02*
X225903855Y-98935713D01*
X225903855Y-98935713D02*
X225903855Y-99049999D01*
X225903855Y-99049999D02*
X225941950Y-99164285D01*
X225941950Y-99164285D02*
X226018140Y-99240475D01*
X226018140Y-99240475D02*
X226094331Y-99278570D01*
X226094331Y-99278570D02*
X226246712Y-99316666D01*
X226246712Y-99316666D02*
X226360998Y-99316666D01*
X226360998Y-99316666D02*
X226513379Y-99278570D01*
X226513379Y-99278570D02*
X226589569Y-99240475D01*
X226589569Y-99240475D02*
X226665760Y-99164285D01*
X226665760Y-99164285D02*
X226703855Y-99049999D01*
X226703855Y-99049999D02*
X226703855Y-98973808D01*
X226703855Y-98973808D02*
X226665760Y-98859523D01*
X226665760Y-98859523D02*
X226627664Y-98821427D01*
X226627664Y-98821427D02*
X226360998Y-98821427D01*
X226360998Y-98821427D02*
X226360998Y-98973808D01*
X226703855Y-98478570D02*
X225903855Y-98478570D01*
X225903855Y-98478570D02*
X226703855Y-98021427D01*
X226703855Y-98021427D02*
X225903855Y-98021427D01*
X226703855Y-97640475D02*
X225903855Y-97640475D01*
X225903855Y-97640475D02*
X225903855Y-97449999D01*
X225903855Y-97449999D02*
X225941950Y-97335713D01*
X225941950Y-97335713D02*
X226018140Y-97259523D01*
X226018140Y-97259523D02*
X226094331Y-97221428D01*
X226094331Y-97221428D02*
X226246712Y-97183332D01*
X226246712Y-97183332D02*
X226360998Y-97183332D01*
X226360998Y-97183332D02*
X226513379Y-97221428D01*
X226513379Y-97221428D02*
X226589569Y-97259523D01*
X226589569Y-97259523D02*
X226665760Y-97335713D01*
X226665760Y-97335713D02*
X226703855Y-97449999D01*
X226703855Y-97449999D02*
X226703855Y-97640475D01*
X214003855Y-99430951D02*
X213203855Y-99430951D01*
X213203855Y-98897618D02*
X213203855Y-98745237D01*
X213203855Y-98745237D02*
X213241950Y-98669047D01*
X213241950Y-98669047D02*
X213318140Y-98592856D01*
X213318140Y-98592856D02*
X213470521Y-98554761D01*
X213470521Y-98554761D02*
X213737188Y-98554761D01*
X213737188Y-98554761D02*
X213889569Y-98592856D01*
X213889569Y-98592856D02*
X213965760Y-98669047D01*
X213965760Y-98669047D02*
X214003855Y-98745237D01*
X214003855Y-98745237D02*
X214003855Y-98897618D01*
X214003855Y-98897618D02*
X213965760Y-98973809D01*
X213965760Y-98973809D02*
X213889569Y-99049999D01*
X213889569Y-99049999D02*
X213737188Y-99088095D01*
X213737188Y-99088095D02*
X213470521Y-99088095D01*
X213470521Y-99088095D02*
X213318140Y-99049999D01*
X213318140Y-99049999D02*
X213241950Y-98973809D01*
X213241950Y-98973809D02*
X213203855Y-98897618D01*
X214003855Y-97792857D02*
X214003855Y-98250000D01*
X214003855Y-98021428D02*
X213203855Y-98021428D01*
X213203855Y-98021428D02*
X213318140Y-98097619D01*
X213318140Y-98097619D02*
X213394331Y-98173809D01*
X213394331Y-98173809D02*
X213432426Y-98250000D01*
X213203855Y-97297618D02*
X213203855Y-97221428D01*
X213203855Y-97221428D02*
X213241950Y-97145237D01*
X213241950Y-97145237D02*
X213280045Y-97107142D01*
X213280045Y-97107142D02*
X213356236Y-97069047D01*
X213356236Y-97069047D02*
X213508617Y-97030952D01*
X213508617Y-97030952D02*
X213699093Y-97030952D01*
X213699093Y-97030952D02*
X213851474Y-97069047D01*
X213851474Y-97069047D02*
X213927664Y-97107142D01*
X213927664Y-97107142D02*
X213965760Y-97145237D01*
X213965760Y-97145237D02*
X214003855Y-97221428D01*
X214003855Y-97221428D02*
X214003855Y-97297618D01*
X214003855Y-97297618D02*
X213965760Y-97373809D01*
X213965760Y-97373809D02*
X213927664Y-97411904D01*
X213927664Y-97411904D02*
X213851474Y-97449999D01*
X213851474Y-97449999D02*
X213699093Y-97488095D01*
X213699093Y-97488095D02*
X213508617Y-97488095D01*
X213508617Y-97488095D02*
X213356236Y-97449999D01*
X213356236Y-97449999D02*
X213280045Y-97411904D01*
X213280045Y-97411904D02*
X213241950Y-97373809D01*
X213241950Y-97373809D02*
X213203855Y-97297618D01*
X224163855Y-75349999D02*
X223363855Y-75349999D01*
X223363855Y-74816666D02*
X223363855Y-74664285D01*
X223363855Y-74664285D02*
X223401950Y-74588095D01*
X223401950Y-74588095D02*
X223478140Y-74511904D01*
X223478140Y-74511904D02*
X223630521Y-74473809D01*
X223630521Y-74473809D02*
X223897188Y-74473809D01*
X223897188Y-74473809D02*
X224049569Y-74511904D01*
X224049569Y-74511904D02*
X224125760Y-74588095D01*
X224125760Y-74588095D02*
X224163855Y-74664285D01*
X224163855Y-74664285D02*
X224163855Y-74816666D01*
X224163855Y-74816666D02*
X224125760Y-74892857D01*
X224125760Y-74892857D02*
X224049569Y-74969047D01*
X224049569Y-74969047D02*
X223897188Y-75007143D01*
X223897188Y-75007143D02*
X223630521Y-75007143D01*
X223630521Y-75007143D02*
X223478140Y-74969047D01*
X223478140Y-74969047D02*
X223401950Y-74892857D01*
X223401950Y-74892857D02*
X223363855Y-74816666D01*
X224163855Y-73711905D02*
X224163855Y-74169048D01*
X224163855Y-73940476D02*
X223363855Y-73940476D01*
X223363855Y-73940476D02*
X223478140Y-74016667D01*
X223478140Y-74016667D02*
X223554331Y-74092857D01*
X223554331Y-74092857D02*
X223592426Y-74169048D01*
X208923855Y-75349999D02*
X208123855Y-75349999D01*
X208123855Y-74816666D02*
X208123855Y-74664285D01*
X208123855Y-74664285D02*
X208161950Y-74588095D01*
X208161950Y-74588095D02*
X208238140Y-74511904D01*
X208238140Y-74511904D02*
X208390521Y-74473809D01*
X208390521Y-74473809D02*
X208657188Y-74473809D01*
X208657188Y-74473809D02*
X208809569Y-74511904D01*
X208809569Y-74511904D02*
X208885760Y-74588095D01*
X208885760Y-74588095D02*
X208923855Y-74664285D01*
X208923855Y-74664285D02*
X208923855Y-74816666D01*
X208923855Y-74816666D02*
X208885760Y-74892857D01*
X208885760Y-74892857D02*
X208809569Y-74969047D01*
X208809569Y-74969047D02*
X208657188Y-75007143D01*
X208657188Y-75007143D02*
X208390521Y-75007143D01*
X208390521Y-75007143D02*
X208238140Y-74969047D01*
X208238140Y-74969047D02*
X208161950Y-74892857D01*
X208161950Y-74892857D02*
X208123855Y-74816666D01*
X208123855Y-74207143D02*
X208123855Y-73673809D01*
X208123855Y-73673809D02*
X208923855Y-74016667D01*
X219083855Y-99430951D02*
X218283855Y-99430951D01*
X218283855Y-98897618D02*
X218283855Y-98745237D01*
X218283855Y-98745237D02*
X218321950Y-98669047D01*
X218321950Y-98669047D02*
X218398140Y-98592856D01*
X218398140Y-98592856D02*
X218550521Y-98554761D01*
X218550521Y-98554761D02*
X218817188Y-98554761D01*
X218817188Y-98554761D02*
X218969569Y-98592856D01*
X218969569Y-98592856D02*
X219045760Y-98669047D01*
X219045760Y-98669047D02*
X219083855Y-98745237D01*
X219083855Y-98745237D02*
X219083855Y-98897618D01*
X219083855Y-98897618D02*
X219045760Y-98973809D01*
X219045760Y-98973809D02*
X218969569Y-99049999D01*
X218969569Y-99049999D02*
X218817188Y-99088095D01*
X218817188Y-99088095D02*
X218550521Y-99088095D01*
X218550521Y-99088095D02*
X218398140Y-99049999D01*
X218398140Y-99049999D02*
X218321950Y-98973809D01*
X218321950Y-98973809D02*
X218283855Y-98897618D01*
X219083855Y-97792857D02*
X219083855Y-98250000D01*
X219083855Y-98021428D02*
X218283855Y-98021428D01*
X218283855Y-98021428D02*
X218398140Y-98097619D01*
X218398140Y-98097619D02*
X218474331Y-98173809D01*
X218474331Y-98173809D02*
X218512426Y-98250000D01*
X218360045Y-97488095D02*
X218321950Y-97449999D01*
X218321950Y-97449999D02*
X218283855Y-97373809D01*
X218283855Y-97373809D02*
X218283855Y-97183333D01*
X218283855Y-97183333D02*
X218321950Y-97107142D01*
X218321950Y-97107142D02*
X218360045Y-97069047D01*
X218360045Y-97069047D02*
X218436236Y-97030952D01*
X218436236Y-97030952D02*
X218512426Y-97030952D01*
X218512426Y-97030952D02*
X218626712Y-97069047D01*
X218626712Y-97069047D02*
X219083855Y-97526190D01*
X219083855Y-97526190D02*
X219083855Y-97030952D01*
X219083855Y-75349999D02*
X218283855Y-75349999D01*
X218283855Y-74816666D02*
X218283855Y-74664285D01*
X218283855Y-74664285D02*
X218321950Y-74588095D01*
X218321950Y-74588095D02*
X218398140Y-74511904D01*
X218398140Y-74511904D02*
X218550521Y-74473809D01*
X218550521Y-74473809D02*
X218817188Y-74473809D01*
X218817188Y-74473809D02*
X218969569Y-74511904D01*
X218969569Y-74511904D02*
X219045760Y-74588095D01*
X219045760Y-74588095D02*
X219083855Y-74664285D01*
X219083855Y-74664285D02*
X219083855Y-74816666D01*
X219083855Y-74816666D02*
X219045760Y-74892857D01*
X219045760Y-74892857D02*
X218969569Y-74969047D01*
X218969569Y-74969047D02*
X218817188Y-75007143D01*
X218817188Y-75007143D02*
X218550521Y-75007143D01*
X218550521Y-75007143D02*
X218398140Y-74969047D01*
X218398140Y-74969047D02*
X218321950Y-74892857D01*
X218321950Y-74892857D02*
X218283855Y-74816666D01*
X218283855Y-74207143D02*
X218283855Y-73711905D01*
X218283855Y-73711905D02*
X218588617Y-73978571D01*
X218588617Y-73978571D02*
X218588617Y-73864286D01*
X218588617Y-73864286D02*
X218626712Y-73788095D01*
X218626712Y-73788095D02*
X218664807Y-73750000D01*
X218664807Y-73750000D02*
X218740998Y-73711905D01*
X218740998Y-73711905D02*
X218931474Y-73711905D01*
X218931474Y-73711905D02*
X219007664Y-73750000D01*
X219007664Y-73750000D02*
X219045760Y-73788095D01*
X219045760Y-73788095D02*
X219083855Y-73864286D01*
X219083855Y-73864286D02*
X219083855Y-74092857D01*
X219083855Y-74092857D02*
X219045760Y-74169048D01*
X219045760Y-74169048D02*
X219007664Y-74207143D01*
X216543855Y-75349999D02*
X215743855Y-75349999D01*
X215743855Y-74816666D02*
X215743855Y-74664285D01*
X215743855Y-74664285D02*
X215781950Y-74588095D01*
X215781950Y-74588095D02*
X215858140Y-74511904D01*
X215858140Y-74511904D02*
X216010521Y-74473809D01*
X216010521Y-74473809D02*
X216277188Y-74473809D01*
X216277188Y-74473809D02*
X216429569Y-74511904D01*
X216429569Y-74511904D02*
X216505760Y-74588095D01*
X216505760Y-74588095D02*
X216543855Y-74664285D01*
X216543855Y-74664285D02*
X216543855Y-74816666D01*
X216543855Y-74816666D02*
X216505760Y-74892857D01*
X216505760Y-74892857D02*
X216429569Y-74969047D01*
X216429569Y-74969047D02*
X216277188Y-75007143D01*
X216277188Y-75007143D02*
X216010521Y-75007143D01*
X216010521Y-75007143D02*
X215858140Y-74969047D01*
X215858140Y-74969047D02*
X215781950Y-74892857D01*
X215781950Y-74892857D02*
X215743855Y-74816666D01*
X216010521Y-73788095D02*
X216543855Y-73788095D01*
X215705760Y-73978571D02*
X216277188Y-74169048D01*
X216277188Y-74169048D02*
X216277188Y-73673809D01*
X223363855Y-99240476D02*
X223363855Y-98745238D01*
X223363855Y-98745238D02*
X223668617Y-99011904D01*
X223668617Y-99011904D02*
X223668617Y-98897619D01*
X223668617Y-98897619D02*
X223706712Y-98821428D01*
X223706712Y-98821428D02*
X223744807Y-98783333D01*
X223744807Y-98783333D02*
X223820998Y-98745238D01*
X223820998Y-98745238D02*
X224011474Y-98745238D01*
X224011474Y-98745238D02*
X224087664Y-98783333D01*
X224087664Y-98783333D02*
X224125760Y-98821428D01*
X224125760Y-98821428D02*
X224163855Y-98897619D01*
X224163855Y-98897619D02*
X224163855Y-99126190D01*
X224163855Y-99126190D02*
X224125760Y-99202381D01*
X224125760Y-99202381D02*
X224087664Y-99240476D01*
X223363855Y-98516666D02*
X224163855Y-98249999D01*
X224163855Y-98249999D02*
X223363855Y-97983333D01*
X223363855Y-97792857D02*
X223363855Y-97297619D01*
X223363855Y-97297619D02*
X223668617Y-97564285D01*
X223668617Y-97564285D02*
X223668617Y-97450000D01*
X223668617Y-97450000D02*
X223706712Y-97373809D01*
X223706712Y-97373809D02*
X223744807Y-97335714D01*
X223744807Y-97335714D02*
X223820998Y-97297619D01*
X223820998Y-97297619D02*
X224011474Y-97297619D01*
X224011474Y-97297619D02*
X224087664Y-97335714D01*
X224087664Y-97335714D02*
X224125760Y-97373809D01*
X224125760Y-97373809D02*
X224163855Y-97450000D01*
X224163855Y-97450000D02*
X224163855Y-97678571D01*
X224163855Y-97678571D02*
X224125760Y-97754762D01*
X224125760Y-97754762D02*
X224087664Y-97792857D01*
D12*
X173781009Y-88489285D02*
X173828628Y-88346428D01*
X173828628Y-88346428D02*
X173876247Y-88298809D01*
X173876247Y-88298809D02*
X173971485Y-88251190D01*
X173971485Y-88251190D02*
X174114342Y-88251190D01*
X174114342Y-88251190D02*
X174209580Y-88298809D01*
X174209580Y-88298809D02*
X174257200Y-88346428D01*
X174257200Y-88346428D02*
X174304819Y-88441666D01*
X174304819Y-88441666D02*
X174304819Y-88822618D01*
X174304819Y-88822618D02*
X173304819Y-88822618D01*
X173304819Y-88822618D02*
X173304819Y-88489285D01*
X173304819Y-88489285D02*
X173352438Y-88394047D01*
X173352438Y-88394047D02*
X173400057Y-88346428D01*
X173400057Y-88346428D02*
X173495295Y-88298809D01*
X173495295Y-88298809D02*
X173590533Y-88298809D01*
X173590533Y-88298809D02*
X173685771Y-88346428D01*
X173685771Y-88346428D02*
X173733390Y-88394047D01*
X173733390Y-88394047D02*
X173781009Y-88489285D01*
X173781009Y-88489285D02*
X173781009Y-88822618D01*
X174019104Y-87870237D02*
X174019104Y-87394047D01*
X174304819Y-87965475D02*
X173304819Y-87632142D01*
X173304819Y-87632142D02*
X174304819Y-87298809D01*
X173304819Y-87108332D02*
X173304819Y-86536904D01*
X174304819Y-86822618D02*
X173304819Y-86822618D01*
X174304819Y-85679761D02*
X174304819Y-86251189D01*
X174304819Y-85965475D02*
X173304819Y-85965475D01*
X173304819Y-85965475D02*
X173447676Y-86060713D01*
X173447676Y-86060713D02*
X173542914Y-86155951D01*
X173542914Y-86155951D02*
X173590533Y-86251189D01*
X201618242Y-73214819D02*
X201618242Y-73929104D01*
X201618242Y-73929104D02*
X201570623Y-74071961D01*
X201570623Y-74071961D02*
X201475385Y-74167200D01*
X201475385Y-74167200D02*
X201332528Y-74214819D01*
X201332528Y-74214819D02*
X201237290Y-74214819D01*
X202618242Y-74214819D02*
X202046814Y-74214819D01*
X202332528Y-74214819D02*
X202332528Y-73214819D01*
X202332528Y-73214819D02*
X202237290Y-73357676D01*
X202237290Y-73357676D02*
X202142052Y-73452914D01*
X202142052Y-73452914D02*
X202046814Y-73500533D01*
X223966667Y-74207200D02*
X224109524Y-74254819D01*
X224109524Y-74254819D02*
X224347619Y-74254819D01*
X224347619Y-74254819D02*
X224442857Y-74207200D01*
X224442857Y-74207200D02*
X224490476Y-74159580D01*
X224490476Y-74159580D02*
X224538095Y-74064342D01*
X224538095Y-74064342D02*
X224538095Y-73969104D01*
X224538095Y-73969104D02*
X224490476Y-73873866D01*
X224490476Y-73873866D02*
X224442857Y-73826247D01*
X224442857Y-73826247D02*
X224347619Y-73778628D01*
X224347619Y-73778628D02*
X224157143Y-73731009D01*
X224157143Y-73731009D02*
X224061905Y-73683390D01*
X224061905Y-73683390D02*
X224014286Y-73635771D01*
X224014286Y-73635771D02*
X223966667Y-73540533D01*
X223966667Y-73540533D02*
X223966667Y-73445295D01*
X223966667Y-73445295D02*
X224014286Y-73350057D01*
X224014286Y-73350057D02*
X224061905Y-73302438D01*
X224061905Y-73302438D02*
X224157143Y-73254819D01*
X224157143Y-73254819D02*
X224395238Y-73254819D01*
X224395238Y-73254819D02*
X224538095Y-73302438D01*
X224871429Y-73254819D02*
X225109524Y-74254819D01*
X225109524Y-74254819D02*
X225300000Y-73540533D01*
X225300000Y-73540533D02*
X225490476Y-74254819D01*
X225490476Y-74254819D02*
X225728572Y-73254819D01*
X226014286Y-73254819D02*
X226633333Y-73254819D01*
X226633333Y-73254819D02*
X226300000Y-73635771D01*
X226300000Y-73635771D02*
X226442857Y-73635771D01*
X226442857Y-73635771D02*
X226538095Y-73683390D01*
X226538095Y-73683390D02*
X226585714Y-73731009D01*
X226585714Y-73731009D02*
X226633333Y-73826247D01*
X226633333Y-73826247D02*
X226633333Y-74064342D01*
X226633333Y-74064342D02*
X226585714Y-74159580D01*
X226585714Y-74159580D02*
X226538095Y-74207200D01*
X226538095Y-74207200D02*
X226442857Y-74254819D01*
X226442857Y-74254819D02*
X226157143Y-74254819D01*
X226157143Y-74254819D02*
X226061905Y-74207200D01*
X226061905Y-74207200D02*
X226014286Y-74159580D01*
X177366667Y-74207200D02*
X177509524Y-74254819D01*
X177509524Y-74254819D02*
X177747619Y-74254819D01*
X177747619Y-74254819D02*
X177842857Y-74207200D01*
X177842857Y-74207200D02*
X177890476Y-74159580D01*
X177890476Y-74159580D02*
X177938095Y-74064342D01*
X177938095Y-74064342D02*
X177938095Y-73969104D01*
X177938095Y-73969104D02*
X177890476Y-73873866D01*
X177890476Y-73873866D02*
X177842857Y-73826247D01*
X177842857Y-73826247D02*
X177747619Y-73778628D01*
X177747619Y-73778628D02*
X177557143Y-73731009D01*
X177557143Y-73731009D02*
X177461905Y-73683390D01*
X177461905Y-73683390D02*
X177414286Y-73635771D01*
X177414286Y-73635771D02*
X177366667Y-73540533D01*
X177366667Y-73540533D02*
X177366667Y-73445295D01*
X177366667Y-73445295D02*
X177414286Y-73350057D01*
X177414286Y-73350057D02*
X177461905Y-73302438D01*
X177461905Y-73302438D02*
X177557143Y-73254819D01*
X177557143Y-73254819D02*
X177795238Y-73254819D01*
X177795238Y-73254819D02*
X177938095Y-73302438D01*
X178271429Y-73254819D02*
X178509524Y-74254819D01*
X178509524Y-74254819D02*
X178700000Y-73540533D01*
X178700000Y-73540533D02*
X178890476Y-74254819D01*
X178890476Y-74254819D02*
X179128572Y-73254819D01*
X179700000Y-73254819D02*
X179795238Y-73254819D01*
X179795238Y-73254819D02*
X179890476Y-73302438D01*
X179890476Y-73302438D02*
X179938095Y-73350057D01*
X179938095Y-73350057D02*
X179985714Y-73445295D01*
X179985714Y-73445295D02*
X180033333Y-73635771D01*
X180033333Y-73635771D02*
X180033333Y-73873866D01*
X180033333Y-73873866D02*
X179985714Y-74064342D01*
X179985714Y-74064342D02*
X179938095Y-74159580D01*
X179938095Y-74159580D02*
X179890476Y-74207200D01*
X179890476Y-74207200D02*
X179795238Y-74254819D01*
X179795238Y-74254819D02*
X179700000Y-74254819D01*
X179700000Y-74254819D02*
X179604762Y-74207200D01*
X179604762Y-74207200D02*
X179557143Y-74159580D01*
X179557143Y-74159580D02*
X179509524Y-74064342D01*
X179509524Y-74064342D02*
X179461905Y-73873866D01*
X179461905Y-73873866D02*
X179461905Y-73635771D01*
X179461905Y-73635771D02*
X179509524Y-73445295D01*
X179509524Y-73445295D02*
X179557143Y-73350057D01*
X179557143Y-73350057D02*
X179604762Y-73302438D01*
X179604762Y-73302438D02*
X179700000Y-73254819D01*
X208916667Y-74207200D02*
X209059524Y-74254819D01*
X209059524Y-74254819D02*
X209297619Y-74254819D01*
X209297619Y-74254819D02*
X209392857Y-74207200D01*
X209392857Y-74207200D02*
X209440476Y-74159580D01*
X209440476Y-74159580D02*
X209488095Y-74064342D01*
X209488095Y-74064342D02*
X209488095Y-73969104D01*
X209488095Y-73969104D02*
X209440476Y-73873866D01*
X209440476Y-73873866D02*
X209392857Y-73826247D01*
X209392857Y-73826247D02*
X209297619Y-73778628D01*
X209297619Y-73778628D02*
X209107143Y-73731009D01*
X209107143Y-73731009D02*
X209011905Y-73683390D01*
X209011905Y-73683390D02*
X208964286Y-73635771D01*
X208964286Y-73635771D02*
X208916667Y-73540533D01*
X208916667Y-73540533D02*
X208916667Y-73445295D01*
X208916667Y-73445295D02*
X208964286Y-73350057D01*
X208964286Y-73350057D02*
X209011905Y-73302438D01*
X209011905Y-73302438D02*
X209107143Y-73254819D01*
X209107143Y-73254819D02*
X209345238Y-73254819D01*
X209345238Y-73254819D02*
X209488095Y-73302438D01*
X209821429Y-73254819D02*
X210059524Y-74254819D01*
X210059524Y-74254819D02*
X210250000Y-73540533D01*
X210250000Y-73540533D02*
X210440476Y-74254819D01*
X210440476Y-74254819D02*
X210678572Y-73254819D01*
X211011905Y-73350057D02*
X211059524Y-73302438D01*
X211059524Y-73302438D02*
X211154762Y-73254819D01*
X211154762Y-73254819D02*
X211392857Y-73254819D01*
X211392857Y-73254819D02*
X211488095Y-73302438D01*
X211488095Y-73302438D02*
X211535714Y-73350057D01*
X211535714Y-73350057D02*
X211583333Y-73445295D01*
X211583333Y-73445295D02*
X211583333Y-73540533D01*
X211583333Y-73540533D02*
X211535714Y-73683390D01*
X211535714Y-73683390D02*
X210964286Y-74254819D01*
X210964286Y-74254819D02*
X211583333Y-74254819D01*
X192366667Y-74207200D02*
X192509524Y-74254819D01*
X192509524Y-74254819D02*
X192747619Y-74254819D01*
X192747619Y-74254819D02*
X192842857Y-74207200D01*
X192842857Y-74207200D02*
X192890476Y-74159580D01*
X192890476Y-74159580D02*
X192938095Y-74064342D01*
X192938095Y-74064342D02*
X192938095Y-73969104D01*
X192938095Y-73969104D02*
X192890476Y-73873866D01*
X192890476Y-73873866D02*
X192842857Y-73826247D01*
X192842857Y-73826247D02*
X192747619Y-73778628D01*
X192747619Y-73778628D02*
X192557143Y-73731009D01*
X192557143Y-73731009D02*
X192461905Y-73683390D01*
X192461905Y-73683390D02*
X192414286Y-73635771D01*
X192414286Y-73635771D02*
X192366667Y-73540533D01*
X192366667Y-73540533D02*
X192366667Y-73445295D01*
X192366667Y-73445295D02*
X192414286Y-73350057D01*
X192414286Y-73350057D02*
X192461905Y-73302438D01*
X192461905Y-73302438D02*
X192557143Y-73254819D01*
X192557143Y-73254819D02*
X192795238Y-73254819D01*
X192795238Y-73254819D02*
X192938095Y-73302438D01*
X193271429Y-73254819D02*
X193509524Y-74254819D01*
X193509524Y-74254819D02*
X193700000Y-73540533D01*
X193700000Y-73540533D02*
X193890476Y-74254819D01*
X193890476Y-74254819D02*
X194128572Y-73254819D01*
X195033333Y-74254819D02*
X194461905Y-74254819D01*
X194747619Y-74254819D02*
X194747619Y-73254819D01*
X194747619Y-73254819D02*
X194652381Y-73397676D01*
X194652381Y-73397676D02*
X194557143Y-73492914D01*
X194557143Y-73492914D02*
X194461905Y-73540533D01*
X178882200Y-80358332D02*
X178929819Y-80215475D01*
X178929819Y-80215475D02*
X178929819Y-79977380D01*
X178929819Y-79977380D02*
X178882200Y-79882142D01*
X178882200Y-79882142D02*
X178834580Y-79834523D01*
X178834580Y-79834523D02*
X178739342Y-79786904D01*
X178739342Y-79786904D02*
X178644104Y-79786904D01*
X178644104Y-79786904D02*
X178548866Y-79834523D01*
X178548866Y-79834523D02*
X178501247Y-79882142D01*
X178501247Y-79882142D02*
X178453628Y-79977380D01*
X178453628Y-79977380D02*
X178406009Y-80167856D01*
X178406009Y-80167856D02*
X178358390Y-80263094D01*
X178358390Y-80263094D02*
X178310771Y-80310713D01*
X178310771Y-80310713D02*
X178215533Y-80358332D01*
X178215533Y-80358332D02*
X178120295Y-80358332D01*
X178120295Y-80358332D02*
X178025057Y-80310713D01*
X178025057Y-80310713D02*
X177977438Y-80263094D01*
X177977438Y-80263094D02*
X177929819Y-80167856D01*
X177929819Y-80167856D02*
X177929819Y-79929761D01*
X177929819Y-79929761D02*
X177977438Y-79786904D01*
X177929819Y-79453570D02*
X178929819Y-79215475D01*
X178929819Y-79215475D02*
X178215533Y-79024999D01*
X178215533Y-79024999D02*
X178929819Y-78834523D01*
X178929819Y-78834523D02*
X177929819Y-78596428D01*
X178263152Y-77786904D02*
X178929819Y-77786904D01*
X177882200Y-78024999D02*
X178596485Y-78263094D01*
X178596485Y-78263094D02*
X178596485Y-77644047D01*
D11*
%TO.C,U1*%
X206720000Y-77400000D02*
X230720000Y-77400000D01*
X206720000Y-95400000D02*
X206720000Y-77400000D01*
X230720000Y-77400000D02*
X230720000Y-95400000D01*
X230720000Y-95400000D02*
X206720000Y-95400000D01*
%TO.C,BAT1*%
X176040000Y-84290000D02*
X176040000Y-86090000D01*
X176040000Y-88460000D02*
X175050000Y-88460000D01*
X176040000Y-90260000D02*
X176040000Y-88460000D01*
X177490000Y-84290000D02*
X176040000Y-84290000D01*
X177490000Y-90260000D02*
X176040000Y-90260000D01*
X180310000Y-88990000D02*
X180310000Y-85560000D01*
%TO.C,J1*%
X196860000Y-98210000D02*
X196860000Y-100870000D01*
X197430000Y-98210000D02*
X196860000Y-98210000D01*
X199970000Y-100870000D02*
X196860000Y-100870000D01*
X202510000Y-98210000D02*
X198950000Y-98210000D01*
X205050000Y-100870000D02*
X201490000Y-100870000D01*
X206570000Y-100870000D02*
X206570000Y-102390000D01*
X207140000Y-98210000D02*
X204030000Y-98210000D01*
X207140000Y-98210000D02*
X207140000Y-100870000D01*
X207140000Y-100870000D02*
X206570000Y-100870000D01*
X219741576Y-103260997D02*
X184161576Y-103260997D01*
X184161576Y-69660997D01*
X219741576Y-69660997D01*
X219741576Y-103260997D01*
%TO.C,SW3*%
X222850000Y-71075000D02*
X222850000Y-70525000D01*
X223875000Y-68950000D02*
X222950000Y-68950000D01*
X227650000Y-68950000D02*
X226725000Y-68950000D01*
X227650000Y-72650000D02*
X222950000Y-72650000D01*
X227750000Y-71075000D02*
X227750000Y-70525000D01*
%TO.C,SW0*%
X176250000Y-71075000D02*
X176250000Y-70525000D01*
X177275000Y-68950000D02*
X176350000Y-68950000D01*
X181050000Y-68950000D02*
X180125000Y-68950000D01*
X181050000Y-72650000D02*
X176350000Y-72650000D01*
X181150000Y-71075000D02*
X181150000Y-70525000D01*
%TO.C,SW5*%
X172150000Y-92700000D02*
X172150000Y-100500000D01*
X172150000Y-92700000D02*
X176250000Y-92700000D01*
X176200000Y-95700000D02*
X176200000Y-95000000D01*
X176200000Y-98200000D02*
X176200000Y-97500000D01*
X176200000Y-100500000D02*
X172150000Y-100500000D01*
D13*
X176250000Y-93500000D02*
X176250000Y-92700000D01*
X176250000Y-99600000D02*
X176250000Y-100500000D01*
D11*
%TO.C,SW2*%
X207800000Y-71075000D02*
X207800000Y-70525000D01*
X208825000Y-68950000D02*
X207900000Y-68950000D01*
X212600000Y-68950000D02*
X211675000Y-68950000D01*
X212600000Y-72650000D02*
X207900000Y-72650000D01*
X212700000Y-71075000D02*
X212700000Y-70525000D01*
%TO.C,SW1*%
X191250000Y-71075000D02*
X191250000Y-70525000D01*
X192275000Y-68950000D02*
X191350000Y-68950000D01*
X196050000Y-68950000D02*
X195125000Y-68950000D01*
X196050000Y-72650000D02*
X191350000Y-72650000D01*
X196150000Y-71075000D02*
X196150000Y-70525000D01*
%TO.C,SW4*%
X173625000Y-76675000D02*
X173625000Y-77600000D01*
X173625000Y-80450000D02*
X173625000Y-81375000D01*
X175750000Y-76575000D02*
X175200000Y-76575000D01*
X175750000Y-81475000D02*
X175200000Y-81475000D01*
X177325000Y-76675000D02*
X177325000Y-81375000D01*
%TD*%
M02*
