  0
SECTION
  2
HEADER
  9
$ANGBASE
  50
0.0
  9
$ANGDIR
  70
1
  9
$MEASUREMENT
  70
1
  0
ENDSEC
  0
SECTION
  2
TABLES
  0
TABLE
  2
LTYPE
  70
4
  0
LTYPE
  5
40F
  2
CONTINUOUS
  70
0
  3
Solid line
  72
65
  73
0
  40
0.0
  0
LTYPE
  5
410
  2
DASHDOT
 70
0
  3
Dash Dot ____ _ ____ _
 72
65
 73
4
 40
2.0
 49
1.25
 49
-0.25
 49
0.25
 49
-0.25
  0
LTYPE
  5
411
  2
DASHED
 70
0
  3
Dashed __ __ __ __ __
 72
65
 73
2
 40
0.75
 49
0.5
 49
-0.25
  0
LTYPE
  5
43B
  2
DOTTED
 70
0
  3
Dotted .  .  .  .
 72
65
 73
2
 40
0.2
 49
0.0
 49
-0.2
  0
ENDTAB
  0
TABLE
  2
STYLE
  70
4
  0
STYLE
  2
KICAD
  70
0
  40
0
  41
1
  42
1
  50
0
  71
0
  3
isocp.shx
  0
STYLE
  2
KICADB
  70
0
  40
0
  41
1
  42
1
  50
0
  71
0
  3
isocp.shx
  0
STYLE
  2
KICADI
  70
0
  40
0
  41
1
  42
1
  50
15
  71
0
  3
isocp.shx
  0
STYLE
  2
KICADBI
  70
0
  40
0
  41
1
  42
1
  50
15
  71
0
  3
isocp.shx
  0
ENDTAB
  0
TABLE
  2
LAYER
  70
1
  0
LAYER
  2
BLACK
  70
0
  62
7
  6
CONTINUOUS
  0
ENDTAB
  0
ENDSEC
  0
SECTION
  2
ENTITIES
0
LINE
8
BLACK
6
CONTINUOUS
10
174.4722079999999949
20
-89.8842539999999985
11
174.5739429999999857
21
-89.9429909999999921
0
LINE
8
BLACK
6
CONTINUOUS
10
174.5739429999999857
20
-89.9429909999999921
11
174.657008999999988
21
-90.0260569999999944
0
LINE
8
BLACK
6
CONTINUOUS
10
174.657008999999988
20
-90.0260569999999944
11
174.7157459999999958
21
-90.1277919999999995
0
LINE
8
BLACK
6
CONTINUOUS
10
174.7157459999999958
20
-90.1277919999999995
11
174.7461500000000001
21
-90.2412629999999893
0
LINE
8
BLACK
6
CONTINUOUS
10
174.7461500000000001
20
-90.2412629999999893
11
174.7461500000000001
21
-90.3587369999999908
0
LINE
8
BLACK
6
CONTINUOUS
10
174.7461500000000001
20
-90.3587369999999908
11
174.7157459999999958
21
-90.4722079999999949
0
LINE
8
BLACK
6
CONTINUOUS
10
174.7157459999999958
20
-90.4722079999999949
11
174.657008999999988
21
-90.5739429999999999
0
LINE
8
BLACK
6
CONTINUOUS
10
174.657008999999988
20
-90.5739429999999999
11
174.5739429999999857
21
-90.6570090000000022
0
LINE
8
BLACK
6
CONTINUOUS
10
174.5739429999999857
20
-90.6570090000000022
11
174.4722079999999949
21
-90.7157459999999958
0
LINE
8
BLACK
6
CONTINUOUS
10
174.4722079999999949
20
-90.7157459999999958
11
174.3587369999999908
21
-90.7461500000000001
0
LINE
8
BLACK
6
CONTINUOUS
10
174.3587369999999908
20
-90.7461500000000001
11
174.2412630000000036
21
-90.7461500000000001
0
LINE
8
BLACK
6
CONTINUOUS
10
174.2412630000000036
20
-90.7461500000000001
11
174.1277919999999995
21
-90.7157459999999958
0
LINE
8
BLACK
6
CONTINUOUS
10
174.1277919999999995
20
-90.7157459999999958
11
174.0260569999999802
21
-90.6570090000000022
0
LINE
8
BLACK
6
CONTINUOUS
10
174.0260569999999802
20
-90.6570090000000022
11
173.9429909999999779
21
-90.5739429999999999
0
LINE
8
BLACK
6
CONTINUOUS
10
173.9429909999999779
20
-90.5739429999999999
11
173.8842539999999985
21
-90.4722079999999949
0
LINE
8
BLACK
6
CONTINUOUS
10
173.8842539999999985
20
-90.4722079999999949
11
173.8538499999999942
21
-90.3587369999999908
0
LINE
8
BLACK
6
CONTINUOUS
10
173.8538499999999942
20
-90.3587369999999908
11
173.8538499999999942
21
-90.2412629999999893
0
LINE
8
BLACK
6
CONTINUOUS
10
173.8538499999999942
20
-90.2412629999999893
11
173.8842539999999985
21
-90.1277919999999995
0
LINE
8
BLACK
6
CONTINUOUS
10
173.8842539999999985
20
-90.1277919999999995
11
173.9429909999999779
21
-90.0260569999999944
0
LINE
8
BLACK
6
CONTINUOUS
10
173.9429909999999779
20
-90.0260569999999944
11
174.0260569999999802
21
-89.9429909999999921
0
LINE
8
BLACK
6
CONTINUOUS
10
174.0260569999999802
20
-89.9429909999999921
11
174.1277919999999995
21
-89.8842539999999985
0
LINE
8
BLACK
6
CONTINUOUS
10
174.1277919999999995
20
-89.8842539999999985
11
174.2412630000000036
21
-89.8538499999999942
0
LINE
8
BLACK
6
CONTINUOUS
10
174.2412630000000036
20
-89.8538499999999942
11
174.3587369999999908
21
-89.8538499999999942
0
LINE
8
BLACK
6
CONTINUOUS
10
174.3587369999999908
20
-89.8538499999999942
11
174.4722079999999949
21
-89.8842539999999985
0
LINE
8
BLACK
6
CONTINUOUS
10
174.4722079999999949
20
-86.8842539999999985
11
174.5739429999999857
21
-86.9429909999999921
0
LINE
8
BLACK
6
CONTINUOUS
10
174.5739429999999857
20
-86.9429909999999921
11
174.657008999999988
21
-87.0260569999999944
0
LINE
8
BLACK
6
CONTINUOUS
10
174.657008999999988
20
-87.0260569999999944
11
174.7157459999999958
21
-87.1277919999999995
0
LINE
8
BLACK
6
CONTINUOUS
10
174.7157459999999958
20
-87.1277919999999995
11
174.7461500000000001
21
-87.2412629999999893
0
LINE
8
BLACK
6
CONTINUOUS
10
174.7461500000000001
20
-87.2412629999999893
11
174.7461500000000001
21
-87.3587369999999908
0
LINE
8
BLACK
6
CONTINUOUS
10
174.7461500000000001
20
-87.3587369999999908
11
174.7157459999999958
21
-87.4722079999999949
0
LINE
8
BLACK
6
CONTINUOUS
10
174.7157459999999958
20
-87.4722079999999949
11
174.657008999999988
21
-87.5739429999999999
0
LINE
8
BLACK
6
CONTINUOUS
10
174.657008999999988
20
-87.5739429999999999
11
174.5739429999999857
21
-87.6570090000000022
0
LINE
8
BLACK
6
CONTINUOUS
10
174.5739429999999857
20
-87.6570090000000022
11
174.4722079999999949
21
-87.7157459999999958
0
LINE
8
BLACK
6
CONTINUOUS
10
174.4722079999999949
20
-87.7157459999999958
11
174.3587369999999908
21
-87.7461500000000001
0
LINE
8
BLACK
6
CONTINUOUS
10
174.3587369999999908
20
-87.7461500000000001
11
174.2412630000000036
21
-87.7461500000000001
0
LINE
8
BLACK
6
CONTINUOUS
10
174.2412630000000036
20
-87.7461500000000001
11
174.1277919999999995
21
-87.7157459999999958
0
LINE
8
BLACK
6
CONTINUOUS
10
174.1277919999999995
20
-87.7157459999999958
11
174.0260569999999802
21
-87.6570090000000022
0
LINE
8
BLACK
6
CONTINUOUS
10
174.0260569999999802
20
-87.6570090000000022
11
173.9429909999999779
21
-87.5739429999999999
0
LINE
8
BLACK
6
CONTINUOUS
10
173.9429909999999779
20
-87.5739429999999999
11
173.8842539999999985
21
-87.4722079999999949
0
LINE
8
BLACK
6
CONTINUOUS
10
173.8842539999999985
20
-87.4722079999999949
11
173.8538499999999942
21
-87.3587369999999908
0
LINE
8
BLACK
6
CONTINUOUS
10
173.8538499999999942
20
-87.3587369999999908
11
173.8538499999999942
21
-87.2412629999999893
0
LINE
8
BLACK
6
CONTINUOUS
10
173.8538499999999942
20
-87.2412629999999893
11
173.8842539999999985
21
-87.1277919999999995
0
LINE
8
BLACK
6
CONTINUOUS
10
173.8842539999999985
20
-87.1277919999999995
11
173.9429909999999779
21
-87.0260569999999944
0
LINE
8
BLACK
6
CONTINUOUS
10
173.9429909999999779
20
-87.0260569999999944
11
174.0260569999999802
21
-86.9429909999999921
0
LINE
8
BLACK
6
CONTINUOUS
10
174.0260569999999802
20
-86.9429909999999921
11
174.1277919999999995
21
-86.8842539999999985
0
LINE
8
BLACK
6
CONTINUOUS
10
174.1277919999999995
20
-86.8842539999999985
11
174.2412630000000036
21
-86.8538499999999942
0
LINE
8
BLACK
6
CONTINUOUS
10
174.2412630000000036
20
-86.8538499999999942
11
174.3587369999999908
21
-86.8538499999999942
0
LINE
8
BLACK
6
CONTINUOUS
10
174.3587369999999908
20
-86.8538499999999942
11
174.4722079999999949
21
-86.8842539999999985
0
LINE
8
BLACK
6
CONTINUOUS
10
174.2722080000000062
20
-78.6092539999999929
11
174.373942999999997
21
-78.6679910000000007
0
LINE
8
BLACK
6
CONTINUOUS
10
174.373942999999997
20
-78.6679910000000007
11
174.4570089999999993
21
-78.751057000000003
0
LINE
8
BLACK
6
CONTINUOUS
10
174.4570089999999993
20
-78.751057000000003
11
174.5157459999999787
21
-78.8527919999999938
0
LINE
8
BLACK
6
CONTINUOUS
10
174.5157459999999787
20
-78.8527919999999938
11
174.546149999999983
21
-78.9662629999999979
0
LINE
8
BLACK
6
CONTINUOUS
10
174.546149999999983
20
-78.9662629999999979
11
174.546149999999983
21
-79.0837369999999993
0
LINE
8
BLACK
6
CONTINUOUS
10
174.546149999999983
20
-79.0837369999999993
11
174.5157459999999787
21
-79.1972080000000034
0
LINE
8
BLACK
6
CONTINUOUS
10
174.5157459999999787
20
-79.1972080000000034
11
174.4570089999999993
21
-79.2989429999999942
0
LINE
8
BLACK
6
CONTINUOUS
10
174.4570089999999993
20
-79.2989429999999942
11
174.373942999999997
21
-79.3820089999999965
0
LINE
8
BLACK
6
CONTINUOUS
10
174.373942999999997
20
-79.3820089999999965
11
174.2722080000000062
21
-79.4407459999999901
0
LINE
8
BLACK
6
CONTINUOUS
10
174.2722080000000062
20
-79.4407459999999901
11
174.1587370000000021
21
-79.4711499999999944
0
LINE
8
BLACK
6
CONTINUOUS
10
174.1587370000000021
20
-79.4711499999999944
11
174.0412629999999865
21
-79.4711499999999944
0
LINE
8
BLACK
6
CONTINUOUS
10
174.0412629999999865
20
-79.4711499999999944
11
173.9277919999999824
21
-79.4407459999999901
0
LINE
8
BLACK
6
CONTINUOUS
10
173.9277919999999824
20
-79.4407459999999901
11
173.8260569999999916
21
-79.3820089999999965
0
LINE
8
BLACK
6
CONTINUOUS
10
173.8260569999999916
20
-79.3820089999999965
11
173.7429909999999893
21
-79.2989429999999942
0
LINE
8
BLACK
6
CONTINUOUS
10
173.7429909999999893
20
-79.2989429999999942
11
173.6842539999999815
21
-79.1972080000000034
0
LINE
8
BLACK
6
CONTINUOUS
10
173.6842539999999815
20
-79.1972080000000034
11
173.6538500000000056
21
-79.0837369999999993
0
LINE
8
BLACK
6
CONTINUOUS
10
173.6538500000000056
20
-79.0837369999999993
11
173.6538500000000056
21
-78.9662629999999979
0
LINE
8
BLACK
6
CONTINUOUS
10
173.6538500000000056
20
-78.9662629999999979
11
173.6842539999999815
21
-78.8527919999999938
0
LINE
8
BLACK
6
CONTINUOUS
10
173.6842539999999815
20
-78.8527919999999938
11
173.7429909999999893
21
-78.751057000000003
0
LINE
8
BLACK
6
CONTINUOUS
10
173.7429909999999893
20
-78.751057000000003
11
173.8260569999999916
21
-78.6679910000000007
0
LINE
8
BLACK
6
CONTINUOUS
10
173.8260569999999916
20
-78.6679910000000007
11
173.9277919999999824
21
-78.6092539999999929
0
LINE
8
BLACK
6
CONTINUOUS
10
173.9277919999999824
20
-78.6092539999999929
11
174.0412629999999865
21
-78.5788500000000028
0
LINE
8
BLACK
6
CONTINUOUS
10
174.0412629999999865
20
-78.5788500000000028
11
174.1587370000000021
21
-78.5788500000000028
0
LINE
8
BLACK
6
CONTINUOUS
10
174.1587370000000021
20
-78.5788500000000028
11
174.2722080000000062
21
-78.6092539999999929
0
LINE
8
BLACK
6
CONTINUOUS
10
177.0222079999999778
20
-78.6092539999999929
11
177.123942999999997
21
-78.6679910000000007
0
LINE
8
BLACK
6
CONTINUOUS
10
177.123942999999997
20
-78.6679910000000007
11
177.2070089999999993
21
-78.751057000000003
0
LINE
8
BLACK
6
CONTINUOUS
10
177.2070089999999993
20
-78.751057000000003
11
177.2657459999999787
21
-78.8527919999999938
0
LINE
8
BLACK
6
CONTINUOUS
10
177.2657459999999787
20
-78.8527919999999938
11
177.296149999999983
21
-78.9662629999999979
0
LINE
8
BLACK
6
CONTINUOUS
10
177.296149999999983
20
-78.9662629999999979
11
177.296149999999983
21
-79.0837369999999993
0
LINE
8
BLACK
6
CONTINUOUS
10
177.296149999999983
20
-79.0837369999999993
11
177.2657459999999787
21
-79.1972080000000034
0
LINE
8
BLACK
6
CONTINUOUS
10
177.2657459999999787
20
-79.1972080000000034
11
177.2070089999999993
21
-79.2989429999999942
0
LINE
8
BLACK
6
CONTINUOUS
10
177.2070089999999993
20
-79.2989429999999942
11
177.123942999999997
21
-79.3820089999999965
0
LINE
8
BLACK
6
CONTINUOUS
10
177.123942999999997
20
-79.3820089999999965
11
177.0222079999999778
21
-79.4407459999999901
0
LINE
8
BLACK
6
CONTINUOUS
10
177.0222079999999778
20
-79.4407459999999901
11
176.9087370000000021
21
-79.4711499999999944
0
LINE
8
BLACK
6
CONTINUOUS
10
176.9087370000000021
20
-79.4711499999999944
11
176.7912629999999865
21
-79.4711499999999944
0
LINE
8
BLACK
6
CONTINUOUS
10
176.7912629999999865
20
-79.4711499999999944
11
176.6777919999999824
21
-79.4407459999999901
0
LINE
8
BLACK
6
CONTINUOUS
10
176.6777919999999824
20
-79.4407459999999901
11
176.5760569999999916
21
-79.3820089999999965
0
LINE
8
BLACK
6
CONTINUOUS
10
176.5760569999999916
20
-79.3820089999999965
11
176.4929909999999893
21
-79.2989429999999942
0
LINE
8
BLACK
6
CONTINUOUS
10
176.4929909999999893
20
-79.2989429999999942
11
176.4342539999999815
21
-79.1972080000000034
0
LINE
8
BLACK
6
CONTINUOUS
10
176.4342539999999815
20
-79.1972080000000034
11
176.4038500000000056
21
-79.0837369999999993
0
LINE
8
BLACK
6
CONTINUOUS
10
176.4038500000000056
20
-79.0837369999999993
11
176.4038500000000056
21
-78.9662629999999979
0
LINE
8
BLACK
6
CONTINUOUS
10
176.4038500000000056
20
-78.9662629999999979
11
176.4342539999999815
21
-78.8527919999999938
0
LINE
8
BLACK
6
CONTINUOUS
10
176.4342539999999815
20
-78.8527919999999938
11
176.4929909999999893
21
-78.751057000000003
0
LINE
8
BLACK
6
CONTINUOUS
10
176.4929909999999893
20
-78.751057000000003
11
176.5760569999999916
21
-78.6679910000000007
0
LINE
8
BLACK
6
CONTINUOUS
10
176.5760569999999916
20
-78.6679910000000007
11
176.6777919999999824
21
-78.6092539999999929
0
LINE
8
BLACK
6
CONTINUOUS
10
176.6777919999999824
20
-78.6092539999999929
11
176.7912629999999865
21
-78.5788500000000028
0
LINE
8
BLACK
6
CONTINUOUS
10
176.7912629999999865
20
-78.5788500000000028
11
176.9087370000000021
21
-78.5788500000000028
0
LINE
8
BLACK
6
CONTINUOUS
10
176.9087370000000021
20
-78.5788500000000028
11
177.0222079999999778
21
-78.6092539999999929
0
LINE
8
BLACK
6
CONTINUOUS
10
179.7722079999999778
20
-71.7592539999999985
11
179.873942999999997
21
-71.8179909999999921
0
LINE
8
BLACK
6
CONTINUOUS
10
179.873942999999997
20
-71.8179909999999921
11
179.9570089999999993
21
-71.9010569999999944
0
LINE
8
BLACK
6
CONTINUOUS
10
179.9570089999999993
20
-71.9010569999999944
11
180.0157459999999787
21
-72.0027919999999995
0
LINE
8
BLACK
6
CONTINUOUS
10
180.0157459999999787
20
-72.0027919999999995
11
180.046149999999983
21
-72.1162630000000036
0
LINE
8
BLACK
6
CONTINUOUS
10
180.046149999999983
20
-72.1162630000000036
11
180.046149999999983
21
-72.2337369999999908
0
LINE
8
BLACK
6
CONTINUOUS
10
180.046149999999983
20
-72.2337369999999908
11
180.0157459999999787
21
-72.3472079999999949
0
LINE
8
BLACK
6
CONTINUOUS
10
180.0157459999999787
20
-72.3472079999999949
11
179.9570089999999993
21
-72.4489429999999999
0
LINE
8
BLACK
6
CONTINUOUS
10
179.9570089999999993
20
-72.4489429999999999
11
179.873942999999997
21
-72.5320090000000022
0
LINE
8
BLACK
6
CONTINUOUS
10
179.873942999999997
20
-72.5320090000000022
11
179.7722079999999778
21
-72.5907459999999958
0
LINE
8
BLACK
6
CONTINUOUS
10
179.7722079999999778
20
-72.5907459999999958
11
179.6587370000000021
21
-72.6211500000000001
0
LINE
8
BLACK
6
CONTINUOUS
10
179.6587370000000021
20
-72.6211500000000001
11
179.5412629999999865
21
-72.6211500000000001
0
LINE
8
BLACK
6
CONTINUOUS
10
179.5412629999999865
20
-72.6211500000000001
11
179.4277919999999824
21
-72.5907459999999958
0
LINE
8
BLACK
6
CONTINUOUS
10
179.4277919999999824
20
-72.5907459999999958
11
179.3260569999999916
21
-72.5320090000000022
0
LINE
8
BLACK
6
CONTINUOUS
10
179.3260569999999916
20
-72.5320090000000022
11
179.2429909999999893
21
-72.4489429999999999
0
LINE
8
BLACK
6
CONTINUOUS
10
179.2429909999999893
20
-72.4489429999999999
11
179.1842539999999815
21
-72.3472079999999949
0
LINE
8
BLACK
6
CONTINUOUS
10
179.1842539999999815
20
-72.3472079999999949
11
179.1538500000000056
21
-72.2337369999999908
0
LINE
8
BLACK
6
CONTINUOUS
10
179.1538500000000056
20
-72.2337369999999908
11
179.1538500000000056
21
-72.1162630000000036
0
LINE
8
BLACK
6
CONTINUOUS
10
179.1538500000000056
20
-72.1162630000000036
11
179.1842539999999815
21
-72.0027919999999995
0
LINE
8
BLACK
6
CONTINUOUS
10
179.1842539999999815
20
-72.0027919999999995
11
179.2429909999999893
21
-71.9010569999999944
0
LINE
8
BLACK
6
CONTINUOUS
10
179.2429909999999893
20
-71.9010569999999944
11
179.3260569999999916
21
-71.8179909999999921
0
LINE
8
BLACK
6
CONTINUOUS
10
179.3260569999999916
20
-71.8179909999999921
11
179.4277919999999824
21
-71.7592539999999985
0
LINE
8
BLACK
6
CONTINUOUS
10
179.4277919999999824
20
-71.7592539999999985
11
179.5412629999999865
21
-71.7288499999999942
0
LINE
8
BLACK
6
CONTINUOUS
10
179.5412629999999865
20
-71.7288499999999942
11
179.6587370000000021
21
-71.7288499999999942
0
LINE
8
BLACK
6
CONTINUOUS
10
179.6587370000000021
20
-71.7288499999999942
11
179.7722079999999778
21
-71.7592539999999985
0
LINE
8
BLACK
6
CONTINUOUS
10
196.7972079999999835
20
-71.7592539999999985
11
196.8989430000000027
21
-71.8179909999999921
0
LINE
8
BLACK
6
CONTINUOUS
10
196.8989430000000027
20
-71.8179909999999921
11
196.982009000000005
21
-71.9010569999999944
0
LINE
8
BLACK
6
CONTINUOUS
10
196.982009000000005
20
-71.9010569999999944
11
197.0407459999999844
21
-72.0027919999999995
0
LINE
8
BLACK
6
CONTINUOUS
10
197.0407459999999844
20
-72.0027919999999995
11
197.0711499999999887
21
-72.1162630000000036
0
LINE
8
BLACK
6
CONTINUOUS
10
197.0711499999999887
20
-72.1162630000000036
11
197.0711499999999887
21
-72.2337369999999908
0
LINE
8
BLACK
6
CONTINUOUS
10
197.0711499999999887
20
-72.2337369999999908
11
197.0407459999999844
21
-72.3472079999999949
0
LINE
8
BLACK
6
CONTINUOUS
10
197.0407459999999844
20
-72.3472079999999949
11
196.982009000000005
21
-72.4489429999999999
0
LINE
8
BLACK
6
CONTINUOUS
10
196.982009000000005
20
-72.4489429999999999
11
196.8989430000000027
21
-72.5320090000000022
0
LINE
8
BLACK
6
CONTINUOUS
10
196.8989430000000027
20
-72.5320090000000022
11
196.7972079999999835
21
-72.5907459999999958
0
LINE
8
BLACK
6
CONTINUOUS
10
196.7972079999999835
20
-72.5907459999999958
11
196.6837369999999794
21
-72.6211500000000001
0
LINE
8
BLACK
6
CONTINUOUS
10
196.6837369999999794
20
-72.6211500000000001
11
196.5662629999999922
21
-72.6211500000000001
0
LINE
8
BLACK
6
CONTINUOUS
10
196.5662629999999922
20
-72.6211500000000001
11
196.4527919999999881
21
-72.5907459999999958
0
LINE
8
BLACK
6
CONTINUOUS
10
196.4527919999999881
20
-72.5907459999999958
11
196.3510569999999973
21
-72.5320090000000022
0
LINE
8
BLACK
6
CONTINUOUS
10
196.3510569999999973
20
-72.5320090000000022
11
196.267990999999995
21
-72.4489429999999999
0
LINE
8
BLACK
6
CONTINUOUS
10
196.267990999999995
20
-72.4489429999999999
11
196.2092539999999872
21
-72.3472079999999949
0
LINE
8
BLACK
6
CONTINUOUS
10
196.2092539999999872
20
-72.3472079999999949
11
196.1788499999999829
21
-72.2337369999999908
0
LINE
8
BLACK
6
CONTINUOUS
10
196.1788499999999829
20
-72.2337369999999908
11
196.1788499999999829
21
-72.1162630000000036
0
LINE
8
BLACK
6
CONTINUOUS
10
196.1788499999999829
20
-72.1162630000000036
11
196.2092539999999872
21
-72.0027919999999995
0
LINE
8
BLACK
6
CONTINUOUS
10
196.2092539999999872
20
-72.0027919999999995
11
196.267990999999995
21
-71.9010569999999944
0
LINE
8
BLACK
6
CONTINUOUS
10
196.267990999999995
20
-71.9010569999999944
11
196.3510569999999973
21
-71.8179909999999921
0
LINE
8
BLACK
6
CONTINUOUS
10
196.3510569999999973
20
-71.8179909999999921
11
196.4527919999999881
21
-71.7592539999999985
0
LINE
8
BLACK
6
CONTINUOUS
10
196.4527919999999881
20
-71.7592539999999985
11
196.5662629999999922
21
-71.7288499999999942
0
LINE
8
BLACK
6
CONTINUOUS
10
196.5662629999999922
20
-71.7288499999999942
11
196.6837369999999794
21
-71.7288499999999942
0
LINE
8
BLACK
6
CONTINUOUS
10
196.6837369999999794
20
-71.7288499999999942
11
196.7972079999999835
21
-71.7592539999999985
0
LINE
8
BLACK
6
CONTINUOUS
10
216.0722079999999892
20
-71.7592539999999985
11
216.17394299999998
21
-71.8179909999999921
0
LINE
8
BLACK
6
CONTINUOUS
10
216.17394299999998
20
-71.8179909999999921
11
216.2570089999999823
21
-71.9010569999999944
0
LINE
8
BLACK
6
CONTINUOUS
10
216.2570089999999823
20
-71.9010569999999944
11
216.3157459999999901
21
-72.0027919999999995
0
LINE
8
BLACK
6
CONTINUOUS
10
216.3157459999999901
20
-72.0027919999999995
11
216.3461499999999944
21
-72.1162630000000036
0
LINE
8
BLACK
6
CONTINUOUS
10
216.3461499999999944
20
-72.1162630000000036
11
216.3461499999999944
21
-72.2337369999999908
0
LINE
8
BLACK
6
CONTINUOUS
10
216.3461499999999944
20
-72.2337369999999908
11
216.3157459999999901
21
-72.3472079999999949
0
LINE
8
BLACK
6
CONTINUOUS
10
216.3157459999999901
20
-72.3472079999999949
11
216.2570089999999823
21
-72.4489429999999999
0
LINE
8
BLACK
6
CONTINUOUS
10
216.2570089999999823
20
-72.4489429999999999
11
216.17394299999998
21
-72.5320090000000022
0
LINE
8
BLACK
6
CONTINUOUS
10
216.17394299999998
20
-72.5320090000000022
11
216.0722079999999892
21
-72.5907459999999958
0
LINE
8
BLACK
6
CONTINUOUS
10
216.0722079999999892
20
-72.5907459999999958
11
215.9587369999999851
21
-72.6211500000000001
0
LINE
8
BLACK
6
CONTINUOUS
10
215.9587369999999851
20
-72.6211500000000001
11
215.8412629999999979
21
-72.6211500000000001
0
LINE
8
BLACK
6
CONTINUOUS
10
215.8412629999999979
20
-72.6211500000000001
11
215.7277919999999938
21
-72.5907459999999958
0
LINE
8
BLACK
6
CONTINUOUS
10
215.7277919999999938
20
-72.5907459999999958
11
215.626057000000003
21
-72.5320090000000022
0
LINE
8
BLACK
6
CONTINUOUS
10
215.626057000000003
20
-72.5320090000000022
11
215.5429910000000007
21
-72.4489429999999999
0
LINE
8
BLACK
6
CONTINUOUS
10
215.5429910000000007
20
-72.4489429999999999
11
215.4842539999999929
21
-72.3472079999999949
0
LINE
8
BLACK
6
CONTINUOUS
10
215.4842539999999929
20
-72.3472079999999949
11
215.4538499999999885
21
-72.2337369999999908
0
LINE
8
BLACK
6
CONTINUOUS
10
215.4538499999999885
20
-72.2337369999999908
11
215.4538499999999885
21
-72.1162630000000036
0
LINE
8
BLACK
6
CONTINUOUS
10
215.4538499999999885
20
-72.1162630000000036
11
215.4842539999999929
21
-72.0027919999999995
0
LINE
8
BLACK
6
CONTINUOUS
10
215.4842539999999929
20
-72.0027919999999995
11
215.5429910000000007
21
-71.9010569999999944
0
LINE
8
BLACK
6
CONTINUOUS
10
215.5429910000000007
20
-71.9010569999999944
11
215.626057000000003
21
-71.8179909999999921
0
LINE
8
BLACK
6
CONTINUOUS
10
215.626057000000003
20
-71.8179909999999921
11
215.7277919999999938
21
-71.7592539999999985
0
LINE
8
BLACK
6
CONTINUOUS
10
215.7277919999999938
20
-71.7592539999999985
11
215.8412629999999979
21
-71.7288499999999942
0
LINE
8
BLACK
6
CONTINUOUS
10
215.8412629999999979
20
-71.7288499999999942
11
215.9587369999999851
21
-71.7288499999999942
0
LINE
8
BLACK
6
CONTINUOUS
10
215.9587369999999851
20
-71.7288499999999942
11
216.0722079999999892
21
-71.7592539999999985
0
LINE
8
BLACK
6
CONTINUOUS
10
233.0722079999999892
20
-71.7592539999999985
11
233.17394299999998
21
-71.8179909999999921
0
LINE
8
BLACK
6
CONTINUOUS
10
233.17394299999998
20
-71.8179909999999921
11
233.2570089999999823
21
-71.9010569999999944
0
LINE
8
BLACK
6
CONTINUOUS
10
233.2570089999999823
20
-71.9010569999999944
11
233.3157459999999901
21
-72.0027919999999995
0
LINE
8
BLACK
6
CONTINUOUS
10
233.3157459999999901
20
-72.0027919999999995
11
233.3461499999999944
21
-72.1162630000000036
0
LINE
8
BLACK
6
CONTINUOUS
10
233.3461499999999944
20
-72.1162630000000036
11
233.3461499999999944
21
-72.2337369999999908
0
LINE
8
BLACK
6
CONTINUOUS
10
233.3461499999999944
20
-72.2337369999999908
11
233.3157459999999901
21
-72.3472079999999949
0
LINE
8
BLACK
6
CONTINUOUS
10
233.3157459999999901
20
-72.3472079999999949
11
233.2570089999999823
21
-72.4489429999999999
0
LINE
8
BLACK
6
CONTINUOUS
10
233.2570089999999823
20
-72.4489429999999999
11
233.17394299999998
21
-72.5320090000000022
0
LINE
8
BLACK
6
CONTINUOUS
10
233.17394299999998
20
-72.5320090000000022
11
233.0722079999999892
21
-72.5907459999999958
0
LINE
8
BLACK
6
CONTINUOUS
10
233.0722079999999892
20
-72.5907459999999958
11
232.9587369999999851
21
-72.6211500000000001
0
LINE
8
BLACK
6
CONTINUOUS
10
232.9587369999999851
20
-72.6211500000000001
11
232.8412629999999979
21
-72.6211500000000001
0
LINE
8
BLACK
6
CONTINUOUS
10
232.8412629999999979
20
-72.6211500000000001
11
232.7277919999999938
21
-72.5907459999999958
0
LINE
8
BLACK
6
CONTINUOUS
10
232.7277919999999938
20
-72.5907459999999958
11
232.626057000000003
21
-72.5320090000000022
0
LINE
8
BLACK
6
CONTINUOUS
10
232.626057000000003
20
-72.5320090000000022
11
232.5429910000000007
21
-72.4489429999999999
0
LINE
8
BLACK
6
CONTINUOUS
10
232.5429910000000007
20
-72.4489429999999999
11
232.4842539999999929
21
-72.3472079999999949
0
LINE
8
BLACK
6
CONTINUOUS
10
232.4842539999999929
20
-72.3472079999999949
11
232.4538499999999885
21
-72.2337369999999908
0
LINE
8
BLACK
6
CONTINUOUS
10
232.4538499999999885
20
-72.2337369999999908
11
232.4538499999999885
21
-72.1162630000000036
0
LINE
8
BLACK
6
CONTINUOUS
10
232.4538499999999885
20
-72.1162630000000036
11
232.4842539999999929
21
-72.0027919999999995
0
LINE
8
BLACK
6
CONTINUOUS
10
232.4842539999999929
20
-72.0027919999999995
11
232.5429910000000007
21
-71.9010569999999944
0
LINE
8
BLACK
6
CONTINUOUS
10
232.5429910000000007
20
-71.9010569999999944
11
232.626057000000003
21
-71.8179909999999921
0
LINE
8
BLACK
6
CONTINUOUS
10
232.626057000000003
20
-71.8179909999999921
11
232.7277919999999938
21
-71.7592539999999985
0
LINE
8
BLACK
6
CONTINUOUS
10
232.7277919999999938
20
-71.7592539999999985
11
232.8412629999999979
21
-71.7288499999999942
0
LINE
8
BLACK
6
CONTINUOUS
10
232.8412629999999979
20
-71.7288499999999942
11
232.9587369999999851
21
-71.7288499999999942
0
LINE
8
BLACK
6
CONTINUOUS
10
232.9587369999999851
20
-71.7288499999999942
11
233.0722079999999892
21
-71.7592539999999985
0
LINE
8
BLACK
6
CONTINUOUS
10
179.7722079999999778
20
-69.0092539999999985
11
179.873942999999997
21
-69.0679909999999921
0
LINE
8
BLACK
6
CONTINUOUS
10
179.873942999999997
20
-69.0679909999999921
11
179.9570089999999993
21
-69.1510569999999944
0
LINE
8
BLACK
6
CONTINUOUS
10
179.9570089999999993
20
-69.1510569999999944
11
180.0157459999999787
21
-69.2527919999999995
0
LINE
8
BLACK
6
CONTINUOUS
10
180.0157459999999787
20
-69.2527919999999995
11
180.046149999999983
21
-69.3662630000000036
0
LINE
8
BLACK
6
CONTINUOUS
10
180.046149999999983
20
-69.3662630000000036
11
180.046149999999983
21
-69.4837369999999908
0
LINE
8
BLACK
6
CONTINUOUS
10
180.046149999999983
20
-69.4837369999999908
11
180.0157459999999787
21
-69.5972079999999949
0
LINE
8
BLACK
6
CONTINUOUS
10
180.0157459999999787
20
-69.5972079999999949
11
179.9570089999999993
21
-69.6989429999999999
0
LINE
8
BLACK
6
CONTINUOUS
10
179.9570089999999993
20
-69.6989429999999999
11
179.873942999999997
21
-69.7820090000000022
0
LINE
8
BLACK
6
CONTINUOUS
10
179.873942999999997
20
-69.7820090000000022
11
179.7722079999999778
21
-69.8407459999999958
0
LINE
8
BLACK
6
CONTINUOUS
10
179.7722079999999778
20
-69.8407459999999958
11
179.6587370000000021
21
-69.8711500000000001
0
LINE
8
BLACK
6
CONTINUOUS
10
179.6587370000000021
20
-69.8711500000000001
11
179.5412629999999865
21
-69.8711500000000001
0
LINE
8
BLACK
6
CONTINUOUS
10
179.5412629999999865
20
-69.8711500000000001
11
179.4277919999999824
21
-69.8407459999999958
0
LINE
8
BLACK
6
CONTINUOUS
10
179.4277919999999824
20
-69.8407459999999958
11
179.3260569999999916
21
-69.7820090000000022
0
LINE
8
BLACK
6
CONTINUOUS
10
179.3260569999999916
20
-69.7820090000000022
11
179.2429909999999893
21
-69.6989429999999999
0
LINE
8
BLACK
6
CONTINUOUS
10
179.2429909999999893
20
-69.6989429999999999
11
179.1842539999999815
21
-69.5972079999999949
0
LINE
8
BLACK
6
CONTINUOUS
10
179.1842539999999815
20
-69.5972079999999949
11
179.1538500000000056
21
-69.4837369999999908
0
LINE
8
BLACK
6
CONTINUOUS
10
179.1538500000000056
20
-69.4837369999999908
11
179.1538500000000056
21
-69.3662630000000036
0
LINE
8
BLACK
6
CONTINUOUS
10
179.1538500000000056
20
-69.3662630000000036
11
179.1842539999999815
21
-69.2527919999999995
0
LINE
8
BLACK
6
CONTINUOUS
10
179.1842539999999815
20
-69.2527919999999995
11
179.2429909999999893
21
-69.1510569999999944
0
LINE
8
BLACK
6
CONTINUOUS
10
179.2429909999999893
20
-69.1510569999999944
11
179.3260569999999916
21
-69.0679909999999921
0
LINE
8
BLACK
6
CONTINUOUS
10
179.3260569999999916
20
-69.0679909999999921
11
179.4277919999999824
21
-69.0092539999999985
0
LINE
8
BLACK
6
CONTINUOUS
10
179.4277919999999824
20
-69.0092539999999985
11
179.5412629999999865
21
-68.9788499999999942
0
LINE
8
BLACK
6
CONTINUOUS
10
179.5412629999999865
20
-68.9788499999999942
11
179.6587370000000021
21
-68.9788499999999942
0
LINE
8
BLACK
6
CONTINUOUS
10
179.6587370000000021
20
-68.9788499999999942
11
179.7722079999999778
21
-69.0092539999999985
0
LINE
8
BLACK
6
CONTINUOUS
10
196.7972079999999835
20
-69.0092539999999985
11
196.8989430000000027
21
-69.0679909999999921
0
LINE
8
BLACK
6
CONTINUOUS
10
196.8989430000000027
20
-69.0679909999999921
11
196.982009000000005
21
-69.1510569999999944
0
LINE
8
BLACK
6
CONTINUOUS
10
196.982009000000005
20
-69.1510569999999944
11
197.0407459999999844
21
-69.2527919999999995
0
LINE
8
BLACK
6
CONTINUOUS
10
197.0407459999999844
20
-69.2527919999999995
11
197.0711499999999887
21
-69.3662630000000036
0
LINE
8
BLACK
6
CONTINUOUS
10
197.0711499999999887
20
-69.3662630000000036
11
197.0711499999999887
21
-69.4837369999999908
0
LINE
8
BLACK
6
CONTINUOUS
10
197.0711499999999887
20
-69.4837369999999908
11
197.0407459999999844
21
-69.5972079999999949
0
LINE
8
BLACK
6
CONTINUOUS
10
197.0407459999999844
20
-69.5972079999999949
11
196.982009000000005
21
-69.6989429999999999
0
LINE
8
BLACK
6
CONTINUOUS
10
196.982009000000005
20
-69.6989429999999999
11
196.8989430000000027
21
-69.7820090000000022
0
LINE
8
BLACK
6
CONTINUOUS
10
196.8989430000000027
20
-69.7820090000000022
11
196.7972079999999835
21
-69.8407459999999958
0
LINE
8
BLACK
6
CONTINUOUS
10
196.7972079999999835
20
-69.8407459999999958
11
196.6837369999999794
21
-69.8711500000000001
0
LINE
8
BLACK
6
CONTINUOUS
10
196.6837369999999794
20
-69.8711500000000001
11
196.5662629999999922
21
-69.8711500000000001
0
LINE
8
BLACK
6
CONTINUOUS
10
196.5662629999999922
20
-69.8711500000000001
11
196.4527919999999881
21
-69.8407459999999958
0
LINE
8
BLACK
6
CONTINUOUS
10
196.4527919999999881
20
-69.8407459999999958
11
196.3510569999999973
21
-69.7820090000000022
0
LINE
8
BLACK
6
CONTINUOUS
10
196.3510569999999973
20
-69.7820090000000022
11
196.267990999999995
21
-69.6989429999999999
0
LINE
8
BLACK
6
CONTINUOUS
10
196.267990999999995
20
-69.6989429999999999
11
196.2092539999999872
21
-69.5972079999999949
0
LINE
8
BLACK
6
CONTINUOUS
10
196.2092539999999872
20
-69.5972079999999949
11
196.1788499999999829
21
-69.4837369999999908
0
LINE
8
BLACK
6
CONTINUOUS
10
196.1788499999999829
20
-69.4837369999999908
11
196.1788499999999829
21
-69.3662630000000036
0
LINE
8
BLACK
6
CONTINUOUS
10
196.1788499999999829
20
-69.3662630000000036
11
196.2092539999999872
21
-69.2527919999999995
0
LINE
8
BLACK
6
CONTINUOUS
10
196.2092539999999872
20
-69.2527919999999995
11
196.267990999999995
21
-69.1510569999999944
0
LINE
8
BLACK
6
CONTINUOUS
10
196.267990999999995
20
-69.1510569999999944
11
196.3510569999999973
21
-69.0679909999999921
0
LINE
8
BLACK
6
CONTINUOUS
10
196.3510569999999973
20
-69.0679909999999921
11
196.4527919999999881
21
-69.0092539999999985
0
LINE
8
BLACK
6
CONTINUOUS
10
196.4527919999999881
20
-69.0092539999999985
11
196.5662629999999922
21
-68.9788499999999942
0
LINE
8
BLACK
6
CONTINUOUS
10
196.5662629999999922
20
-68.9788499999999942
11
196.6837369999999794
21
-68.9788499999999942
0
LINE
8
BLACK
6
CONTINUOUS
10
196.6837369999999794
20
-68.9788499999999942
11
196.7972079999999835
21
-69.0092539999999985
0
LINE
8
BLACK
6
CONTINUOUS
10
216.0722079999999892
20
-69.0092539999999985
11
216.17394299999998
21
-69.0679909999999921
0
LINE
8
BLACK
6
CONTINUOUS
10
216.17394299999998
20
-69.0679909999999921
11
216.2570089999999823
21
-69.1510569999999944
0
LINE
8
BLACK
6
CONTINUOUS
10
216.2570089999999823
20
-69.1510569999999944
11
216.3157459999999901
21
-69.2527919999999995
0
LINE
8
BLACK
6
CONTINUOUS
10
216.3157459999999901
20
-69.2527919999999995
11
216.3461499999999944
21
-69.3662630000000036
0
LINE
8
BLACK
6
CONTINUOUS
10
216.3461499999999944
20
-69.3662630000000036
11
216.3461499999999944
21
-69.4837369999999908
0
LINE
8
BLACK
6
CONTINUOUS
10
216.3461499999999944
20
-69.4837369999999908
11
216.3157459999999901
21
-69.5972079999999949
0
LINE
8
BLACK
6
CONTINUOUS
10
216.3157459999999901
20
-69.5972079999999949
11
216.2570089999999823
21
-69.6989429999999999
0
LINE
8
BLACK
6
CONTINUOUS
10
216.2570089999999823
20
-69.6989429999999999
11
216.17394299999998
21
-69.7820090000000022
0
LINE
8
BLACK
6
CONTINUOUS
10
216.17394299999998
20
-69.7820090000000022
11
216.0722079999999892
21
-69.8407459999999958
0
LINE
8
BLACK
6
CONTINUOUS
10
216.0722079999999892
20
-69.8407459999999958
11
215.9587369999999851
21
-69.8711500000000001
0
LINE
8
BLACK
6
CONTINUOUS
10
215.9587369999999851
20
-69.8711500000000001
11
215.8412629999999979
21
-69.8711500000000001
0
LINE
8
BLACK
6
CONTINUOUS
10
215.8412629999999979
20
-69.8711500000000001
11
215.7277919999999938
21
-69.8407459999999958
0
LINE
8
BLACK
6
CONTINUOUS
10
215.7277919999999938
20
-69.8407459999999958
11
215.626057000000003
21
-69.7820090000000022
0
LINE
8
BLACK
6
CONTINUOUS
10
215.626057000000003
20
-69.7820090000000022
11
215.5429910000000007
21
-69.6989429999999999
0
LINE
8
BLACK
6
CONTINUOUS
10
215.5429910000000007
20
-69.6989429999999999
11
215.4842539999999929
21
-69.5972079999999949
0
LINE
8
BLACK
6
CONTINUOUS
10
215.4842539999999929
20
-69.5972079999999949
11
215.4538499999999885
21
-69.4837369999999908
0
LINE
8
BLACK
6
CONTINUOUS
10
215.4538499999999885
20
-69.4837369999999908
11
215.4538499999999885
21
-69.3662630000000036
0
LINE
8
BLACK
6
CONTINUOUS
10
215.4538499999999885
20
-69.3662630000000036
11
215.4842539999999929
21
-69.2527919999999995
0
LINE
8
BLACK
6
CONTINUOUS
10
215.4842539999999929
20
-69.2527919999999995
11
215.5429910000000007
21
-69.1510569999999944
0
LINE
8
BLACK
6
CONTINUOUS
10
215.5429910000000007
20
-69.1510569999999944
11
215.626057000000003
21
-69.0679909999999921
0
LINE
8
BLACK
6
CONTINUOUS
10
215.626057000000003
20
-69.0679909999999921
11
215.7277919999999938
21
-69.0092539999999985
0
LINE
8
BLACK
6
CONTINUOUS
10
215.7277919999999938
20
-69.0092539999999985
11
215.8412629999999979
21
-68.9788499999999942
0
LINE
8
BLACK
6
CONTINUOUS
10
215.8412629999999979
20
-68.9788499999999942
11
215.9587369999999851
21
-68.9788499999999942
0
LINE
8
BLACK
6
CONTINUOUS
10
215.9587369999999851
20
-68.9788499999999942
11
216.0722079999999892
21
-69.0092539999999985
0
LINE
8
BLACK
6
CONTINUOUS
10
233.0722079999999892
20
-69.0092539999999985
11
233.17394299999998
21
-69.0679909999999921
0
LINE
8
BLACK
6
CONTINUOUS
10
233.17394299999998
20
-69.0679909999999921
11
233.2570089999999823
21
-69.1510569999999944
0
LINE
8
BLACK
6
CONTINUOUS
10
233.2570089999999823
20
-69.1510569999999944
11
233.3157459999999901
21
-69.2527919999999995
0
LINE
8
BLACK
6
CONTINUOUS
10
233.3157459999999901
20
-69.2527919999999995
11
233.3461499999999944
21
-69.3662630000000036
0
LINE
8
BLACK
6
CONTINUOUS
10
233.3461499999999944
20
-69.3662630000000036
11
233.3461499999999944
21
-69.4837369999999908
0
LINE
8
BLACK
6
CONTINUOUS
10
233.3461499999999944
20
-69.4837369999999908
11
233.3157459999999901
21
-69.5972079999999949
0
LINE
8
BLACK
6
CONTINUOUS
10
233.3157459999999901
20
-69.5972079999999949
11
233.2570089999999823
21
-69.6989429999999999
0
LINE
8
BLACK
6
CONTINUOUS
10
233.2570089999999823
20
-69.6989429999999999
11
233.17394299999998
21
-69.7820090000000022
0
LINE
8
BLACK
6
CONTINUOUS
10
233.17394299999998
20
-69.7820090000000022
11
233.0722079999999892
21
-69.8407459999999958
0
LINE
8
BLACK
6
CONTINUOUS
10
233.0722079999999892
20
-69.8407459999999958
11
232.9587369999999851
21
-69.8711500000000001
0
LINE
8
BLACK
6
CONTINUOUS
10
232.9587369999999851
20
-69.8711500000000001
11
232.8412629999999979
21
-69.8711500000000001
0
LINE
8
BLACK
6
CONTINUOUS
10
232.8412629999999979
20
-69.8711500000000001
11
232.7277919999999938
21
-69.8407459999999958
0
LINE
8
BLACK
6
CONTINUOUS
10
232.7277919999999938
20
-69.8407459999999958
11
232.626057000000003
21
-69.7820090000000022
0
LINE
8
BLACK
6
CONTINUOUS
10
232.626057000000003
20
-69.7820090000000022
11
232.5429910000000007
21
-69.6989429999999999
0
LINE
8
BLACK
6
CONTINUOUS
10
232.5429910000000007
20
-69.6989429999999999
11
232.4842539999999929
21
-69.5972079999999949
0
LINE
8
BLACK
6
CONTINUOUS
10
232.4842539999999929
20
-69.5972079999999949
11
232.4538499999999885
21
-69.4837369999999908
0
LINE
8
BLACK
6
CONTINUOUS
10
232.4538499999999885
20
-69.4837369999999908
11
232.4538499999999885
21
-69.3662630000000036
0
LINE
8
BLACK
6
CONTINUOUS
10
232.4538499999999885
20
-69.3662630000000036
11
232.4842539999999929
21
-69.2527919999999995
0
LINE
8
BLACK
6
CONTINUOUS
10
232.4842539999999929
20
-69.2527919999999995
11
232.5429910000000007
21
-69.1510569999999944
0
LINE
8
BLACK
6
CONTINUOUS
10
232.5429910000000007
20
-69.1510569999999944
11
232.626057000000003
21
-69.0679909999999921
0
LINE
8
BLACK
6
CONTINUOUS
10
232.626057000000003
20
-69.0679909999999921
11
232.7277919999999938
21
-69.0092539999999985
0
LINE
8
BLACK
6
CONTINUOUS
10
232.7277919999999938
20
-69.0092539999999985
11
232.8412629999999979
21
-68.9788499999999942
0
LINE
8
BLACK
6
CONTINUOUS
10
232.8412629999999979
20
-68.9788499999999942
11
232.9587369999999851
21
-68.9788499999999942
0
LINE
8
BLACK
6
CONTINUOUS
10
232.9587369999999851
20
-68.9788499999999942
11
233.0722079999999892
21
-69.0092539999999985
  0
ENDSEC
  0
EOF
