%TF.GenerationSoftware,KiCad,Pcbnew,9.0.0*%
%TF.CreationDate,2025-09-05T10:11:35-07:00*%
%TF.ProjectId,grippy,67726970-7079-42e6-9b69-6361645f7063,rev?*%
%TF.SameCoordinates,Original*%
%TF.FileFunction,Soldermask,Top*%
%TF.FilePolarity,Negative*%
%FSLAX46Y46*%
G04 Gerber Fmt 4.6, Leading zero omitted, Abs format (unit mm)*
G04 Created by KiCad (PCBNEW 9.0.0) date 2025-09-05 10:11:35*
%MOMM*%
%LPD*%
G01*
G04 APERTURE LIST*
G04 Aperture macros list*
%AMRoundRect*
0 Rectangle with rounded corners*
0 $1 Rounding radius*
0 $2 $3 $4 $5 $6 $7 $8 $9 X,Y pos of 4 corners*
0 Add a 4 corners polygon primitive as box body*
4,1,4,$2,$3,$4,$5,$6,$7,$8,$9,$2,$3,0*
0 Add four circle primitives for the rounded corners*
1,1,$1+$1,$2,$3*
1,1,$1+$1,$4,$5*
1,1,$1+$1,$6,$7*
1,1,$1+$1,$8,$9*
0 Add four rect primitives between the rounded corners*
20,1,$1+$1,$2,$3,$4,$5,0*
20,1,$1+$1,$4,$5,$6,$7,0*
20,1,$1+$1,$6,$7,$8,$9,0*
20,1,$1+$1,$8,$9,$2,$3,0*%
G04 Aperture macros list end*
%ADD10R,1.550000X1.000000*%
%ADD11C,0.900000*%
%ADD12R,1.400000X2.400000*%
%ADD13R,2.000000X1.600000*%
%ADD14RoundRect,0.150000X-0.700000X0.150000X-0.700000X-0.150000X0.700000X-0.150000X0.700000X0.150000X0*%
%ADD15RoundRect,0.250000X-1.100000X0.250000X-1.100000X-0.250000X1.100000X-0.250000X1.100000X0.250000X0*%
%ADD16RoundRect,0.240000X-1.010000X0.360000X-1.010000X-0.360000X1.010000X-0.360000X1.010000X0.360000X0*%
%ADD17R,2.510000X1.000000*%
%ADD18R,1.000000X1.550000*%
G04 APERTURE END LIST*
D10*
%TO.C,SW1*%
X198775000Y-71650000D03*
X193525000Y-71650000D03*
X198775000Y-69950000D03*
X193525000Y-69950000D03*
D11*
X196150000Y-72175000D03*
X196150000Y-69425000D03*
%TD*%
D10*
%TO.C,SW2*%
X218050000Y-71650000D03*
X212800000Y-71650000D03*
X218050000Y-69950000D03*
X212800000Y-69950000D03*
D11*
X215425000Y-72175000D03*
X215425000Y-69425000D03*
%TD*%
D10*
%TO.C,SW0*%
X181750000Y-71650000D03*
X176500000Y-71650000D03*
X181750000Y-69950000D03*
X176500000Y-69950000D03*
D11*
X179125000Y-72175000D03*
X179125000Y-69425000D03*
%TD*%
D10*
%TO.C,SW3*%
X235050000Y-71650000D03*
X229800000Y-71650000D03*
X235050000Y-69950000D03*
X229800000Y-69950000D03*
D11*
X232425000Y-72175000D03*
X232425000Y-69425000D03*
%TD*%
D12*
%TO.C,U1*%
X229280000Y-94390000D03*
X234360000Y-94390000D03*
D13*
X234200000Y-87020000D03*
X234200000Y-83820000D03*
D12*
X231820000Y-94390000D03*
X229280000Y-76450000D03*
X226740000Y-76450000D03*
X224200000Y-76450000D03*
X221660000Y-76450000D03*
X219120000Y-76450000D03*
X216580000Y-76450000D03*
X214040000Y-76450000D03*
X214040000Y-94390000D03*
X216580000Y-94390000D03*
X219120000Y-94390000D03*
X221660000Y-94390000D03*
X224200000Y-94390000D03*
X226740000Y-94390000D03*
X231820000Y-76450000D03*
X234360000Y-76450000D03*
%TD*%
D14*
%TO.C,BAT1*%
X209250000Y-96625000D03*
X209250000Y-97875000D03*
D15*
X206050000Y-94775000D03*
X206050000Y-99725000D03*
%TD*%
D11*
%TO.C,SW5*%
X174300000Y-89510000D03*
X174300000Y-92510000D03*
D16*
X177050000Y-88510000D03*
X177050000Y-91010000D03*
X177050000Y-93510000D03*
%TD*%
D17*
%TO.C,J1*%
X180440000Y-94395000D03*
X183750000Y-91855000D03*
X180440000Y-89315000D03*
X183750000Y-86775000D03*
X180440000Y-84235000D03*
X183750000Y-81695000D03*
X180440000Y-79155000D03*
X183750000Y-76615000D03*
%TD*%
D11*
%TO.C,SW4*%
X174100000Y-79025000D03*
X176850000Y-79025000D03*
D18*
X174625000Y-81650000D03*
X174625000Y-76400000D03*
X176325000Y-81650000D03*
X176325000Y-76400000D03*
%TD*%
M02*
