%TF.GenerationSoftware,KiCad,Pcbnew,9.0.0*%
%TF.CreationDate,2025-09-03T15:15:46-07:00*%
%TF.ProjectId,grippy,67726970-7079-42e6-9b69-6361645f7063,rev?*%
%TF.SameCoordinates,Original*%
%TF.FileFunction,Paste,Top*%
%TF.FilePolarity,Positive*%
%FSLAX46Y46*%
G04 Gerber Fmt 4.6, Leading zero omitted, Abs format (unit mm)*
G04 Created by KiCad (PCBNEW 9.0.0) date 2025-09-03 15:15:46*
%MOMM*%
%LPD*%
G01*
G04 APERTURE LIST*
G04 Aperture macros list*
%AMRoundRect*
0 Rectangle with rounded corners*
0 $1 Rounding radius*
0 $2 $3 $4 $5 $6 $7 $8 $9 X,Y pos of 4 corners*
0 Add a 4 corners polygon primitive as box body*
4,1,4,$2,$3,$4,$5,$6,$7,$8,$9,$2,$3,0*
0 Add four circle primitives for the rounded corners*
1,1,$1+$1,$2,$3*
1,1,$1+$1,$4,$5*
1,1,$1+$1,$6,$7*
1,1,$1+$1,$8,$9*
0 Add four rect primitives between the rounded corners*
20,1,$1+$1,$2,$3,$4,$5,0*
20,1,$1+$1,$4,$5,$6,$7,0*
20,1,$1+$1,$6,$7,$8,$9,0*
20,1,$1+$1,$8,$9,$2,$3,0*%
G04 Aperture macros list end*
%ADD10R,1.400000X2.400000*%
%ADD11R,2.000000X1.600000*%
%ADD12RoundRect,0.150000X0.388909X-0.601041X0.601041X-0.388909X-0.388909X0.601041X-0.601041X0.388909X0*%
%ADD13RoundRect,0.250000X0.601041X-0.954594X0.954594X-0.601041X-0.601041X0.954594X-0.954594X0.601041X0*%
%ADD14R,1.550000X1.000000*%
%ADD15RoundRect,0.240000X-1.010000X0.360000X-1.010000X-0.360000X1.010000X-0.360000X1.010000X0.360000X0*%
%ADD16R,2.510000X1.000000*%
%ADD17R,1.000000X1.550000*%
G04 APERTURE END LIST*
D10*
%TO.C,U1*%
X229330000Y-95670000D03*
X234410000Y-95670000D03*
D11*
X234250000Y-88300000D03*
X234250000Y-85100000D03*
D10*
X231870000Y-95670000D03*
X229330000Y-77730000D03*
X226790000Y-77730000D03*
X224250000Y-77730000D03*
X221710000Y-77730000D03*
X219170000Y-77730000D03*
X216630000Y-77730000D03*
X214090000Y-77730000D03*
X214090000Y-95670000D03*
X216630000Y-95670000D03*
X219170000Y-95670000D03*
X221710000Y-95670000D03*
X224250000Y-95670000D03*
X226790000Y-95670000D03*
X231870000Y-77730000D03*
X234410000Y-77730000D03*
%TD*%
D12*
%TO.C,BAT1*%
X175345228Y-97883794D03*
X176229111Y-96999911D03*
D13*
X176299822Y-101454683D03*
X179800000Y-97954505D03*
%TD*%
D14*
%TO.C,SW3*%
X230275000Y-69950000D03*
X235525000Y-69950000D03*
X230275000Y-71650000D03*
X235525000Y-71650000D03*
%TD*%
%TO.C,SW0*%
X176975000Y-69950000D03*
X182225000Y-69950000D03*
X176975000Y-71650000D03*
X182225000Y-71650000D03*
%TD*%
D15*
%TO.C,SW5*%
X177050000Y-86300000D03*
X177050000Y-88800000D03*
X177050000Y-91300000D03*
%TD*%
D16*
%TO.C,J1*%
X181300000Y-95045000D03*
X184610000Y-92505000D03*
X181300000Y-89965000D03*
X184610000Y-87425000D03*
X181300000Y-84885000D03*
X184610000Y-82345000D03*
X181300000Y-79805000D03*
X184610000Y-77265000D03*
%TD*%
D14*
%TO.C,SW2*%
X213275000Y-69950000D03*
X218525000Y-69950000D03*
X213275000Y-71650000D03*
X218525000Y-71650000D03*
%TD*%
%TO.C,SW1*%
X194000000Y-69950000D03*
X199250000Y-69950000D03*
X194000000Y-71650000D03*
X199250000Y-71650000D03*
%TD*%
D17*
%TO.C,SW4*%
X174625000Y-81650000D03*
X174625000Y-76400000D03*
X176325000Y-81650000D03*
X176325000Y-76400000D03*
%TD*%
M02*
