  0
SECTION
  2
HEADER
  9
$ANGBASE
  50
0.0
  9
$ANGDIR
  70
1
  9
$MEASUREMENT
  70
1
  0
ENDSEC
  0
SECTION
  2
TABLES
  0
TABLE
  2
LTYPE
  70
4
  0
LTYPE
  5
40F
  2
CONTINUOUS
  70
0
  3
Solid line
  72
65
  73
0
  40
0.0
  0
LTYPE
  5
410
  2
DASHDOT
 70
0
  3
Dash Dot ____ _ ____ _
 72
65
 73
4
 40
2.0
 49
1.25
 49
-0.25
 49
0.25
 49
-0.25
  0
LTYPE
  5
411
  2
DASHED
 70
0
  3
Dashed __ __ __ __ __
 72
65
 73
2
 40
0.75
 49
0.5
 49
-0.25
  0
LTYPE
  5
43B
  2
DOTTED
 70
0
  3
Dotted .  .  .  .
 72
65
 73
2
 40
0.2
 49
0.0
 49
-0.2
  0
ENDTAB
  0
TABLE
  2
STYLE
  70
4
  0
STYLE
  2
KICAD
  70
0
  40
0
  41
1
  42
1
  50
0
  71
0
  3
isocp.shx
  0
STYLE
  2
KICADB
  70
0
  40
0
  41
1
  42
1
  50
0
  71
0
  3
isocp.shx
  0
STYLE
  2
KICADI
  70
0
  40
0
  41
1
  42
1
  50
15
  71
0
  3
isocp.shx
  0
STYLE
  2
KICADBI
  70
0
  40
0
  41
1
  42
1
  50
15
  71
0
  3
isocp.shx
  0
ENDTAB
  0
TABLE
  2
LAYER
  70
1
  0
LAYER
  2
BLACK
  70
0
  62
7
  6
CONTINUOUS
  0
ENDTAB
  0
ENDSEC
  0
SECTION
  2
ENTITIES
0
LINE
8
BLACK
6
CONTINUOUS
10
179.5492239999999811
20
-96.4692079999999947
11
179.6303299999999865
21
-96.5234009999999927
0
LINE
8
BLACK
6
CONTINUOUS
10
179.6303299999999865
20
-96.5234009999999927
11
181.1859649999999817
21
-98.0790360000000021
0
LINE
8
BLACK
6
CONTINUOUS
10
181.1859649999999817
20
-98.0790360000000021
11
181.2401579999999797
21
-98.1601419999999933
0
LINE
8
BLACK
6
CONTINUOUS
10
181.2401579999999797
20
-98.1601419999999933
11
181.2591889999999921
21
-98.2558129999999892
0
LINE
8
BLACK
6
CONTINUOUS
10
181.2591889999999921
20
-98.2558129999999892
11
181.2401579999999797
21
-98.3514839999999992
0
LINE
8
BLACK
6
CONTINUOUS
10
181.2401579999999797
20
-98.3514839999999992
11
181.1859649999999817
21
-98.432588999999993
0
LINE
8
BLACK
6
CONTINUOUS
10
181.1859649999999817
20
-98.432588999999993
11
180.8324109999999791
21
-98.7861429999999956
0
LINE
8
BLACK
6
CONTINUOUS
10
180.8324109999999791
20
-98.7861429999999956
11
180.7513059999999996
21
-98.8403359999999935
0
LINE
8
BLACK
6
CONTINUOUS
10
180.7513059999999996
20
-98.8403359999999935
11
180.6556349999999895
21
-98.8593669999999918
0
LINE
8
BLACK
6
CONTINUOUS
10
180.6556349999999895
20
-98.8593669999999918
11
180.5599639999999795
21
-98.8403359999999935
0
LINE
8
BLACK
6
CONTINUOUS
10
180.5599639999999795
20
-98.8403359999999935
11
180.4788580000000024
21
-98.7861429999999956
0
LINE
8
BLACK
6
CONTINUOUS
10
180.4788580000000024
20
-98.7861429999999956
11
178.9232229999999788
21
-97.2305080000000004
0
LINE
8
BLACK
6
CONTINUOUS
10
178.9232229999999788
20
-97.2305080000000004
11
178.8690299999999809
21
-97.1494019999999949
0
LINE
8
BLACK
6
CONTINUOUS
10
178.8690299999999809
20
-97.1494019999999949
11
178.8499989999999968
21
-97.0537309999999991
0
LINE
8
BLACK
6
CONTINUOUS
10
178.8499989999999968
20
-97.0537309999999991
11
178.8690299999999809
21
-96.958059999999989
0
LINE
8
BLACK
6
CONTINUOUS
10
178.8690299999999809
20
-96.958059999999989
11
178.9232229999999788
21
-96.8769549999999953
0
LINE
8
BLACK
6
CONTINUOUS
10
178.9232229999999788
20
-96.8769549999999953
11
179.2767769999999814
21
-96.5234009999999927
0
LINE
8
BLACK
6
CONTINUOUS
10
179.2767769999999814
20
-96.5234009999999927
11
179.3578819999999894
21
-96.4692079999999947
0
LINE
8
BLACK
6
CONTINUOUS
10
179.3578819999999894
20
-96.4692079999999947
11
179.4535529999999994
21
-96.4501769999999965
0
LINE
8
BLACK
6
CONTINUOUS
10
179.4535529999999994
20
-96.4501769999999965
11
179.5492239999999811
21
-96.4692079999999947
0
LINE
8
BLACK
6
CONTINUOUS
10
214.7399999999999807
20
-95.5899999999999892
11
213.3400000000000034
21
-95.5899999999999892
0
LINE
8
BLACK
6
CONTINUOUS
10
213.3400000000000034
20
-95.5899999999999892
11
213.3400000000000034
21
-93.1899999999999977
0
LINE
8
BLACK
6
CONTINUOUS
10
213.3400000000000034
20
-93.1899999999999977
11
214.7399999999999807
21
-93.1899999999999977
0
LINE
8
BLACK
6
CONTINUOUS
10
214.7399999999999807
20
-93.1899999999999977
11
214.7399999999999807
21
-95.5899999999999892
0
LINE
8
BLACK
6
CONTINUOUS
10
217.2800000000000011
20
-95.5899999999999892
11
215.8799999999999955
21
-95.5899999999999892
0
LINE
8
BLACK
6
CONTINUOUS
10
215.8799999999999955
20
-95.5899999999999892
11
215.8799999999999955
21
-93.1899999999999977
0
LINE
8
BLACK
6
CONTINUOUS
10
215.8799999999999955
20
-93.1899999999999977
11
217.2800000000000011
21
-93.1899999999999977
0
LINE
8
BLACK
6
CONTINUOUS
10
217.2800000000000011
20
-93.1899999999999977
11
217.2800000000000011
21
-95.5899999999999892
0
LINE
8
BLACK
6
CONTINUOUS
10
219.8199999999999932
20
-95.5899999999999892
11
218.4199999999999875
21
-95.5899999999999892
0
LINE
8
BLACK
6
CONTINUOUS
10
218.4199999999999875
20
-95.5899999999999892
11
218.4199999999999875
21
-93.1899999999999977
0
LINE
8
BLACK
6
CONTINUOUS
10
218.4199999999999875
20
-93.1899999999999977
11
219.8199999999999932
21
-93.1899999999999977
0
LINE
8
BLACK
6
CONTINUOUS
10
219.8199999999999932
20
-93.1899999999999977
11
219.8199999999999932
21
-95.5899999999999892
0
LINE
8
BLACK
6
CONTINUOUS
10
222.3599999999999852
20
-95.5899999999999892
11
220.9599999999999795
21
-95.5899999999999892
0
LINE
8
BLACK
6
CONTINUOUS
10
220.9599999999999795
20
-95.5899999999999892
11
220.9599999999999795
21
-93.1899999999999977
0
LINE
8
BLACK
6
CONTINUOUS
10
220.9599999999999795
20
-93.1899999999999977
11
222.3599999999999852
21
-93.1899999999999977
0
LINE
8
BLACK
6
CONTINUOUS
10
222.3599999999999852
20
-93.1899999999999977
11
222.3599999999999852
21
-95.5899999999999892
0
LINE
8
BLACK
6
CONTINUOUS
10
224.8999999999999773
20
-95.5899999999999892
11
223.5
21
-95.5899999999999892
0
LINE
8
BLACK
6
CONTINUOUS
10
223.5
20
-95.5899999999999892
11
223.5
21
-93.1899999999999977
0
LINE
8
BLACK
6
CONTINUOUS
10
223.5
20
-93.1899999999999977
11
224.8999999999999773
21
-93.1899999999999977
0
LINE
8
BLACK
6
CONTINUOUS
10
224.8999999999999773
20
-93.1899999999999977
11
224.8999999999999773
21
-95.5899999999999892
0
LINE
8
BLACK
6
CONTINUOUS
10
227.4399999999999977
20
-95.5899999999999892
11
226.039999999999992
21
-95.5899999999999892
0
LINE
8
BLACK
6
CONTINUOUS
10
226.039999999999992
20
-95.5899999999999892
11
226.039999999999992
21
-93.1899999999999977
0
LINE
8
BLACK
6
CONTINUOUS
10
226.039999999999992
20
-93.1899999999999977
11
227.4399999999999977
21
-93.1899999999999977
0
LINE
8
BLACK
6
CONTINUOUS
10
227.4399999999999977
20
-93.1899999999999977
11
227.4399999999999977
21
-95.5899999999999892
0
LINE
8
BLACK
6
CONTINUOUS
10
229.9799999999999898
20
-95.5899999999999892
11
228.5799999999999841
21
-95.5899999999999892
0
LINE
8
BLACK
6
CONTINUOUS
10
228.5799999999999841
20
-95.5899999999999892
11
228.5799999999999841
21
-93.1899999999999977
0
LINE
8
BLACK
6
CONTINUOUS
10
228.5799999999999841
20
-93.1899999999999977
11
229.9799999999999898
21
-93.1899999999999977
0
LINE
8
BLACK
6
CONTINUOUS
10
229.9799999999999898
20
-93.1899999999999977
11
229.9799999999999898
21
-95.5899999999999892
0
LINE
8
BLACK
6
CONTINUOUS
10
232.5199999999999818
20
-95.5899999999999892
11
231.1199999999999761
21
-95.5899999999999892
0
LINE
8
BLACK
6
CONTINUOUS
10
231.1199999999999761
20
-95.5899999999999892
11
231.1199999999999761
21
-93.1899999999999977
0
LINE
8
BLACK
6
CONTINUOUS
10
231.1199999999999761
20
-93.1899999999999977
11
232.5199999999999818
21
-93.1899999999999977
0
LINE
8
BLACK
6
CONTINUOUS
10
232.5199999999999818
20
-93.1899999999999977
11
232.5199999999999818
21
-95.5899999999999892
0
LINE
8
BLACK
6
CONTINUOUS
10
235.0600000000000023
20
-95.5899999999999892
11
233.6599999999999966
21
-95.5899999999999892
0
LINE
8
BLACK
6
CONTINUOUS
10
233.6599999999999966
20
-95.5899999999999892
11
233.6599999999999966
21
-93.1899999999999977
0
LINE
8
BLACK
6
CONTINUOUS
10
233.6599999999999966
20
-93.1899999999999977
11
235.0600000000000023
21
-93.1899999999999977
0
LINE
8
BLACK
6
CONTINUOUS
10
235.0600000000000023
20
-93.1899999999999977
11
235.0600000000000023
21
-95.5899999999999892
0
LINE
8
BLACK
6
CONTINUOUS
10
183.0494019999999864
20
-92.9690299999999894
11
183.1305079999999919
21
-93.0232230000000015
0
LINE
8
BLACK
6
CONTINUOUS
10
183.1305079999999919
20
-93.0232230000000015
11
184.6861429999999871
21
-94.5788579999999968
0
LINE
8
BLACK
6
CONTINUOUS
10
184.6861429999999871
20
-94.5788579999999968
11
184.740335999999985
21
-94.6599640000000022
0
LINE
8
BLACK
6
CONTINUOUS
10
184.740335999999985
20
-94.6599640000000022
11
184.7593669999999975
21
-94.7556349999999981
0
LINE
8
BLACK
6
CONTINUOUS
10
184.7593669999999975
20
-94.7556349999999981
11
184.740335999999985
21
-94.8513059999999939
0
LINE
8
BLACK
6
CONTINUOUS
10
184.740335999999985
20
-94.8513059999999939
11
184.6861429999999871
21
-94.9324110000000019
0
LINE
8
BLACK
6
CONTINUOUS
10
184.6861429999999871
20
-94.9324110000000019
11
184.3325889999999845
21
-95.2859649999999903
0
LINE
8
BLACK
6
CONTINUOUS
10
184.3325889999999845
20
-95.2859649999999903
11
184.2514840000000049
21
-95.3401580000000024
0
LINE
8
BLACK
6
CONTINUOUS
10
184.2514840000000049
20
-95.3401580000000024
11
184.1558129999999949
21
-95.3591890000000006
0
LINE
8
BLACK
6
CONTINUOUS
10
184.1558129999999949
20
-95.3591890000000006
11
184.0601419999999848
21
-95.3401580000000024
0
LINE
8
BLACK
6
CONTINUOUS
10
184.0601419999999848
20
-95.3401580000000024
11
183.9790359999999794
21
-95.2859649999999903
0
LINE
8
BLACK
6
CONTINUOUS
10
183.9790359999999794
20
-95.2859649999999903
11
182.4234009999999842
21
-93.730329999999995
0
LINE
8
BLACK
6
CONTINUOUS
10
182.4234009999999842
20
-93.730329999999995
11
182.3692079999999862
21
-93.6492239999999896
0
LINE
8
BLACK
6
CONTINUOUS
10
182.3692079999999862
20
-93.6492239999999896
11
182.3501770000000022
21
-93.5535529999999937
0
LINE
8
BLACK
6
CONTINUOUS
10
182.3501770000000022
20
-93.5535529999999937
11
182.3692079999999862
21
-93.4578819999999979
0
LINE
8
BLACK
6
CONTINUOUS
10
182.3692079999999862
20
-93.4578819999999979
11
182.4234009999999842
21
-93.3767769999999899
0
LINE
8
BLACK
6
CONTINUOUS
10
182.4234009999999842
20
-93.3767769999999899
11
182.7769549999999867
21
-93.0232230000000015
0
LINE
8
BLACK
6
CONTINUOUS
10
182.7769549999999867
20
-93.0232230000000015
11
182.8580599999999947
21
-92.9690299999999894
0
LINE
8
BLACK
6
CONTINUOUS
10
182.8580599999999947
20
-92.9690299999999894
11
182.9537310000000048
21
-92.9499989999999912
0
LINE
8
BLACK
6
CONTINUOUS
10
182.9537310000000048
20
-92.9499989999999912
11
183.0494019999999864
21
-92.9690299999999894
0
LINE
8
BLACK
6
CONTINUOUS
10
189.2099999999999795
20
-94.894999999999996
11
186.6999999999999886
21
-94.894999999999996
0
LINE
8
BLACK
6
CONTINUOUS
10
186.6999999999999886
20
-94.894999999999996
11
186.6999999999999886
21
-93.894999999999996
0
LINE
8
BLACK
6
CONTINUOUS
10
186.6999999999999886
20
-93.894999999999996
11
189.2099999999999795
21
-93.894999999999996
0
LINE
8
BLACK
6
CONTINUOUS
10
189.2099999999999795
20
-93.894999999999996
11
189.2099999999999795
21
-94.894999999999996
0
LINE
8
BLACK
6
CONTINUOUS
10
178.7684929999999781
20
-93.3442599999999914
11
178.8171569999999804
21
-93.3767759999999925
0
LINE
8
BLACK
6
CONTINUOUS
10
178.8171569999999804
20
-93.3767759999999925
11
179.807107000000002
21
-94.3667259999999999
0
LINE
8
BLACK
6
CONTINUOUS
10
179.807107000000002
20
-94.3667259999999999
11
179.8396229999999889
21
-94.4153900000000021
0
LINE
8
BLACK
6
CONTINUOUS
10
179.8396229999999889
20
-94.4153900000000021
11
179.8510409999999808
21
-94.4727919999999983
0
LINE
8
BLACK
6
CONTINUOUS
10
179.8510409999999808
20
-94.4727919999999983
11
179.8396229999999889
21
-94.5301939999999945
0
LINE
8
BLACK
6
CONTINUOUS
10
179.8396229999999889
20
-94.5301939999999945
11
179.807107000000002
21
-94.5788579999999968
0
LINE
8
BLACK
6
CONTINUOUS
10
179.807107000000002
20
-94.5788579999999968
11
179.5949750000000051
21
-94.7909899999999936
0
LINE
8
BLACK
6
CONTINUOUS
10
179.5949750000000051
20
-94.7909899999999936
11
179.5463110000000029
21
-94.8235059999999947
0
LINE
8
BLACK
6
CONTINUOUS
10
179.5463110000000029
20
-94.8235059999999947
11
179.4889089999999783
21
-94.8349240000000009
0
LINE
8
BLACK
6
CONTINUOUS
10
179.4889089999999783
20
-94.8349240000000009
11
179.4315069999999821
21
-94.8235059999999947
0
LINE
8
BLACK
6
CONTINUOUS
10
179.4315069999999821
20
-94.8235059999999947
11
179.3828429999999798
21
-94.7909899999999936
0
LINE
8
BLACK
6
CONTINUOUS
10
179.3828429999999798
20
-94.7909899999999936
11
178.3928929999999866
21
-93.8010400000000004
0
LINE
8
BLACK
6
CONTINUOUS
10
178.3928929999999866
20
-93.8010400000000004
11
178.3603769999999997
21
-93.7523759999999982
0
LINE
8
BLACK
6
CONTINUOUS
10
178.3603769999999997
20
-93.7523759999999982
11
178.3489589999999794
21
-93.694974000000002
0
LINE
8
BLACK
6
CONTINUOUS
10
178.3489589999999794
20
-93.694974000000002
11
178.3603769999999997
21
-93.6375719999999916
0
LINE
8
BLACK
6
CONTINUOUS
10
178.3603769999999997
20
-93.6375719999999916
11
178.3928929999999866
21
-93.5889079999999893
0
LINE
8
BLACK
6
CONTINUOUS
10
178.3928929999999866
20
-93.5889079999999893
11
178.6050249999999835
21
-93.3767759999999925
0
LINE
8
BLACK
6
CONTINUOUS
10
178.6050249999999835
20
-93.3767759999999925
11
178.6536889999999858
21
-93.3442599999999914
0
LINE
8
BLACK
6
CONTINUOUS
10
178.6536889999999858
20
-93.3442599999999914
11
178.7110909999999819
21
-93.3328419999999994
0
LINE
8
BLACK
6
CONTINUOUS
10
178.7110909999999819
20
-93.3328419999999994
11
178.7684929999999781
21
-93.3442599999999914
0
LINE
8
BLACK
6
CONTINUOUS
10
179.6523760000000038
20
-92.460376999999994
11
179.7010399999999777
21
-92.4928929999999951
0
LINE
8
BLACK
6
CONTINUOUS
10
179.7010399999999777
20
-92.4928929999999951
11
180.6909899999999993
21
-93.4828430000000026
0
LINE
8
BLACK
6
CONTINUOUS
10
180.6909899999999993
20
-93.4828430000000026
11
180.7235059999999862
21
-93.5315069999999906
0
LINE
8
BLACK
6
CONTINUOUS
10
180.7235059999999862
20
-93.5315069999999906
11
180.7349239999999782
21
-93.588909000000001
0
LINE
8
BLACK
6
CONTINUOUS
10
180.7349239999999782
20
-93.588909000000001
11
180.7235059999999862
21
-93.6463109999999972
0
LINE
8
BLACK
6
CONTINUOUS
10
180.7235059999999862
20
-93.6463109999999972
11
180.6909899999999993
21
-93.6949749999999995
0
LINE
8
BLACK
6
CONTINUOUS
10
180.6909899999999993
20
-93.6949749999999995
11
180.4788580000000024
21
-93.9071069999999963
0
LINE
8
BLACK
6
CONTINUOUS
10
180.4788580000000024
20
-93.9071069999999963
11
180.4301940000000002
21
-93.9396229999999974
0
LINE
8
BLACK
6
CONTINUOUS
10
180.4301940000000002
20
-93.9396229999999974
11
180.372792000000004
21
-93.9510409999999894
0
LINE
8
BLACK
6
CONTINUOUS
10
180.372792000000004
20
-93.9510409999999894
11
180.3153899999999794
21
-93.9396229999999974
0
LINE
8
BLACK
6
CONTINUOUS
10
180.3153899999999794
20
-93.9396229999999974
11
180.2667260000000056
21
-93.9071069999999963
0
LINE
8
BLACK
6
CONTINUOUS
10
180.2667260000000056
20
-93.9071069999999963
11
179.2767759999999839
21
-92.9171569999999889
0
LINE
8
BLACK
6
CONTINUOUS
10
179.2767759999999839
20
-92.9171569999999889
11
179.244259999999997
21
-92.8684930000000008
0
LINE
8
BLACK
6
CONTINUOUS
10
179.244259999999997
20
-92.8684930000000008
11
179.2328420000000051
21
-92.8110909999999905
0
LINE
8
BLACK
6
CONTINUOUS
10
179.2328420000000051
20
-92.8110909999999905
11
179.244259999999997
21
-92.7536889999999943
0
LINE
8
BLACK
6
CONTINUOUS
10
179.244259999999997
20
-92.7536889999999943
11
179.2767759999999839
21
-92.705024999999992
0
LINE
8
BLACK
6
CONTINUOUS
10
179.2767759999999839
20
-92.705024999999992
11
179.4889079999999808
21
-92.4928929999999951
0
LINE
8
BLACK
6
CONTINUOUS
10
179.4889079999999808
20
-92.4928929999999951
11
179.5375719999999831
21
-92.460376999999994
0
LINE
8
BLACK
6
CONTINUOUS
10
179.5375719999999831
20
-92.460376999999994
11
179.5949739999999792
21
-92.4489590000000021
0
LINE
8
BLACK
6
CONTINUOUS
10
179.5949739999999792
20
-92.4489590000000021
11
179.6523760000000038
21
-92.460376999999994
0
LINE
8
BLACK
6
CONTINUOUS
10
192.5199999999999818
20
-92.3549999999999898
11
190.0099999999999909
21
-92.3549999999999898
0
LINE
8
BLACK
6
CONTINUOUS
10
190.0099999999999909
20
-92.3549999999999898
11
190.0099999999999909
21
-91.3549999999999898
0
LINE
8
BLACK
6
CONTINUOUS
10
190.0099999999999909
20
-91.3549999999999898
11
192.5199999999999818
21
-91.3549999999999898
0
LINE
8
BLACK
6
CONTINUOUS
10
192.5199999999999818
20
-91.3549999999999898
11
192.5199999999999818
21
-92.3549999999999898
0
LINE
8
BLACK
6
CONTINUOUS
10
189.2099999999999795
20
-89.8149999999999977
11
186.6999999999999886
21
-89.8149999999999977
0
LINE
8
BLACK
6
CONTINUOUS
10
186.6999999999999886
20
-89.8149999999999977
11
186.6999999999999886
21
-88.8149999999999977
0
LINE
8
BLACK
6
CONTINUOUS
10
186.6999999999999886
20
-88.8149999999999977
11
189.2099999999999795
21
-88.8149999999999977
0
LINE
8
BLACK
6
CONTINUOUS
10
189.2099999999999795
20
-88.8149999999999977
11
189.2099999999999795
21
-89.8149999999999977
0
LINE
8
BLACK
6
CONTINUOUS
10
181.8518439999999998
20
-87.618268999999998
11
181.9297059999999817
21
-87.6702939999999984
0
LINE
8
BLACK
6
CONTINUOUS
10
181.9297059999999817
20
-87.6702939999999984
11
181.9817309999999964
21
-87.7481559999999945
0
LINE
8
BLACK
6
CONTINUOUS
10
181.9817309999999964
20
-87.7481559999999945
11
182.
21
-87.8399999999999892
0
LINE
8
BLACK
6
CONTINUOUS
10
182.
20
-87.8399999999999892
11
182.
21
-88.5600000000000023
0
LINE
8
BLACK
6
CONTINUOUS
10
182.
20
-88.5600000000000023
11
181.9817309999999964
21
-88.651843999999997
0
LINE
8
BLACK
6
CONTINUOUS
10
181.9817309999999964
20
-88.651843999999997
11
181.9297059999999817
21
-88.7297059999999931
0
LINE
8
BLACK
6
CONTINUOUS
10
181.9297059999999817
20
-88.7297059999999931
11
181.8518439999999998
21
-88.7817309999999935
0
LINE
8
BLACK
6
CONTINUOUS
10
181.8518439999999998
20
-88.7817309999999935
11
181.7599999999999909
21
-88.7999999999999972
0
LINE
8
BLACK
6
CONTINUOUS
10
181.7599999999999909
20
-88.7999999999999972
11
179.7399999999999807
21
-88.7999999999999972
0
LINE
8
BLACK
6
CONTINUOUS
10
179.7399999999999807
20
-88.7999999999999972
11
179.6481560000000002
21
-88.7817309999999935
0
LINE
8
BLACK
6
CONTINUOUS
10
179.6481560000000002
20
-88.7817309999999935
11
179.5702939999999899
21
-88.7297059999999931
0
LINE
8
BLACK
6
CONTINUOUS
10
179.5702939999999899
20
-88.7297059999999931
11
179.5182690000000036
21
-88.651843999999997
0
LINE
8
BLACK
6
CONTINUOUS
10
179.5182690000000036
20
-88.651843999999997
11
179.5
21
-88.5600000000000023
0
LINE
8
BLACK
6
CONTINUOUS
10
179.5
20
-88.5600000000000023
11
179.5
21
-87.8399999999999892
0
LINE
8
BLACK
6
CONTINUOUS
10
179.5
20
-87.8399999999999892
11
179.5182690000000036
21
-87.7481559999999945
0
LINE
8
BLACK
6
CONTINUOUS
10
179.5182690000000036
20
-87.7481559999999945
11
179.5702939999999899
21
-87.6702939999999984
0
LINE
8
BLACK
6
CONTINUOUS
10
179.5702939999999899
20
-87.6702939999999984
11
179.6481560000000002
21
-87.618268999999998
0
LINE
8
BLACK
6
CONTINUOUS
10
179.6481560000000002
20
-87.618268999999998
11
179.7399999999999807
21
-87.5999999999999943
0
LINE
8
BLACK
6
CONTINUOUS
10
179.7399999999999807
20
-87.5999999999999943
11
181.7599999999999909
21
-87.5999999999999943
0
LINE
8
BLACK
6
CONTINUOUS
10
181.7599999999999909
20
-87.5999999999999943
11
181.8518439999999998
21
-87.618268999999998
0
LINE
8
BLACK
6
CONTINUOUS
10
235.1999999999999886
20
-87.8199999999999932
11
233.1999999999999886
21
-87.8199999999999932
0
LINE
8
BLACK
6
CONTINUOUS
10
233.1999999999999886
20
-87.8199999999999932
11
233.1999999999999886
21
-86.2199999999999989
0
LINE
8
BLACK
6
CONTINUOUS
10
233.1999999999999886
20
-86.2199999999999989
11
235.1999999999999886
21
-86.2199999999999989
0
LINE
8
BLACK
6
CONTINUOUS
10
235.1999999999999886
20
-86.2199999999999989
11
235.1999999999999886
21
-87.8199999999999932
0
LINE
8
BLACK
6
CONTINUOUS
10
192.5199999999999818
20
-87.2749999999999915
11
190.0099999999999909
21
-87.2749999999999915
0
LINE
8
BLACK
6
CONTINUOUS
10
190.0099999999999909
20
-87.2749999999999915
11
190.0099999999999909
21
-86.2749999999999915
0
LINE
8
BLACK
6
CONTINUOUS
10
190.0099999999999909
20
-86.2749999999999915
11
192.5199999999999818
21
-86.2749999999999915
0
LINE
8
BLACK
6
CONTINUOUS
10
192.5199999999999818
20
-86.2749999999999915
11
192.5199999999999818
21
-87.2749999999999915
0
LINE
8
BLACK
6
CONTINUOUS
10
181.8518439999999998
20
-85.118268999999998
11
181.9297059999999817
21
-85.1702939999999984
0
LINE
8
BLACK
6
CONTINUOUS
10
181.9297059999999817
20
-85.1702939999999984
11
181.9817309999999964
21
-85.2481559999999945
0
LINE
8
BLACK
6
CONTINUOUS
10
181.9817309999999964
20
-85.2481559999999945
11
182.
21
-85.3399999999999892
0
LINE
8
BLACK
6
CONTINUOUS
10
182.
20
-85.3399999999999892
11
182.
21
-86.0600000000000023
0
LINE
8
BLACK
6
CONTINUOUS
10
182.
20
-86.0600000000000023
11
181.9817309999999964
21
-86.151843999999997
0
LINE
8
BLACK
6
CONTINUOUS
10
181.9817309999999964
20
-86.151843999999997
11
181.9297059999999817
21
-86.2297059999999931
0
LINE
8
BLACK
6
CONTINUOUS
10
181.9297059999999817
20
-86.2297059999999931
11
181.8518439999999998
21
-86.2817309999999935
0
LINE
8
BLACK
6
CONTINUOUS
10
181.8518439999999998
20
-86.2817309999999935
11
181.7599999999999909
21
-86.2999999999999972
0
LINE
8
BLACK
6
CONTINUOUS
10
181.7599999999999909
20
-86.2999999999999972
11
179.7399999999999807
21
-86.2999999999999972
0
LINE
8
BLACK
6
CONTINUOUS
10
179.7399999999999807
20
-86.2999999999999972
11
179.6481560000000002
21
-86.2817309999999935
0
LINE
8
BLACK
6
CONTINUOUS
10
179.6481560000000002
20
-86.2817309999999935
11
179.5702939999999899
21
-86.2297059999999931
0
LINE
8
BLACK
6
CONTINUOUS
10
179.5702939999999899
20
-86.2297059999999931
11
179.5182690000000036
21
-86.151843999999997
0
LINE
8
BLACK
6
CONTINUOUS
10
179.5182690000000036
20
-86.151843999999997
11
179.5
21
-86.0600000000000023
0
LINE
8
BLACK
6
CONTINUOUS
10
179.5
20
-86.0600000000000023
11
179.5
21
-85.3399999999999892
0
LINE
8
BLACK
6
CONTINUOUS
10
179.5
20
-85.3399999999999892
11
179.5182690000000036
21
-85.2481559999999945
0
LINE
8
BLACK
6
CONTINUOUS
10
179.5182690000000036
20
-85.2481559999999945
11
179.5702939999999899
21
-85.1702939999999984
0
LINE
8
BLACK
6
CONTINUOUS
10
179.5702939999999899
20
-85.1702939999999984
11
179.6481560000000002
21
-85.118268999999998
0
LINE
8
BLACK
6
CONTINUOUS
10
179.6481560000000002
20
-85.118268999999998
11
179.7399999999999807
21
-85.0999999999999943
0
LINE
8
BLACK
6
CONTINUOUS
10
179.7399999999999807
20
-85.0999999999999943
11
181.7599999999999909
21
-85.0999999999999943
0
LINE
8
BLACK
6
CONTINUOUS
10
181.7599999999999909
20
-85.0999999999999943
11
181.8518439999999998
21
-85.118268999999998
0
LINE
8
BLACK
6
CONTINUOUS
10
189.2099999999999795
20
-84.7349999999999994
11
186.6999999999999886
21
-84.7349999999999994
0
LINE
8
BLACK
6
CONTINUOUS
10
186.6999999999999886
20
-84.7349999999999994
11
186.6999999999999886
21
-83.7349999999999994
0
LINE
8
BLACK
6
CONTINUOUS
10
186.6999999999999886
20
-83.7349999999999994
11
189.2099999999999795
21
-83.7349999999999994
0
LINE
8
BLACK
6
CONTINUOUS
10
189.2099999999999795
20
-83.7349999999999994
11
189.2099999999999795
21
-84.7349999999999994
0
LINE
8
BLACK
6
CONTINUOUS
10
235.1999999999999886
20
-84.6199999999999903
11
233.1999999999999886
21
-84.6199999999999903
0
LINE
8
BLACK
6
CONTINUOUS
10
233.1999999999999886
20
-84.6199999999999903
11
233.1999999999999886
21
-83.019999999999996
0
LINE
8
BLACK
6
CONTINUOUS
10
233.1999999999999886
20
-83.019999999999996
11
235.1999999999999886
21
-83.019999999999996
0
LINE
8
BLACK
6
CONTINUOUS
10
235.1999999999999886
20
-83.019999999999996
11
235.1999999999999886
21
-84.6199999999999903
0
LINE
8
BLACK
6
CONTINUOUS
10
181.8518439999999998
20
-82.618268999999998
11
181.9297059999999817
21
-82.6702939999999984
0
LINE
8
BLACK
6
CONTINUOUS
10
181.9297059999999817
20
-82.6702939999999984
11
181.9817309999999964
21
-82.7481559999999945
0
LINE
8
BLACK
6
CONTINUOUS
10
181.9817309999999964
20
-82.7481559999999945
11
182.
21
-82.8399999999999892
0
LINE
8
BLACK
6
CONTINUOUS
10
182.
20
-82.8399999999999892
11
182.
21
-83.5600000000000023
0
LINE
8
BLACK
6
CONTINUOUS
10
182.
20
-83.5600000000000023
11
181.9817309999999964
21
-83.651843999999997
0
LINE
8
BLACK
6
CONTINUOUS
10
181.9817309999999964
20
-83.651843999999997
11
181.9297059999999817
21
-83.7297059999999931
0
LINE
8
BLACK
6
CONTINUOUS
10
181.9297059999999817
20
-83.7297059999999931
11
181.8518439999999998
21
-83.7817309999999935
0
LINE
8
BLACK
6
CONTINUOUS
10
181.8518439999999998
20
-83.7817309999999935
11
181.7599999999999909
21
-83.7999999999999972
0
LINE
8
BLACK
6
CONTINUOUS
10
181.7599999999999909
20
-83.7999999999999972
11
179.7399999999999807
21
-83.7999999999999972
0
LINE
8
BLACK
6
CONTINUOUS
10
179.7399999999999807
20
-83.7999999999999972
11
179.6481560000000002
21
-83.7817309999999935
0
LINE
8
BLACK
6
CONTINUOUS
10
179.6481560000000002
20
-83.7817309999999935
11
179.5702939999999899
21
-83.7297059999999931
0
LINE
8
BLACK
6
CONTINUOUS
10
179.5702939999999899
20
-83.7297059999999931
11
179.5182690000000036
21
-83.651843999999997
0
LINE
8
BLACK
6
CONTINUOUS
10
179.5182690000000036
20
-83.651843999999997
11
179.5
21
-83.5600000000000023
0
LINE
8
BLACK
6
CONTINUOUS
10
179.5
20
-83.5600000000000023
11
179.5
21
-82.8399999999999892
0
LINE
8
BLACK
6
CONTINUOUS
10
179.5
20
-82.8399999999999892
11
179.5182690000000036
21
-82.7481559999999945
0
LINE
8
BLACK
6
CONTINUOUS
10
179.5182690000000036
20
-82.7481559999999945
11
179.5702939999999899
21
-82.6702939999999984
0
LINE
8
BLACK
6
CONTINUOUS
10
179.5702939999999899
20
-82.6702939999999984
11
179.6481560000000002
21
-82.618268999999998
0
LINE
8
BLACK
6
CONTINUOUS
10
179.6481560000000002
20
-82.618268999999998
11
179.7399999999999807
21
-82.5999999999999943
0
LINE
8
BLACK
6
CONTINUOUS
10
179.7399999999999807
20
-82.5999999999999943
11
181.7599999999999909
21
-82.5999999999999943
0
LINE
8
BLACK
6
CONTINUOUS
10
181.7599999999999909
20
-82.5999999999999943
11
181.8518439999999998
21
-82.618268999999998
0
LINE
8
BLACK
6
CONTINUOUS
10
192.5199999999999818
20
-82.1949999999999932
11
190.0099999999999909
21
-82.1949999999999932
0
LINE
8
BLACK
6
CONTINUOUS
10
190.0099999999999909
20
-82.1949999999999932
11
190.0099999999999909
21
-81.1949999999999932
0
LINE
8
BLACK
6
CONTINUOUS
10
190.0099999999999909
20
-81.1949999999999932
11
192.5199999999999818
21
-81.1949999999999932
0
LINE
8
BLACK
6
CONTINUOUS
10
192.5199999999999818
20
-81.1949999999999932
11
192.5199999999999818
21
-82.1949999999999932
0
LINE
8
BLACK
6
CONTINUOUS
10
189.2099999999999795
20
-79.6550000000000011
11
186.6999999999999886
21
-79.6550000000000011
0
LINE
8
BLACK
6
CONTINUOUS
10
186.6999999999999886
20
-79.6550000000000011
11
186.6999999999999886
21
-78.6550000000000011
0
LINE
8
BLACK
6
CONTINUOUS
10
186.6999999999999886
20
-78.6550000000000011
11
189.2099999999999795
21
-78.6550000000000011
0
LINE
8
BLACK
6
CONTINUOUS
10
189.2099999999999795
20
-78.6550000000000011
11
189.2099999999999795
21
-79.6550000000000011
0
LINE
8
BLACK
6
CONTINUOUS
10
178.8249999999999886
20
-79.4249999999999972
11
177.8249999999999886
21
-79.4249999999999972
0
LINE
8
BLACK
6
CONTINUOUS
10
177.8249999999999886
20
-79.4249999999999972
11
177.8249999999999886
21
-77.875
0
LINE
8
BLACK
6
CONTINUOUS
10
177.8249999999999886
20
-77.875
11
178.8249999999999886
21
-77.875
0
LINE
8
BLACK
6
CONTINUOUS
10
178.8249999999999886
20
-77.875
11
178.8249999999999886
21
-79.4249999999999972
0
LINE
8
BLACK
6
CONTINUOUS
10
180.5250000000000057
20
-79.4249999999999972
11
179.5250000000000057
21
-79.4249999999999972
0
LINE
8
BLACK
6
CONTINUOUS
10
179.5250000000000057
20
-79.4249999999999972
11
179.5250000000000057
21
-77.875
0
LINE
8
BLACK
6
CONTINUOUS
10
179.5250000000000057
20
-77.875
11
180.5250000000000057
21
-77.875
0
LINE
8
BLACK
6
CONTINUOUS
10
180.5250000000000057
20
-77.875
11
180.5250000000000057
21
-79.4249999999999972
0
LINE
8
BLACK
6
CONTINUOUS
10
214.7399999999999807
20
-77.6499999999999915
11
213.3400000000000034
21
-77.6499999999999915
0
LINE
8
BLACK
6
CONTINUOUS
10
213.3400000000000034
20
-77.6499999999999915
11
213.3400000000000034
21
-75.25
0
LINE
8
BLACK
6
CONTINUOUS
10
213.3400000000000034
20
-75.25
11
214.7399999999999807
21
-75.25
0
LINE
8
BLACK
6
CONTINUOUS
10
214.7399999999999807
20
-75.25
11
214.7399999999999807
21
-77.6499999999999915
0
LINE
8
BLACK
6
CONTINUOUS
10
217.2800000000000011
20
-77.6499999999999915
11
215.8799999999999955
21
-77.6499999999999915
0
LINE
8
BLACK
6
CONTINUOUS
10
215.8799999999999955
20
-77.6499999999999915
11
215.8799999999999955
21
-75.25
0
LINE
8
BLACK
6
CONTINUOUS
10
215.8799999999999955
20
-75.25
11
217.2800000000000011
21
-75.25
0
LINE
8
BLACK
6
CONTINUOUS
10
217.2800000000000011
20
-75.25
11
217.2800000000000011
21
-77.6499999999999915
0
LINE
8
BLACK
6
CONTINUOUS
10
219.8199999999999932
20
-77.6499999999999915
11
218.4199999999999875
21
-77.6499999999999915
0
LINE
8
BLACK
6
CONTINUOUS
10
218.4199999999999875
20
-77.6499999999999915
11
218.4199999999999875
21
-75.25
0
LINE
8
BLACK
6
CONTINUOUS
10
218.4199999999999875
20
-75.25
11
219.8199999999999932
21
-75.25
0
LINE
8
BLACK
6
CONTINUOUS
10
219.8199999999999932
20
-75.25
11
219.8199999999999932
21
-77.6499999999999915
0
LINE
8
BLACK
6
CONTINUOUS
10
222.3599999999999852
20
-77.6499999999999915
11
220.9599999999999795
21
-77.6499999999999915
0
LINE
8
BLACK
6
CONTINUOUS
10
220.9599999999999795
20
-77.6499999999999915
11
220.9599999999999795
21
-75.25
0
LINE
8
BLACK
6
CONTINUOUS
10
220.9599999999999795
20
-75.25
11
222.3599999999999852
21
-75.25
0
LINE
8
BLACK
6
CONTINUOUS
10
222.3599999999999852
20
-75.25
11
222.3599999999999852
21
-77.6499999999999915
0
LINE
8
BLACK
6
CONTINUOUS
10
224.8999999999999773
20
-77.6499999999999915
11
223.5
21
-77.6499999999999915
0
LINE
8
BLACK
6
CONTINUOUS
10
223.5
20
-77.6499999999999915
11
223.5
21
-75.25
0
LINE
8
BLACK
6
CONTINUOUS
10
223.5
20
-75.25
11
224.8999999999999773
21
-75.25
0
LINE
8
BLACK
6
CONTINUOUS
10
224.8999999999999773
20
-75.25
11
224.8999999999999773
21
-77.6499999999999915
0
LINE
8
BLACK
6
CONTINUOUS
10
227.4399999999999977
20
-77.6499999999999915
11
226.039999999999992
21
-77.6499999999999915
0
LINE
8
BLACK
6
CONTINUOUS
10
226.039999999999992
20
-77.6499999999999915
11
226.039999999999992
21
-75.25
0
LINE
8
BLACK
6
CONTINUOUS
10
226.039999999999992
20
-75.25
11
227.4399999999999977
21
-75.25
0
LINE
8
BLACK
6
CONTINUOUS
10
227.4399999999999977
20
-75.25
11
227.4399999999999977
21
-77.6499999999999915
0
LINE
8
BLACK
6
CONTINUOUS
10
229.9799999999999898
20
-77.6499999999999915
11
228.5799999999999841
21
-77.6499999999999915
0
LINE
8
BLACK
6
CONTINUOUS
10
228.5799999999999841
20
-77.6499999999999915
11
228.5799999999999841
21
-75.25
0
LINE
8
BLACK
6
CONTINUOUS
10
228.5799999999999841
20
-75.25
11
229.9799999999999898
21
-75.25
0
LINE
8
BLACK
6
CONTINUOUS
10
229.9799999999999898
20
-75.25
11
229.9799999999999898
21
-77.6499999999999915
0
LINE
8
BLACK
6
CONTINUOUS
10
232.5199999999999818
20
-77.6499999999999915
11
231.1199999999999761
21
-77.6499999999999915
0
LINE
8
BLACK
6
CONTINUOUS
10
231.1199999999999761
20
-77.6499999999999915
11
231.1199999999999761
21
-75.25
0
LINE
8
BLACK
6
CONTINUOUS
10
231.1199999999999761
20
-75.25
11
232.5199999999999818
21
-75.25
0
LINE
8
BLACK
6
CONTINUOUS
10
232.5199999999999818
20
-75.25
11
232.5199999999999818
21
-77.6499999999999915
0
LINE
8
BLACK
6
CONTINUOUS
10
235.0600000000000023
20
-77.6499999999999915
11
233.6599999999999966
21
-77.6499999999999915
0
LINE
8
BLACK
6
CONTINUOUS
10
233.6599999999999966
20
-77.6499999999999915
11
233.6599999999999966
21
-75.25
0
LINE
8
BLACK
6
CONTINUOUS
10
233.6599999999999966
20
-75.25
11
235.0600000000000023
21
-75.25
0
LINE
8
BLACK
6
CONTINUOUS
10
235.0600000000000023
20
-75.25
11
235.0600000000000023
21
-77.6499999999999915
0
LINE
8
BLACK
6
CONTINUOUS
10
192.5199999999999818
20
-77.1149999999999949
11
190.0099999999999909
21
-77.1149999999999949
0
LINE
8
BLACK
6
CONTINUOUS
10
190.0099999999999909
20
-77.1149999999999949
11
190.0099999999999909
21
-76.1149999999999949
0
LINE
8
BLACK
6
CONTINUOUS
10
190.0099999999999909
20
-76.1149999999999949
11
192.5199999999999818
21
-76.1149999999999949
0
LINE
8
BLACK
6
CONTINUOUS
10
192.5199999999999818
20
-76.1149999999999949
11
192.5199999999999818
21
-77.1149999999999949
0
LINE
8
BLACK
6
CONTINUOUS
10
178.8249999999999886
20
-74.1749999999999972
11
177.8249999999999886
21
-74.1749999999999972
0
LINE
8
BLACK
6
CONTINUOUS
10
177.8249999999999886
20
-74.1749999999999972
11
177.8249999999999886
21
-72.625
0
LINE
8
BLACK
6
CONTINUOUS
10
177.8249999999999886
20
-72.625
11
178.8249999999999886
21
-72.625
0
LINE
8
BLACK
6
CONTINUOUS
10
178.8249999999999886
20
-72.625
11
178.8249999999999886
21
-74.1749999999999972
0
LINE
8
BLACK
6
CONTINUOUS
10
180.5250000000000057
20
-74.1749999999999972
11
179.5250000000000057
21
-74.1749999999999972
0
LINE
8
BLACK
6
CONTINUOUS
10
179.5250000000000057
20
-74.1749999999999972
11
179.5250000000000057
21
-72.625
0
LINE
8
BLACK
6
CONTINUOUS
10
179.5250000000000057
20
-72.625
11
180.5250000000000057
21
-72.625
0
LINE
8
BLACK
6
CONTINUOUS
10
180.5250000000000057
20
-72.625
11
180.5250000000000057
21
-74.1749999999999972
0
LINE
8
BLACK
6
CONTINUOUS
10
180.3499999999999943
20
-70.3499999999999943
11
178.7999999999999829
21
-70.3499999999999943
0
LINE
8
BLACK
6
CONTINUOUS
10
178.7999999999999829
20
-70.3499999999999943
11
178.7999999999999829
21
-69.3499999999999943
0
LINE
8
BLACK
6
CONTINUOUS
10
178.7999999999999829
20
-69.3499999999999943
11
180.3499999999999943
21
-69.3499999999999943
0
LINE
8
BLACK
6
CONTINUOUS
10
180.3499999999999943
20
-69.3499999999999943
11
180.3499999999999943
21
-70.3499999999999943
0
LINE
8
BLACK
6
CONTINUOUS
10
185.5999999999999943
20
-70.3499999999999943
11
184.0499999999999829
21
-70.3499999999999943
0
LINE
8
BLACK
6
CONTINUOUS
10
184.0499999999999829
20
-70.3499999999999943
11
184.0499999999999829
21
-69.3499999999999943
0
LINE
8
BLACK
6
CONTINUOUS
10
184.0499999999999829
20
-69.3499999999999943
11
185.5999999999999943
21
-69.3499999999999943
0
LINE
8
BLACK
6
CONTINUOUS
10
185.5999999999999943
20
-69.3499999999999943
11
185.5999999999999943
21
-70.3499999999999943
0
LINE
8
BLACK
6
CONTINUOUS
10
196.3499999999999943
20
-70.3499999999999943
11
194.7999999999999829
21
-70.3499999999999943
0
LINE
8
BLACK
6
CONTINUOUS
10
194.7999999999999829
20
-70.3499999999999943
11
194.7999999999999829
21
-69.3499999999999943
0
LINE
8
BLACK
6
CONTINUOUS
10
194.7999999999999829
20
-69.3499999999999943
11
196.3499999999999943
21
-69.3499999999999943
0
LINE
8
BLACK
6
CONTINUOUS
10
196.3499999999999943
20
-69.3499999999999943
11
196.3499999999999943
21
-70.3499999999999943
0
LINE
8
BLACK
6
CONTINUOUS
10
201.5999999999999943
20
-70.3499999999999943
11
200.0499999999999829
21
-70.3499999999999943
0
LINE
8
BLACK
6
CONTINUOUS
10
200.0499999999999829
20
-70.3499999999999943
11
200.0499999999999829
21
-69.3499999999999943
0
LINE
8
BLACK
6
CONTINUOUS
10
200.0499999999999829
20
-69.3499999999999943
11
201.5999999999999943
21
-69.3499999999999943
0
LINE
8
BLACK
6
CONTINUOUS
10
201.5999999999999943
20
-69.3499999999999943
11
201.5999999999999943
21
-70.3499999999999943
0
LINE
8
BLACK
6
CONTINUOUS
10
213.3499999999999943
20
-70.3499999999999943
11
211.7999999999999829
21
-70.3499999999999943
0
LINE
8
BLACK
6
CONTINUOUS
10
211.7999999999999829
20
-70.3499999999999943
11
211.7999999999999829
21
-69.3499999999999943
0
LINE
8
BLACK
6
CONTINUOUS
10
211.7999999999999829
20
-69.3499999999999943
11
213.3499999999999943
21
-69.3499999999999943
0
LINE
8
BLACK
6
CONTINUOUS
10
213.3499999999999943
20
-69.3499999999999943
11
213.3499999999999943
21
-70.3499999999999943
0
LINE
8
BLACK
6
CONTINUOUS
10
218.5999999999999943
20
-70.3499999999999943
11
217.0499999999999829
21
-70.3499999999999943
0
LINE
8
BLACK
6
CONTINUOUS
10
217.0499999999999829
20
-70.3499999999999943
11
217.0499999999999829
21
-69.3499999999999943
0
LINE
8
BLACK
6
CONTINUOUS
10
217.0499999999999829
20
-69.3499999999999943
11
218.5999999999999943
21
-69.3499999999999943
0
LINE
8
BLACK
6
CONTINUOUS
10
218.5999999999999943
20
-69.3499999999999943
11
218.5999999999999943
21
-70.3499999999999943
0
LINE
8
BLACK
6
CONTINUOUS
10
229.3499999999999943
20
-70.3499999999999943
11
227.7999999999999829
21
-70.3499999999999943
0
LINE
8
BLACK
6
CONTINUOUS
10
227.7999999999999829
20
-70.3499999999999943
11
227.7999999999999829
21
-69.3499999999999943
0
LINE
8
BLACK
6
CONTINUOUS
10
227.7999999999999829
20
-69.3499999999999943
11
229.3499999999999943
21
-69.3499999999999943
0
LINE
8
BLACK
6
CONTINUOUS
10
229.3499999999999943
20
-69.3499999999999943
11
229.3499999999999943
21
-70.3499999999999943
0
LINE
8
BLACK
6
CONTINUOUS
10
234.5999999999999943
20
-70.3499999999999943
11
233.0499999999999829
21
-70.3499999999999943
0
LINE
8
BLACK
6
CONTINUOUS
10
233.0499999999999829
20
-70.3499999999999943
11
233.0499999999999829
21
-69.3499999999999943
0
LINE
8
BLACK
6
CONTINUOUS
10
233.0499999999999829
20
-69.3499999999999943
11
234.5999999999999943
21
-69.3499999999999943
0
LINE
8
BLACK
6
CONTINUOUS
10
234.5999999999999943
20
-69.3499999999999943
11
234.5999999999999943
21
-70.3499999999999943
0
LINE
8
BLACK
6
CONTINUOUS
10
180.3499999999999943
20
-68.6499999999999915
11
178.7999999999999829
21
-68.6499999999999915
0
LINE
8
BLACK
6
CONTINUOUS
10
178.7999999999999829
20
-68.6499999999999915
11
178.7999999999999829
21
-67.6499999999999915
0
LINE
8
BLACK
6
CONTINUOUS
10
178.7999999999999829
20
-67.6499999999999915
11
180.3499999999999943
21
-67.6499999999999915
0
LINE
8
BLACK
6
CONTINUOUS
10
180.3499999999999943
20
-67.6499999999999915
11
180.3499999999999943
21
-68.6499999999999915
0
LINE
8
BLACK
6
CONTINUOUS
10
185.5999999999999943
20
-68.6499999999999915
11
184.0499999999999829
21
-68.6499999999999915
0
LINE
8
BLACK
6
CONTINUOUS
10
184.0499999999999829
20
-68.6499999999999915
11
184.0499999999999829
21
-67.6499999999999915
0
LINE
8
BLACK
6
CONTINUOUS
10
184.0499999999999829
20
-67.6499999999999915
11
185.5999999999999943
21
-67.6499999999999915
0
LINE
8
BLACK
6
CONTINUOUS
10
185.5999999999999943
20
-67.6499999999999915
11
185.5999999999999943
21
-68.6499999999999915
0
LINE
8
BLACK
6
CONTINUOUS
10
196.3499999999999943
20
-68.6499999999999915
11
194.7999999999999829
21
-68.6499999999999915
0
LINE
8
BLACK
6
CONTINUOUS
10
194.7999999999999829
20
-68.6499999999999915
11
194.7999999999999829
21
-67.6499999999999915
0
LINE
8
BLACK
6
CONTINUOUS
10
194.7999999999999829
20
-67.6499999999999915
11
196.3499999999999943
21
-67.6499999999999915
0
LINE
8
BLACK
6
CONTINUOUS
10
196.3499999999999943
20
-67.6499999999999915
11
196.3499999999999943
21
-68.6499999999999915
0
LINE
8
BLACK
6
CONTINUOUS
10
201.5999999999999943
20
-68.6499999999999915
11
200.0499999999999829
21
-68.6499999999999915
0
LINE
8
BLACK
6
CONTINUOUS
10
200.0499999999999829
20
-68.6499999999999915
11
200.0499999999999829
21
-67.6499999999999915
0
LINE
8
BLACK
6
CONTINUOUS
10
200.0499999999999829
20
-67.6499999999999915
11
201.5999999999999943
21
-67.6499999999999915
0
LINE
8
BLACK
6
CONTINUOUS
10
201.5999999999999943
20
-67.6499999999999915
11
201.5999999999999943
21
-68.6499999999999915
0
LINE
8
BLACK
6
CONTINUOUS
10
213.3499999999999943
20
-68.6499999999999915
11
211.7999999999999829
21
-68.6499999999999915
0
LINE
8
BLACK
6
CONTINUOUS
10
211.7999999999999829
20
-68.6499999999999915
11
211.7999999999999829
21
-67.6499999999999915
0
LINE
8
BLACK
6
CONTINUOUS
10
211.7999999999999829
20
-67.6499999999999915
11
213.3499999999999943
21
-67.6499999999999915
0
LINE
8
BLACK
6
CONTINUOUS
10
213.3499999999999943
20
-67.6499999999999915
11
213.3499999999999943
21
-68.6499999999999915
0
LINE
8
BLACK
6
CONTINUOUS
10
218.5999999999999943
20
-68.6499999999999915
11
217.0499999999999829
21
-68.6499999999999915
0
LINE
8
BLACK
6
CONTINUOUS
10
217.0499999999999829
20
-68.6499999999999915
11
217.0499999999999829
21
-67.6499999999999915
0
LINE
8
BLACK
6
CONTINUOUS
10
217.0499999999999829
20
-67.6499999999999915
11
218.5999999999999943
21
-67.6499999999999915
0
LINE
8
BLACK
6
CONTINUOUS
10
218.5999999999999943
20
-67.6499999999999915
11
218.5999999999999943
21
-68.6499999999999915
0
LINE
8
BLACK
6
CONTINUOUS
10
229.3499999999999943
20
-68.6499999999999915
11
227.7999999999999829
21
-68.6499999999999915
0
LINE
8
BLACK
6
CONTINUOUS
10
227.7999999999999829
20
-68.6499999999999915
11
227.7999999999999829
21
-67.6499999999999915
0
LINE
8
BLACK
6
CONTINUOUS
10
227.7999999999999829
20
-67.6499999999999915
11
229.3499999999999943
21
-67.6499999999999915
0
LINE
8
BLACK
6
CONTINUOUS
10
229.3499999999999943
20
-67.6499999999999915
11
229.3499999999999943
21
-68.6499999999999915
0
LINE
8
BLACK
6
CONTINUOUS
10
234.5999999999999943
20
-68.6499999999999915
11
233.0499999999999829
21
-68.6499999999999915
0
LINE
8
BLACK
6
CONTINUOUS
10
233.0499999999999829
20
-68.6499999999999915
11
233.0499999999999829
21
-67.6499999999999915
0
LINE
8
BLACK
6
CONTINUOUS
10
233.0499999999999829
20
-67.6499999999999915
11
234.5999999999999943
21
-67.6499999999999915
0
LINE
8
BLACK
6
CONTINUOUS
10
234.5999999999999943
20
-67.6499999999999915
11
234.5999999999999943
21
-68.6499999999999915
  0
ENDSEC
  0
EOF
